<svg width="28" height="28" viewBox="0 0 28 28" fill="none" xmlns="http://www.w3.org/2000/svg">
<g clip-path="url(#clip0_5_27)">
<path d="M13.9999 27.9999C21.7319 27.9999 27.9999 21.7319 27.9999 13.9999C27.9999 6.26795 21.7319 -6.29425e-05 13.9999 -6.29425e-05C6.26795 -6.29425e-05 -6.10352e-05 6.26795 -6.10352e-05 13.9999C-6.10352e-05 21.7319 6.26795 27.9999 13.9999 27.9999Z" fill="white"/>
<path d="M2.89414 5.47664C1.79443 6.90743 0.965204 8.55654 0.482368 10.348H7.76554L2.89414 5.47664Z" fill="#0052B4"/>
<path d="M27.5177 10.348C27.0349 8.55653 26.2056 6.90743 25.106 5.47664L20.2347 10.348H27.5177Z" fill="#0052B4"/>
<path d="M0.482368 17.6523C0.965259 19.4438 1.79449 21.0929 2.89414 22.5236L7.76538 17.6523H0.482368Z" fill="#0052B4"/>
<path d="M22.5235 2.89416C21.0927 1.79445 19.4436 0.965219 17.6521 0.482328V7.76545L22.5235 2.89416Z" fill="#0052B4"/>
<path d="M5.47668 25.1059C6.90747 26.2056 8.55658 27.0348 10.348 27.5177V20.2346L5.47668 25.1059Z" fill="#0052B4"/>
<path d="M10.348 0.482328C8.55652 0.965219 6.90742 1.79445 5.47668 2.8941L10.348 7.76539V0.482328Z" fill="#0052B4"/>
<path d="M17.6524 27.5177C19.4438 27.0348 21.0929 26.2056 22.5236 25.1059L17.6524 20.2346V27.5177Z" fill="#0052B4"/>
<path d="M20.2347 17.6523L25.106 22.5237C26.2056 21.0929 27.0349 19.4438 27.5177 17.6523H20.2347Z" fill="#0052B4"/>
<path d="M27.8816 12.1739H15.8262H15.8262V0.118445C15.2284 0.0406246 14.619 -6.29425e-05 14.0001 -6.29425e-05C13.3811 -6.29425e-05 12.7717 0.0406246 12.174 0.118445V12.1738V12.1738H0.118576C0.0407562 12.7716 6.86646e-05 13.381 6.86646e-05 13.9999C6.86646e-05 14.6189 0.0407562 15.2283 0.118576 15.826H12.1739H12.1739V27.8814C12.7717 27.9592 13.3811 27.9999 14.0001 27.9999C14.619 27.9999 15.2284 27.9593 15.8261 27.8814V15.8261V15.8261H27.8816C27.9594 15.2283 28.0001 14.6189 28.0001 13.9999C28.0001 13.381 27.9594 12.7716 27.8816 12.1739V12.1739Z" fill="#D80027"/>
<path d="M17.6523 17.6518L23.8995 23.8991C24.1869 23.6119 24.461 23.3116 24.7225 23.0003L19.3739 17.6518H17.6523V17.6518Z" fill="#D80027"/>
<path d="M10.3481 17.652H10.348L4.10073 23.8992C4.38795 24.1866 4.68824 24.4607 4.99952 24.7222L10.3481 19.3735V17.652Z" fill="#D80027"/>
<path d="M10.348 10.3477V10.3476L4.10075 4.10026C3.81342 4.38747 3.53932 4.68776 3.27781 4.99904L8.62641 10.3476H10.348V10.3477Z" fill="#D80027"/>
<path d="M17.6523 10.3476L23.8996 4.10022C23.6124 3.81289 23.3121 3.53879 23.0008 3.27733L17.6523 8.62593V10.3476Z" fill="#D80027"/>
</g>
<defs>
<clipPath id="clip0_5_27">
<rect width="28" height="28" fill="white"/>
</clipPath>
</defs>
</svg>
