<svg width="28" height="28" viewBox="0 0 28 28" fill="none" xmlns="http://www.w3.org/2000/svg">
<g clip-path="url(#clip0_16_465)">
<path d="M13.7383 26.293C13.9258 26.293 14.2305 26.2227 14.5234 26.0586C21.1914 22.3203 23.4766 20.7383 23.4766 16.4609V7.49609C23.4766 6.26562 22.9492 5.87891 21.9531 5.45703C20.5703 4.88281 16.1055 3.27734 14.7227 2.79687C14.4062 2.69141 14.0664 2.62109 13.7383 2.62109C13.4102 2.62109 13.0703 2.71484 12.7656 2.79687C11.3828 3.19531 6.90625 4.89453 5.52344 5.45703C4.53906 5.86719 4 6.26562 4 7.49609V16.4609C4 20.7383 6.29688 22.3086 12.9531 26.0586C13.2578 26.2227 13.5508 26.293 13.7383 26.293ZM13.7383 24.1719C13.5508 24.1719 13.3633 24.1016 13.0117 23.8906C7.59766 20.6094 5.86328 19.6484 5.86328 16.0273V7.85938C5.86328 7.46094 5.93359 7.30859 6.26172 7.17969C8.04297 6.47656 11.5 5.31641 13.2695 4.61328C13.457 4.53125 13.6094 4.50781 13.7383 4.50781C13.8672 4.50781 14.0195 4.54297 14.207 4.61328C15.9766 5.31641 19.4102 6.55859 21.2266 7.17969C21.543 7.29688 21.6133 7.46094 21.6133 7.85938V16.0273C21.6133 19.6484 19.8789 20.5977 14.4648 23.8906C14.125 24.1016 13.9258 24.1719 13.7383 24.1719Z" fill="#494949"/>
<path d="M9.50781 18.5117C9.50781 19.3906 9.89453 19.8008 10.7031 19.8008H16.7734C17.582 19.8008 17.9688 19.3906 17.9688 18.5117V13.8477C17.9688 13.0273 17.6289 12.6172 16.9375 12.5703V11.1875C16.9375 9.03125 15.6484 7.58984 13.7383 7.58984C11.8281 7.58984 10.5391 9.03125 10.5391 11.1875V12.5703C9.84766 12.6172 9.50781 13.0273 9.50781 13.8477V18.5117ZM11.7578 12.5586V11.0586C11.7578 9.67578 12.5547 8.77344 13.7383 8.77344C14.9219 8.77344 15.7188 9.67578 15.7188 11.0586V12.5586H11.7578Z" fill="#494949"/>
</g>
<defs>
<clipPath id="clip0_16_465">
<rect width="19.4766" height="24.293" fill="white" transform="translate(4 2)"/>
</clipPath>
</defs>
</svg>
