<svg width="76" height="37" viewBox="0 0 76 37" fill="none" xmlns="http://www.w3.org/2000/svg">
<path d="M30.9465 2.4196C36.6996 2.4196 42.4527 2.44023 48.2052 2.40585C49.785 2.39622 51.3648 2.38728 52.9446 2.36734C53.0794 2.36527 53.2128 2.38522 53.347 2.39759C53.9893 2.45467 54.1564 2.97867 54.2851 3.53087C55.6439 9.33683 55.2125 15.5203 52.7983 20.9811C52.1547 22.4369 51.3688 23.8081 50.5001 25.1298C49.8173 26.1688 49.0733 27.1611 48.2591 28.1005C47.6518 28.8012 47.0136 29.4703 46.3362 30.0954C45.0617 31.272 43.709 32.3455 42.1319 33.0826C41.2955 33.4739 40.4187 33.7187 39.5061 33.8494C38.5962 33.98 37.6823 33.9787 36.7697 33.958C31.7257 33.8466 26.6816 33.9333 21.6375 33.9099C19.0265 33.8982 16.4149 33.9071 13.8039 33.9099C13.5309 33.9099 13.262 33.8879 13.0045 33.8019C12.4694 33.6245 12.1452 33.1459 12.1149 32.5112C12.1061 32.331 12.1088 32.1502 12.1088 31.97C12.1088 22.7353 12.1088 13.5006 12.1088 4.26667C12.1088 4.00261 12.1142 3.7406 12.1647 3.47585C12.2867 2.84251 12.7801 2.46498 13.4062 2.42648C13.6239 2.41272 13.8429 2.41891 14.0613 2.41891C19.6897 2.41891 25.3175 2.41891 30.9459 2.41754L30.9465 2.4196Z" fill="#2F4653"/>
<path d="M54.1139 27.4699C54.4273 27.3832 54.6821 27.2003 54.9213 27.005C55.9424 26.1729 56.7013 25.1201 57.349 23.9731C59.6837 19.8361 61.0586 15.1943 61.3282 10.4054C61.3558 9.91789 61.3585 9.43171 61.3734 8.94484C61.3754 8.87263 61.3572 8.79561 61.4192 8.71722C61.6045 8.77223 61.7717 8.86507 61.9227 9.00123C63.7296 10.6351 64.0356 13.7379 63.8401 16.0312C63.3764 21.4604 60.4385 27.2546 55.7214 30.0576C55.6128 30.1222 55.503 30.1848 55.3918 30.2453C54.6632 30.6421 53.9063 30.9536 53.1272 31.2204C52.9803 31.2706 52.8334 31.3215 52.6878 31.3717C53.3301 31.3352 54.2184 31.2211 55.2246 30.8834C57.9152 29.9812 60.0584 27.9451 61.5466 25.5348C61.9125 24.942 62.2408 24.3286 62.5616 23.7097C62.5811 23.6726 62.6007 23.6334 62.6506 23.6224C62.7099 23.6238 62.7341 23.6719 62.7543 23.7193C63.5018 25.4811 63.309 27.2876 62.2556 28.8796C60.1818 32.0119 55.7995 33.8817 52.1755 33.8968C48.8353 33.9106 45.4957 33.9064 42.1555 33.9057C42.0503 33.9057 41.8906 33.9621 41.8616 33.8108C41.8306 33.6499 42.0011 33.6692 42.0989 33.6238C47.1665 31.2465 51.0008 27.0992 53.4999 22.0346C55.6715 17.6335 56.7627 12.652 56.3374 7.72561C56.2012 6.14741 55.9141 4.58228 55.4727 3.06323C55.4464 2.97177 55.4093 2.88237 55.3918 2.78885C55.3311 2.46152 55.4262 2.379 55.7544 2.41201C56.5746 2.49384 57.2985 2.80398 57.9435 3.32179C59.1641 4.30172 59.6325 6.07864 59.9142 7.57226C60.4412 10.3697 59.9027 13.4683 59.2618 16.2052C58.4281 19.7673 57.0208 23.2483 54.9914 26.2775C54.7751 26.6007 54.525 26.8998 54.2925 27.2106C54.2298 27.2945 54.1732 27.3825 54.1139 27.4685V27.4699Z" fill="url(#paint0_linear_44_1893)"/>
<path d="M25.2326 15.7217C25.2272 15.2823 25.0937 14.8401 24.7136 14.5932C24.3436 14.3533 23.8516 14.3581 23.5604 14.7232C23.5368 14.7528 23.4863 14.803 23.5011 14.8463C23.516 14.8896 23.6076 14.8793 23.646 14.8993C23.7121 14.933 23.7384 15.0003 23.7363 15.0726C23.7337 15.1564 23.733 15.9576 23.7296 17.062C22.7773 17.0565 21.8243 17.0503 20.8719 17.0448C20.8537 16.8034 20.847 16.5325 20.8638 16.2381C20.8793 15.9665 20.9137 15.6963 20.9656 15.4294C20.9885 15.3125 21.0148 15.1963 21.0445 15.0815C21.0768 14.955 21.1665 14.7995 21.157 14.6668C21.1557 14.6489 21.1516 14.6311 21.1408 14.6173C21.1152 14.585 21.066 14.5905 21.0269 14.6008C20.7843 14.6641 20.5484 14.7961 20.3624 14.9673C20.3051 15.0196 20.1521 15.1681 20.014 15.4212C19.6473 16.091 19.6183 17.04 19.6183 17.04C19.5995 17.6534 19.5759 18.8967 20.2168 20.1874C20.2168 20.1874 20.6657 21.0924 21.308 21.3152C21.4347 21.3592 21.4691 21.3303 21.4799 21.3152C21.5297 21.2499 21.4226 21.1371 21.3909 21.0869C21.3323 20.9947 21.2824 20.8971 21.2392 20.796C21.1503 20.5876 21.091 20.3669 21.0472 20.1448C20.913 19.4681 20.8261 18.7832 20.845 18.0921H23.7296V20.6894C23.7296 20.8613 23.7984 21.027 23.954 21.1082C24.0477 21.157 24.1542 21.1742 24.2587 21.1873C24.4413 21.2107 24.628 21.223 24.8087 21.1873C24.9145 21.1666 25.0203 21.1274 25.0991 21.0525C25.2265 20.9322 25.2285 20.7685 25.2285 20.6041C25.2285 19.2996 25.2407 17.9951 25.2387 16.6906C25.2387 16.3667 25.236 16.0435 25.2326 15.7196V15.7217Z" fill="url(#paint1_linear_44_1893)"/>
<path d="M21.2805 21.6416C20.1165 21.2943 19.6623 20.0359 19.4136 18.9446C19.3597 18.7066 19.3078 18.4721 19.2768 18.2294C19.1837 17.4956 19.1878 16.689 19.421 15.9807C19.2431 16.0213 19.1628 16.1774 19.0591 16.3039C18.6796 16.766 18.6499 17.3058 18.6318 17.8422C18.5886 19.102 19.0395 19.9981 19.1399 20.1906C19.3664 20.6231 19.6131 20.9078 19.6859 20.9897C19.9447 21.2819 20.2048 21.4848 20.4043 21.6196C20.2459 21.5797 20.0222 21.5047 19.7829 21.3541C19.5612 21.2145 19.4028 21.0591 19.299 20.9402C19.1487 20.7442 19.0429 20.5716 18.9741 20.4492C18.7888 20.1218 18.5583 19.7141 18.441 19.1674C18.408 19.014 18.3857 18.8579 18.3264 18.8517C18.2408 18.8428 18.1445 19.1536 18.1236 19.2203C18.0562 19.4369 18.0393 19.637 18.04 19.7429C18.0447 20.1555 18.348 20.958 19.0725 21.5027C19.0725 21.5027 19.7061 21.9785 20.7898 22.015C20.8343 22.0164 21.0965 22.0102 21.2913 21.8678C21.387 21.7977 21.4503 21.6904 21.2805 21.6402V21.6416Z" fill="url(#paint2_linear_44_1893)"/>
<path d="M19.4227 15.9766C19.4227 15.9766 19.4218 15.9801 19.4209 15.9819C19.4227 15.9819 19.4245 15.981 19.4263 15.9801L19.4227 15.9766Z" fill="url(#paint3_linear_44_1893)"/>
<path d="M19.4225 15.9767L19.426 15.9802L19.44 15.9607L19.4225 15.9767Z" fill="url(#paint4_linear_44_1893)"/>
<path d="M40.1288 15.5687C40.1335 15.4174 40.1288 15.1932 40.0755 14.9237C40.0701 14.8948 40.0634 14.826 40.029 14.7462C40.0108 14.7029 39.9596 14.5881 39.8403 14.5097C39.7763 14.4684 39.7048 14.4437 39.6293 14.4443C39.5768 14.4443 39.5242 14.4485 39.4723 14.4485C39.3995 14.4485 39.3267 14.4505 39.2539 14.4512C39.1124 14.4526 38.9709 14.4492 38.83 14.4547C38.7033 14.4595 38.5847 14.5035 38.4944 14.6004C38.3872 14.7153 38.3016 14.879 38.1601 15.2297C38.1365 15.2874 38.1176 15.3369 38.1048 15.3706C38.0509 15.4896 37.29 17.173 37.0022 17.6599C36.9813 17.6963 36.9341 17.774 36.8761 17.7713C36.8175 17.774 36.771 17.6963 36.7501 17.6599C36.463 17.1723 35.7014 15.4896 35.6475 15.3706C35.6347 15.3369 35.6158 15.2881 35.5922 15.2297C35.4507 14.879 35.3651 14.7153 35.2579 14.6004C35.1683 14.5035 35.0496 14.4595 34.9223 14.4547C34.7807 14.4499 34.6392 14.4526 34.4983 14.4512C34.4255 14.4512 34.3528 14.4492 34.28 14.4485C34.2274 14.4485 34.1748 14.445 34.1229 14.4443C34.0474 14.4443 33.9767 14.4684 33.912 14.5097C33.7927 14.5881 33.7415 14.7029 33.7233 14.7462C33.6889 14.826 33.6821 14.8948 33.6767 14.9237C33.6242 15.1939 33.6188 15.4181 33.6235 15.5687C33.5682 17.3009 33.513 19.0318 33.457 20.764C33.4591 20.7929 33.4644 20.8328 33.4799 20.8775C33.5669 21.1312 33.8823 21.2557 34.1249 21.2591C34.3703 21.2626 34.6635 21.1436 34.7672 20.9139C34.7686 20.9112 34.7875 20.8665 34.7976 20.817C34.8697 20.4642 34.9115 17.6234 34.927 16.3863C35.5915 17.7754 36.1112 18.8138 36.3518 19.2718C36.4003 19.366 36.5048 19.5551 36.6969 19.6197C36.7521 19.639 36.8135 19.6493 36.8761 19.65C36.9388 19.65 37.0001 19.639 37.0554 19.6197C37.2475 19.5551 37.3513 19.366 37.4005 19.2718C37.6404 18.8138 38.1607 17.7754 38.8253 16.3863C38.8408 17.6241 38.8826 20.4642 38.9547 20.817C38.9648 20.8665 38.9837 20.9112 38.985 20.9139C39.0888 21.1436 39.382 21.2626 39.6273 21.2591C39.8706 21.2557 40.1854 21.1312 40.2723 20.8775C40.2878 20.8328 40.2932 20.7929 40.2952 20.764C40.24 19.0318 40.1847 17.3009 40.1288 15.5687Z" fill="url(#paint5_linear_44_1893)"/>
<path d="M28.2913 19.6699C28.3065 19.672 28.3216 19.6747 28.3354 19.6789C28.3354 19.6803 28.3354 19.6809 28.334 19.6823C28.3223 19.7016 28.2824 19.6906 28.2913 19.6699Z" fill="white"/>
<path d="M32.1331 14.6515C31.995 14.4734 31.7591 14.4665 31.532 14.4603C31.317 14.4541 31.0433 14.4465 30.8721 14.6405C30.7771 14.7484 30.7508 14.8757 30.7427 14.9527C30.7387 16.231 30.7346 17.5087 30.7306 18.7871C30.7326 18.9123 30.7205 19.1481 30.5965 19.4074C30.4657 19.6811 30.2804 19.8365 30.2332 19.8743C30.2332 19.8743 29.9178 20.1287 29.5053 20.1624C29.4642 20.1659 29.4204 20.1672 29.4204 20.1672C29.4096 20.1672 29.3988 20.1672 29.388 20.1679C29.3772 20.1679 29.3665 20.1679 29.3557 20.1672C29.3557 20.1672 29.3125 20.1659 29.2707 20.1624C28.8583 20.128 28.5428 19.8743 28.5428 19.8743C28.495 19.8358 28.3103 19.6811 28.1796 19.4074C28.0556 19.1481 28.0434 18.9123 28.0454 18.7871C28.0414 17.5087 28.0374 16.231 28.0333 14.9527C28.0252 14.8757 27.9996 14.7484 27.9039 14.6405C27.7327 14.4465 27.4591 14.4541 27.2441 14.4603C27.0176 14.4665 26.7811 14.4734 26.6429 14.6515C26.5344 14.7911 26.5431 14.9637 26.5519 15.0386V19.0518C26.5519 19.4253 26.657 19.9197 27.0082 20.3894C27.4025 20.9168 27.9625 21.152 28.1351 21.2173C28.4849 21.35 28.8293 21.3872 28.9344 21.3975C29.1171 21.416 29.2728 21.4167 29.388 21.4133C29.5033 21.4167 29.659 21.416 29.8416 21.3975C29.9467 21.3865 30.2912 21.3493 30.6409 21.2173C30.8135 21.152 31.3736 20.9168 31.7678 20.3894C32.1183 19.9197 32.2241 19.4253 32.2241 19.0518V15.0386C32.2329 14.9637 32.2417 14.7911 32.1331 14.6515Z" fill="url(#paint6_linear_44_1893)"/>
<path d="M28.6133 21.3259C28.6256 21.328 28.6372 21.3314 28.6481 21.3362L28.6283 21.3485L28.614 21.3259H28.6133Z" fill="white"/>
<path d="M47.7399 16.5818C47.5498 15.9375 47.1616 15.3695 46.6345 14.9651C46.0367 14.5071 45.2953 14.2671 44.5506 14.2493C43.8058 14.2671 43.0645 14.5071 42.4666 14.9651C41.9389 15.3695 41.5507 15.9375 41.3613 16.5818C40.8188 18.4317 41.635 20.7917 43.5881 21.3137C43.9036 21.3976 44.2278 21.4333 44.5506 21.4244C44.8741 21.4333 45.1983 21.3976 45.513 21.3137C47.4662 20.7917 48.2824 18.4317 47.7399 16.5818ZM46.2895 18.6469C46.0852 19.523 45.5151 20.4644 44.5499 20.4747C43.5848 20.4644 43.0146 19.523 42.8104 18.6469C42.6136 17.8031 42.65 16.8094 43.113 16.0565C43.4338 15.5345 43.9797 15.2258 44.5492 15.2216C45.1194 15.2258 45.6647 15.5352 45.9855 16.0565C46.4485 16.8094 46.4849 17.8031 46.2881 18.6469H46.2895Z" fill="url(#paint7_linear_44_1893)"/>
<defs>
<linearGradient id="paint0_linear_44_1893" x1="39.4137" y1="22.9622" x2="64.5861" y2="15.3889" gradientUnits="userSpaceOnUse">
<stop offset="0.33" stop-color="#9C8837"/>
<stop offset="0.56" stop-color="#F7E59E"/>
<stop offset="0.6" stop-color="#F0DE96"/>
<stop offset="0.67" stop-color="#DECB80"/>
<stop offset="0.75" stop-color="#C0AC5D"/>
<stop offset="0.79" stop-color="#B39F4D"/>
</linearGradient>
<linearGradient id="paint1_linear_44_1893" x1="23.8523" y1="18.6388" x2="19.1649" y2="15.1625" gradientUnits="userSpaceOnUse">
<stop offset="0.33" stop-color="#9C8837"/>
<stop offset="0.56" stop-color="#F7E59E"/>
<stop offset="0.6" stop-color="#F0DE96"/>
<stop offset="0.67" stop-color="#DECB80"/>
<stop offset="0.75" stop-color="#C0AC5D"/>
<stop offset="0.79" stop-color="#B39F4D"/>
</linearGradient>
<linearGradient id="paint2_linear_44_1893" x1="22.1263" y1="20.9656" x2="17.439" y2="17.4894" gradientUnits="userSpaceOnUse">
<stop offset="0.33" stop-color="#9C8837"/>
<stop offset="0.56" stop-color="#F7E59E"/>
<stop offset="0.6" stop-color="#F0DE96"/>
<stop offset="0.67" stop-color="#DECB80"/>
<stop offset="0.75" stop-color="#C0AC5D"/>
<stop offset="0.79" stop-color="#B39F4D"/>
</linearGradient>
<linearGradient id="paint3_linear_44_1893" x1="24.8608" y1="20.0372" x2="18.7543" y2="15.3494" gradientUnits="userSpaceOnUse">
<stop offset="0.33" stop-color="#9C8837"/>
<stop offset="0.56" stop-color="#F7E59E"/>
<stop offset="0.6" stop-color="#F0DE96"/>
<stop offset="0.67" stop-color="#DECB80"/>
<stop offset="0.75" stop-color="#C0AC5D"/>
<stop offset="0.79" stop-color="#B39F4D"/>
</linearGradient>
<linearGradient id="paint4_linear_44_1893" x1="23.6374" y1="19.1569" x2="18.8591" y2="15.5452" gradientUnits="userSpaceOnUse">
<stop offset="0.33" stop-color="#9C8837"/>
<stop offset="0.56" stop-color="#F7E59E"/>
<stop offset="0.6" stop-color="#F0DE96"/>
<stop offset="0.67" stop-color="#DECB80"/>
<stop offset="0.75" stop-color="#C0AC5D"/>
<stop offset="0.79" stop-color="#B39F4D"/>
</linearGradient>
<linearGradient id="paint5_linear_44_1893" x1="40.9672" y1="20.0942" x2="33.7246" y2="16.3294" gradientUnits="userSpaceOnUse">
<stop offset="0.33" stop-color="#9C8837"/>
<stop offset="0.56" stop-color="#F7E59E"/>
<stop offset="0.6" stop-color="#F0DE96"/>
<stop offset="0.67" stop-color="#DECB80"/>
<stop offset="0.75" stop-color="#C0AC5D"/>
<stop offset="0.79" stop-color="#B39F4D"/>
</linearGradient>
<linearGradient id="paint6_linear_44_1893" x1="32.923" y1="19.7354" x2="25.6626" y2="15.28" gradientUnits="userSpaceOnUse">
<stop offset="0.33" stop-color="#9C8837"/>
<stop offset="0.56" stop-color="#F7E59E"/>
<stop offset="0.6" stop-color="#F0DE96"/>
<stop offset="0.67" stop-color="#DECB80"/>
<stop offset="0.75" stop-color="#C0AC5D"/>
<stop offset="0.79" stop-color="#B39F4D"/>
</linearGradient>
<linearGradient id="paint7_linear_44_1893" x1="49.6149" y1="20.8557" x2="40.5978" y2="15.7263" gradientUnits="userSpaceOnUse">
<stop offset="0.33" stop-color="#9C8837"/>
<stop offset="0.56" stop-color="#F7E59E"/>
<stop offset="0.6" stop-color="#F0DE96"/>
<stop offset="0.67" stop-color="#DECB80"/>
<stop offset="0.75" stop-color="#C0AC5D"/>
<stop offset="0.79" stop-color="#B39F4D"/>
</linearGradient>
</defs>
</svg>
