<svg width="28" height="28" viewBox="0 0 28 28" fill="none" xmlns="http://www.w3.org/2000/svg">
<g clip-path="url(#clip0_5_23)">
<path d="M13.9999 27.9999C21.7319 27.9999 27.9999 21.7319 27.9999 13.9999C27.9999 6.26794 21.7319 -6.96182e-05 13.9999 -6.96182e-05C6.26794 -6.96182e-05 -6.86646e-05 6.26794 -6.86646e-05 13.9999C-6.86646e-05 21.7319 6.26794 27.9999 13.9999 27.9999Z" fill="white"/>
<path d="M27.129 18.8691C27.6918 17.3525 27.9998 15.7121 27.9998 13.9996C27.9998 12.2871 27.6918 10.6467 27.129 9.13006H0.870595C0.30786 10.6467 -0.00019455 12.2871 -0.00019455 13.9996C-0.00019455 15.7121 0.30786 17.3525 0.870595 18.8691L13.9998 20.0865L27.129 18.8691Z" fill="#0052B4"/>
<path d="M13.9999 27.9998C20.0194 27.9998 25.151 24.2005 27.1291 18.8693H0.870644C2.84875 24.2005 7.98035 27.9998 13.9999 27.9998Z" fill="#D80027"/>
</g>
<defs>
<clipPath id="clip0_5_23">
<rect width="28" height="28" fill="white"/>
</clipPath>
</defs>
</svg>
