<svg width="29" height="28" viewBox="0 0 29 28" fill="none" xmlns="http://www.w3.org/2000/svg">
<path d="M0.946223 9.73892C0.517361 11.0825 0.285102 12.5138 0.285156 13.9996C0.285102 15.4855 0.517415 16.917 0.946277 18.2605L14.2852 18.8693L27.6242 18.2606C28.053 16.917 28.2854 15.4855 28.2854 13.9998C28.2853 12.5139 28.0531 11.0825 27.6242 9.73886L14.2852 9.13019L0.946223 9.73892Z" fill="white"/>
<path d="M27.6243 9.73886L14.2853 9.13019L0.946318 9.73886C0.819224 10.1372 0.709794 10.5434 0.618082 10.9563H27.9524C27.8608 10.5433 27.7514 10.1371 27.6243 9.73886Z" fill="#D91538"/>
<path d="M0.618242 17.0434C0.709844 17.4563 0.819275 17.8624 0.946369 18.2607L0.947682 18.2608L14.2853 18.8695L27.6242 18.2608C27.7513 17.8625 27.8608 17.4563 27.9524 17.0434H0.618242Z" fill="#D91538"/>
<path d="M14.2856 28C20.5318 28 25.8217 23.9092 27.6245 18.2608H0.946651C2.74943 23.9091 8.0395 28 14.2856 28V28Z" fill="#13A533"/>
<path d="M14.2852 5.48305e-10C8.03906 5.46884e-05 2.74911 4.09087 0.946215 9.73919L27.6241 9.73924C25.8214 4.09081 20.5314 -5.46873e-05 14.2852 5.48305e-10V5.48305e-10Z" fill="#338AF3"/>
<path d="M6.68306 5.78249C6.68306 4.47124 7.6046 3.37584 8.83524 3.10711C8.64613 3.06576 8.44986 3.0434 8.24828 3.0434C6.7355 3.0434 5.50913 4.26972 5.50913 5.78254C5.50913 7.29537 6.73539 8.52169 8.24828 8.52169C8.44986 8.52169 8.64608 8.49927 8.83524 8.45798C7.60466 8.18914 6.68306 7.09374 6.68306 5.78249V5.78249Z" fill="#F0F0F0"/>
<path d="M10.4543 7.02764L10.6397 7.5983H11.2397L10.7543 7.95104L10.9397 8.52171L10.4543 8.16903L9.96879 8.52171L10.1542 7.95104L9.66877 7.5983H10.2688L10.4543 7.02764Z" fill="#F0F0F0"/>
<path d="M12.3696 7.02764L12.555 7.5983H13.1551L12.6696 7.95104L12.855 8.52171L12.3696 8.16903L11.8841 8.52171L12.0696 7.95104L11.5841 7.5983H12.1841L12.3696 7.02764Z" fill="#F0F0F0"/>
<path d="M14.2846 7.02764L14.47 7.5983H15.0701L14.5846 7.95104L14.77 8.52171L14.2846 8.16903L13.7991 8.52171L13.9846 7.95104L13.499 7.5983H14.0991L14.2846 7.02764Z" fill="#F0F0F0"/>
<path d="M16.1997 7.02764L16.3852 7.5983H16.9851L16.4997 7.95104L16.6852 8.52171L16.1997 8.16903L15.7142 8.52171L15.8997 7.95104L15.4142 7.5983H16.0142L16.1997 7.02764Z" fill="#F0F0F0"/>
<path d="M18.115 7.02764L18.3004 7.5983H18.9005L18.415 7.95104L18.6005 8.52171L18.115 8.16903L17.6295 8.52171L17.815 7.95104L17.3295 7.5983H17.9295L18.115 7.02764Z" fill="#F0F0F0"/>
<path d="M12.3696 5.0356L12.555 5.60621H13.1551L12.6696 5.959L12.855 6.52962L12.3696 6.17693L11.8841 6.52962L12.0696 5.959L11.5841 5.60621H12.1841L12.3696 5.0356Z" fill="#F0F0F0"/>
<path d="M14.2846 5.0356L14.47 5.60621H15.0701L14.5846 5.959L14.77 6.52962L14.2846 6.17693L13.7991 6.52962L13.9846 5.959L13.499 5.60621H14.0991L14.2846 5.0356Z" fill="#F0F0F0"/>
<path d="M16.1997 5.0356L16.3852 5.60621H16.9851L16.4997 5.959L16.6852 6.52962L16.1997 6.17693L15.7142 6.52962L15.8997 5.959L15.4142 5.60621H16.0142L16.1997 5.0356Z" fill="#F0F0F0"/>
<path d="M18.115 5.0356L18.3004 5.60621H18.9005L18.415 5.959L18.6005 6.52962L18.115 6.17693L17.6295 6.52962L17.815 5.959L17.3295 5.60621H17.9295L18.115 5.0356Z" fill="#F0F0F0"/>
<path d="M14.2846 3.04356L14.47 3.61429H15.0701L14.5846 3.96697L14.77 4.53769L14.2846 4.18501L13.7991 4.53769L13.9846 3.96697L13.499 3.61429H14.0991L14.2846 3.04356Z" fill="#F0F0F0"/>
<path d="M16.1997 3.04356L16.3852 3.61429H16.9851L16.4997 3.96697L16.6852 4.53769L16.1997 4.18501L15.7142 4.53769L15.8997 3.96697L15.4142 3.61429H16.0142L16.1997 3.04356Z" fill="#F0F0F0"/>
<path d="M18.115 3.04356L18.3004 3.61429H18.9005L18.415 3.96697L18.6005 4.53769L18.115 4.18501L17.6295 4.53769L17.815 3.96697L17.3295 3.61429H17.9295L18.115 3.04356Z" fill="#F0F0F0"/>
</svg>
