<svg width="68" height="68" viewBox="0 0 68 68" fill="none" xmlns="http://www.w3.org/2000/svg">
<rect width="68" height="68" rx="34" fill="#EDFAF4"/>
<path fill-rule="evenodd" clip-rule="evenodd" d="M16.1344 45.1906C14.6695 46.651 13.7142 47.603 13.7142 47.603L20.5527 54.4414L23.0097 51.9898C26.2098 53.949 29.973 55.0783 34 55.0783C45.6411 55.0783 55.0781 45.6413 55.0781 34.0002C55.0781 34.0001 55.0781 34.0001 55.0781 34C55.0781 32.5449 54.9307 31.1242 54.6499 29.752C52.6844 20.1471 44.186 12.9219 34 12.9219C22.3589 12.9219 12.9219 22.3589 12.9219 34C12.9219 34.6287 12.9494 35.2509 13.0033 35.8656C13.3019 39.2707 14.4101 42.4436 16.1344 45.1906Z" fill="#00BA77"/>
<path d="M28.314 33.1372C23.2872 38.164 16.1851 45.2755 16.1851 45.2755L23.0495 52.046L35.1525 39.9757L35.1525 51.8583L44.4184 51.8583L44.4184 23.625L16.1852 23.625L16.1852 33.1372L28.314 33.1372Z" fill="white"/>
</svg>
