<svg width="68" height="68" viewBox="0 0 68 68" fill="none" xmlns="http://www.w3.org/2000/svg">
<rect width="68" height="68" rx="34" fill="#EDFAF4"/>
<g clip-path="url(#clip0_1287_32841)">
<path d="M15.5513 29.2861L15.705 28.7192L52.6969 38.714L52.544 39.2816" fill="#BDFF00"/>
<path d="M38.8383 15.4277L39.4052 15.5806L29.4104 52.5733L28.8428 52.4205" fill="#BDFF00"/>
<path d="M47.4929 20.2725L47.9076 20.6889L20.7551 47.7274L20.3403 47.311" fill="#BDFF00"/>
<path d="M47.8514 47.3698L47.4358 47.7846L20.3965 20.6321L20.8129 20.2173" fill="#BDFF00"/>
<path d="M52.5653 28.7959L52.7165 29.3644L15.6825 39.2038L15.5312 38.6361" fill="#BDFF00"/>
<path d="M39.3283 52.4418L38.7606 52.593L28.9204 15.5589L29.4881 15.4077" fill="#BDFF00"/>
<path d="M40.1027 23.1081L27.6377 44.5952L28.1459 44.89L40.6109 23.4029L40.1027 23.1081Z" fill="#BDFF00"/>
<path d="M23.557 27.5299L23.2622 28.0381L44.6921 40.4699L44.9869 39.9617L23.557 27.5299Z" fill="#BDFF00"/>
<path d="M44.7331 27.5679L23.2246 39.9258L23.5173 40.4352L45.0258 28.0773L44.7331 27.5679Z" fill="#BDFF00"/>
<path d="M28.1994 23.0979L27.6899 23.3906L40.0507 44.9041L40.5601 44.6114L28.1994 23.0979Z" fill="#BDFF00"/>
<path d="M21.7385 33.6806L21.7373 34.2681L46.5101 34.32L46.5114 33.7325L21.7385 33.6806Z" fill="#BDFF00"/>
<path d="M33.8579 21.5683L33.8032 46.4312L34.3907 46.4324L34.4453 21.5696L33.8579 21.5683Z" fill="#BDFF00"/>
<path d="M40.7229 24.8613C41.9573 24.8613 42.958 23.8606 42.958 22.6262C42.958 21.3918 41.9573 20.3911 40.7229 20.3911C39.4885 20.3911 38.4878 21.3918 38.4878 22.6262C38.4878 23.8606 39.4885 24.8613 40.7229 24.8613Z" fill="#00C508"/>
<path d="M34.1506 23.1098C35.385 23.1098 36.3857 22.1092 36.3857 20.8747C36.3857 19.6403 35.385 18.6396 34.1506 18.6396C32.9162 18.6396 31.9155 19.6403 31.9155 20.8747C31.9155 22.1092 32.9162 23.1098 34.1506 23.1098Z" fill="#00C508"/>
<path d="M27.5964 24.8213C28.8308 24.8213 29.8315 23.8206 29.8315 22.5862C29.8315 21.3518 28.8308 20.3511 27.5964 20.3511C26.362 20.3511 25.3613 21.3518 25.3613 22.5862C25.3613 23.8206 26.362 24.8213 27.5964 24.8213Z" fill="#00C508"/>
<path d="M22.8015 29.7075C24.0359 29.7075 25.0366 28.7068 25.0366 27.4724C25.0366 26.238 24.0359 25.2373 22.8015 25.2373C21.5671 25.2373 20.5664 26.238 20.5664 27.4724C20.5664 28.7068 21.5671 29.7075 22.8015 29.7075Z" fill="#00C508"/>
<path d="M21.0456 36.2095C22.2801 36.2095 23.2807 35.2088 23.2807 33.9744C23.2807 32.7399 22.2801 31.7393 21.0456 31.7393C19.8112 31.7393 18.8105 32.7399 18.8105 33.9744C18.8105 35.2088 19.8112 36.2095 21.0456 36.2095Z" fill="#00C508"/>
<path d="M22.7786 42.7549C24.013 42.7549 25.0137 41.7542 25.0137 40.5198C25.0137 39.2854 24.013 38.2847 22.7786 38.2847C21.5441 38.2847 20.5435 39.2854 20.5435 40.5198C20.5435 41.7542 21.5441 42.7549 22.7786 42.7549Z" fill="#00C508"/>
<path d="M27.5618 47.5464C28.7962 47.5464 29.7969 46.5457 29.7969 45.3113C29.7969 44.0769 28.7962 43.0762 27.5618 43.0762C26.3273 43.0762 25.3267 44.0769 25.3267 45.3113C25.3267 46.5457 26.3273 47.5464 27.5618 47.5464Z" fill="#00C508"/>
<path d="M40.6404 47.5786C41.8748 47.5786 42.8755 46.5779 42.8755 45.3435C42.8755 44.1091 41.8748 43.1084 40.6404 43.1084C39.406 43.1084 38.4053 44.1091 38.4053 45.3435C38.4053 46.5779 39.406 47.5786 40.6404 47.5786Z" fill="#00C508"/>
<path d="M45.4368 42.8003C46.6712 42.8003 47.6719 41.7996 47.6719 40.5652C47.6719 39.3308 46.6712 38.3301 45.4368 38.3301C44.2023 38.3301 43.2017 39.3308 43.2017 40.5652C43.2017 41.7996 44.2023 42.8003 45.4368 42.8003Z" fill="#00C508"/>
<path d="M47.2019 36.2646C48.4363 36.2646 49.437 35.2639 49.437 34.0295C49.437 32.7951 48.4363 31.7944 47.2019 31.7944C45.9675 31.7944 44.9668 32.7951 44.9668 34.0295C44.9668 35.2639 45.9675 36.2646 47.2019 36.2646Z" fill="#00C508"/>
<path d="M45.5334 29.6806C46.7679 29.6806 47.7685 28.68 47.7685 27.4455C47.7685 26.2111 46.7679 25.2104 45.5334 25.2104C44.299 25.2104 43.2983 26.2111 43.2983 27.4455C43.2983 28.68 44.299 29.6806 45.5334 29.6806Z" fill="#00C508"/>
<path d="M34.0959 49.3105C35.3303 49.3105 36.331 48.3098 36.331 47.0754C36.331 45.841 35.3303 44.8403 34.0959 44.8403C32.8615 44.8403 31.8608 45.841 31.8608 47.0754C31.8608 48.3098 32.8615 49.3105 34.0959 49.3105Z" fill="#00C508"/>
<path d="M47.6914 23.1719C49.1727 23.1719 50.3735 21.971 50.3735 20.4897C50.3735 19.0084 49.1727 17.8076 47.6914 17.8076C46.2101 17.8076 45.0093 19.0084 45.0093 20.4897C45.0093 21.971 46.2101 23.1719 47.6914 23.1719Z" fill="#00C508"/>
<path d="M52.6201 31.7676C54.1014 31.7676 55.3022 30.5667 55.3022 29.0854C55.3022 27.6041 54.1014 26.4033 52.6201 26.4033C51.1388 26.4033 49.938 27.6041 49.938 29.0854C49.938 30.5667 51.1388 31.7676 52.6201 31.7676Z" fill="#00C508"/>
<path d="M52.5869 41.6704C54.0682 41.6704 55.269 40.4696 55.269 38.9883C55.269 37.507 54.0682 36.3062 52.5869 36.3062C51.1056 36.3062 49.9048 37.507 49.9048 38.9883C49.9048 40.4696 51.1056 41.6704 52.5869 41.6704Z" fill="#00C508"/>
<path d="M47.6484 50.2622C49.1297 50.2622 50.3305 49.0614 50.3305 47.5801C50.3305 46.0988 49.1297 44.8979 47.6484 44.8979C46.1671 44.8979 44.9663 46.0988 44.9663 47.5801C44.9663 49.0614 46.1671 50.2622 47.6484 50.2622Z" fill="#00C508"/>
<path d="M39.1284 55.1738C40.6097 55.1738 41.8105 53.973 41.8105 52.4917C41.8105 51.0104 40.6097 49.8096 39.1284 49.8096C37.6471 49.8096 36.4463 51.0104 36.4463 52.4917C36.4463 53.973 37.6471 55.1738 39.1284 55.1738Z" fill="#00C508"/>
<path d="M29.1172 55.2129C30.5985 55.2129 31.7993 54.012 31.7993 52.5308C31.7993 51.0495 30.5985 49.8486 29.1172 49.8486C27.6359 49.8486 26.4351 51.0495 26.4351 52.5308C26.4351 54.012 27.6359 55.2129 29.1172 55.2129Z" fill="#00C508"/>
<path d="M39.1279 18.1494C40.6092 18.1494 41.81 16.9486 41.81 15.4673C41.81 13.986 40.6092 12.7852 39.1279 12.7852C37.6466 12.7852 36.4458 13.986 36.4458 15.4673C36.4458 16.9486 37.6466 18.1494 39.1279 18.1494Z" fill="#00C508"/>
<path d="M29.4106 18.2378C30.8919 18.2378 32.0928 17.0369 32.0928 15.5557C32.0928 14.0744 30.8919 12.8735 29.4106 12.8735C27.9293 12.8735 26.7285 14.0744 26.7285 15.5557C26.7285 17.0369 27.9293 18.2378 29.4106 18.2378Z" fill="#00C508"/>
<path d="M20.8247 23.1826C22.306 23.1826 23.5068 21.9818 23.5068 20.5005C23.5068 19.0192 22.306 17.8184 20.8247 17.8184C19.3434 17.8184 18.1426 19.0192 18.1426 20.5005C18.1426 21.9818 19.3434 23.1826 20.8247 23.1826Z" fill="#00C508"/>
<path d="M15.8677 31.7563C17.349 31.7563 18.5498 30.5555 18.5498 29.0742C18.5498 27.5929 17.349 26.3921 15.8677 26.3921C14.3864 26.3921 13.1855 27.5929 13.1855 29.0742C13.1855 30.5555 14.3864 31.7563 15.8677 31.7563Z" fill="#00C508"/>
<path d="M15.81 41.6665C17.2913 41.6665 18.4922 40.4657 18.4922 38.9844C18.4922 37.5031 17.2913 36.3022 15.81 36.3022C14.3288 36.3022 13.1279 37.5031 13.1279 38.9844C13.1279 40.4657 14.3288 41.6665 15.81 41.6665Z" fill="#00C508"/>
<path d="M20.6982 50.1997C22.1795 50.1997 23.3803 48.9989 23.3803 47.5176C23.3803 46.0363 22.1795 44.8354 20.6982 44.8354C19.2169 44.8354 18.0161 46.0363 18.0161 47.5176C18.0161 48.9989 19.2169 50.1997 20.6982 50.1997Z" fill="#00C508"/>
<path d="M34.2145 38.9686C36.9585 38.9686 39.183 36.7442 39.183 34.0002C39.183 31.2562 36.9585 29.0317 34.2145 29.0317C31.4705 29.0317 29.2461 31.2562 29.2461 34.0002C29.2461 36.7442 31.4705 38.9686 34.2145 38.9686Z" fill="#272727"/>
</g>
<defs>
<clipPath id="clip0_1287_32841">
<rect width="42.176" height="42.4297" fill="white" transform="translate(13.127 12.7852)"/>
</clipPath>
</defs>
</svg>
