<svg width="20" height="21" viewBox="0 0 20 21" fill="none" xmlns="http://www.w3.org/2000/svg">
<g id="hotel-air-conditioner--heating-ac-air-hvac-cool-cooling-cold-hot-conditioning-hotel" clip-path="url(#clip0_60_3688)">
<g id="hotel-air-conditioner--heating-ac-air-hvac-cool-cooling-cold-hot-conditioning-hotel_2">
<path id="Vector" d="M17.8572 1.21436H2.14293C1.35395 1.21436 0.714355 1.85395 0.714355 2.64293V9.78578C0.714355 10.5748 1.35395 11.2144 2.14293 11.2144H17.8572C18.6462 11.2144 19.2858 10.5748 19.2858 9.78578V2.64293C19.2858 1.85395 18.6462 1.21436 17.8572 1.21436Z" stroke="black" stroke-width="2" stroke-linecap="round" stroke-linejoin="round"/>
<path id="Vector_2" d="M15.7145 11.2144V8.35728C15.7145 7.9784 15.5639 7.61504 15.296 7.34713C15.0282 7.07923 14.6647 6.92871 14.2859 6.92871H5.71446C5.33557 6.92871 4.97222 7.07923 4.7043 7.34713C4.4364 7.61504 4.28589 7.9784 4.28589 8.35728V11.2144" stroke="black" stroke-width="2" stroke-linecap="round" stroke-linejoin="round"/>
<path id="Vector 14" d="M3.57153 18.3571H3.71439C4.81896 18.3571 5.71439 17.4616 5.71439 16.3571V14.7856" stroke="black" stroke-width="2" stroke-linecap="round" stroke-linejoin="round"/>
<path id="Vector 15" d="M16.4287 18.3571H16.2859C15.1813 18.3571 14.2859 17.4616 14.2859 16.3571V14.7856" stroke="black" stroke-width="2" stroke-linecap="round" stroke-linejoin="round"/>
<path id="Vector 16" d="M10 19.7856V14.7856" stroke="black" stroke-width="2" stroke-linecap="round" stroke-linejoin="round"/>
</g>
</g>
<defs>
<clipPath id="clip0_60_3688">
<rect width="20" height="20" fill="white" transform="translate(0 0.5)"/>
</clipPath>
</defs>
</svg>
