<svg width="25" height="24" viewBox="0 0 25 24" fill="none" xmlns="http://www.w3.org/2000/svg">
<path d="M10.75 2.25C10.3358 2.25 10 2.58579 10 3V3.75H5.75C5.33579 3.75 5 4.08579 5 4.5C5 4.91421 5.33579 5.25 5.75 5.25H19.75C20.1642 5.25 20.5 4.91421 20.5 4.5C20.5 4.08579 20.1642 3.75 19.75 3.75H15.5V3C15.5 2.58579 15.1642 2.25 14.75 2.25H10.75Z" fill="black"/>
<path d="M10.75 10.65C11.1642 10.65 11.5 10.9858 11.5 11.4L11.5 18.4C11.5 18.8142 11.1642 19.15 10.75 19.15C10.3358 19.15 10 18.8142 10 18.4L10 11.4C10 10.9858 10.3358 10.65 10.75 10.65Z" fill="black"/>
<path d="M15.5 11.4C15.5 10.9858 15.1642 10.65 14.75 10.65C14.3358 10.65 14 10.9858 14 11.4V18.4C14 18.8142 14.3358 19.15 14.75 19.15C15.1642 19.15 15.5 18.8142 15.5 18.4V11.4Z" fill="black"/>
<path fill-rule="evenodd" clip-rule="evenodd" d="M6.74142 7.91718C6.78363 7.53735 7.10468 7.25 7.48684 7.25H18.0132C18.3953 7.25 18.7164 7.53735 18.7586 7.91718L18.9587 9.71852C19.3215 12.9838 19.3215 16.2793 18.9587 19.5446L18.939 19.722C18.795 21.0181 17.7904 22.0517 16.4989 22.2325C14.0118 22.5807 11.4882 22.5807 9.00108 22.2325C7.70954 22.0517 6.705 21.0181 6.56098 19.722L6.54128 19.5446C6.17846 16.2793 6.17846 12.9838 6.54128 9.71852L6.74142 7.91718ZM8.15812 8.75L8.0321 9.88417C7.68152 13.0394 7.68152 16.2238 8.0321 19.379L8.0518 19.5563C8.12011 20.171 8.59652 20.6612 9.20905 20.747C11.5582 21.0758 13.9418 21.0758 16.2909 20.747C16.9035 20.6612 17.3799 20.171 17.4482 19.5563L17.4679 19.379C17.8185 16.2238 17.8185 13.0394 17.4679 9.88417L17.3419 8.75H8.15812Z" fill="black"/>
</svg>
