<svg width="25" height="25" viewBox="0 0 25 25" fill="none" xmlns="http://www.w3.org/2000/svg">
<path fill-rule="evenodd" clip-rule="evenodd" d="M8.25 8C8.25 5.65279 10.1528 3.75 12.5 3.75C14.8472 3.75 16.75 5.65279 16.75 8C16.75 10.3472 14.8472 12.25 12.5 12.25C10.1528 12.25 8.25 10.3472 8.25 8ZM12.5 5.25C10.9812 5.25 9.75 6.48122 9.75 8C9.75 9.51878 10.9812 10.75 12.5 10.75C14.0188 10.75 15.25 9.51878 15.25 8C15.25 6.48122 14.0188 5.25 12.5 5.25Z" fill="black"/>
<path fill-rule="evenodd" clip-rule="evenodd" d="M8.5 15.25C7.25736 15.25 6.25 16.2574 6.25 17.5V18.6883C6.25 18.7064 6.26311 18.7218 6.28097 18.7247C10.3997 19.3972 14.6003 19.3972 18.719 18.7247C18.7369 18.7218 18.75 18.7064 18.75 18.6883V17.5C18.75 16.2574 17.7426 15.25 16.5 15.25H16.1591C16.1328 15.25 16.1066 15.2542 16.0815 15.2623L15.216 15.545C13.4512 16.1212 11.5488 16.1212 9.78398 15.545L8.91847 15.2623C8.89342 15.2542 8.86722 15.25 8.84087 15.25H8.5ZM4.75 17.5C4.75 15.4289 6.42893 13.75 8.5 13.75H8.84087C9.02536 13.75 9.20869 13.7792 9.38407 13.8364L10.2496 14.1191C11.7119 14.5965 13.2881 14.5965 14.7504 14.1191L15.6159 13.8364C15.7913 13.7792 15.9746 13.75 16.1591 13.75H16.5C18.5711 13.75 20.25 15.4289 20.25 17.5V18.6883C20.25 19.4415 19.7041 20.0837 18.9607 20.2051C14.6819 20.9037 10.3181 20.9037 6.03927 20.2051C5.29588 20.0837 4.75 19.4415 4.75 18.6883V17.5Z" fill="black"/>
</svg>
