<svg width="68" height="68" viewBox="0 0 68 68" fill="none" xmlns="http://www.w3.org/2000/svg">
<rect width="68" height="68" rx="34" fill="#EDFAF4"/>
<g clip-path="url(#clip0_1287_32897)">
<path d="M24.697 55.4169C25.4011 55.4169 25.9246 55.0558 26.773 54.2616L33.2899 48.3044H45.4929C50.8724 48.3044 53.7608 45.344 53.7608 40.0547V26.2268C53.7608 20.9376 50.8724 17.959 45.4929 17.959H22.242C16.8624 17.959 13.9741 20.9195 13.9741 26.2268V40.0547C13.9741 45.362 16.8624 48.3044 22.242 48.3044H23.0904V53.5576C23.0904 54.6767 23.6681 55.4169 24.697 55.4169Z" fill="#00CB82"/>
<path d="M33.5065 36.986C32.5317 36.986 32.0081 36.4806 32.0081 35.5056C32.0081 35.4335 32.0081 35.3432 32.0081 35.271C32.0081 33.4297 33.0191 32.4549 34.3369 31.5162C35.9796 30.3789 36.7559 29.7651 36.7559 28.5015C36.7559 27.0934 35.6546 26.1367 33.9578 26.1367C32.7302 26.1367 31.7554 26.7504 31.0875 27.8336L30.7625 28.2849C30.4196 28.7181 30.0224 29.025 29.3906 29.025C28.7588 29.025 28.0908 28.5737 28.0908 27.7433C28.0908 27.4184 28.163 27.1115 28.2533 26.8226C28.7768 25.1077 30.8709 23.6094 34.0841 23.6094C37.2613 23.6094 40.0233 25.2521 40.0233 28.3571C40.0233 30.5955 38.7235 31.6787 36.9182 32.8701C35.6186 33.7185 35.0047 34.3865 35.0047 35.4335C35.0047 35.4876 35.0047 35.5779 35.0047 35.6501C35.0047 36.3903 34.4452 36.986 33.5065 36.986ZM33.4522 42.5279C32.3872 42.5279 31.4486 41.6795 31.4486 40.5963C31.4486 39.5312 32.3691 38.6647 33.4522 38.6647C34.5535 38.6647 35.4741 39.5132 35.4741 40.5963C35.4741 41.6976 34.5355 42.5279 33.4522 42.5279Z" fill="white"/>
</g>
<defs>
<clipPath id="clip0_1287_32897">
<rect width="39.7866" height="39.8769" fill="white" transform="translate(13.9741 15.5405)"/>
</clipPath>
</defs>
</svg>
