<svg width="30" height="30" viewBox="0 0 30 30" fill="none" xmlns="http://www.w3.org/2000/svg">
<circle cx="15" cy="15" r="15" fill="#11AD34" fill-opacity="0.3"/>
<path d="M11 14C10.4477 14 10 14.4477 10 15C10 15.5523 10.4477 16 11 16V14ZM19 16C19.5523 16 20 15.5523 20 15C20 14.4477 19.5523 14 19 14V16ZM14 19C14 19.5523 14.4477 20 15 20C15.5523 20 16 19.5523 16 19H14ZM16 11C16 10.4477 15.5523 10 15 10C14.4477 10 14 10.4477 14 11H16ZM15 23C10.5817 23 7 19.4183 7 15H5C5 20.5228 9.47715 25 15 25V23ZM7 15C7 10.5817 10.5817 7 15 7V5C9.47715 5 5 9.47715 5 15H7ZM15 7C19.4183 7 23 10.5817 23 15H25C25 9.47715 20.5228 5 15 5V7ZM23 15C23 19.4183 19.4183 23 15 23V25C20.5228 25 25 20.5228 25 15H23ZM11 16H19V14H11V16ZM16 19V11H14V19H16Z" fill="#11AD34"/>
</svg>
