<svg width="40" height="41" viewBox="0 0 40 41" fill="none" xmlns="http://www.w3.org/2000/svg">
<rect y="0.5" width="40" height="40" rx="20" fill="#00BA77"/>
<g clip-path="url(#clip0_1244_5645)">
<path fill-rule="evenodd" clip-rule="evenodd" d="M16.9881 21.392C15.9892 21.0358 14.8945 20.8355 13.7459 20.8355C9.03966 20.8355 5.2207 24.2134 5.2207 27.9024C5.2207 29.1469 5.98449 29.7581 7.51207 29.7581H13.2884C12.9709 29.287 12.8095 28.728 12.7893 28.1136H7.23127C7.00662 28.1136 6.8943 28.0247 6.8943 27.8025C6.8943 25.0468 10.073 22.4801 13.7459 22.4801C14.3146 22.4801 14.8709 22.5412 15.4051 22.6547C15.8756 22.2023 16.4046 21.7772 16.9881 21.392ZM17.9693 14.9909C17.9693 17.5132 16.071 19.5689 13.7572 19.5689C11.4433 19.5689 9.5451 17.5243 9.5451 15.0131C9.5451 12.5575 11.4433 10.5352 13.7572 10.5352C16.0935 10.5352 17.9693 12.5241 17.9693 14.9909ZM11.2187 15.0131C11.2187 16.6132 12.3868 17.9132 13.7572 17.9132C15.1388 17.9132 16.3069 16.6132 16.3069 14.9909C16.3069 13.4241 15.1724 12.1908 13.7572 12.1908C12.3756 12.1908 11.2187 13.4464 11.2187 15.0131Z" fill="white"/>
<path d="M24.1303 19.469C26.8036 19.469 28.9827 17.1244 28.9827 14.2577C28.9827 11.4131 26.8149 9.17969 24.1303 9.17969C21.4683 9.17969 19.2781 11.4576 19.2781 14.2799C19.2781 17.1355 21.4683 19.469 24.1303 19.469ZM24.1303 17.7911C22.4905 17.7911 21.0865 16.2466 21.0865 14.2799C21.0865 12.3465 22.468 10.8575 24.1303 10.8575C25.8039 10.8575 27.1743 12.3131 27.1743 14.2577C27.1743 16.2244 25.7927 17.7911 24.1303 17.7911ZM17.0766 29.7583H31.1842C33.0487 29.7583 33.9361 29.2026 33.9361 27.9804C33.9361 25.0691 30.2182 20.8579 24.1303 20.8579C18.0313 20.8579 14.3135 25.0691 14.3135 27.9804C14.3135 29.2026 15.2007 29.7583 17.0766 29.7583ZM16.5374 28.0804C16.2454 28.0804 16.1218 28.0026 16.1218 27.7693C16.1218 25.9359 18.9748 22.5358 24.1303 22.5358C29.2747 22.5358 32.1277 25.9359 32.1277 27.7693C32.1277 28.0026 32.0154 28.0804 31.7233 28.0804H16.5374Z" fill="white"/>
</g>
<defs>
<clipPath id="clip0_1244_5645">
<rect width="32.8205" height="23.5897" fill="white" transform="translate(2.6543 7.67969)"/>
</clipPath>
</defs>
</svg>
