<svg width="28" height="29" viewBox="0 0 28 29" fill="none" xmlns="http://www.w3.org/2000/svg">
<g clip-path="url(#clip0_189_114)">
<path d="M7.99512 15.1514C7.99512 15.4443 8.10059 15.7022 8.32324 15.9248L17.6162 25.0068C17.8154 25.2178 18.0732 25.3233 18.3779 25.3233C18.9873 25.3233 19.456 24.8662 19.456 24.2568C19.456 23.9522 19.3271 23.6943 19.1396 23.4951L10.6084 15.1514L19.1396 6.80761C19.3271 6.6084 19.456 6.33887 19.456 6.0459C19.456 5.43652 18.9873 4.97949 18.3779 4.97949C18.0732 4.97949 17.8154 5.08496 17.6162 5.28418L8.32324 14.3779C8.10059 14.5889 7.99512 14.8584 7.99512 15.1514Z" fill="black" fill-opacity="0.85"/>
</g>
<defs>
<clipPath id="clip0_189_114">
<rect width="11.4609" height="20.3555" fill="white" transform="translate(7.99512 4.97949)"/>
</clipPath>
</defs>
</svg>
