<svg width="28" height="28" viewBox="0 0 28 28" fill="none" xmlns="http://www.w3.org/2000/svg">
<g clip-path="url(#clip0_242_1314)">
<path d="M3.9375 10.4766C4.55859 10.4766 4.88672 10.125 4.88672 9.51562V6.75C4.88672 5.53125 5.53125 4.91016 6.70312 4.91016H9.53906C10.1602 4.91016 10.5 4.57031 10.5 3.96094C10.5 3.35156 10.1602 3.02344 9.53906 3.02344H6.67969C4.23047 3.02344 3 4.23047 3 6.64453V9.51562C3 10.125 3.33984 10.4766 3.9375 10.4766ZM24.9961 10.4766C25.6172 10.4766 25.9453 10.125 25.9453 9.51562V6.64453C25.9453 4.23047 24.7148 3.02344 22.2656 3.02344H19.3945C18.7852 3.02344 18.4453 3.35156 18.4453 3.96094C18.4453 4.57031 18.7852 4.91016 19.3945 4.91016H22.2305C23.3906 4.91016 24.0586 5.53125 24.0586 6.75V9.51562C24.0586 10.125 24.3984 10.4766 24.9961 10.4766ZM6.67969 25.957H9.53906C10.1602 25.957 10.5 25.6172 10.5 25.0195C10.5 24.4102 10.1602 24.0703 9.53906 24.0703H6.70312C5.53125 24.0703 4.88672 23.4492 4.88672 22.2305V19.4648C4.88672 18.8438 4.54688 18.5039 3.9375 18.5039C3.32812 18.5039 3 18.8438 3 19.4648V22.3242C3 24.75 4.23047 25.957 6.67969 25.957ZM19.3945 25.957H22.2656C24.7148 25.957 25.9453 24.7383 25.9453 22.3242V19.4648C25.9453 18.8438 25.6055 18.5039 24.9961 18.5039C24.3867 18.5039 24.0586 18.8438 24.0586 19.4648V22.2305C24.0586 23.4492 23.3906 24.0703 22.2305 24.0703H19.3945C18.7852 24.0703 18.4453 24.4102 18.4453 25.0195C18.4453 25.6172 18.7852 25.957 19.3945 25.957Z" fill="#494949"/>
<path d="M10.0078 13.6992C10.5586 13.6992 10.957 13.3125 10.957 12.75V11.1563C10.957 10.5938 10.5586 10.207 10.0078 10.207C9.45703 10.207 9.07031 10.5938 9.07031 11.1563V12.75C9.07031 13.3125 9.45703 13.6992 10.0078 13.6992ZM13.5352 16.4648C13.5586 16.4648 13.5938 16.4648 13.6289 16.4648C14.8125 16.4648 15.457 15.8203 15.457 14.6367V10.9453C15.457 10.4883 15.1523 10.1953 14.707 10.1953C14.2383 10.1953 13.9336 10.4883 13.9336 10.9453V14.7422C13.9336 14.8594 13.8633 14.918 13.7578 14.918H13.3477C12.9258 14.918 12.5977 15.2461 12.5977 15.668C12.5977 16.1719 12.9375 16.4648 13.5352 16.4648ZM18.9023 13.6992C19.4414 13.6992 19.8281 13.3125 19.8281 12.75V11.1563C19.8281 10.5938 19.4414 10.207 18.9023 10.207C18.3398 10.207 17.9531 10.5938 17.9531 11.1563V12.75C17.9531 13.3125 18.3398 13.6992 18.9023 13.6992ZM14.4023 20.4023C15.8203 20.4023 17.25 19.793 18.2695 18.7734C18.4102 18.6445 18.4805 18.4453 18.4805 18.2109C18.4805 17.7656 18.1523 17.4492 17.7188 17.4492C17.4961 17.4492 17.332 17.5312 17.1094 17.7656C16.4648 18.4336 15.4453 18.8906 14.4023 18.8906C13.418 18.8906 12.3867 18.457 11.707 17.7656C11.5195 17.5898 11.3672 17.4492 11.0859 17.4492C10.6523 17.4492 10.3242 17.7656 10.3242 18.2109C10.3242 18.4102 10.3945 18.5977 10.5469 18.7617C11.4961 19.8398 12.9844 20.4023 14.4023 20.4023Z" fill="#494949"/>
</g>
<defs>
<clipPath id="clip0_242_1314">
<rect width="22.9453" height="22.957" fill="white" transform="translate(3 3)"/>
</clipPath>
</defs>
</svg>
