<svg width="24" height="25" viewBox="0 0 24 25" fill="none" xmlns="http://www.w3.org/2000/svg">
<path fill-rule="evenodd" clip-rule="evenodd" d="M22 12.3025C22 17.8253 17.5228 22.3025 12 22.3025C6.47715 22.3025 2 17.8253 2 12.3025C2 6.77964 6.47715 2.30249 12 2.30249C17.5228 2.30249 22 6.77964 22 12.3025ZM16.0303 9.27216C16.3232 9.56505 16.3232 10.0399 16.0303 10.3328L11.0303 15.3328C10.7374 15.6257 10.2626 15.6257 9.96967 15.3328L7.96967 13.3328C7.67678 13.0399 7.67678 12.5651 7.96967 12.2722C8.26256 11.9793 8.73744 11.9793 9.03033 12.2722L10.5 13.7418L12.7348 11.507L14.9697 9.27216C15.2626 8.97927 15.7374 8.97927 16.0303 9.27216Z" fill="#747474"/>
</svg>
