<svg width="27" height="26" viewBox="0 0 27 26" fill="none" xmlns="http://www.w3.org/2000/svg">
<g clip-path="url(#clip0_237_2347)">
<path d="M13.4565 24.0551C19.5285 24.0551 24.5558 19.0169 24.5558 12.9558C24.5558 6.88379 19.5176 1.85645 13.4456 1.85645C7.38452 1.85645 2.35718 6.88379 2.35718 12.9558C2.35718 19.0169 7.3954 24.0551 13.4565 24.0551ZM13.4565 22.2053C8.32035 22.2053 4.21795 18.092 4.21795 12.9558C4.21795 7.81962 8.30947 3.70634 13.4456 3.70634C18.5818 3.70634 22.706 7.81962 22.706 12.9558C22.706 18.092 18.5927 22.2053 13.4565 22.2053Z" fill="#DFDFDF"/>
<path d="M13.4674 17.211C15.8179 17.211 17.7331 15.2958 17.7331 12.9344C17.7331 10.584 15.8179 8.67969 13.4674 8.67969C11.1061 8.67969 9.19092 10.584 9.19092 12.9344C9.19092 15.2958 11.1061 17.211 13.4674 17.211Z" fill="#DFDFDF"/>
</g>
<defs>
<clipPath id="clip0_237_2347">
<rect width="22.1986" height="22.2096" fill="white" transform="translate(2.35718 1.85742)"/>
</clipPath>
</defs>
</svg>
