<svg width="24" height="24" viewBox="0 0 24 24" fill="none" xmlns="http://www.w3.org/2000/svg">
<path d="M17.4019 21.0041L9.64612 13.4479C9.51237 13.332 9.34382 13.2686 9.16976 13.2686C8.9957 13.2686 8.82714 13.332 8.6934 13.4479L3.02173 17.6906" stroke="black" stroke-width="1.5" stroke-linecap="round" stroke-linejoin="round"/>
<path d="M15.9591 13.2679C14.8121 13.2679 13.8822 12.3007 13.8822 11.1076C13.8822 9.91448 14.8121 8.94727 15.9591 8.94727C17.1062 8.94727 18.0361 9.91448 18.0361 11.1076C18.0361 12.3007 17.1062 13.2679 15.9591 13.2679Z" stroke="black" stroke-width="1.5" stroke-linecap="round" stroke-linejoin="round"/>
<path d="M2.99994 19.5632V4.44084C2.99994 4.05886 3.14582 3.69254 3.40548 3.42244C3.66515 3.15235 4.01733 3.00061 4.38455 3.00061H9.49379C9.81007 2.99103 10.12 3.09442 10.3719 3.29357C10.6238 3.49272 10.8026 3.77563 10.8784 4.09518L11.3076 5.88106H19.6153C19.9825 5.88106 20.3348 6.0328 20.5944 6.30289C20.854 6.57299 20.9999 6.93931 20.9999 7.32129V19.5632C20.9999 19.9452 20.854 20.3116 20.5944 20.5816C20.3348 20.8517 19.9825 21.0035 19.6153 21.0035H4.38455C4.01733 21.0035 3.66515 20.8517 3.40548 20.5816C3.14582 20.3116 2.99994 19.9452 2.99994 19.5632Z" stroke="black" stroke-width="1.5" stroke-linecap="round" stroke-linejoin="round"/>
</svg>
