<svg width="64" height="64" viewBox="0 0 64 64" fill="none" xmlns="http://www.w3.org/2000/svg">
<g clip-path="url(#clip0_695_9128)">
<path d="M46.7034 54.3297C45.9036 54.3297 44.8144 53.8997 43.419 52.6429C42.3468 53.3705 41.3258 53.8501 41.0875 53.9493C40.7812 54.0816 40.4238 53.9659 40.2707 53.6682C40.1345 53.3705 40.2536 53.0233 40.56 52.8744C41.0194 52.6595 41.7682 52.2791 42.534 51.7665C41.53 50.5097 41.1556 48.8891 41.564 47.3842C41.8023 46.4747 42.2447 45.9124 42.8744 45.7471C43.5721 45.5486 44.3379 45.8628 45.2569 46.6897C46.278 47.6157 46.3801 48.5583 46.278 49.1867C46.1078 50.212 45.325 51.1381 44.406 51.9153C45.2569 52.6595 46.5332 53.5359 47.231 52.9571C47.6734 52.5933 47.8096 52.3783 47.8606 52.2956C47.7755 52.2626 47.6394 52.213 47.5543 52.213C47.2139 52.1799 46.9757 51.8822 47.0097 51.5515C47.0438 51.2208 47.3501 50.9892 47.6904 51.0223C47.8776 51.0388 48.8306 51.1711 49.0689 51.9318C49.3412 52.7917 48.3541 53.6021 48.0308 53.8666C47.6904 54.1312 47.265 54.3297 46.7034 54.3297ZM43.2998 46.8716C43.2658 46.8716 43.2488 46.8716 43.2318 46.8881C43.0956 46.9212 42.9084 47.1527 42.7723 47.6819C42.466 48.8394 42.7553 50.0962 43.5381 51.0554C44.3209 50.427 44.9506 49.6994 45.0697 48.9883C45.1548 48.4922 44.9506 48.0126 44.423 47.5496C43.8784 47.0535 43.5041 46.8716 43.2998 46.8716Z" fill="#44C352"/>
<path d="M37.0201 46.9035H15.5096C15.1693 46.9035 14.897 46.639 14.897 46.3082C14.897 45.9775 15.1693 45.7129 15.5096 45.7129H37.0201C37.3605 45.7129 37.6328 45.9775 37.6328 46.3082C37.6328 46.639 37.3605 46.9035 37.0201 46.9035Z" fill="#44C352"/>
<path d="M37.0201 50.6086H15.5096C15.1693 50.6086 14.897 50.344 14.897 50.0133C14.897 49.6826 15.1693 49.418 15.5096 49.418H37.0201C37.3605 49.418 37.6328 49.6826 37.6328 50.0133C37.6328 50.344 37.3605 50.6086 37.0201 50.6086Z" fill="#44C352"/>
<path d="M37.0201 54.3117H15.5096C15.1693 54.3117 14.897 54.0472 14.897 53.7164C14.897 53.3857 15.1693 53.1211 15.5096 53.1211H37.0201C37.3605 53.1211 37.6328 53.3857 37.6328 53.7164C37.6328 54.0472 37.3605 54.3117 37.0201 54.3117Z" fill="#44C352"/>
<path d="M52.3874 57.9995H11.6126C11.2723 57.9995 11 57.735 11 57.4042V6.60314C11 6.2724 11.2723 6.00781 11.6126 6.00781H43.3169C43.6572 6.00781 43.9295 6.2724 43.9295 6.60314C43.9295 6.93387 43.6572 7.19846 43.3169 7.19846H12.2253V56.8089H51.7577V15.4007C51.7577 15.07 52.03 14.8054 52.3703 14.8054C52.7107 14.8054 52.983 15.07 52.983 15.4007V57.4042C53 57.735 52.7107 57.9995 52.3874 57.9995Z" fill="#44C352"/>
<path d="M52.3873 15.996H43.3338C42.9935 15.996 42.7212 15.7315 42.7212 15.4007V6.60314C42.7212 6.2724 42.9935 6.00781 43.3338 6.00781C43.6742 6.00781 43.9465 6.2724 43.9465 6.60314V14.8054H52.3873C52.7277 14.8054 53 15.07 53 15.4007C53 15.7315 52.7107 15.996 52.3873 15.996Z" fill="#44C352"/>
<path d="M52.3875 15.9965C52.2344 15.9965 52.0812 15.9304 51.9621 15.8146L42.8916 7.01701C42.6533 6.7855 42.6533 6.40515 42.8916 6.17364C43.1298 5.94212 43.5212 5.94212 43.7595 6.17364L52.813 14.9712C53.0512 15.2027 53.0512 15.5831 52.813 15.8146C52.6938 15.9469 52.5407 15.9965 52.3875 15.9965Z" fill="#44C352"/>
<path d="M36.8839 43.3149H27.1157C26.9285 43.3149 26.7413 43.2323 26.6222 43.0834C26.503 42.9346 26.469 42.7362 26.52 42.5542L27.5752 39.1311C27.6602 38.8831 27.8985 38.7012 28.1708 38.7012H35.8288C36.1011 38.7012 36.3393 38.8665 36.4074 39.1311L37.4625 42.5542C37.5136 42.7362 37.4795 42.9346 37.3604 43.0834C37.2583 43.2323 37.0711 43.3149 36.8839 43.3149ZM27.9495 42.1243H36.067L35.3863 39.8918H28.6303L27.9495 42.1243Z" fill="#44C352"/>
<path d="M33.1062 43.3156H30.8939C30.5535 43.3156 30.2812 43.0511 30.2812 42.7203C30.2812 42.3896 30.5535 42.125 30.8939 42.125H33.1062C33.4466 42.125 33.7189 42.3896 33.7189 42.7203C33.7189 43.0511 33.4466 43.3156 33.1062 43.3156Z" fill="#44C352"/>
<path d="M33.1062 39.8919C32.7659 39.8919 32.4936 39.6273 32.4936 39.2966V18.1956C32.4936 17.931 32.2723 17.716 32.0001 17.716C31.7278 17.716 31.5065 17.931 31.5065 18.1956V39.3131C31.5065 39.6438 31.2342 39.9084 30.8939 39.9084C30.5535 39.9084 30.2812 39.6438 30.2812 39.3131V18.1956C30.2812 17.2695 31.0471 16.5254 32.0001 16.5254C32.953 16.5254 33.7189 17.2695 33.7189 18.1956V39.3131C33.7189 39.6273 33.4466 39.8919 33.1062 39.8919Z" fill="#44C352"/>
<path d="M43.283 21.3373H33.1063C32.7659 21.3373 32.4937 21.0727 32.4937 20.742C32.4937 20.4112 32.7659 20.1467 33.1063 20.1467H43.283C43.4872 20.1467 43.6744 19.9813 43.6744 19.7663C43.6744 19.5513 43.5042 19.386 43.283 19.386H33.1063C32.7659 19.386 32.4937 19.1214 32.4937 18.7906C32.4937 18.4599 32.7659 18.1953 33.1063 18.1953H43.283C44.1679 18.1953 44.8996 18.8899 44.8996 19.7663C44.8996 20.6428 44.1679 21.3373 43.283 21.3373Z" fill="#44C352"/>
<path d="M30.8939 21.3373H20.7173C19.8324 21.3373 19.1006 20.6428 19.1006 19.7663C19.1006 18.8899 19.8153 18.1953 20.7173 18.1953H30.8939C31.2343 18.1953 31.5066 18.4599 31.5066 18.7906C31.5066 19.1214 31.2343 19.386 30.8939 19.386H20.7173C20.5131 19.386 20.3259 19.5513 20.3259 19.7663C20.3259 19.9813 20.496 20.1467 20.7173 20.1467H30.8939C31.2343 20.1467 31.5066 20.4112 31.5066 20.742C31.5066 21.0727 31.2343 21.3373 30.8939 21.3373Z" fill="#44C352"/>
<path d="M20.5129 27.8203C20.4108 27.8203 20.3087 27.8038 20.2066 27.7377C19.9173 27.5723 19.8152 27.2085 19.9683 26.9274L23.7123 20.4449C23.8824 20.1638 24.2568 20.0646 24.5461 20.2134C24.8354 20.3788 24.9375 20.7426 24.7844 21.0237L21.0405 27.5061C20.9213 27.7046 20.7171 27.8203 20.5129 27.8203Z" fill="#44C352"/>
<path d="M27.9326 27.8204C27.7113 27.8204 27.5071 27.7047 27.405 27.5228L23.6611 21.0404C23.4909 20.7592 23.593 20.3954 23.8993 20.2301C24.1886 20.0647 24.563 20.1639 24.7332 20.4616L28.4771 26.944C28.6473 27.2251 28.5452 27.5889 28.2389 27.7543C28.1368 27.7874 28.0347 27.8204 27.9326 27.8204Z" fill="#44C352"/>
<path d="M24.6823 32.9625H23.8995C21.2277 32.9625 19.0664 30.8458 19.0664 28.266V27.2242C19.0664 26.8935 19.3387 26.6289 19.679 26.6289H28.9197C29.2601 26.6289 29.5324 26.8935 29.5324 27.2242V28.266C29.5154 30.8623 27.3541 32.9625 24.6823 32.9625ZM20.2747 27.8196V28.266C20.2747 30.2009 21.8914 31.7719 23.8825 31.7719H24.6653C26.6564 31.7719 28.2731 30.2009 28.2731 28.266V27.8196H20.2747Z" fill="#44C352"/>
<path d="M24.6823 32.9625H23.8995C21.2277 32.9625 19.0664 30.8458 19.0664 28.266V27.2242C19.0664 26.8935 19.3387 26.6289 19.679 26.6289H28.9197C29.2601 26.6289 29.5324 26.8935 29.5324 27.2242V28.266C29.5154 30.8623 27.3541 32.9625 24.6823 32.9625ZM20.2747 27.8196V28.266C20.2747 30.2009 21.8914 31.7719 23.8825 31.7719H24.6653C26.6564 31.7719 28.2731 30.2009 28.2731 28.266V27.8196H20.2747Z" fill="#44C352"/>
<path d="M35.9309 27.8203C35.8288 27.8203 35.7267 27.8038 35.6246 27.7377C35.3353 27.5723 35.2331 27.2085 35.3863 26.9274L39.1302 20.4449C39.3004 20.1638 39.6748 20.0646 39.9641 20.2134C40.2534 20.3788 40.3555 20.7426 40.2024 21.0237L36.4584 27.5061C36.3563 27.7046 36.1521 27.8203 35.9309 27.8203Z" fill="#44C352"/>
<path d="M43.3681 27.8204C43.1469 27.8204 42.9427 27.7047 42.8406 27.5228L39.0966 21.0404C38.9265 20.7592 39.0286 20.3954 39.3349 20.2301C39.6242 20.0647 39.9986 20.1639 40.1688 20.4616L43.9127 26.944C44.0829 27.2251 43.9807 27.5889 43.6744 27.7543C43.5723 27.7874 43.4702 27.8204 43.3681 27.8204Z" fill="#44C352"/>
<path d="M40.1003 32.9625H39.3174C36.6456 32.9625 34.4844 30.8458 34.4844 28.266V27.2242C34.4844 26.8935 34.7567 26.6289 35.097 26.6289H44.3377C44.6781 26.6289 44.9503 26.8935 44.9503 27.2242V28.266C44.9503 30.8623 42.7721 32.9625 40.1003 32.9625ZM35.7097 27.8196V28.266C35.7097 30.2009 37.3264 31.7719 39.3174 31.7719H40.1003C42.0913 31.7719 43.708 30.2009 43.708 28.266V27.8196H35.7097Z" fill="#44C352"/>
</g>
<defs>
<clipPath id="clip0_695_9128">
<rect width="42" height="52" fill="white" transform="translate(11 6)"/>
</clipPath>
</defs>
</svg>
