<svg width="35" height="29" viewBox="0 0 35 29" fill="none" xmlns="http://www.w3.org/2000/svg">
<g clip-path="url(#clip0_107_5112)">
<path d="M17.2383 26.1883C23.7774 26.1883 29.1914 20.7626 29.1914 14.2352C29.1914 7.69616 23.7657 2.2821 17.2266 2.2821C10.6992 2.2821 5.28516 7.69616 5.28516 14.2352C5.28516 20.7626 10.7109 26.1883 17.2383 26.1883ZM17.2383 24.1962C11.707 24.1962 7.28907 19.7665 7.28907 14.2352C7.28907 8.70398 11.6953 4.27429 17.2266 4.27429C22.7579 4.27429 27.1993 8.70398 27.1993 14.2352C27.1993 19.7665 22.7696 24.1962 17.2383 24.1962Z" fill="#44C352"/>
<path d="M15.9493 19.8016C16.336 19.8016 16.6641 19.6141 16.8985 19.2509L22.254 10.8251C22.3829 10.5907 22.5352 10.3329 22.5352 10.0751C22.5352 9.54773 22.0664 9.20789 21.5743 9.20789C21.2813 9.20789 20.9883 9.39539 20.7657 9.73523L15.9024 17.5399L13.5937 14.5516C13.3125 14.1766 13.0547 14.0829 12.7266 14.0829C12.2227 14.0829 11.8242 14.493 11.8242 15.0087C11.8242 15.2665 11.9297 15.5126 12.0937 15.7352L14.9531 19.2509C15.2461 19.6376 15.5625 19.8016 15.9493 19.8016Z" fill="#44C352"/>
</g>
<defs>
<clipPath id="clip0_107_5112">
<rect width="23.9062" height="23.918" fill="white" transform="translate(5.28516 2.2821)"/>
</clipPath>
</defs>
</svg>
