<svg width="23" height="23" viewBox="0 0 23 23" fill="none" xmlns="http://www.w3.org/2000/svg">
<g clip-path="url(#clip0_616_625)">
<path fill-rule="evenodd" clip-rule="evenodd" d="M20.5952 11.463C20.5952 16.5917 16.3414 20.8547 11.2035 20.8547C6.07488 20.8547 1.81177 16.5917 1.81177 11.463C1.81177 6.32519 6.06567 2.07129 11.1943 2.07129C16.3322 2.07129 20.5952 6.32519 20.5952 11.463ZM9.362 15.5144C9.60139 15.8366 9.85922 15.9655 10.1722 15.9655C10.4854 15.9655 10.7523 15.8182 10.9457 15.5144L15.2733 8.70076C15.3837 8.5074 15.5035 8.29563 15.5035 8.09306C15.5035 7.6603 15.1259 7.38407 14.7208 7.38407C14.4814 7.38407 14.242 7.53139 14.0671 7.80762L10.1355 14.124L8.26629 11.7116C8.03611 11.4078 7.83354 11.3249 7.56652 11.3249C7.15218 11.3249 6.82991 11.6656 6.82991 12.08C6.82991 12.2917 6.91278 12.4943 7.05089 12.6784L9.362 15.5144Z" fill="#CECECE"/>
</g>
<defs>
<clipPath id="clip0_616_625">
<rect width="18.7834" height="18.7927" fill="white" transform="translate(1.81177 2.07129)"/>
</clipPath>
</defs>
</svg>
