<svg width="29" height="29" viewBox="0 0 29 29" fill="none" xmlns="http://www.w3.org/2000/svg">
<g clip-path="url(#clip0_8_73)">
<path d="M3.67969 25.104H24.9492C27.0469 25.104 28.2773 23.8853 28.2773 21.4712V8.53369C28.2773 6.11963 27.0352 4.90088 24.5977 4.90088H3.32812C1.23047 4.90088 0 6.11963 0 8.53369V21.4712C0 23.8853 1.24219 25.104 3.67969 25.104ZM3.60938 23.3111C2.44922 23.3111 1.79297 22.6665 1.79297 21.4595V8.52197C1.79297 7.32666 2.44922 6.69385 3.60938 6.69385H24.6562C25.8164 6.69385 26.4844 7.32666 26.4844 8.53369V21.4712C26.4844 22.6665 25.8164 23.3111 24.6562 23.3111H3.60938ZM14.1328 18.0845C14.8828 18.0845 15.6094 17.8033 16.2773 17.1939L27.3047 7.26807L26.0859 6.0376L15.2578 15.7994C14.8945 16.1275 14.5195 16.2798 14.1328 16.2798C13.7461 16.2798 13.3711 16.1275 13.0078 15.7994L2.17969 6.0376L0.960938 7.26807L11.9883 17.1939C12.6562 17.8033 13.3828 18.0845 14.1328 18.0845ZM2.35547 23.604L10.6758 15.272L9.45703 14.0532L1.13672 22.3736L2.35547 23.604ZM25.9336 23.6158L27.1523 22.3853L18.8203 14.0532L17.5898 15.272L25.9336 23.6158Z" fill="#494949"/>
</g>
<defs>
<clipPath id="clip0_8_73">
<rect width="28.2773" height="20.2148" fill="white" transform="translate(0 4.88916)"/>
</clipPath>
</defs>
</svg>
