<svg width="28" height="29" viewBox="0 0 28 29" fill="none" xmlns="http://www.w3.org/2000/svg">
<g clip-path="url(#clip0_8_17)">
<path d="M19.0391 26.2915C21.0781 26.2915 22.4258 25.7408 23.6211 24.4048C23.7148 24.3111 23.7969 24.2056 23.8789 24.1119C24.582 23.3267 24.9219 22.5533 24.9219 21.815C24.9219 20.9712 24.4297 20.1861 23.3867 19.4595L19.9766 17.0923C18.9219 16.3658 17.6797 16.2837 16.707 17.2564L15.793 18.1587C15.5352 18.4283 15.3008 18.44 15.0312 18.2759C14.4102 17.8775 13.1328 16.7642 12.2656 15.897C11.3516 14.9947 10.4609 13.9869 10.0039 13.2486C9.83984 12.979 9.86328 12.7564 10.1328 12.4868L11.0234 11.5845C11.9961 10.6001 11.9141 9.35791 11.1992 8.31494L8.82031 4.90478C8.10547 3.86182 7.32031 3.38135 6.47656 3.36963C5.73828 3.35791 4.95312 3.69775 4.17969 4.40088C4.07422 4.49463 3.98047 4.57666 3.875 4.65869C2.55078 5.854 2 7.20166 2 9.229C2 12.5806 4.0625 16.6587 7.84766 20.4439C11.6094 24.2056 15.6992 26.2915 19.0391 26.2915ZM19.0508 24.4869C16.0625 24.5454 12.2305 22.2486 9.19531 19.2251C6.13672 16.1783 3.73438 12.2173 3.79297 9.229C3.81641 7.93994 4.26172 6.82666 5.1875 6.02978C5.25781 5.95947 5.32812 5.90088 5.41016 5.84228C5.75 5.5376 6.13672 5.37354 6.46484 5.37354C6.81641 5.37354 7.12109 5.50244 7.34375 5.854L9.61719 9.26416C9.86328 9.62744 9.88672 10.0376 9.52344 10.4009L8.48047 11.4321C7.67188 12.2407 7.73047 13.2251 8.32812 14.0103C8.99609 14.9126 10.1562 16.2251 11.0469 17.1158C11.9492 18.0181 13.3672 19.2837 14.2695 19.9634C15.0547 20.5494 16.0508 20.608 16.8594 19.7994L17.8906 18.7681C18.2539 18.4048 18.6523 18.4283 19.0156 18.6626L22.4258 20.9361C22.7773 21.1704 22.9062 21.4634 22.9062 21.815C22.9062 22.1548 22.7422 22.5298 22.4375 22.8814C22.3789 22.9634 22.332 23.022 22.2617 23.104C21.4531 24.0181 20.3398 24.4634 19.0508 24.4869Z" fill="#494949"/>
<path d="M26.082 10.5884C26.457 10.5884 26.7383 10.3071 26.7383 9.92041V6.92041C26.7383 6.54541 26.457 6.25244 26.082 6.25244C25.707 6.25244 25.4141 6.55713 25.4141 6.92041V9.92041C25.4141 10.2954 25.707 10.5884 26.082 10.5884Z" fill="#494949"/>
<path d="M23.3164 12.7915C23.7031 12.7915 23.9961 12.5103 23.9961 12.1353V4.70557C23.9961 4.34228 23.7031 4.06104 23.3164 4.06104C22.9648 4.06104 22.6719 4.34228 22.6719 4.70557V12.1353C22.6719 12.5103 22.9648 12.7915 23.3164 12.7915Z" fill="#494949"/>
<path d="M20.5859 13.9634C20.9492 13.9634 21.2422 13.6704 21.2422 13.3072V3.56885C21.2422 3.18213 20.9492 2.88916 20.5859 2.88916C20.2109 2.88916 19.9297 3.18213 19.9297 3.56885V13.3072C19.9297 13.6822 20.1992 13.9634 20.5859 13.9634Z" fill="#494949"/>
<path d="M17.832 11.936C18.207 11.936 18.5 11.6431 18.5 11.2681V5.57275C18.5 5.20947 18.207 4.9165 17.832 4.9165C17.4688 4.9165 17.1758 5.20947 17.1758 5.57275V11.2681C17.1758 11.6431 17.4688 11.936 17.832 11.936Z" fill="#494949"/>
<path d="M15.0781 9.96728C15.4531 9.96728 15.7461 9.67432 15.7461 9.32275V7.52978C15.7461 7.1665 15.4531 6.87354 15.0781 6.87354C14.7148 6.87354 14.4336 7.1665 14.4336 7.52978V9.32275C14.4336 9.67432 14.7148 9.96728 15.0781 9.96728Z" fill="#494949"/>
</g>
<defs>
<clipPath id="clip0_8_17">
<rect width="24.7383" height="23.8242" fill="white" transform="translate(2 2.88916)"/>
</clipPath>
</defs>
</svg>
