<svg width="34" height="29" viewBox="0 0 34 29" fill="none" xmlns="http://www.w3.org/2000/svg">
<g clip-path="url(#clip0_8_7)">
<path fill-rule="evenodd" clip-rule="evenodd" d="M5.92969 21.6353H5.36719C1.875 21.6353 0 19.7134 0 16.2798V7.2915C0 3.85791 1.875 1.92432 5.36719 1.92432H20.4609C23.9531 1.92432 25.8281 3.85791 25.8281 7.2915V7.84229H23.9414V7.30322C23.9414 5.01807 22.8164 3.81104 20.4609 3.81104H5.36719C3 3.81104 1.88672 5.01807 1.88672 7.30322V16.2681C1.88672 18.5533 3 19.7486 5.36719 19.7486H6.80859C7.44141 19.7486 7.6875 19.9947 7.6875 20.6392V24.0259L11.4375 20.3111C11.7888 19.9505 12.0671 19.8088 12.4911 19.765C12.527 20.4889 12.6537 21.1338 12.8691 21.6964L8.89453 25.2447C8.17969 25.8658 7.78125 26.1704 7.20703 26.1704C6.38672 26.1704 5.92969 25.5962 5.92969 24.6939V21.6353Z" fill="#494949"/>
<path d="M18.8672 14.9204H27.3516C27.8555 14.9204 28.2305 14.5454 28.2305 14.0533C28.2305 13.5494 27.8555 13.1744 27.3516 13.1744H18.8672C18.3516 13.1744 17.9883 13.5494 17.9883 14.0533C17.9883 14.5454 18.3516 14.9204 18.8672 14.9204ZM18.8672 19.2564H25.0781C25.5703 19.2564 25.9688 18.9048 25.9688 18.4009C25.9688 17.9087 25.5703 17.5103 25.0781 17.5103H18.8672C18.3516 17.5103 17.9883 17.9087 17.9883 18.4009C17.9883 18.9048 18.3516 19.2564 18.8672 19.2564ZM17.625 24.4595H21.4219L25.3359 27.8111C26.0508 28.4204 26.4375 28.7369 27 28.7369C27.8086 28.7369 28.2656 28.1626 28.2656 27.272V24.4595H28.5117C31.8867 24.4595 33.6562 22.6431 33.6562 19.3267V12.9869C33.6562 9.65869 31.8867 7.84228 28.5117 7.84228H17.625C14.25 7.84228 12.4805 9.65869 12.4805 12.9869V19.3267C12.4805 22.6548 14.25 24.4595 17.625 24.4595ZM17.6602 22.5728C15.3633 22.5728 14.3789 21.4947 14.3789 19.3033V13.0103C14.3789 10.8189 15.3633 9.729 17.6602 9.729H28.4883C30.7734 9.729 31.7695 10.8189 31.7695 13.0103V19.2915C31.7695 21.4947 30.7734 22.5728 28.4883 22.5728H27.4102C26.9062 22.5728 26.5078 22.8775 26.5078 23.5337V26.604L22.5469 23.065C22.1602 22.7017 21.832 22.5728 21.3516 22.5728H17.6602Z" fill="#494949"/>
</g>
<defs>
<clipPath id="clip0_8_7">
<rect width="33.6562" height="26.8477" fill="white" transform="translate(0 1.88916)"/>
</clipPath>
</defs>
</svg>
