<svg width="28" height="29" viewBox="0 0 28 29" fill="none" xmlns="http://www.w3.org/2000/svg">
<g clip-path="url(#clip0_8_29)">
<path d="M8.20703 27.6353C8.78125 27.6353 9.17969 27.3306 9.89453 26.6978L13.9375 23.1001H21.4609C24.9531 23.1001 26.8281 21.1665 26.8281 17.733V8.75635C26.8281 5.32275 24.9531 3.38916 21.4609 3.38916H6.36719C2.875 3.38916 1 5.31104 1 8.75635V17.733C1 21.1783 2.875 23.1001 6.36719 23.1001H6.92969V26.147C6.92969 27.0494 7.38672 27.6353 8.20703 27.6353ZM8.6875 25.4908V22.0923C8.6875 21.4595 8.44141 21.2134 7.80859 21.2134H6.36719C4 21.2134 2.88672 20.0064 2.88672 17.7212V8.75635C2.88672 6.47119 4 5.27588 6.36719 5.27588H21.4609C23.8164 5.27588 24.9414 6.47119 24.9414 8.75635V17.7212C24.9414 20.0064 23.8164 21.2134 21.4609 21.2134H13.8672C13.2109 21.2134 12.8828 21.3072 12.4375 21.7642L8.6875 25.4908Z" fill="#494949"/>
<path d="M13.6914 15.6704C14.2773 15.6704 14.6289 15.2954 14.6289 14.8384C14.6289 14.7915 14.6289 14.733 14.6289 14.6978C14.6289 14.0415 15.0156 13.6197 15.8359 13.0806C16.9727 12.3306 17.7812 11.6509 17.7812 10.2446C17.7812 8.29932 16.0469 7.25635 14.0547 7.25635C12.0391 7.25635 10.7148 8.20557 10.3867 9.28369C10.3281 9.47119 10.293 9.65869 10.293 9.85791C10.293 10.3852 10.7031 10.6665 11.1016 10.6665C11.5 10.6665 11.7461 10.479 11.957 10.1977L12.168 9.9165C12.5781 9.23682 13.1992 8.83838 13.9727 8.83838C15.0508 8.83838 15.7422 9.44775 15.7422 10.3384C15.7422 11.1352 15.25 11.522 14.2188 12.2369C13.3867 12.8228 12.7539 13.4439 12.7539 14.5923C12.7539 14.6392 12.7539 14.6978 12.7539 14.7447C12.7539 15.354 13.082 15.6704 13.6914 15.6704ZM13.6562 19.1626C14.3359 19.1626 14.9219 18.6353 14.9219 17.9439C14.9219 17.2642 14.3477 16.7369 13.6562 16.7369C12.9766 16.7369 12.4023 17.2759 12.4023 17.9439C12.4023 18.6236 12.9883 19.1626 13.6562 19.1626Z" fill="#494949"/>
</g>
<defs>
<clipPath id="clip0_8_29">
<rect width="25.8281" height="25.7461" fill="white" transform="translate(1 1.88916)"/>
</clipPath>
</defs>
</svg>
