<svg width="28" height="31" viewBox="0 0 28 31" fill="none" xmlns="http://www.w3.org/2000/svg">
<g clip-path="url(#clip0_8_37)">
<path fill-rule="evenodd" clip-rule="evenodd" d="M11.1238 20.3563C7.73822 20.8029 5.39062 21.9912 5.39062 23.4243C5.39062 25.2758 9.21094 26.7055 14.1328 26.7055C19.0312 26.7055 22.875 25.2524 22.875 23.4243C22.875 21.9985 20.5067 20.8038 17.119 20.3558C17.136 20.0498 17.1445 19.7288 17.1445 19.3931V18.4642C22.0197 19.0103 25.2539 20.9004 25.2539 23.4243C25.2539 26.4477 20.6484 28.5571 14.1445 28.5571C7.62891 28.5571 3 26.4477 3 23.4243C3 20.9074 6.23269 19.0208 11.0977 18.4687V19.3931C11.0977 19.729 11.1064 20.0501 11.1238 20.3563Z" fill="#494949"/>
<path fill-rule="evenodd" clip-rule="evenodd" d="M13.043 11.5064C11.1328 11.0259 9.72656 9.30322 9.72656 7.24072C9.72656 4.81494 11.6836 2.82275 14.1328 2.82275C16.5703 2.82275 18.5273 4.81494 18.5273 7.24072C18.5273 9.30322 17.1211 11.0376 15.2109 11.5064V18.9244C15.2109 22.3931 14.6016 24.2681 14.1328 24.2681C13.6523 24.2681 13.043 22.3814 13.043 18.9244V11.5064ZM12.5816 7.45666C12.6747 7.47642 12.7702 7.48682 12.8672 7.48682C13.6992 7.48682 14.3789 6.78369 14.3789 5.96338C14.3789 5.76123 14.3364 5.56641 14.2597 5.38788C14.1236 5.07127 13.8799 4.80591 13.5744 4.64185C13.3631 4.52839 13.1223 4.46338 12.8672 4.46338C12.0703 4.46338 11.3672 5.15478 11.3672 5.96338C11.3672 6.271 11.4661 6.56214 11.6317 6.8059C11.854 7.13308 12.1965 7.37491 12.5816 7.45666Z" fill="#494949"/>
</g>
<defs>
<clipPath id="clip0_8_37">
<rect width="22.2539" height="29.6133" fill="white" transform="translate(3 0.88916)"/>
</clipPath>
</defs>
</svg>
