<svg width="141" height="91" viewBox="0 0 141 91" fill="none" xmlns="http://www.w3.org/2000/svg">
<g clip-path="url(#clip0_935_24971)">
<path d="M11.3418 -24.6157L12.0305 -27.1406L177.799 17.3802L177.114 19.9088" fill="#8AB079"/>
<path d="M115.697 -86.3477L118.237 -85.6667L73.4481 79.1148L70.9043 78.4339" fill="#8AB079"/>
<path d="M154.479 -64.7637L156.338 -62.9086L34.6615 57.5324L32.8027 55.6774" fill="#8AB079"/>
<path d="M156.086 55.9353L154.224 57.783L33.0547 -63.166L34.9209 -65.0137" fill="#8AB079"/>
<path d="M177.211 -26.7969L177.888 -24.2646L11.9305 19.5643L11.2529 17.0357" fill="#8AB079"/>
<path d="M117.892 78.5319L115.348 79.2055L71.252 -85.76L73.7957 -86.4336" fill="#8AB079"/>
<path d="M121.361 -52.1346L65.5029 43.5781L67.7802 44.8913L123.639 -50.8215L121.361 -52.1346Z" fill="#8AB079"/>
<path d="M47.2166 -32.4394L45.8955 -30.1758L141.928 25.2009L143.249 22.9373L47.2166 -32.4394Z" fill="#8AB079"/>
<path d="M142.112 -32.2699L45.7275 22.7773L47.0391 25.0465L143.423 -30.0008L142.112 -32.2699Z" fill="#8AB079"/>
<path d="M68.0201 -52.1807L65.7373 -50.877L121.129 44.9533L123.411 43.6495L68.0201 -52.1807Z" fill="#8AB079"/>
<path d="M93.3776 -58.996L93.1328 51.7539L95.7655 51.7597L96.0103 -58.9903L93.3776 -58.996Z" fill="#8AB079"/>
<path d="M35.9652 6.22467C41.4968 6.22467 45.9812 1.76718 45.9812 -3.73141C45.9812 -9.23001 41.4968 -13.6875 35.9652 -13.6875C30.4335 -13.6875 25.9492 -9.23001 25.9492 -3.73141C25.9492 1.76718 30.4335 6.22467 35.9652 6.22467Z" fill="#00BD08"/>
<path d="M43.7298 35.3829C49.2615 35.3829 53.7458 30.9254 53.7458 25.4268C53.7458 19.9282 49.2615 15.4707 43.7298 15.4707C38.1982 15.4707 33.7139 19.9282 33.7139 25.4268C33.7139 30.9254 38.1982 35.3829 43.7298 35.3829Z" fill="#00BD08"/>
<path d="M65.1654 56.7286C70.6971 56.7286 75.1814 52.2711 75.1814 46.7725C75.1814 41.2739 70.6971 36.8164 65.1654 36.8164C59.6337 36.8164 55.1494 41.2739 55.1494 46.7725C55.1494 52.2711 59.6337 56.7286 65.1654 56.7286Z" fill="#00BD08"/>
<path d="M123.773 56.8712C129.304 56.8712 133.789 52.4137 133.789 46.9151C133.789 41.4165 129.304 36.959 123.773 36.959C118.241 36.959 113.757 41.4165 113.757 46.9151C113.757 52.4137 118.241 56.8712 123.773 56.8712Z" fill="#00BD08"/>
<path d="M145.267 35.586C150.799 35.586 155.283 31.1285 155.283 25.6299C155.283 20.1313 150.799 15.6738 145.267 15.6738C139.735 15.6738 135.251 20.1313 135.251 25.6299C135.251 31.1285 139.735 35.586 145.267 35.586Z" fill="#00BD08"/>
<path d="M94.4466 64.5899C99.9783 64.5899 104.463 60.1324 104.463 54.6338C104.463 49.1352 99.9783 44.6777 94.4466 44.6777C88.915 44.6777 84.4307 49.1352 84.4307 54.6338C84.4307 60.1324 88.915 64.5899 94.4466 64.5899Z" fill="#00BD08"/>
<path d="M116.997 90.7071C123.635 90.7071 129.016 85.3581 129.016 78.7598C129.016 72.1615 123.635 66.8125 116.997 66.8125C110.359 66.8125 104.978 72.1615 104.978 78.7598C104.978 85.3581 110.359 90.7071 116.997 90.7071Z" fill="#00BD08"/>
<path d="M72.1334 90.879C78.7714 90.879 84.1526 85.53 84.1526 78.9317C84.1526 72.3334 78.7714 66.9844 72.1334 66.9844C65.4954 66.9844 60.1143 72.3334 60.1143 78.9317C60.1143 85.53 65.4954 90.879 72.1334 90.879Z" fill="#00BD08"/>
<path d="M12.5006 30.5352C19.1386 30.5352 24.5198 25.1862 24.5198 18.5879C24.5198 11.9896 19.1386 6.64062 12.5006 6.64062C5.86261 6.64062 0.481445 11.9896 0.481445 18.5879C0.481445 25.1862 5.86261 30.5352 12.5006 30.5352Z" fill="#00BD08"/>
<path d="M34.4059 68.5489C41.0439 68.5489 46.425 63.1999 46.425 56.6016C46.425 50.0033 41.0439 44.6543 34.4059 44.6543C27.7679 44.6543 22.3867 50.0033 22.3867 56.6016C22.3867 63.1999 27.7679 68.5489 34.4059 68.5489Z" fill="#00BD08"/>
<path d="M94.9756 18.5132C107.272 18.5132 117.24 8.60452 117.24 -3.61841C117.24 -15.8413 107.272 -25.75 94.9756 -25.75C82.6792 -25.75 72.7109 -15.8413 72.7109 -3.61841C72.7109 8.60452 82.6792 18.5132 94.9756 18.5132Z" fill="#16161B"/>
</g>
<defs>
<clipPath id="clip0_935_24971">
<rect width="189" height="189" fill="white" transform="translate(0.477539 -98.1172)"/>
</clipPath>
</defs>
</svg>
