<svg width="49" height="50" viewBox="0 0 49 50" fill="none" xmlns="http://www.w3.org/2000/svg">
<rect y="0.5" width="49" height="49" rx="8" fill="#EDFAF4"/>
<g clip-path="url(#clip0_23_548)">
<path d="M13.2969 35.7167H35.6914C36.2071 35.7167 36.6406 35.2831 36.6406 34.7675C36.6406 34.2519 36.2071 33.83 35.6914 33.83H13.2969C12.7812 33.83 12.3594 34.2519 12.3594 34.7675C12.3594 35.2831 12.7812 35.7167 13.2969 35.7167Z" fill="#00BA77"/>
<path d="M18.1016 30.9472L21.9923 29.3417C22.2852 29.2245 22.4259 29.1191 22.6017 28.9433L33.8165 17.8105C34.9181 16.7207 34.9064 15.4433 33.7931 14.3183L31.3322 11.834C30.2072 10.7207 28.9298 10.6972 27.8283 11.7871L16.6016 22.9199C16.4259 23.0839 16.3204 23.2128 16.2032 23.5058L14.5626 27.3964C14.3165 27.9824 14.3751 28.5683 14.8204 29.0136L16.4845 30.6894C16.918 31.123 17.504 31.205 18.1016 30.9472ZM17.9259 29.1308C17.6915 29.2128 17.5157 29.2128 17.3048 29.0019L16.5079 28.205C16.297 27.9941 16.297 27.8066 16.3907 27.5956L17.8438 24.1855L29.0118 13.0996C29.3517 12.7832 29.7501 12.7597 30.0665 13.0762L32.5392 15.5722C32.8556 15.9004 32.8322 16.2988 32.504 16.6269L21.336 27.7128L17.9259 29.1308ZM13.5313 31.5331H14.9493C15.2774 31.5331 15.418 31.4745 15.6759 31.2636L16.7774 30.4199L15.0899 28.6972L13.1915 30.7011C12.8399 31.0644 13.0157 31.5331 13.5313 31.5331ZM16.7774 24.1855L21.5704 29.0019L22.672 27.912L17.879 23.0839L16.7774 24.1855ZM26.504 14.541L31.297 19.3574L32.3986 18.2793L27.6056 13.4512L26.504 14.541Z" fill="#00BA77"/>
</g>
<defs>
<clipPath id="clip0_23_548">
<rect width="24.2812" height="28.0317" fill="white" transform="translate(12.3594 10.9841)"/>
</clipPath>
</defs>
</svg>
