<svg width="29" height="29" viewBox="0 0 29 29" fill="none" xmlns="http://www.w3.org/2000/svg">
<g clip-path="url(#clip0_107_5127)">
<path d="M14.5 28.282C22.232 28.282 28.5 22.014 28.5 14.282C28.5 6.55006 22.232 0.282043 14.5 0.282043C6.76801 0.282043 0.5 6.55006 0.5 14.282C0.5 22.014 6.76801 28.282 14.5 28.282Z" fill="white"/>
<path d="M3.3942 5.75876C2.29448 7.18955 1.46526 8.83865 0.982422 10.6302H8.26559L3.3942 5.75876Z" fill="#0052B4"/>
<path d="M28.0179 10.6301C27.5351 8.83865 26.7058 7.18955 25.6062 5.75876L20.7349 10.6301H28.0179Z" fill="#0052B4"/>
<path d="M0.982422 17.9344C1.46531 19.7259 2.29454 21.375 3.39419 22.8057L8.26543 17.9344H0.982422Z" fill="#0052B4"/>
<path d="M23.0237 3.17626C21.5929 2.07655 19.9439 1.24733 18.1523 0.764435V8.04755L23.0237 3.17626Z" fill="#0052B4"/>
<path d="M5.97656 25.388C7.40735 26.4877 9.05645 27.3169 10.8479 27.7998V20.5167L5.97656 25.388Z" fill="#0052B4"/>
<path d="M10.8479 0.764435C9.0564 1.24733 7.4073 2.07655 5.97656 3.17621L10.8479 8.0475V0.764435Z" fill="#0052B4"/>
<path d="M18.1523 27.7998C19.9438 27.3169 21.5929 26.4877 23.0236 25.388L18.1523 20.5167V27.7998Z" fill="#0052B4"/>
<path d="M20.7349 17.9344L25.6062 22.8058C26.7058 21.375 27.5351 19.7259 28.0179 17.9344H20.7349Z" fill="#0052B4"/>
<path d="M28.3815 12.456H16.3262H16.3261V0.400551C15.7283 0.322731 15.1189 0.282043 14.5 0.282043C13.881 0.282043 13.2717 0.322731 12.6739 0.400551V12.4559V12.4559H0.618508C0.540688 13.0537 0.5 13.6631 0.5 14.282C0.5 14.9011 0.540688 15.5104 0.618508 16.1081H12.6738H12.6739V28.1635C13.2717 28.2414 13.881 28.282 14.5 28.282C15.1189 28.282 15.7283 28.2414 16.3261 28.1635V16.1082V16.1082H28.3815C28.4593 15.5104 28.5 14.9011 28.5 14.282C28.5 13.6631 28.4593 13.0537 28.3815 12.456Z" fill="#D80027"/>
<path d="M18.1523 17.9339L24.3996 24.1812C24.687 23.894 24.961 23.5937 25.2226 23.2824L19.874 17.9339H18.1523V17.9339Z" fill="#D80027"/>
<path d="M10.8479 17.9341H10.8478L4.60059 24.1813C4.8878 24.4687 5.18809 24.7428 5.49937 25.0043L10.8479 19.6556V17.9341Z" fill="#D80027"/>
<path d="M10.8481 10.6298V10.6297L4.60077 4.38235C4.31344 4.66957 4.03935 4.96986 3.77783 5.28114L9.12643 10.6297H10.8481V10.6298Z" fill="#D80027"/>
<path d="M18.1523 10.6297L24.3997 4.38233C24.1125 4.095 23.8122 3.82091 23.5009 3.55945L18.1523 8.90805V10.6297Z" fill="#D80027"/>
</g>
<defs>
<clipPath id="clip0_107_5127">
<rect width="28" height="28" fill="white" transform="translate(0.5 0.282104)"/>
</clipPath>
</defs>
</svg>
