<svg width="33" height="26" viewBox="0 0 33 26" fill="none" xmlns="http://www.w3.org/2000/svg">
<g clip-path="url(#clip0_40_1019)">
<path fill-rule="evenodd" clip-rule="evenodd" d="M26.1824 19.6908L24.7473 18.2566C27.9324 16.2537 29.9766 13.7169 29.9766 12.7734C29.9766 11.3789 23.707 4.58203 16.0195 4.58203C14.5261 4.58203 13.0878 4.83622 11.7393 5.25637L10.2104 3.72831C11.9846 3.11075 13.9358 2.73047 16.0195 2.73047C25.4766 2.73047 32.0273 10.3711 32.0273 12.7734C32.0273 14.1537 29.8475 17.2881 26.1824 19.6908ZM5.90329 5.85457C2.22542 8.25496 0 11.3868 0 12.7734C0 15.1641 6.66797 22.8164 16.0195 22.8164C18.1336 22.8164 20.1017 22.4349 21.8835 21.8157L20.3577 20.2917C18.9913 20.7114 17.5329 20.9648 16.0195 20.9648C8.29688 20.9648 2.05078 14.4258 2.05078 12.7734C2.05078 11.9695 4.12625 9.37058 7.36363 7.31317L5.90329 5.85457ZM10.0345 9.98083C9.64103 10.8249 9.42188 11.7702 9.42188 12.7734C9.42188 16.3477 12.3516 19.3359 16.0195 19.3359C17.0095 19.3359 17.9467 19.1154 18.7867 18.7226L10.0345 9.98083ZM21.9921 15.503C22.3785 14.6681 22.5938 13.7423 22.5938 12.7734C22.5938 9.10547 19.6641 6.21093 16.0195 6.21093C15.0381 6.21093 14.1096 6.41815 13.2758 6.79196L21.9921 15.503Z" fill="#A7A7A7"/>
<path d="M24.9375 22.9219C25.2891 23.2852 25.8398 23.3086 26.2148 22.9219C26.5898 22.5352 26.5664 22.0078 26.2148 21.6445L6.60938 2.06251C6.26953 1.71094 5.68359 1.71094 5.32031 2.06251C4.98047 2.40235 4.98047 3.00001 5.32031 3.33985L24.9375 22.9219Z" fill="#A7A7A7"/>
</g>
<defs>
<clipPath id="clip0_40_1019">
<rect width="32.0273" height="24.668" fill="white" transform="translate(0 0.433594)"/>
</clipPath>
</defs>
</svg>
