<svg width="19" height="19" viewBox="0 0 19 19" fill="none" xmlns="http://www.w3.org/2000/svg">
<g id="Filter">
<path id="Stroke 1" d="M8.14367 14.8829H1.67114" stroke="#535353" stroke-width="1.5" stroke-linecap="round" stroke-linejoin="round"/>
<path id="Stroke 3" fill-rule="evenodd" clip-rule="evenodd" d="M12.205 14.8834C12.205 16.9252 12.8859 17.6052 14.9267 17.6052C16.9676 17.6052 17.6485 16.9252 17.6485 14.8834C17.6485 12.8416 16.9676 12.1616 14.9267 12.1616C12.8859 12.1616 12.205 12.8416 12.205 14.8834Z" stroke="#535353" stroke-width="1.5" stroke-linecap="round" stroke-linejoin="round"/>
<path id="Stroke 5" d="M11.1765 4.39415H17.6481" stroke="#535353" stroke-width="1.5" stroke-linecap="round" stroke-linejoin="round"/>
<path id="Stroke 7" fill-rule="evenodd" clip-rule="evenodd" d="M7.11525 4.39269C7.11525 2.35179 6.43436 1.6709 4.39346 1.6709C2.35167 1.6709 1.67078 2.35179 1.67078 4.39269C1.67078 6.43448 2.35167 7.11448 4.39346 7.11448C6.43436 7.11448 7.11525 6.43448 7.11525 4.39269Z" stroke="#535353" stroke-width="1.5" stroke-linecap="round" stroke-linejoin="round"/>
</g>
</svg>
