<svg width="64" height="64" viewBox="0 0 64 64" fill="none" xmlns="http://www.w3.org/2000/svg">
<g clip-path="url(#clip0_695_9118)">
<path d="M36.9583 47.8301C36.1376 48.1301 35.3051 48.3797 34.4726 48.5771C35.3128 47.8006 36.0701 46.9458 36.8289 45.9382C37.2105 45.4314 37.103 44.7155 36.5888 44.3394C36.0747 43.9633 35.3483 44.0693 34.9666 44.576C33.8109 46.111 32.6939 47.2177 31.1809 48.2792V40.293C32.1178 40.3469 33.0491 40.4651 33.9612 40.6475C34.5888 40.773 35.2011 40.3736 35.3284 39.7547C35.4558 39.1362 35.0501 38.5328 34.4225 38.4073C33.3594 38.1947 32.2733 38.0597 31.1809 38.0034V30.8453H40.0281C39.9832 32.2417 39.8381 33.3413 39.5351 34.6969C39.3973 35.3134 39.7925 35.923 40.418 36.0587C40.5022 36.0769 40.5861 36.0858 40.6685 36.0858C41.2008 36.0858 41.6805 35.7221 41.7999 35.1886C42.1377 33.6773 42.3008 32.4166 42.3478 30.8453H49.6949C49.5794 33.2233 49.0972 35.3555 48.2292 37.3342C47.9749 37.9136 48.2456 38.5863 48.8335 38.8369C49.4214 39.0875 50.104 38.8208 50.3579 38.2414C51.491 35.659 52.0417 32.8661 52.0417 29.7025C52.0417 26.7731 51.4594 23.9309 50.3106 21.2545C49.2015 18.6701 47.6138 16.3493 45.5919 14.3566C43.5699 12.3639 41.2151 10.7991 38.5927 9.70606C35.8771 8.57394 32.9934 8 30.021 8C27.0487 8 24.1647 8.57394 21.449 9.70606C18.8267 10.7991 16.4718 12.3639 14.4499 14.3566C12.4279 16.3493 10.8402 18.6701 9.7311 21.2545C8.58237 23.9309 8 26.7731 8 29.7025C8 32.6319 8.58237 35.4742 9.7311 38.1505C10.8402 40.735 12.4279 43.0558 14.4499 45.0485C16.4718 47.0411 18.8267 48.6059 21.449 49.699C24.1427 50.8218 27.0021 51.3954 29.9487 51.4043C30.0238 51.4191 30.1007 51.427 30.1776 51.427C30.26 51.427 30.3428 51.4177 30.4246 51.4002C32.8121 51.3502 35.3406 50.8595 37.7647 49.9729C38.3652 49.7531 38.6713 49.0955 38.4483 48.5038C38.2256 47.912 37.5581 47.6103 36.9576 47.8301H36.9583ZM23.0257 41.5208C24.8831 40.8258 26.8483 40.4086 28.8615 40.2927V48.1602C26.4816 46.4154 24.5039 44.143 23.0257 41.5208ZM28.8615 38.0038C26.4896 38.1258 24.1758 38.6216 21.9984 39.4609C20.8399 36.812 20.1545 33.8888 20.0244 30.8453H28.8615V38.0038ZM31.1809 11.2969C33.5385 13.04 35.4999 15.2984 36.9736 17.9003C35.1291 18.5857 33.1785 18.9971 31.1809 19.1123V11.2969ZM28.8615 11.2962V19.1123C26.8643 18.9971 24.914 18.5857 23.0695 17.9007C24.5428 15.2984 26.5039 13.0397 28.8615 11.2962ZM28.8615 21.4013V28.5598H20.0314C20.1789 25.519 20.8747 22.6023 22.0377 19.9592C24.2036 20.7896 26.5042 21.2799 28.8615 21.4013ZM31.1809 21.4013C33.5389 21.2799 35.8395 20.7893 38.0058 19.9589C39.1695 22.6019 39.8656 25.519 40.0138 28.5598H31.1809V21.4013ZM49.6889 28.5598H42.3356C42.1864 25.2347 41.429 21.991 40.1143 19.0215C41.5838 18.2737 42.9726 17.3593 44.2532 16.2893C47.3897 19.5203 49.4082 23.8139 49.6889 28.5601V28.5598ZM42.5409 14.7207C41.4669 15.5929 40.3109 16.3448 39.0922 16.9685C37.756 14.5681 36.0597 12.4503 34.0886 10.7021C37.2498 11.3586 40.1342 12.7637 42.5409 14.7207ZM25.9539 10.7024C23.9831 12.4506 22.2878 14.5685 20.9516 16.9691C19.7326 16.3455 18.5762 15.5936 17.5019 14.721C19.9082 12.7643 22.7926 11.359 25.9535 10.7027L25.9539 10.7024ZM15.7892 16.2889C17.0702 17.3593 18.4593 18.2741 19.9291 19.0218C18.6148 21.9913 17.8585 25.2347 17.7092 28.5598H10.3535C10.6342 23.8139 12.6527 19.52 15.7892 16.2889ZM10.3535 30.8453H17.703C17.7764 32.7618 18.0467 34.6486 18.5108 36.4674C18.858 37.8269 19.313 39.1472 19.8689 40.4141C18.421 41.1563 17.0524 42.0601 15.7889 43.1161C12.6523 39.885 10.6339 35.5914 10.3531 30.8456L10.3535 30.8453ZM17.5015 44.684C18.5567 43.8269 19.6912 43.0863 20.8865 42.4691C22.2012 44.8397 23.8829 46.9393 25.8471 48.6803C22.7279 48.0145 19.8811 46.6187 17.5015 44.684Z" fill="#44C352"/>
<path d="M55.6606 51.479L48.6586 44.5784L52.1563 42.9203C52.5783 42.7204 52.8368 42.2898 52.8117 41.829C52.7867 41.3682 52.4826 40.9674 52.0415 40.8131L36.5931 35.4134C36.1715 35.266 35.7018 35.3709 35.3856 35.6826C35.0694 35.9942 34.9633 36.4574 35.1125 36.8726L40.5911 52.0976C40.7476 52.5326 41.1539 52.832 41.6218 52.8566C42.0891 52.8817 42.5264 52.6266 42.7292 52.2107L44.4116 48.7636L51.4135 55.6643C51.64 55.8875 51.9368 55.9989 52.2335 55.9989C52.5303 55.9989 52.827 55.8875 53.0535 55.6643L55.6609 53.0946C56.1139 52.6482 56.1139 51.9248 55.6609 51.4784L55.6606 51.479ZM52.2332 53.2406L44.8948 46.0084C44.6756 45.7924 44.3796 45.6738 44.0748 45.6738C44.0101 45.6738 43.9451 45.6793 43.8803 45.6899C43.5098 45.752 43.1929 45.9872 43.0298 46.3211L41.8459 48.7472L38.1116 38.3699L48.6412 42.0501L46.1795 43.2169C45.8407 43.3773 45.602 43.69 45.5391 44.0552C45.4761 44.4203 45.5965 44.793 45.8623 45.0549L53.2006 52.2872L52.2332 53.2406Z" fill="#44C352"/>
</g>
<defs>
<clipPath id="clip0_695_9118">
<rect width="48" height="48" fill="white" transform="translate(8 8)"/>
</clipPath>
</defs>
</svg>
