<svg width="28" height="28" viewBox="0 0 28 28" fill="none" xmlns="http://www.w3.org/2000/svg">
<g clip-path="url(#clip0_16_442)">
<path d="M3.67969 24.5742H23.9531C26.4141 24.5742 27.6328 23.3672 27.6328 20.9531V6.63281C27.6328 4.21875 26.4141 3 23.9531 3H3.67969C1.23047 3 0 4.21875 0 6.63281V20.9531C0 23.3672 1.23047 24.5742 3.67969 24.5742ZM3.70312 22.6875C2.53125 22.6875 1.88672 22.0664 1.88672 20.8477V6.73828C1.88672 5.51953 2.53125 4.88672 3.70312 4.88672H23.9297C25.0898 4.88672 25.7461 5.51953 25.7461 6.73828V20.8477C25.7461 22.0664 25.0898 22.6875 23.9297 22.6875H3.70312Z" fill="#494949"/>
<path d="M16.582 9.92578H22.9805C23.3906 9.92578 23.707 9.60938 23.707 9.19922C23.707 8.80078 23.3906 8.48438 22.9805 8.48438H16.582C16.1602 8.48438 15.8438 8.80078 15.8438 9.19922C15.8438 9.60938 16.1602 9.92578 16.582 9.92578ZM16.582 14.5195H22.9805C23.3906 14.5195 23.707 14.1914 23.707 13.7812C23.707 13.3828 23.3906 13.0781 22.9805 13.0781H16.582C16.1602 13.0781 15.8438 13.3828 15.8438 13.7812C15.8438 14.1914 16.1602 14.5195 16.582 14.5195ZM16.582 19.1016H22.9805C23.3906 19.1016 23.707 18.7969 23.707 18.3984C23.707 17.9883 23.3906 17.6602 22.9805 17.6602H16.582C16.1602 17.6602 15.8438 17.9883 15.8438 18.3984C15.8438 18.7969 16.1602 19.1016 16.582 19.1016ZM4.37108 19.1016H13.5234C13.9102 19.1016 14.0977 18.8438 14.0977 18.4922C14.0977 17.3906 12.4453 14.5547 8.94141 14.5547C5.4375 14.5547 3.79688 17.3906 3.79688 18.4922C3.79688 18.8438 3.98437 19.1016 4.37108 19.1016ZM8.94141 13.7344C10.3711 13.7461 11.5078 12.5391 11.5078 10.9336C11.5078 9.43359 10.3711 8.19141 8.94141 8.19141C7.52344 8.19141 6.37499 9.43359 6.37499 10.9336C6.37499 12.5391 7.52344 13.7344 8.94141 13.7344Z" fill="#494949"/>
</g>
<defs>
<clipPath id="clip0_16_442">
<rect width="27.6328" height="21.5742" fill="white" transform="translate(0 3)"/>
</clipPath>
</defs>
</svg>
