<svg width="19" height="18" viewBox="0 0 19 18" fill="none" xmlns="http://www.w3.org/2000/svg">
<g clip-path="url(#clip0_23_222)">
<path d="M5.50182 15.7315H7.13659C7.28725 15.7315 7.40025 15.7767 7.51325 15.8897L8.67343 17.0423C9.62261 17.999 10.504 17.9915 11.4533 17.0423L12.6134 15.8897C12.734 15.7767 12.8394 15.7315 12.9976 15.7315H14.6249C15.9733 15.7315 16.5986 15.1138 16.5986 13.7577V12.1305C16.5986 11.9723 16.6438 11.8668 16.7568 11.7463L17.9095 10.5861C18.8662 9.63688 18.8587 8.75546 17.9095 7.80628L16.7568 6.6461C16.6438 6.5331 16.5986 6.4201 16.5986 6.26943V4.63467C16.5986 3.2937 15.9809 2.66089 14.6249 2.66089H12.9976C12.8394 2.66089 12.734 2.62322 12.6134 2.51022L11.4533 1.3576C10.504 0.400847 9.62261 0.408381 8.67343 1.3576L7.51325 2.51022C7.40025 2.62322 7.28725 2.66089 7.13659 2.66089H5.50182C4.15332 2.66089 3.52804 3.27864 3.52804 4.63467V6.26943C3.52804 6.4201 3.49038 6.5331 3.37737 6.6461L2.22475 7.80628C1.268 8.75546 1.27553 9.63688 2.22475 10.5861L3.37737 11.7463C3.49038 11.8668 3.52804 11.9723 3.52804 12.1305V13.7577C3.52804 15.1062 4.15332 15.7315 5.50182 15.7315Z" fill="#00A6F3"/>
<path d="M9.2234 12.8763C8.96729 12.8763 8.75636 12.7783 8.56049 12.5147L6.66957 10.1944C6.55657 10.0437 6.48877 9.87043 6.48877 9.7047C6.48877 9.35813 6.75244 9.07939 7.09898 9.07939C7.30992 9.07939 7.47566 9.15473 7.664 9.40333L9.19331 11.3772L12.4101 6.20916C12.5532 5.97562 12.7491 5.86262 12.9525 5.86262C13.2764 5.86262 13.5853 6.08863 13.5853 6.43517C13.5853 6.60843 13.4874 6.7817 13.397 6.93238L9.85623 12.5147C9.69802 12.7558 9.47958 12.8763 9.2234 12.8763Z" fill="white"/>
</g>
<defs>
<clipPath id="clip0_23_222">
<rect width="17.1142" height="17.1217" fill="white" transform="translate(1.51001 0.642858)"/>
</clipPath>
</defs>
</svg>
