<svg width="105" height="91" viewBox="0 0 105 91" fill="none" xmlns="http://www.w3.org/2000/svg">
<g clip-path="url(#clip0_397_1777)">
<path d="M113.577 34.0454C113.577 65.2832 88.2534 90.6064 57.0156 90.6064C30.8104 90.6064 8.76751 72.7854 2.34522 48.6014H23.592C25.5271 53.0386 28.3199 57.0158 31.7609 60.3236C33.11 58.0642 33.7953 55.3833 33.5369 52.5742C31.921 52.0562 30.7513 50.5415 30.7513 48.7537C30.7513 46.5384 32.5471 44.7425 34.7624 44.7425C36.9777 44.7425 38.7736 46.5384 38.7736 48.7537C38.7736 50.4556 37.7136 51.91 36.2178 52.4927C36.5078 56.0116 35.5709 59.3576 33.7874 62.1321C38.0326 65.6469 43.0879 68.2177 48.6315 69.5228C52.6205 66.5689 55.2962 61.8792 55.4513 56.463L55.5662 52.4522C54.1221 51.8452 53.108 50.4174 53.108 48.7527C53.108 46.5374 54.9039 44.7416 57.1192 44.7416C59.3345 44.7416 61.1304 46.5374 61.1304 48.7527C61.1304 50.5801 59.9084 52.1221 58.237 52.6061L58.1243 56.5395C57.9692 61.955 55.6395 66.7437 52.0338 70.1542C53.6626 70.3768 55.3257 70.4918 57.0156 70.4918C61.192 70.4918 65.2042 69.7894 68.9408 68.4962C73.8582 64.786 76.8143 58.889 76.7177 52.6005C75.0577 52.1093 73.8466 50.5729 73.8466 48.7537C73.8466 46.5384 75.6424 44.7425 77.8577 44.7425C80.073 44.7425 81.8689 46.5384 81.8689 48.7537C81.8689 50.4263 80.8452 51.8598 79.3901 52.4617C79.484 57.185 78.0621 61.7184 75.4818 65.4742C84.3614 60.2456 90.8306 51.3613 92.8203 40.8903H68.7921V53.2716C70.33 53.8329 71.428 55.3087 71.428 57.0408C71.428 59.2561 69.6321 61.052 67.4168 61.052C65.2015 61.052 63.4057 59.2562 63.4057 57.0408C63.4057 55.2801 64.5401 53.7844 66.118 53.2447V40.8903H47.8246V52.2872C49.3626 52.8485 50.4606 54.3243 50.4606 56.0564C50.4606 58.2717 48.6647 60.0676 46.4494 60.0676C44.2341 60.0676 42.4382 58.2718 42.4382 56.0564C42.4382 54.2957 43.5727 52.8 45.1505 52.2602V40.8903H21.211L21.2121 40.8965H0.865305C0.594142 38.6507 0.45459 36.3643 0.45459 34.0454C0.45459 2.80761 25.7778 -22.5156 57.0156 -22.5156C83.9309 -22.5156 106.455 -3.71566 112.173 21.4691H91.234C89.2373 16.038 85.9844 11.2138 81.8276 7.34867C79.7769 9.85887 78.6397 13.1285 78.9528 16.5979C80.5667 17.117 81.7346 18.6307 81.7346 20.4172C81.7346 22.6325 79.9387 24.4283 77.7234 24.4283C75.5081 24.4283 73.7123 22.6325 73.7123 20.4172C73.7123 18.7138 74.7741 17.2584 76.2719 16.6767C75.9359 12.516 77.3259 8.60179 79.8034 5.59974C76.1411 2.66216 71.8995 0.417177 67.2771 -0.936518C61.2811 2.53109 57.3649 9.15579 57.723 16.5239C59.4729 16.9554 60.7707 18.5354 60.7707 20.4186C60.7707 22.6339 58.9748 24.4297 56.7595 24.4297C54.5442 24.4297 52.7483 22.6339 52.7483 20.4186C52.7483 18.8114 53.6936 17.4249 55.0585 16.7849C54.6469 9.27912 58.1288 2.43677 63.7247 -1.7848C61.55 -2.18944 59.3075 -2.40099 57.0156 -2.40099C52.8822 -2.40099 48.9095 -1.71291 45.2058 -0.445034C39.3022 3.11938 35.6618 9.60624 35.7689 16.5737C37.4287 17.065 38.6398 18.6013 38.6398 20.4205C38.6398 22.6358 36.8439 24.4316 34.6286 24.4316C32.4133 24.4316 30.6174 22.6358 30.6174 20.4205C30.6174 18.7478 31.6413 17.3142 33.0965 16.7123C33.0008 11.8955 34.4814 7.2762 37.1595 3.47769C28.4614 9.13935 22.3301 18.4129 20.8923 29.1716H45.074L45.074 16.2014C43.5363 15.64 42.4385 14.1644 42.4385 12.4324C42.4385 10.2171 44.2344 8.42123 46.4497 8.42123C48.665 8.42123 50.4608 10.2171 50.4608 12.4324C50.4608 14.1933 49.3262 15.6892 47.7481 16.2287L47.7481 29.1716H66.0412V15.5692C64.5032 15.0079 63.4053 13.5322 63.4053 11.8C63.4052 9.58469 65.2011 7.78883 67.4164 7.78883C69.6317 7.78883 71.4276 9.58469 71.4276 11.8C71.4276 13.5607 70.2931 15.0565 68.7153 15.5962V29.1716H72.1638V29.174H113.37C113.507 30.7796 113.577 32.4044 113.577 34.0454Z" fill="#0019FF"/>
<circle cx="77.7869" cy="20.5091" r="1.91732" fill="#00C2FF"/>
<circle cx="2.15699" cy="2.15699" r="2.15699" transform="matrix(1 0 0 -1 75.5601 51.0312)" fill="#00C2FF"/>
<circle cx="67.4553" cy="11.7849" r="2.15699" fill="#00C2FF"/>
<circle cx="2.15699" cy="2.15699" r="2.15699" transform="matrix(1 0 0 -1 65.0503 59.0674)" fill="#00C2FF"/>
<circle cx="56.7004" cy="20.4402" r="2.15699" fill="#00C2FF"/>
<circle cx="2.15699" cy="2.15699" r="2.15699" transform="matrix(1 0 0 -1 54.8521 51.0312)" fill="#00C2FF"/>
<circle cx="34.4465" cy="20.4402" r="2.15699" fill="#00C2FF"/>
<circle cx="2.15699" cy="2.15699" r="2.15699" transform="matrix(1 0 0 -1 32.5981 51.0312)" fill="#00C2FF"/>
<circle cx="46.5003" cy="12.4031" r="2.15699" fill="#00C2FF"/>
<circle cx="2.15699" cy="2.15699" r="2.15699" transform="matrix(1 0 0 -1 44.3433 58.1396)" fill="#00C2FF"/>
</g>
<defs>
<clipPath id="clip0_397_1777">
<rect width="113.122" height="113.122" fill="white" transform="translate(0.45459 -22.5156)"/>
</clipPath>
</defs>
</svg>
