<svg width="28" height="28" viewBox="0 0 28 28" fill="none" xmlns="http://www.w3.org/2000/svg">
<g clip-path="url(#clip0_23_191)">
<path d="M6.67969 24.5977H20.8945C23.3555 24.5977 24.5742 23.3789 24.5742 20.9648V6.65625C24.5742 4.24219 23.3555 3.02344 20.8945 3.02344H6.67969C4.23047 3.02344 3 4.23047 3 6.65625V20.9648C3 23.3906 4.23047 24.5977 6.67969 24.5977ZM6.70312 22.7109C5.53125 22.7109 4.88672 22.0898 4.88672 20.8711V6.75C4.88672 5.53125 5.53125 4.91016 6.70312 4.91016H20.8711C22.0312 4.91016 22.6875 5.53125 22.6875 6.75V20.8711C22.6875 22.0898 22.0312 22.7109 20.8711 22.7109H6.70312Z" fill="#FB4B47"/>
<path d="M8.36719 18.9727C8.8125 18.9727 9.14062 18.6562 9.14062 18.1992V9.39844C9.14062 8.94141 8.8125 8.61328 8.36719 8.61328C7.89844 8.61328 7.57031 8.94141 7.57031 9.39844V18.1992C7.57031 18.6562 7.89844 18.9727 8.36719 18.9727ZM20.6602 13.8047C20.6602 13.3594 20.3203 13.0312 19.875 13.0312H14.4961L12.3516 13.1484L14.7305 11.0391L15.4688 10.3242C15.6328 10.1602 15.7031 9.96094 15.7031 9.75C15.7031 9.30469 15.3516 9 14.9297 9C14.7188 9 14.5195 9.05859 14.3438 9.23438L10.3008 13.2188C10.1367 13.3828 10.043 13.5938 10.043 13.8047C10.043 14.0273 10.125 14.2266 10.3008 14.3906L14.332 18.3398C14.4961 18.4922 14.7422 18.5977 14.9297 18.5977C15.375 18.5977 15.7031 18.2812 15.7031 17.8359C15.7031 17.6016 15.6328 17.4141 15.4688 17.2734L14.7188 16.582L12.3398 14.4609L14.4961 14.6016H19.875C20.3203 14.6016 20.6602 14.2734 20.6602 13.8047Z" fill="#FB4B47"/>
</g>
<defs>
<clipPath id="clip0_23_191">
<rect width="21.5742" height="21.5977" fill="white" transform="translate(3 3)"/>
</clipPath>
</defs>
</svg>
