<svg width="31" height="26" viewBox="0 0 31 26" fill="none" xmlns="http://www.w3.org/2000/svg">
<g clip-path="url(#clip0_347_6257)">
<path fill-rule="evenodd" clip-rule="evenodd" d="M24.9552 19.7392L23.6226 18.4074C26.5803 16.5476 28.4785 14.1919 28.4785 13.3158C28.4785 12.0209 22.6567 5.70954 15.5183 5.70954C14.1315 5.70954 12.7959 5.94559 11.5437 6.33576L10.124 4.91685C11.7715 4.34337 13.5834 3.99023 15.5183 3.99023C24.2999 3.99023 30.3827 11.0851 30.3827 13.3158C30.3827 14.5976 28.3585 17.5081 24.9552 19.7392ZM6.12457 6.89126C2.70948 9.12019 0.643066 12.0282 0.643066 13.3158C0.643066 15.5357 6.83475 22.6414 15.5183 22.6414C17.4814 22.6414 19.3088 22.2872 20.9633 21.7123L19.5465 20.2972C18.2777 20.6868 16.9235 20.9221 15.5183 20.9221C8.34731 20.9221 2.54736 14.8502 2.54736 13.3158C2.54736 12.5694 4.47453 10.1561 7.4806 8.24568L6.12457 6.89126ZM9.96074 10.7228C9.59542 11.5066 9.39195 12.3843 9.39195 13.3158C9.39195 16.6348 12.1124 19.4096 15.5183 19.4096C16.4375 19.4096 17.3077 19.2049 18.0878 18.8402L9.96074 10.7228ZM21.0642 15.8506C21.4231 15.0753 21.623 14.2155 21.623 13.3158C21.623 9.90988 18.9026 7.22209 15.5183 7.22209C14.607 7.22209 13.7447 7.41453 12.9705 7.76168L21.0642 15.8506Z" fill="white"/>
<path d="M23.7993 22.7393C24.1258 23.0766 24.6372 23.0984 24.9854 22.7393C25.3336 22.3802 25.3119 21.8905 24.9854 21.5531L6.78035 3.36984C6.46477 3.04339 5.92069 3.04339 5.58335 3.36984C5.26779 3.68541 5.26779 4.24038 5.58335 4.55594L23.7993 22.7393Z" fill="white"/>
</g>
<defs>
<clipPath id="clip0_347_6257">
<rect width="29.7396" height="22.906" fill="white" transform="translate(0.643066 1.85742)"/>
</clipPath>
</defs>
</svg>
