<svg width="13" height="13" viewBox="0 0 13 13" fill="none" xmlns="http://www.w3.org/2000/svg">
<g clip-path="url(#clip0_347_4593)">
<path d="M11.7686 11.2727C11.7686 11.7331 11.4087 12.0679 11.0069 12.0679C10.5968 12.0679 10.2535 11.708 10.2535 11.3062V8.21748V4.66999L2.19594 12.6929C2.04527 12.8436 1.86112 12.9189 1.66859 12.9189C1.25007 12.9189 0.890137 12.5339 0.890137 12.1321C0.890137 11.9563 0.973842 11.7554 1.12451 11.6048L9.22676 3.5467H5.40699H2.49405C2.10064 3.5467 1.7407 3.20356 1.7407 2.80177C1.7407 2.39999 2.05878 2.04842 2.52753 2.04842H10.9483C11.4505 2.04842 11.7603 2.37484 11.7603 2.85199L11.7686 11.2727Z" fill="#44C352"/>
</g>
<defs>
<clipPath id="clip0_347_4593">
<rect width="12.3633" height="12.38" fill="white" transform="matrix(1 0 0 -1 0.147949 12.9189)"/>
</clipPath>
</defs>
</svg>
