<svg width="29" height="28" viewBox="0 0 29 28" fill="none" xmlns="http://www.w3.org/2000/svg">
<g clip-path="url(#clip0_347_6083)">
<path d="M3.04395 20.2266C3.04395 21.082 3.7002 21.6445 4.81348 21.6445H9.75879C9.85254 23.9062 11.6221 25.8867 14.0947 25.8867C16.5791 25.8867 18.3486 23.918 18.4423 21.6445H23.3877C24.4892 21.6445 25.1572 21.082 25.1572 20.2266C25.1572 19.0547 23.9619 18 22.9541 16.957C22.1806 16.1484 21.9697 14.4844 21.8759 13.1367C21.7939 8.51953 20.5986 5.54297 17.4814 4.41797C17.083 2.88281 15.8291 1.67578 14.0947 1.67578C12.3721 1.67578 11.1064 2.88281 10.7197 4.41797C7.60254 5.54297 6.40723 8.51953 6.3252 13.1367C6.23145 14.4844 6.02051 16.1484 5.24707 16.957C4.22754 18 3.04395 19.0547 3.04395 20.2266ZM5.31739 19.875V19.7344C5.52833 19.3945 6.23145 18.7031 6.84083 18.0234C7.68457 17.0859 8.083 15.5742 8.18848 13.2891C8.28223 8.16797 9.80567 6.53906 11.8096 5.98828C12.1025 5.91797 12.2666 5.77734 12.2783 5.47266C12.3135 4.25391 13.0166 3.39844 14.0947 3.39844C15.1845 3.39844 15.8759 4.25391 15.9228 5.47266C15.9345 5.77734 16.0869 5.91797 16.3798 5.98828C18.3955 6.53906 19.9189 8.16797 20.0127 13.2891C20.1181 15.5742 20.5166 17.0859 21.3486 18.0234C21.9697 18.7031 22.6611 19.3945 22.872 19.7344V19.875H5.31739ZM11.5869 21.6445H16.6142C16.5205 23.2383 15.5127 24.2344 14.0947 24.2344C12.6885 24.2344 11.6689 23.2383 11.5869 21.6445Z" fill="white"/>
<path d="M19.872 11.3203C22.9658 11.3203 25.5322 8.76562 25.5322 5.66016C25.5322 2.54297 22.9658 0 19.872 0C16.7548 0 14.2119 2.54297 14.2119 5.66016C14.2119 8.76562 16.7548 11.3203 19.872 11.3203Z" fill="white"/>
<path d="M19.8721 9.71484C22.087 9.71484 23.9385 7.88672 23.9385 5.66016C23.9385 3.42188 22.087 1.59375 19.8721 1.59375C17.6338 1.59375 15.8057 3.42188 15.8057 5.66016C15.8057 7.88672 17.6338 9.71484 19.8721 9.71484Z" fill="#FF413D"/>
</g>
<defs>
<clipPath id="clip0_347_6083">
<rect width="22.4883" height="27.5742" fill="white" transform="translate(3.04395)"/>
</clipPath>
</defs>
</svg>
