<svg width="27" height="26" viewBox="0 0 27 26" fill="none" xmlns="http://www.w3.org/2000/svg">
<g clip-path="url(#clip0_347_6279)">
<path d="M14.556 24.056C20.6172 24.056 25.6554 19.0179 25.6554 12.9567C25.6554 6.88476 20.6172 1.85742 14.556 1.85742C8.4841 1.85742 3.45676 6.87388 3.45676 12.9459H5.30665C5.30665 7.80971 9.41992 3.7182 14.556 3.7182C19.6923 3.7182 23.8055 7.8206 23.8055 12.9567C23.8055 18.0929 19.6923 22.228 14.556 22.2062C11.4548 22.1953 8.73438 20.6937 7.06948 18.3759C6.73214 17.9297 6.22071 17.7882 5.76367 18.0603C5.3284 18.3323 5.20871 18.9308 5.57868 19.4096C7.64621 22.1844 10.8889 24.056 14.556 24.056ZM2.11831 10.8566C1.33482 10.8566 1.13895 11.3898 1.56334 11.9992L4.00084 15.4595C4.35993 15.9601 4.88225 15.9492 5.23047 15.4595L7.66797 11.9883C8.08148 11.3898 7.88561 10.8566 7.11301 10.8566H2.11831Z" fill="white"/>
<path d="M14.3168 6.46094C13.751 6.46094 13.2939 6.91797 13.2939 7.48381V13.6537C13.2939 13.9149 13.3701 14.1652 13.5877 14.4372L16.2211 17.9194C16.6564 18.4852 17.244 18.5831 17.7772 18.2241C18.2668 17.8867 18.2995 17.2665 17.9186 16.7332L14.1427 11.608L15.3505 15.3295V7.48381C15.3505 6.91797 14.8826 6.46094 14.3168 6.46094Z" fill="white"/>
</g>
<defs>
<clipPath id="clip0_347_6279">
<rect width="24.3112" height="22.2096" fill="white" transform="translate(1.34424 1.85742)"/>
</clipPath>
</defs>
</svg>
