<svg width="21" height="49" viewBox="0 0 21 49" fill="none" xmlns="http://www.w3.org/2000/svg">
<rect x="0.57666" y="-0.00976562" width="49" height="49" rx="8" fill="#EDFAF4"/>
<g clip-path="url(#clip0_397_6045)">
<path d="M18.4563 39.0565C19.1126 39.0565 19.5679 38.7083 20.3849 37.9851L25.0054 33.8734H33.6036C37.5947 33.8734 39.7376 31.6636 39.7376 27.7396V17.4806C39.7376 13.5565 37.5947 11.3467 33.6036 11.3467H16.3537C12.3626 11.3467 10.2197 13.5431 10.2197 17.4806V27.7396C10.2197 31.6771 12.3626 33.8734 16.3537 33.8734H16.9965V37.3556C16.9965 38.3869 17.5188 39.0565 18.4563 39.0565ZM19.0054 36.6056V32.7216C19.0054 31.9984 18.7242 31.7172 18.001 31.7172H16.3537C13.6483 31.7172 12.376 30.3378 12.376 27.7261V17.4806C12.376 14.869 13.6483 13.5029 16.3537 13.5029H33.6036C36.2956 13.5029 37.5813 14.869 37.5813 17.4806V27.7261C37.5813 30.3378 36.2956 31.7172 33.6036 31.7172H24.9251C24.175 31.7172 23.8001 31.8244 23.2912 32.3467L19.0054 36.6056Z" fill="black" fill-opacity="0.85"/>
<path d="M24.7243 25.3826C25.3939 25.3826 25.7957 24.954 25.7957 24.4318C25.7957 24.3782 25.7957 24.3113 25.7957 24.2711C25.7957 23.521 26.2376 23.039 27.1751 22.4228C28.4743 21.5657 29.3983 20.7889 29.3983 19.1818C29.3983 16.9586 27.4163 15.7666 25.1395 15.7666C22.8359 15.7666 21.3225 16.8514 20.9475 18.0836C20.8805 18.2978 20.8403 18.5121 20.8403 18.7398C20.8403 19.3425 21.3091 19.6639 21.7645 19.6639C22.2198 19.6639 22.5011 19.4496 22.7421 19.1282L22.9832 18.8068C23.4519 18.03 24.1617 17.5746 25.0457 17.5746C26.2779 17.5746 27.068 18.2711 27.068 19.2889C27.068 20.1996 26.5055 20.6416 25.327 21.4586C24.376 22.1282 23.6528 22.838 23.6528 24.1505C23.6528 24.2041 23.6528 24.2711 23.6528 24.3247C23.6528 25.021 24.0278 25.3826 24.7243 25.3826ZM24.684 29.3737C25.4608 29.3737 26.1305 28.7711 26.1305 27.9809C26.1305 27.2041 25.4743 26.6015 24.684 26.6015C23.9073 26.6015 23.251 27.2175 23.251 27.9809C23.251 28.7577 23.9207 29.3737 24.684 29.3737Z" fill="black" fill-opacity="0.85"/>
</g>
<defs>
<clipPath id="clip0_397_6045">
<rect width="29.5178" height="29.4241" fill="white" transform="translate(10.2197 9.63281)"/>
</clipPath>
</defs>
</svg>
