<svg width="23" height="23" viewBox="0 0 23 23" fill="none" xmlns="http://www.w3.org/2000/svg">
<g clip-path="url(#clip0_456_1935)">
<path d="M11.0397 20.8918C16.1775 20.8918 20.4314 16.6288 20.4314 11.5001C20.4314 6.3623 16.1683 2.1084 11.0305 2.1084C5.90185 2.1084 1.64795 6.3623 1.64795 11.5001C1.64795 16.6288 5.91106 20.8918 11.0397 20.8918ZM11.0397 19.3266C6.69371 19.3266 3.22245 15.8461 3.22245 11.5001C3.22245 7.15416 6.6845 3.67369 11.0305 3.67369C15.3765 3.67369 18.8662 7.15416 18.8662 11.5001C18.8662 15.8461 15.3857 19.3266 11.0397 19.3266Z" fill="#FFA620"/>
<path d="M7.24406 11.261C7.04151 11.6118 7.14048 11.956 7.49931 12.1632L9.5646 13.3556L8.7405 14.783C8.23871 15.6521 8.1752 16.5723 8.31871 16.6552C8.46228 16.7381 9.22747 16.223 9.72926 15.3538L10.5534 13.9264L12.6106 15.1142C12.9695 15.3214 13.325 15.2396 13.5276 14.8888C14.0156 14.0435 13.8546 12.7386 12.9492 11.6735L13.9035 9.72597C14.6743 9.73512 15.3691 9.63656 15.733 9.48515C15.9275 9.40609 16.0662 9.29477 16.1399 9.16719C16.2826 8.91999 16.1925 8.63405 15.9054 8.46834L11.6154 5.99149C11.3283 5.82575 11.0357 5.8907 10.893 6.13789C10.8193 6.26547 10.7876 6.4492 10.8244 6.66179C10.8752 7.05261 11.1372 7.70361 11.5272 8.35403L10.3098 10.1497C8.94265 9.90263 7.73207 10.4157 7.24406 11.261Z" fill="#FFA620"/>
</g>
<defs>
<clipPath id="clip0_456_1935">
<rect width="18.7834" height="18.7927" fill="white" transform="translate(1.64795 2.1084)"/>
</clipPath>
</defs>
</svg>
