<svg width="24" height="24" viewBox="0 0 24 24" fill="none" xmlns="http://www.w3.org/2000/svg">
<g clip-path="url(#clip0_456_1944)">
<path d="M7.67571 11.2766H8.21893C8.54123 11.2766 8.6425 11.1846 8.6425 10.8623V10.3191C8.6425 9.99679 8.54123 9.89551 8.21893 9.89551H7.67571C7.35345 9.89551 7.24296 9.99679 7.24296 10.3191V10.8623C7.24296 11.1846 7.35345 11.2766 7.67571 11.2766ZM10.7327 11.2766H11.2759C11.5981 11.2766 11.7086 11.1846 11.7086 10.8623V10.3191C11.7086 9.99679 11.5981 9.89551 11.2759 9.89551H10.7327C10.4104 9.89551 10.2999 9.99679 10.2999 10.3191V10.8623C10.2999 11.1846 10.4104 11.2766 10.7327 11.2766ZM13.7896 11.2766H14.3328C14.655 11.2766 14.7656 11.1846 14.7656 10.8623V10.3191C14.7656 9.99679 14.655 9.89551 14.3328 9.89551H13.7896C13.4673 9.89551 13.366 9.99679 13.366 10.3191V10.8623C13.366 11.1846 13.4673 11.2766 13.7896 11.2766ZM4.61879 14.2876H5.15283C5.48431 14.2876 5.58559 14.1955 5.58559 13.8732V13.3299C5.58559 13.0077 5.48431 12.9156 5.15283 12.9156H4.61879C4.28732 12.9156 4.18604 13.0077 4.18604 13.3299V13.8732C4.18604 14.1955 4.28732 14.2876 4.61879 14.2876ZM7.67571 14.2876H8.21893C8.54123 14.2876 8.6425 14.1955 8.6425 13.8732V13.3299C8.6425 13.0077 8.54123 12.9156 8.21893 12.9156H7.67571C7.35345 12.9156 7.24296 13.0077 7.24296 13.3299V13.8732C7.24296 14.1955 7.35345 14.2876 7.67571 14.2876ZM10.7327 14.2876H11.2759C11.5981 14.2876 11.7086 14.1955 11.7086 13.8732V13.3299C11.7086 13.0077 11.5981 12.9156 11.2759 12.9156H10.7327C10.4104 12.9156 10.2999 13.0077 10.2999 13.3299V13.8732C10.2999 14.1955 10.4104 14.2876 10.7327 14.2876ZM4.61879 17.3076H5.15283C5.48431 17.3076 5.58559 17.2063 5.58559 16.884V16.3408C5.58559 16.0186 5.48431 15.9265 5.15283 15.9265H4.61879C4.28732 15.9265 4.18604 16.0186 4.18604 16.3408V16.884C4.18604 17.2063 4.28732 17.3076 4.61879 17.3076ZM7.67571 17.3076H8.21893C8.54123 17.3076 8.6425 17.2063 8.6425 16.884V16.3408C8.6425 16.0186 8.54123 15.9265 8.21893 15.9265H7.67571C7.35345 15.9265 7.24296 16.0186 7.24296 16.3408V16.884C7.24296 17.2063 7.35345 17.3076 7.67571 17.3076ZM10.7327 17.3076H11.2759C11.5981 17.3076 11.7086 17.2063 11.7086 16.884V16.3408C11.7086 16.0186 11.5981 15.9265 11.2759 15.9265H10.7327C10.4104 15.9265 10.2999 16.0186 10.2999 16.3408V16.884C10.2999 17.2063 10.4104 17.3076 10.7327 17.3076Z" fill="#00BA77"/>
<path fill-rule="evenodd" clip-rule="evenodd" d="M12.762 20.7138H3.1822C1.25781 20.7138 0.291016 19.7655 0.291016 17.8595V6.61705C0.291016 4.71108 1.25781 3.7627 3.1822 3.7627H15.7598C17.6841 3.7627 18.6418 4.72028 18.6418 6.61705V11.8735C18.4032 11.8438 18.1605 11.8285 17.9143 11.8285C17.6588 11.8285 17.4068 11.8451 17.1594 11.8771V9.25961C17.1594 8.41253 16.6989 7.97056 15.8794 7.97056H3.04409C2.22461 7.97056 1.77344 8.41253 1.77344 9.25961V17.9424C1.77344 18.7987 2.22461 19.2314 3.04409 19.2314H12.1589C12.2931 19.7567 12.4977 20.2544 12.762 20.7138Z" fill="#00BA77"/>
<path fill-rule="evenodd" clip-rule="evenodd" d="M22.5917 17.7673C22.5917 20.3271 20.4463 22.4448 17.9143 22.4448C15.3454 22.4448 13.2368 20.3454 13.2368 17.7673C13.2368 15.2076 15.3454 13.0898 17.9143 13.0898C20.474 13.0898 22.5917 15.1984 22.5917 17.7673ZM16.8922 20.0968C17.0119 20.2258 17.1961 20.2902 17.3526 20.2902C17.5552 20.2902 17.7393 20.2073 17.8406 20.0692L20.5108 16.3586C20.5937 16.2388 20.6397 16.11 20.6397 16.0087C20.6397 15.6864 20.3635 15.4378 20.0597 15.4378C19.8479 15.4378 19.6822 15.5483 19.5717 15.6956L17.325 18.8078L16.1925 17.5832C16.1004 17.4819 15.9531 17.3898 15.7597 17.3898C15.4374 17.3898 15.1796 17.6384 15.1796 17.9699C15.1796 18.0988 15.2257 18.2645 15.3361 18.3842L16.8922 20.0968Z" fill="#00BA77"/>
</g>
<defs>
<clipPath id="clip0_456_1944">
<rect width="23.553" height="22.9545" fill="white" transform="translate(0.291016 0.750977)"/>
</clipPath>
</defs>
</svg>
