<svg width="30" height="26" viewBox="0 0 30 26" fill="none" xmlns="http://www.w3.org/2000/svg">
<g clip-path="url(#clip0_290_5091)">
<path d="M15.0183 22.3759C23.8108 22.3759 29.8827 15.2701 29.8827 13.0502C29.8827 10.8195 23.7999 3.72461 15.0183 3.72461C6.34564 3.72461 0.143066 10.8195 0.143066 13.0502C0.143066 15.2701 6.33475 22.3759 15.0183 22.3759ZM15.0183 20.6565C7.84731 20.6565 2.04736 14.5845 2.04736 13.0502C2.04736 11.7553 7.84731 5.44392 15.0183 5.44392C22.1567 5.44392 27.9785 11.7553 27.9785 13.0502C27.9785 14.5845 22.1567 20.6565 15.0183 20.6565ZM15.0183 19.144C18.4026 19.144 21.123 16.3691 21.123 13.0502C21.123 9.64425 18.4026 6.95648 15.0183 6.95648C11.6124 6.95648 8.89195 9.64425 8.89195 13.0502C8.89195 16.3691 11.6124 19.144 15.0183 19.144ZM15.0183 15.0742C13.8867 15.0742 12.9726 14.1602 12.9726 13.0502C12.9726 11.9294 13.8867 11.0262 15.0183 11.0262C16.1392 11.0262 17.0532 11.9294 17.0532 13.0502C17.0532 14.1602 16.1392 15.0742 15.0183 15.0742Z" fill="white"/>
</g>
<defs>
<clipPath id="clip0_290_5091">
<rect width="29.7396" height="18.6621" fill="white" transform="translate(0.143066 3.71387)"/>
</clipPath>
</defs>
</svg>
