<svg width="50" height="50" viewBox="0 0 50 50" fill="none" xmlns="http://www.w3.org/2000/svg">
<rect x="0.57666" y="0.5" width="49" height="49" rx="8" fill="#EDFAF4"/>
<path fill-rule="evenodd" clip-rule="evenodd" d="M24.8462 38C32.5782 38 38.8462 31.732 38.8462 24C38.8462 16.268 32.5782 10 24.8462 10C17.1142 10 10.8462 16.268 10.8462 24C10.8462 26.7307 11.628 29.2788 12.98 31.4327C12.0069 32.4028 11.3724 33.0351 11.3724 33.0351L15.9145 37.5772L17.5466 35.9487C17.56 35.9569 17.5733 35.9651 17.5867 35.9732C19.7034 37.2593 22.1883 38 24.8462 38Z" fill="#00BA77"/>
<path d="M21.0696 23.4264C17.7308 26.7652 13.0135 31.4886 13.0135 31.4886L17.5729 35.9855L25.6116 27.9684L25.6116 35.8608L31.766 35.8608L31.766 17.1084L13.0136 17.1084L13.0136 23.4264L21.0696 23.4264Z" fill="white"/>
</svg>
