<svg width="49" height="50" viewBox="0 0 49 50" fill="none" xmlns="http://www.w3.org/2000/svg">
<rect y="0.5" width="49" height="49" rx="8" fill="#EDFAF4"/>
<g clip-path="url(#clip0_935_14000)">
<path d="M35.0582 14.0091C33.6921 12.643 31.7636 12.4287 29.4734 12.4287H19.0403C16.7903 12.4287 14.8618 12.643 13.4957 14.0091C12.1296 15.3751 11.9287 17.2903 11.9287 19.5403V29.9734C11.9287 32.2636 12.1296 34.1787 13.4957 35.5448C14.8618 36.9109 16.7903 37.1252 19.0671 37.1252H29.4734C31.7636 37.1252 33.6921 36.9109 35.0582 35.5448C36.4243 34.1787 36.6252 32.2636 36.6252 29.9734V19.5671C36.6252 17.2769 36.4243 15.3751 35.0582 14.0091ZM34.4689 19.2055V30.3484C34.4689 31.7278 34.2948 33.1608 33.4779 33.9645C32.6742 34.7814 31.2278 34.9689 29.8484 34.9689H18.7055C17.326 34.9689 15.8796 34.7814 15.0626 33.9645C14.2591 33.1608 14.085 31.7278 14.085 30.3484V19.2457C14.085 17.826 14.2591 16.393 15.0626 15.576C15.8796 14.7725 17.3394 14.585 18.7457 14.585H29.8484C31.2278 14.585 32.6742 14.7725 33.4779 15.5894C34.2948 16.393 34.4689 17.826 34.4689 19.2055Z" fill="#00BA77"/>
<path d="M24.0226 27.5494C24.6923 27.5494 25.094 27.1208 25.094 26.5984C25.094 26.545 25.094 26.478 25.094 26.4378C25.094 25.6878 25.5359 25.2056 26.4601 24.5895C27.7593 23.7324 28.6834 22.9556 28.6834 21.3485C28.6834 19.1253 26.7146 17.9199 24.4378 17.9199C22.1342 17.9199 20.6208 19.0181 20.2458 20.2503C20.1789 20.4646 20.1387 20.6788 20.1387 20.9065C20.1387 21.5092 20.6074 21.8306 21.0628 21.8306C21.5181 21.8306 21.7994 21.6163 22.0405 21.2949L22.2815 20.9735C22.7503 20.1967 23.4601 19.7414 24.3441 19.7414C25.5628 19.7414 26.3663 20.4378 26.3663 21.4556C26.3663 22.3663 25.7905 22.8083 24.6253 23.6253C23.661 24.2949 22.9512 25.0047 22.9512 26.3172C22.9512 26.3708 22.9512 26.4378 22.9512 26.4914C22.9512 27.1878 23.3262 27.5494 24.0226 27.5494ZM23.9825 31.5405C24.7593 31.5405 25.4289 30.9244 25.4289 30.1476C25.4289 29.3708 24.7726 28.7548 23.9825 28.7548C23.1922 28.7548 22.536 29.3842 22.536 30.1476C22.536 30.911 23.2056 31.5405 23.9825 31.5405Z" fill="#00BA77"/>
</g>
<defs>
<clipPath id="clip0_935_14000">
<rect width="24.6965" height="24.7098" fill="white" transform="translate(11.9287 12.4287)"/>
</clipPath>
</defs>
</svg>
