<svg width="68" height="68" viewBox="0 0 68 68" fill="none" xmlns="http://www.w3.org/2000/svg">
<rect width="68" height="68" rx="34" fill="#EDFAF4"/>
<g clip-path="url(#clip0_1287_32890)">
<path d="M33.9078 57.3621C46.739 57.3621 57.3625 46.7156 57.3625 33.9073C57.3625 21.0763 46.7161 10.4526 33.8849 10.4526C21.0767 10.4526 10.4531 21.0763 10.4531 33.9073C10.4531 46.7156 21.0997 57.3621 33.9078 57.3621Z" fill="#00CB82"/>
<path d="M33.4247 38.8282C32.206 38.8282 31.5163 38.1844 31.5163 36.9427C31.5163 36.8507 31.5163 36.7357 31.5163 36.6438C31.5163 34.2982 32.8039 33.0565 34.5055 31.8609C36.5751 30.4122 37.5639 29.6303 37.5639 28.0207C37.5639 26.2271 36.1613 25.0084 34.0226 25.0084C32.436 25.0084 31.2172 25.7902 30.3664 27.1699L29.9526 27.7447C29.5157 28.2966 28.9868 28.6875 28.182 28.6875C27.4001 28.6875 26.5493 28.1127 26.5493 27.0549C26.5493 26.641 26.6413 26.2501 26.7563 25.8822C27.4001 23.6976 30.0675 21.7891 34.1606 21.7891C38.2077 21.7891 41.7259 23.8816 41.7259 27.8367C41.7259 30.6881 40.0704 32.0677 37.7709 33.5855C36.1151 34.6661 35.3563 35.5169 35.3563 36.8507C35.3563 36.9197 35.3563 37.0347 35.3563 37.1267C35.3563 38.0694 34.6205 38.8282 33.4247 38.8282ZM33.3788 45.8877C31.9992 45.8877 30.8034 44.7839 30.8034 43.4273C30.8034 42.0706 31.9762 40.9439 33.3788 40.9439C34.7814 40.9439 35.9542 42.0476 35.9542 43.4273C35.9542 44.8069 34.7585 45.8877 33.3788 45.8877Z" fill="white"/>
</g>
<defs>
<clipPath id="clip0_1287_32890">
<rect width="46.9094" height="46.9326" fill="white" transform="translate(10.4531 10.4526)"/>
</clipPath>
</defs>
</svg>
