<svg width="25" height="26" viewBox="0 0 25 26" fill="none" xmlns="http://www.w3.org/2000/svg">
<g clip-path="url(#clip0_695_9160)">
<path fill-rule="evenodd" clip-rule="evenodd" d="M10.035 16.825C7.13312 17.2078 5.12088 18.2263 5.12088 19.4547C5.12088 21.0417 8.39544 22.2671 12.6142 22.2671C16.8128 22.2671 20.1075 21.0216 20.1075 19.4547C20.1075 18.2326 18.0775 17.2085 15.1737 16.8245C15.1883 16.5622 15.1956 16.2871 15.1956 15.9993V15.2031C19.3744 15.6713 22.1465 17.2914 22.1465 19.4547C22.1465 22.0462 18.199 23.8542 12.6242 23.8542C7.03941 23.8542 3.07178 22.0462 3.07178 19.4547C3.07178 17.2973 5.84265 15.6802 10.0126 15.207V15.9993C10.0126 16.2873 10.0201 16.5625 10.035 16.825Z" fill="white"/>
<path fill-rule="evenodd" clip-rule="evenodd" d="M11.6801 9.23997C10.0428 8.82811 8.8374 7.35156 8.8374 5.58371C8.8374 3.50447 10.5149 1.79688 12.6142 1.79688C14.7035 1.79688 16.3809 3.50447 16.3809 5.58371C16.3809 7.35156 15.1756 8.83814 13.5383 9.23997V15.5983C13.5383 18.5714 13.016 20.1786 12.6142 20.1786C12.2023 20.1786 11.6801 18.5614 11.6801 15.5983V9.23997ZM10.9628 5.65206C11.136 5.74291 11.3292 5.79465 11.5294 5.79465C12.2425 5.79465 12.8251 5.19197 12.8251 4.48884C12.8251 4.22894 12.7432 3.98316 12.6032 3.77746C12.4727 3.58575 12.2917 3.42886 12.0796 3.32779C11.9124 3.24811 11.7259 3.20312 11.5294 3.20312C10.8463 3.20312 10.2437 3.79575 10.2437 4.48884C10.2437 4.75251 10.3284 5.00206 10.4704 5.211C10.596 5.39598 10.7666 5.54913 10.9628 5.65206Z" fill="white"/>
</g>
<defs>
<clipPath id="clip0_695_9160">
<rect width="19.0748" height="25.3828" fill="white" transform="translate(3.07129 0.144531)"/>
</clipPath>
</defs>
</svg>
