<svg width="270" height="181" viewBox="0 0 270 181" fill="none" xmlns="http://www.w3.org/2000/svg">
<g clip-path="url(#clip0_1287_30385)">
<path d="M179.127 12.1328H18.5454C14.5215 12.1328 11.2595 15.4146 11.2595 19.4628V125.43C11.2595 129.478 14.5215 132.76 18.5454 132.76H179.127C183.151 132.76 186.413 129.478 186.413 125.43V19.4628C186.413 15.4146 183.151 12.1328 179.127 12.1328Z" fill="white"/>
<path d="M186.413 19.2897L186.307 18.2136C185.662 14.6589 182.728 12.3682 179.93 12.1328H17.4993C15.4525 12.4098 11.9182 14.4364 11.3352 18.1028L11.2595 19.2897H186.413Z" fill="#3D3D3D"/>
<path d="M179.127 132.978H18.5453C14.4084 132.978 11.0432 129.593 11.0432 125.431V19.4636C11.0432 15.3016 14.4084 11.916 18.5453 11.916H179.127C183.264 11.916 186.629 15.3016 186.629 19.4636V125.43C186.629 129.592 183.264 132.977 179.127 132.977V132.978ZM18.5453 12.3512C14.6473 12.3512 11.4758 15.5419 11.4758 19.4636V125.43C11.4758 129.351 14.6473 132.542 18.5453 132.542H179.127C183.025 132.542 186.197 129.351 186.197 125.43V19.4636C186.197 15.5419 183.025 12.3512 179.127 12.3512H18.5453Z" fill="#3D3D3D"/>
<path d="M169.321 106.226H60.2156C60.0956 106.226 59.9993 106.128 59.9993 106.009V37.6707C59.9993 37.5501 60.0966 37.4531 60.2156 37.4531C60.3345 37.4531 60.4318 37.5501 60.4318 37.6707V105.791H169.321C169.441 105.791 169.538 105.888 169.538 106.009C169.538 106.129 169.441 106.226 169.321 106.226Z" fill="#3D3D3D"/>
<path d="M73.2999 68.0977H64.7517V102.058H73.2999V68.0977Z" fill="#FEC432"/>
<path d="M86.7557 77.3867H78.2075V102.06H86.7557V77.3867Z" fill="#FEC432"/>
<path d="M100.211 68.9941H91.6624V102.059H100.211V68.9941Z" fill="#FEC432"/>
<path d="M113.665 58.9062H105.117V102.059H113.665V58.9062Z" fill="#FEC432"/>
<path d="M126.904 65.4062H118.787V102.059H126.904V65.4062Z" fill="#FEC432"/>
<path d="M140.575 47.1094H132.027V102.06H140.575V47.1094Z" fill="#FEC432"/>
<path d="M154.03 41.4512H145.482V102.058H154.03V41.4512Z" fill="#FEC432"/>
<path d="M167.485 37.6699H158.937V102.058H167.485V37.6699Z" fill="#FEC432"/>
<path d="M82.481 78.2504C82.4466 78.2504 82.4112 78.2415 82.3798 78.2247L68.5346 70.8333C68.4284 70.777 68.3891 70.6454 68.4452 70.5386C68.5012 70.4318 68.6319 70.3922 68.7381 70.4486L82.4702 77.7796L109.273 60.3205C109.33 60.2839 109.4 60.275 109.465 60.2988L122.768 65.1452L136.127 46.9779C136.156 46.9374 136.198 46.9087 136.246 46.8968L163.108 39.9565L171.132 33.0756C171.223 32.9974 171.359 33.0083 171.437 33.1003C171.515 33.1913 171.504 33.3288 171.412 33.4069L163.351 40.3205C163.326 40.3423 163.297 40.3571 163.264 40.366L136.428 47.3004L123.019 65.5359C122.962 65.613 122.86 65.6427 122.771 65.6111L109.417 60.7458L82.598 78.2148C82.5626 78.2375 82.5213 78.2494 82.4801 78.2494L82.481 78.2504Z" fill="#3D3D3D"/>
<path d="M126.339 65.6525C126.216 67.5199 124.699 68.9956 122.846 68.9956C120.992 68.9956 119.425 67.4714 119.348 65.5605L126.339 65.6525Z" fill="white"/>
<path d="M119.348 65.558C119.346 65.5076 119.345 65.4562 119.345 65.4057C119.345 63.4246 120.912 61.8184 122.846 61.8184C124.779 61.8184 126.346 63.4246 126.346 65.4057C126.346 65.4878 126.344 65.5699 126.339 65.65L119.348 65.558Z" fill="white"/>
<path d="M126.34 65.8684C126.34 65.8684 126.33 65.8684 126.325 65.8684C126.205 65.8605 126.115 65.7567 126.123 65.637C126.128 65.5608 126.131 65.4837 126.131 65.4065C126.131 63.5481 124.657 62.0368 122.847 62.0368C121.036 62.0368 119.562 63.5481 119.562 65.4065C119.562 65.455 119.563 65.5035 119.565 65.5509C119.57 65.6716 119.476 65.7725 119.356 65.7765C119.241 65.7824 119.136 65.6874 119.132 65.5668C119.13 65.5134 119.129 65.46 119.129 65.4056C119.129 63.3067 120.797 61.5996 122.848 61.5996C124.898 61.5996 126.566 63.3067 126.566 65.4056C126.566 65.4926 126.563 65.5786 126.557 65.6647C126.549 65.7804 126.454 65.8684 126.341 65.8684H126.34Z" fill="#3D3D3D"/>
<path d="M99.4368 68.9941C99.4368 70.9753 97.8697 72.5815 95.9359 72.5815C94.0021 72.5815 92.4351 70.9753 92.4351 68.9941H99.4378H99.4368Z" fill="white"/>
<path d="M92.4351 68.9956C92.4351 67.0145 94.0022 65.4082 95.9359 65.4082C97.8697 65.4082 99.4368 67.0145 99.4368 68.9956H92.4341H92.4351Z" fill="white"/>
<path d="M99.4368 69.213C99.3168 69.213 99.2205 69.1161 99.2205 68.9954C99.2205 67.1369 97.7468 65.6256 95.9359 65.6256C94.125 65.6256 92.6513 67.1379 92.6513 68.9954C92.6513 69.1161 92.555 69.213 92.435 69.213C92.3151 69.213 92.2188 69.1161 92.2188 68.9954C92.2188 66.8966 93.8861 65.1895 95.9369 65.1895C97.9876 65.1895 99.655 66.8966 99.655 68.9954C99.655 69.1161 99.5577 69.213 99.4387 69.213H99.4368Z" fill="#3D3D3D"/>
<path d="M109.391 64.7821C111.324 64.7821 112.892 63.176 112.892 61.1948C112.892 59.2135 111.324 57.6074 109.391 57.6074C107.457 57.6074 105.89 59.2135 105.89 61.1948C105.89 63.176 107.457 64.7821 109.391 64.7821Z" fill="white"/>
<path d="M106.522 59.3549C106.48 59.3549 106.438 59.3431 106.399 59.3164C106.301 59.2481 106.276 59.1126 106.344 59.0137C107.04 57.996 108.18 57.3887 109.391 57.3887C110.602 57.3887 111.636 57.9346 112.347 58.8861C112.419 58.9821 112.399 59.1186 112.304 59.1908C112.208 59.263 112.073 59.2442 112.001 59.1472C111.373 58.3065 110.422 57.8239 109.391 57.8239C108.36 57.8239 107.316 58.3609 106.7 59.26C106.658 59.3213 106.591 59.354 106.521 59.354L106.522 59.3549Z" fill="#3D3D3D"/>
<path d="M136.301 50.6962C138.234 50.6962 139.802 49.0901 139.802 47.1088C139.802 45.1276 138.234 43.5215 136.301 43.5215C134.367 43.5215 132.8 45.1276 132.8 47.1088C132.8 49.0901 134.367 50.6962 136.301 50.6962Z" fill="#3D3D3D"/>
<path d="M149.756 46.5595C151.69 46.5595 153.257 44.9534 153.257 42.9721C153.257 40.9909 151.69 39.3848 149.756 39.3848C147.823 39.3848 146.256 40.9909 146.256 42.9721C146.256 44.9534 147.823 46.5595 149.756 46.5595Z" fill="#3D3D3D"/>
<path d="M163.211 43.7431C165.145 43.7431 166.712 42.137 166.712 40.1557C166.712 38.1745 165.145 36.5684 163.211 36.5684C161.278 36.5684 159.71 38.1745 159.71 40.1557C159.71 42.137 161.278 43.7431 163.211 43.7431Z" fill="#3D3D3D"/>
<path d="M79.0361 77.3849C79.333 75.7113 80.7625 74.4434 82.481 74.4434C84.1994 74.4434 85.5846 75.6728 85.911 77.3077L79.0361 77.3849Z" fill="white"/>
<path d="M79.0362 77.6033C79.0235 77.6033 79.0107 77.6023 78.9979 77.6003C78.8799 77.5795 78.8023 77.4658 78.8229 77.3481C79.1444 75.5391 80.682 74.2266 82.4811 74.2266C84.2802 74.2266 85.7715 75.5044 86.1235 77.266C86.1471 77.3837 86.0714 77.4984 85.9544 77.5221C85.8374 77.5459 85.7234 77.4697 85.6998 77.352C85.3881 75.7933 84.0354 74.6618 82.482 74.6618C80.9287 74.6618 79.5347 75.8229 79.2506 77.4242C79.2319 77.5301 79.1404 77.6042 79.0372 77.6042L79.0362 77.6033Z" fill="#3D3D3D"/>
<path d="M85.9112 77.3086C85.9574 77.542 85.982 77.7843 85.982 78.0316C85.982 80.0127 84.4149 81.619 82.4811 81.619C80.5473 81.619 78.9802 80.0127 78.9802 78.0316C78.9802 77.811 78.9999 77.5954 79.0372 77.3857L85.9122 77.3086H85.9112Z" fill="white"/>
<path d="M41.1891 79.475C56.0385 79.475 68.0763 67.3674 68.0763 52.4319C68.0763 37.4963 56.0385 25.3887 41.1891 25.3887C26.3398 25.3887 14.302 37.4963 14.302 52.4319C14.302 67.3674 26.3398 79.475 41.1891 79.475Z" fill="white"/>
<path d="M41.1891 79.6934C26.2438 79.6934 14.0857 67.4646 14.0857 52.4326C14.0857 37.4007 26.2438 25.1719 41.1891 25.1719C56.1344 25.1719 68.2925 37.4007 68.2925 52.4326C68.2925 67.4646 56.1344 79.6934 41.1891 79.6934ZM41.1891 25.6071C26.4827 25.6071 14.5183 37.6411 14.5183 52.4326C14.5183 67.2242 26.4827 79.2572 41.1891 79.2572C55.8955 79.2572 67.86 67.2232 67.86 52.4326C67.86 37.6421 55.8955 25.6071 41.1891 25.6071Z" fill="#3D3D3D"/>
<path d="M41.1892 73.5097C46.787 73.5097 52.0496 71.3169 56.0076 67.3359C59.9656 63.3549 62.1462 58.0614 62.1462 52.4316C62.1462 46.8018 59.9666 41.5083 56.0076 37.5273C52.0496 33.5463 46.787 31.3535 41.1892 31.3535C35.5913 31.3535 30.3287 33.5463 26.3707 37.5273C22.4127 41.5083 20.2322 46.8018 20.2322 52.4316C20.2322 58.0614 22.4117 63.3549 26.3707 67.3359C30.3287 71.3169 35.5913 73.5097 41.1892 73.5097Z" fill="#FEC432"/>
<path d="M41.1892 66.7709C44.9968 66.7709 48.5763 65.2794 51.2691 62.5713C53.9618 59.8632 55.4443 56.263 55.4443 52.4323C55.4443 48.6016 53.9618 45.0014 51.2691 42.2933C48.5763 39.5853 44.9968 38.0938 41.1892 38.0938C37.3816 38.0938 33.8021 39.5853 31.1094 42.2933C28.4166 45.0014 26.9341 48.6016 26.9341 52.4323C26.9341 56.263 28.4166 59.8632 31.1094 62.5713C33.8021 65.2794 37.3816 66.7709 41.1892 66.7709Z" fill="white"/>
<path d="M41.1892 60.3116C43.2822 60.3116 45.2494 59.4917 46.729 58.0031C48.2086 56.5146 49.0236 54.5364 49.0236 52.4307C49.0236 50.325 48.2086 48.3468 46.729 46.8583C45.2494 45.3697 43.2822 44.5508 41.1892 44.5508C39.0961 44.5508 37.1289 45.3707 35.6493 46.8593C34.1697 48.3478 33.3547 50.326 33.3547 52.4317C33.3547 54.5374 34.1697 56.5156 35.6493 58.0041C37.1289 59.4927 39.0961 60.3116 41.1892 60.3116Z" fill="#00CB82"/>
<path d="M47.8035 48.5009L40.843 52.2425L47.1743 47.5039L47.8035 48.5009Z" fill="#3D3D3D"/>
<path d="M71.4472 32.7179L65.4207 36.5624L65.3401 32.3074C65.3037 30.3896 66.2642 28.5924 67.8746 27.5648L71.3076 25.375L71.4472 32.7179Z" fill="white"/>
<path d="M65.4207 36.7805C65.3853 36.7805 65.3499 36.7716 65.3185 36.7548C65.2496 36.7172 65.2064 36.646 65.2044 36.5669L65.1238 32.3119C65.0864 30.3318 66.0961 28.4417 67.7586 27.3814L71.1916 25.1916C71.2574 25.1501 71.341 25.1471 71.4098 25.1837C71.4786 25.2213 71.5219 25.2925 71.5239 25.3716L71.6635 32.7145C71.6654 32.7906 71.6271 32.8618 71.5632 32.9024L65.5367 36.7469C65.5013 36.7697 65.461 36.7805 65.4207 36.7805ZM71.0982 25.7663L67.9896 27.7493C66.454 28.7295 65.521 30.4742 65.5554 32.304L65.6291 36.1723L71.228 32.6007L71.0982 25.7672V25.7663Z" fill="#3D3D3D"/>
<path d="M71.4471 32.7188L65.4207 36.5633L69.2135 38.4504C70.9222 39.301 72.9493 39.1932 74.5597 38.1656L77.9927 35.9758L71.4481 32.7188H71.4471Z" fill="white"/>
<path d="M71.63 39.2329C70.7688 39.2329 69.9066 39.0381 69.1172 38.6454L65.3243 36.7583C65.2545 36.7236 65.2083 36.6534 65.2044 36.5743C65.2004 36.4962 65.2388 36.421 65.3047 36.3785L71.3311 32.5339C71.395 32.4934 71.4747 32.4884 71.5425 32.5231L78.0871 35.7801C78.1569 35.8147 78.2031 35.8849 78.207 35.964C78.211 36.0422 78.1726 36.1173 78.1067 36.1599L74.6737 38.3497C73.7545 38.9362 72.6927 39.2329 71.629 39.2329H71.63ZM65.8611 36.5397L69.3089 38.2547C70.9399 39.0658 72.9071 38.9609 74.4427 37.9808L77.5503 35.9977L71.4589 32.9672L65.8601 36.5387L65.8611 36.5397Z" fill="#3D3D3D"/>
<path d="M50.8562 44.6973L68.9856 33.1312C69.36 32.8923 69.8566 33.0042 70.0941 33.3809L70.2741 33.6665C70.5116 34.0433 70.4004 34.5428 70.0259 34.7817L51.8965 46.3478L50.8567 44.6981L50.8562 44.6973Z" fill="white"/>
<path d="M59.1319 41.9495C59.0601 41.9495 58.9903 41.9138 58.949 41.8486C58.8851 41.7467 58.9146 41.6122 59.0159 41.5479L69.9088 34.5987C70.1821 34.4246 70.2627 34.0586 70.0896 33.7847L69.9097 33.4998C69.8262 33.3663 69.6954 33.2743 69.543 33.2397C69.3907 33.2051 69.2334 33.2328 69.1006 33.3168L58.1822 40.2829C58.0819 40.3472 57.9472 40.3175 57.8833 40.2156C57.8194 40.1137 57.8489 39.9792 57.9502 39.9149L68.8686 32.9489C69.0987 32.8025 69.371 32.7541 69.6374 32.8144C69.9029 32.8737 70.13 33.035 70.2755 33.2654L70.4554 33.5503C70.6009 33.7817 70.649 34.0567 70.5891 34.3237C70.5301 34.5908 70.3698 34.8192 70.1398 34.9656L59.2469 41.9148C59.2105 41.9376 59.1712 41.9485 59.1309 41.9485L59.1319 41.9495Z" fill="#3D3D3D"/>
<path d="M47.4431 46.1244L55.0241 41.2879L56.7394 44.0093L49.1584 48.8458C48.5406 49.2399 47.722 49.0547 47.3308 48.4341L47.0344 47.9639C46.6427 47.3424 46.8267 46.5188 47.4436 46.1252L47.4431 46.1244Z" fill="white"/>
<path d="M56.4431 43.7568C56.3713 43.7568 56.3015 43.7212 56.2602 43.656L55.1365 41.8737C55.0726 41.7718 55.1021 41.6373 55.2033 41.573C55.3046 41.5087 55.4383 41.5384 55.5022 41.6402L56.6259 43.4225C56.6898 43.5244 56.6603 43.6589 56.5591 43.7232C56.5227 43.746 56.4834 43.7568 56.4431 43.7568Z" fill="#3D3D3D"/>
<path d="M46.8538 47.2083C46.8401 47.2083 46.8253 47.2073 46.8116 47.2043C46.6946 47.1806 46.6179 47.0658 46.6415 46.9481C46.725 46.5278 46.9679 46.1707 47.3277 45.9413L52.0624 42.9206C52.1636 42.8563 52.2973 42.886 52.3612 42.9879C52.4251 43.0898 52.3956 43.2243 52.2944 43.2886L47.5597 46.3092C47.3011 46.4734 47.1261 46.7305 47.0662 47.0332C47.0455 47.137 46.9551 47.2083 46.8538 47.2083Z" fill="#3D3D3D"/>
<path d="M48.4514 49.271C48.3521 49.271 48.2528 49.2611 48.1535 49.2423C48.0365 49.2195 47.9599 49.1048 47.9825 48.9861C48.0051 48.8674 48.1172 48.7903 48.2361 48.814C48.5153 48.8694 48.8014 48.814 49.0423 48.6617L53.7425 45.6628C53.8428 45.5985 53.9775 45.6282 54.0414 45.7301C54.1053 45.832 54.0758 45.9665 53.9745 46.0308L49.2743 49.0296C49.0246 49.1889 48.7404 49.271 48.4504 49.271H48.4514Z" fill="#3D3D3D"/>
<path d="M194.698 30.0685C201.535 23.1897 201.535 12.0369 194.698 5.15805C187.861 -1.72079 176.775 -1.72079 169.938 5.15805C163.1 12.0369 163.1 23.1897 169.938 30.0685C176.775 36.9474 187.861 36.9474 194.698 30.0685Z" fill="#00CB82"/>
<path d="M182.318 31.68C174.608 31.68 168.336 25.3697 168.336 17.6134C168.336 9.85715 174.608 3.54688 182.318 3.54688C190.028 3.54688 196.3 9.85715 196.3 17.6134C196.3 25.3697 190.028 31.68 182.318 31.68ZM182.318 3.98306C174.847 3.98306 168.77 10.0975 168.77 17.6134C168.77 25.1294 174.847 31.2438 182.318 31.2438C189.789 31.2438 195.866 25.1294 195.866 17.6134C195.866 10.0975 189.789 3.98306 182.318 3.98306Z" fill="white"/>
<path d="M181.417 28.553V25.8618C179.881 25.8351 178.292 25.3554 177.365 24.6887L178.001 22.9035C178.955 23.5434 180.332 24.0498 181.816 24.0498C183.696 24.0498 184.967 22.9569 184.967 21.4387C184.967 19.9204 183.934 19.0669 181.974 18.2677C179.272 17.2015 177.603 15.976 177.603 13.6576C177.603 11.3393 179.166 9.76663 181.603 9.36704V6.67578H183.245V9.26121C184.835 9.31462 185.92 9.74091 186.689 10.1939L186.026 11.9525C185.47 11.633 184.383 11.0465 182.689 11.0465C180.649 11.0465 179.881 12.2729 179.881 13.3382C179.881 14.7239 180.861 15.4172 183.165 16.3766C185.893 17.4962 187.272 18.8819 187.272 21.2537C187.272 23.3594 185.815 25.3316 183.087 25.7846V28.556H181.418L181.417 28.553Z" fill="white"/>
<path d="M236.005 48.9215C233.572 50.6781 231.388 62.4965 235.394 71.5287C239.399 80.5609 260.672 70.4446 253.778 61.7932C253.778 61.7932 257.627 62.993 259.02 58.7637C261.748 50.4891 243.089 43.808 236.005 48.9215Z" fill="#3D3D3D"/>
<path d="M215.042 39.0342C215.042 45.2486 220.772 50.2869 227.839 50.2869C234.907 50.2869 240.636 45.2486 240.636 39.0342C240.636 32.8199 234.895 27.3711 227.839 27.7816C220.726 28.195 220.097 34.0938 220.097 34.0938C220.097 34.0938 215.042 34.6625 215.042 39.0342Z" fill="#3D3D3D"/>
<path d="M167.615 91.7121L197.422 91.811L211.405 96.2202C217.358 110.068 181.293 114.098 181.293 114.098L203.23 135.197C205.334 137.22 206.015 140.328 204.926 143.042C201.922 150.525 195.073 162.778 191.545 168.932C190.671 170.456 188.428 170.276 187.804 168.633L184.255 159.295L160.605 114.641C152.104 103.839 153.91 91.6656 167.615 91.7111V91.7121Z" fill="white"/>
<path d="M189.751 170.196C189.69 170.196 189.628 170.194 189.565 170.188C188.673 170.117 187.921 169.551 187.602 168.712L184.919 161.649C184.876 161.536 184.931 161.41 185.043 161.368C185.155 161.325 185.28 161.381 185.323 161.493L188.006 168.556C188.265 169.238 188.876 169.697 189.599 169.754C190.322 169.812 190.995 169.455 191.358 168.824C195.077 162.338 201.759 150.353 204.725 142.961C205.785 140.32 205.14 137.334 203.081 135.354L201.327 133.668C201.24 133.585 201.237 133.447 201.32 133.36C201.402 133.273 201.539 133.27 201.626 133.353L203.379 135.04C205.567 137.143 206.253 140.317 205.126 143.124C202.15 150.54 195.456 162.546 191.732 169.042C191.318 169.765 190.57 170.196 189.751 170.196Z" fill="#3D3D3D"/>
<path d="M171.817 87.5423L204.011 92.0287L223.587 100.927C227.638 115.452 183.44 113.852 183.44 113.852L201.491 132.673C200.707 133.868 185.112 160.432 184.688 160.96L155.485 112.21C148.503 100.36 158.241 85.6512 171.816 87.5423H171.817Z" fill="#00CB82"/>
<path d="M165.919 122.574C157.15 142.47 143.122 164.912 133.438 176.869C132.299 178.275 133.034 180.664 134.823 180.428C134.823 180.428 153.537 180.917 159.772 180.744C167.461 180.53 168.567 178.85 170.044 174.97L188.318 130.309C188.318 130.309 171.264 110.445 165.918 122.573L165.919 122.574Z" fill="white"/>
<path d="M150.658 180.833C144.612 180.833 138.598 180.743 134.817 180.646C133.933 180.623 133.163 180.098 132.809 179.276C132.448 178.437 132.596 177.492 133.199 176.812L136.399 172.706C136.473 172.612 136.608 172.595 136.703 172.669C136.797 172.744 136.813 172.881 136.739 172.975L133.53 177.092C133.033 177.654 132.912 178.422 133.207 179.104C133.498 179.779 134.103 180.193 134.828 180.212C141.564 180.386 155.398 180.534 163.847 180.195C167.427 180.051 169.203 176.652 169.801 175.197C170.047 174.598 170.77 173 170.802 172.931C170.852 172.822 170.98 172.773 171.089 172.824C171.198 172.874 171.245 173.003 171.196 173.112C171.188 173.129 170.445 174.772 170.201 175.364C168.891 178.554 166.522 180.523 163.865 180.63C160.15 180.78 155.394 180.835 150.658 180.835V180.833Z" fill="#3D3D3D"/>
<path d="M136.814 172.438C145.503 158.197 155.546 137.175 162.5 121.399C167.845 109.271 179.934 101.574 193.13 101.907L220.525 102.6C220.525 102.6 236.968 113.911 241.43 123.939C242.98 127.425 237.87 129.238 230.541 130.119C216.106 130.309 195.165 130.237 195.165 130.237L171.472 172.426C169.224 172.449 137.877 172.436 136.814 172.436V172.438Z" fill="#00CB82"/>
<path d="M162.5 121.617C162.47 121.617 162.441 121.611 162.412 121.598C162.303 121.55 162.254 121.421 162.302 121.31C167.704 109.054 179.799 101.356 193.136 101.69L217.074 102.296C217.194 102.299 217.288 102.399 217.285 102.52C217.282 102.639 217.186 102.733 217.069 102.733H217.063L193.125 102.126C179.972 101.797 168.029 109.393 162.698 121.487C162.663 121.569 162.583 121.617 162.501 121.617H162.5Z" fill="#3D3D3D"/>
<path d="M181.352 155.054C181.315 155.054 181.279 155.045 181.245 155.026C181.141 154.967 181.105 154.834 181.164 154.729L194.977 130.132C195.016 130.064 195.088 130.021 195.166 130.021L198.812 130.03C198.932 130.03 199.028 130.128 199.028 130.249C199.028 130.37 198.931 130.467 198.812 130.467L195.293 130.459L181.542 154.945C181.502 155.016 181.429 155.056 181.353 155.056L181.352 155.054Z" fill="#3D3D3D"/>
<path d="M185.052 130.406C184.933 130.406 184.836 130.309 184.836 130.19C184.836 130.069 184.932 129.971 185.051 129.971L193.836 129.938C193.955 129.938 194.052 130.034 194.052 130.154C194.052 130.275 193.956 130.373 193.837 130.373L185.052 130.406Z" fill="#3D3D3D"/>
<path d="M204.011 92.0293L218.107 102.364C218.107 102.364 232.316 116.293 233.378 129.751C233.378 129.751 260.733 125.677 253.116 95.221L218.35 94.227L204.011 92.0293Z" fill="#00CB82"/>
<path d="M166.447 48.0032C166.098 47.5393 165.762 46.9657 165.929 46.4088C166.093 45.8589 166.714 45.5513 167.285 45.5691C167.857 45.5869 168.386 45.8569 168.888 46.1329C174.487 49.2188 201.219 68.1654 201.219 68.1654C201.219 68.1654 206.415 62.4951 211.464 59.5664C214.015 58.0868 220.21 57.9186 225.596 57.7406C230.867 57.5675 235.361 57.3934 235.361 57.3934C235.361 57.3934 236.151 73.4095 214.136 81.8007C208.884 83.8026 202.895 83.8481 198.572 83.0311C192.302 81.8462 183.398 73.5934 181.399 71.7369C179.933 70.376 171.576 61.8245 171.576 61.8245C171.576 61.8245 170.643 62.2359 169.148 61.4041C167.071 60.2479 167.796 57.9453 167.796 57.9453C166.97 55.0968 168.444 54.7516 168.444 54.7516C168.189 52.3729 170.691 51.8497 170.691 51.8497C169.114 50.9407 167.545 49.4591 166.447 48.0032Z" fill="white"/>
<path d="M203.394 69.829C203.354 69.829 203.314 69.8181 203.277 69.7944L201.581 68.6975C201.481 68.6322 201.452 68.4977 201.516 68.3968C201.581 68.296 201.715 68.2663 201.815 68.3316L203.511 69.4284C203.611 69.4937 203.641 69.6282 203.576 69.7291C203.535 69.7934 203.465 69.829 203.394 69.829Z" fill="#3D3D3D"/>
<path d="M201.219 68.383C201.175 68.383 201.132 68.3702 201.094 68.3434C200.824 68.1535 174.148 49.2821 168.784 46.3248C168.364 46.0933 167.916 45.8619 167.457 45.8015C167.338 45.7857 167.254 45.6769 167.27 45.5572C167.285 45.4376 167.397 45.3525 167.513 45.3693C168.046 45.4395 168.536 45.6908 168.992 45.942C174.163 48.7935 198.99 66.3228 201.189 67.8776C202.028 66.9845 206.777 62.0322 211.355 59.3775C211.889 59.0679 212.836 58.704 213.889 58.4043C214.003 58.3706 214.124 58.4389 214.156 58.5546C214.189 58.6703 214.122 58.791 214.007 58.8236C213.219 59.0482 212.166 59.4102 211.572 59.7553C206.609 62.6335 201.43 68.2564 201.378 68.3128C201.336 68.3593 201.278 68.383 201.219 68.383Z" fill="#3D3D3D"/>
<path d="M204.128 83.9146C201.927 83.9146 199.808 83.6258 197.78 83.0462C187.95 80.2402 172.845 63.5684 171.508 62.0749C171.166 62.1649 170.28 62.2816 169.043 61.5952C167.042 60.4815 167.468 58.353 167.57 57.9475C167.231 56.7478 167.245 55.819 167.613 55.188C167.803 54.8586 168.05 54.6905 168.214 54.6094C168.11 52.8568 169.435 52.0823 170.173 51.7896C169.21 51.1753 168.214 50.3346 167.327 49.3841C167.245 49.2961 167.249 49.1586 167.336 49.0765C167.424 48.9944 167.561 48.9984 167.642 49.0864C168.627 50.1418 169.748 51.0557 170.798 51.661C170.876 51.7065 170.918 51.7945 170.904 51.8835C170.89 51.9725 170.823 52.0447 170.735 52.0625C170.641 52.0823 168.429 52.5778 168.659 54.7281C168.671 54.8379 168.599 54.9388 168.493 54.9635C168.483 54.9665 168.19 55.0466 167.978 55.4214C167.771 55.7894 167.607 56.5153 168.003 57.8842C168.015 57.9258 168.015 57.9693 168.002 58.0108C167.975 58.0979 167.359 60.161 169.253 61.2144C170.62 61.975 171.455 61.6397 171.489 61.6249C171.575 61.5893 171.675 61.611 171.736 61.6803C171.895 61.8603 187.777 79.7377 197.897 82.6268C202.518 83.9462 207.633 83.7316 213.098 81.9879C213.213 81.9513 213.334 82.0156 213.371 82.1293C213.407 82.244 213.344 82.3667 213.23 82.4033C210.074 83.4102 207.031 83.9146 204.128 83.9146Z" fill="#3D3D3D"/>
<path d="M172.56 60.1731C172.265 60.1731 171.957 60.1079 171.663 59.9743C171.064 59.7043 170.597 59.2167 170.183 58.7311C169.653 58.1119 168.998 57.2722 168.625 56.2693C168.493 55.9122 168.403 55.5463 168.36 55.1813C168.346 55.0616 168.431 54.9538 168.549 54.939C168.669 54.9251 168.775 55.0102 168.789 55.1289C168.829 55.4592 168.91 55.7916 169.03 56.116C169.379 57.0546 170.005 57.8538 170.51 58.4462C170.952 58.9635 171.348 59.3542 171.84 59.5757C172.291 59.7795 172.937 59.826 173.363 59.4689C173.564 59.2998 173.684 59.0179 173.678 58.7321C173.675 58.5985 173.638 58.3503 173.429 58.192C173.333 58.1198 173.315 57.9833 173.387 57.8874C173.458 57.7915 173.594 57.7717 173.689 57.8449C173.948 58.0417 174.101 58.3612 174.11 58.7222C174.12 59.1376 173.94 59.552 173.64 59.8032C173.35 60.0465 172.967 60.1712 172.56 60.1712V60.1731Z" fill="#3D3D3D"/>
<path d="M176.936 58.6672C176.749 58.6672 176.563 58.6365 176.394 58.5772C175.893 58.4011 175.503 58.047 175.127 57.7058C175.066 57.6514 175.006 57.596 174.946 57.5426C174.587 57.2251 174.109 56.8602 173.59 56.8562H173.581C173.29 56.8562 173.003 56.965 172.698 57.0807C172.336 57.2182 171.96 57.3596 171.55 57.326C171.123 57.2914 170.736 57.057 170.46 56.6663C170.129 56.1975 170.009 55.5724 170.147 55.0353C170.431 53.9295 171.465 53.2965 172.056 53.0176C173.089 52.53 174.233 52.3381 175.368 52.4627C175.487 52.4756 175.572 52.5834 175.559 52.7031C175.547 52.8228 175.439 52.9088 175.32 52.896C174.266 52.7792 173.201 52.9583 172.24 53.4123C171.718 53.6585 170.807 54.2114 170.567 55.1441C170.46 55.5605 170.554 56.0471 170.814 56.4141C171.014 56.6979 171.289 56.8681 171.587 56.8918C171.9 56.9175 172.215 56.7988 172.547 56.6732C172.874 56.5496 173.214 56.421 173.582 56.421H173.594C174.257 56.426 174.818 56.8483 175.233 57.2162C175.295 57.2706 175.356 57.327 175.418 57.3824C175.779 57.7098 176.12 58.0184 176.538 58.1657C176.976 58.32 177.566 58.2112 177.747 57.8047C177.796 57.6949 177.923 57.6465 178.033 57.6949C178.142 57.7444 178.191 57.873 178.142 57.9827C177.934 58.4516 177.431 58.6672 176.937 58.6672H176.936Z" fill="#3D3D3D"/>
<path d="M171.86 61.4221C171.679 61.4221 171.491 61.3974 171.301 61.346C170.877 61.2322 170.496 61.0087 170.181 60.8049C169.153 60.1413 168.433 59.4252 167.978 58.6181C167.919 58.5133 167.956 58.3807 168.06 58.3214C168.164 58.262 168.296 58.2986 168.355 58.4035C168.774 59.1482 169.447 59.8139 170.415 60.438C170.703 60.6239 171.046 60.8267 171.413 60.9246C171.782 61.0235 172.139 61.0028 172.416 60.8653C172.713 60.7179 172.917 60.4133 172.913 60.1245C172.911 60.0038 173.006 59.9049 173.126 59.9029C173.244 59.892 173.344 59.9969 173.346 60.1175C173.353 60.5765 173.057 61.0334 172.609 61.256C172.387 61.3667 172.131 61.4221 171.862 61.4221H171.86Z" fill="#3D3D3D"/>
<path d="M171.631 61.9299C171.579 61.9299 171.528 61.9111 171.485 61.8735C171.397 61.7934 171.39 61.6549 171.47 61.5659C171.567 61.4571 171.645 61.3275 171.697 61.1901C171.738 61.0773 171.863 61.0209 171.975 61.0625C172.087 61.104 172.144 61.2296 172.102 61.3424C172.031 61.5333 171.927 61.7064 171.791 61.8577C171.748 61.9052 171.69 61.9299 171.63 61.9299H171.631Z" fill="#3D3D3D"/>
<path d="M249.783 98.6484L239.399 57.3696C239.399 57.3696 220.6 57.3043 213.948 58.8156C213.948 58.8156 213.21 91.9841 212.867 98.6484H249.783Z" fill="white"/>
<path d="M249.783 98.8656H212.867C212.808 98.8656 212.751 98.8409 212.71 98.7974C212.67 98.7538 212.648 98.6955 212.651 98.6362C212.989 92.0509 213.724 59.1416 213.732 58.8092C213.734 58.7093 213.803 58.6233 213.901 58.6015C220.5 57.1031 239.213 57.1506 239.401 57.1506C239.499 57.1506 239.585 57.2188 239.61 57.3147L249.995 98.5936C250.011 98.6589 249.997 98.7281 249.955 98.7806C249.914 98.833 249.851 98.8646 249.784 98.8646L249.783 98.8656ZM213.096 98.4304H249.506L239.232 57.5877C237.371 57.5927 220.513 57.6154 214.161 58.9922C214.103 61.549 213.426 91.6098 213.096 98.4314V98.4304Z" fill="#3D3D3D"/>
<path d="M212.868 92.891C212.868 92.891 212.863 92.891 212.861 92.891C212.741 92.8871 212.647 92.7872 212.651 92.6665L213.732 58.6059C213.736 58.4852 213.838 58.3853 213.955 58.3952C214.075 58.3992 214.168 58.4991 214.164 58.6197L213.084 92.6804C213.08 92.7981 212.984 92.891 212.868 92.891Z" fill="#3D3D3D"/>
<path d="M174.293 101.68H225.616V100.126C225.616 98.7601 224.514 97.6523 223.155 97.6523H170.685L171.106 99.225C171.494 100.673 172.801 101.68 174.293 101.68Z" fill="#3D3D3D"/>
<path d="M172.83 99.8566H203.794C205.116 99.8566 206.088 98.6094 205.769 97.3196L199.917 73.5978C199.692 72.6858 198.877 72.0449 197.942 72.0449H166.978C165.655 72.0449 164.684 73.2921 165.003 74.5819L170.855 98.3038C171.08 99.2157 171.895 99.8566 172.83 99.8566Z" fill="#3D3D3D"/>
<path d="M182.318 81.1976C182.318 81.7653 182.776 82.2252 183.341 82.2252C183.905 82.2252 184.363 81.7653 184.363 81.1976C184.363 80.6298 183.905 80.1699 183.341 80.1699C182.776 80.1699 182.318 80.6298 182.318 81.1976Z" fill="white"/>
<path d="M238.72 57.3693C242.48 57.3436 252.839 61.1792 258.993 81.1653C265.147 101.151 255.967 107.941 249.455 108.059H249.236C242.724 108.178 226.691 99.8489 224.117 99.8568L215.167 97.7699C215.167 97.7699 217.737 89.5586 228.534 90.8038C237.171 91.7998 247.509 92.9471 247.509 92.9471C247.509 92.9471 235.733 57.3891 238.721 57.3693H238.72Z" fill="white"/>
<path d="M254.3 106.979C254.223 106.979 254.147 106.937 254.109 106.864C254.052 106.758 254.092 106.626 254.197 106.569C257.392 104.845 264.236 98.9248 258.787 81.2293C256.125 72.5868 252.434 66.0916 247.814 61.9246C244.267 58.725 240.819 57.5866 238.76 57.5866C238.717 57.5866 238.676 57.5668 238.615 57.6528C237.178 59.6735 244.696 83.7653 247.714 92.8786C247.737 92.9488 247.724 93.027 247.677 93.0843C247.631 93.1417 247.557 93.1714 247.486 93.1644C247.382 93.1526 237.049 92.0052 228.511 91.0201C223.026 90.3881 219.75 92.2713 217.967 93.9636C216.407 95.4423 215.682 97.0386 215.456 97.6133L222.924 99.354C223.04 99.3817 223.112 99.4984 223.086 99.6152C223.058 99.7328 222.942 99.8051 222.826 99.7783L215.12 97.9822C215.061 97.9683 215.01 97.9308 214.98 97.8783C214.95 97.8259 214.944 97.7626 214.961 97.7053C214.988 97.6212 217.709 89.3348 228.561 90.5879C236.231 91.4721 245.349 92.4889 247.199 92.6946C245.679 88.0895 236.486 59.902 238.265 57.4006C238.38 57.2394 238.537 57.1543 238.721 57.1524C240.855 57.1484 244.445 58.2997 248.105 61.6012C252.784 65.8216 256.516 72.3821 259.201 81.1007C264.746 99.1068 257.693 105.179 254.403 106.954C254.37 106.972 254.335 106.98 254.301 106.98L254.3 106.979Z" fill="#3D3D3D"/>
<path d="M222.105 98.6766C222.081 98.6766 222.058 98.6726 222.034 98.6647C221.921 98.6251 221.862 98.5015 221.901 98.3878C222.436 96.8408 223.646 95.5244 225.139 94.8657C225.249 94.8182 225.376 94.8677 225.424 94.9774C225.472 95.0872 225.422 95.2158 225.313 95.2643C223.929 95.8755 222.807 97.096 222.31 98.5312C222.279 98.6212 222.195 98.6776 222.106 98.6776L222.105 98.6766Z" fill="#3D3D3D"/>
<path d="M219.291 98.1101C219.27 98.1101 219.25 98.1072 219.229 98.1012C219.114 98.0666 219.049 97.945 219.084 97.8302C219.64 95.9589 221.022 94.3457 222.78 93.5149C222.888 93.4635 223.017 93.511 223.068 93.6198C223.119 93.7286 223.072 93.8581 222.964 93.9096C221.315 94.6889 220.02 96.2012 219.498 97.9549C219.469 98.0488 219.384 98.1101 219.29 98.1101H219.291Z" fill="#3D3D3D"/>
<path d="M225.608 101.678V100.124C225.608 98.7582 224.505 97.6504 223.146 97.6504H212.945L225.608 101.678Z" fill="#3D3D3D"/>
<path d="M230.139 47.7441L231.487 57.6161C231.487 57.6161 229.461 62.6494 224.775 62.6494C222.658 62.6494 221.832 61.421 221.787 60.1471C221.733 58.616 223.092 57.7941 223.092 57.7941L222.3 49.6016L230.139 47.7441Z" fill="white"/>
<path d="M224.776 62.8666C222.484 62.8666 221.618 61.4661 221.571 60.1546C221.522 58.7708 222.516 57.9351 222.864 57.6848L222.085 49.6219C222.074 49.5131 222.145 49.4142 222.251 49.3885L230.089 47.531C230.148 47.5172 230.21 47.5291 230.261 47.5637C230.311 47.5983 230.344 47.6527 230.353 47.714L231.701 57.5859C231.706 57.6235 231.701 57.6621 231.687 57.6967C231.666 57.7481 229.552 62.8666 224.775 62.8666H224.776ZM222.535 49.7693L223.308 57.7729C223.316 57.8569 223.276 57.9371 223.204 57.9806C223.192 57.9885 221.955 58.759 222.003 60.1387C222.055 61.5739 223.091 62.4304 224.776 62.4304C229.007 62.4304 231.034 58.1092 231.264 57.584L229.957 48.0098L222.535 49.7683V49.7693Z" fill="#3D3D3D"/>
<path d="M217.979 42.2732C217.731 43.9853 217.79 45.7765 218.422 47.3857C219.054 48.995 220.312 50.4034 221.942 50.9602C223.356 51.4439 224.946 51.255 226.301 50.6259C227.655 49.9969 228.791 48.9544 229.704 47.7685C231.194 48.2383 232.961 47.5588 233.759 46.2107C234.22 45.4323 234.354 44.4165 233.926 43.6203C233.497 42.8241 232.429 42.3791 231.629 42.7964C231.174 43.0338 230.86 43.4957 230.395 43.7133C229.877 43.9566 229.243 43.8478 228.757 43.5452C228.271 43.2425 227.912 42.7707 227.621 42.2752C226.706 40.7154 226.379 38.8164 226.722 37.0391C226.69 37.2072 225.819 37.4911 225.663 37.5504C225.273 37.6998 224.871 37.8135 224.461 37.8936C223.653 38.0509 222.82 38.0736 222.005 37.9629C221.591 37.9065 221.182 37.8165 220.784 37.6909C220.468 37.591 220.052 37.3101 219.72 37.319C219.025 37.3368 218.864 38.6186 218.715 39.1171C218.404 40.1527 218.134 41.204 217.979 42.2752V42.2732Z" fill="white"/>
<path d="M223.631 51.4495C223.021 51.4495 222.426 51.3555 221.873 51.1666C220.283 50.6226 218.917 49.2399 218.221 47.4655C217.634 45.97 217.48 44.2124 217.765 42.2422C217.901 41.3026 218.137 40.2898 218.508 39.0525C218.533 38.9694 218.559 38.8626 218.587 38.7439C218.741 38.097 218.974 37.1188 219.715 37.0991C219.984 37.0971 220.265 37.2237 220.515 37.3404C220.637 37.3968 220.753 37.4512 220.85 37.4818C221.232 37.6015 221.63 37.6905 222.035 37.7459C222.832 37.8547 223.635 37.832 224.421 37.6796C224.821 37.6015 225.213 37.4897 225.587 37.3473C225.609 37.3384 225.648 37.3246 225.697 37.3077C226.271 37.104 226.467 37.0011 226.526 36.9497C226.566 36.8597 226.664 36.8073 226.764 36.8261C226.881 36.8488 226.957 36.9635 226.935 37.0812C226.603 38.8022 226.921 40.6558 227.808 42.1651C228.145 42.7387 228.482 43.1185 228.871 43.3609C229.339 43.6516 229.889 43.712 230.305 43.5171C230.518 43.4172 230.701 43.254 230.896 43.08C231.088 42.9079 231.288 42.7298 231.531 42.6032C232.401 42.1492 233.61 42.5765 234.117 43.5171C234.556 44.3301 234.49 45.4053 233.947 46.3231C233.131 47.7029 231.329 48.4279 229.787 48.0194C228.771 49.3072 227.631 50.2507 226.393 50.8254C225.5 51.2398 224.55 51.4505 223.633 51.4505L223.631 51.4495ZM218.193 42.3045C217.92 44.1996 218.064 45.882 218.623 47.3053C219.274 48.961 220.541 50.2507 222.012 50.7532C223.292 51.1913 224.822 51.0717 226.21 50.4278C227.42 49.866 228.538 48.9264 229.533 47.6346C229.588 47.5624 229.682 47.5328 229.769 47.5605C231.158 47.9996 232.829 47.3567 233.574 46.0996C234.032 45.3252 234.096 44.3925 233.736 43.7248C233.344 42.9979 232.387 42.6477 231.729 42.99C231.535 43.0918 231.364 43.2441 231.183 43.4054C230.974 43.5913 230.758 43.7842 230.488 43.9108C229.942 44.167 229.235 44.0987 228.644 43.7308C228.193 43.4509 227.81 43.0236 227.436 42.3866C226.581 40.9287 226.225 39.1702 226.433 37.4897C226.282 37.556 226.088 37.6302 225.842 37.7172C225.798 37.733 225.764 37.7449 225.742 37.7538C225.345 37.9051 224.928 38.0238 224.504 38.1069C223.673 38.2691 222.822 38.2929 221.978 38.1781C221.548 38.1198 221.126 38.0248 220.721 37.8982C220.598 37.8587 220.47 37.7993 220.334 37.737C220.128 37.6411 219.894 37.5263 219.727 37.5362C219.319 37.5471 219.125 38.3611 219.009 38.8467C218.978 38.9743 218.951 39.0891 218.924 39.1791C218.56 40.3946 218.328 41.3887 218.195 42.3055L218.193 42.3045Z" fill="#3D3D3D"/>
<path d="M230.139 46.4152C230.11 46.4152 230.082 46.4093 230.054 46.3974C229.944 46.3499 229.893 46.2223 229.94 46.1116C230.292 45.2788 231.161 44.7031 232.061 44.7031C232.069 44.7031 232.078 44.7031 232.087 44.7031C232.207 44.7041 232.302 44.803 232.3 44.9237C232.298 45.0434 232.202 45.1383 232.084 45.1383C232.077 45.1383 232.068 45.1383 232.06 45.1383C231.329 45.1383 230.623 45.6061 230.337 46.2817C230.303 46.3648 230.222 46.4142 230.138 46.4142L230.139 46.4152Z" fill="#3D3D3D"/>
<path d="M244.981 130.055H207.886C206.372 130.055 205.145 131.289 205.145 132.812V136.008C205.145 137.531 206.372 138.765 207.886 138.765H244.981C246.494 138.765 247.722 137.531 247.722 136.008V132.812C247.722 131.289 246.494 130.055 244.981 130.055Z" fill="white"/>
<path d="M244.981 138.984H207.886C206.256 138.984 204.929 137.65 204.929 136.009V132.813C204.929 131.172 206.255 129.838 207.886 129.838H244.981C246.612 129.838 247.938 131.172 247.938 132.813V136.009C247.938 137.65 246.612 138.984 244.981 138.984ZM207.886 130.273C206.494 130.273 205.362 131.412 205.362 132.813V136.009C205.362 137.409 206.495 138.549 207.886 138.549H244.981C246.373 138.549 247.505 137.409 247.505 136.009V132.813C247.505 131.412 246.373 130.273 244.981 130.273H207.886Z" fill="#3D3D3D"/>
<path d="M209.017 137.786C208.897 137.786 208.8 137.688 208.8 137.568V131.255C208.8 131.134 208.897 131.037 209.017 131.037C209.137 131.037 209.233 131.134 209.233 131.255V137.568C209.233 137.689 209.137 137.786 209.017 137.786Z" fill="#3D3D3D"/>
<path d="M213.371 137.786C213.251 137.786 213.155 137.688 213.155 137.568V131.255C213.155 131.134 213.251 131.037 213.371 131.037C213.491 131.037 213.587 131.134 213.587 131.255V137.568C213.587 137.689 213.491 137.786 213.371 137.786Z" fill="#3D3D3D"/>
<path d="M217.725 137.786C217.605 137.786 217.509 137.688 217.509 137.568V131.255C217.509 131.134 217.606 131.037 217.725 131.037C217.844 131.037 217.941 131.134 217.941 131.255V137.568C217.941 137.689 217.845 137.786 217.725 137.786Z" fill="#3D3D3D"/>
<path d="M222.079 137.786C221.959 137.786 221.863 137.688 221.863 137.568V131.255C221.863 131.134 221.96 131.037 222.079 131.037C222.198 131.037 222.295 131.134 222.295 131.255V137.568C222.295 137.689 222.199 137.786 222.079 137.786Z" fill="#3D3D3D"/>
<path d="M226.433 137.786C226.313 137.786 226.217 137.688 226.217 137.568V131.255C226.217 131.134 226.314 131.037 226.433 131.037C226.552 131.037 226.65 131.134 226.65 131.255V137.568C226.65 137.689 226.553 137.786 226.433 137.786Z" fill="#3D3D3D"/>
<path d="M230.788 137.786C230.668 137.786 230.571 137.688 230.571 137.568V131.255C230.571 131.134 230.668 131.037 230.788 131.037C230.908 131.037 231.004 131.134 231.004 131.255V137.568C231.004 137.689 230.907 137.786 230.788 137.786Z" fill="#3D3D3D"/>
<path d="M235.142 137.786C235.022 137.786 234.926 137.688 234.926 137.568V131.255C234.926 131.134 235.023 131.037 235.142 131.037C235.261 131.037 235.358 131.134 235.358 131.255V137.568C235.358 137.689 235.261 137.786 235.142 137.786Z" fill="#3D3D3D"/>
<path d="M239.496 137.786C239.376 137.786 239.28 137.688 239.28 137.568V131.255C239.28 131.134 239.377 131.037 239.496 131.037C239.615 131.037 239.712 131.134 239.712 131.255V137.568C239.712 137.689 239.616 137.786 239.496 137.786Z" fill="#3D3D3D"/>
<path d="M243.851 137.786C243.731 137.786 243.635 137.688 243.635 137.568V131.255C243.635 131.134 243.731 131.037 243.851 131.037C243.971 131.037 244.068 131.134 244.068 131.255V137.568C244.068 137.689 243.971 137.786 243.851 137.786Z" fill="#3D3D3D"/>
<path d="M244.981 140.561H207.886C206.372 140.561 205.145 141.795 205.145 143.318V146.514C205.145 148.037 206.372 149.271 207.886 149.271H244.981C246.494 149.271 247.722 148.037 247.722 146.514V143.318C247.722 141.795 246.494 140.561 244.981 140.561Z" fill="white"/>
<path d="M244.981 149.488H207.886C206.256 149.488 204.929 148.153 204.929 146.513V143.317C204.929 141.676 206.255 140.342 207.886 140.342H244.981C246.612 140.342 247.938 141.676 247.938 143.317V146.513C247.938 148.153 246.612 149.488 244.981 149.488ZM207.886 140.777C206.494 140.777 205.362 141.916 205.362 143.317V146.513C205.362 147.913 206.495 149.052 207.886 149.052H244.981C246.373 149.052 247.505 147.912 247.505 146.513V143.317C247.505 141.916 246.373 140.777 244.981 140.777H207.886Z" fill="#3D3D3D"/>
<path d="M209.017 148.289C208.897 148.289 208.8 148.192 208.8 148.072V141.759C208.8 141.638 208.897 141.541 209.017 141.541C209.137 141.541 209.233 141.638 209.233 141.759V148.072C209.233 148.193 209.137 148.289 209.017 148.289Z" fill="#3D3D3D"/>
<path d="M213.371 148.289C213.251 148.289 213.155 148.192 213.155 148.072V141.759C213.155 141.638 213.251 141.541 213.371 141.541C213.491 141.541 213.587 141.638 213.587 141.759V148.072C213.587 148.193 213.491 148.289 213.371 148.289Z" fill="#3D3D3D"/>
<path d="M217.725 148.289C217.605 148.289 217.509 148.192 217.509 148.072V141.759C217.509 141.638 217.606 141.541 217.725 141.541C217.844 141.541 217.941 141.638 217.941 141.759V148.072C217.941 148.193 217.845 148.289 217.725 148.289Z" fill="#3D3D3D"/>
<path d="M222.079 148.289C221.959 148.289 221.863 148.192 221.863 148.072V141.759C221.863 141.638 221.96 141.541 222.079 141.541C222.198 141.541 222.295 141.638 222.295 141.759V148.072C222.295 148.193 222.199 148.289 222.079 148.289Z" fill="#3D3D3D"/>
<path d="M226.433 148.289C226.313 148.289 226.217 148.192 226.217 148.072V141.759C226.217 141.638 226.314 141.541 226.433 141.541C226.552 141.541 226.65 141.638 226.65 141.759V148.072C226.65 148.193 226.553 148.289 226.433 148.289Z" fill="#3D3D3D"/>
<path d="M230.788 148.289C230.668 148.289 230.571 148.192 230.571 148.072V141.759C230.571 141.638 230.668 141.541 230.788 141.541C230.908 141.541 231.004 141.638 231.004 141.759V148.072C231.004 148.193 230.907 148.289 230.788 148.289Z" fill="#3D3D3D"/>
<path d="M235.142 148.289C235.022 148.289 234.926 148.192 234.926 148.072V141.759C234.926 141.638 235.023 141.541 235.142 141.541C235.261 141.541 235.358 141.638 235.358 141.759V148.072C235.358 148.193 235.261 148.289 235.142 148.289Z" fill="#3D3D3D"/>
<path d="M239.496 148.289C239.376 148.289 239.28 148.192 239.28 148.072V141.759C239.28 141.638 239.377 141.541 239.496 141.541C239.615 141.541 239.712 141.638 239.712 141.759V148.072C239.712 148.193 239.616 148.289 239.496 148.289Z" fill="#3D3D3D"/>
<path d="M243.851 148.289C243.731 148.289 243.635 148.192 243.635 148.072V141.759C243.635 141.638 243.731 141.541 243.851 141.541C243.971 141.541 244.068 141.638 244.068 141.759V148.072C244.068 148.193 243.971 148.289 243.851 148.289Z" fill="#3D3D3D"/>
<path d="M244.981 151.064H207.886C206.372 151.064 205.145 152.299 205.145 153.822V157.018C205.145 158.541 206.372 159.775 207.886 159.775H244.981C246.494 159.775 247.722 158.541 247.722 157.018V153.822C247.722 152.299 246.494 151.064 244.981 151.064Z" fill="white"/>
<path d="M244.981 159.992H207.886C206.256 159.992 204.929 158.657 204.929 157.017V153.821C204.929 152.18 206.255 150.846 207.886 150.846H244.981C246.612 150.846 247.938 152.18 247.938 153.821V157.017C247.938 158.656 246.612 159.992 244.981 159.992ZM207.886 151.281C206.494 151.281 205.362 152.42 205.362 153.821V157.017C205.362 158.417 206.495 159.555 207.886 159.555H244.981C246.373 159.555 247.505 158.416 247.505 157.017V153.821C247.505 152.42 246.373 151.281 244.981 151.281H207.886Z" fill="#3D3D3D"/>
<path d="M209.017 158.793C208.897 158.793 208.8 158.695 208.8 158.576V152.263C208.8 152.142 208.897 152.045 209.017 152.045C209.137 152.045 209.233 152.142 209.233 152.263V158.576C209.233 158.696 209.137 158.793 209.017 158.793Z" fill="#3D3D3D"/>
<path d="M213.371 158.793C213.251 158.793 213.155 158.695 213.155 158.576V152.263C213.155 152.142 213.251 152.045 213.371 152.045C213.491 152.045 213.587 152.142 213.587 152.263V158.576C213.587 158.696 213.491 158.793 213.371 158.793Z" fill="#3D3D3D"/>
<path d="M217.725 158.793C217.605 158.793 217.509 158.695 217.509 158.576V152.263C217.509 152.142 217.606 152.045 217.725 152.045C217.844 152.045 217.941 152.142 217.941 152.263V158.576C217.941 158.696 217.845 158.793 217.725 158.793Z" fill="#3D3D3D"/>
<path d="M222.079 158.793C221.959 158.793 221.863 158.695 221.863 158.576V152.263C221.863 152.142 221.96 152.045 222.079 152.045C222.198 152.045 222.295 152.142 222.295 152.263V158.576C222.295 158.696 222.199 158.793 222.079 158.793Z" fill="#3D3D3D"/>
<path d="M226.433 158.793C226.313 158.793 226.217 158.695 226.217 158.576V152.263C226.217 152.142 226.314 152.045 226.433 152.045C226.552 152.045 226.65 152.142 226.65 152.263V158.576C226.65 158.696 226.553 158.793 226.433 158.793Z" fill="#3D3D3D"/>
<path d="M230.788 158.793C230.668 158.793 230.571 158.695 230.571 158.576V152.263C230.571 152.142 230.668 152.045 230.788 152.045C230.908 152.045 231.004 152.142 231.004 152.263V158.576C231.004 158.696 230.907 158.793 230.788 158.793Z" fill="#3D3D3D"/>
<path d="M235.142 158.793C235.022 158.793 234.926 158.695 234.926 158.576V152.263C234.926 152.142 235.023 152.045 235.142 152.045C235.261 152.045 235.358 152.142 235.358 152.263V158.576C235.358 158.696 235.261 158.793 235.142 158.793Z" fill="#3D3D3D"/>
<path d="M239.496 158.793C239.376 158.793 239.28 158.695 239.28 158.576V152.263C239.28 152.142 239.377 152.045 239.496 152.045C239.615 152.045 239.712 152.142 239.712 152.263V158.576C239.712 158.696 239.616 158.793 239.496 158.793Z" fill="#3D3D3D"/>
<path d="M243.851 158.793C243.731 158.793 243.635 158.695 243.635 158.576V152.263C243.635 152.142 243.731 152.045 243.851 152.045C243.971 152.045 244.068 152.142 244.068 152.263V158.576C244.068 158.696 243.971 158.793 243.851 158.793Z" fill="#3D3D3D"/>
<path d="M244.981 161.566H207.886C206.372 161.566 205.145 162.801 205.145 164.324V167.52C205.145 169.043 206.372 170.277 207.886 170.277H244.981C246.494 170.277 247.722 169.043 247.722 167.52V164.324C247.722 162.801 246.494 161.566 244.981 161.566Z" fill="white"/>
<path d="M244.981 170.496H207.886C206.256 170.496 204.929 169.161 204.929 167.52V164.325C204.929 162.684 206.255 161.35 207.886 161.35H244.981C246.612 161.35 247.938 162.684 247.938 164.325V167.52C247.938 169.161 246.612 170.496 244.981 170.496ZM207.886 161.785C206.494 161.785 205.362 162.924 205.362 164.325V167.52C205.362 168.921 206.495 170.06 207.886 170.06H244.981C246.373 170.06 247.505 168.921 247.505 167.52V164.325C247.505 162.924 246.373 161.785 244.981 161.785H207.886Z" fill="#3D3D3D"/>
<path d="M209.017 169.297C208.897 169.297 208.8 169.2 208.8 169.08V162.766C208.8 162.646 208.897 162.549 209.017 162.549C209.137 162.549 209.233 162.647 209.233 162.766V169.08C209.233 169.2 209.137 169.297 209.017 169.297Z" fill="#3D3D3D"/>
<path d="M213.371 169.297C213.251 169.297 213.155 169.2 213.155 169.08V162.766C213.155 162.646 213.251 162.549 213.371 162.549C213.491 162.549 213.587 162.647 213.587 162.766V169.08C213.587 169.2 213.491 169.297 213.371 169.297Z" fill="#3D3D3D"/>
<path d="M217.725 169.297C217.605 169.297 217.509 169.2 217.509 169.08V162.766C217.509 162.646 217.606 162.549 217.725 162.549C217.844 162.549 217.941 162.647 217.941 162.766V169.08C217.941 169.2 217.845 169.297 217.725 169.297Z" fill="#3D3D3D"/>
<path d="M222.079 169.297C221.959 169.297 221.863 169.2 221.863 169.08V162.766C221.863 162.646 221.96 162.549 222.079 162.549C222.198 162.549 222.295 162.647 222.295 162.766V169.08C222.295 169.2 222.199 169.297 222.079 169.297Z" fill="#3D3D3D"/>
<path d="M226.433 169.297C226.313 169.297 226.217 169.2 226.217 169.08V162.766C226.217 162.646 226.314 162.549 226.433 162.549C226.552 162.549 226.65 162.647 226.65 162.766V169.08C226.65 169.2 226.553 169.297 226.433 169.297Z" fill="#3D3D3D"/>
<path d="M230.788 169.297C230.668 169.297 230.571 169.2 230.571 169.08V162.766C230.571 162.646 230.668 162.549 230.788 162.549C230.908 162.549 231.004 162.647 231.004 162.766V169.08C231.004 169.2 230.907 169.297 230.788 169.297Z" fill="#3D3D3D"/>
<path d="M235.142 169.297C235.022 169.297 234.926 169.2 234.926 169.08V162.766C234.926 162.646 235.023 162.549 235.142 162.549C235.261 162.549 235.358 162.647 235.358 162.766V169.08C235.358 169.2 235.261 169.297 235.142 169.297Z" fill="#3D3D3D"/>
<path d="M239.496 169.297C239.376 169.297 239.28 169.2 239.28 169.08V162.766C239.28 162.646 239.377 162.549 239.496 162.549C239.615 162.549 239.712 162.647 239.712 162.766V169.08C239.712 169.2 239.616 169.297 239.496 169.297Z" fill="#3D3D3D"/>
<path d="M243.851 169.297C243.731 169.297 243.635 169.2 243.635 169.08V162.766C243.635 162.646 243.731 162.549 243.851 162.549C243.971 162.549 244.068 162.647 244.068 162.766V169.08C244.068 169.2 243.971 169.297 243.851 169.297Z" fill="#3D3D3D"/>
<path d="M244.981 172.07H207.886C206.372 172.07 205.145 173.305 205.145 174.828V178.024C205.145 179.546 206.372 180.781 207.886 180.781H244.981C246.494 180.781 247.722 179.546 247.722 178.024V174.828C247.722 173.305 246.494 172.07 244.981 172.07Z" fill="white"/>
<path d="M244.981 180.999H207.886C206.256 180.999 204.929 179.665 204.929 178.024V174.829C204.929 173.189 206.255 171.854 207.886 171.854H244.981C246.612 171.854 247.938 173.188 247.938 174.829V178.024C247.938 179.665 246.612 180.999 244.981 180.999ZM207.886 172.289C206.494 172.289 205.362 173.428 205.362 174.829V178.024C205.362 179.425 206.495 180.564 207.886 180.564H244.981C246.373 180.564 247.505 179.425 247.505 178.024V174.829C247.505 173.428 246.373 172.289 244.981 172.289H207.886Z" fill="#3D3D3D"/>
<path d="M209.017 179.801C208.897 179.801 208.8 179.703 208.8 179.584V173.27C208.8 173.15 208.897 173.053 209.017 173.053C209.137 173.053 209.233 173.15 209.233 173.27V179.584C209.233 179.704 209.137 179.801 209.017 179.801Z" fill="#3D3D3D"/>
<path d="M213.371 179.801C213.251 179.801 213.155 179.703 213.155 179.584V173.27C213.155 173.15 213.251 173.053 213.371 173.053C213.491 173.053 213.587 173.15 213.587 173.27V179.584C213.587 179.704 213.491 179.801 213.371 179.801Z" fill="#3D3D3D"/>
<path d="M217.725 179.801C217.605 179.801 217.509 179.703 217.509 179.584V173.27C217.509 173.15 217.606 173.053 217.725 173.053C217.844 173.053 217.941 173.15 217.941 173.27V179.584C217.941 179.704 217.845 179.801 217.725 179.801Z" fill="#3D3D3D"/>
<path d="M222.079 179.801C221.959 179.801 221.863 179.703 221.863 179.584V173.27C221.863 173.15 221.96 173.053 222.079 173.053C222.198 173.053 222.295 173.15 222.295 173.27V179.584C222.295 179.704 222.199 179.801 222.079 179.801Z" fill="#3D3D3D"/>
<path d="M226.433 179.801C226.313 179.801 226.217 179.703 226.217 179.584V173.27C226.217 173.15 226.314 173.053 226.433 173.053C226.552 173.053 226.65 173.15 226.65 173.27V179.584C226.65 179.704 226.553 179.801 226.433 179.801Z" fill="#3D3D3D"/>
<path d="M230.788 179.801C230.668 179.801 230.571 179.703 230.571 179.584V173.27C230.571 173.15 230.668 173.053 230.788 173.053C230.908 173.053 231.004 173.15 231.004 173.27V179.584C231.004 179.704 230.907 179.801 230.788 179.801Z" fill="#3D3D3D"/>
<path d="M235.142 179.801C235.022 179.801 234.926 179.703 234.926 179.584V173.27C234.926 173.15 235.023 173.053 235.142 173.053C235.261 173.053 235.358 173.15 235.358 173.27V179.584C235.358 179.704 235.261 179.801 235.142 179.801Z" fill="#3D3D3D"/>
<path d="M239.496 179.801C239.376 179.801 239.28 179.703 239.28 179.584V173.27C239.28 173.15 239.377 173.053 239.496 173.053C239.615 173.053 239.712 173.15 239.712 173.27V179.584C239.712 179.704 239.616 179.801 239.496 179.801Z" fill="#3D3D3D"/>
<path d="M243.851 179.801C243.731 179.801 243.635 179.703 243.635 179.584V173.27C243.635 173.15 243.731 173.053 243.851 173.053C243.971 173.053 244.068 173.15 244.068 173.27V179.584C244.068 179.704 243.971 179.801 243.851 179.801Z" fill="#3D3D3D"/>
<path d="M264.656 175.621C271.493 168.742 271.493 157.59 264.655 150.711C257.818 143.832 246.732 143.832 239.895 150.711C233.058 157.59 233.058 168.742 239.895 175.621C246.732 182.5 257.818 182.5 264.656 175.621Z" fill="white"/>
<path d="M252.275 181C242.502 181 234.551 173 234.551 163.168C234.551 153.336 242.502 145.336 252.275 145.336C262.048 145.336 270 153.336 270 163.168C270 173 262.048 181 252.275 181ZM252.275 145.771C242.74 145.771 234.983 153.575 234.983 163.168C234.983 172.761 242.74 180.565 252.275 180.565C261.811 180.565 269.567 172.761 269.567 163.168C269.567 153.575 261.811 145.771 252.275 145.771Z" fill="#3D3D3D"/>
<path d="M262.008 172.958C267.384 167.55 267.384 158.782 262.008 153.374C256.633 147.966 247.918 147.966 242.542 153.374C237.167 158.782 237.167 167.55 242.542 172.958C247.918 178.366 256.633 178.366 262.008 172.958Z" fill="white"/>
<path d="M252.275 177.233C244.566 177.233 238.293 170.922 238.293 163.166C238.293 155.41 244.566 149.1 252.275 149.1C259.985 149.1 266.257 155.41 266.257 163.166C266.257 170.922 259.985 177.233 252.275 177.233ZM252.275 149.536C244.805 149.536 238.727 155.65 238.727 163.166C238.727 170.682 244.805 176.797 252.275 176.797C259.746 176.797 265.824 170.682 265.824 163.166C265.824 155.65 259.746 149.536 252.275 149.536Z" fill="#3D3D3D"/>
<path d="M251.374 174.106V171.415C249.837 171.388 248.248 170.908 247.321 170.241L247.957 168.456C248.911 169.096 250.288 169.603 251.772 169.603C253.653 169.603 254.924 168.51 254.924 166.991C254.924 165.473 253.89 164.62 251.93 163.82C249.229 162.754 247.559 161.529 247.559 159.21C247.559 156.892 249.122 155.319 251.559 154.92V152.229H253.201V154.814C254.791 154.867 255.876 155.294 256.645 155.747L255.983 157.505C255.426 157.186 254.34 156.599 252.645 156.599C250.605 156.599 249.837 157.826 249.837 158.891C249.837 160.277 250.817 160.97 253.122 161.929C255.85 163.049 257.228 164.435 257.228 166.806C257.228 168.912 255.771 170.884 253.043 171.337V174.109H251.375L251.374 174.106Z" fill="#3D3D3D"/>
</g>
<defs>
<clipPath id="clip0_1287_30385">
<rect width="270" height="181" fill="white"/>
</clipPath>
</defs>
</svg>
