<svg width="245" height="164" viewBox="0 0 245 164" fill="none" xmlns="http://www.w3.org/2000/svg">
<g clip-path="url(#clip0_1287_30898)">
<path d="M244.756 120.725H176.158C176.049 120.725 175.961 120.636 175.961 120.528C175.961 120.419 176.05 120.331 176.158 120.331H244.559V87.4669H176.419C176.31 87.4669 176.223 87.3782 176.223 87.2697V84.8671C176.223 84.7577 176.311 84.6699 176.419 84.6699H244.803C244.912 84.6699 244.999 84.7586 244.999 84.8671C244.999 84.9755 244.911 85.0642 244.803 85.0642H176.615V87.0717H244.756C244.864 87.0717 244.952 87.1604 244.952 87.2688V120.528C244.952 120.637 244.864 120.725 244.756 120.725H244.756Z" fill="#3D3D3D"/>
<path d="M232.959 83.9235L235.717 84.6825C236.032 84.7694 236.358 84.583 236.443 84.2676L244.681 54.1077C244.768 53.7923 244.582 53.4661 244.267 53.38L241.509 52.621C241.194 52.534 240.868 52.7204 240.782 53.0359L232.544 83.1958C232.458 83.5112 232.644 83.8374 232.959 83.9235Z" fill="white"/>
<path d="M235.873 84.9008C235.805 84.9008 235.734 84.8918 235.664 84.8721L232.906 84.113C232.703 84.0575 232.534 83.9257 232.429 83.742C232.325 83.5583 232.298 83.3459 232.354 83.1416L240.593 52.9817C240.708 52.5614 241.142 52.3132 241.562 52.4288L244.32 53.1878C244.523 53.2434 244.692 53.3751 244.797 53.5588C244.901 53.7426 244.928 53.9549 244.872 54.1593L236.634 84.3191C236.538 84.6695 236.22 84.9008 235.873 84.9008ZM233.01 83.7322L235.769 84.4912C235.979 84.5486 236.196 84.4249 236.253 84.2143L244.492 54.0544C244.52 53.9532 244.507 53.8465 244.455 53.7551C244.403 53.6637 244.318 53.5974 244.217 53.5696L241.458 52.8105C241.247 52.7532 241.031 52.8768 240.974 53.0874L232.736 83.2473C232.708 83.3486 232.721 83.4552 232.773 83.5466C232.825 83.6381 232.91 83.7044 233.011 83.7322H233.01Z" fill="#3D3D3D"/>
<path d="M228.794 83.7731L231.552 84.5321C231.867 84.6191 232.193 84.4326 232.279 84.1172L240.517 53.9573C240.603 53.6419 240.418 53.3157 240.103 53.2296L237.344 52.4706C237.029 52.3836 236.703 52.57 236.618 52.8855L228.38 83.0454C228.293 83.3608 228.479 83.687 228.794 83.7731Z" fill="white"/>
<path d="M231.708 84.7501C231.64 84.7501 231.569 84.7411 231.5 84.7214L228.741 83.9623C228.538 83.9068 228.369 83.775 228.265 83.5913C228.161 83.4076 228.134 83.1952 228.19 82.9909L236.428 52.831C236.543 52.4107 236.978 52.1634 237.397 52.2781L240.155 53.0371C240.358 53.0927 240.527 53.2244 240.631 53.4081C240.735 53.5919 240.762 53.8042 240.706 54.0086L232.468 84.1684C232.372 84.5188 232.054 84.7501 231.707 84.7501H231.708ZM228.845 83.5814L231.604 84.3405C231.814 84.3979 232.031 84.2742 232.088 84.0636L240.326 53.9037C240.354 53.8024 240.341 53.6958 240.289 53.6044C240.237 53.513 240.152 53.4467 240.051 53.4189L237.292 52.6598C237.083 52.6025 236.865 52.7261 236.808 52.9367L228.57 83.0966C228.542 83.1979 228.555 83.3045 228.607 83.3959C228.659 83.4873 228.744 83.5537 228.845 83.5814Z" fill="#3D3D3D"/>
<path d="M224.63 83.7731L227.388 84.5321C227.703 84.6191 228.029 84.4326 228.115 84.1172L236.353 53.9573C236.439 53.6419 236.254 53.3157 235.938 53.2296L233.18 52.4706C232.865 52.3836 232.539 52.57 232.454 52.8855L224.216 83.0454C224.129 83.3608 224.315 83.687 224.63 83.7731Z" fill="white"/>
<path d="M227.544 84.7504C227.476 84.7504 227.405 84.7414 227.335 84.7217L224.577 83.9626C224.374 83.9071 224.205 83.7753 224.101 83.5916C223.997 83.4079 223.97 83.1955 224.026 82.9912L232.264 52.8313C232.379 52.411 232.813 52.1628 233.233 52.2784L235.991 53.0374C236.194 53.093 236.363 53.2247 236.467 53.4084C236.571 53.5922 236.598 53.8046 236.542 54.0089L228.304 84.1688C228.208 84.5192 227.89 84.7504 227.543 84.7504H227.544ZM224.681 83.5818L227.44 84.3408C227.65 84.3982 227.867 84.2745 227.924 84.0639L236.162 53.904C236.19 53.8028 236.177 53.6961 236.125 53.6047C236.073 53.5133 235.988 53.447 235.887 53.4192L233.128 52.6601C232.918 52.6028 232.701 52.7265 232.644 52.9371L224.406 83.0969C224.378 83.1982 224.391 83.3048 224.443 83.3963C224.495 83.4877 224.58 83.554 224.681 83.5818Z" fill="#3D3D3D"/>
<path d="M234.892 57.2674C234.876 57.2674 234.859 57.2656 234.843 57.2611L232.254 56.5962C232.149 56.5693 232.086 56.4617 232.113 56.356C232.139 56.2502 232.246 56.1857 232.352 56.2135L234.94 56.8784C235.045 56.9053 235.108 57.0129 235.082 57.1186C235.058 57.2082 234.979 57.2674 234.892 57.2674Z" fill="#3D3D3D"/>
<path d="M234.651 58.2928C234.635 58.2928 234.619 58.291 234.602 58.2865L232.014 57.6215C231.908 57.5947 231.845 57.4871 231.872 57.3814C231.898 57.2756 232.005 57.2111 232.111 57.2389L234.699 57.9038C234.804 57.9307 234.867 58.0383 234.841 58.144C234.818 58.2336 234.738 58.2928 234.651 58.2928Z" fill="#3D3D3D"/>
<path d="M238.901 57.3143C238.885 57.3143 238.869 57.3125 238.852 57.308L236.264 56.643C236.159 56.6161 236.096 56.5086 236.122 56.4029C236.149 56.2971 236.256 56.2326 236.362 56.2604L238.95 56.9253C239.055 56.9522 239.118 57.0597 239.091 57.1655C239.068 57.2551 238.989 57.3143 238.901 57.3143Z" fill="#3D3D3D"/>
<path d="M238.66 58.3416C238.644 58.3416 238.628 58.3398 238.611 58.3353L236.023 57.6704C235.918 57.6435 235.855 57.5359 235.881 57.4302C235.908 57.3245 236.015 57.2599 236.121 57.2877L238.709 57.9527C238.814 57.9796 238.877 58.0871 238.85 58.1928C238.827 58.2825 238.748 58.3416 238.66 58.3416Z" fill="#3D3D3D"/>
<path d="M242.958 57.949C242.942 57.949 242.926 57.9472 242.909 57.9428L240.321 57.2778C240.216 57.2509 240.152 57.1434 240.179 57.0376C240.206 56.9319 240.313 56.8673 240.418 56.8951L243.006 57.5601C243.112 57.587 243.175 57.6945 243.148 57.8003C243.125 57.8899 243.046 57.949 242.958 57.949Z" fill="#3D3D3D"/>
<path d="M242.717 58.9764C242.701 58.9764 242.685 58.9746 242.668 58.9701L240.08 58.3051C239.975 58.2783 239.911 58.1707 239.938 58.065C239.965 57.9592 240.072 57.8947 240.177 57.9225L242.765 58.5874C242.871 58.6143 242.934 58.7219 242.907 58.8276C242.884 58.9172 242.805 58.9764 242.717 58.9764Z" fill="#3D3D3D"/>
<path d="M189.04 120.518H214.031C214.357 120.518 214.622 120.252 214.622 119.924V113.211C214.622 112.883 214.357 112.618 214.031 112.618H189.04C188.714 112.618 188.45 112.883 188.45 113.211V119.924C188.45 120.252 188.714 120.518 189.04 120.518Z" fill="white"/>
<path d="M214.03 120.715H189.04C188.606 120.715 188.252 120.36 188.252 119.924V113.211C188.252 112.775 188.606 112.42 189.04 112.42H214.03C214.465 112.42 214.818 112.775 214.818 113.211V119.924C214.818 120.36 214.465 120.715 214.03 120.715ZM189.04 112.814C188.823 112.814 188.646 112.992 188.646 113.21V119.923C188.646 120.141 188.823 120.319 189.04 120.319H214.03C214.248 120.319 214.425 120.141 214.425 119.923V113.21C214.425 112.992 214.248 112.814 214.03 112.814H189.04Z" fill="#3D3D3D"/>
<path d="M211.09 120.738C210.981 120.738 210.893 120.649 210.893 120.54V112.707C210.893 112.598 210.982 112.51 211.09 112.51C211.198 112.51 211.286 112.598 211.286 112.707V120.54C211.286 120.65 211.198 120.738 211.09 120.738Z" fill="#3D3D3D"/>
<path d="M207.981 120.738C207.872 120.738 207.785 120.649 207.785 120.54V112.707C207.785 112.598 207.873 112.51 207.981 112.51C208.089 112.51 208.178 112.598 208.178 112.707V120.54C208.178 120.65 208.089 120.738 207.981 120.738Z" fill="#3D3D3D"/>
<path d="M206.254 120.738C206.146 120.738 206.058 120.649 206.058 120.54V112.707C206.058 112.598 206.146 112.51 206.254 112.51C206.362 112.51 206.451 112.598 206.451 112.707V120.54C206.451 120.65 206.362 120.738 206.254 120.738Z" fill="#3D3D3D"/>
<path d="M180.369 112.619H209.071C209.397 112.619 209.662 112.354 209.662 112.026V108.203C209.662 107.875 209.397 107.61 209.071 107.61H180.369C180.043 107.61 179.778 107.875 179.778 108.203V112.026C179.778 112.354 180.043 112.619 180.369 112.619Z" fill="white"/>
<path d="M209.07 112.817H180.369C179.934 112.817 179.581 112.462 179.581 112.026V108.203C179.581 107.767 179.934 107.412 180.369 107.412H209.07C209.505 107.412 209.858 107.767 209.858 108.203V112.026C209.858 112.462 209.505 112.817 209.07 112.817ZM180.369 107.807C180.151 107.807 179.974 107.985 179.974 108.203V112.026C179.974 112.244 180.151 112.422 180.369 112.422H209.07C209.288 112.422 209.465 112.244 209.465 112.026V108.203C209.465 107.985 209.288 107.807 209.07 107.807H180.369Z" fill="#3D3D3D"/>
<path d="M205.011 110.408H183.671C183.562 110.408 183.474 110.319 183.474 110.211C183.474 110.102 183.563 110.014 183.671 110.014H205.011C205.12 110.014 205.208 110.102 205.208 110.211C205.208 110.319 205.119 110.408 205.011 110.408Z" fill="#3D3D3D"/>
<path d="M183.671 112.764C183.562 112.764 183.474 112.676 183.474 112.567V107.853C183.474 107.744 183.563 107.656 183.671 107.656C183.779 107.656 183.867 107.745 183.867 107.853V112.567C183.867 112.677 183.779 112.764 183.671 112.764Z" fill="#3D3D3D"/>
<path d="M182.428 112.764C182.319 112.764 182.231 112.676 182.231 112.567V107.853C182.231 107.744 182.32 107.656 182.428 107.656C182.536 107.656 182.624 107.745 182.624 107.853V112.567C182.624 112.677 182.536 112.764 182.428 112.764Z" fill="#3D3D3D"/>
<path d="M206.25 112.764C206.141 112.764 206.053 112.676 206.053 112.567V107.853C206.053 107.744 206.142 107.656 206.25 107.656C206.358 107.656 206.446 107.745 206.446 107.853V112.567C206.446 112.677 206.358 112.764 206.25 112.764Z" fill="#3D3D3D"/>
<path d="M205.007 112.764C204.898 112.764 204.811 112.676 204.811 112.567V107.853C204.811 107.744 204.899 107.656 205.007 107.656C205.115 107.656 205.203 107.745 205.203 107.853V112.567C205.203 112.677 205.115 112.764 205.007 112.764Z" fill="#3D3D3D"/>
<path d="M219.686 80.3379H190.212C189.999 80.3379 189.827 80.5112 189.827 80.725V84.4773C189.827 84.6911 189.999 84.8645 190.212 84.8645H219.686C219.899 84.8645 220.071 84.6911 220.071 84.4773V80.725C220.071 80.5112 219.899 80.3379 219.686 80.3379Z" fill="white"/>
<path d="M219.686 85.0624H190.212C189.89 85.0624 189.63 84.7998 189.63 84.4781V80.7249C189.63 80.4023 189.891 80.1406 190.212 80.1406H219.686C220.007 80.1406 220.267 80.4032 220.267 80.7249V84.4781C220.267 84.8007 220.007 85.0624 219.686 85.0624ZM190.212 80.5358C190.108 80.5358 190.023 80.621 190.023 80.7249V84.4781C190.023 84.5821 190.108 84.6672 190.212 84.6672H219.686C219.789 84.6672 219.874 84.5821 219.874 84.4781V80.7249C219.874 80.621 219.789 80.5358 219.686 80.5358H190.212Z" fill="#3D3D3D"/>
<path d="M221.768 77.5078H192.107C191.946 77.5078 191.815 77.639 191.815 77.8009V79.8101C191.815 79.9719 191.946 80.1031 192.107 80.1031H221.768C221.929 80.1031 222.059 79.9719 222.059 79.8101V77.8009C222.059 77.639 221.929 77.5078 221.768 77.5078Z" fill="#3D3D3D"/>
<path d="M220.755 74.6699H191.094C190.933 74.6699 190.802 74.8011 190.802 74.963V76.9722C190.802 77.134 190.933 77.2652 191.094 77.2652H220.755C220.916 77.2652 221.047 77.134 221.047 76.9722V74.963C221.047 74.8011 220.916 74.6699 220.755 74.6699Z" fill="white"/>
<path d="M220.756 77.4642H191.094C190.825 77.4642 190.606 77.2447 190.606 76.974V74.9648C190.606 74.6942 190.825 74.4746 191.094 74.4746H220.756C221.025 74.4746 221.244 74.6942 221.244 74.9648V76.974C221.244 77.2447 221.025 77.4642 220.756 77.4642ZM191.094 74.8689C191.041 74.8689 191 74.9119 191 74.9639V76.9731C191 77.026 191.042 77.0681 191.094 77.0681H220.756C220.808 77.0681 220.85 77.0251 220.85 76.9731V74.9639C220.85 74.911 220.807 74.8689 220.756 74.8689H191.094Z" fill="#3D3D3D"/>
<path d="M188.42 74.6816H213.068C213.292 74.6816 213.473 74.4999 213.473 74.2757V69.5869C213.473 69.3627 213.292 69.1809 213.068 69.1809H188.42C188.196 69.1809 188.015 69.3627 188.015 69.5869V74.2757C188.015 74.4999 188.196 74.6816 188.42 74.6816Z" fill="white"/>
<path d="M213.068 74.8784H188.419C188.088 74.8784 187.818 74.6077 187.818 74.2752V69.5855C187.818 69.2531 188.088 68.9824 188.419 68.9824H213.068C213.399 68.9824 213.669 69.2531 213.669 69.5855V74.2752C213.669 74.6077 213.399 74.8784 213.068 74.8784ZM188.419 69.3776C188.304 69.3776 188.212 69.4708 188.212 69.5855V74.2752C188.212 74.3899 188.304 74.4831 188.419 74.4831H213.068C213.183 74.4831 213.275 74.3899 213.275 74.2752V69.5855C213.275 69.4708 213.183 69.3776 213.068 69.3776H188.419Z" fill="#3D3D3D"/>
<path d="M187.064 68.9512H211.713C211.936 68.9512 212.117 68.7694 212.117 68.5452V63.8564C212.117 63.6322 211.936 63.4504 211.713 63.4504H187.064C186.841 63.4504 186.66 63.6322 186.66 63.8564V68.5452C186.66 68.7694 186.841 68.9512 187.064 68.9512Z" fill="#3D3D3D"/>
<path d="M235.169 120.746C235.101 120.746 235.035 120.71 234.999 120.647L233.088 117.322C233.034 117.227 233.066 117.107 233.16 117.052C233.254 116.997 233.374 117.03 233.429 117.125L235.34 120.45C235.394 120.545 235.362 120.665 235.267 120.72C235.236 120.738 235.202 120.746 235.169 120.746Z" fill="#3D3D3D"/>
<path d="M221.602 120.746C221.569 120.746 221.536 120.738 221.504 120.72C221.41 120.665 221.378 120.544 221.432 120.45L223.342 117.125C223.396 117.03 223.517 116.997 223.61 117.052C223.705 117.107 223.737 117.228 223.683 117.322L221.773 120.647C221.736 120.711 221.67 120.746 221.602 120.746Z" fill="#3D3D3D"/>
<path d="M235.53 105.573C237.593 105.573 239.265 103.895 239.265 101.824C239.265 99.753 237.593 98.0742 235.53 98.0742C233.466 98.0742 231.794 99.753 231.794 101.824C231.794 103.895 233.466 105.573 235.53 105.573Z" fill="white"/>
<path d="M235.53 105.772C233.361 105.772 231.597 104.001 231.597 101.825C231.597 99.6478 233.361 97.877 235.53 97.877C237.698 97.877 239.463 99.6478 239.463 101.825C239.463 104.001 237.698 105.772 235.53 105.772ZM235.53 98.2722C233.578 98.2722 231.99 99.8656 231.99 101.825C231.99 103.784 233.578 105.377 235.53 105.377C237.481 105.377 239.069 103.784 239.069 101.825C239.069 99.8656 237.481 98.2722 235.53 98.2722Z" fill="#3D3D3D"/>
<path d="M238.223 99.2656C238.169 99.2656 238.117 99.244 238.077 99.201C238.004 99.1204 238.01 98.9958 238.09 98.9223L238.712 98.3506C238.792 98.2771 238.916 98.2824 238.989 98.3631C239.063 98.4438 239.057 98.5683 238.977 98.6418L238.355 99.2136C238.317 99.2485 238.269 99.2656 238.222 99.2656H238.223Z" fill="#3D3D3D"/>
<path d="M221.105 105.573C223.168 105.573 224.84 103.895 224.84 101.824C224.84 99.753 223.168 98.0742 221.105 98.0742C219.041 98.0742 217.369 99.753 217.369 101.824C217.369 103.895 219.041 105.573 221.105 105.573Z" fill="white"/>
<path d="M221.105 105.772C218.936 105.772 217.172 104.001 217.172 101.825C217.172 99.6478 218.936 97.877 221.105 97.877C223.273 97.877 225.037 99.6478 225.037 101.825C225.037 104.001 223.273 105.772 221.105 105.772ZM221.105 98.2722C219.153 98.2722 217.565 99.8656 217.565 101.825C217.565 103.784 219.153 105.377 221.105 105.377C223.056 105.377 224.644 103.784 224.644 101.825C224.644 99.8656 223.056 98.2722 221.105 98.2722Z" fill="#3D3D3D"/>
<path d="M218.359 99.3187C218.306 99.3187 218.253 99.2972 218.214 99.2551L217.644 98.6313C217.57 98.5507 217.576 98.4261 217.655 98.3526C217.736 98.2791 217.86 98.2845 217.933 98.3643L218.503 98.988C218.576 99.0687 218.571 99.1932 218.491 99.2667C218.454 99.3017 218.406 99.3187 218.358 99.3187H218.359Z" fill="#3D3D3D"/>
<path d="M228.386 118.388C233.981 118.388 238.518 113.835 238.518 108.219C238.518 102.602 233.981 98.0488 228.386 98.0488C222.79 98.0488 218.254 102.602 218.254 108.219C218.254 113.835 222.79 118.388 228.386 118.388Z" fill="#00CB82"/>
<path d="M228.386 115.792C232.553 115.792 235.931 112.401 235.931 108.218C235.931 104.035 232.553 100.645 228.386 100.645C224.219 100.645 220.84 104.035 220.84 108.218C220.84 112.401 224.219 115.792 228.386 115.792Z" fill="white"/>
<path d="M228.355 109.352C228.942 109.352 229.417 108.874 229.417 108.285C229.417 107.696 228.942 107.219 228.355 107.219C227.769 107.219 227.293 107.696 227.293 108.285C227.293 108.874 227.769 109.352 228.355 109.352Z" fill="white"/>
<path d="M228.355 109.549C227.661 109.549 227.096 108.981 227.096 108.285C227.096 107.589 227.661 107.021 228.355 107.021C229.05 107.021 229.615 107.589 229.615 108.285C229.615 108.981 229.05 109.549 228.355 109.549ZM228.355 107.417C227.878 107.417 227.49 107.807 227.49 108.285C227.49 108.764 227.878 109.153 228.355 109.153C228.833 109.153 229.221 108.764 229.221 108.285C229.221 107.807 228.833 107.417 228.355 107.417Z" fill="#3D3D3D"/>
<path d="M228.226 112.511C228.117 112.511 228.03 112.423 228.03 112.314V109.351C228.03 109.242 228.118 109.154 228.226 109.154C228.334 109.154 228.422 109.243 228.422 109.351V112.314C228.422 112.424 228.334 112.511 228.226 112.511Z" fill="#3D3D3D"/>
<path d="M227.864 107.573C227.792 107.573 227.723 107.533 227.688 107.464L225.357 102.837C225.308 102.74 225.346 102.621 225.444 102.572C225.541 102.523 225.659 102.562 225.708 102.659L228.039 107.286C228.088 107.384 228.049 107.502 227.952 107.551C227.924 107.566 227.893 107.573 227.864 107.573Z" fill="#3D3D3D"/>
<path d="M127.136 3.5053L23.0098 3.99805L23.5954 128.795L127.721 128.303L127.136 3.5053Z" fill="white"/>
<path d="M23.5983 128.992C23.4903 128.992 23.402 128.905 23.402 128.796L22.813 3.99849C22.813 3.94651 22.8335 3.89543 22.8701 3.85868C22.9067 3.82104 22.9567 3.80043 23.0093 3.80043L127.136 3.30664H127.137C127.245 3.30664 127.333 3.39447 127.333 3.5029L127.922 128.301C127.922 128.354 127.901 128.404 127.865 128.44C127.828 128.478 127.778 128.499 127.726 128.499L23.5992 128.992H23.5983ZM23.2074 4.19385L23.7947 128.596L127.527 128.104L126.94 3.70185L23.2074 4.19385Z" fill="#3D3D3D"/>
<path d="M23.2093 46.5511C23.1013 46.5511 23.0129 46.4633 23.0129 46.3549C23.0129 46.2455 23.1004 46.1568 23.2084 46.1559L127.335 45.6621H127.336C127.444 45.6621 127.532 45.7499 127.532 45.8584C127.532 45.9677 127.444 46.0564 127.336 46.0573L23.2102 46.5511H23.2093Z" fill="#3D3D3D"/>
<path d="M23.4039 87.8734C23.2959 87.8734 23.2075 87.7856 23.2075 87.6771C23.2075 87.5678 23.295 87.4791 23.403 87.4782L127.529 86.9844H127.53C127.638 86.9844 127.726 87.0722 127.726 87.1806C127.726 87.29 127.639 87.3787 127.531 87.3796L23.4047 87.8734H23.4039Z" fill="#3D3D3D"/>
<path d="M93.3583 128.662C93.2504 128.662 93.162 128.574 93.162 128.465L92.573 3.6677C92.573 3.55837 92.6605 3.46965 92.7684 3.46875H92.7693C92.8773 3.46875 92.9657 3.55658 92.9657 3.66501L93.5547 128.463C93.5547 128.572 93.4672 128.661 93.3592 128.662H93.3583Z" fill="#3D3D3D"/>
<path d="M56.8429 128.836C56.735 128.836 56.6466 128.748 56.6466 128.639L56.0576 3.84153C56.0576 3.7322 56.1451 3.64347 56.2531 3.64258H56.2539C56.3619 3.64258 56.4503 3.7304 56.4503 3.83884L57.0393 128.637C57.0393 128.746 56.9518 128.835 56.8438 128.836H56.8429Z" fill="#3D3D3D"/>
<path d="M39.9233 0C38.1804 1.9205 35.7298 2.26553 34.9427 2.26911C34.3394 2.2718 31.7237 2.05314 29.9433 0.0501858C29.9433 0.0501858 29.9433 0.0483934 29.9433 0.0474973C29.9433 0.0474973 29.9433 0.0474973 29.9425 0.0483934C29.9425 0.0483934 29.9425 0.0483934 29.9416 0.0474973C29.9416 0.0474973 29.9416 0.0492896 29.9416 0.0501858C28.1987 1.968 25.7498 2.31303 24.9636 2.31661C24.3603 2.3193 21.7438 2.09974 19.9643 0.0967869C19.9643 0.0958907 19.9643 0.0940984 19.9643 0.0932022C19.9643 0.0932022 19.9634 0.0940984 19.9625 0.0949945C18.2196 2.01371 15.7708 2.35873 14.9836 2.36232C14.3804 2.36501 11.7647 2.14544 9.98427 0.143388C9.98427 0.143388 9.98427 0.141596 9.98427 0.140699C9.98427 0.140699 9.98427 0.140699 9.98338 0.141596C9.98338 0.141596 9.98338 0.141596 9.98249 0.140699C9.98249 0.140699 9.98249 0.142492 9.98249 0.143388C8.23958 2.0612 5.79077 2.40623 5.00455 2.40981C4.3977 2.4125 1.77932 2.19294 -0.000170461 0.188197C-0.00195531 0.526055 0.0292795 156.199 0.0292795 156.199C3.94078 156.222 34.6777 156.397 40.8577 156.014L39.9992 3.35169C39.9974 3.05865 39.9644 0.281399 39.9233 0.000896175V0Z" fill="#3D3D3D"/>
<path d="M30.9742 145.102C30.8662 145.102 30.7779 145.015 30.7779 144.906L30.1255 6.60129C30.1255 6.49196 30.2129 6.40324 30.3209 6.40234H30.3218C30.4298 6.40234 30.5182 6.49017 30.5182 6.59861L31.1705 144.903C31.1705 145.013 31.0831 145.102 30.9751 145.102H30.9742Z" fill="white"/>
<path d="M20.9103 155.109C20.8024 155.109 20.714 155.021 20.714 154.913L20.0732 19.0974C20.0732 18.9881 20.1607 18.8993 20.2687 18.8984H20.2696C20.3776 18.8984 20.4659 18.9863 20.4659 19.0947L21.1067 154.91C21.1067 155.019 21.0192 155.108 20.9112 155.109H20.9103Z" fill="white"/>
<path d="M10.5742 155.157C10.4662 155.157 10.3779 155.07 10.3779 154.961L9.67822 6.69895C9.67822 6.58962 9.76568 6.5009 9.87366 6.5H9.87456C9.98254 6.5 10.0709 6.58783 10.0709 6.69626L10.7706 154.959C10.7706 155.068 10.6831 155.157 10.5751 155.157H10.5742Z" fill="white"/>
<path d="M124.915 156.372C124.806 156.372 124.718 156.283 124.718 156.175C124.718 156.066 124.806 155.977 124.914 155.977L176.265 155.955C176.374 155.955 176.463 156.044 176.463 156.152C176.463 156.261 176.374 156.35 176.266 156.35L124.915 156.372Z" fill="#3D3D3D"/>
<path d="M0.30522 156.419C0.196344 156.419 0.108887 156.331 0.108887 156.222C0.108887 156.114 0.197237 156.024 0.30522 156.024L41.8886 155.977C41.9975 155.977 42.085 156.064 42.085 156.174C42.085 156.283 41.9966 156.372 41.8886 156.372L0.30522 156.419Z" fill="#3D3D3D"/>
<path d="M33.1921 53.4698C29.9436 53.399 26.7318 53.0961 23.5316 52.5405C20.5062 52.0154 17.5023 51.3701 14.5306 50.6003C13.5926 50.3574 12.6583 50.0984 11.7266 49.8314C15.8728 40.7594 19.9663 34.1877 19.9663 34.1877C19.9663 34.1877 16.9053 32.899 17.2596 29.1082C17.6148 25.3183 18.8954 22.9632 22.0216 24.7689C22.0216 24.7689 22.8024 18.9196 27.3137 20.7326C27.3137 20.7326 30.5415 14.5006 34.4468 22.2928C34.4468 22.2928 38.0986 16.3082 40.9847 23.1021C42.2716 26.132 42.8445 28.8017 42.4875 33.6016C42.3216 35.834 39.8165 45.5342 37.2686 54.3481C35.8827 54.3606 34.5762 53.4985 33.1903 53.4689L33.1921 53.4698Z" fill="white"/>
<path d="M37.2401 54.5458C36.5101 54.5458 35.8042 54.3173 35.1215 54.0968C34.4602 53.8827 33.8346 53.681 33.1876 53.6667C29.9133 53.5959 26.6533 53.2822 23.4977 52.7338C20.4509 52.205 17.4176 51.5508 14.4815 50.79C13.6373 50.5713 12.719 50.3195 11.673 50.0192C11.6177 50.0031 11.5722 49.9646 11.5481 49.9117C11.524 49.8597 11.524 49.7988 11.5481 49.7468C15.2704 41.6006 18.9963 35.3955 19.687 34.2645C18.9882 33.8827 16.7554 32.3915 17.0651 29.0864C17.3158 26.4113 18.0057 24.7623 19.1168 24.1852C19.8637 23.7972 20.7909 23.8895 21.8761 24.4585C22.0261 23.6807 22.574 21.5155 24.142 20.596C25.013 20.0861 26.05 20.0485 27.2271 20.4831C27.5448 19.9382 28.705 18.1719 30.3872 18.1719C30.3925 18.1719 30.3979 18.1719 30.4032 18.1719C31.8133 18.1817 33.1805 19.4355 34.47 21.9009C34.9546 21.2126 36.3049 19.5448 37.9228 19.6631C39.1678 19.7545 40.2592 20.8846 41.1668 23.022C42.4099 25.9471 43.056 28.6186 42.6848 33.6139C42.5081 35.9825 39.8603 46.0913 37.4588 54.4006C37.4347 54.484 37.3588 54.5422 37.2714 54.5431C37.2606 54.5431 37.2499 54.5431 37.2392 54.5431L37.2401 54.5458ZM33.1965 53.2715C33.9016 53.2867 34.5834 53.5072 35.2429 53.7204C35.8863 53.9284 36.4967 54.1264 37.1232 54.1488C39.5408 45.7723 42.1261 35.8301 42.293 33.587C42.6589 28.6715 42.0244 26.0484 40.8053 23.1797C39.9602 21.1893 38.9803 20.1399 37.8943 20.0601C36.1406 19.9302 34.6307 22.3714 34.6164 22.3955C34.5789 22.4565 34.512 22.4932 34.4406 22.4896C34.3692 22.487 34.3049 22.4448 34.2728 22.3812C33.01 19.8612 31.7071 18.5787 30.4015 18.5698C30.397 18.5698 30.3925 18.5698 30.3881 18.5698C28.6773 18.5698 27.5029 20.8004 27.4904 20.8228C27.444 20.9133 27.3369 20.9527 27.2423 20.9151C26.1169 20.4625 25.1406 20.4706 24.341 20.9393C22.6195 21.9475 22.2224 24.7659 22.2179 24.7946C22.209 24.86 22.1688 24.9165 22.1099 24.9452C22.051 24.9738 21.9814 24.972 21.9252 24.9389C20.857 24.3223 19.9735 24.187 19.297 24.5383C18.3127 25.0491 17.6942 26.5932 17.4568 29.1249C17.1195 32.7293 20.0145 33.9912 20.0431 34.0037C20.0966 34.0261 20.1368 34.0709 20.1546 34.1265C20.1725 34.182 20.1645 34.2421 20.1341 34.2914C20.094 34.3568 16.062 40.855 12.0015 49.7038C12.9537 49.9753 13.7988 50.2065 14.5797 50.4082C17.5059 51.1654 20.5286 51.8179 23.5646 52.3448C26.7006 52.8897 29.9401 53.2016 33.1956 53.2715H33.1965Z" fill="#3D3D3D"/>
<path d="M35.6212 42.0662C35.6043 42.0662 35.5864 42.0635 35.5695 42.0591C33.4589 41.481 31.7927 39.5641 31.517 37.3972C31.4358 36.7564 31.4652 36.0977 31.4938 35.4596C31.5402 34.4219 31.5848 33.4415 31.185 32.5533C30.9548 32.0407 30.596 31.6079 30.2167 31.1499C30.0579 30.9581 29.8928 30.7592 29.7402 30.5558C29.0646 29.656 28.8112 28.8172 28.9879 28.0644C29.2172 27.0876 30.1605 26.4746 30.994 26.3007C31.9239 26.1063 32.8583 26.3097 33.649 26.5328C36.6823 27.3914 39.5051 29.1604 41.596 31.5129C41.6683 31.5944 41.6612 31.719 41.58 31.7916C41.4988 31.8642 41.3747 31.857 41.3024 31.7755C39.2606 29.4786 36.5047 27.7516 33.5428 26.9128C32.7976 26.7013 31.9213 26.5104 31.0743 26.687C30.3631 26.8357 29.5617 27.3475 29.3716 28.1549C29.186 28.9436 29.6411 29.7662 30.0552 30.3174C30.2024 30.5136 30.364 30.7081 30.5202 30.8972C30.9003 31.3552 31.293 31.8292 31.5455 32.3911C31.9837 33.3653 31.9355 34.4398 31.8882 35.4776C31.8606 36.0986 31.8311 36.7403 31.9088 37.347C32.1649 39.3589 33.7132 41.1396 35.6739 41.6773C35.7783 41.706 35.8408 41.8144 35.8122 41.9202C35.7881 42.008 35.7087 42.0653 35.6221 42.0662H35.6212Z" fill="#3D3D3D"/>
<path d="M29.376 34.4155C28.6219 34.4155 27.8348 34.0086 27.2851 33.324C26.7184 32.6187 26.4524 31.7359 26.2838 31.045C25.4922 27.8017 25.8144 24.338 27.1914 21.2919C27.236 21.1924 27.3529 21.1485 27.4519 21.1933C27.551 21.2381 27.5947 21.3555 27.5501 21.455C26.2097 24.4205 25.8956 27.7928 26.6666 30.9509C26.8255 31.6015 27.0745 32.4314 27.5921 33.0757C28.1043 33.7138 28.8441 34.0741 29.5215 34.014C30.2693 33.9486 30.9003 33.306 30.8717 32.6384C30.8673 32.529 30.9511 32.4367 31.06 32.4323C31.1716 32.4296 31.2608 32.512 31.2653 32.6214C31.3028 33.4897 30.504 34.3241 29.5563 34.4074C29.4974 34.4128 29.4376 34.4155 29.3778 34.4155H29.376Z" fill="#3D3D3D"/>
<path d="M25.5057 34.4535C24.7454 34.4535 23.9592 34.2106 23.3193 33.7213C22.2091 32.8735 21.5193 31.4065 21.4283 29.6966C21.347 28.1847 21.7013 26.7069 22.0431 25.2784C22.069 25.1718 22.1761 25.1073 22.2805 25.1324C22.3858 25.1575 22.451 25.2641 22.426 25.3707C22.0904 26.7724 21.7442 28.2215 21.8218 29.676C21.9066 31.2694 22.5402 32.6298 23.5585 33.4076C24.7284 34.3011 26.433 34.2796 27.3584 33.3583C27.4352 33.2813 27.5601 33.2822 27.6369 33.3601C27.7136 33.4372 27.7127 33.5627 27.6351 33.6397C27.0898 34.1819 26.3125 34.4553 25.5066 34.4553L25.5057 34.4535Z" fill="#3D3D3D"/>
<path d="M21.0309 34.2742C20.7784 34.2742 20.5267 34.2303 20.2902 34.1371C20.1894 34.0977 20.1394 33.983 20.1787 33.8808C20.2179 33.7795 20.3322 33.7294 20.4339 33.7688C21.172 34.0591 22.0903 33.767 22.5249 33.1047C22.5847 33.0133 22.7069 32.9882 22.7971 33.0483C22.8881 33.1083 22.9131 33.2311 22.8533 33.3216C22.4597 33.9211 21.7431 34.2733 21.0309 34.2733V34.2742Z" fill="#3D3D3D"/>
<path d="M33.2795 26.875C33.1751 26.875 33.0885 26.7926 33.0832 26.6868C33.0073 25.0692 33.4758 23.4445 34.4004 22.1119C34.4628 22.0222 34.5851 22.0007 34.6743 22.0626C34.7636 22.1253 34.785 22.2481 34.7234 22.3377C33.848 23.5986 33.4044 25.1365 33.4758 26.668C33.4812 26.7773 33.3973 26.8697 33.2884 26.875C33.2848 26.875 33.2822 26.875 33.2786 26.875H33.2795Z" fill="#3D3D3D"/>
<path d="M36.5181 73.7617L39.264 57.2129C39.4987 55.7961 38.6277 54.4303 37.2463 54.0485L12.7671 47.2385C11.4382 46.8693 10.0496 47.5737 9.55612 48.8642C6.85921 55.9197 -0.48544 77.9065 6.36927 92.5831C13.0482 106.883 52.3845 109.032 52.3845 109.032L41.9253 156.188L124.765 156.13L128.938 123.421C128.938 123.421 167.14 153.791 181.659 133.557C193.03 117.712 160.299 85.645 160.299 85.645L141.079 100.645L131.476 85.7857C131.476 85.7857 129.417 85.9479 85.2293 78.7561C69.5949 76.2109 36.5172 73.7626 36.5172 73.7626L36.5181 73.7617Z" fill="#00CB82"/>
<path d="M52.4897 108.777C52.4763 108.777 52.4629 108.776 52.4495 108.773C52.3433 108.75 52.2746 108.646 52.2969 108.539L53.234 103.98C53.2563 103.873 53.3589 103.803 53.4669 103.827C53.5731 103.849 53.6418 103.953 53.6195 104.061L52.6825 108.619C52.6628 108.713 52.5816 108.777 52.4897 108.777Z" fill="#3D3D3D"/>
<path d="M156.913 126.502C156.853 126.502 156.794 126.474 156.755 126.422L140.73 104.712C140.665 104.624 140.684 104.5 140.771 104.436C140.859 104.37 140.982 104.389 141.046 104.477L157.071 126.187C157.136 126.275 157.118 126.399 157.03 126.464C156.994 126.489 156.953 126.502 156.913 126.502Z" fill="#3D3D3D"/>
<path d="M12.4573 47.7129L14.633 42.748C14.633 42.748 20.8827 46.1356 25.8356 47.6663C32.3271 49.6728 38.7053 50.7052 38.7053 50.7052L36.6223 56.5751L12.4573 47.7129Z" fill="#00CB82"/>
<path d="M36.6911 54.3133C36.5912 54.3133 26.5193 54.1906 13.6184 47.61C13.5211 47.5607 13.4828 47.4415 13.5318 47.3447C13.5809 47.247 13.6996 47.2085 13.796 47.2578C26.6148 53.7962 36.593 53.9181 36.692 53.9181C36.8009 53.9181 36.8884 54.0077 36.8884 54.1162C36.8884 54.2246 36.8 54.3133 36.692 54.3133H36.6911Z" fill="#3D3D3D"/>
<path d="M85.2945 64.3438C76.912 65.4443 72.3767 68.977 71.221 72.3664C70.5115 74.4464 70.8087 77.9639 77.1735 80.9768C83.5382 83.9898 95.6752 87.3692 95.6752 87.3692C95.6752 87.3692 109.451 86.7491 116.085 84.7408C122.719 82.7333 122.778 78.4899 122.296 76.3185C121.512 72.7786 117.368 68.6213 109.195 66.1944C109.195 66.1944 96.1188 62.9234 85.2945 64.3438Z" fill="white"/>
<path d="M72.0322 77.2156C71.9697 77.2156 71.9081 77.186 71.8698 77.1305C70.5365 75.1929 70.7176 73.4355 71.1041 72.3028C72.1893 69.1213 76.4979 65.309 85.3382 64.1485C96.0741 62.7397 109.181 65.9704 109.312 66.0036C119.127 68.9179 121.321 74.3541 121.809 76.556C121.832 76.6627 121.766 76.7684 121.66 76.7917C121.553 76.815 121.448 76.7478 121.425 76.642C120.952 74.5083 118.816 69.2379 109.21 66.3853C109.087 66.3549 96.0518 63.1421 85.39 64.541C76.7281 65.6782 72.5239 69.3624 71.4771 72.4318C71.1201 73.4785 70.955 75.1051 72.1946 76.9073C72.2562 76.9969 72.2339 77.1197 72.1446 77.1824C72.1107 77.2057 72.0715 77.2174 72.0331 77.2174L72.0322 77.2156Z" fill="#3D3D3D"/>
<path d="M90.0715 114.264C90.0662 114.264 90.0608 114.264 90.0554 114.264C89.9475 114.255 89.8663 114.16 89.8752 114.051L92.2615 83.8045C92.2704 83.6961 92.365 83.6163 92.473 83.6235C92.581 83.6325 92.6622 83.7275 92.6533 83.8359L90.267 114.083C90.2589 114.186 90.1724 114.265 90.0706 114.265L90.0715 114.264Z" fill="#3D3D3D"/>
<path d="M90.3877 109.366L90.5122 109.376C91.0158 109.416 91.3919 109.858 91.3522 110.364L90.9891 114.986C90.9494 115.492 90.5088 115.87 90.0053 115.83L89.8807 115.82C89.3781 115.78 89.001 115.338 89.0408 114.832L89.4039 110.209C89.4435 109.704 89.8842 109.325 90.3877 109.365L90.3877 109.366Z" fill="white"/>
<path d="M98.165 107.356C98.1597 107.356 98.1543 107.356 98.149 107.356C98.041 107.347 97.9598 107.252 97.9687 107.143L99.8098 83.8124C99.8187 83.704 99.9133 83.6233 100.021 83.6314C100.129 83.6404 100.21 83.7354 100.202 83.8438L98.3605 107.175C98.3524 107.278 98.2659 107.357 98.1641 107.357L98.165 107.356Z" fill="#3D3D3D"/>
<path d="M98.4722 102.463L98.5968 102.473C99.0994 102.513 99.4765 102.955 99.4367 103.461L99.0736 108.084C99.0339 108.59 98.5933 108.967 98.0898 108.928L97.9652 108.918C97.4616 108.878 97.0855 108.435 97.1252 107.93L97.4883 103.307C97.528 102.802 97.9686 102.424 98.4721 102.464L98.4722 102.463Z" fill="white"/>
<path d="M96.8495 81.457C96.7558 81.457 96.6728 81.3898 96.6558 81.2939C96.6371 81.1864 96.7076 81.0842 96.8147 81.0645C96.8718 81.0537 102.614 79.9801 106.686 75.8649C106.763 75.7878 106.887 75.7869 106.964 75.864C107.041 75.9411 107.042 76.0656 106.965 76.1436C102.803 80.3502 96.9432 81.4436 96.8843 81.4543C96.8727 81.4561 96.8611 81.457 96.8495 81.457Z" fill="#3D3D3D"/>
<path d="M96.8264 81.4812C96.8023 81.4812 96.7773 81.4767 96.7541 81.4669C96.3998 81.3253 88.0351 77.9449 85.0196 73.2938C84.9607 73.2023 84.9857 73.0796 85.0767 73.0204C85.1678 72.9604 85.29 72.9873 85.3489 73.0778C88.2966 77.6232 96.8139 81.0645 96.8996 81.0994C97.0004 81.1398 97.0495 81.2545 97.0094 81.3557C96.979 81.4328 96.9049 81.4803 96.8264 81.4803V81.4812Z" fill="#3D3D3D"/>
<path d="M106.224 117.548L147.305 117.584L166.426 64.6071L125.344 64.5703L106.224 117.548Z" fill="white"/>
<path d="M153.926 99.4359C153.904 99.4359 153.882 99.4323 153.859 99.4242C153.758 99.3875 153.704 99.2737 153.742 99.1715L166.146 64.805L125.482 64.7683L118.561 83.8353C118.524 83.9383 118.411 83.9912 118.309 83.9536C118.207 83.9159 118.154 83.803 118.191 83.7L125.159 64.503C125.188 64.425 125.261 64.373 125.344 64.373L166.426 64.4098C166.49 64.4098 166.55 64.4412 166.586 64.494C166.623 64.5469 166.632 64.6141 166.61 64.6751L154.111 99.3059C154.083 99.3866 154.007 99.4359 153.926 99.4359Z" fill="#3D3D3D"/>
<path d="M160.133 72.0937L143.467 72.0749C143.358 72.0749 143.271 71.9862 143.271 71.8768C143.271 71.7675 143.359 71.6797 143.467 71.6797L160.133 71.6985C160.242 71.6985 160.329 71.7872 160.329 71.8966C160.329 72.0059 160.241 72.0937 160.133 72.0937Z" fill="#3D3D3D"/>
<path d="M157.309 77.2675L140.643 77.2487C140.534 77.2487 140.446 77.16 140.446 77.0507C140.446 76.9413 140.535 76.8535 140.643 76.8535L157.309 76.8723C157.418 76.8723 157.505 76.9611 157.505 77.0704C157.505 77.1797 157.417 77.2675 157.309 77.2675Z" fill="#3D3D3D"/>
<path d="M155.9 82.3465L139.197 82.2937C139.088 82.2937 139 82.2049 139 82.0956C139 81.9863 139.089 81.8984 139.197 81.8984L155.9 81.9513C156.009 81.9513 156.097 82.04 156.097 82.1494C156.097 82.2587 156.008 82.3465 155.9 82.3465Z" fill="#3D3D3D"/>
<path d="M153.919 87.5459L121.223 87.5163C121.115 87.5163 121.027 87.4276 121.027 87.3183C121.027 87.2089 121.115 87.1211 121.223 87.1211L153.919 87.1507C154.028 87.1507 154.116 87.2394 154.116 87.3487C154.116 87.4581 154.027 87.5459 153.919 87.5459Z" fill="#3D3D3D"/>
<path d="M152.808 93.6006L120.112 93.571C120.003 93.571 119.916 93.4823 119.916 93.3729C119.916 93.2636 120.004 93.1758 120.112 93.1758L152.808 93.2054C152.917 93.2054 153.004 93.2941 153.004 93.4034C153.004 93.5127 152.916 93.6006 152.808 93.6006Z" fill="#3D3D3D"/>
<path d="M127.84 99.3475L118.171 99.3386C118.063 99.3386 117.975 99.2498 117.975 99.1405C117.975 99.0312 118.063 98.9434 118.171 98.9434L127.84 98.9523C127.949 98.9523 128.036 99.041 128.036 99.1504C128.036 99.2597 127.948 99.3475 127.84 99.3475Z" fill="#3D3D3D"/>
<path d="M135.681 79.0411C138.781 76.4063 139.809 72.5098 137.978 70.3381C136.147 68.1664 132.151 68.5418 129.051 71.1766C125.952 73.8114 124.924 77.7078 126.754 79.8795C128.585 82.0512 132.582 81.6759 135.681 79.0411Z" fill="white"/>
<path d="M130.142 81.4785C128.515 81.4785 127.184 80.8565 126.394 79.7265C125.541 78.5077 125.416 76.7969 126.051 75.0314C127.302 71.5507 131.131 68.7188 134.585 68.7188C136.212 68.7188 137.543 69.3407 138.332 70.4708C139.185 71.6887 139.31 73.4004 138.674 75.1658C137.423 78.6466 133.595 81.4785 130.14 81.4785H130.142ZM134.586 69.1131C131.284 69.1131 127.622 71.8276 126.422 75.1649C125.832 76.8076 125.939 78.3876 126.717 79.4988C127.431 80.5205 128.648 81.0833 130.143 81.0833C133.445 81.0833 137.107 78.3688 138.307 75.0314C138.897 73.3887 138.789 71.8088 138.012 70.6975C137.298 69.6759 136.081 69.1131 134.586 69.1131Z" fill="#3D3D3D"/>
<mask id="mask0_1287_30898" style="mask-type:luminance" maskUnits="userSpaceOnUse" x="126" y="69" width="13" height="12">
<path d="M135.269 78.5532C137.984 76.2455 138.885 72.8329 137.281 70.9309C135.678 69.0289 132.177 69.3578 129.463 71.6654C126.748 73.973 125.848 77.3856 127.451 79.2876C129.055 81.1896 132.555 80.8608 135.269 78.5532Z" fill="white"/>
</mask>
<g mask="url(#mask0_1287_30898)">
<path d="M134.46 77.7092L131.678 77.0039L128.39 77.7092C127.505 77.8992 126.632 78.5202 126.107 79.3322L124.186 82.8434H134.973L135.576 79.3322C135.635 78.5202 135.208 77.8992 134.46 77.7092Z" fill="white"/>
<path d="M130.997 78.8981C130.275 78.8981 129.901 78.3075 130.163 77.5789L131.052 75.1055H133.669L132.78 77.5789C132.519 78.3075 131.72 78.8981 130.997 78.8981Z" fill="white"/>
<path d="M135.132 73.4329C135.046 73.4096 134.947 73.4186 134.846 73.4526C135.206 72.2428 134.683 71.4219 133.684 71.4219C132.686 71.4219 131.572 72.2428 131.062 73.4526C130.986 73.4186 130.894 73.4096 130.791 73.4329C130.485 73.5028 130.207 73.8308 130.169 74.1642C130.132 74.4976 130.348 74.7108 130.654 74.6409C130.704 74.6293 130.752 74.6114 130.799 74.5872C130.767 75.4807 131.194 76.1653 131.98 76.1653C132.765 76.1653 133.685 75.4815 134.295 74.5872C134.325 74.6105 134.36 74.6293 134.401 74.6409C134.656 74.7108 135.026 74.4976 135.229 74.1642C135.432 73.8308 135.388 73.5028 135.133 73.4329H135.132Z" fill="white"/>
<path d="M134.659 70.4952C133.135 70.2201 131.127 70.5615 130.998 73.1398L130.983 73.7582L131.233 73.9849C131.233 73.9849 131.75 72.2849 132.31 72.1961C132.839 72.1128 132.751 72.4471 133.355 72.4309C133.948 72.4462 134.1 72.1128 134.57 72.1961C135.066 72.2849 134.362 73.9849 134.362 73.9849L134.774 73.7582L135.203 73.1398C136.45 71.136 135.889 70.3464 134.659 70.4952Z" fill="white"/>
</g>
<path d="M148.739 96.2324H137.28L134.496 104.153C133.984 105.61 134.292 106.965 135.313 107.741L138.195 109.93L142.615 107.741C144.181 106.966 145.442 105.61 145.955 104.153L148.739 96.2324Z" fill="white"/>
<path d="M138.195 110.128C138.153 110.128 138.111 110.115 138.076 110.088L135.194 107.899C134.112 107.076 133.773 105.616 134.31 104.087L137.094 96.1669C137.121 96.088 137.195 96.0352 137.279 96.0352H148.738C148.802 96.0352 148.862 96.0665 148.899 96.1185C148.935 96.1705 148.945 96.2377 148.924 96.2986L146.14 104.219C145.608 105.733 144.323 107.115 142.702 107.918L138.282 110.108C138.255 110.121 138.225 110.128 138.195 110.128ZM137.419 96.4304L134.681 104.219C134.196 105.6 134.476 106.858 135.432 107.584L138.216 109.7L142.528 107.564C144.058 106.806 145.27 105.507 145.769 104.088L148.46 96.4313H137.419V96.4304Z" fill="#00CB82"/>
<path d="M147.268 97.4707H137.88L135.599 103.96C135.179 105.154 135.432 106.264 136.268 106.899L138.629 108.693L142.25 106.899C143.533 106.264 144.567 105.154 144.986 103.96L147.267 97.4707H147.268Z" fill="#3D3D3D"/>
<path d="M145.1 99.3027H143.119C142.629 99.3027 142.085 99.5626 141.694 99.9829L140.075 104.587C140.466 104.166 141.01 103.907 141.5 103.907H143.481L145.1 99.3027Z" fill="white"/>
<path d="M140.075 104.786C140.04 104.786 140.005 104.777 139.973 104.758C139.894 104.709 139.859 104.612 139.89 104.523L141.508 99.9183C141.517 99.8923 141.532 99.869 141.55 99.8493C141.976 99.3905 142.578 99.1055 143.119 99.1055H145.1C145.164 99.1055 145.224 99.1368 145.26 99.1888C145.297 99.2408 145.307 99.308 145.285 99.3689L143.666 103.973C143.639 104.052 143.565 104.105 143.481 104.105H141.5C141.064 104.105 140.573 104.342 140.219 104.723C140.18 104.764 140.128 104.785 140.075 104.785V104.786ZM141.865 100.089L140.488 104.008C140.812 103.818 141.167 103.71 141.501 103.71H143.342L144.822 99.5007H143.12C142.695 99.5007 142.218 99.7256 141.866 100.089H141.865Z" fill="#00CB82"/>
<path d="M143.884 104.503H141.51C141.401 104.503 141.314 104.414 141.314 104.306C141.314 104.197 141.402 104.109 141.51 104.109H143.745L145.074 100.324H144.967C144.858 100.324 144.771 100.235 144.771 100.127C144.771 100.018 144.859 99.9297 144.967 99.9297H145.353C145.417 99.9297 145.477 99.961 145.513 100.013C145.55 100.065 145.56 100.132 145.538 100.193L144.07 104.372C144.042 104.451 143.968 104.504 143.884 104.504V104.503Z" fill="#00CB82"/>
<path d="M138.757 99.3105H140.737C141.227 99.3105 141.589 99.5704 141.684 99.9907L140.065 104.595C139.97 104.174 139.608 103.915 139.118 103.915H137.138L138.757 99.3105Z" fill="white"/>
<path d="M140.066 104.793C140.066 104.793 140.058 104.793 140.055 104.793C139.967 104.788 139.894 104.725 139.874 104.64C139.799 104.31 139.517 104.113 139.119 104.113H137.139C137.075 104.113 137.015 104.082 136.978 104.03C136.942 103.978 136.932 103.911 136.953 103.85L138.572 99.245C138.6 99.1662 138.674 99.1133 138.758 99.1133H140.738C141.324 99.1133 141.761 99.4332 141.877 99.9476C141.885 99.9844 141.883 100.022 141.871 100.057L140.252 104.662C140.224 104.741 140.149 104.793 140.066 104.793ZM137.417 103.718H139.119C139.505 103.718 139.825 103.856 140.033 104.097L141.479 99.9826C141.387 99.6842 141.115 99.5076 140.737 99.5076H138.896L137.417 103.717V103.718Z" fill="#00CB82"/>
<path d="M138.83 104.509H136.456C136.392 104.509 136.332 104.477 136.296 104.425C136.259 104.373 136.249 104.306 136.271 104.245L137.74 100.065C137.767 99.9865 137.841 99.9336 137.925 99.9336H138.311C138.42 99.9336 138.507 100.022 138.507 100.131C138.507 100.239 138.419 100.328 138.311 100.328H138.064L136.735 104.112H138.83C138.939 104.112 139.027 104.201 139.027 104.31C139.027 104.418 138.938 104.507 138.83 104.507V104.509Z" fill="#00CB82"/>
<path d="M140.079 104.793C140.057 104.793 140.035 104.789 140.014 104.781C139.911 104.745 139.857 104.632 139.894 104.529L141.513 99.9246C141.549 99.8216 141.661 99.7678 141.764 99.8045C141.866 99.8404 141.92 99.9533 141.883 100.056L140.264 104.661C140.236 104.742 140.16 104.793 140.079 104.793Z" fill="#00CB82"/>
<path d="M122.186 111.005C121.548 111.005 121.008 110.792 120.635 110.382C119.972 109.654 119.923 108.443 120.495 106.972C120.535 106.871 120.649 106.82 120.751 106.86C120.851 106.899 120.901 107.014 120.862 107.116C120.354 108.42 120.377 109.513 120.925 110.116C121.373 110.608 122.147 110.739 123.05 110.477C123.581 110.323 124.121 110.064 124.647 109.737C124.626 109.701 124.606 109.664 124.587 109.627C123.99 108.454 124.334 106.347 125.943 104.852C127.144 103.736 128.172 103.656 128.687 103.928C129.032 104.11 129.203 104.465 129.144 104.877C128.947 106.256 127.193 108.473 125.213 109.832C125.569 110.187 126.09 110.312 126.726 110.184C127.777 109.972 129.072 109.144 130.161 108.212C129.772 107.425 129.773 106.488 130.183 105.852C130.719 105.019 131.721 104.615 132.321 104.76C132.602 104.827 132.778 105.011 132.804 105.264C132.871 105.918 131.924 107.167 130.663 108.295C131.069 108.906 131.7 109.204 132.401 109.114C134.143 108.892 136.275 107.469 136.795 105.275C136.82 105.168 136.926 105.103 137.031 105.128C137.137 105.153 137.202 105.259 137.177 105.365C136.617 107.734 134.324 109.266 132.451 109.505C131.61 109.613 130.855 109.267 130.364 108.555C129.22 109.523 127.876 110.356 126.805 110.571C126.004 110.732 125.327 110.544 124.879 110.053C124.308 110.411 123.725 110.693 123.16 110.857C122.818 110.956 122.491 111.005 122.186 111.005ZM128.104 104.192C127.629 104.192 126.943 104.462 126.21 105.143C124.758 106.492 124.419 108.428 124.938 109.447C124.95 109.472 124.964 109.497 124.978 109.521C126.919 108.192 128.586 106.006 128.756 104.82C128.791 104.57 128.705 104.383 128.505 104.278C128.399 104.222 128.264 104.192 128.104 104.192ZM132.058 105.126C131.626 105.126 130.933 105.417 130.515 106.066C130.2 106.556 130.191 107.301 130.471 107.941C131.618 106.902 132.464 105.797 132.413 105.303C132.409 105.271 132.4 105.185 132.23 105.144C132.179 105.131 132.122 105.125 132.058 105.125V105.126Z" fill="#3D3D3D"/>
<path d="M150.923 80.3761C147.096 74.0886 153.68 76.0144 153.68 76.0144C149.036 69.7968 155.297 71.5452 155.297 71.5452C150.42 65.3347 157.067 65.8195 165.298 73.5222C173.528 81.2239 164.127 92.7424 160.139 97.3667C156.985 101.023 153.98 99.2397 153.98 99.2397L156.92 90.9671C156.831 90.9044 156.744 90.8399 156.652 90.7807C154.169 89.1909 151.143 86.9639 149.751 84.8131C147.181 80.8421 150.924 80.3761 150.924 80.3761H150.923Z" fill="white"/>
<path d="M153.979 99.4364C153.957 99.4364 153.934 99.4328 153.913 99.4248C153.81 99.388 153.757 99.2751 153.793 99.1721L156.683 91.0393C156.637 91.007 156.592 90.9756 156.546 90.9452C154.161 89.4181 151.019 87.1337 149.586 84.9193C148.689 83.5329 148.437 82.3921 148.837 81.5282C149.231 80.6768 150.142 80.3497 150.611 80.235C149.512 78.3575 149.253 77.0159 149.84 76.2443C150.558 75.3006 152.316 75.5139 153.205 75.6959C151.868 73.8076 151.469 72.5189 151.983 71.7643C152.538 70.9479 154.011 71.0868 154.813 71.2347C153.464 69.3993 153.096 68.0533 153.781 67.4206C155.06 66.2385 159.878 68.1796 165.431 73.3775C169.957 77.6128 169.897 83.5177 165.255 90.929C165.197 91.0213 165.075 91.0491 164.983 90.9909C164.892 90.9326 164.864 90.8107 164.922 90.7184C169.45 83.4908 169.531 77.7535 165.164 73.666C159.546 68.4082 155.025 66.8076 154.048 67.7109C153.5 68.2173 154.024 69.6055 155.452 71.422C155.505 71.4892 155.509 71.5824 155.461 71.6541C155.414 71.7249 155.326 71.7581 155.244 71.7348C154.597 71.5546 152.81 71.249 152.307 71.9875C152.006 72.4311 152.026 73.4698 153.838 75.8948C153.889 75.9629 153.891 76.0561 153.842 76.126C153.794 76.1959 153.707 76.2273 153.626 76.2031C153.599 76.195 150.95 75.4369 150.153 76.4845C149.657 77.1369 149.981 78.4462 151.092 80.2717C151.127 80.3291 151.13 80.3999 151.102 80.4599C151.073 80.52 151.015 80.5621 150.949 80.5702C150.936 80.5719 149.632 80.7485 149.194 81.6966C148.856 82.4288 149.099 83.4397 149.917 84.7033C151.311 86.8586 154.406 89.1062 156.758 90.6118C156.835 90.6611 156.908 90.7131 156.981 90.7659L157.034 90.8036C157.106 90.8547 157.135 90.9479 157.105 91.0312L154.165 99.3047C154.137 99.3853 154.061 99.4364 153.98 99.4364H153.979Z" fill="#3D3D3D"/>
<path d="M163.131 77.7407C163.089 77.7407 163.047 77.7273 163.012 77.7004L155.177 71.7023C155.091 71.636 155.075 71.5123 155.14 71.4254C155.206 71.3384 155.329 71.3223 155.416 71.3877L163.25 77.3858C163.337 77.4522 163.353 77.5758 163.288 77.6628C163.249 77.7138 163.191 77.7407 163.131 77.7407Z" fill="#3D3D3D"/>
<path d="M161.496 82.2546C161.454 82.2546 161.412 82.2412 161.377 82.2143L153.532 76.2082C153.445 76.1418 153.429 76.0182 153.494 75.9312C153.56 75.8443 153.683 75.8282 153.77 75.8936L161.615 81.8998C161.702 81.9661 161.718 82.0898 161.653 82.1767C161.614 82.2278 161.556 82.2546 161.496 82.2546Z" fill="#3D3D3D"/>
<path d="M158.703 86.6277C158.662 86.6277 158.62 86.6143 158.585 86.5874L150.74 80.5812C150.653 80.5149 150.637 80.3912 150.702 80.3043C150.768 80.2174 150.891 80.2012 150.978 80.2666L158.823 86.2728C158.91 86.3391 158.926 86.4628 158.861 86.5497C158.822 86.6008 158.763 86.6277 158.703 86.6277Z" fill="#3D3D3D"/>
<path d="M85.8245 28.3523C78.5191 28.3523 72.555 22.4205 72.5264 15.1257L72.522 13.9813C72.522 13.8719 72.6094 13.7832 72.7183 13.7832C72.8263 13.7832 72.9146 13.871 72.9146 13.9804L72.9191 15.1248C72.9468 22.2019 78.735 27.9571 85.8236 27.9571H85.828L90.6025 27.9553C90.7114 27.9553 90.7988 28.044 90.7988 28.1525C90.7988 28.2609 90.7105 28.3505 90.6025 28.3505L85.828 28.3523H85.8227H85.8245Z" fill="#3D3D3D"/>
<path d="M72.7093 11.4622L68.6577 0.885501L76.6779 0.882812L72.7093 11.4622Z" fill="#00CB82"/>
<path d="M69.3823 37.6747L97.0582 21.0605L130.485 31.9715L106.753 49.7256L69.3823 37.6747Z" fill="#00CB82"/>
<path d="M88.2438 41.3538C88.1359 41.3538 88.0475 41.2659 88.0475 41.1566L88.0154 32.9351C88.0154 32.8733 88.043 32.8159 88.0921 32.7783C93.8277 28.3332 108.712 28.9659 112.7 32.7828C112.738 32.8195 112.761 32.8715 112.761 32.9252L112.786 39.5453C112.786 39.6546 112.699 39.7433 112.59 39.7433C112.482 39.7433 112.394 39.6555 112.394 39.5462L112.368 33.0113C110.486 31.2763 106.024 30.1238 100.955 30.0691C95.626 30.01 90.9443 31.1177 88.4098 33.0319L88.4411 41.1548C88.4411 41.2642 88.3536 41.3529 88.2447 41.3529L88.2438 41.3538Z" fill="#3D3D3D"/>
<path d="M104.563 66.6602L91.2708 59.3125L87.9724 75.4141C88.9371 76.1543 90.3579 77.1078 91.7402 78.0022C93.9499 79.4307 96.0613 80.7042 96.0613 80.7042C96.0613 80.7042 97.624 80.4255 99.8809 79.869C102.169 79.3044 102.693 78.9638 102.693 78.9638L104.563 66.6602H104.563Z" fill="white"/>
<path d="M102.695 79.1611C102.685 79.1611 102.675 79.1611 102.665 79.1593C102.557 79.1432 102.483 79.0419 102.499 78.9344L104.349 66.767L91.4102 59.6146L88.0091 76.063C87.9868 76.1697 87.8815 76.2378 87.7762 76.2163C87.67 76.1939 87.6013 76.0899 87.6236 75.9824L91.0782 59.2723C91.0907 59.2105 91.1317 59.1594 91.1888 59.1334C91.245 59.1074 91.3111 59.1092 91.3664 59.1396L104.659 66.4874C104.731 66.5277 104.772 66.6084 104.759 66.6899L102.889 78.9935C102.874 79.0912 102.79 79.1611 102.695 79.1611Z" fill="#3D3D3D"/>
<path d="M85.2996 59.1278C84.2698 57.5228 84.1555 55.4204 85.0685 53.7454C83.7495 52.2604 82.7696 50.0971 82.8231 47.8638C82.8767 45.6314 83.529 42.6436 85.8788 40.4856C87.0639 39.3967 88.5177 38.7631 90.3784 38.8474C91.717 35.6713 94.9922 33.6039 98.3817 33.0169C101.772 32.4299 105.262 33.1334 108.521 34.2375C110.858 35.0288 113.154 36.0442 115.078 37.591C117.002 39.1369 118.54 41.2626 119.024 43.6867C119.509 46.1109 118.816 48.8272 116.968 50.4636C118.634 51.5256 119.259 53.8314 118.655 55.7161C118.044 57.6196 116.396 59.0472 114.571 59.8537C112.746 60.6612 110.737 60.9327 108.759 61.1854C104.547 61.7231 99.9086 62.1139 96.4049 59.7112C94.8843 58.669 93.3377 57.0604 91.5484 57.4995C90.6533 57.719 90.5292 58.5355 90.1142 59.3599C89.4583 60.663 86.0983 60.3717 85.2996 59.1278Z" fill="#3D3D3D"/>
<path d="M114.343 53.3095C114.079 53.4744 112.107 73.0881 101.561 71.9938C91.0139 70.8996 89.5342 59.2717 89.5342 59.2717C89.5342 59.2717 85.6281 57.5618 87.2737 51.492C88.9194 45.4222 92.6318 49.9228 93.1146 53.452C93.1146 53.452 95.7482 56.4622 96.7941 52.8426C97.84 49.2229 99.3384 42.2319 109.14 46.2046C116.17 49.0535 114.344 53.3095 114.344 53.3095H114.343Z" fill="white"/>
<path d="M102.409 72.235C102.124 72.235 101.834 72.2197 101.541 72.1893C96.0087 71.6148 92.9843 68.1359 91.4208 65.3174C89.9126 62.5984 89.4405 59.9529 89.3548 59.4009C88.7381 59.0675 85.5647 57.0448 87.0836 51.4392C87.8091 48.7624 88.897 48.2623 89.6859 48.3125C91.3324 48.4191 92.9682 51.0996 93.3002 53.3615C93.5081 53.5829 94.5193 54.5992 95.3983 54.402C95.923 54.2846 96.3282 53.7406 96.6049 52.7862C96.6486 52.6338 96.6932 52.4761 96.7396 52.313C97.3973 49.991 98.2978 46.8105 101.06 45.4528C103.086 44.458 105.829 44.648 109.213 46.0201C111.945 47.1268 113.693 48.5742 114.408 50.3217C115.099 52.0083 114.547 53.3311 114.523 53.3866C114.519 53.3974 114.512 53.4081 114.506 53.418C114.476 53.5103 114.411 53.8706 114.336 54.2846C113.974 56.2777 113.128 60.9441 111.209 65.0333C108.965 69.8162 106.007 72.235 102.408 72.235H102.409ZM89.5815 48.705C88.6989 48.705 87.9671 49.6836 87.4629 51.5432C85.8851 57.3639 89.4601 59.0218 89.6127 59.0899C89.6761 59.1177 89.7198 59.1768 89.7287 59.2458C89.7323 59.2745 90.116 62.1602 91.7697 65.1364C93.9776 69.1091 97.2778 71.3496 101.58 71.7959C107.558 72.4151 111.721 66.5013 113.948 54.2138C114.078 53.4995 114.115 53.2907 114.172 53.2029C114.244 53.0102 114.618 51.864 114.039 50.4624C113.363 48.8215 111.689 47.4513 109.065 46.3875C105.788 45.0594 103.153 44.8649 101.232 45.8086C98.6271 47.0892 97.7543 50.1712 97.1171 52.4223C97.0707 52.5863 97.0261 52.745 96.9815 52.8973C96.662 54.0014 96.1578 54.6377 95.4822 54.7891C94.2739 55.0589 93.0182 53.6429 92.9656 53.582C92.9397 53.5524 92.9236 53.5166 92.9183 53.478C92.6336 51.3944 91.1156 48.8018 89.6591 48.7077C89.6323 48.7059 89.6065 48.705 89.5806 48.705H89.5815Z" fill="#3D3D3D"/>
<path d="M90.5275 56.4617C90.4293 56.4617 90.3446 56.3883 90.3321 56.2879C90.1937 55.1444 89.6038 54.0725 88.7132 53.3448C88.6293 53.2758 88.6159 53.1513 88.6846 53.067C88.7534 52.9828 88.8774 52.9693 88.9613 53.0384C89.9305 53.8297 90.573 54.9965 90.7229 56.2404C90.7363 56.3488 90.6596 56.4474 90.5516 56.4599C90.5436 56.4608 90.5355 56.4617 90.5275 56.4617Z" fill="#3D3D3D"/>
<path d="M178.46 151.776H244.648V163.801H178.46C177.366 163.801 176.478 162.909 176.478 161.811V153.766C176.478 152.667 177.366 151.775 178.46 151.775V151.776Z" fill="white"/>
<path d="M244.648 164H178.46C177.259 164 176.281 163.019 176.281 161.813V153.768C176.281 152.561 177.259 151.58 178.46 151.58H244.648C244.757 151.58 244.845 151.669 244.845 151.777V163.802C244.845 163.911 244.756 163.999 244.648 163.999V164ZM178.46 151.975C177.476 151.975 176.675 152.779 176.675 153.768V161.813C176.675 162.801 177.476 163.605 178.46 163.605H244.451V151.975H178.46Z" fill="#3D3D3D"/>
<path d="M244.648 162.947H205.14C203.83 162.947 202.764 161.884 202.764 160.577V155.003C202.764 153.697 203.83 152.633 205.14 152.633H244.648C244.757 152.633 244.845 152.722 244.845 152.83C244.845 152.938 244.756 153.027 244.648 153.027H205.14C204.047 153.027 203.158 153.913 203.158 155.002V160.576C203.158 161.664 204.047 162.551 205.14 162.551H244.648C244.757 162.551 244.845 162.64 244.845 162.748C244.845 162.856 244.756 162.945 244.648 162.945V162.947Z" fill="#3D3D3D"/>
<path d="M215.714 155.5H205.451C205.342 155.5 205.255 155.411 205.255 155.303C205.255 155.194 205.343 155.105 205.451 155.105H215.714C215.823 155.105 215.91 155.194 215.91 155.303C215.91 155.411 215.822 155.5 215.714 155.5Z" fill="#3D3D3D"/>
<path d="M223.097 160.488H208.615C208.506 160.488 208.419 160.399 208.419 160.291C208.419 160.182 208.507 160.094 208.615 160.094H223.097C223.206 160.094 223.294 160.182 223.294 160.291C223.294 160.399 223.205 160.488 223.097 160.488Z" fill="#3D3D3D"/>
<path d="M178.46 140.807H244.648V151.779H178.46C177.366 151.779 176.478 150.887 176.478 149.788V142.797C176.478 141.698 177.366 140.807 178.46 140.807Z" fill="white"/>
<path d="M244.648 151.976H178.46C177.259 151.976 176.281 150.994 176.281 149.788V142.797C176.281 141.591 177.259 140.609 178.46 140.609H244.648C244.757 140.609 244.845 140.698 244.845 140.807V151.778C244.845 151.888 244.756 151.976 244.648 151.976ZM178.46 141.004C177.476 141.004 176.675 141.808 176.675 142.796V149.787C176.675 150.776 177.476 151.579 178.46 151.579H244.451V141.003H178.46V141.004Z" fill="#3D3D3D"/>
<path d="M244.648 150.921H205.14C203.83 150.921 202.764 149.858 202.764 148.551V144.031C202.764 142.724 203.83 141.66 205.14 141.66H244.648C244.757 141.66 244.845 141.749 244.845 141.857C244.845 141.966 244.756 142.054 244.648 142.054H205.14C204.047 142.054 203.158 142.941 203.158 144.03V148.55C203.158 149.639 204.047 150.525 205.14 150.525H244.648C244.757 150.525 244.845 150.614 244.845 150.722C244.845 150.831 244.756 150.919 244.648 150.919V150.921Z" fill="#3D3D3D"/>
<path d="M197.624 143.047H178.748V149.29H197.624V143.047Z" fill="#00CB82"/>
<path d="M167.34 129.721H233.529V140.693H167.34C166.246 140.693 165.358 139.801 165.358 138.702V131.711C165.358 130.612 166.246 129.721 167.34 129.721Z" fill="white"/>
<path d="M167.34 129.721H233.529V140.693H167.34C166.246 140.693 165.358 139.801 165.358 138.702V131.711C165.358 130.612 166.246 129.721 167.34 129.721Z" fill="white"/>
<path d="M233.529 140.889H167.05C166.706 140.889 166.368 140.796 166.075 140.618C165.982 140.562 165.952 140.441 166.007 140.347C166.063 140.253 166.184 140.223 166.277 140.279C166.509 140.419 166.777 140.493 167.05 140.493H233.331V129.916L225.943 129.9L192.282 129.916H183.591C183.482 129.916 183.395 129.828 183.395 129.719C183.395 129.611 183.483 129.522 183.591 129.522H192.282L225.943 129.506L233.529 129.522C233.638 129.522 233.725 129.611 233.725 129.719V140.691C233.725 140.8 233.637 140.888 233.529 140.888V140.889Z" fill="#3D3D3D"/>
<path d="M233.529 139.835H194.02C192.71 139.835 191.645 138.772 191.645 137.465V132.945C191.645 131.638 192.71 130.574 194.02 130.574H233.529C233.638 130.574 233.725 130.663 233.725 130.771C233.725 130.88 233.637 130.969 233.529 130.969H194.02C192.927 130.969 192.038 131.855 192.038 132.944V137.464C192.038 138.553 192.927 139.439 194.02 139.439H233.529C233.638 139.439 233.725 139.528 233.725 139.636C233.725 139.745 233.637 139.833 233.529 139.833V139.835Z" fill="#3D3D3D"/>
<path d="M186.504 131.961H167.628V138.204H186.504V131.961Z" fill="#3D3D3D"/>
</g>
<defs>
<clipPath id="clip0_1287_30898">
<rect width="245" height="164" fill="white"/>
</clipPath>
</defs>
</svg>
