<svg width="262" height="175" viewBox="0 0 262 175" fill="none" xmlns="http://www.w3.org/2000/svg">
<path d="M119.076 166.85H44.5766C42.3931 166.85 40.6238 168.626 40.6238 170.819C40.6238 173.012 42.394 174.789 44.5766 174.789H119.077C121.261 174.789 123.03 173.011 123.03 170.819C123.03 168.627 121.26 166.85 119.077 166.85H119.076Z" fill="white"/>
<path d="M109.44 151.629H54.2125V166.86H109.44V151.629Z" fill="white"/>
<path d="M109.44 167.071H54.2126C54.0965 167.071 54.0022 166.977 54.0022 166.86V151.629C54.0022 151.513 54.0965 151.418 54.2126 151.418C54.3288 151.418 54.4231 151.513 54.4231 151.629V166.649H109.229V151.629C109.229 151.513 109.323 151.418 109.439 151.418C109.556 151.418 109.65 151.513 109.65 151.629V166.86C109.65 166.977 109.556 167.071 109.439 167.071H109.44Z" fill="#3D3D3D"/>
<path d="M161.665 143.216L2.72253 142.998L0.210449 144.482V146.399C0.210449 149.288 2.53684 151.629 5.40602 151.629H158.247C161.116 151.629 163.442 149.287 163.442 146.399V144.482L161.666 143.216H161.665Z" fill="white"/>
<path d="M6.24877 46.4668H157.403C160.736 46.4668 163.441 49.1836 163.441 52.5306V144.481H0.210449V52.5306C0.210449 49.1836 2.91584 46.4668 6.24877 46.4668Z" fill="white"/>
<path d="M163.442 144.693H0.210451C0.0942744 144.693 0 144.598 0 144.482V52.531C0 49.0702 2.80347 46.2559 6.24877 46.2559H157.403C160.849 46.2559 163.652 49.0712 163.652 52.531V144.482C163.652 144.598 163.558 144.693 163.441 144.693H163.442ZM0.421854 144.27H163.232V52.531C163.232 49.3035 160.618 46.6785 157.404 46.6785H6.24877C3.03487 46.6785 0.420902 49.3035 0.420902 52.531V144.27H0.421854Z" fill="#3D3D3D"/>
<path d="M157.867 52.6844V138.867H5.7859V52.6844C5.7859 52.3497 6.05635 52.0781 6.38965 52.0781L157.262 52.0781C157.595 52.0781 157.866 52.3497 157.866 52.6844H157.867Z" fill="white"/>
<path d="M157.867 139.079H5.78589C5.66971 139.079 5.57544 138.985 5.57544 138.868V52.6858C5.57544 52.2344 5.94111 51.8672 6.39058 51.8672H157.263C157.712 51.8672 158.078 52.2344 158.078 52.6858V138.868C158.078 138.985 157.984 139.079 157.868 139.079H157.867ZM5.99634 138.657H157.656V52.6858C157.656 52.4677 157.479 52.2908 157.263 52.2908H6.39058C6.17346 52.2908 5.99729 52.4687 5.99729 52.6858V138.657H5.99634Z" fill="#3D3D3D"/>
<path d="M158.247 151.84H5.40602C2.42542 151.84 0 149.399 0 146.399C0 146.282 0.0942744 146.188 0.210451 146.188C0.326627 146.188 0.420902 146.282 0.420902 146.399C0.420902 149.166 2.65682 151.417 5.40507 151.417H158.247C160.995 151.417 163.231 149.166 163.231 146.399C163.231 146.282 163.325 146.188 163.441 146.188C163.558 146.188 163.652 146.282 163.652 146.399C163.652 149.4 161.227 151.84 158.246 151.84H158.247Z" fill="#3D3D3D"/>
<path d="M119.076 175H44.5766C42.2807 175 40.4133 173.125 40.4133 170.82C40.4133 168.514 42.2807 166.639 44.5766 166.639H48.5819C48.6981 166.639 48.7923 166.733 48.7923 166.85C48.7923 166.967 48.6981 167.061 48.5819 167.061H44.5766C42.5131 167.061 40.8342 168.747 40.8342 170.82C40.8342 172.892 42.5131 174.578 44.5766 174.578H119.077C121.141 174.578 122.82 172.892 122.82 170.82C122.82 168.747 121.141 167.061 119.077 167.061H114.723C114.607 167.061 114.513 166.967 114.513 166.85C114.513 166.733 114.607 166.639 114.723 166.639H119.077C121.373 166.639 123.241 168.514 123.241 170.82C123.241 173.125 121.373 175 119.077 175H119.076Z" fill="#3D3D3D"/>
<path d="M53.044 95.6338L56.6446 61.3252C37.8925 59.3409 21.0793 73.0922 19.091 92.0401C17.1026 110.988 30.6915 127.957 49.4435 129.942C68.1946 131.927 85.0088 118.175 86.9971 99.2275C87.598 93.5003 86.7743 87.9548 84.8164 82.9477L53.045 95.6338H53.044Z" fill="white"/>
<path d="M84.8155 82.9477L56.6446 61.3252C37.8925 59.3409 21.0793 73.0922 19.091 92.0401C17.1026 110.988 30.6915 127.957 49.4435 129.942C68.1956 131.927 85.0088 118.175 86.9971 99.2275C87.598 93.5003 86.7743 87.9548 84.8164 82.9477H84.8155Z" fill="white"/>
<path d="M53.0641 130.345C51.8547 130.345 50.6396 130.281 49.4207 130.152C40.2951 129.186 32.0933 124.688 26.3254 117.485C20.5575 110.283 17.914 101.238 18.8815 92.0185C20.8794 72.9846 37.8269 59.1176 56.6665 61.1152L56.7256 61.121L56.7722 61.1573L84.9898 82.8162L85.0107 82.8707C87.0295 88.0327 87.7875 93.6958 87.2048 99.249C86.2373 108.469 81.774 116.761 74.6377 122.599C68.4546 127.655 60.905 130.345 53.0631 130.345H53.0641ZM53.0622 61.3476C35.9242 61.3476 21.147 74.4688 19.3005 92.0625C18.3444 101.171 20.9556 110.105 26.6539 117.22C32.3513 124.335 40.4523 128.778 49.4655 129.732C58.4787 130.686 67.3243 128.037 74.373 122.272C81.4226 116.506 85.8306 108.315 86.7867 99.206C87.36 93.7398 86.6182 88.1647 84.6403 83.0811L56.5627 61.5303C55.3876 61.4079 54.2182 61.3486 53.0612 61.3486L53.0622 61.3476Z" fill="#3D3D3D"/>
<path d="M47.1218 60.4707C34.9299 62.5372 24.2988 71.14 20.2612 83.7141L52.9564 94.3021L47.1218 60.4707Z" fill="#00CB82"/>
<path d="M15.5514 95.6719C14.9771 108.075 21.0935 120.333 32.4741 126.962L49.712 97.1216L15.5514 95.6719Z" fill="white"/>
<path d="M32.4732 127.174C32.437 127.174 32.4008 127.165 32.3675 127.145C21.265 120.677 14.741 108.614 15.3409 95.6627C15.3467 95.5499 15.439 95.4609 15.5514 95.4609C15.5542 95.4609 15.5571 95.4609 15.5609 95.4609L49.7216 96.9107C49.7949 96.9135 49.8625 96.9556 49.8977 97.0206C49.933 97.0857 49.932 97.1641 49.8949 97.2281L32.657 127.069C32.6179 127.137 32.5474 127.174 32.4741 127.174H32.4732ZM15.7523 95.8932C15.2429 108.535 21.6021 120.296 32.397 126.673L49.354 97.318L15.7514 95.8922L15.7523 95.8932Z" fill="#3D3D3D"/>
<path d="M64.6391 107.277C71.043 100.846 71.0429 90.4196 64.6391 83.9887C58.2353 77.5579 47.8526 77.5579 41.4488 83.9887C35.045 90.4196 35.045 100.846 41.4488 107.277C47.8526 113.708 58.2353 113.708 64.6391 107.277Z" fill="white"/>
<path d="M53.0079 112.317C49.575 112.317 46.2344 111.248 43.3852 109.203C39.7762 106.613 37.3879 102.765 36.6603 98.3703C36.1537 95.3131 36.5013 92.1879 37.664 89.3334L38.0545 89.4941C36.9213 92.2759 36.5832 95.3217 37.0765 98.3015C37.7859 102.585 40.1133 106.334 43.6309 108.859C47.1486 111.384 51.4357 112.382 55.7 111.67C64.5046 110.2 70.4763 101.81 69.0126 92.9683C67.5481 84.1265 59.1938 78.1286 50.3892 79.5994L50.3196 79.1825C59.3528 77.6744 67.9252 83.8271 69.4278 92.8985C70.9305 101.971 64.8027 110.578 55.7695 112.087C54.8477 112.241 53.9249 112.318 53.0088 112.318L53.0079 112.317Z" fill="#3D3D3D"/>
<path d="M97.3502 119.984H89.2845V129.704H97.3502V119.984Z" fill="#3D3D3D"/>
<path d="M109.611 114.477H101.545V129.704H109.611V114.477Z" fill="#3D3D3D"/>
<path d="M121.871 109.617H113.805V129.705H121.871V109.617Z" fill="#3D3D3D"/>
<path d="M134.131 102.812H126.065V129.704H134.131V102.812Z" fill="#3D3D3D"/>
<path d="M146.391 90.502H138.325V129.706H146.391V90.502Z" fill="#3D3D3D"/>
<path d="M55.9275 0.210938H198.76C200.544 0.210938 201.993 1.66545 201.993 3.45752V95.6347C201.993 97.4268 200.544 98.8813 198.76 98.8813H55.9275C54.143 98.8813 52.6946 97.4268 52.6946 95.6347V3.45752C52.6946 1.66545 54.143 0.210938 55.9275 0.210938Z" fill="white"/>
<path d="M198.76 99.094H55.9276C54.0288 99.094 52.4843 97.5429 52.4843 95.6361V3.45792C52.4843 1.55109 54.0288 0 55.9276 0H198.76C200.659 0 202.203 1.55109 202.203 3.45792V95.6351C202.203 97.5419 200.659 99.093 198.76 99.093V99.094ZM55.9276 0.422678C54.2612 0.422678 52.9052 1.78443 52.9052 3.45792V95.6351C52.9052 97.3086 54.2612 98.6704 55.9276 98.6704H198.76C200.426 98.6704 201.783 97.3086 201.783 95.6351V3.45792C201.783 1.78443 200.426 0.422678 198.76 0.422678H55.9276Z" fill="#3D3D3D"/>
<path d="M58.6939 8.36372C59.9556 8.36372 60.9784 7.33746 60.9784 6.07151C60.9784 4.80556 59.9556 3.7793 58.6939 3.7793C57.4322 3.7793 56.4094 4.80556 56.4094 6.07151C56.4094 7.33746 57.4322 8.36372 58.6939 8.36372Z" fill="white"/>
<path d="M58.6939 8.57546C57.3179 8.57546 56.199 7.45279 56.199 6.07191C56.199 4.69104 57.3179 3.56836 58.6939 3.56836C60.0699 3.56836 61.1889 4.69104 61.1889 6.07191C61.1889 7.45279 60.0699 8.57546 58.6939 8.57546ZM58.6939 3.99104C57.5502 3.99104 56.6199 4.92437 56.6199 6.07191C56.6199 7.21945 57.5502 8.15279 58.6939 8.15279C59.8376 8.15279 60.768 7.21945 60.768 6.07191C60.768 4.92437 59.8376 3.99104 58.6939 3.99104Z" fill="#3D3D3D"/>
<path d="M65.3608 8.36372C66.6225 8.36372 67.6453 7.33746 67.6453 6.07151C67.6453 4.80556 66.6225 3.7793 65.3608 3.7793C64.0991 3.7793 63.0763 4.80556 63.0763 6.07151C63.0763 7.33746 64.0991 8.36372 65.3608 8.36372Z" fill="white"/>
<path d="M65.3608 8.57546C63.9848 8.57546 62.8658 7.45279 62.8658 6.07191C62.8658 4.69104 63.9848 3.56836 65.3608 3.56836C66.7368 3.56836 67.8557 4.69104 67.8557 6.07191C67.8557 7.45279 66.7368 8.57546 65.3608 8.57546ZM65.3608 3.99104C64.2171 3.99104 63.2868 4.92437 63.2868 6.07191C63.2868 7.21945 64.2171 8.15279 65.3608 8.15279C66.5045 8.15279 67.4348 7.21945 67.4348 6.07191C67.4348 4.92437 66.5045 3.99104 65.3608 3.99104Z" fill="#3D3D3D"/>
<path d="M72.0266 8.36372C73.2882 8.36372 74.311 7.33746 74.311 6.07151C74.311 4.80556 73.2882 3.7793 72.0266 3.7793C70.7649 3.7793 69.7421 4.80556 69.7421 6.07151C69.7421 7.33746 70.7649 8.36372 72.0266 8.36372Z" fill="white"/>
<path d="M72.0266 8.57546C70.6505 8.57546 69.5316 7.45279 69.5316 6.07191C69.5316 4.69104 70.6505 3.56836 72.0266 3.56836C73.4026 3.56836 74.5215 4.69104 74.5215 6.07191C74.5215 7.45279 73.4026 8.57546 72.0266 8.57546ZM72.0266 3.99104C70.8829 3.99104 69.9525 4.92437 69.9525 6.07191C69.9525 7.21945 70.8829 8.15279 72.0266 8.15279C73.1702 8.15279 74.1006 7.21945 74.1006 6.07191C74.1006 4.92437 73.1702 3.99104 72.0266 3.99104Z" fill="#3D3D3D"/>
<path d="M163.46 8.56484H84.4225C83.2121 8.56484 82.2303 7.57891 82.2303 6.36348C82.2303 5.14804 83.2121 4.16211 84.4225 4.16211H163.46C164.67 4.16211 165.652 5.14804 165.652 6.36348C165.652 7.57891 164.67 8.56484 163.46 8.56484Z" fill="white"/>
<path d="M163.46 8.77658H84.4225C83.0979 8.77658 82.0199 7.69407 82.0199 6.36388C82.0199 5.03369 83.0979 3.95117 84.4225 3.95117H163.46C164.784 3.95117 165.862 5.03369 165.862 6.36388C165.862 7.69407 164.784 8.77658 163.46 8.77658ZM84.4225 4.37481C83.3302 4.37481 82.4408 5.26702 82.4408 6.36483C82.4408 7.46265 83.3293 8.35486 84.4225 8.35486H163.46C164.552 8.35486 165.441 7.46265 165.441 6.36483C165.441 5.26702 164.553 4.37481 163.46 4.37481H84.4225Z" fill="#3D3D3D"/>
<path d="M199.445 95.4688H55.2419C55.1258 95.4688 55.0315 95.3741 55.0315 95.2575V12.6039C55.0315 12.4872 55.1258 12.3926 55.2419 12.3926H199.444C199.56 12.3926 199.654 12.4872 199.654 12.6039V95.2565C199.654 95.3732 199.56 95.4678 199.444 95.4678L199.445 95.4688ZM55.4533 95.0461H199.234V12.8153H55.4533V95.0452V95.0461Z" fill="#3D3D3D"/>
<path d="M120.39 54.7921V21.041C101.944 21.041 86.9895 36.1513 86.9895 54.7911C86.9895 73.431 101.944 88.5413 120.39 88.5413C138.837 88.5413 153.791 73.431 153.791 54.7911C153.791 49.1567 152.423 43.8465 150.007 39.1769L120.39 54.7911V54.7921Z" fill="white"/>
<path d="M150.007 39.1789L120.39 21.043C101.944 21.043 86.9895 36.1532 86.9895 54.7931C86.9895 73.433 101.943 88.5432 120.39 88.5432C138.838 88.5432 153.791 73.433 153.791 54.7931C153.791 49.1587 152.423 43.8484 150.007 39.1789Z" fill="#FEC432"/>
<path d="M150.007 39.1769C144.429 28.3977 133.261 21.041 120.39 21.041V54.7911L150.007 39.1769Z" fill="#00CB82"/>
<path d="M131.733 66.1822C137.998 59.891 137.998 49.691 131.733 43.3998C125.468 37.1087 115.311 37.1087 109.047 43.3998C102.782 49.691 102.782 59.891 109.047 66.1822C115.311 72.4734 125.468 72.4734 131.733 66.1822Z" fill="white"/>
<path d="M185.363 72.3066L177.33 77.4007C177.33 77.4007 184.869 84.4763 186.983 84.264C189.097 84.0517 193.747 81.5041 194.522 80.7257C195.298 79.9473 194.945 76.6214 194.945 76.6214L185.363 72.3047V72.3066Z" fill="white"/>
<path d="M186.897 84.4799C184.591 84.4799 177.492 77.8423 177.186 77.5554C177.139 77.5105 177.114 77.4464 177.121 77.3814C177.126 77.3163 177.163 77.257 177.218 77.2226L185.25 72.1285C185.31 72.0902 185.384 72.0855 185.449 72.1141L195.032 76.4299C195.1 76.4605 195.147 76.5255 195.155 76.6001C195.192 76.951 195.494 80.0503 194.671 80.8756C193.887 81.6626 189.182 84.2551 187.004 84.4741C186.97 84.4779 186.934 84.4789 186.898 84.4789L186.897 84.4799ZM177.674 77.433C179.898 79.4976 185.359 84.2131 186.962 84.0543C189.018 83.8478 193.638 81.3165 194.374 80.5773C194.927 80.0217 194.84 77.7447 194.748 76.7655L185.38 72.5454L177.674 77.432V77.433Z" fill="#3D3D3D"/>
<path d="M195.821 62.6074L185.041 72.2305C185.041 72.2305 185.957 74.778 189.972 77.6785C193.989 80.5798 195.82 62.6074 195.82 62.6074H195.821Z" fill="#00CB82"/>
<mask id="mask0_1287_31489" style="mask-type:luminance" maskUnits="userSpaceOnUse" x="70" y="17" width="61" height="61">
<path d="M71.7888 57.431C74.2428 64.8154 79.3498 70.8572 86.2308 74.4958C93.3052 78.2359 101.406 78.9865 109.042 76.6073C124.806 71.6968 133.653 54.8241 128.763 38.9938C123.872 23.1663 107.071 14.2796 91.3074 19.1901C75.5436 24.1006 66.697 40.9733 71.5869 56.8036C71.6516 57.0131 71.7193 57.2234 71.7878 57.431H71.7888Z" fill="white"/>
</mask>
<g mask="url(#mask0_1287_31489)">
<path d="M113.331 60.9434V19.082C90.4511 19.082 71.9038 37.8242 71.9038 60.9434C71.9038 84.0625 90.4511 102.805 113.331 102.805C136.211 102.805 154.759 84.0625 154.759 60.9434C154.759 53.9548 153.062 47.368 150.065 41.5767L113.331 60.9434Z" fill="white"/>
<path d="M150.065 41.5767L113.331 19.082C90.4511 19.082 71.9038 37.8242 71.9038 60.9434C71.9038 84.0625 90.4511 102.805 113.331 102.805C136.211 102.805 154.759 84.0625 154.759 60.9434C154.759 53.9558 153.062 47.3689 150.065 41.5767Z" fill="#FEC432"/>
<path d="M150.065 41.5767C143.148 28.2078 129.295 19.082 113.331 19.082V60.9434L150.065 41.5767Z" fill="#00CB82"/>
<path d="M127.4 75.0725C135.171 67.2692 135.171 54.6175 127.4 46.8143C119.63 39.011 107.032 39.011 99.261 46.8143C91.4905 54.6175 91.4905 67.2692 99.261 75.0725C107.032 82.8757 119.63 82.8757 127.4 75.0725Z" fill="white"/>
</g>
<path d="M177.413 87.4512C177.531 87.805 177.509 88.2048 177.323 88.5605C176.959 89.2519 176.107 89.5158 175.418 89.1505L127.948 64.0127C127.259 63.6474 126.996 62.7915 127.36 62.1001C127.724 61.4087 128.576 61.1448 129.265 61.5101L176.735 86.6479C177.068 86.8248 177.303 87.1175 177.413 87.4512Z" fill="#3D3D3D"/>
<path d="M131.238 37.4796C131.313 37.7053 131.384 37.93 131.455 38.1576C134.046 46.548 133.229 55.4501 129.154 63.2227C125.078 70.9954 118.233 76.7102 109.877 79.3122C101.522 81.9143 92.6585 81.0938 84.9175 77.0019C77.1775 72.909 71.4877 66.0361 68.8956 57.6438C63.5458 40.3236 73.2255 21.8615 90.473 16.4891C107.493 11.1875 125.623 20.5859 131.238 37.4796ZM71.7886 57.4334C74.2426 64.8178 79.3496 70.8596 86.2307 74.4983C93.305 78.2383 101.406 78.989 109.042 76.6098C124.806 71.6993 133.653 54.8266 128.763 38.9962C123.872 23.1688 107.071 14.282 91.3072 19.1926C75.5434 24.1031 66.6968 40.9758 71.5867 56.8061C71.6514 57.0155 71.7191 57.2259 71.7876 57.4334H71.7886Z" fill="#3D3D3D"/>
<path d="M121.054 34.6377C120.985 34.6377 120.917 34.6033 120.877 34.5402C115.449 26.0484 105.565 21.7566 95.6934 23.606C95.5772 23.6261 95.4687 23.5515 95.4477 23.4368C95.4268 23.322 95.502 23.2111 95.6163 23.19C100.538 22.2682 105.572 22.8477 110.176 24.8655C114.737 26.8641 118.559 30.1307 121.232 34.3116C121.295 34.4101 121.267 34.5411 121.168 34.6042C121.133 34.6272 121.094 34.6377 121.055 34.6377H121.054Z" fill="#3D3D3D"/>
<path d="M100.148 73.0356C95.5962 73.0318 91.1205 71.7714 87.2058 69.3912C83.2615 66.9928 80.0619 63.5607 77.9545 59.4669C77.9012 59.3636 77.9412 59.2354 78.045 59.1819C78.1478 59.1283 78.2754 59.1685 78.3287 59.2727C82.5606 67.4939 90.9215 72.6062 100.148 72.6139C100.264 72.6139 100.358 72.7085 100.358 72.8252C100.358 72.9419 100.264 73.0365 100.148 73.0365V73.0356Z" fill="#3D3D3D"/>
<path d="M161.536 80.5039C161.49 80.5039 161.445 80.4895 161.406 80.4589C161.315 80.3872 161.299 80.2543 161.37 80.1625L163.736 77.1205C163.807 77.0287 163.939 77.0115 164.031 77.0842C164.122 77.1559 164.138 77.2888 164.067 77.3806L161.702 80.4226C161.66 80.4761 161.598 80.5039 161.535 80.5039H161.536Z" fill="#3D3D3D"/>
<path d="M163.17 81.7776C163.124 81.7776 163.079 81.7633 163.04 81.7327C162.949 81.6609 162.933 81.528 163.004 81.4362L165.37 78.3943C165.441 78.3015 165.573 78.2853 165.665 78.3579C165.756 78.4297 165.772 78.5626 165.701 78.6544L163.336 81.6963C163.294 81.7499 163.232 81.7776 163.169 81.7776H163.17Z" fill="#3D3D3D"/>
<path d="M199.232 47.7865C199.137 46.2182 198.47 44.691 197.385 43.5568C196.92 43.0711 196.368 42.6493 195.728 42.4456C195.088 42.242 194.351 42.2773 193.789 42.6465C193.783 42.6503 193.778 42.6541 193.772 42.6579C193.152 43.0768 192.343 43.1179 191.729 42.6905C191.334 42.4141 190.888 42.2123 190.416 42.109C189.226 41.8461 187.916 42.2142 187.035 43.0586C186.154 43.903 185.728 45.1988 185.938 46.4008C186.209 47.9634 187.437 49.1884 188.76 50.0586C190.083 50.9288 191.572 51.56 193.133 51.8239C194.4 52.0381 195.716 52.0066 196.965 51.692C197.529 51.5495 197.955 51.451 198.33 50.9929C198.66 50.5884 198.891 50.1083 199.038 49.6082C199.21 49.0201 199.268 48.3985 199.231 47.7874L199.232 47.7865Z" fill="#3D3D3D"/>
<path d="M197.67 52.582L202.992 59.2559L197.701 62.2338L192.246 54.3665L197.67 52.582Z" fill="white"/>
<path d="M196.346 53.4717C196.9 53.6448 197.54 53.4344 197.921 52.9955C198.302 52.5566 198.424 51.9206 198.279 51.3574C198.205 51.0695 198.056 50.7884 197.807 50.6277C197.486 50.4202 197.05 50.4547 196.717 50.6421C196.383 50.8295 196.141 51.147 195.961 51.4855C195.961 51.4855 195.598 51.213 194.461 50.3915C193.175 49.463 194.632 47.4414 194.632 47.4414C193.022 48.4149 191.375 48.6501 189.693 48.1558C188.976 49.6122 188.831 51.343 189.297 52.898C189.569 53.8045 190.066 54.6757 190.844 55.2112C191.733 55.8232 192.923 55.9236 193.944 55.5736C194.964 55.2236 195.815 54.4548 196.371 53.5282L196.346 53.4717Z" fill="white"/>
<path d="M192.744 55.9838C192.012 55.9838 191.298 55.7791 190.725 55.3851C189.786 54.7396 189.321 53.7088 189.095 52.959C188.614 51.3525 188.762 49.568 189.504 48.0619C189.55 47.9701 189.654 47.9242 189.752 47.9529C191.371 48.4282 192.976 48.1948 194.523 47.2605C194.609 47.2089 194.72 47.2251 194.787 47.2988C194.855 47.3724 194.861 47.4843 194.803 47.5656C194.796 47.5761 194.018 48.6701 194.159 49.5374C194.205 49.8224 194.344 50.0462 194.584 50.2193C195.278 50.7194 195.686 51.0187 195.898 51.1746C196.103 50.8495 196.343 50.6085 196.614 50.4564C197.042 50.2155 197.555 50.2126 197.921 50.4488C198.26 50.6678 198.413 51.035 198.483 51.3037C198.651 51.953 198.496 52.654 198.08 53.134C197.689 53.5854 197.064 53.8101 196.498 53.7231C195.885 54.7062 195.005 55.432 194.012 55.7734C193.6 55.9149 193.169 55.9838 192.744 55.9838ZM189.807 48.4071C189.177 49.7832 189.065 51.3879 189.499 52.8366C189.705 53.5223 190.126 54.4594 190.963 55.0361C191.762 55.5859 192.879 55.715 193.876 55.3727C194.776 55.0638 195.576 54.4021 196.138 53.5032C196.134 53.4726 196.136 53.44 196.145 53.4075C196.179 53.2956 196.297 53.2344 196.409 53.2679C196.87 53.4113 197.427 53.2421 197.763 52.8548C198.089 52.479 198.209 51.9253 198.076 51.4089C198.005 51.1325 197.869 50.9174 197.693 50.8036C197.461 50.6534 197.11 50.6611 196.82 50.8246C196.565 50.968 196.339 51.2234 196.147 51.5829C196.118 51.6374 196.067 51.6766 196.007 51.69C195.947 51.7034 195.884 51.69 195.835 51.6527C195.831 51.6499 195.459 51.3706 194.338 50.5616C194.006 50.3226 193.805 49.9993 193.743 49.6025C193.652 49.0383 193.86 48.4291 194.075 47.9816C192.685 48.6462 191.252 48.7887 189.807 48.4062V48.4071Z" fill="#3D3D3D"/>
<path d="M196.18 52.6707C196.125 52.6707 196.07 52.6487 196.029 52.6057C195.948 52.5216 195.951 52.3877 196.035 52.3064C196.334 52.0166 196.723 51.813 197.131 51.7326C197.246 51.7097 197.355 51.7852 197.378 51.9C197.401 52.0147 197.326 52.1257 197.212 52.1486C196.882 52.2136 196.568 52.3781 196.327 52.6115C196.286 52.6507 196.234 52.6707 196.18 52.6707Z" fill="#3D3D3D"/>
<path d="M201.669 57.8068C201.607 57.8068 201.546 57.78 201.504 57.7274L198.045 53.3926C197.973 53.3017 197.987 53.1688 198.077 53.0951C198.169 53.0225 198.301 53.0368 198.373 53.1277L201.833 57.4625C201.905 57.5533 201.891 57.6863 201.801 57.7599C201.762 57.7915 201.715 57.8068 201.669 57.8068Z" fill="#3D3D3D"/>
<path d="M196.825 60.9711C196.76 60.9711 196.696 60.9405 196.655 60.884L193.084 55.9314C193.015 55.8368 193.036 55.7048 193.13 55.6359C193.225 55.5671 193.356 55.5891 193.425 55.6828L196.996 60.6354C197.064 60.7301 197.043 60.862 196.949 60.9309C196.912 60.9586 196.868 60.9711 196.825 60.9711Z" fill="#3D3D3D"/>
<path d="M189.437 48.2761C189.406 48.2761 189.374 48.2695 189.344 48.2542C188.623 47.8955 188.053 47.2567 187.777 46.4994C187.737 46.3894 187.794 46.268 187.903 46.2278C188.013 46.1876 188.133 46.244 188.174 46.354C188.412 47.01 188.907 47.5637 189.531 47.8745C189.635 47.9261 189.677 48.0533 189.626 48.1576C189.589 48.2322 189.514 48.2752 189.437 48.2752V48.2761Z" fill="#3D3D3D"/>
<path d="M218.9 85.1748C218.9 85.1748 233.169 125.43 252.395 140.742C254.041 142.052 254.978 144.055 254.913 146.16C254.729 152.223 253.084 164.561 243.394 172.425C242.322 173.294 240.722 172.549 240.698 171.168L240.522 161.048C240.522 161.048 222.755 146.496 209.957 119.087C209.957 119.087 201.322 161.361 198.545 168.723C197.667 171.052 196.427 173.188 193.942 173.207L171.197 173.379C170.119 173.386 169.521 172.133 170.203 171.297L176.095 164.098C176.095 164.098 186.653 129.168 195.77 87.3417L218.899 85.1738L218.9 85.1748Z" fill="#3D3D3D"/>
<path d="M209.955 119.353C209.871 119.353 209.791 119.302 209.759 119.218C208.788 116.718 203.228 100.788 202.781 99.508L199.665 97.9234C199.561 97.8708 199.519 97.7436 199.571 97.6394C199.625 97.5352 199.75 97.494 199.854 97.5457L203.047 99.1685C203.096 99.1934 203.133 99.2354 203.151 99.2871C203.211 99.4583 209.147 116.479 210.151 119.064C210.193 119.173 210.14 119.295 210.031 119.337C210.006 119.347 209.98 119.352 209.955 119.352V119.353Z" fill="white"/>
<path d="M197.358 165.112H197.353L177.36 164.638C177.244 164.635 177.151 164.538 177.154 164.421C177.157 164.305 177.257 164.217 177.369 164.215L197.363 164.689C197.479 164.692 197.572 164.789 197.569 164.905C197.566 165.02 197.473 165.112 197.358 165.112Z" fill="white"/>
<path d="M241.348 160.975C241.288 160.975 241.229 160.949 241.187 160.9C241.112 160.811 241.123 160.677 241.211 160.602C247.369 155.354 250.837 148.269 250.976 140.651C250.978 140.535 251.072 140.443 251.186 140.443H251.19C251.306 140.445 251.398 140.542 251.397 140.659C251.256 148.4 247.735 155.597 241.483 160.924C241.443 160.958 241.396 160.974 241.347 160.974L241.348 160.975Z" fill="white"/>
<path d="M219.738 87.3238L194.076 93.9824C193.703 94.079 193.342 93.793 193.349 93.4067L193.629 77.6873L191.129 75.0556C191.129 75.0556 194.961 56.1852 203.047 57.4409C210.613 58.6152 218.703 80.8239 220.52 86.0902C220.716 86.6592 220.334 87.2616 219.737 87.3238H219.738Z" fill="#00CB82"/>
<path d="M202.675 80.5264C202.675 80.5264 198.65 87.0244 196.854 89.0986C193.739 92.698 188.596 93.8274 184.207 91.8814L169.531 85.3729C168.961 85.1204 168.301 85.1577 167.774 85.4848C166.679 86.1657 164.7 87.0483 163.679 85.3633C163.679 85.3633 161.92 85.2534 161.865 83.9595C161.865 83.9595 160.226 83.7357 160.185 82.5299C160.185 82.5299 159.256 82.4868 159.189 81.5286C159.123 80.5704 161.855 74.7122 169.116 75.6092C172.952 76.0826 177.701 77.2435 181.468 78.6416C190.141 81.8605 190.413 77.3392 191.28 75.0039C191.28 75.0039 196.605 75.6035 202.673 80.5274L202.675 80.5264Z" fill="white"/>
<path d="M188.95 93.2081C187.431 93.2081 185.828 92.8294 184.123 92.073L169.446 85.5645C168.934 85.3369 168.35 85.3742 167.886 85.663C167.063 86.1747 165.863 86.7322 164.818 86.4807C164.301 86.3563 163.877 86.0484 163.558 85.5626C162.9 85.4909 161.822 85.1218 161.672 84.1368C161.245 84.044 160.144 83.7103 159.992 82.7148C159.591 82.6297 159.034 82.318 158.98 81.5405C158.939 80.9524 159.636 79.167 161.171 77.7048C162.542 76.3986 164.997 74.9412 168.908 75.4251C173.158 75.9491 178.119 77.133 181.544 78.4402C187.447 80.6932 189.227 79.0656 190.051 77.6446C190.111 77.5442 190.239 77.5098 190.34 77.5681C190.44 77.6274 190.474 77.7565 190.416 77.8578C188.983 80.327 186.117 80.6368 181.395 78.8352C177.999 77.5384 173.077 76.3651 168.858 75.8439C165.111 75.3811 162.768 76.7667 161.463 78.0109C159.945 79.4577 159.373 81.1006 159.402 81.5109C159.454 82.2721 160.167 82.3141 160.198 82.316C160.307 82.3208 160.395 82.4098 160.399 82.5197C160.433 83.5353 161.882 83.7447 161.897 83.7466C161.998 83.76 162.075 83.8451 162.079 83.9475C162.124 85.0376 163.679 85.1476 163.696 85.1486C163.764 85.1533 163.827 85.1906 163.862 85.2499C164.132 85.6946 164.477 85.9614 164.919 86.0685C165.823 86.2856 166.911 85.7711 167.667 85.3025C168.249 84.9401 168.979 84.8932 169.619 85.1763L184.295 91.6848C187.737 93.212 190.734 93.1441 193.456 91.4772C193.555 91.416 193.684 91.4476 193.745 91.548C193.806 91.6475 193.775 91.7775 193.675 91.8387C192.185 92.751 190.619 93.2081 188.952 93.2081H188.95Z" fill="#3D3D3D"/>
<path d="M163.751 85.2385C163.735 85.2385 163.718 85.2366 163.702 85.2328C163.589 85.206 163.519 85.0922 163.545 84.9784C163.74 84.1445 164.221 83.3967 164.897 82.8717C164.99 82.801 165.122 82.8182 165.193 82.91C165.264 83.0027 165.247 83.1357 165.154 83.2064C164.555 83.6721 164.128 84.3358 163.955 85.075C163.932 85.1726 163.845 85.2376 163.75 85.2376L163.751 85.2385Z" fill="#3D3D3D"/>
<path d="M161.951 83.905C161.939 83.905 161.926 83.9041 161.913 83.9022C161.799 83.8811 161.723 83.7712 161.743 83.6564C161.937 82.5796 162.529 81.5602 163.369 80.8593C163.458 80.7847 163.591 80.7971 163.665 80.887C163.739 80.9769 163.727 81.1098 163.638 81.1844C162.873 81.8223 162.334 82.7508 162.158 83.731C162.14 83.8333 162.05 83.905 161.95 83.905H161.951Z" fill="#3D3D3D"/>
<path d="M160.184 82.4406C160.168 82.4406 160.153 82.4387 160.138 82.4358C160.025 82.411 159.952 82.2981 159.978 82.1834C160.193 81.206 160.711 80.289 161.437 79.6004C161.521 79.5201 161.655 79.5249 161.735 79.6091C161.815 79.6942 161.811 79.828 161.726 79.9084C161.062 80.5386 160.586 81.3791 160.39 82.2742C160.368 82.3727 160.282 82.4397 160.184 82.4397L160.184 82.4406Z" fill="#3D3D3D"/>
<path d="M203.445 80.9753C203.421 80.9753 203.397 80.9715 203.373 80.9629C203.263 80.9227 203.207 80.8013 203.247 80.6922C204.514 77.2008 206.515 70.7947 206.535 70.7306C206.57 70.6187 206.688 70.5566 206.799 70.592C206.91 70.6273 206.971 70.7459 206.937 70.8569C206.917 70.9209 204.912 77.3366 203.642 80.8366C203.611 80.9227 203.531 80.9762 203.444 80.9762L203.445 80.9753Z" fill="#3D3D3D"/>
<path d="M191.262 75.1184C191.246 75.1184 191.23 75.1165 191.214 75.1127C191.101 75.0859 191.03 74.973 191.057 74.8592C191.071 74.7961 192.553 68.4847 195.677 62.2105C195.73 62.1062 195.856 62.0642 195.96 62.1158C196.064 62.1684 196.107 62.2946 196.055 62.3998C192.953 68.63 191.483 74.8927 191.467 74.9549C191.445 75.0524 191.358 75.1184 191.263 75.1184H191.262Z" fill="#3D3D3D"/>
<path d="M163.289 76.4107C163.289 76.4107 160.021 74.0544 156.839 73.1058C156.385 72.97 153.972 73.4548 153.582 73.5792C153.077 73.7408 152.864 75.7882 154.944 75.2976C155.356 75.2001 160.657 78.4591 160.657 78.4591C160.657 78.4591 162.116 76.9998 163.289 76.4107Z" fill="white"/>
<path d="M160.657 78.67C160.619 78.67 160.581 78.6595 160.546 78.6384C158.133 77.1552 155.377 75.564 154.972 75.5066C153.514 75.8422 153.156 74.9816 153.082 74.709C152.926 74.1448 153.138 73.4974 153.517 73.376C153.878 73.2603 156.36 72.741 156.898 72.9017C160.078 73.8493 163.378 76.2142 163.411 76.2372C163.471 76.2802 163.504 76.3519 163.498 76.4256C163.493 76.4992 163.449 76.5652 163.382 76.5977C162.254 77.1648 160.819 78.5925 160.805 78.6069C160.764 78.647 160.71 78.6681 160.656 78.6681L160.657 78.67ZM154.934 75.0877C155.453 75.0877 158.267 76.744 160.627 78.1928C160.966 77.8667 161.96 76.941 162.889 76.3902C162.037 75.8107 159.362 74.0788 156.78 73.309C156.413 73.1991 154.121 73.6294 153.646 73.7814C153.547 73.813 153.381 74.206 153.489 74.5981C153.627 75.0982 154.127 75.2742 154.897 75.0916C154.907 75.0887 154.92 75.0877 154.934 75.0877Z" fill="#3D3D3D"/>
<path d="M154.818 77.2321L153.308 78.7478C152.942 79.116 152.342 79.116 151.975 78.7478C151.609 78.3797 151.609 77.7772 151.975 77.409L153.485 75.8933C153.851 75.5251 154.451 75.5251 154.818 75.8933C155.184 76.2615 155.184 76.8639 154.818 77.2321Z" fill="white"/>
<path d="M152.642 79.2365C152.347 79.2365 152.05 79.1237 151.826 78.898C151.376 78.4466 151.376 77.7113 151.826 77.2599L153.335 75.7451C153.784 75.2928 154.517 75.2938 154.966 75.7451C155.416 76.1965 155.416 76.9319 154.966 77.3832L153.458 78.899C153.233 79.1246 152.938 79.2375 152.642 79.2375V79.2365ZM154.151 75.8283C153.963 75.8283 153.776 75.9001 153.633 76.0435L152.124 77.5583C151.838 77.8451 151.838 78.3118 152.124 78.5987C152.409 78.8856 152.874 78.8856 153.16 78.5987L154.668 77.083C154.954 76.7961 154.954 76.3294 154.668 76.0435C154.525 75.9001 154.338 75.8283 154.15 75.8283H154.151Z" fill="#3D3D3D"/>
<path d="M159.126 80.9802L157.915 82.208C157.548 82.5762 156.948 82.5762 156.581 82.208C156.215 81.8399 156.215 81.2374 156.581 80.8692L157.793 79.6414C158.159 79.2732 158.759 79.2732 159.126 79.6414C159.492 80.0095 159.492 80.612 159.126 80.9802Z" fill="white"/>
<path d="M157.247 82.6973C156.952 82.6973 156.656 82.5845 156.432 82.3588C155.982 81.9074 155.982 81.1721 156.432 80.7207L157.643 79.4928C157.861 79.2738 158.151 79.1543 158.459 79.1543C158.768 79.1543 159.058 79.2738 159.274 79.4928C159.724 79.9442 159.724 80.6786 159.274 81.1309L158.063 82.3588C157.838 82.5845 157.542 82.6983 157.247 82.6983V82.6973ZM158.459 79.577C158.263 79.577 158.079 79.6525 157.941 79.7912L156.73 81.0191C156.592 81.1577 156.516 81.3423 156.516 81.5393C156.516 81.7363 156.591 81.9208 156.729 82.0595C157.004 82.3359 157.489 82.3359 157.764 82.0595L158.975 80.8316C159.112 80.6939 159.189 80.5084 159.189 80.3114C159.189 80.1144 159.113 79.9298 158.975 79.7912C158.838 79.6535 158.653 79.577 158.457 79.577H158.459Z" fill="#3D3D3D"/>
<path d="M156.505 78.2282L154.351 80.3416C153.985 80.7098 153.385 80.7098 153.018 80.3416C152.651 79.9734 152.651 79.371 153.018 79.0028L155.172 76.8894C155.539 76.5212 156.139 76.5212 156.505 76.8894C156.872 77.2576 156.872 77.86 156.505 78.2282Z" fill="white"/>
<path d="M153.684 80.8305C153.389 80.8305 153.093 80.7177 152.868 80.492C152.651 80.2739 152.531 79.9832 152.531 79.6724C152.531 79.3616 152.65 79.0709 152.868 78.8529L155.024 76.7376C155.473 76.2872 156.204 76.2881 156.654 76.7395C157.103 77.1909 157.103 77.9263 156.654 78.3776L156.652 78.3795L154.498 80.4929C154.274 80.7177 153.979 80.8305 153.684 80.8305ZM155.838 76.8237C155.651 76.8237 155.463 76.8954 155.32 77.0388L153.165 79.1541C152.881 79.4391 152.881 79.9058 153.166 80.1927C153.452 80.4795 153.917 80.4795 154.202 80.1927L156.357 78.0783C156.642 77.7914 156.642 77.3257 156.357 77.0388C156.215 76.8954 156.027 76.8237 155.839 76.8237H155.838Z" fill="#3D3D3D"/>
<path d="M157.857 79.5583L156.013 81.3991C155.646 81.7673 155.046 81.7673 154.68 81.3991C154.313 81.031 154.313 80.4285 154.68 80.0603L156.524 78.2195C156.891 77.8513 157.491 77.8513 157.857 78.2195C158.224 78.5877 158.224 79.1901 157.857 79.5583Z" fill="white"/>
<path d="M155.346 81.8865C155.038 81.8865 154.747 81.7669 154.53 81.548C154.081 81.0966 154.081 80.3612 154.53 79.9098L156.375 78.069C156.824 77.6176 157.555 77.6176 158.006 78.069C158.455 78.5204 158.455 79.2557 158.006 79.7071L156.161 81.548C155.945 81.766 155.655 81.8855 155.346 81.8855V81.8865ZM157.191 78.1531C157.003 78.1531 156.816 78.2249 156.673 78.3683L154.828 80.2101C154.543 80.496 154.543 80.9627 154.828 81.2496C155.103 81.526 155.588 81.526 155.863 81.2496L157.708 79.4087C157.993 79.1219 157.993 78.6562 157.708 78.3693C157.565 78.2258 157.377 78.1541 157.19 78.1541L157.191 78.1531Z" fill="#3D3D3D"/>
<path d="M169.5 49.7508C177.353 49.7508 183.72 43.3676 183.72 35.4936C183.72 27.6195 177.353 21.2363 169.5 21.2363C161.646 21.2363 155.28 27.6195 155.28 35.4936C155.28 43.3676 161.646 49.7508 169.5 49.7508Z" fill="white"/>
<path d="M169.5 49.9625C161.543 49.9625 155.069 43.4713 155.069 35.494C155.069 27.5166 161.543 21.0254 169.5 21.0254C177.457 21.0254 183.931 27.5166 183.931 35.494C183.931 43.4713 177.457 49.9625 169.5 49.9625ZM169.5 21.4481C161.775 21.4481 155.49 27.749 155.49 35.494C155.49 43.2389 161.775 49.5399 169.5 49.5399C177.225 49.5399 183.51 43.2389 183.51 35.494C183.51 27.749 177.225 21.4481 169.5 21.4481Z" fill="#3D3D3D"/>
<path d="M185.43 31.5827C183.729 24.3551 177.264 18.9732 169.54 18.9512V35.4385C169.54 35.4385 182.781 32.1957 185.43 31.5827Z" fill="#3D3D3D"/>
<path d="M160.239 23.1738C156.898 25.6841 154.767 29.4212 154.211 33.452C157.973 33.9569 169.557 35.4927 169.557 35.4927C169.557 35.4927 161.766 25.2384 160.238 23.1738H160.239Z" fill="white"/>
<path d="M169.558 35.7045C169.549 35.7045 169.54 35.7045 169.53 35.7026C169.53 35.7026 157.945 34.1668 154.184 33.6619C154.129 33.6542 154.079 33.6256 154.044 33.5806C154.01 33.5357 153.996 33.4792 154.003 33.4238C154.573 29.2917 156.8 25.4943 160.113 23.0051C160.158 22.9716 160.213 22.9573 160.27 22.9649C160.326 22.9726 160.376 23.0032 160.409 23.0481C161.919 25.0888 169.648 35.2627 169.726 35.365C169.778 35.4329 169.783 35.5257 169.742 35.5993C169.703 35.6653 169.634 35.7045 169.56 35.7045H169.558ZM154.451 33.2708C157.913 33.7346 166.866 34.9223 169.083 35.2159C167.664 33.3482 161.762 25.5736 160.197 23.4708C157.122 25.8519 155.04 29.4017 154.451 33.2708Z" fill="#3D3D3D"/>
</svg>
