<svg width="258" height="173" viewBox="0 0 258 173" fill="none" xmlns="http://www.w3.org/2000/svg">
<g clip-path="url(#clip0_1287_30803)">
<path d="M29.7149 132.34H167.114V157.842H29.7149C26.4681 157.842 23.833 155.19 23.833 151.925V138.258C23.833 134.992 26.469 132.341 29.7149 132.341V132.34Z" fill="#00CB82"/>
<path d="M167.114 134.573H84.074C81.5442 134.573 79.4937 136.636 79.4937 139.18V151C79.4937 153.545 81.5442 155.606 84.074 155.606H167.114V134.572V134.573Z" fill="#E3F3EC"/>
<path d="M106.299 140.025H84.7282C84.6135 140.025 84.5205 139.932 84.5205 139.816C84.5205 139.701 84.6135 139.607 84.7282 139.607H106.299C106.414 139.607 106.507 139.701 106.507 139.816C106.507 139.932 106.414 140.025 106.299 140.025Z" fill="#3D3D3D"/>
<path d="M121.817 150.601H91.3788C91.2642 150.601 91.1711 150.508 91.1711 150.393C91.1711 150.277 91.2642 150.184 91.3788 150.184H121.817C121.932 150.184 122.025 150.277 122.025 150.393C122.025 150.508 121.932 150.601 121.817 150.601Z" fill="#3D3D3D"/>
<path d="M160.278 35.6902H151.83C147.839 35.6902 143.857 35.2828 139.931 34.4726L109.335 28.1576C102.161 26.6772 94.8072 26.6838 87.6359 28.1784L57.5384 34.4499C53.5774 35.2752 49.5581 35.6902 45.5303 35.6902H36.9409C36.9409 33.5802 38.4605 31.87 40.3353 31.87H44.1921C49.0929 31.87 53.9664 31.0429 58.6492 29.4168L84.2961 20.5107C93.5414 17.3002 103.429 17.2851 112.682 20.4681L138.824 29.4603C143.47 31.058 148.299 31.87 153.157 31.87H156.883C158.757 31.87 160.277 33.5802 160.277 35.6902H160.278Z" fill="#E3F3EC"/>
<path d="M160.278 35.8989H151.829C147.836 35.8989 143.818 35.4877 139.89 34.6765L109.293 28.3616C102.12 26.8811 94.8485 26.8878 87.6781 28.3824L57.5806 34.6539C53.6168 35.4801 49.5627 35.8989 45.5302 35.8989H36.9408C36.8262 35.8989 36.7332 35.8053 36.7332 35.69C36.7332 33.4684 38.3486 31.6609 40.3352 31.6609H44.192C49.0749 31.6609 53.9165 30.8393 58.5815 29.219L84.2283 20.3128C93.5535 17.074 103.416 17.0599 112.75 20.2703L138.892 29.2625C143.519 30.8545 148.319 31.6609 153.157 31.6609H156.883C158.869 31.6609 160.486 33.4684 160.486 35.69C160.486 35.8053 160.393 35.8989 160.278 35.8989ZM98.5351 26.8396C102.157 26.8396 105.779 27.2111 109.376 27.9532L139.973 34.2682C143.874 35.0736 147.864 35.481 151.829 35.481H160.065C159.97 33.5866 158.579 32.0778 156.883 32.0778H153.157C148.273 32.0778 143.429 31.2629 138.758 29.6567L112.616 20.6645C103.371 17.4843 93.6023 17.4985 84.3646 20.707L58.7178 29.6132C54.0086 31.2487 49.1219 32.0778 44.1929 32.0778H40.3362C38.6399 32.0778 37.25 33.5866 37.1542 35.481H45.5311C49.5354 35.481 53.5613 35.0651 57.498 34.2445L87.5954 27.973C91.2248 27.2167 94.8804 26.8386 98.5361 26.8386L98.5351 26.8396Z" fill="#3D3D3D"/>
<path d="M98.6084 0.207031H98.6102C99.5462 0.207031 100.306 0.971824 100.306 1.9134V119.281H96.9121V1.91434C96.9121 0.972769 97.6724 0.207977 98.6084 0.207977V0.207031Z" fill="#E3F3EC"/>
<path d="M100.306 119.491H96.912C96.7974 119.491 96.7043 119.397 96.7043 119.282V1.91529C96.7043 0.859328 97.5586 0 98.6083 0C99.658 0 100.513 0.859328 100.513 1.91529V119.283C100.513 119.398 100.42 119.492 100.305 119.492L100.306 119.491ZM97.1188 119.074H100.099V1.91529C100.099 1.08905 99.4306 0.416902 98.6092 0.416902C97.7879 0.416902 97.1188 1.08905 97.1188 1.91529V119.074Z" fill="#3D3D3D"/>
<path d="M129.161 128.518H68.0581C69.7703 121.736 75.2745 117.057 81.5398 117.057H115.68C121.945 117.057 127.449 121.736 129.162 128.518H129.161Z" fill="#E3F3EC"/>
<path d="M129.161 128.728H68.058C67.9941 128.728 67.9339 128.699 67.8945 128.648C67.855 128.597 67.8418 128.53 67.8569 128.468C69.5841 121.627 75.2105 116.85 81.5388 116.85H115.678C122.006 116.85 127.633 121.627 129.36 128.468C129.376 128.53 129.362 128.597 129.322 128.648C129.283 128.699 129.223 128.728 129.159 128.728H129.161ZM68.3268 128.311H128.892C127.137 121.795 121.738 117.267 115.679 117.267H81.5397C75.4811 117.267 70.0822 121.794 68.3268 128.311Z" fill="#3D3D3D"/>
<path d="M63.2174 123.572H134.002C136.856 123.572 139.173 125.904 139.173 128.775V132.275H58.0459V128.775C58.0459 125.904 60.3633 123.572 63.2174 123.572Z" fill="#E3F3EC"/>
<path d="M139.173 132.483H58.0458C57.9312 132.483 57.8381 132.39 57.8381 132.274V128.774C57.8381 125.791 60.2514 123.363 63.2173 123.363H134.001C136.967 123.363 139.381 125.791 139.381 128.774V132.274C139.381 132.39 139.288 132.483 139.173 132.483ZM58.2535 132.066H138.966V128.774C138.966 126.021 136.739 123.78 134.001 123.78H63.2173C60.4798 123.78 58.2526 126.021 58.2526 128.774V132.066H58.2535Z" fill="#3D3D3D"/>
<path d="M196.185 89.1337C196.185 90.9488 183.047 102.505 159.399 102.505C135.751 102.505 122.614 90.9488 122.614 89.1337C122.614 87.3186 139.083 85.8477 159.399 85.8477C179.716 85.8477 196.185 87.3186 196.185 89.1337Z" fill="#E3F3EC"/>
<path d="M159.4 102.714C135.739 102.714 122.408 91.2645 122.408 89.1347C122.408 88.7508 122.408 87.5833 133.371 86.6039C140.325 85.9828 149.568 85.6406 159.4 85.6406C169.232 85.6406 178.476 85.9828 185.429 86.6039C196.393 87.5833 196.393 88.7508 196.393 89.1347C196.393 90.2785 192.726 93.7054 186.753 96.6871C181.247 99.4362 172.031 102.714 159.4 102.714ZM159.4 86.0575C149.581 86.0575 140.349 86.3988 133.408 87.0189C123.119 87.9378 122.822 89.0146 122.822 89.1347C122.822 89.8257 125.682 93.0787 132.123 96.3137C137.557 99.0429 146.701 102.297 159.4 102.297C172.099 102.297 181.102 99.0429 186.568 96.3137C193.085 93.0598 195.978 89.8181 195.978 89.1347C195.978 89.0146 195.681 87.9378 185.393 87.0189C178.451 86.3988 169.22 86.0575 159.4 86.0575Z" fill="#3D3D3D"/>
<path d="M159.399 92.4198C179.715 92.4198 196.185 90.9486 196.185 89.1337C196.185 87.3189 179.715 85.8477 159.399 85.8477C139.083 85.8477 122.614 87.3189 122.614 89.1337C122.614 90.9486 139.083 92.4198 159.399 92.4198Z" fill="#E3F3EC"/>
<path d="M159.4 92.6287C149.568 92.6287 140.324 92.2865 133.371 91.6654C122.408 90.686 122.408 89.5185 122.408 89.1347C122.408 88.7508 122.408 87.5833 133.371 86.6039C140.325 85.9828 149.568 85.6406 159.4 85.6406C169.232 85.6406 178.476 85.9828 185.429 86.6039C196.393 87.5833 196.393 88.7508 196.393 89.1347C196.393 89.5185 196.393 90.686 185.429 91.6654C178.475 92.2865 169.232 92.6287 159.4 92.6287ZM159.4 86.0575C149.581 86.0575 140.349 86.3988 133.408 87.0189C123.119 87.9378 122.822 89.0146 122.822 89.1347C122.822 89.2547 123.119 90.3315 133.408 91.2504C140.349 91.8705 149.581 92.2118 159.4 92.2118C169.22 92.2118 178.451 91.8705 185.393 91.2504C195.681 90.3315 195.978 89.2547 195.978 89.1347C195.978 89.0146 195.681 87.9378 185.393 87.0189C178.451 86.3988 169.22 86.0575 159.4 86.0575Z" fill="#3D3D3D"/>
<path d="M124.861 83.9578C124.818 83.9578 124.775 83.9445 124.737 83.9171C124.645 83.8491 124.626 83.7186 124.693 83.626L159.902 35.5499C159.941 35.497 160.003 35.4648 160.068 35.4648C160.134 35.4648 160.196 35.496 160.235 35.549L195.093 82.968C195.162 83.0606 195.142 83.1911 195.05 83.2592C194.958 83.3282 194.828 83.3074 194.76 83.2157L160.068 36.0235L125.026 83.8718C124.986 83.9275 124.923 83.9568 124.859 83.9568L124.861 83.9578Z" fill="#3D3D3D"/>
<path d="M73.7782 89.1337C73.7782 90.9488 60.6405 102.505 36.9925 102.505C13.3445 102.505 0.206787 90.9488 0.206787 89.1337C0.206787 87.3186 16.676 85.8477 36.9925 85.8477C57.309 85.8477 73.7782 87.3186 73.7782 89.1337Z" fill="#E3F3EC"/>
<path d="M36.9925 102.714C13.3313 102.714 0 91.2645 0 89.1347C0 88.7508 0 87.5833 10.9632 86.6039C17.9173 85.9828 27.1608 85.6406 36.9925 85.6406C46.8242 85.6406 56.0685 85.9828 63.0218 86.6039C73.9849 87.5833 73.9849 88.7508 73.9849 89.1347C73.9849 90.2785 70.318 93.7054 64.3449 96.6871C58.8389 99.4362 49.6237 102.714 36.9925 102.714ZM36.9925 86.0575C27.173 86.0575 17.9418 86.3988 10.9998 87.0189C0.711394 87.9378 0.414431 89.0146 0.414431 89.1347C0.414431 89.8257 3.2741 93.0787 9.71517 96.3137C15.1498 99.0429 24.2936 102.297 36.9925 102.297C49.6914 102.297 58.6942 99.0429 64.1608 96.3137C70.677 93.0598 73.5705 89.8181 73.5705 89.1347C73.5705 89.0146 73.2735 87.9378 62.9851 87.0189C56.0432 86.3988 46.812 86.0575 36.9925 86.0575Z" fill="#3D3D3D"/>
<path d="M36.9925 92.4198C57.3087 92.4198 73.7782 90.9486 73.7782 89.1337C73.7782 87.3189 57.3087 85.8477 36.9925 85.8477C16.6763 85.8477 0.206787 87.3189 0.206787 89.1337C0.206787 90.9486 16.6763 92.4198 36.9925 92.4198Z" fill="#E3F3EC"/>
<path d="M36.9925 92.6287C27.1608 92.6287 17.9164 92.2865 10.9632 91.6654C0 90.6869 0 89.5185 0 89.1347C0 88.7508 0 87.5833 10.9632 86.6039C17.9173 85.9828 27.1608 85.6406 36.9925 85.6406C46.8242 85.6406 56.0685 85.9828 63.0218 86.6039C73.9849 87.5833 73.9849 88.7508 73.9849 89.1347C73.9849 89.5185 73.9849 90.686 63.0218 91.6654C56.0676 92.2865 46.8242 92.6287 36.9925 92.6287ZM36.9925 86.0575C27.173 86.0575 17.9418 86.3988 10.9998 87.0189C0.711394 87.9378 0.414431 89.0146 0.414431 89.1347C0.414431 89.2547 0.711394 90.3315 10.9998 91.2504C17.9418 91.8705 27.173 92.2118 36.9925 92.2118C46.812 92.2118 56.0432 91.8705 62.9851 91.2504C73.2735 90.3315 73.5705 89.2547 73.5705 89.1347C73.5705 89.0146 73.2735 87.9378 62.9851 87.0189C56.0432 86.3988 46.812 86.0575 36.9925 86.0575Z" fill="#3D3D3D"/>
<path d="M2.45358 83.9578C2.41129 83.9578 2.36806 83.9445 2.33047 83.9171C2.23837 83.8491 2.21864 83.7186 2.2863 83.626L37.4951 35.5499C37.5336 35.497 37.5957 35.4648 37.6615 35.4648C37.7272 35.4648 37.7893 35.496 37.8278 35.549L72.6861 82.968C72.7547 83.0606 72.7349 83.1911 72.6429 83.2592C72.5508 83.3282 72.4211 83.3074 72.3534 83.2157L37.6615 36.0235L2.61991 83.8736C2.5795 83.9294 2.51654 83.9587 2.45264 83.9587L2.45358 83.9578Z" fill="#3D3D3D"/>
<path d="M230.769 60.2832L234.439 166.138C234.569 169.889 231.583 173 227.852 173H206.478C202.689 173 199.68 169.794 199.897 165.989L203.84 96.9819L183.078 168.235C182.255 171.06 179.679 173.001 176.753 173.001H151.606C147.697 173.001 145.571 168.407 148.085 165.398L150.421 162.605L187.525 60.8646L230.77 60.2851L230.769 60.2832Z" fill="#3D3D3D"/>
<path d="M179.084 170.442C179.074 170.442 179.063 170.442 179.053 170.44C156.085 166.974 152.72 163.815 152.588 163.682C152.507 163.601 152.507 163.469 152.588 163.387C152.669 163.306 152.799 163.306 152.88 163.386C152.921 163.426 156.44 166.606 179.115 170.027C179.228 170.044 179.307 170.151 179.289 170.265C179.274 170.368 179.186 170.442 179.084 170.442V170.442Z" fill="#E3F3EC"/>
<path d="M232.362 168.112C232.336 168.112 232.311 168.108 232.286 168.098C215.48 161.508 202.465 167.45 202.335 167.51C202.231 167.558 202.108 167.513 202.06 167.409C202.012 167.305 202.056 167.18 202.161 167.132C202.194 167.117 205.51 165.582 210.872 164.893C215.816 164.258 223.571 164.233 232.437 167.71C232.544 167.751 232.596 167.872 232.554 167.98C232.522 168.062 232.444 168.112 232.362 168.112Z" fill="#E3F3EC"/>
<path d="M215.313 22.8999C215.313 22.8999 229.871 23.1674 234.813 27.9774C239.754 32.7874 242.782 51.3854 242.782 51.3854L229.923 53.3092L231.039 63.0889C231.039 63.0889 220.838 67.5783 210.318 63.4093C199.798 59.2413 187.525 65.3331 187.525 65.3331L191.669 40.3219L177.802 37.9169L179.396 22.2051L215.313 22.8999Z" fill="#00CB82"/>
<path d="M225.846 53.9483C225.794 53.9483 225.74 53.9276 225.7 53.8879C225.619 53.8066 225.619 53.6742 225.7 53.5929C230.726 48.5277 227.134 43.1193 226.979 42.8915C226.914 42.7969 226.937 42.6665 227.032 42.6013C227.126 42.536 227.255 42.5597 227.321 42.6551C227.36 42.7137 231.267 48.5731 225.994 53.8879C225.954 53.9285 225.9 53.9493 225.847 53.9493L225.846 53.9483Z" fill="#3D3D3D"/>
<path d="M258 157.666H210.007L214.315 108.137H253.693L258 157.666Z" fill="#00CB82"/>
<path d="M242.044 112.84C241.929 112.84 241.836 112.746 241.836 112.631V101.192C241.836 96.6393 238.153 92.9345 233.627 92.9345C231.395 92.9345 229.307 93.8203 227.749 95.4283C227.669 95.5115 227.537 95.5125 227.455 95.4321C227.374 95.3517 227.372 95.2194 227.452 95.1372C229.089 93.4478 231.282 92.5176 233.627 92.5176C238.382 92.5176 242.251 96.4087 242.251 101.192V112.631C242.251 112.746 242.158 112.84 242.043 112.84H242.044Z" fill="#3D3D3D"/>
<path d="M225.21 108.345C225.095 108.345 225.002 108.251 225.002 108.136V101.192C225.002 98.9166 225.872 96.7659 227.451 95.1371C227.531 95.0549 227.663 95.053 227.745 95.1333C227.826 95.2137 227.828 95.346 227.748 95.4283C226.246 96.9787 225.418 99.0263 225.418 101.192V108.136C225.418 108.251 225.325 108.345 225.21 108.345Z" fill="#E3F3EC"/>
<path d="M225.21 112.841C225.095 112.841 225.002 112.747 225.002 112.632V108.137C225.002 108.021 225.095 107.928 225.21 107.928C225.325 107.928 225.418 108.021 225.418 108.137V112.632C225.418 112.747 225.325 112.841 225.21 112.841Z" fill="#3D3D3D"/>
<path d="M237.264 98.2699C237 99.3627 236.52 100.218 235.548 100.192C234.575 100.165 233.755 99.1396 233.939 98.1782C233.844 98.8664 233.741 99.5764 233.384 100.172C233.027 100.767 232.343 101.221 231.664 101.09C231.068 100.975 230.623 100.437 230.438 99.8553C230.347 99.5679 230.307 99.2701 230.293 98.9695C230.089 99.3892 229.654 99.7277 229.179 99.7532C228.369 99.7967 227.643 99.1633 227.315 98.4174C226.986 97.6706 226.969 96.8292 226.957 96.0124C228.083 71.54 226.819 52.8749 226.819 52.8749C227.857 51.9787 239.692 50.7535 242.194 51.4531C242.49 52.6839 242.633 74.3798 239.996 95.4858C239.902 96.2402 239.709 97.0117 239.254 97.6195C238.799 98.2274 237.945 98.6036 237.264 98.2718L237.264 98.2699Z" fill="#E3F3EC"/>
<path d="M231.903 101.321C231.812 101.321 231.719 101.312 231.626 101.294C230.883 101.151 230.423 100.489 230.241 99.9179C230.2 99.7931 230.168 99.6608 230.144 99.5209C229.879 99.7771 229.536 99.9416 229.19 99.9595C228.231 100.012 227.462 99.2628 227.125 98.4999C226.775 97.7039 226.762 96.8058 226.749 96.0136C227.862 71.822 226.625 53.0737 226.612 52.8874C226.605 52.7721 226.691 52.6728 226.805 52.6653C226.923 52.6624 227.018 52.7447 227.026 52.8591C227.038 53.0463 228.278 71.8163 227.164 96.0202C227.175 96.7595 227.188 97.6122 227.504 98.3307C227.774 98.9433 228.409 99.5851 229.167 99.5426C229.545 99.5228 229.923 99.2543 230.106 98.8761C230.148 98.7901 230.241 98.7438 230.335 98.7636C230.428 98.7825 230.495 98.8629 230.5 98.9584C230.514 99.2779 230.558 99.5502 230.635 99.7903C230.819 100.365 231.238 100.794 231.704 100.884C232.327 101.005 232.919 100.543 233.207 100.063C233.521 99.5398 233.629 98.8922 233.712 98.3004C233.717 98.2465 233.724 98.1926 233.735 98.1388C233.755 98.0281 233.86 97.9525 233.972 97.9724C234.083 97.9903 234.159 98.0943 234.143 98.2068C234.137 98.2531 234.13 98.3004 234.124 98.3477C234.094 98.7079 234.217 99.0869 234.471 99.4046C234.755 99.761 235.15 99.9718 235.552 99.9822C236.294 100.006 236.766 99.4424 237.061 98.2201C237.076 98.1586 237.118 98.1076 237.174 98.0801C237.232 98.0537 237.297 98.0537 237.353 98.0811C237.945 98.3694 238.699 98.0083 239.087 97.4912C239.454 97.0015 239.677 96.3558 239.789 95.4577C242.445 74.1948 242.27 52.6634 241.991 51.4997C241.964 51.3881 242.033 51.2747 242.144 51.2482C242.255 51.2208 242.367 51.2898 242.394 51.4013C242.676 52.5745 242.862 74.2005 240.199 95.5097C240.078 96.4834 239.829 97.1925 239.416 97.7427C238.98 98.325 238.159 98.7636 237.403 98.5462C237.056 99.7922 236.462 100.399 235.593 100.399C235.575 100.399 235.558 100.399 235.54 100.399C235.016 100.385 234.507 100.117 234.146 99.6655C234.065 99.5644 233.996 99.4585 233.937 99.3488C233.852 99.6702 233.735 99.9869 233.56 100.278C233.241 100.809 232.609 101.319 231.901 101.319L231.903 101.321Z" fill="#3D3D3D"/>
<path d="M230.337 98.6861C230.337 98.6861 230.329 98.6861 230.324 98.6861C230.21 98.6785 230.123 98.5802 230.13 98.4649C230.18 97.6282 230.225 97.1707 230.264 96.7661C230.32 96.1866 230.36 95.7678 230.387 94.5577C230.39 94.4443 230.482 94.3535 230.595 94.3535H230.6C230.714 94.3564 230.804 94.4518 230.803 94.5672C230.775 95.7923 230.734 96.2178 230.678 96.8067C230.639 97.2075 230.596 97.6613 230.544 98.4904C230.538 98.601 230.446 98.6861 230.337 98.6861Z" fill="#3D3D3D"/>
<path d="M233.997 98.2877C233.99 98.2877 233.984 98.2877 233.978 98.2877C233.864 98.2773 233.781 98.1752 233.791 98.0609C233.876 97.1306 233.963 96.76 234.047 96.4018C234.131 96.0416 234.21 95.7013 234.293 94.8003C234.303 94.6859 234.403 94.6018 234.519 94.6122C234.632 94.6226 234.716 94.7247 234.706 94.8391C234.621 95.7693 234.534 96.1399 234.45 96.4982C234.365 96.8584 234.286 97.1987 234.204 98.0996C234.193 98.2074 234.103 98.2887 233.998 98.2887L233.997 98.2877Z" fill="#3D3D3D"/>
<path d="M237.299 98.1931C237.288 98.1931 237.278 98.1931 237.266 98.1903C237.154 98.1723 237.077 98.0655 237.094 97.9511C237.215 97.1958 237.323 96.8923 237.409 96.6494C237.509 96.3705 237.588 96.1493 237.645 95.271C237.653 95.1557 237.75 95.0725 237.866 95.0763C237.981 95.0839 238.067 95.1831 238.059 95.2985C237.998 96.2353 237.911 96.4811 237.8 96.7902C237.715 97.0294 237.619 97.2998 237.504 98.0173C237.488 98.1194 237.4 98.1931 237.299 98.1931Z" fill="#3D3D3D"/>
<path d="M206.559 27.3555H159.338V88.0747H206.559V27.3555Z" fill="#FEC432"/>
<path d="M175.272 31.5617C174.172 31.5617 173.244 30.7411 173.103 29.6445L172.273 23.2208C172.087 21.7791 173.202 20.502 174.648 20.502C175.91 20.502 176.956 21.488 177.037 22.7547L177.455 29.2191C177.536 30.4877 176.535 31.5617 175.272 31.5617Z" fill="#E3F3EC"/>
<path d="M177.455 29.428C177.347 29.428 177.255 29.3429 177.248 29.2333L176.831 22.7689C176.756 21.6156 175.798 20.7118 174.648 20.7118C174.019 20.7118 173.419 20.9841 173.005 21.4596C172.59 21.9351 172.398 22.5676 172.479 23.1953L173.012 27.3312C173.027 27.4456 172.948 27.5505 172.834 27.5647C172.719 27.5798 172.616 27.4995 172.602 27.3851L172.068 23.2492C171.971 22.5023 172.2 21.7508 172.694 21.1845C173.188 20.6192 173.9 20.2949 174.649 20.2949C176.016 20.2949 177.156 21.3698 177.245 22.7424L177.662 29.2068C177.67 29.3212 177.583 29.4204 177.469 29.428C177.464 29.428 177.459 29.428 177.456 29.428H177.455Z" fill="#3D3D3D"/>
<path d="M180.243 34.9159C178.893 34.9159 177.775 33.8646 177.685 32.5099L177.034 22.7775C176.921 21.0995 178.245 19.6758 179.917 19.6758C181.589 19.6758 182.806 20.9775 182.806 22.5827V32.3369C182.806 33.7616 181.659 34.9159 180.243 34.9159Z" fill="#E3F3EC"/>
<path d="M182.807 32.5468C182.693 32.5468 182.6 32.4532 182.6 32.3379V22.5837C182.6 21.0957 181.396 19.8857 179.917 19.8857C179.166 19.8857 178.47 20.1891 177.957 20.7412C177.444 21.2923 177.19 22.0118 177.24 22.7652L177.725 30.0095C177.733 30.1238 177.646 30.2241 177.533 30.2316C177.415 30.2363 177.319 30.1522 177.312 30.0378L176.827 22.7936C176.769 21.9238 177.063 21.0938 177.655 20.4566C178.247 19.8195 179.05 19.4688 179.917 19.4688C181.624 19.4688 183.014 20.866 183.014 22.5837V32.3379C183.014 32.4532 182.921 32.5468 182.806 32.5468H182.807Z" fill="#3D3D3D"/>
<path d="M185.305 34.9159C183.889 34.9159 182.742 33.7616 182.742 32.3369V22.5827C182.742 20.9775 184.036 19.6758 185.631 19.6758C187.227 19.6758 188.627 21.0995 188.515 22.7775L187.863 32.5099C187.773 33.8637 186.655 34.9159 185.305 34.9159Z" fill="#E3F3EC"/>
<path d="M182.742 32.5468C182.627 32.5468 182.534 32.4532 182.534 32.3379V22.5837C182.534 20.866 183.923 19.4688 185.631 19.4688C186.499 19.4688 187.301 19.8195 187.893 20.4566C188.485 21.0938 188.78 21.9229 188.721 22.7936L188.203 30.9C188.196 31.0144 188.102 31.0985 187.984 31.0947C187.87 31.0872 187.782 30.9879 187.79 30.8735L188.308 22.7661C188.359 22.0118 188.104 21.2933 187.591 20.7412C187.078 20.1891 186.382 19.8857 185.631 19.8857C184.152 19.8857 182.948 21.0957 182.948 22.5837V32.3379C182.948 32.4532 182.855 32.5468 182.741 32.5468H182.742Z" fill="#3D3D3D"/>
<path d="M190.283 33.338C188.96 33.338 187.912 32.214 187.997 30.8867L188.502 22.9249C188.589 21.5626 189.713 20.502 191.071 20.502C192.63 20.502 193.831 21.885 193.62 23.4392L192.553 31.3442C192.399 32.4862 191.429 33.3389 190.282 33.3389L190.283 33.338Z" fill="#E3F3EC"/>
<path d="M187.997 31.0946C187.997 31.0946 187.988 31.0946 187.984 31.0946C187.869 31.087 187.782 30.9878 187.79 30.8734L188.296 22.9116C188.389 21.4435 189.607 20.293 191.071 20.293C192.434 20.293 193.587 21.2733 193.814 22.6233C193.833 22.7367 193.757 22.8445 193.644 22.8634C193.53 22.8814 193.424 22.8057 193.405 22.6923C193.212 21.5437 192.231 20.7099 191.071 20.7099C189.826 20.7099 188.789 21.6883 188.709 22.9381L188.203 30.8999C188.196 31.0105 188.106 31.0955 187.997 31.0955V31.0946Z" fill="#3D3D3D"/>
<path d="M182.949 82.2106C182.911 82.2106 182.872 82.2002 182.839 82.1794L173.563 76.3626C170 74.1278 167.872 70.2727 167.872 66.0479V41.2597C167.872 41.1444 167.965 41.0508 168.08 41.0508H197.816C197.931 41.0508 198.024 41.1444 198.024 41.2597V66.0479C198.024 70.2717 195.896 74.1278 192.333 76.3626L183.058 82.1794C183.024 82.2002 182.986 82.2106 182.948 82.2106H182.949ZM168.287 41.4677V66.0469C168.287 70.1261 170.342 73.8499 173.783 76.0072L182.949 81.7549L192.114 76.0072C195.555 73.8489 197.61 70.1261 197.61 66.0469V41.4677H168.287Z" fill="#3D3D3D"/>
<path d="M175.04 73.9812C172.3 72.2626 170.664 69.297 170.664 66.0488V43.8594H195.233V66.0488C195.233 69.297 193.597 72.2626 190.857 73.9812L182.949 78.9406L175.04 73.9812Z" fill="#3D3D3D"/>
<path d="M181.322 66.8394C181.154 66.8394 180.998 66.7581 180.901 66.6211L175.961 59.6651C175.795 59.4307 175.849 59.1055 176.082 58.9382C176.315 58.7708 176.638 58.8247 176.804 59.0592L181.323 65.4223L189.509 53.9476C189.675 53.7141 189.999 53.6602 190.233 53.8285C190.465 53.9968 190.518 54.322 190.351 54.5564L181.743 66.622C181.645 66.7581 181.489 66.8394 181.322 66.8394Z" fill="#E3F3EC"/>
<path d="M200.488 17.9559C200.488 17.9559 202.082 23.888 213.485 23.9608C225.035 24.0345 226.15 18.1166 226.15 18.1166C226.15 18.1166 223.881 18.0211 223.679 15.5509C223.312 11.0623 221.687 -1.284 215.312 1.4424C215.312 1.4424 209.043 -2.80981 205.589 6.01225C202.322 14.356 204.92 18.6072 200.489 17.9568L200.488 17.9559Z" fill="#3D3D3D"/>
<path d="M216.772 22.7393L216.78 13.8652H210.045L210.077 22.7119L205.959 22.7383C205.959 22.7383 207.06 27.9841 213.507 27.9813C220.241 27.9784 220.45 23.4994 220.45 23.4994L216.771 22.7374L216.772 22.7393Z" fill="#E3F3EC"/>
<path d="M218.745 9.24588C218.596 9.24588 218.455 9.31678 218.329 9.44252C217.607 6.83334 216.391 9.27708 214.7 5.27539C214.272 9.05019 209.172 6.80781 208.438 9.38958C208.327 9.29693 208.206 9.24588 208.08 9.24588C207.526 9.24588 207.077 10.2224 207.077 11.4278C207.077 12.6331 207.526 13.6096 208.08 13.6096C208.165 13.6096 208.248 13.586 208.327 13.5435C208.955 16.3559 210.978 18.4149 213.377 18.4149C215.776 18.4149 217.817 16.336 218.435 13.5038C218.533 13.5728 218.637 13.6096 218.745 13.6096C219.299 13.6096 219.748 12.6331 219.748 11.4278C219.748 10.2224 219.299 9.24588 218.745 9.24588Z" fill="#E3F3EC"/>
<path d="M213.377 18.6244C211.009 18.6244 208.896 16.6571 208.177 13.8126C208.145 13.8173 208.112 13.8192 208.08 13.8192C207.39 13.8192 206.87 12.7916 206.87 11.4284C206.87 10.0652 207.39 9.03758 208.08 9.03758C208.165 9.03758 208.247 9.0527 208.326 9.08295C208.786 8.01565 210.022 7.82563 211.22 7.64129C212.791 7.40022 214.276 7.17145 214.493 5.25143C214.503 5.15689 214.576 5.08221 214.669 5.06898C214.764 5.05385 214.853 5.10679 214.89 5.19376C215.777 7.2934 216.484 7.53068 217.108 7.7396C217.612 7.90882 218.091 8.06859 218.442 9.10753C218.54 9.06121 218.641 9.03758 218.744 9.03758C219.433 9.03758 219.954 10.0652 219.954 11.4284C219.954 12.7916 219.433 13.8192 218.744 13.8192C218.688 13.8192 218.633 13.8126 218.578 13.7984C217.862 16.6524 215.751 18.6244 213.376 18.6244H213.377ZM208.326 13.3352C208.356 13.3352 208.385 13.3408 208.412 13.3541C208.471 13.3805 208.514 13.4344 208.529 13.4978C209.149 16.2705 211.142 18.2066 213.377 18.2066C215.611 18.2066 217.623 16.2544 218.233 13.459C218.248 13.3909 218.296 13.3352 218.36 13.3096C218.424 13.2851 218.497 13.2936 218.555 13.3333C218.62 13.3786 218.684 13.4013 218.746 13.4013C219.121 13.4013 219.541 12.5571 219.541 11.4274C219.541 10.2977 219.121 9.45353 218.746 9.45353C218.657 9.45353 218.566 9.49891 218.475 9.58966C218.422 9.64166 218.346 9.66151 218.276 9.6426C218.205 9.6237 218.149 9.56792 218.129 9.49702C217.831 8.42026 217.491 8.30587 216.977 8.13382C216.368 7.92962 215.624 7.68099 214.775 5.94438C214.275 7.59307 212.694 7.83603 211.282 8.05252C210.02 8.24631 208.93 8.41364 208.637 9.44597C208.618 9.51404 208.565 9.56698 208.498 9.58777C208.432 9.60857 208.358 9.59439 208.305 9.54996C208.229 9.48662 208.153 9.45448 208.079 9.45448C207.703 9.45448 207.283 10.2987 207.283 11.4284C207.283 12.5581 207.703 13.4023 208.079 13.4023C208.128 13.4023 208.176 13.389 208.226 13.3616C208.257 13.3446 208.291 13.3361 208.326 13.3361L208.326 13.3352Z" fill="#3D3D3D"/>
<path d="M36.9446 89.3781C44.7967 89.3781 51.1621 82.9751 51.1621 75.0767C51.1621 67.1783 44.7967 60.7754 36.9446 60.7754C29.0925 60.7754 22.7271 67.1783 22.7271 75.0767C22.7271 82.9751 29.0925 89.3781 36.9446 89.3781Z" fill="#00CB82"/>
<path d="M36.9447 86.5291C30.6671 86.5291 25.5596 81.392 25.5596 75.077C25.5596 68.7621 30.6671 63.625 36.9447 63.625C43.2222 63.625 48.3298 68.7621 48.3298 75.077C48.3298 81.392 43.2222 86.5291 36.9447 86.5291ZM36.9447 64.0419C30.8955 64.0419 25.974 68.9918 25.974 75.077C25.974 81.1623 30.8955 86.1122 36.9447 86.1122C42.9939 86.1122 47.9154 81.1623 47.9154 75.077C47.9154 68.9918 42.9939 64.0419 36.9447 64.0419Z" fill="#3D3D3D"/>
<path d="M36.2134 83.9585V81.7728C34.9663 81.7511 33.6751 81.3616 32.9224 80.8208L33.4383 79.3716C34.2126 79.8906 35.331 80.3018 36.5357 80.3018C38.0628 80.3018 39.0956 79.4151 39.0956 78.1814C39.0956 76.9477 38.2573 76.2557 36.6654 75.6063C34.4711 74.7403 33.116 73.7458 33.116 71.8627C33.116 69.9795 34.3856 68.7033 36.3647 68.379V66.1934H37.6982V68.292C38.9885 68.3355 39.8709 68.6815 40.4949 69.0493L39.9574 70.4777C39.5053 70.2177 38.6239 69.7422 37.2471 69.7422C35.5913 69.7422 34.9673 70.7377 34.9673 71.6027C34.9673 72.7277 35.7632 73.2901 37.6343 74.0691C39.8502 74.9776 40.9685 76.1026 40.9685 78.0283C40.9685 79.7375 39.7854 81.3389 37.5694 81.7066V83.9566H36.2143L36.2134 83.9585Z" fill="#3D3D3D"/>
</g>
<defs>
<clipPath id="clip0_1287_30803">
<rect width="258" height="173" fill="white"/>
</clipPath>
</defs>
</svg>
