<svg width="268" height="179" viewBox="0 0 268 179" fill="none" xmlns="http://www.w3.org/2000/svg">
<g clip-path="url(#clip0_1287_31125)">
<path d="M133.859 57.0252C133.859 57.0252 135.681 55.3976 133.351 54.5965C133.351 54.5965 134.303 53.4061 132.806 52.784C132.806 52.784 133.654 50.5998 130.52 51.1251C128.478 51.4674 127.573 51.8714 127.573 51.8714C127.573 51.8714 128.506 50.724 128.011 49.9963C127.682 49.5111 114.98 51.9516 106.236 53.5372L101.925 68.6367C103.097 68.4881 104.266 68.2572 105.421 67.9413C115.957 65.0665 130.107 61.1706 132.343 60.3793C135.058 59.4178 135.79 58.0268 133.859 57.0252Z" fill="white"/>
<path d="M101.925 68.8522C101.862 68.8522 101.803 68.8248 101.762 68.7769C101.715 68.7221 101.698 68.6468 101.718 68.5773L106.029 53.4777C106.051 53.3985 106.117 53.3398 106.198 53.3252C107.63 53.0659 109.169 52.7833 110.743 52.4937C114.801 51.7484 118.997 50.9776 122.269 50.4328C127.93 49.4918 128.062 49.6865 128.19 49.8752C128.531 50.378 128.328 51.0118 128.096 51.4579C128.579 51.3072 129.362 51.1009 130.486 50.913C131.66 50.7164 132.457 50.8661 132.856 51.3581C133.213 51.7973 133.14 52.3705 133.067 52.6669C133.485 52.8781 133.742 53.1618 133.831 53.511C133.93 53.8944 133.795 54.2603 133.674 54.4891C134.287 54.7483 134.641 55.1024 134.731 55.5465C134.848 56.1265 134.463 56.6821 134.209 56.9746C135.03 57.4754 135.184 58.0026 135.158 58.3704C135.102 59.1911 134.128 59.9765 132.417 60.583C130.208 61.3655 116.549 65.1294 105.479 68.1499C104.326 68.4648 103.139 68.7006 101.952 68.8512C101.943 68.8522 101.934 68.8532 101.925 68.8532V68.8522ZM106.407 53.7252L102.223 68.3797C103.281 68.2311 104.336 68.0149 105.365 67.7342C116.429 64.7156 130.076 60.9547 132.272 60.1761C133.767 59.6469 134.684 58.9602 134.727 58.3401C134.762 57.8442 134.22 57.4558 133.76 57.2172C133.698 57.1849 133.655 57.1233 133.646 57.0528C133.637 56.9824 133.663 56.912 133.715 56.865C133.722 56.8582 134.427 56.2175 134.308 55.6306C134.239 55.2902 133.894 55.0115 133.281 54.8012C133.215 54.7787 133.164 54.7249 133.145 54.6574C133.125 54.5899 133.14 54.5175 133.184 54.4627C133.187 54.4588 133.521 54.0294 133.414 53.6166C133.348 53.3594 133.116 53.1471 132.725 52.9848C132.617 52.9398 132.565 52.8165 132.607 52.7079C132.609 52.7021 132.856 52.0399 132.521 51.63C132.23 51.274 131.551 51.1732 130.557 51.3395C128.574 51.6721 127.671 52.0663 127.662 52.0702C127.57 52.1113 127.463 52.0829 127.404 52.0037C127.343 51.9245 127.345 51.8139 127.408 51.7366C127.632 51.4598 128.137 50.6519 127.861 50.1599C126.948 49.9555 117.642 51.6652 110.822 52.9182C109.296 53.198 107.803 53.4728 106.409 53.7262L106.407 53.7252Z" fill="#3D3D3D"/>
<path d="M127.95 54.6518C127.91 54.6518 127.87 54.6518 127.83 54.6518C127.479 54.6469 127.071 54.6176 126.706 54.4415C126.283 54.238 126.003 53.8605 125.972 53.4575C125.922 52.7728 126.529 52.3062 127.065 51.9756C127.166 51.913 127.298 51.9443 127.361 52.046C127.424 52.1477 127.392 52.2798 127.291 52.3424C126.859 52.6084 126.368 52.9723 126.401 53.4252C126.42 53.6717 126.612 53.9182 126.892 54.0522C127.182 54.1921 127.531 54.2155 127.836 54.2194C129.382 54.2449 130.955 53.8028 132.266 52.9821C132.368 52.9195 132.5 52.9498 132.563 53.0506C132.627 53.1513 132.596 53.2843 132.495 53.3479C131.149 54.1911 129.54 54.6518 127.95 54.6518Z" fill="#3D3D3D"/>
<path d="M128.671 56.953C128.497 56.953 128.318 56.9373 128.141 56.8963C127.624 56.7779 127.212 56.4561 127.039 56.0345C126.83 55.5259 127.036 54.9057 127.489 54.6788C127.596 54.626 127.726 54.669 127.778 54.7756C127.831 54.8823 127.788 55.0114 127.682 55.0652C127.428 55.1923 127.313 55.5689 127.437 55.8712C127.556 56.1587 127.862 56.3906 128.238 56.4766C128.623 56.5647 129.036 56.5089 129.388 56.4434C130.682 56.1998 131.926 55.6569 132.986 54.8715C133.081 54.8001 133.216 54.8206 133.287 54.9165C133.358 55.0124 133.337 55.1473 133.242 55.2178C132.131 56.0414 130.825 56.6116 129.467 56.8669C129.223 56.9129 128.952 56.954 128.672 56.954L128.671 56.953Z" fill="#3D3D3D"/>
<path d="M129.631 58.7766C129.323 58.7766 128.982 58.7355 128.67 58.578C128.186 58.3344 127.899 57.8385 127.97 57.372C127.987 57.2546 128.098 57.1734 128.215 57.191C128.332 57.2086 128.413 57.3191 128.396 57.4365C128.348 57.7534 128.595 58.0566 128.864 58.1916C129.204 58.3628 129.62 58.356 129.943 58.3305C131.081 58.2415 132.214 57.8209 133.136 57.147C133.232 57.0765 133.366 57.0981 133.437 57.1939C133.507 57.2898 133.485 57.4248 133.39 57.4952C132.391 58.2259 131.211 58.6641 129.977 58.7609C129.869 58.7697 129.753 58.7756 129.631 58.7756V58.7766Z" fill="#3D3D3D"/>
<path d="M131.027 60.6374C130.803 60.6374 130.576 60.612 130.354 60.5445C129.775 60.3684 129.229 59.7982 129.315 59.1477C129.331 59.0294 129.438 58.9472 129.557 58.9628C129.675 58.9785 129.758 59.0871 129.742 59.2054C129.686 59.6231 130.081 60.0114 130.479 60.1327C130.947 60.2755 131.481 60.1816 131.953 60.0985C132.069 60.0779 132.182 60.1562 132.202 60.2736C132.223 60.3909 132.145 60.5024 132.027 60.523C131.713 60.5787 131.372 60.6384 131.027 60.6384V60.6374Z" fill="#3D3D3D"/>
<path d="M122.013 56.5195C121.911 56.5195 121.82 56.4461 121.801 56.3415C121.781 56.2241 121.859 56.1126 121.975 56.0911C123.417 55.8348 124.704 54.8547 125.333 53.5313C125.384 53.4237 125.512 53.3777 125.621 53.4295C125.728 53.4804 125.774 53.6095 125.722 53.7171C125.034 55.1638 123.626 56.2368 122.05 56.5166C122.038 56.5185 122.025 56.5195 122.012 56.5195H122.013Z" fill="#3D3D3D"/>
<path d="M81.563 37.6697C82.0232 37.5553 83.2925 39.2093 83.6248 39.5409C85.067 40.9837 86.5572 42.3814 87.9535 43.8692C89.4768 45.4919 92.333 48.398 98.1763 54.0262C101.348 53.5684 104.589 53.0579 107.896 52.4886C110.924 51.9672 113.884 51.4175 116.773 50.8463C117.734 55.4308 118.695 60.0154 119.656 64.5999C116.992 65.6495 113.188 66.9524 108.491 67.909C101.029 69.429 97.2949 70.189 92.7493 68.6651C84.1045 65.7668 80.6464 57.3353 80.4666 56.8765C79.5237 54.4722 79.2618 52.2939 79.1758 51.2121C78.786 46.2823 79.9654 45.5839 80.9347 39.7013C81.0041 39.2827 81.0539 37.7959 81.561 37.6697H81.563Z" fill="white"/>
<path d="M97.8609 69.711C96.0864 69.711 94.4458 69.4586 92.6821 68.8678C83.8644 65.9119 80.4102 57.3179 80.2675 56.9541C79.3852 54.7034 79.0705 52.5974 78.9631 51.228C78.7149 48.0862 79.0891 46.6699 79.6558 44.5248C79.989 43.263 80.3672 41.833 80.7239 39.6654C80.7356 39.593 80.7473 39.4864 80.76 39.3602C80.8587 38.432 80.9916 37.5888 81.5105 37.4597C81.9209 37.356 82.4856 37.9038 83.4481 39.0179C83.5879 39.1802 83.709 39.3201 83.7774 39.3876C84.2601 39.8698 84.7467 40.3472 85.2343 40.8245C86.19 41.7606 87.1788 42.728 88.111 43.7208C90.1151 45.8551 93.5263 49.2453 98.2508 53.7966C101.45 53.334 104.682 52.8224 107.86 52.2746C110.81 51.767 113.795 51.2143 116.731 50.6333C116.847 50.6098 116.96 50.6851 116.985 50.8006L119.867 64.5542C119.889 64.6569 119.833 64.7606 119.735 64.7997C116.116 66.2259 112.347 67.3429 108.534 68.1186C103.915 69.0595 100.714 69.711 97.8599 69.711H97.8609ZM81.6131 37.8783C81.3443 37.9517 81.2281 39.0453 81.189 39.4062C81.1743 39.5421 81.1616 39.6566 81.1489 39.7358C80.7883 41.9239 80.3916 43.4273 80.0721 44.6353C79.5171 46.7374 79.1497 48.1263 79.392 51.1948C79.4975 52.5348 79.8053 54.5948 80.6682 56.7966C80.8079 57.1536 84.1898 65.5666 92.8179 68.459C97.3098 69.9643 101.032 69.2063 108.448 67.696C112.177 66.937 115.863 65.8493 119.408 64.4642L116.606 51.0979C113.734 51.6652 110.817 52.2042 107.933 52.7001C104.717 53.2537 101.445 53.7712 98.2078 54.2387C98.1423 54.2485 98.0759 54.227 98.028 54.181C93.2586 49.5877 89.8161 46.1681 87.7974 44.0162C86.871 43.0292 85.8861 42.0658 84.9334 41.1326C84.4448 40.6543 83.9562 40.176 83.4726 39.6928C83.3934 39.6136 83.2742 39.4747 83.1227 39.2996C82.8179 38.9465 81.8954 37.8783 81.6179 37.8783C81.616 37.8783 81.615 37.8783 81.6131 37.8783Z" fill="#3D3D3D"/>
<path d="M95.4763 55.1578C95.3777 55.1578 95.2878 55.0893 95.2663 54.9886C95.2409 54.8722 95.3141 54.7568 95.4304 54.7313C96.3147 54.5367 97.1834 54.256 98.013 53.895C98.1224 53.8471 98.2495 53.898 98.2964 54.0065C98.3442 54.1161 98.2934 54.2433 98.185 54.2902C97.33 54.6619 96.4349 54.9524 95.5232 55.1529C95.5076 55.1568 95.492 55.1578 95.4763 55.1578Z" fill="#3D3D3D"/>
<path d="M83.4756 35.3391C84.0893 35.702 84.4596 36.3642 84.4489 37.0763C84.2945 47.5248 84.0365 67.5757 83.4737 78.0281C83.376 79.8465 83.1268 81.7284 82.1516 83.2661C81.2624 84.6668 79.8358 85.6586 78.3085 86.3061C76.7812 86.9537 75.1416 87.2862 73.5156 87.6149C72.8209 82.6166 76.4295 67.8388 76.1696 62.7994C75.9174 57.9166 75.6663 53.02 76.0191 48.1439C76.2663 44.7292 65.5187 41.964 66.5535 38.6951C66.8476 37.7668 62.5854 31.1839 63.5664 30.8787C65.4542 30.2909 82.2855 34.6348 83.4776 35.3391H83.4756Z" fill="white"/>
<path d="M73.5133 87.8283C73.4694 87.8283 73.4254 87.8146 73.3892 87.7882C73.3404 87.754 73.3091 87.7012 73.3003 87.6415C72.9192 84.8998 73.8055 79.3234 74.6634 73.9309C75.3865 69.3845 76.0695 65.0914 75.9523 62.8075C75.7041 57.997 75.4471 53.0221 75.8018 48.1256C75.9132 46.5879 73.4381 45.0933 71.0451 43.6476C68.3296 42.0083 65.7656 40.4599 66.346 38.6268C66.4515 38.2933 65.5428 36.4954 64.8784 35.1838C63.7117 32.8783 63.0198 31.4404 63.2475 30.9024C63.2964 30.786 63.3843 30.7058 63.5006 30.6696C65.4148 30.0749 82.2578 34.366 83.5847 35.1505C84.2619 35.5506 84.6752 36.2891 84.6635 37.0765L84.6273 39.559C84.471 50.3303 84.2091 68.3574 83.6873 78.0371C83.5935 79.7694 83.36 81.7599 82.332 83.3788C81.5063 84.6787 80.1432 85.7586 78.3902 86.502C76.8376 87.1603 75.1696 87.4967 73.5563 87.8234C73.5417 87.8264 73.528 87.8274 73.5133 87.8274V87.8283ZM63.6403 31.0785C63.4683 31.4433 64.5901 33.6598 65.2633 34.9901C66.2884 37.0148 66.9088 38.2806 66.7574 38.7579C66.2796 40.2662 68.8162 41.798 71.2688 43.2789C73.7733 44.7911 76.3636 46.3551 76.2327 48.1569C75.88 53.027 76.136 57.9882 76.3832 62.7859C76.5034 65.1149 75.8165 69.4305 75.0895 73.9994C74.2599 79.2129 73.4029 84.5985 73.699 87.3549C75.2194 87.0468 76.7819 86.7162 78.2222 86.1058C79.8941 85.3977 81.1897 84.3745 81.9675 83.1489C82.9417 81.6142 83.1655 79.6921 83.2564 78.0156C83.7782 68.3447 84.0391 50.3225 84.1954 39.5541L84.2316 37.0716C84.2413 36.4377 83.9081 35.845 83.3649 35.5232C82.1219 34.7876 65.4685 30.5523 63.6393 31.0795L63.6403 31.0785Z" fill="#3D3D3D"/>
<path d="M57.4311 61.1895C55.8774 62.374 53.6818 64.2148 51.4177 66.7874C47.9382 70.741 46.0435 74.4374 42.2141 83.2016C40.1357 87.9563 37.813 93.4603 35.3594 99.6236C33.8576 100.016 18.2448 98.977 9.76131 100.599C4.31669 101.64 1.71066 101.883 0.430606 104.115C-0.599299 105.91 0.341686 107.521 1.9481 112.44C3.13533 116.075 4.77888 120.663 6.91295 126.566C7.73081 128.879 8.37573 129.784 9.39977 129.547C10.6407 129.26 10.7443 127.017 13.238 122.229C13.7803 121.189 14.2689 120.333 14.6304 119.72C31.2838 119.902 47.8258 118.075 52.2747 113.758C55.9067 110.233 58.4072 105.458 59.0463 104.22C61.0133 100.407 64.189 94.3543 64.7674 91.8229C71.0465 100.1 76.2449 114.856 76.9924 119.786C77.823 125.27 78.2217 132.837 79.2525 145.653C79.8926 153.61 80.3968 157.674 80.899 162.032C81.1003 163.783 81.9768 167.121 85.3059 167.121L108.457 167.091C109.53 167.109 109.972 165.715 109.086 165.123L102.71 161.264C101.94 160.75 101.158 160.327 101.048 159.149C101.048 159.149 99.9366 122.575 97.8065 113.059C95.0206 98.2943 80.1564 67.8819 80.1564 67.8819C72.5816 65.6508 65.0068 63.4206 57.432 61.1895H57.4311Z" fill="#3D3D3D"/>
<path d="M64.7109 92.2464C64.6962 92.2464 64.6816 92.2445 64.6659 92.2415C64.5496 92.2171 64.4744 92.1026 64.4998 91.9862C64.6337 91.3485 64.75 90.8203 64.8447 90.385C64.9659 89.8304 65.0538 89.4294 65.1056 89.1418C65.3177 87.9592 67.7889 87.5445 68.0703 87.5005C68.1885 87.4829 68.298 87.5631 68.3165 87.6804C68.3351 87.7978 68.254 87.9084 68.1367 87.9269C67.1918 88.0737 65.6499 88.5539 65.5307 89.2181C65.4779 89.5135 65.389 89.9184 65.2669 90.4779C65.1711 90.9122 65.0558 91.4385 64.9229 92.0752C64.9014 92.177 64.8125 92.2464 64.7118 92.2464H64.7109Z" fill="white"/>
<path d="M81.9202 161.79C81.8118 161.79 81.7033 161.79 81.5948 161.79C81.4756 161.79 81.3799 161.693 81.3799 161.574C81.3799 161.455 81.4766 161.359 81.5948 161.359C87.9814 161.372 94.4051 160.941 100.717 160.072C100.836 160.056 100.944 160.139 100.96 160.256C100.976 160.375 100.893 160.483 100.776 160.499C94.5517 161.356 88.2091 161.79 81.9193 161.79H81.9202Z" fill="white"/>
<path d="M14.6291 119.934C14.5861 119.934 14.5422 119.922 14.5041 119.894C7.78817 115.104 6.67424 103.196 6.66349 103.076C6.65274 102.958 6.74068 102.853 6.85891 102.842C6.97519 102.834 7.0817 102.92 7.09245 103.038C7.1032 103.155 8.2015 114.869 14.7542 119.542C14.8509 119.612 14.8734 119.746 14.805 119.843C14.763 119.901 14.6965 119.933 14.6291 119.933V119.934Z" fill="white"/>
<path d="M57.783 64.8534L79.0416 70.9355C80.1252 71.2456 81.206 70.4386 81.2148 69.3118C81.2363 66.7227 81.2734 61.9914 81.3164 55.6658C81.3828 45.8618 81.5773 39.0011 81.3007 36.6252C81.0252 34.2493 81.1972 33.058 77.6453 31.8676C74.3709 30.7711 70.5317 29.1229 69.0699 32.7577C68.7865 33.4629 68.2032 34.0048 67.4908 34.2718L64.6376 35.3429L57.782 64.8525L57.783 64.8534Z" fill="#00CB82"/>
<path d="M78.5444 40.356L77.6991 42.6047L78.2522 62.2253L75.6872 66.4147L73.7144 61.3655L75.9373 42.3719L74.5928 40.1408L76.8178 38.2188L78.5444 40.356Z" fill="#3D3D3D"/>
<path d="M79.7536 41.8521C79.6891 41.8521 79.6285 41.8238 79.5875 41.7729L76.7928 38.368L72.9781 41.7758C72.9282 41.8208 72.8598 41.8394 72.7944 41.8267C72.7289 41.814 72.6722 41.7719 72.6419 41.7113L70.3515 37.1385C70.2978 37.0318 70.3408 36.9027 70.4473 36.8489C70.5538 36.7961 70.6838 36.8382 70.7365 36.9448L72.9009 41.2662L76.6726 37.8955C76.7166 37.8564 76.7762 37.8368 76.8329 37.8417C76.8915 37.8466 76.9453 37.874 76.9824 37.92L79.7272 41.2643L80.7522 39.5887C80.8147 39.487 80.9467 39.4547 81.0483 39.5173C81.1499 39.5799 81.1821 39.7119 81.1196 39.8137L79.9373 41.7475C79.9011 41.8071 79.8376 41.8453 79.7682 41.8502C79.7633 41.8502 79.7585 41.8502 79.7536 41.8502V41.8521Z" fill="#3D3D3D"/>
<path d="M60.2307 35.8213C61.6544 35.031 62.8953 34.807 63.6936 33.3877C64.2301 32.434 64.702 30.9747 65.7769 31.182C65.7769 31.182 67.954 31.5527 68.7122 34.3981C69.0923 35.8253 68.893 37.3365 68.6829 38.7988C67.3169 48.3034 66.114 59.6616 61.84 68.2585C61.2273 69.4919 53.9779 82.2733 52.1439 83.003C50.2619 83.7513 48.5763 83.7444 46.5126 83.1536C44.403 82.5501 38.674 81.3509 36.5898 80.3483C36.3054 80.2114 34.9755 79.243 35.6595 77.6761C38.6652 71.8747 47.2552 55.659 52.1067 47.9493C55.5365 42.4981 58.0165 37.0509 60.2316 35.8213H60.2307Z" fill="white"/>
<path d="M49.3198 83.8394C48.4853 83.8394 47.7466 83.7201 47.2737 83.6193C46.1295 83.3757 42.7574 82.4504 36.9649 80.7905C36.274 80.592 35.7171 80.099 35.4376 79.4368C35.1591 78.7755 35.1933 78.0331 35.5334 77.4013C38.5508 71.7799 48.8879 52.6376 55.2139 42.3026C55.2765 42.2009 55.4084 42.1686 55.51 42.2312C55.6116 42.2938 55.6439 42.4258 55.5813 42.5276C49.2602 52.8528 38.9289 71.9863 35.9125 77.6047C35.635 78.1212 35.6066 78.7276 35.8343 79.2685C36.063 79.8104 36.5183 80.2134 37.0831 80.3758C42.8658 82.0328 46.2282 82.9561 47.3626 83.1977C49.8211 83.721 51.9864 83.2554 53.1561 81.9525C54.0179 80.993 62.0598 68.0962 62.3676 66.8843C62.3969 66.7688 62.5141 66.6994 62.6294 66.7287C62.7447 66.7581 62.8141 66.8755 62.7848 66.9909C62.4721 68.2214 54.3462 81.2727 53.4766 82.2411C52.3333 83.5146 50.6947 83.8404 49.3188 83.8404L49.3198 83.8394Z" fill="#3D3D3D"/>
<path d="M30.2581 77.795L30.5737 74.9408C30.6587 74.171 31.6173 70.2858 32.3863 70.3709L43.5501 71.6072C44.3191 71.6923 44.6123 75.7154 44.5273 76.4862L44.2116 79.3404L45.9334 79.5312L46.249 76.677C46.4395 74.9574 45.4595 70.0745 43.7416 69.8847L32.5778 68.6484C30.86 68.4576 29.0435 73.0304 28.853 74.75L28.5374 77.6042L30.2591 77.795H30.2581Z" fill="#3D3D3D"/>
<path d="M30.2656 79.0885L28.3778 78.8792C27.4466 78.7765 26.7684 77.9285 26.872 76.9963C26.9746 76.0641 27.8218 75.3853 28.753 75.489L30.6408 75.6983C31.5721 75.801 32.2502 76.6491 32.1466 77.5812C32.044 78.5134 31.1968 79.1922 30.2656 79.0885Z" fill="white"/>
<path d="M30.4554 79.3161C30.385 79.3161 30.3147 79.3122 30.2424 79.3044L28.3545 79.0951C27.3022 78.9787 26.542 78.0269 26.6582 76.9735C26.7745 75.92 27.7223 75.159 28.7776 75.2754L30.6655 75.4848C31.1736 75.5415 31.6299 75.7929 31.9514 76.1949C32.2729 76.5969 32.4185 77.0977 32.3628 77.6054C32.2543 78.5874 31.4208 79.3152 30.4564 79.3152L30.4554 79.3161ZM30.2903 78.876C31.1042 78.9679 31.8439 78.3752 31.9338 77.5584C32.0237 76.7417 31.4335 76.0041 30.6176 75.9132L28.7298 75.7039C27.9158 75.6129 27.1771 76.2037 27.0862 77.0214C26.9963 77.8382 27.5865 78.5757 28.4024 78.6667L30.2903 78.876Z" fill="#3D3D3D"/>
<path d="M45.801 80.8112L43.9132 80.6019C42.982 80.4992 42.3038 79.6511 42.4074 78.7189C42.51 77.7868 43.3572 77.108 44.2884 77.2116L46.1763 77.421C47.1075 77.5237 47.7856 78.3717 47.682 79.3039C47.5784 80.236 46.7322 80.9149 45.801 80.8112Z" fill="white"/>
<path d="M45.9901 81.0388C45.9197 81.0388 45.8494 81.0349 45.777 81.0271L43.8892 80.8177C42.8368 80.7013 42.0766 79.7496 42.1929 78.6961C42.3092 77.6427 43.2599 76.8817 44.3123 76.9981L46.2001 77.2074C47.2525 77.3238 48.0127 78.2755 47.8965 79.329C47.788 80.311 46.9545 81.0388 45.9901 81.0388ZM45.8249 80.5986C46.6408 80.6896 47.3776 80.0978 47.4685 79.2811C47.5584 78.4643 46.9682 77.7268 46.1523 77.6358L44.2644 77.4265C43.4485 77.3355 42.7118 77.9273 42.6209 78.7441C42.531 79.5608 43.1212 80.2983 43.9371 80.3893L45.8249 80.5986Z" fill="#3D3D3D"/>
<path d="M58.8462 110.686L15.7437 105.91L21.8156 76.1191L58.0294 80.1305L58.8462 110.686Z" fill="white"/>
<path d="M58.8463 110.901C58.8385 110.901 58.8307 110.901 58.8229 110.9L15.7213 106.125C15.6607 106.118 15.6069 106.087 15.5708 106.038C15.5356 105.989 15.5219 105.928 15.5336 105.868L21.6056 76.0767C21.6281 75.9672 21.7277 75.8938 21.8401 75.9055L58.0529 79.9169C58.1594 79.9286 58.2415 80.0176 58.2444 80.1252L59.0613 110.68C59.0633 110.743 59.0378 110.803 58.9919 110.845C58.9519 110.882 58.9001 110.901 58.8463 110.901V110.901ZM16.0027 105.722L58.6245 110.444L57.8194 80.3238L21.9886 76.3545L16.0037 105.722H16.0027Z" fill="#3D3D3D"/>
<path d="M56.3214 110.62C56.2041 110.62 56.1074 110.526 56.1064 110.407L55.8357 93.5785C55.8338 93.4592 55.9286 93.3614 56.0478 93.3594C56.1748 93.3565 56.2647 93.4524 56.2666 93.5717L56.5373 110.401C56.5393 110.52 56.4445 110.618 56.3253 110.62H56.3214Z" fill="#3D3D3D"/>
<path d="M53.5506 110.099L10.449 105.324L17.201 75.6074L54.133 79.699L53.5506 110.099Z" fill="white"/>
<path d="M53.5504 110.314C53.5426 110.314 53.5348 110.314 53.5269 110.313L10.4253 105.538C10.3647 105.531 10.3091 105.499 10.2739 105.449C10.2387 105.399 10.226 105.337 10.2387 105.276L16.9907 75.5601C17.0152 75.4535 17.1168 75.3821 17.2243 75.3938L54.1562 79.4854C54.2666 79.4981 54.3497 79.592 54.3477 79.7035L53.7654 110.103C53.7644 110.164 53.738 110.222 53.6921 110.261C53.653 110.296 53.6022 110.314 53.5494 110.314L53.5504 110.314ZM10.7116 105.135L53.3393 109.858L53.9129 79.8913L17.3679 75.8428L10.7116 105.136V105.135Z" fill="#3D3D3D"/>
<path d="M51.7769 93.9311C51.7691 93.9311 51.7613 93.9311 51.7534 93.9301L14.331 89.7847C14.2127 89.772 14.1277 89.6654 14.1404 89.547C14.1531 89.4287 14.2567 89.3446 14.3788 89.3563L51.5707 93.4762L51.8189 87.044C51.8238 86.9246 51.9323 86.8268 52.0427 86.8366C52.1619 86.8415 52.2547 86.9413 52.2498 87.0606L51.9928 93.7247C51.9909 93.7844 51.9635 93.8411 51.9186 93.8802C51.8795 93.9145 51.8297 93.9321 51.7779 93.9321L51.7769 93.9311Z" fill="#3D3D3D"/>
<path d="M37.3958 91.5085L30.4729 90.7422L30.1187 93.9486L37.0416 94.7149L37.3958 91.5085Z" fill="white"/>
<path d="M37.0338 94.9332C37.026 94.9332 37.0182 94.9332 37.0094 94.9322L30.0873 94.1653C30.0306 94.1595 29.9789 94.1301 29.9427 94.0861C29.9065 94.0411 29.8899 93.9844 29.8968 93.9276L30.2515 90.7213C30.2652 90.6029 30.3668 90.5178 30.4899 90.5306L37.412 91.2974C37.4686 91.3033 37.5204 91.3326 37.5566 91.3767C37.5927 91.4216 37.6093 91.4784 37.6025 91.5351L37.2478 94.7415C37.2361 94.852 37.1423 94.9332 37.0338 94.9332ZM30.3492 93.7604L36.8433 94.4793L37.1501 91.7014L30.656 90.9825L30.3492 93.7604Z" fill="#3D3D3D"/>
<path d="M43.6373 63.575L46.0264 52.3743L34.9642 49.209C33.6392 57.0977 32.4569 67.8983 32.4676 71.2514C32.4823 75.9866 35.0668 76.3505 35.0668 76.3505C36.6312 77.5223 37.4911 76.1822 37.4911 76.1822C38.561 76.8963 40.0355 75.4242 40.0355 75.4242C43.0041 76.058 43.137 71.3326 43.137 71.3326C45.4567 69.3049 43.6373 63.574 43.6373 63.574V63.575Z" fill="white"/>
<path d="M36.429 77.079C36.344 77.079 36.2551 77.0672 36.1603 77.0398C34.5002 76.5645 32.6377 75.3007 32.3895 73.1752C32.2869 71.9065 32.1824 70.6017 32.2654 69.2088C32.3895 68.2229 32.457 67.2956 32.5224 66.3986C32.5879 65.4958 32.6563 64.5626 32.7804 63.5796C33.31 58.9158 33.9539 54.4242 34.5715 50.2661C34.5891 50.1487 34.6985 50.0676 34.8158 50.0842C34.934 50.1018 35.0151 50.2114 34.9975 50.3297C34.3809 54.4849 33.737 58.9716 33.2074 63.6315C33.0843 64.6057 33.0169 65.533 32.9514 66.4299C32.8859 67.3327 32.8175 68.2659 32.6934 69.2489C32.6133 70.5978 32.7169 71.887 32.8175 73.1331C33.0403 75.0395 34.7513 76.1888 36.2776 76.6251C36.559 76.7053 36.7417 76.5664 37.0153 76.3317C37.1257 76.2368 37.2401 76.139 37.3671 76.0685C37.6299 75.9228 37.9045 76.001 38.1468 76.0705C38.3247 76.1213 38.4927 76.1693 38.5993 76.1096C39.1455 75.8064 39.5051 75.6059 39.8998 75.2704C39.9467 75.2303 40.0093 75.2117 40.0708 75.2215C40.6473 75.3056 41.132 75.1902 41.5522 74.8664C42.5606 74.0898 42.8987 72.3222 43.011 71.3382C43.0159 71.2981 43.0306 71.26 43.056 71.2287C44.6184 69.2509 44.1387 66.3849 43.3872 63.5816C43.3784 63.5464 43.3775 63.5102 43.3853 63.475C43.8758 61.4218 44.3194 59.3257 44.7474 57.298C45.0161 56.0264 45.2936 54.7108 45.578 53.4343C45.6044 53.3179 45.7197 53.2455 45.835 53.271C45.9513 53.2964 46.0245 53.4118 45.9982 53.5282C45.7148 54.8028 45.4373 56.1164 45.1686 57.387C44.7435 59.4 44.3038 61.4805 43.8172 63.5219C44.5833 66.3947 45.0562 69.335 43.4312 71.4468C43.3042 72.5101 42.927 74.3499 41.814 75.2078C41.3274 75.5824 40.7538 75.735 40.105 75.6606C39.7073 75.9864 39.3438 76.1888 38.8093 76.4862C38.5455 76.6329 38.2709 76.5537 38.0286 76.4852C37.8508 76.4344 37.6837 76.3864 37.5762 76.4461C37.4873 76.495 37.3944 76.5752 37.2957 76.6593C37.0827 76.8422 36.8052 77.079 36.428 77.079H36.429Z" fill="#3D3D3D"/>
<path d="M40.0127 75.521C39.9531 75.521 39.8935 75.4966 39.8505 75.4477C38.9701 74.4451 38.5519 73.0551 38.7317 71.7317C38.7473 71.6133 38.8558 71.5312 38.974 71.5468C39.0923 71.5625 39.1743 71.672 39.1587 71.7894C38.9945 72.9916 39.3746 74.2524 40.1739 75.163C40.2521 75.252 40.2433 75.389 40.1544 75.4672C40.1134 75.5034 40.0626 75.521 40.0117 75.521H40.0127Z" fill="#3D3D3D"/>
<path d="M37.5144 76.3857C37.4587 76.3857 37.403 76.3642 37.361 76.3211C36.2256 75.1679 35.7458 73.4072 36.1386 71.8354C36.1679 71.7199 36.2842 71.6485 36.3995 71.6789C36.5148 71.7082 36.5852 71.8246 36.5559 71.94C36.1992 73.3691 36.635 74.9703 37.6669 76.0189C37.7499 76.104 37.7499 76.2399 37.6649 76.3241C37.6229 76.3651 37.5682 76.3857 37.5135 76.3857H37.5144Z" fill="#3D3D3D"/>
<path d="M34.9941 76.4491C34.9413 76.4491 34.8876 76.4296 34.8465 76.3904C34.786 76.3337 34.7449 76.2643 34.7127 76.2046C34.0316 74.9428 33.7443 73.4619 33.9017 72.0357C33.9153 71.9174 34.017 71.8323 34.1401 71.845C34.2583 71.8577 34.3433 71.9643 34.3306 72.0837C34.1821 73.4237 34.4528 74.8137 35.0918 76.0002C35.0996 76.0148 35.1241 76.0608 35.1426 76.0774C35.2296 76.1596 35.2335 76.2956 35.1514 76.3826C35.1094 76.4276 35.0517 76.4501 34.9951 76.4501L34.9941 76.4491Z" fill="#3D3D3D"/>
<path d="M41.9504 73.5877C41.9318 73.5877 41.9143 73.5857 41.8957 73.5809C41.7804 73.5505 41.712 73.4332 41.7423 73.3177C42.1771 71.6598 42.4966 69.9549 42.6911 68.2519C42.7048 68.1336 42.8122 68.0475 42.9295 68.0622C43.0477 68.0759 43.1327 68.1825 43.1191 68.3008C42.9227 70.0253 42.5992 71.7498 42.1585 73.4273C42.1331 73.5241 42.0462 73.5887 41.9504 73.5887V73.5877Z" fill="#3D3D3D"/>
<path d="M44.4532 71.4394C44.7502 71.1294 44.6017 70.1884 44.1708 70.0544C43.7398 69.9204 42.5956 69.98 42.5956 69.98L42.324 71.5529C42.324 71.5529 43.0207 71.4962 43.5513 71.6086C44.0818 71.7211 44.1561 71.7495 44.4541 71.4394H44.4532Z" fill="#3D3D3D"/>
<path d="M64.9334 46.723C58.5996 46.8834 54.4917 47.3637 48.0543 47.7002L45.3056 63.7339L31.3599 61.8304L34.1867 43.6243C34.1916 43.5724 34.1985 43.5216 34.2082 43.4707C34.8248 40.054 37.4308 37.2086 41.2006 35.8412C42.0859 35.5096 62.3889 28.0112 66.7479 31.7711C67.7818 32.6632 68.2713 33.6413 68.2713 33.6413C69.0491 35.3061 68.0593 41.5418 68.0593 41.5418C67.6362 44.085 65.6018 46.0589 64.9324 46.723H64.9334Z" fill="white"/>
<path d="M45.3058 63.9498C45.296 63.9498 45.2862 63.9498 45.2765 63.9478L31.3307 62.0443C31.2731 62.0365 31.2213 62.0062 31.1871 61.9592C31.1529 61.9123 31.1382 61.8546 31.147 61.7969L33.9749 43.5907C33.9788 43.5457 33.9866 43.488 33.9973 43.4323C34.6276 39.9432 37.2932 37.0303 41.1285 35.6384C41.9923 35.3147 62.3979 27.7321 66.8898 31.6085C67.6207 32.2394 68.0897 32.9153 68.3037 33.2625C68.3663 33.3642 68.335 33.4963 68.2334 33.5589C68.1327 33.6215 67.9998 33.5902 67.9373 33.4885C67.736 33.1627 67.2963 32.5279 66.6094 31.9352C62.308 28.2261 41.4881 35.9651 41.278 36.0434C37.5864 37.3825 35.0243 40.1731 34.4224 43.5095C34.4136 43.5545 34.4077 43.6005 34.4038 43.6455L31.6082 61.6472L45.1299 63.493L47.8434 47.6647C47.86 47.5649 47.9441 47.4906 48.0447 47.4857C50.5745 47.3536 52.7389 47.1991 54.8319 47.0504C57.4839 46.8616 59.9883 46.6836 62.9304 46.5711C63.0487 46.5672 63.1493 46.6591 63.1542 46.7785C63.1591 46.8978 63.0663 46.9976 62.9471 47.0025C60.0127 47.114 57.5112 47.292 54.8632 47.4808C52.8151 47.6265 50.6996 47.7772 48.2401 47.9073L45.5208 63.7708C45.5032 63.8754 45.4123 63.9498 45.3087 63.9498H45.3058Z" fill="#3D3D3D"/>
<path d="M74.4783 16.8775C74.874 16.0245 75.7603 15.2714 76.3905 14.9848C77.4419 14.5064 78.6135 14.5534 79.8457 15.3379C81.8312 14.6737 84.0112 14.5446 85.8004 15.7458C87.5387 16.9137 88.6341 18.9854 88.0038 20.9817C87.3736 22.9781 85.1926 24.417 83.1357 24.0257C82.3169 25.6807 80.301 26.5337 78.4689 26.3028C76.8136 26.0945 73.8929 24.685 73.7542 22.7845C73.5803 20.3939 73.4747 19.0392 74.4792 16.8765L74.4783 16.8775Z" fill="#3D3D3D"/>
<path d="M80.5014 30.1248L76.8176 38.0546C76.8176 38.0546 71.8557 32.574 71.8283 32.5017C71.8009 32.4293 74.8907 25.6703 74.8907 25.6703C74.8907 25.6703 76.9534 23.7336 80.5014 30.1248Z" fill="white"/>
<path d="M84.8416 23.2858C84.8416 23.2858 85.3995 29.8668 82.6 31.1335C80.9399 31.8847 76.5457 31.2714 75.0106 26.4169C75.0106 26.4169 73.114 25.9738 73.2332 23.9392C73.3524 21.9047 74.5132 21.4577 75.6751 23.2447C75.6751 23.2447 77.0147 24.8137 77.1574 21.9869C77.2189 20.7554 78.7648 19.9034 81.1011 19.8985C85.3282 19.8887 84.6843 20.771 84.8416 23.2868V23.2858Z" fill="white"/>
<path d="M81.1393 31.616C80.3957 31.616 79.5329 31.4594 78.6622 31.0701C77.4017 30.5067 75.724 29.2733 74.8416 26.5903C74.4 26.4426 72.9098 25.8029 73.0202 23.9258C73.0857 22.8185 73.457 22.0957 74.0413 21.9402C74.3736 21.8521 75.0488 21.8883 75.8491 23.1139C75.979 23.2597 76.2907 23.5199 76.493 23.4514C76.6083 23.4123 76.8829 23.1883 76.9444 21.9754C77.0128 20.6089 78.6837 19.6875 81.1022 19.6816C81.1246 19.6816 81.1471 19.6816 81.1686 19.6816C84.7821 19.6816 84.9824 20.3722 85.0244 22.3461C85.0303 22.6219 85.0371 22.934 85.0576 23.2695C85.083 23.5766 85.5862 30.0186 82.69 31.3294C82.3021 31.5054 81.7627 31.615 81.1403 31.615L81.1393 31.616ZM74.271 22.3432C74.229 22.3432 74.1889 22.3481 74.1498 22.3588C73.7697 22.4596 73.501 23.0699 73.4492 23.9522C73.3417 25.7843 74.9901 26.1912 75.0605 26.2078C75.1348 26.2254 75.1944 26.2802 75.2168 26.3526C76.0406 28.9583 77.6401 30.1419 78.8371 30.6769C80.3068 31.3333 81.7725 31.2716 82.5112 30.9381C85.1407 29.7477 84.6326 23.3692 84.6267 23.3057C84.6267 23.3037 84.6267 23.3027 84.6267 23.3008C84.6052 22.9555 84.5984 22.6376 84.5925 22.3569C84.5554 20.6285 84.5515 20.1013 81.1022 20.115C78.928 20.1198 77.4301 20.8769 77.3734 21.9989C77.3177 23.1002 77.0744 23.7096 76.6308 23.8612C76.0924 24.0451 75.5706 23.4543 75.5129 23.3859C75.5071 23.379 75.5012 23.3712 75.4963 23.3634C75.0732 22.7129 74.6257 22.3432 74.2719 22.3432H74.271Z" fill="#3D3D3D"/>
<path d="M76.9708 24.4249C77.7828 25.852 79.4595 27.0013 82.5561 27.0141C85.169 27.0248 84.9784 25.2925 84.9784 25.2925C84.9784 25.2925 86.149 33.5568 82.7779 33.7104C79.4586 33.862 77.7632 31.7923 77.1721 30.8357C76.5819 29.879 75.7962 25.3336 75.7865 24.5687C75.7767 23.8038 76.5682 23.7177 76.9708 24.4249Z" fill="#3D3D3D"/>
<path d="M75.4086 25.3867C75.3119 25.3867 75.2239 25.3212 75.1995 25.2224C75.0813 24.745 74.6836 24.3342 74.2106 24.2002C74.0963 24.1679 74.0298 24.0486 74.0621 23.9342C74.0943 23.8197 74.2135 23.7532 74.3279 23.7855C74.9552 23.9625 75.4623 24.4858 75.6187 25.1197C75.647 25.2351 75.5767 25.3525 75.4614 25.3808C75.4438 25.3848 75.4262 25.3867 75.4096 25.3867H75.4086Z" fill="#3D3D3D"/>
<path d="M72.9607 30.4418L72.5679 30.2638C72.5679 30.2638 73.6613 27.8429 74.4186 26.183C74.4674 26.0744 74.5954 26.0265 74.7039 26.0764C74.8124 26.1263 74.8602 26.2534 74.8104 26.362C74.0531 28.0209 72.9607 30.4409 72.9607 30.4409V30.4418Z" fill="#3D3D3D"/>
<path d="M78.7729 192.195H1.32093C78.7729 192.195 1.10596 191.979 1.10596 191.979C1.10596 191.861 1.20269 191.764 1.32093 191.764H78.5569V167.125C78.5569 167.006 78.6537 166.91 78.7719 166.91H115.135V154.571C115.135 154.451 115.232 154.355 115.35 154.355C115.468 154.355 115.565 154.452 115.565 154.571V167.125C115.565 167.244 115.468 167.34 115.35 167.34H78.9869V191.979C78.9869 192.099 78.8911 192.195 78.7729 192.195Z" fill="#3D3D3D"/>
<path d="M151.936 154.774H115.357C115.238 154.774 115.142 154.677 115.142 154.559C115.142 154.44 115.239 154.344 115.357 154.344H151.72V142.004C151.72 141.885 151.817 141.789 151.935 141.789C152.053 141.789 152.15 141.886 152.15 142.004V154.559C152.15 154.678 152.053 154.774 151.935 154.774H151.936Z" fill="#3D3D3D"/>
<path d="M188.524 142.213H151.945C151.825 142.213 151.73 142.117 151.73 141.998C151.73 141.88 151.826 141.783 151.945 141.783H188.308V129.444C188.308 129.324 188.405 129.229 188.523 129.229C188.641 129.229 188.738 129.325 188.738 129.444V141.998C188.738 142.117 188.641 142.213 188.523 142.213H188.524Z" fill="#3D3D3D"/>
<path d="M225.129 129.647H188.55C188.431 129.647 188.335 129.55 188.335 129.432C188.335 129.313 188.432 129.217 188.55 129.217H224.913V116.877C224.913 116.758 225.01 116.662 225.128 116.662C225.247 116.662 225.343 116.759 225.343 116.877V129.432C225.343 129.551 225.247 129.647 225.128 129.647H225.129Z" fill="#3D3D3D"/>
<path d="M261.71 117.092H225.131C225.012 117.092 224.916 116.995 224.916 116.877C224.916 116.759 225.013 116.662 225.131 116.662H261.494V104.323C261.494 104.203 261.591 104.107 261.709 104.107H267.782C267.902 104.107 267.997 104.204 267.997 104.323C267.997 104.441 267.901 104.538 267.782 104.538H261.924V116.877C261.924 116.996 261.828 117.092 261.709 117.092H261.71Z" fill="#3D3D3D"/>
<path d="M142.806 123.885H126.208C124.983 123.885 123.99 124.879 123.99 126.105V150.086C123.99 151.313 124.983 152.307 126.208 152.307H142.806C144.031 152.307 145.024 151.313 145.024 150.086V126.105C145.024 124.879 144.031 123.885 142.806 123.885Z" fill="#00CB82"/>
<path d="M143.041 112.865H125.973C124.878 112.865 123.99 113.976 123.99 115.348V128.103C123.99 129.474 124.878 130.585 125.973 130.585H133.689V137.88H135.473V130.585H143.04C144.135 130.585 145.023 129.474 145.023 128.103V115.348C145.023 113.976 144.135 112.865 143.04 112.865H143.041Z" fill="#3D3D3D"/>
<path d="M143.04 109.421H135.473V102.004H133.689V109.421H125.974C124.878 109.421 123.99 110.532 123.99 111.904V117.041C123.99 118.412 124.878 119.523 125.974 119.523H133.689V126.923H135.473V119.523H143.04C144.136 119.523 145.024 118.412 145.024 117.041V111.904C145.024 110.532 144.136 109.421 143.04 109.421Z" fill="white"/>
<path d="M145.024 117.255C144.905 117.255 144.809 117.159 144.809 117.04V111.903C144.809 110.653 144.016 109.637 143.041 109.637H135.474C135.354 109.637 135.259 109.54 135.259 109.422V102.22H133.905V109.422C133.905 109.541 133.809 109.637 133.69 109.637H125.975C125 109.637 124.206 110.654 124.206 111.903V117.04C124.206 117.16 124.11 117.255 123.991 117.255C123.873 117.255 123.776 117.159 123.776 117.04V111.903C123.776 110.415 124.763 109.205 125.976 109.205H133.476V102.004C133.476 101.885 133.573 101.789 133.691 101.789H135.476C135.595 101.789 135.691 101.886 135.691 102.004V109.205H143.043C144.255 109.205 145.242 110.415 145.242 111.903V117.04C145.242 117.16 145.145 117.255 145.027 117.255H145.024Z" fill="#3D3D3D"/>
<path d="M178.671 112.297H162.072C160.847 112.297 159.854 113.291 159.854 114.517V137.586C159.854 138.812 160.847 139.806 162.072 139.806H178.671C179.896 139.806 180.889 138.812 180.889 137.586V114.517C180.889 113.291 179.896 112.297 178.671 112.297Z" fill="#00CB82"/>
<path d="M178.907 80.873H161.839C160.744 80.873 159.855 81.9842 159.855 83.3556V116.515C159.855 117.886 160.744 118.997 161.839 118.997H169.554V126.292H171.339V118.997H178.906C180.001 118.997 180.889 117.886 180.889 116.515V83.3556C180.889 81.9842 180.001 80.873 178.906 80.873H178.907Z" fill="#3D3D3D"/>
<path d="M178.906 71.6594H171.339V64.2422H169.555V71.6594H161.84C160.744 71.6594 159.856 72.7706 159.856 74.142V85.0463C159.856 86.4176 160.744 87.5288 161.84 87.5288H169.555V94.9285H171.339V87.5288H178.906C180.002 87.5288 180.89 86.4176 180.89 85.0463V74.142C180.89 72.7706 180.002 71.6594 178.906 71.6594Z" fill="white"/>
<path d="M180.89 85.2628C180.771 85.2628 180.675 85.166 180.675 85.0476V74.1433C180.675 72.8932 179.882 71.8769 178.907 71.8769H171.34C171.22 71.8769 171.125 71.7801 171.125 71.6617V64.4607H169.77V71.6617C169.77 71.7811 169.674 71.8769 169.555 71.8769H161.84C160.865 71.8769 160.071 72.8942 160.071 74.1433V85.0476C160.071 85.1669 159.975 85.2628 159.856 85.2628C159.738 85.2628 159.641 85.166 159.641 85.0476V74.1433C159.641 72.6555 160.628 71.4456 161.841 71.4456H169.341V64.2445C169.341 64.1252 169.438 64.0293 169.556 64.0293H171.342C171.461 64.0293 171.557 64.1261 171.557 64.2445V71.4456H178.909C180.121 71.4456 181.108 72.6555 181.108 74.1433V85.0476C181.108 85.1669 181.011 85.2628 180.893 85.2628H180.89Z" fill="#3D3D3D"/>
<path d="M215.257 106.098H198.659C197.434 106.098 196.441 107.092 196.441 108.318V124.961C196.441 126.187 197.434 127.182 198.659 127.182H215.257C216.482 127.182 217.476 126.187 217.476 124.961V108.318C217.476 107.092 216.482 106.098 215.257 106.098Z" fill="#00CB82"/>
<path d="M215.492 85.4922H198.424C197.329 85.4922 196.441 86.6034 196.441 87.9747V110.315C196.441 111.687 197.329 112.798 198.424 112.798H206.14V120.093H207.924V112.798H215.491C216.586 112.798 217.475 111.687 217.475 110.315V87.9747C217.475 86.6034 216.586 85.4922 215.491 85.4922H215.492Z" fill="#3D3D3D"/>
<path d="M215.492 84.5032H207.925V77.0859H206.14V84.5032H198.425C197.33 84.5032 196.441 85.6144 196.441 86.9857V89.6648C196.441 91.0362 197.33 92.1474 198.425 92.1474H206.14V99.547H207.925V92.1474H215.492C216.587 92.1474 217.475 91.0362 217.475 89.6648V86.9857C217.475 85.6144 216.587 84.5032 215.492 84.5032Z" fill="white"/>
<path d="M217.475 89.8804C217.356 89.8804 217.26 89.7835 217.26 89.6652V86.9861C217.26 85.736 216.467 84.7197 215.492 84.7197H207.925C207.806 84.7197 207.71 84.6229 207.71 84.5045V77.3034H206.356V84.5045C206.356 84.6238 206.259 84.7197 206.141 84.7197H198.425C197.45 84.7197 196.656 85.737 196.656 86.9861V89.6652C196.656 89.7845 196.56 89.8804 196.442 89.8804C196.323 89.8804 196.227 89.7835 196.227 89.6652V86.9861C196.227 85.4983 197.213 84.2883 198.426 84.2883H205.927V77.0873C205.927 76.9679 206.023 76.8711 206.142 76.8711H207.927C208.046 76.8711 208.142 76.9679 208.142 77.0873V84.2883H215.494C216.706 84.2883 217.693 85.4983 217.693 86.9861V89.6652C217.693 89.7845 217.597 89.8804 217.478 89.8804H217.475Z" fill="#3D3D3D"/>
<path d="M251.613 66.8555H235.014C233.789 66.8555 232.796 67.8496 232.796 69.0759V112.33C232.796 113.557 233.789 114.551 235.014 114.551H251.613C252.838 114.551 253.831 113.557 253.831 112.33V69.0759C253.831 67.8496 252.838 66.8555 251.613 66.8555Z" fill="#00CB82"/>
<path d="M251.848 42.3594H234.78C233.684 42.3594 232.796 43.4705 232.796 44.8419V71.0737C232.796 72.4451 233.684 73.5562 234.78 73.5562H242.495V80.8512H244.281V73.5562H251.848C252.943 73.5562 253.831 72.4451 253.831 71.0737V44.8419C253.831 43.4705 252.943 42.3594 251.848 42.3594Z" fill="#3D3D3D"/>
<path d="M251.847 31.4368H244.28V24.0195H242.496V31.4368H234.78C233.685 31.4368 232.797 32.548 232.797 33.9193V46.5354C232.797 47.9067 233.685 49.0179 234.78 49.0179H242.496V56.4176H244.28V49.0179H251.847C252.943 49.0179 253.831 47.9067 253.831 46.5354V33.9193C253.831 32.548 252.943 31.4368 251.847 31.4368Z" fill="white"/>
<path d="M253.832 46.7499C253.713 46.7499 253.617 46.6531 253.617 46.5348V33.9187C253.617 32.6686 252.824 31.6523 251.849 31.6523H244.282C244.162 31.6523 244.067 31.5555 244.067 31.4371V24.236H242.713V31.4371C242.713 31.5565 242.617 31.6523 242.498 31.6523H234.783C233.808 31.6523 233.014 32.6696 233.014 33.9187V46.5348C233.014 46.6541 232.917 46.7499 232.799 46.7499C232.681 46.7499 232.584 46.6531 232.584 46.5348V33.9187C232.584 32.4309 233.571 31.221 234.784 31.221H242.284V24.0199C242.284 23.9005 242.381 23.8047 242.499 23.8047H244.284C244.403 23.8047 244.498 23.9015 244.498 24.0199V31.221H251.85C253.063 31.221 254.05 32.4309 254.05 33.9187V46.5348C254.05 46.6541 253.953 46.7499 253.835 46.7499H253.832Z" fill="#3D3D3D"/>
<path d="M135.566 92.1848C136.979 91.5992 137.649 89.9782 137.064 88.5643C136.479 87.1503 134.86 86.4789 133.447 87.0646C132.035 87.6502 131.364 89.2712 131.949 90.6851C132.534 92.0991 134.154 92.7705 135.566 92.1848Z" fill="#3D3D3D"/>
<path d="M171.431 47.6145C172.844 47.0289 173.514 45.4079 172.929 43.9939C172.344 42.58 170.725 41.9086 169.312 42.4942C167.9 43.0799 167.229 44.7009 167.814 46.1148C168.399 47.5288 170.019 48.2002 171.431 47.6145Z" fill="#3D3D3D"/>
<path d="M206.957 65.673C208.486 65.673 209.725 64.4324 209.725 62.9019C209.725 61.3715 208.486 60.1309 206.957 60.1309C205.428 60.1309 204.189 61.3715 204.189 62.9019C204.189 64.4324 205.428 65.673 206.957 65.673Z" fill="#3D3D3D"/>
<path d="M243.314 5.54411C244.843 5.54411 246.082 4.30345 246.082 2.77303C246.082 1.24261 244.843 0.00195312 243.314 0.00195312C241.785 0.00195312 240.545 1.24261 240.545 2.77303C240.545 4.30345 241.785 5.54411 243.314 5.54411Z" fill="#3D3D3D"/>
<path d="M100.337 113.43C100.268 113.43 100.201 113.397 100.159 113.337C100.091 113.239 100.116 113.104 100.213 113.036L134.359 89.4672L170.205 44.9196C170.267 44.8414 170.377 44.8169 170.467 44.8609L206.97 62.714L243.174 2.67857C243.235 2.57684 243.368 2.54359 243.47 2.60521C243.571 2.66683 243.605 2.79888 243.543 2.90159L207.238 63.1062C207.18 63.2021 207.059 63.2373 206.958 63.1884L170.433 45.3236L134.675 89.7616C134.661 89.7782 134.647 89.7919 134.629 89.8036L100.459 113.391C100.422 113.416 100.379 113.429 100.337 113.429V113.43Z" fill="#3D3D3D"/>
<path d="M199.436 162.785H218.035C218.508 162.785 218.891 162.402 218.891 161.928V159.655C218.891 159.182 218.508 158.798 218.035 158.798H199.436C198.963 158.798 198.58 159.182 198.58 159.655V161.928C198.58 162.402 198.963 162.785 199.436 162.785Z" fill="white"/>
<path d="M218.037 163H199.436C198.845 163 198.365 162.519 198.365 161.928V159.654C198.365 159.063 198.845 158.582 199.436 158.582H218.037C218.627 158.582 219.107 159.063 219.107 159.654V161.928C219.107 162.519 218.627 163 218.037 163ZM199.436 159.013C199.083 159.013 198.796 159.301 198.796 159.654V161.928C198.796 162.281 199.083 162.569 199.436 162.569H218.037C218.389 162.569 218.677 162.281 218.677 161.928V159.654C218.677 159.301 218.389 159.013 218.037 159.013H199.436Z" fill="#3D3D3D"/>
<path d="M200.748 162.202C200.629 162.202 200.533 162.105 200.533 161.987V159.461C200.533 159.342 200.63 159.246 200.748 159.246C200.866 159.246 200.963 159.343 200.963 159.461V161.987C200.963 162.106 200.866 162.202 200.748 162.202Z" fill="#3D3D3D"/>
<path d="M202.106 162.202C201.987 162.202 201.891 162.105 201.891 161.987V159.461C201.891 159.342 201.988 159.246 202.106 159.246C202.224 159.246 202.321 159.343 202.321 159.461V161.987C202.321 162.106 202.224 162.202 202.106 162.202Z" fill="#3D3D3D"/>
<path d="M204.823 162.202C204.703 162.202 204.608 162.105 204.608 161.987V159.461C204.608 159.342 204.704 159.246 204.823 159.246C204.941 159.246 205.037 159.343 205.037 159.461V161.987C205.037 162.106 204.941 162.202 204.823 162.202Z" fill="#3D3D3D"/>
<path d="M208.898 162.202C208.779 162.202 208.683 162.105 208.683 161.987V159.461C208.683 159.342 208.78 159.246 208.898 159.246C209.017 159.246 209.113 159.343 209.113 159.461V161.987C209.113 162.106 209.017 162.202 208.898 162.202Z" fill="#3D3D3D"/>
<path d="M210.256 162.202C210.137 162.202 210.042 162.105 210.042 161.987V159.461C210.042 159.342 210.138 159.246 210.256 159.246C210.375 159.246 210.471 159.343 210.471 159.461V161.987C210.471 162.106 210.375 162.202 210.256 162.202Z" fill="#3D3D3D"/>
<path d="M215.318 174.754H196.719C196.246 174.754 195.863 175.138 195.863 175.611V177.884C195.863 178.357 196.246 178.741 196.719 178.741H215.318C215.791 178.741 216.174 178.357 216.174 177.884V175.611C216.174 175.138 215.791 174.754 215.318 174.754Z" fill="white"/>
<path d="M215.318 178.957H196.717C196.127 178.957 195.646 178.476 195.646 177.885V175.611C195.646 175.02 196.127 174.539 196.717 174.539H215.318C215.908 174.539 216.389 175.02 216.389 175.611V177.885C216.389 178.476 215.908 178.957 215.318 178.957ZM196.717 174.97C196.365 174.97 196.077 175.258 196.077 175.611V177.885C196.077 178.238 196.365 178.526 196.717 178.526H215.318C215.671 178.526 215.958 178.238 215.958 177.885V175.611C215.958 175.258 215.671 174.97 215.318 174.97H196.717Z" fill="#3D3D3D"/>
<path d="M214.006 178.293C213.887 178.293 213.792 178.196 213.792 178.078V175.553C213.792 175.434 213.888 175.338 214.006 175.338C214.125 175.338 214.221 175.435 214.221 175.553V178.078C214.221 178.197 214.125 178.293 214.006 178.293Z" fill="#3D3D3D"/>
<path d="M212.648 178.293C212.529 178.293 212.433 178.196 212.433 178.078V175.553C212.433 175.434 212.53 175.338 212.648 175.338C212.766 175.338 212.863 175.435 212.863 175.553V178.078C212.863 178.197 212.766 178.293 212.648 178.293Z" fill="#3D3D3D"/>
<path d="M209.932 178.293C209.813 178.293 209.717 178.196 209.717 178.078V175.553C209.717 175.434 209.814 175.338 209.932 175.338C210.05 175.338 210.147 175.435 210.147 175.553V178.078C210.147 178.197 210.05 178.293 209.932 178.293Z" fill="#3D3D3D"/>
<path d="M205.856 178.293C205.737 178.293 205.641 178.196 205.641 178.078V175.553C205.641 175.434 205.738 175.338 205.856 175.338C205.974 175.338 206.071 175.435 206.071 175.553V178.078C206.071 178.197 205.974 178.293 205.856 178.293Z" fill="#3D3D3D"/>
<path d="M204.498 178.293C204.379 178.293 204.283 178.196 204.283 178.078V175.553C204.283 175.434 204.38 175.338 204.498 175.338C204.616 175.338 204.713 175.435 204.713 175.553V178.078C204.713 178.197 204.616 178.293 204.498 178.293Z" fill="#3D3D3D"/>
<path d="M199.273 174.719H217.873C218.346 174.719 218.729 174.335 218.729 173.862V171.589C218.729 171.115 218.346 170.732 217.873 170.732H199.273C198.801 170.732 198.417 171.115 198.417 171.589V173.862C198.417 174.335 198.801 174.719 199.273 174.719Z" fill="white"/>
<path d="M217.873 174.936H199.272C198.682 174.936 198.202 174.455 198.202 173.864V171.59C198.202 170.999 198.682 170.518 199.272 170.518H217.873C218.463 170.518 218.944 170.999 218.944 171.59V173.864C218.944 174.455 218.463 174.936 217.873 174.936ZM199.272 170.949C198.92 170.949 198.632 171.237 198.632 171.59V173.864C198.632 174.217 198.92 174.504 199.272 174.504H217.873C218.226 174.504 218.513 174.217 218.513 173.864V171.59C218.513 171.237 218.226 170.949 217.873 170.949H199.272Z" fill="#3D3D3D"/>
<path d="M200.585 174.139C200.466 174.139 200.37 174.042 200.37 173.923V171.399C200.37 171.279 200.467 171.184 200.585 171.184C200.704 171.184 200.8 171.28 200.8 171.399V173.923C200.8 174.043 200.704 174.139 200.585 174.139Z" fill="#3D3D3D"/>
<path d="M201.944 174.139C201.825 174.139 201.729 174.042 201.729 173.923V171.399C201.729 171.279 201.826 171.184 201.944 171.184C202.062 171.184 202.159 171.28 202.159 171.399V173.923C202.159 174.043 202.062 174.139 201.944 174.139Z" fill="#3D3D3D"/>
<path d="M204.66 174.139C204.541 174.139 204.445 174.042 204.445 173.923V171.399C204.445 171.279 204.542 171.184 204.66 171.184C204.779 171.184 204.875 171.28 204.875 171.399V173.923C204.875 174.043 204.779 174.139 204.66 174.139Z" fill="#3D3D3D"/>
<path d="M208.735 174.139C208.616 174.139 208.52 174.042 208.52 173.923V171.399C208.52 171.279 208.617 171.184 208.735 171.184C208.853 171.184 208.95 171.28 208.95 171.399V173.923C208.95 174.043 208.853 174.139 208.735 174.139Z" fill="#3D3D3D"/>
<path d="M210.094 174.139C209.975 174.139 209.879 174.042 209.879 173.923V171.399C209.879 171.279 209.976 171.184 210.094 171.184C210.213 171.184 210.309 171.28 210.309 171.399V173.923C210.309 174.043 210.213 174.139 210.094 174.139Z" fill="#3D3D3D"/>
<path d="M215.819 166.713H197.219C196.746 166.713 196.363 167.097 196.363 167.57V169.843C196.363 170.316 196.746 170.7 197.219 170.7H215.819C216.292 170.7 216.675 170.316 216.675 169.843V167.57C216.675 167.097 216.292 166.713 215.819 166.713Z" fill="white"/>
<path d="M215.819 170.916H197.218C196.628 170.916 196.147 170.435 196.147 169.844V167.57C196.147 166.979 196.628 166.498 197.218 166.498H215.819C216.409 166.498 216.89 166.979 216.89 167.57V169.844C216.89 170.435 216.409 170.916 215.819 170.916ZM197.218 166.929C196.866 166.929 196.578 167.217 196.578 167.57V169.844C196.578 170.197 196.866 170.485 197.218 170.485H215.819C216.172 170.485 216.459 170.197 216.459 169.844V167.57C216.459 167.217 216.172 166.929 215.819 166.929H197.218Z" fill="#3D3D3D"/>
<path d="M214.506 170.25C214.387 170.25 214.292 170.153 214.292 170.035V167.51C214.292 167.391 214.388 167.295 214.506 167.295C214.625 167.295 214.721 167.392 214.721 167.51V170.035C214.721 170.154 214.625 170.25 214.506 170.25Z" fill="#3D3D3D"/>
<path d="M213.148 170.25C213.029 170.25 212.933 170.153 212.933 170.035V167.51C212.933 167.391 213.03 167.295 213.148 167.295C213.267 167.295 213.363 167.392 213.363 167.51V170.035C213.363 170.154 213.267 170.25 213.148 170.25Z" fill="#3D3D3D"/>
<path d="M210.431 170.25C210.312 170.25 210.216 170.153 210.216 170.035V167.51C210.216 167.391 210.313 167.295 210.431 167.295C210.549 167.295 210.646 167.392 210.646 167.51V170.035C210.646 170.154 210.549 170.25 210.431 170.25Z" fill="#3D3D3D"/>
<path d="M206.356 170.25C206.237 170.25 206.141 170.153 206.141 170.035V167.51C206.141 167.391 206.238 167.295 206.356 167.295C206.474 167.295 206.571 167.392 206.571 167.51V170.035C206.571 170.154 206.474 170.25 206.356 170.25Z" fill="#3D3D3D"/>
<path d="M204.998 170.25C204.879 170.25 204.783 170.153 204.783 170.035V167.51C204.783 167.391 204.88 167.295 204.998 167.295C205.116 167.295 205.213 167.392 205.213 167.51V170.035C205.213 170.154 205.116 170.25 204.998 170.25Z" fill="#3D3D3D"/>
<path d="M197.935 158.789H216.534C217.007 158.789 217.39 158.405 217.39 157.932V155.659C217.39 155.186 217.007 154.802 216.534 154.802H197.935C197.462 154.802 197.079 155.186 197.079 155.659V157.932C197.079 158.405 197.462 158.789 197.935 158.789Z" fill="white"/>
<path d="M216.534 159.006H197.934C197.343 159.006 196.863 158.525 196.863 157.934V155.66C196.863 155.069 197.343 154.588 197.934 154.588H216.534C217.125 154.588 217.605 155.069 217.605 155.66V157.934C217.605 158.525 217.125 159.006 216.534 159.006ZM197.934 155.019C197.581 155.019 197.294 155.307 197.294 155.66V157.934C197.294 158.287 197.581 158.575 197.934 158.575H216.534C216.887 158.575 217.174 158.287 217.174 157.934V155.66C217.174 155.307 216.887 155.019 216.534 155.019H197.934Z" fill="#3D3D3D"/>
<path d="M199.247 158.209C199.128 158.209 199.032 158.112 199.032 157.994V155.469C199.032 155.35 199.129 155.254 199.247 155.254C199.365 155.254 199.462 155.351 199.462 155.469V157.994C199.462 158.113 199.365 158.209 199.247 158.209Z" fill="#3D3D3D"/>
<path d="M200.605 158.209C200.486 158.209 200.39 158.112 200.39 157.994V155.469C200.39 155.35 200.487 155.254 200.605 155.254C200.723 155.254 200.82 155.351 200.82 155.469V157.994C200.82 158.113 200.723 158.209 200.605 158.209Z" fill="#3D3D3D"/>
<path d="M203.322 158.209C203.203 158.209 203.107 158.112 203.107 157.994V155.469C203.107 155.35 203.204 155.254 203.322 155.254C203.44 155.254 203.537 155.351 203.537 155.469V157.994C203.537 158.113 203.44 158.209 203.322 158.209Z" fill="#3D3D3D"/>
<path d="M207.396 158.209C207.277 158.209 207.181 158.112 207.181 157.994V155.469C207.181 155.35 207.278 155.254 207.396 155.254C207.514 155.254 207.611 155.351 207.611 155.469V157.994C207.611 158.113 207.514 158.209 207.396 158.209Z" fill="#3D3D3D"/>
<path d="M208.754 158.209C208.635 158.209 208.539 158.112 208.539 157.994V155.469C208.539 155.35 208.636 155.254 208.754 155.254C208.873 155.254 208.969 155.351 208.969 155.469V157.994C208.969 158.113 208.873 158.209 208.754 158.209Z" fill="#3D3D3D"/>
<path d="M214.48 150.781H195.88C195.407 150.781 195.024 151.165 195.024 151.638V153.911C195.024 154.385 195.407 154.768 195.88 154.768H214.48C214.952 154.768 215.335 154.385 215.335 153.911V151.638C215.335 151.165 214.952 150.781 214.48 150.781Z" fill="white"/>
<path d="M214.481 154.983H195.88C195.29 154.983 194.809 154.501 194.809 153.911V151.636C194.809 151.046 195.29 150.564 195.88 150.564H214.481C215.071 150.564 215.552 151.046 215.552 151.636V153.911C215.552 154.501 215.071 154.983 214.481 154.983ZM195.88 150.996C195.527 150.996 195.24 151.283 195.24 151.636V153.911C195.24 154.264 195.527 154.551 195.88 154.551H214.481C214.833 154.551 215.121 154.264 215.121 153.911V151.636C215.121 151.283 214.833 150.996 214.481 150.996H195.88Z" fill="#3D3D3D"/>
<path d="M213.167 154.32C213.048 154.32 212.952 154.223 212.952 154.105V151.58C212.952 151.461 213.049 151.365 213.167 151.365C213.285 151.365 213.382 151.462 213.382 151.58V154.105C213.382 154.224 213.285 154.32 213.167 154.32Z" fill="#3D3D3D"/>
<path d="M211.81 154.32C211.691 154.32 211.595 154.223 211.595 154.105V151.58C211.595 151.461 211.692 151.365 211.81 151.365C211.928 151.365 212.025 151.462 212.025 151.58V154.105C212.025 154.224 211.928 154.32 211.81 154.32Z" fill="#3D3D3D"/>
<path d="M209.093 154.32C208.974 154.32 208.878 154.223 208.878 154.105V151.58C208.878 151.461 208.975 151.365 209.093 151.365C209.211 151.365 209.308 151.462 209.308 151.58V154.105C209.308 154.224 209.211 154.32 209.093 154.32Z" fill="#3D3D3D"/>
<path d="M205.018 154.32C204.898 154.32 204.803 154.223 204.803 154.105V151.58C204.803 151.461 204.899 151.365 205.018 151.365C205.136 151.365 205.233 151.462 205.233 151.58V154.105C205.233 154.224 205.136 154.32 205.018 154.32Z" fill="#3D3D3D"/>
<path d="M203.66 154.32C203.541 154.32 203.445 154.223 203.445 154.105V151.58C203.445 151.461 203.542 151.365 203.66 151.365C203.778 151.365 203.875 151.462 203.875 151.58V154.105C203.875 154.224 203.778 154.32 203.66 154.32Z" fill="#3D3D3D"/>
<path d="M198.619 166.799H217.219C217.691 166.799 218.075 166.415 218.075 165.942V163.669C218.075 163.196 217.691 162.812 217.219 162.812H198.619C198.146 162.812 197.763 163.196 197.763 163.669V165.942C197.763 166.415 198.146 166.799 198.619 166.799Z" fill="white"/>
<path d="M217.219 167.014H198.618C198.028 167.014 197.547 166.533 197.547 165.942V163.668C197.547 163.077 198.028 162.596 198.618 162.596H217.219C217.809 162.596 218.289 163.077 218.289 163.668V165.942C218.289 166.533 217.809 167.014 217.219 167.014ZM198.618 163.027C198.265 163.027 197.978 163.315 197.978 163.668V165.942C197.978 166.295 198.265 166.583 198.618 166.583H217.219C217.571 166.583 217.859 166.295 217.859 165.942V163.668C217.859 163.315 217.571 163.027 217.219 163.027H198.618Z" fill="#3D3D3D"/>
<path d="M199.931 166.215C199.812 166.215 199.716 166.118 199.716 166V163.475C199.716 163.356 199.813 163.26 199.931 163.26C200.05 163.26 200.146 163.357 200.146 163.475V166C200.146 166.119 200.05 166.215 199.931 166.215Z" fill="#3D3D3D"/>
<path d="M201.29 166.215C201.17 166.215 201.075 166.118 201.075 166V163.475C201.075 163.356 201.171 163.26 201.29 163.26C201.408 163.26 201.505 163.357 201.505 163.475V166C201.505 166.119 201.408 166.215 201.29 166.215Z" fill="#3D3D3D"/>
<path d="M204.006 166.215C203.887 166.215 203.791 166.118 203.791 166V163.475C203.791 163.356 203.888 163.26 204.006 163.26C204.124 163.26 204.221 163.357 204.221 163.475V166C204.221 166.119 204.124 166.215 204.006 166.215Z" fill="#3D3D3D"/>
<path d="M208.08 166.215C207.961 166.215 207.865 166.118 207.865 166V163.475C207.865 163.356 207.962 163.26 208.08 163.26C208.198 163.26 208.295 163.357 208.295 163.475V166C208.295 166.119 208.198 166.215 208.08 166.215Z" fill="#3D3D3D"/>
<path d="M209.439 166.215C209.32 166.215 209.224 166.118 209.224 166V163.475C209.224 163.356 209.32 163.26 209.439 163.26C209.557 163.26 209.654 163.357 209.654 163.475V166C209.654 166.119 209.557 166.215 209.439 166.215Z" fill="#3D3D3D"/>
<path d="M234.821 162.787H253.421C253.893 162.787 254.276 162.403 254.276 161.93V159.657C254.276 159.184 253.893 158.8 253.421 158.8H234.821C234.348 158.8 233.965 159.184 233.965 159.657V161.93C233.965 162.403 234.348 162.787 234.821 162.787Z" fill="white"/>
<path d="M253.421 163.002H234.82C234.23 163.002 233.749 162.521 233.749 161.93V159.656C233.749 159.065 234.23 158.584 234.82 158.584H253.421C254.011 158.584 254.491 159.065 254.491 159.656V161.93C254.491 162.521 254.011 163.002 253.421 163.002ZM234.82 159.015C234.467 159.015 234.18 159.303 234.18 159.656V161.93C234.18 162.283 234.467 162.571 234.82 162.571H253.421C253.773 162.571 254.061 162.283 254.061 161.93V159.656C254.061 159.303 253.773 159.015 253.421 159.015H234.82Z" fill="#3D3D3D"/>
<path d="M236.133 162.204C236.014 162.204 235.918 162.107 235.918 161.989V159.463C235.918 159.344 236.015 159.248 236.133 159.248C236.251 159.248 236.348 159.345 236.348 159.463V161.989C236.348 162.108 236.251 162.204 236.133 162.204Z" fill="#3D3D3D"/>
<path d="M237.491 162.204C237.372 162.204 237.276 162.107 237.276 161.989V159.463C237.276 159.344 237.373 159.248 237.491 159.248C237.61 159.248 237.706 159.345 237.706 159.463V161.989C237.706 162.108 237.61 162.204 237.491 162.204Z" fill="#3D3D3D"/>
<path d="M240.208 162.204C240.089 162.204 239.993 162.107 239.993 161.989V159.463C239.993 159.344 240.09 159.248 240.208 159.248C240.326 159.248 240.423 159.345 240.423 159.463V161.989C240.423 162.108 240.326 162.204 240.208 162.204Z" fill="#3D3D3D"/>
<path d="M244.284 162.204C244.164 162.204 244.069 162.107 244.069 161.989V159.463C244.069 159.344 244.165 159.248 244.284 159.248C244.402 159.248 244.499 159.345 244.499 159.463V161.989C244.499 162.108 244.402 162.204 244.284 162.204Z" fill="#3D3D3D"/>
<path d="M245.641 162.204C245.522 162.204 245.427 162.107 245.427 161.989V159.463C245.427 159.344 245.523 159.248 245.641 159.248C245.76 159.248 245.856 159.345 245.856 159.463V161.989C245.856 162.108 245.76 162.204 245.641 162.204Z" fill="#3D3D3D"/>
<path d="M250.704 174.752H232.104C231.631 174.752 231.248 175.136 231.248 175.609V177.882C231.248 178.355 231.631 178.739 232.104 178.739H250.704C251.176 178.739 251.56 178.355 251.56 177.882V175.609C251.56 175.136 251.176 174.752 250.704 174.752Z" fill="white"/>
<path d="M250.704 178.955H232.103C231.513 178.955 231.032 178.474 231.032 177.883V175.609C231.032 175.018 231.513 174.537 232.103 174.537H250.704C251.294 174.537 251.774 175.018 251.774 175.609V177.883C251.774 178.474 251.294 178.955 250.704 178.955ZM232.103 174.968C231.75 174.968 231.463 175.256 231.463 175.609V177.883C231.463 178.236 231.75 178.524 232.103 178.524H250.704C251.056 178.524 251.344 178.236 251.344 177.883V175.609C251.344 175.256 251.056 174.968 250.704 174.968H232.103Z" fill="#3D3D3D"/>
<path d="M249.392 178.291C249.272 178.291 249.177 178.194 249.177 178.076V175.551C249.177 175.432 249.273 175.336 249.392 175.336C249.51 175.336 249.607 175.433 249.607 175.551V178.076C249.607 178.195 249.51 178.291 249.392 178.291Z" fill="#3D3D3D"/>
<path d="M248.033 178.291C247.914 178.291 247.818 178.194 247.818 178.076V175.551C247.818 175.432 247.915 175.336 248.033 175.336C248.151 175.336 248.248 175.433 248.248 175.551V178.076C248.248 178.195 248.151 178.291 248.033 178.291Z" fill="#3D3D3D"/>
<path d="M245.316 178.291C245.197 178.291 245.101 178.194 245.101 178.076V175.551C245.101 175.432 245.198 175.336 245.316 175.336C245.434 175.336 245.531 175.433 245.531 175.551V178.076C245.531 178.195 245.434 178.291 245.316 178.291Z" fill="#3D3D3D"/>
<path d="M241.241 178.291C241.122 178.291 241.026 178.194 241.026 178.076V175.551C241.026 175.432 241.123 175.336 241.241 175.336C241.359 175.336 241.456 175.433 241.456 175.551V178.076C241.456 178.195 241.359 178.291 241.241 178.291Z" fill="#3D3D3D"/>
<path d="M239.883 178.291C239.764 178.291 239.668 178.194 239.668 178.076V175.551C239.668 175.432 239.765 175.336 239.883 175.336C240.001 175.336 240.098 175.433 240.098 175.551V178.076C240.098 178.195 240.001 178.291 239.883 178.291Z" fill="#3D3D3D"/>
<path d="M234.658 174.717H253.258C253.731 174.717 254.114 174.333 254.114 173.86V171.587C254.114 171.114 253.731 170.73 253.258 170.73H234.658C234.186 170.73 233.802 171.114 233.802 171.587V173.86C233.802 174.333 234.186 174.717 234.658 174.717Z" fill="white"/>
<path d="M253.258 174.934H234.657C234.067 174.934 233.586 174.453 233.586 173.862V171.588C233.586 170.997 234.067 170.516 234.657 170.516H253.258C253.848 170.516 254.329 170.997 254.329 171.588V173.862C254.329 174.453 253.848 174.934 253.258 174.934ZM234.657 170.947C234.304 170.947 234.017 171.235 234.017 171.588V173.862C234.017 174.215 234.304 174.503 234.657 174.503H253.258C253.611 174.503 253.898 174.215 253.898 173.862V171.588C253.898 171.235 253.611 170.947 253.258 170.947H234.657Z" fill="#3D3D3D"/>
<path d="M235.971 174.139C235.852 174.139 235.756 174.042 235.756 173.923V171.399C235.756 171.279 235.853 171.184 235.971 171.184C236.089 171.184 236.186 171.28 236.186 171.399V173.923C236.186 174.043 236.089 174.139 235.971 174.139Z" fill="#3D3D3D"/>
<path d="M237.329 174.139C237.21 174.139 237.114 174.042 237.114 173.923V171.399C237.114 171.279 237.211 171.184 237.329 171.184C237.448 171.184 237.544 171.28 237.544 171.399V173.923C237.544 174.043 237.448 174.139 237.329 174.139Z" fill="#3D3D3D"/>
<path d="M240.046 174.139C239.926 174.139 239.831 174.042 239.831 173.923V171.399C239.831 171.279 239.927 171.184 240.046 171.184C240.164 171.184 240.261 171.28 240.261 171.399V173.923C240.261 174.043 240.164 174.139 240.046 174.139Z" fill="#3D3D3D"/>
<path d="M244.121 174.139C244.002 174.139 243.906 174.042 243.906 173.923V171.399C243.906 171.279 244.003 171.184 244.121 171.184C244.24 171.184 244.336 171.28 244.336 171.399V173.923C244.336 174.043 244.24 174.139 244.121 174.139Z" fill="#3D3D3D"/>
<path d="M245.479 174.139C245.36 174.139 245.265 174.042 245.265 173.923V171.399C245.265 171.279 245.361 171.184 245.479 171.184C245.598 171.184 245.694 171.28 245.694 171.399V173.923C245.694 174.043 245.598 174.139 245.479 174.139Z" fill="#3D3D3D"/>
<path d="M251.205 166.711H232.605C232.132 166.711 231.749 167.095 231.749 167.568V169.841C231.749 170.314 232.132 170.698 232.605 170.698H251.205C251.677 170.698 252.061 170.314 252.061 169.841V167.568C252.061 167.095 251.677 166.711 251.205 166.711Z" fill="white"/>
<path d="M251.205 170.914H232.604C232.014 170.914 231.533 170.433 231.533 169.842V167.568C231.533 166.977 232.014 166.496 232.604 166.496H251.205C251.795 166.496 252.276 166.977 252.276 167.568V169.842C252.276 170.433 251.795 170.914 251.205 170.914ZM232.604 166.927C232.251 166.927 231.964 167.215 231.964 167.568V169.842C231.964 170.195 232.251 170.483 232.604 170.483H251.205C251.557 170.483 251.845 170.195 251.845 169.842V167.568C251.845 167.215 251.557 166.927 251.205 166.927H232.604Z" fill="#3D3D3D"/>
<path d="M249.893 170.248C249.773 170.248 249.678 170.151 249.678 170.033V167.508C249.678 167.389 249.774 167.293 249.893 167.293C250.011 167.293 250.108 167.39 250.108 167.508V170.033C250.108 170.152 250.011 170.248 249.893 170.248Z" fill="#3D3D3D"/>
<path d="M248.533 170.248C248.414 170.248 248.318 170.151 248.318 170.033V167.508C248.318 167.389 248.415 167.293 248.533 167.293C248.651 167.293 248.748 167.39 248.748 167.508V170.033C248.748 170.152 248.651 170.248 248.533 170.248Z" fill="#3D3D3D"/>
<path d="M245.817 170.248C245.698 170.248 245.602 170.151 245.602 170.033V167.508C245.602 167.389 245.699 167.293 245.817 167.293C245.935 167.293 246.032 167.39 246.032 167.508V170.033C246.032 170.152 245.935 170.248 245.817 170.248Z" fill="#3D3D3D"/>
<path d="M241.742 170.248C241.623 170.248 241.527 170.151 241.527 170.033V167.508C241.527 167.389 241.624 167.293 241.742 167.293C241.86 167.293 241.957 167.39 241.957 167.508V170.033C241.957 170.152 241.86 170.248 241.742 170.248Z" fill="#3D3D3D"/>
<path d="M240.384 170.248C240.265 170.248 240.169 170.151 240.169 170.033V167.508C240.169 167.389 240.266 167.293 240.384 167.293C240.502 167.293 240.599 167.39 240.599 167.508V170.033C240.599 170.152 240.502 170.248 240.384 170.248Z" fill="#3D3D3D"/>
<path d="M234.004 166.801H252.603C253.076 166.801 253.459 166.417 253.459 165.944V163.671C253.459 163.198 253.076 162.814 252.603 162.814H234.004C233.531 162.814 233.148 163.198 233.148 163.671V165.944C233.148 166.417 233.531 166.801 234.004 166.801Z" fill="white"/>
<path d="M252.604 167.016H234.003C233.413 167.016 232.932 166.535 232.932 165.944V163.67C232.932 163.079 233.413 162.598 234.003 162.598H252.604C253.194 162.598 253.674 163.079 253.674 163.67V165.944C253.674 166.535 253.194 167.016 252.604 167.016ZM234.003 163.029C233.65 163.029 233.363 163.317 233.363 163.67V165.944C233.363 166.297 233.65 166.585 234.003 166.585H252.604C252.956 166.585 253.244 166.297 253.244 165.944V163.67C253.244 163.317 252.956 163.029 252.604 163.029H234.003Z" fill="#3D3D3D"/>
<path d="M235.316 166.217C235.197 166.217 235.101 166.12 235.101 166.001V163.477C235.101 163.358 235.198 163.262 235.316 163.262C235.434 163.262 235.531 163.359 235.531 163.477V166.001C235.531 166.121 235.434 166.217 235.316 166.217Z" fill="#3D3D3D"/>
<path d="M236.675 166.217C236.555 166.217 236.46 166.12 236.46 166.001V163.477C236.46 163.358 236.556 163.262 236.675 163.262C236.793 163.262 236.89 163.359 236.89 163.477V166.001C236.89 166.121 236.793 166.217 236.675 166.217Z" fill="#3D3D3D"/>
<path d="M239.391 166.217C239.272 166.217 239.176 166.12 239.176 166.001V163.477C239.176 163.358 239.273 163.262 239.391 163.262C239.509 163.262 239.606 163.359 239.606 163.477V166.001C239.606 166.121 239.509 166.217 239.391 166.217Z" fill="#3D3D3D"/>
<path d="M243.465 166.217C243.346 166.217 243.25 166.12 243.25 166.001V163.477C243.25 163.358 243.347 163.262 243.465 163.262C243.584 163.262 243.68 163.359 243.68 163.477V166.001C243.68 166.121 243.584 166.217 243.465 166.217Z" fill="#3D3D3D"/>
<path d="M244.825 166.217C244.706 166.217 244.61 166.12 244.61 166.001V163.477C244.61 163.358 244.707 163.262 244.825 163.262C244.943 163.262 245.04 163.359 245.04 163.477V166.001C245.04 166.121 244.943 166.217 244.825 166.217Z" fill="#3D3D3D"/>
<path d="M235.922 142.824H254.522C254.995 142.824 255.378 142.441 255.378 141.967V139.694C255.378 139.221 254.995 138.837 254.522 138.837H235.922C235.45 138.837 235.066 139.221 235.066 139.694V141.967C235.066 142.441 235.45 142.824 235.922 142.824Z" fill="white"/>
<path d="M254.522 143.041H235.922C235.331 143.041 234.851 142.56 234.851 141.969V139.695C234.851 139.104 235.331 138.623 235.922 138.623H254.522C255.113 138.623 255.593 139.104 255.593 139.695V141.969C255.593 142.56 255.113 143.041 254.522 143.041ZM235.922 139.054C235.569 139.054 235.282 139.342 235.282 139.695V141.969C235.282 142.322 235.569 142.61 235.922 142.61H254.522C254.875 142.61 255.162 142.322 255.162 141.969V139.695C255.162 139.342 254.875 139.054 254.522 139.054H235.922Z" fill="#3D3D3D"/>
<path d="M237.235 142.244C237.115 142.244 237.02 142.147 237.02 142.029V139.504C237.02 139.385 237.116 139.289 237.235 139.289C237.353 139.289 237.45 139.386 237.45 139.504V142.029C237.45 142.148 237.353 142.244 237.235 142.244Z" fill="#3D3D3D"/>
<path d="M238.593 142.244C238.474 142.244 238.378 142.147 238.378 142.029V139.504C238.378 139.385 238.475 139.289 238.593 139.289C238.711 139.289 238.808 139.386 238.808 139.504V142.029C238.808 142.148 238.711 142.244 238.593 142.244Z" fill="#3D3D3D"/>
<path d="M241.309 142.244C241.19 142.244 241.094 142.147 241.094 142.029V139.504C241.094 139.385 241.191 139.289 241.309 139.289C241.428 139.289 241.524 139.386 241.524 139.504V142.029C241.524 142.148 241.428 142.244 241.309 142.244Z" fill="#3D3D3D"/>
<path d="M245.385 142.244C245.266 142.244 245.17 142.147 245.17 142.029V139.504C245.17 139.385 245.267 139.289 245.385 139.289C245.503 139.289 245.6 139.386 245.6 139.504V142.029C245.6 142.148 245.503 142.244 245.385 142.244Z" fill="#3D3D3D"/>
<path d="M246.743 142.244C246.624 142.244 246.528 142.147 246.528 142.029V139.504C246.528 139.385 246.625 139.289 246.743 139.289C246.862 139.289 246.958 139.386 246.958 139.504V142.029C246.958 142.148 246.862 142.244 246.743 142.244Z" fill="#3D3D3D"/>
<path d="M251.806 154.795H233.206C232.734 154.795 232.35 155.179 232.35 155.652V157.925C232.35 158.398 232.734 158.782 233.206 158.782H251.806C252.279 158.782 252.662 158.398 252.662 157.925V155.652C252.662 155.179 252.279 154.795 251.806 154.795Z" fill="white"/>
<path d="M251.806 158.998H233.205C232.615 158.998 232.134 158.517 232.134 157.926V155.652C232.134 155.061 232.615 154.58 233.205 154.58H251.806C252.396 154.58 252.877 155.061 252.877 155.652V157.926C252.877 158.517 252.396 158.998 251.806 158.998ZM233.205 155.011C232.852 155.011 232.565 155.299 232.565 155.652V157.926C232.565 158.279 232.852 158.567 233.205 158.567H251.806C252.159 158.567 252.446 158.279 252.446 157.926V155.652C252.446 155.299 252.159 155.011 251.806 155.011H233.205Z" fill="#3D3D3D"/>
<path d="M250.494 158.332C250.375 158.332 250.279 158.235 250.279 158.117V155.592C250.279 155.473 250.376 155.377 250.494 155.377C250.612 155.377 250.709 155.474 250.709 155.592V158.117C250.709 158.236 250.612 158.332 250.494 158.332Z" fill="#3D3D3D"/>
<path d="M249.135 158.332C249.016 158.332 248.92 158.235 248.92 158.117V155.592C248.92 155.473 249.017 155.377 249.135 155.377C249.253 155.377 249.35 155.474 249.35 155.592V158.117C249.35 158.236 249.253 158.332 249.135 158.332Z" fill="#3D3D3D"/>
<path d="M246.418 158.332C246.299 158.332 246.203 158.235 246.203 158.117V155.592C246.203 155.473 246.3 155.377 246.418 155.377C246.536 155.377 246.633 155.474 246.633 155.592V158.117C246.633 158.236 246.536 158.332 246.418 158.332Z" fill="#3D3D3D"/>
<path d="M242.344 158.332C242.224 158.332 242.129 158.235 242.129 158.117V155.592C242.129 155.473 242.225 155.377 242.344 155.377C242.462 155.377 242.558 155.474 242.558 155.592V158.117C242.558 158.236 242.462 158.332 242.344 158.332Z" fill="#3D3D3D"/>
<path d="M240.985 158.332C240.866 158.332 240.77 158.235 240.77 158.117V155.592C240.77 155.473 240.867 155.377 240.985 155.377C241.103 155.377 241.2 155.474 241.2 155.592V158.117C241.2 158.236 241.103 158.332 240.985 158.332Z" fill="#3D3D3D"/>
<path d="M235.76 154.762H254.36C254.833 154.762 255.216 154.378 255.216 153.905V151.632C255.216 151.158 254.833 150.775 254.36 150.775H235.76C235.288 150.775 234.904 151.158 234.904 151.632V153.905C234.904 154.378 235.288 154.762 235.76 154.762Z" fill="white"/>
<path d="M254.36 154.977H235.759C235.169 154.977 234.688 154.496 234.688 153.905V151.631C234.688 151.04 235.169 150.559 235.759 150.559H254.36C254.95 150.559 255.431 151.04 255.431 151.631V153.905C255.431 154.496 254.95 154.977 254.36 154.977ZM235.759 150.99C235.407 150.99 235.119 151.278 235.119 151.631V153.905C235.119 154.258 235.407 154.546 235.759 154.546H254.36C254.713 154.546 255 154.258 255 153.905V151.631C255 151.278 254.713 150.99 254.36 150.99H235.759Z" fill="#3D3D3D"/>
<path d="M237.072 154.18C236.953 154.18 236.857 154.083 236.857 153.964V151.44C236.857 151.32 236.954 151.225 237.072 151.225C237.19 151.225 237.287 151.321 237.287 151.44V153.964C237.287 154.084 237.19 154.18 237.072 154.18Z" fill="#3D3D3D"/>
<path d="M238.431 154.18C238.312 154.18 238.216 154.083 238.216 153.964V151.44C238.216 151.32 238.313 151.225 238.431 151.225C238.549 151.225 238.646 151.321 238.646 151.44V153.964C238.646 154.084 238.549 154.18 238.431 154.18Z" fill="#3D3D3D"/>
<path d="M241.147 154.18C241.028 154.18 240.932 154.083 240.932 153.964V151.44C240.932 151.32 241.029 151.225 241.147 151.225C241.266 151.225 241.362 151.321 241.362 151.44V153.964C241.362 154.084 241.266 154.18 241.147 154.18Z" fill="#3D3D3D"/>
<path d="M245.223 154.18C245.104 154.18 245.008 154.083 245.008 153.964V151.44C245.008 151.32 245.105 151.225 245.223 151.225C245.341 151.225 245.438 151.321 245.438 151.44V153.964C245.438 154.084 245.341 154.18 245.223 154.18Z" fill="#3D3D3D"/>
<path d="M246.581 154.18C246.462 154.18 246.366 154.083 246.366 153.964V151.44C246.366 151.32 246.463 151.225 246.581 151.225C246.7 151.225 246.796 151.321 246.796 151.44V153.964C246.796 154.084 246.7 154.18 246.581 154.18Z" fill="#3D3D3D"/>
<path d="M252.307 146.752H233.707C233.234 146.752 232.851 147.136 232.851 147.609V149.882C232.851 150.355 233.234 150.739 233.707 150.739H252.307C252.78 150.739 253.163 150.355 253.163 149.882V147.609C253.163 147.136 252.78 146.752 252.307 146.752Z" fill="white"/>
<path d="M252.306 150.955H233.706C233.115 150.955 232.635 150.474 232.635 149.883V147.609C232.635 147.018 233.115 146.537 233.706 146.537H252.306C252.897 146.537 253.377 147.018 253.377 147.609V149.883C253.377 150.474 252.897 150.955 252.306 150.955ZM233.706 146.968C233.353 146.968 233.066 147.256 233.066 147.609V149.883C233.066 150.236 233.353 150.524 233.706 150.524H252.306C252.659 150.524 252.946 150.236 252.946 149.883V147.609C252.946 147.256 252.659 146.968 252.306 146.968H233.706Z" fill="#3D3D3D"/>
<path d="M250.995 150.291C250.875 150.291 250.78 150.194 250.78 150.076V147.551C250.78 147.432 250.876 147.336 250.995 147.336C251.113 147.336 251.209 147.433 251.209 147.551V150.076C251.209 150.195 251.113 150.291 250.995 150.291Z" fill="#3D3D3D"/>
<path d="M249.635 150.291C249.516 150.291 249.42 150.194 249.42 150.076V147.551C249.42 147.432 249.517 147.336 249.635 147.336C249.753 147.336 249.85 147.433 249.85 147.551V150.076C249.85 150.195 249.753 150.291 249.635 150.291Z" fill="#3D3D3D"/>
<path d="M246.919 150.291C246.799 150.291 246.704 150.194 246.704 150.076V147.551C246.704 147.432 246.8 147.336 246.919 147.336C247.037 147.336 247.134 147.433 247.134 147.551V150.076C247.134 150.195 247.037 150.291 246.919 150.291Z" fill="#3D3D3D"/>
<path d="M242.844 150.291C242.725 150.291 242.629 150.194 242.629 150.076V147.551C242.629 147.432 242.726 147.336 242.844 147.336C242.962 147.336 243.059 147.433 243.059 147.551V150.076C243.059 150.195 242.962 150.291 242.844 150.291Z" fill="#3D3D3D"/>
<path d="M241.485 150.291C241.366 150.291 241.271 150.194 241.271 150.076V147.551C241.271 147.432 241.367 147.336 241.485 147.336C241.604 147.336 241.7 147.433 241.7 147.551V150.076C241.7 150.195 241.604 150.291 241.485 150.291Z" fill="#3D3D3D"/>
<path d="M235.105 146.836H253.705C254.178 146.836 254.561 146.452 254.561 145.979V143.706C254.561 143.233 254.178 142.849 253.705 142.849H235.105C234.633 142.849 234.249 143.233 234.249 143.706V145.979C234.249 146.452 234.633 146.836 235.105 146.836Z" fill="white"/>
<path d="M253.705 147.053H235.105C234.514 147.053 234.034 146.572 234.034 145.981V143.707C234.034 143.116 234.514 142.635 235.105 142.635H253.705C254.296 142.635 254.776 143.116 254.776 143.707V145.981C254.776 146.572 254.296 147.053 253.705 147.053ZM235.105 143.066C234.752 143.066 234.464 143.354 234.464 143.707V145.981C234.464 146.334 234.752 146.622 235.105 146.622H253.705C254.058 146.622 254.345 146.334 254.345 145.981V143.707C254.345 143.354 254.058 143.066 253.705 143.066H235.105Z" fill="#3D3D3D"/>
<path d="M236.418 146.256C236.299 146.256 236.203 146.159 236.203 146.041V143.516C236.203 143.397 236.3 143.301 236.418 143.301C236.536 143.301 236.633 143.398 236.633 143.516V146.041C236.633 146.16 236.536 146.256 236.418 146.256Z" fill="#3D3D3D"/>
<path d="M237.776 146.256C237.657 146.256 237.561 146.159 237.561 146.041V143.516C237.561 143.397 237.658 143.301 237.776 143.301C237.894 143.301 237.991 143.398 237.991 143.516V146.041C237.991 146.16 237.894 146.256 237.776 146.256Z" fill="#3D3D3D"/>
<path d="M240.493 146.256C240.374 146.256 240.278 146.159 240.278 146.041V143.516C240.278 143.397 240.375 143.301 240.493 143.301C240.611 143.301 240.708 143.398 240.708 143.516V146.041C240.708 146.16 240.611 146.256 240.493 146.256Z" fill="#3D3D3D"/>
<path d="M244.567 146.256C244.448 146.256 244.352 146.159 244.352 146.041V143.516C244.352 143.397 244.449 143.301 244.567 143.301C244.685 143.301 244.782 143.398 244.782 143.516V146.041C244.782 146.16 244.685 146.256 244.567 146.256Z" fill="#3D3D3D"/>
<path d="M245.926 146.256C245.807 146.256 245.711 146.159 245.711 146.041V143.516C245.711 143.397 245.808 143.301 245.926 143.301C246.045 143.301 246.141 143.398 246.141 143.516V146.041C246.141 146.16 246.045 146.256 245.926 146.256Z" fill="#3D3D3D"/>
<path d="M179.942 174.771H161.342C160.87 174.771 160.486 175.155 160.486 175.628V177.902C160.486 178.375 160.87 178.758 161.342 178.758H179.942C180.415 178.758 180.798 178.375 180.798 177.902V175.628C180.798 175.155 180.415 174.771 179.942 174.771Z" fill="white"/>
<path d="M179.942 178.975H161.341C160.751 178.975 160.27 178.494 160.27 177.903V175.629C160.27 175.038 160.751 174.557 161.341 174.557H179.942C180.532 174.557 181.013 175.038 181.013 175.629V177.903C181.013 178.494 180.532 178.975 179.942 178.975ZM161.341 174.988C160.988 174.988 160.701 175.276 160.701 175.629V177.903C160.701 178.256 160.988 178.544 161.341 178.544H179.942C180.294 178.544 180.582 178.256 180.582 177.903V175.629C180.582 175.276 180.294 174.988 179.942 174.988H161.341Z" fill="#3D3D3D"/>
<path d="M178.63 178.31C178.511 178.31 178.415 178.214 178.415 178.095V175.571C178.415 175.451 178.512 175.355 178.63 175.355C178.748 175.355 178.845 175.452 178.845 175.571V178.095C178.845 178.215 178.748 178.31 178.63 178.31Z" fill="#3D3D3D"/>
<path d="M177.271 178.31C177.152 178.31 177.056 178.214 177.056 178.095V175.571C177.056 175.451 177.153 175.355 177.271 175.355C177.389 175.355 177.486 175.452 177.486 175.571V178.095C177.486 178.215 177.389 178.31 177.271 178.31Z" fill="#3D3D3D"/>
<path d="M174.555 178.31C174.435 178.31 174.34 178.214 174.34 178.095V175.571C174.34 175.451 174.436 175.355 174.555 175.355C174.673 175.355 174.77 175.452 174.77 175.571V178.095C174.77 178.215 174.673 178.31 174.555 178.31Z" fill="#3D3D3D"/>
<path d="M170.479 178.31C170.36 178.31 170.264 178.214 170.264 178.095V175.571C170.264 175.451 170.361 175.355 170.479 175.355C170.597 175.355 170.694 175.452 170.694 175.571V178.095C170.694 178.215 170.597 178.31 170.479 178.31Z" fill="#3D3D3D"/>
<path d="M169.121 178.31C169.002 178.31 168.906 178.214 168.906 178.095V175.571C168.906 175.451 169.003 175.355 169.121 175.355C169.239 175.355 169.336 175.452 169.336 175.571V178.095C169.336 178.215 169.239 178.31 169.121 178.31Z" fill="#3D3D3D"/>
<path d="M160.32 174.816H178.92C179.393 174.816 179.776 174.433 179.776 173.96V171.686C179.776 171.213 179.393 170.829 178.92 170.829H160.32C159.848 170.829 159.464 171.213 159.464 171.686V173.96C159.464 174.433 159.848 174.816 160.32 174.816Z" fill="white"/>
<path d="M178.92 175.034H160.319C159.729 175.034 159.248 174.552 159.248 173.961V171.687C159.248 171.096 159.729 170.615 160.319 170.615H178.92C179.51 170.615 179.991 171.096 179.991 171.687V173.961C179.991 174.552 179.51 175.034 178.92 175.034ZM160.319 171.047C159.966 171.047 159.679 171.334 159.679 171.687V173.961C159.679 174.315 159.966 174.602 160.319 174.602H178.92C179.273 174.602 179.56 174.315 179.56 173.961V171.687C179.56 171.334 179.273 171.047 178.92 171.047H160.319Z" fill="#3D3D3D"/>
<path d="M161.632 174.234C161.512 174.234 161.417 174.137 161.417 174.019V171.494C161.417 171.375 161.513 171.279 161.632 171.279C161.75 171.279 161.847 171.376 161.847 171.494V174.019C161.847 174.138 161.75 174.234 161.632 174.234Z" fill="#3D3D3D"/>
<path d="M162.989 174.234C162.87 174.234 162.774 174.137 162.774 174.019V171.494C162.774 171.375 162.871 171.279 162.989 171.279C163.108 171.279 163.204 171.376 163.204 171.494V174.019C163.204 174.138 163.108 174.234 162.989 174.234Z" fill="#3D3D3D"/>
<path d="M165.707 174.234C165.588 174.234 165.492 174.137 165.492 174.019V171.494C165.492 171.375 165.589 171.279 165.707 171.279C165.825 171.279 165.922 171.376 165.922 171.494V174.019C165.922 174.138 165.825 174.234 165.707 174.234Z" fill="#3D3D3D"/>
<path d="M169.782 174.234C169.663 174.234 169.567 174.137 169.567 174.019V171.494C169.567 171.375 169.664 171.279 169.782 171.279C169.9 171.279 169.997 171.376 169.997 171.494V174.019C169.997 174.138 169.9 174.234 169.782 174.234Z" fill="#3D3D3D"/>
<path d="M171.14 174.234C171.02 174.234 170.925 174.137 170.925 174.019V171.494C170.925 171.375 171.021 171.279 171.14 171.279C171.258 171.279 171.355 171.376 171.355 171.494V174.019C171.355 174.138 171.258 174.234 171.14 174.234Z" fill="#3D3D3D"/>
<path d="M180.427 166.885H161.827C161.354 166.885 160.971 167.268 160.971 167.742V170.015C160.971 170.488 161.354 170.872 161.827 170.872H180.427C180.9 170.872 181.283 170.488 181.283 170.015V167.742C181.283 167.268 180.9 166.885 180.427 166.885Z" fill="white"/>
<path d="M180.427 171.088H161.826C161.236 171.088 160.755 170.607 160.755 170.016V167.742C160.755 167.151 161.236 166.67 161.826 166.67H180.427C181.017 166.67 181.498 167.151 181.498 167.742V170.016C181.498 170.607 181.017 171.088 180.427 171.088ZM161.826 167.101C161.473 167.101 161.186 167.389 161.186 167.742V170.016C161.186 170.369 161.473 170.657 161.826 170.657H180.427C180.779 170.657 181.067 170.369 181.067 170.016V167.742C181.067 167.389 180.779 167.101 180.427 167.101H161.826Z" fill="#3D3D3D"/>
<path d="M179.115 170.424C178.996 170.424 178.9 170.327 178.9 170.209V167.684C178.9 167.565 178.997 167.469 179.115 167.469C179.233 167.469 179.33 167.566 179.33 167.684V170.209C179.33 170.328 179.233 170.424 179.115 170.424Z" fill="#3D3D3D"/>
<path d="M177.756 170.424C177.637 170.424 177.541 170.327 177.541 170.209V167.684C177.541 167.565 177.638 167.469 177.756 167.469C177.874 167.469 177.971 167.566 177.971 167.684V170.209C177.971 170.328 177.874 170.424 177.756 170.424Z" fill="#3D3D3D"/>
<path d="M175.04 170.424C174.921 170.424 174.825 170.327 174.825 170.209V167.684C174.825 167.565 174.922 167.469 175.04 167.469C175.158 167.469 175.255 167.566 175.255 167.684V170.209C175.255 170.328 175.158 170.424 175.04 170.424Z" fill="#3D3D3D"/>
<path d="M170.964 170.424C170.845 170.424 170.749 170.327 170.749 170.209V167.684C170.749 167.565 170.846 167.469 170.964 167.469C171.083 167.469 171.179 167.566 171.179 167.684V170.209C171.179 170.328 171.083 170.424 170.964 170.424Z" fill="#3D3D3D"/>
<path d="M169.606 170.424C169.487 170.424 169.391 170.327 169.391 170.209V167.684C169.391 167.565 169.488 167.469 169.606 167.469C169.724 167.469 169.821 167.566 169.821 167.684V170.209C169.821 170.328 169.724 170.424 169.606 170.424Z" fill="#3D3D3D"/>
<path d="M160.32 166.93H178.92C179.393 166.93 179.776 166.546 179.776 166.073V163.8C179.776 163.326 179.393 162.943 178.92 162.943H160.32C159.848 162.943 159.464 163.326 159.464 163.8V166.073C159.464 166.546 159.848 166.93 160.32 166.93Z" fill="white"/>
<path d="M178.92 167.147H160.319C159.729 167.147 159.248 166.666 159.248 166.075V163.801C159.248 163.21 159.729 162.729 160.319 162.729H178.92C179.51 162.729 179.991 163.21 179.991 163.801V166.075C179.991 166.666 179.51 167.147 178.92 167.147ZM160.319 163.16C159.966 163.16 159.679 163.447 159.679 163.801V166.075C159.679 166.428 159.966 166.715 160.319 166.715H178.92C179.273 166.715 179.56 166.428 179.56 166.075V163.801C179.56 163.447 179.273 163.16 178.92 163.16H160.319Z" fill="#3D3D3D"/>
<path d="M161.631 166.348C161.512 166.348 161.416 166.251 161.416 166.132V163.608C161.416 163.488 161.513 163.393 161.631 163.393C161.749 163.393 161.846 163.489 161.846 163.608V166.132C161.846 166.252 161.749 166.348 161.631 166.348Z" fill="#3D3D3D"/>
<path d="M162.99 166.348C162.871 166.348 162.775 166.251 162.775 166.132V163.608C162.775 163.488 162.872 163.393 162.99 163.393C163.108 163.393 163.205 163.489 163.205 163.608V166.132C163.205 166.252 163.108 166.348 162.99 166.348Z" fill="#3D3D3D"/>
<path d="M165.707 166.348C165.588 166.348 165.492 166.251 165.492 166.132V163.608C165.492 163.488 165.589 163.393 165.707 163.393C165.825 163.393 165.922 163.489 165.922 163.608V166.132C165.922 166.252 165.825 166.348 165.707 166.348Z" fill="#3D3D3D"/>
<path d="M169.782 166.348C169.662 166.348 169.567 166.251 169.567 166.132V163.608C169.567 163.488 169.663 163.393 169.782 163.393C169.9 163.393 169.996 163.489 169.996 163.608V166.132C169.996 166.252 169.9 166.348 169.782 166.348Z" fill="#3D3D3D"/>
<path d="M171.14 166.348C171.02 166.348 170.925 166.251 170.925 166.132V163.608C170.925 163.488 171.021 163.393 171.14 163.393C171.258 163.393 171.355 163.489 171.355 163.608V166.132C171.355 166.252 171.258 166.348 171.14 166.348Z" fill="#3D3D3D"/>
<path d="M144.405 174.719H125.805C125.333 174.719 124.949 175.102 124.949 175.576V177.849C124.949 178.322 125.333 178.706 125.805 178.706H144.405C144.878 178.706 145.261 178.322 145.261 177.849V175.576C145.261 175.102 144.878 174.719 144.405 174.719Z" fill="white"/>
<path d="M144.405 178.922H125.804C125.214 178.922 124.733 178.441 124.733 177.85V175.576C124.733 174.985 125.214 174.504 125.804 174.504H144.405C144.995 174.504 145.476 174.985 145.476 175.576V177.85C145.476 178.441 144.995 178.922 144.405 178.922ZM125.804 174.935C125.452 174.935 125.164 175.223 125.164 175.576V177.85C125.164 178.203 125.452 178.491 125.804 178.491H144.405C144.758 178.491 145.045 178.203 145.045 177.85V175.576C145.045 175.223 144.758 174.935 144.405 174.935H125.804Z" fill="#3D3D3D"/>
<path d="M143.093 178.258C142.974 178.258 142.878 178.161 142.878 178.043V175.518C142.878 175.399 142.975 175.303 143.093 175.303C143.211 175.303 143.308 175.4 143.308 175.518V178.043C143.308 178.162 143.211 178.258 143.093 178.258Z" fill="#3D3D3D"/>
<path d="M141.734 178.258C141.615 178.258 141.52 178.161 141.52 178.043V175.518C141.52 175.399 141.616 175.303 141.734 175.303C141.853 175.303 141.949 175.4 141.949 175.518V178.043C141.949 178.162 141.853 178.258 141.734 178.258Z" fill="#3D3D3D"/>
<path d="M139.018 178.258C138.899 178.258 138.803 178.161 138.803 178.043V175.518C138.803 175.399 138.9 175.303 139.018 175.303C139.136 175.303 139.233 175.4 139.233 175.518V178.043C139.233 178.162 139.136 178.258 139.018 178.258Z" fill="#3D3D3D"/>
<path d="M134.943 178.258C134.823 178.258 134.728 178.161 134.728 178.043V175.518C134.728 175.399 134.824 175.303 134.943 175.303C135.061 175.303 135.157 175.4 135.157 175.518V178.043C135.157 178.162 135.061 178.258 134.943 178.258Z" fill="#3D3D3D"/>
<path d="M133.584 178.258C133.465 178.258 133.369 178.161 133.369 178.043V175.518C133.369 175.399 133.466 175.303 133.584 175.303C133.703 175.303 133.799 175.4 133.799 175.518V178.043C133.799 178.162 133.703 178.258 133.584 178.258Z" fill="#3D3D3D"/>
<path d="M124.609 174.721H143.209C143.682 174.721 144.065 174.337 144.065 173.864V171.591C144.065 171.117 143.682 170.734 143.209 170.734H124.609C124.136 170.734 123.753 171.117 123.753 171.591V173.864C123.753 174.337 124.136 174.721 124.609 174.721Z" fill="white"/>
<path d="M143.209 174.936H124.608C124.018 174.936 123.537 174.455 123.537 173.864V171.59C123.537 170.999 124.018 170.518 124.608 170.518H143.209C143.799 170.518 144.28 170.999 144.28 171.59V173.864C144.28 174.455 143.799 174.936 143.209 174.936ZM124.608 170.949C124.255 170.949 123.968 171.237 123.968 171.59V173.864C123.968 174.217 124.255 174.504 124.608 174.504H143.209C143.562 174.504 143.849 174.217 143.849 173.864V171.59C143.849 171.237 143.562 170.949 143.209 170.949H124.608Z" fill="#3D3D3D"/>
<path d="M125.921 174.137C125.802 174.137 125.706 174.04 125.706 173.921V171.397C125.706 171.277 125.803 171.182 125.921 171.182C126.039 171.182 126.136 171.278 126.136 171.397V173.921C126.136 174.041 126.039 174.137 125.921 174.137Z" fill="#3D3D3D"/>
<path d="M127.28 174.137C127.161 174.137 127.065 174.04 127.065 173.921V171.397C127.065 171.277 127.162 171.182 127.28 171.182C127.398 171.182 127.495 171.278 127.495 171.397V173.921C127.495 174.041 127.398 174.137 127.28 174.137Z" fill="#3D3D3D"/>
<path d="M129.996 174.137C129.877 174.137 129.781 174.04 129.781 173.921V171.397C129.781 171.277 129.878 171.182 129.996 171.182C130.114 171.182 130.211 171.278 130.211 171.397V173.921C130.211 174.041 130.114 174.137 129.996 174.137Z" fill="#3D3D3D"/>
<path d="M134.071 174.137C133.951 174.137 133.856 174.04 133.856 173.921V171.397C133.856 171.277 133.952 171.182 134.071 171.182C134.189 171.182 134.286 171.278 134.286 171.397V173.921C134.286 174.041 134.189 174.137 134.071 174.137Z" fill="#3D3D3D"/>
<path d="M135.43 174.137C135.311 174.137 135.215 174.04 135.215 173.921V171.397C135.215 171.277 135.312 171.182 135.43 171.182C135.548 171.182 135.645 171.278 135.645 171.397V173.921C135.645 174.041 135.548 174.137 135.43 174.137Z" fill="#3D3D3D"/>
<path d="M87.5566 178.766H106.156C106.629 178.766 107.012 178.382 107.012 177.909V175.636C107.012 175.162 106.629 174.779 106.156 174.779H87.5566C87.0839 174.779 86.7007 175.162 86.7007 175.636V177.909C86.7007 178.382 87.0839 178.766 87.5566 178.766Z" fill="white"/>
<path d="M106.156 178.981H87.5553C86.9651 178.981 86.4844 178.5 86.4844 177.909V175.635C86.4844 175.044 86.9651 174.562 87.5553 174.562H106.156C106.746 174.562 107.227 175.044 107.227 175.635V177.909C107.227 178.5 106.746 178.981 106.156 178.981ZM87.5553 174.994C87.2026 174.994 86.9153 175.281 86.9153 175.635V177.909C86.9153 178.262 87.2026 178.549 87.5553 178.549H106.156C106.509 178.549 106.796 178.262 106.796 177.909V175.635C106.796 175.281 106.509 174.994 106.156 174.994H87.5553Z" fill="#3D3D3D"/>
<path d="M88.8678 178.183C88.7486 178.183 88.6528 178.087 88.6528 177.968V175.444C88.6528 175.324 88.7496 175.229 88.8678 175.229C88.986 175.229 89.0828 175.325 89.0828 175.444V177.968C89.0828 178.088 88.986 178.183 88.8678 178.183Z" fill="#3D3D3D"/>
<path d="M90.2257 178.183C90.1065 178.183 90.0107 178.087 90.0107 177.968V175.444C90.0107 175.324 90.1075 175.229 90.2257 175.229C90.3439 175.229 90.4407 175.325 90.4407 175.444V177.968C90.4407 178.088 90.3439 178.183 90.2257 178.183Z" fill="#3D3D3D"/>
<path d="M92.9432 178.183C92.824 178.183 92.7283 178.087 92.7283 177.968V175.444C92.7283 175.324 92.825 175.229 92.9432 175.229C93.0615 175.229 93.1582 175.325 93.1582 175.444V177.968C93.1582 178.088 93.0615 178.183 92.9432 178.183Z" fill="#3D3D3D"/>
<path d="M97.0177 178.183C96.8985 178.183 96.8027 178.087 96.8027 177.968V175.444C96.8027 175.324 96.8995 175.229 97.0177 175.229C97.1359 175.229 97.2327 175.325 97.2327 175.444V177.968C97.2327 178.088 97.1359 178.183 97.0177 178.183Z" fill="#3D3D3D"/>
<path d="M98.3759 178.183C98.2566 178.183 98.1609 178.087 98.1609 177.968V175.444C98.1609 175.324 98.2576 175.229 98.3759 175.229C98.4941 175.229 98.5908 175.325 98.5908 175.444V177.968C98.5908 178.088 98.4941 178.183 98.3759 178.183Z" fill="#3D3D3D"/>
<path d="M52.0279 3.18555H13.8687C10.6412 3.18555 8.02441 5.80501 8.02441 9.03582V23.4399C8.02441 26.6707 10.6412 29.2902 13.8687 29.2902H39.0173C42.2448 29.2902 44.8616 26.6707 44.8616 23.4399V9.41338L52.0289 3.18555H52.0279Z" fill="white"/>
<path d="M39.0167 29.5057H13.8691C10.5282 29.5057 7.80981 26.7845 7.80981 23.4403V9.03616C7.80981 5.69189 10.5282 2.9707 13.8691 2.9707H52.0293C52.1192 2.9707 52.1993 3.02646 52.2306 3.11058C52.2618 3.1947 52.2384 3.28958 52.17 3.34924L45.0769 9.51252V23.4393C45.0769 26.7836 42.3585 29.5048 39.0177 29.5048L39.0167 29.5057ZM13.8691 3.40206C10.7657 3.40206 8.24073 5.92958 8.24073 9.03616V23.4403C8.24073 26.5469 10.7657 29.0744 13.8691 29.0744H39.0177C42.1211 29.0744 44.646 26.5469 44.646 23.4403V9.4147C44.646 9.3521 44.6734 9.29243 44.7203 9.25135L51.4518 3.40206H13.8691Z" fill="#3D3D3D"/>
<path d="M24.3384 24.5383C28.8785 24.5383 32.559 20.8575 32.559 16.317C32.559 11.7765 28.8785 8.0957 24.3384 8.0957C19.7982 8.0957 16.1177 11.7765 16.1177 16.317C16.1177 20.8575 19.7982 24.5383 24.3384 24.5383Z" fill="white"/>
<path d="M24.3382 24.7538C19.6861 24.7538 15.9016 20.9694 15.9016 16.3173C15.9016 11.6653 19.6861 7.88086 24.3382 7.88086C28.9904 7.88086 32.7739 11.6653 32.7739 16.3173C32.7739 20.9694 28.9894 24.7538 24.3382 24.7538ZM24.3382 8.31222C19.9245 8.31222 16.3325 11.903 16.3325 16.3173C16.3325 20.7317 19.9235 24.3224 24.3382 24.3224C28.7529 24.3224 32.343 20.7317 32.343 16.3173C32.343 11.903 28.752 8.31222 24.3382 8.31222Z" fill="#3D3D3D"/>
<path d="M26.4785 24.5383C31.0186 24.5383 34.6992 20.8575 34.6992 16.317C34.6992 11.7765 31.0186 8.0957 26.4785 8.0957C21.9383 8.0957 18.2578 11.7765 18.2578 16.317C18.2578 20.8575 21.9383 24.5383 26.4785 24.5383Z" fill="white"/>
<path d="M26.4798 24.7538C21.8277 24.7538 18.0432 20.9694 18.0432 16.3173C18.0432 11.6653 21.8277 7.88086 26.4798 7.88086C31.132 7.88086 34.9155 11.6653 34.9155 16.3173C34.9155 20.9694 31.131 24.7538 26.4798 24.7538ZM26.4798 8.31222C22.0661 8.31222 18.4741 11.903 18.4741 16.3173C18.4741 20.7317 22.0651 24.3224 26.4798 24.3224C30.8945 24.3224 34.4846 20.7317 34.4846 16.3173C34.4846 11.903 30.8936 8.31222 26.4798 8.31222Z" fill="#3D3D3D"/>
<path d="M28.5478 24.5383C33.088 24.5383 36.7685 20.8575 36.7685 16.317C36.7685 11.7765 33.088 8.0957 28.5478 8.0957C24.0077 8.0957 20.3271 11.7765 20.3271 16.317C20.3271 20.8575 24.0077 24.5383 28.5478 24.5383Z" fill="white"/>
<path d="M28.5477 24.7538C23.8955 24.7538 20.1111 20.9694 20.1111 16.3173C20.1111 11.6653 23.8955 7.88086 28.5477 7.88086C33.1999 7.88086 36.9833 11.6653 36.9833 16.3173C36.9833 20.9694 33.1989 24.7538 28.5477 24.7538ZM28.5477 8.31222C24.134 8.31222 20.542 11.903 20.542 16.3173C20.542 20.7317 24.133 24.3224 28.5477 24.3224C32.9624 24.3224 36.5524 20.7317 36.5524 16.3173C36.5524 11.903 32.9614 8.31222 28.5477 8.31222Z" fill="#3D3D3D"/>
<path d="M28.5485 22.7826C32.1178 22.7826 35.0113 19.8888 35.0113 16.319C35.0113 12.7493 32.1178 9.85547 28.5485 9.85547C24.9792 9.85547 22.0857 12.7493 22.0857 16.319C22.0857 19.8888 24.9792 22.7826 28.5485 22.7826Z" fill="white"/>
<path d="M28.5481 22.9981C24.8653 22.9981 21.8694 20.0021 21.8694 16.3194C21.8694 12.6367 24.8653 9.64062 28.5481 9.64062C32.231 9.64062 35.2269 12.6367 35.2269 16.3194C35.2269 20.0021 32.231 22.9981 28.5481 22.9981ZM28.5481 10.072C25.1037 10.072 22.3003 12.8744 22.3003 16.3194C22.3003 19.7644 25.1027 22.5668 28.5481 22.5668C31.9935 22.5668 34.796 19.7644 34.796 16.3194C34.796 12.8744 31.9935 10.072 28.5481 10.072Z" fill="#3D3D3D"/>
<path d="M30.289 17.0596C30.2235 16.8953 30.1229 16.7437 29.989 16.6106C29.8561 16.4776 29.6861 16.3593 29.4848 16.2585C29.2845 16.1587 28.9933 16.0423 28.6181 15.9142C28.2458 15.787 27.9536 15.6579 27.7494 15.5327C27.5471 15.4085 27.4015 15.2686 27.3146 15.117C27.2286 14.9654 27.1846 14.7561 27.1846 14.493C27.1846 14.1242 27.3165 13.82 27.5764 13.5882C27.8373 13.3554 28.1901 13.237 28.6259 13.237C29.0617 13.237 29.432 13.3769 29.69 13.6537C29.948 13.9305 30.0799 14.3032 30.0799 14.76C30.0799 14.7747 30.0916 14.7874 30.1072 14.7874H30.329C30.3437 14.7874 30.3564 14.7756 30.3564 14.76C30.3564 14.224 30.2157 13.7936 29.9382 13.4816C29.6646 13.1744 29.2747 13.0023 28.7773 12.97V12.2266C28.7773 12.2119 28.7656 12.1992 28.75 12.1992H28.5243C28.5096 12.1992 28.4969 12.211 28.4969 12.2266V12.969C28.0328 12.9896 27.6497 13.1363 27.3585 13.4053C27.0605 13.6791 26.91 14.0479 26.91 14.5008C26.91 14.7786 26.9618 15.0172 27.0634 15.2129C27.1651 15.4075 27.3234 15.5807 27.5344 15.7264C27.7435 15.8712 28.0728 16.0218 28.5135 16.1734C28.9493 16.324 29.2835 16.4688 29.5053 16.6048C29.7252 16.7388 29.8835 16.8865 29.9753 17.0449C30.0672 17.2024 30.1131 17.4059 30.1131 17.6494C30.1131 18.0006 29.9753 18.3009 29.7027 18.5405C29.4291 18.7811 29.0773 18.9034 28.6552 18.9034C28.1432 18.9034 27.7338 18.7674 27.4377 18.5004C27.1426 18.2334 26.9921 17.8578 26.9921 17.3843C26.9921 17.3697 26.9804 17.357 26.9647 17.357H26.7429C26.7283 17.357 26.7156 17.3687 26.7156 17.3843C26.7156 17.9292 26.8788 18.3644 27.2012 18.6765C27.5178 18.9836 27.9692 19.1528 28.5418 19.1783V19.9216C28.5418 19.9363 28.5536 19.949 28.5692 19.949H28.7949C28.8096 19.949 28.8223 19.9373 28.8223 19.9216V19.1743C29.2923 19.143 29.6734 18.9905 29.9548 18.7224C30.243 18.4486 30.3886 18.0857 30.3886 17.6436C30.3886 17.4215 30.3554 17.2259 30.29 17.0616L30.289 17.0596Z" fill="#3D3D3D"/>
</g>
<defs>
<clipPath id="clip0_1287_31125">
<rect width="268" height="179" fill="white"/>
</clipPath>
</defs>
</svg>
