<svg width="57" height="57" viewBox="0 0 57 57" fill="none" xmlns="http://www.w3.org/2000/svg">
<rect x="0.0766602" y="0.490234" width="56" height="56" rx="28" fill="white"/>
<path fill-rule="evenodd" clip-rule="evenodd" d="M37.659 6.73663C37.2564 7.46546 35.646 7.63898 34.5493 7.36828C35.0976 6.86851 36.2777 6.38956 37.298 6.64639L37.6659 6.73663L37.3466 6.54227C36.4512 5.99392 35.9584 4.82084 35.9306 4.07812C36.8954 4.66813 37.9019 5.93838 37.6659 6.73663H37.659ZM28.0661 50.8067C28.4132 50.8067 28.6908 51.0843 28.6908 51.4314C28.6908 51.7785 28.4132 52.0561 28.0661 52.0561C27.7191 52.0561 27.4414 51.7785 27.4414 51.4314C27.4414 51.0843 27.7191 50.8067 28.0661 50.8067ZM36.2777 6.09109L35.9931 5.8412C35.2018 5.15402 33.9384 5.03602 33.2166 5.23038C34.0703 5.97309 35.5835 6.54921 36.2777 6.08415V6.09109ZM19.9032 6.09109C20.5904 6.55615 22.1105 5.97309 22.9643 5.23731C22.2494 5.04296 20.9791 5.16096 20.1878 5.84815L19.9032 6.09803V6.09109ZM26.4696 51.4384C26.2753 52.2505 24.769 52.8544 23.6446 52.8821C24.0402 52.2505 25.0536 51.48 26.0948 51.4453L26.4696 51.4314C26.4835 50.5985 25.1716 49.6475 24.0819 49.3351C24.3109 50.0431 25.1022 51.0427 26.1087 51.3273L26.4696 51.4314V51.4384ZM24.1235 51.126C24.2207 50.3 23.006 49.2171 21.9578 48.8007C22.1175 49.5295 22.7977 50.5984 23.7695 50.9872L24.1166 51.126L23.7417 51.0982C22.7005 51.0219 21.6177 51.6952 21.1596 52.2782C22.2841 52.3615 23.8459 51.9104 24.1166 51.126H24.1235ZM21.819 50.5776C21.4719 51.3342 19.8685 51.6188 18.7579 51.4314C19.2716 50.8969 20.4169 50.3347 21.4442 50.5152L21.8121 50.5776C21.9925 49.7655 20.8958 48.5647 19.8963 48.0441C19.9796 48.7868 20.5557 49.9182 21.4789 50.4041L21.8121 50.5776H21.819ZM19.5839 49.8002C19.8407 49.0089 18.8759 47.7039 17.9319 47.0862C17.9388 47.8289 18.397 49.0159 19.2716 49.592L19.5839 49.8002L19.223 49.6961C18.2165 49.4115 17.0226 49.8557 16.4534 50.3347C17.5432 50.6401 19.1605 50.5082 19.5839 49.7933V49.8002ZM17.4391 48.8007C16.9462 49.467 15.322 49.4323 14.2739 49.0228C14.8847 48.5994 16.1202 48.2801 17.092 48.6618L17.4391 48.8007C17.7792 48.0441 16.9462 46.6489 16.0647 45.9339C15.9953 46.6766 16.3354 47.9052 17.1475 48.5647L17.4391 48.8007ZM15.4053 47.5929C15.8218 46.871 15.1276 45.3994 14.3294 44.6081C14.1906 45.337 14.3988 46.5933 15.1415 47.3291L15.4053 47.5929L15.0721 47.4194C14.142 46.9404 12.8856 47.1278 12.2331 47.4888C13.2396 48.0024 14.85 48.2037 15.4053 47.5859V47.5929ZM13.5034 46.1838C12.8856 46.7391 11.303 46.3782 10.352 45.7673C11.0323 45.4758 12.3095 45.4133 13.1841 45.9825L13.4964 46.1838L13.2604 45.8923C12.5941 45.0871 12.5177 43.8168 12.7259 43.1019C13.4409 43.9696 13.9823 45.5036 13.4964 46.1838H13.5034ZM11.7542 44.5873C11.0809 45.0801 9.54685 44.5595 8.66531 43.8515C9.37332 43.6294 10.6436 43.6919 11.4626 44.3513L11.7542 44.5873C12.3025 43.9626 11.9208 42.3869 11.2961 41.4429C11.0115 42.1301 10.9629 43.4004 11.5459 44.275L11.7542 44.5873ZM10.1716 42.8242L9.99804 42.4911C9.50521 41.5679 9.68568 40.3046 10.0327 39.6521C10.5603 40.6516 10.7824 42.262 10.1716 42.8242L9.90086 42.5605C9.15814 41.8247 7.89484 41.6373 7.166 41.7831C7.97119 42.5744 9.44968 43.2477 10.1646 42.8242H10.1716ZM8.77638 40.9154C8.01978 41.2625 6.61764 40.4434 5.89575 39.5757C6.63847 39.4994 7.86707 39.8187 8.53343 40.6239L8.77638 40.9154L8.63755 40.5683C8.2419 39.5966 8.54731 38.361 8.96379 37.7432C9.3872 38.7914 9.44274 40.4156 8.78332 40.9154H8.77638ZM7.57554 38.8747C6.79117 39.1454 5.47233 38.1875 4.84762 37.2573C5.59033 37.2573 6.78424 37.6947 7.3673 38.5693L7.57554 38.8816C8.28354 38.4512 8.39461 36.827 8.07531 35.7442C7.59636 36.3133 7.17294 37.5142 7.47142 38.5207L7.57554 38.8816V38.8747ZM6.58988 36.7229C5.77775 36.9103 4.56997 35.8344 4.03549 34.8349C4.77821 34.9112 5.91657 35.4665 6.4094 36.3897L6.58988 36.7229C7.33953 36.3619 7.61024 34.7654 7.402 33.6548C6.86753 34.1754 6.32611 35.3277 6.52047 36.355L6.58988 36.7229ZM5.82634 34.4808L5.79163 34.106C5.7014 33.0648 6.36082 31.975 6.94388 31.51C7.04106 32.6345 6.6107 34.2032 5.82634 34.4808L5.68057 34.1338C5.28492 33.1689 4.20209 32.4957 3.47325 32.3499C3.90361 33.3911 5.00033 34.5919 5.82634 34.4878V34.4808ZM5.29186 32.1764C4.45891 32.1972 3.48713 30.8991 3.16784 29.8163C3.87584 30.0384 4.88927 30.8159 5.18775 31.8154L5.29186 32.1764C6.09705 31.9751 6.68706 30.4619 6.70094 29.3304C6.07623 29.733 5.31269 30.7534 5.2988 31.8015V32.1764H5.29186ZM4.99339 29.8302L5.03504 29.4554C5.15998 28.4142 6.02069 27.4771 6.68011 27.1439C6.54823 28.2615 5.81246 29.7122 4.98645 29.8302L4.91703 29.4623C4.72268 28.435 3.79949 27.5604 3.1123 27.2689C3.32054 28.3795 4.16044 29.7677 4.98645 29.8302H4.99339ZM4.93092 27.4632L5.01421 27.0953C5.24328 26.075 6.19423 25.2281 6.88835 24.9574C6.64541 26.0611 5.76387 27.4285 4.93786 27.4632L4.90315 27.0884C4.81291 26.0472 3.97997 25.0824 3.32749 24.7214C3.42467 25.8459 4.11879 27.3175 4.93786 27.4632H4.93092ZM5.11139 25.1032C4.31315 24.8741 3.77173 23.3471 3.78561 22.2156C4.39644 22.6391 5.13222 23.6802 5.11139 24.7284V25.1032C5.9374 25.1518 6.94388 23.8815 7.30483 22.8057C6.58988 23.007 5.55563 23.7497 5.22939 24.7423L5.11139 25.0963V25.1032ZM5.52787 22.7709L5.68057 22.4239C6.10399 21.466 7.20765 20.8343 7.94342 20.7024C7.4853 21.7297 6.34693 22.8959 5.52787 22.764L5.56951 22.3892C5.68751 21.348 5.06974 20.2374 4.50056 19.7584C4.36867 20.8829 4.75044 22.4586 5.52787 22.764V22.7709ZM6.1734 20.4942L6.36081 20.168C6.88141 19.2587 8.0406 18.7381 8.78332 18.6825C8.22108 19.6613 6.97859 20.7024 6.1734 20.4873L6.2567 20.1194C6.47882 19.099 5.97211 17.9329 5.45845 17.3915C5.21551 18.4951 5.43763 20.1055 6.1734 20.4873V20.4942ZM7.048 18.2938L7.27012 17.9884C7.88095 17.1416 9.08873 16.732 9.83145 16.7598C9.17203 17.676 7.83236 18.5923 7.05494 18.2938L7.17294 17.9398C7.49918 16.9472 7.11047 15.7325 6.65235 15.1494C6.29834 16.2253 6.36081 17.8426 7.05494 18.3008L7.048 18.2938ZM8.13778 16.1906C8.8805 16.5585 10.3104 15.788 11.0601 14.9412C10.3243 14.844 9.08179 15.1217 8.38766 15.906L8.13778 16.1906L8.29048 15.8436C8.7139 14.8857 8.45014 13.6432 8.05448 13.0115C7.59636 14.0458 7.49224 15.6631 8.13778 16.1837V16.1906ZM9.43579 14.2124C8.84579 13.6293 9.10956 12.0259 9.6718 11.0471C10.005 11.7135 10.1369 12.9768 9.62321 13.8861L9.43579 14.2124L9.71345 13.9555C10.4839 13.2475 11.7472 13.0879 12.4691 13.2614C11.6431 14.0249 10.1438 14.6566 9.43579 14.2124ZM10.9282 12.3729L11.2266 12.1439C12.0596 11.5122 13.3368 11.4914 14.0378 11.7343C13.1355 12.4146 11.5806 12.8866 10.9282 12.3729L11.1433 12.0675C11.7472 11.2137 11.7403 9.94349 11.4765 9.24936C10.824 10.1656 10.3937 11.7343 10.9212 12.3729H10.9282ZM12.5941 10.6931C12.129 9.99902 12.719 8.48582 13.4617 7.63898C13.6561 8.36088 13.5311 9.62419 12.844 10.4086L12.5941 10.6931C13.191 11.2693 14.7875 10.9569 15.7523 10.3738C15.079 10.0615 13.8088 9.95737 12.9134 10.4988L12.5941 10.6931ZM14.4196 9.18689C14.0309 8.45112 14.7597 7.0004 15.5858 6.23686C15.7038 6.97263 15.4539 8.22205 14.6903 8.93006L14.4127 9.18689L14.7528 9.02724C15.6968 8.57605 16.9532 8.80512 17.5918 9.18689C16.5714 9.67278 14.9541 9.81855 14.4127 9.18689H14.4196ZM16.3909 7.875L16.7449 7.75005C17.7306 7.39604 18.9523 7.75005 19.5492 8.19429C18.4872 8.57606 16.8629 8.56218 16.3909 7.875L16.6894 7.64593C17.5224 7.01428 17.8972 5.79262 17.8486 5.05685C16.9462 5.73709 16.0716 7.10452 16.3909 7.875ZM18.4872 6.76439C18.2512 5.96614 19.2646 4.69589 20.2225 4.10589C20.1947 4.8486 19.7019 6.02168 18.8065 6.57003L18.4872 6.76439L18.8551 6.67415C19.8685 6.42426 21.0485 6.89628 21.6038 7.39605C20.5071 7.66676 18.8967 7.48628 18.4941 6.76439H18.4872ZM29.6835 51.4592C29.8709 52.2713 31.3841 52.8752 32.5085 52.903C32.1129 52.2713 31.0995 51.5008 30.0583 51.4661L29.6835 51.4522C29.6696 50.6193 30.9815 49.6683 32.0713 49.356C31.8422 50.064 31.0509 51.0635 30.0444 51.3481L29.6835 51.4522V51.4592ZM32.0296 51.1468C31.9324 50.3208 33.1471 49.238 34.1953 48.8215C34.0356 49.5503 33.3554 50.6193 32.3836 51.008L32.0365 51.1468L32.4114 51.119C33.4526 51.0427 34.5354 51.716 34.9935 52.2991C33.869 52.3824 32.3073 51.9312 32.0365 51.1468H32.0296ZM34.3341 50.5984C34.6812 51.355 36.2846 51.6396 37.3952 51.4522C36.8815 50.9178 35.7362 50.3555 34.7089 50.536L34.341 50.5984C34.1606 49.7863 35.2573 48.5855 36.2568 48.0649C36.1735 48.8076 35.5974 49.939 34.6742 50.4249L34.341 50.5984H34.3341ZM36.5692 49.821C36.3124 49.0297 37.2772 47.7248 38.2212 47.107C38.2143 47.8497 37.7561 49.0367 36.8815 49.6128L36.5692 49.821L36.9301 49.7169C37.9366 49.4323 39.1305 49.8766 39.6997 50.3555C38.6099 50.6609 36.9926 50.529 36.5692 49.8141V49.821ZM38.714 48.8215C39.2069 49.4878 40.8311 49.4531 41.8792 49.0436C41.2684 48.6202 40.0329 48.3009 39.0611 48.6827L38.714 48.8215C38.3739 48.0649 39.2069 46.6697 40.0884 45.9547C40.1578 46.6975 39.8177 47.9261 39.0056 48.5855L38.714 48.8215ZM40.7478 47.6137C40.3314 46.8918 41.0255 45.4203 41.8237 44.629C41.9625 45.3578 41.7543 46.6142 41.0116 47.3499L40.7478 47.6137L41.081 47.4402C42.0111 46.9612 43.2675 47.1487 43.92 47.5096C42.9135 48.0233 41.3031 48.2245 40.7478 47.6068V47.6137ZM42.6497 46.2046C43.2675 46.7599 44.8501 46.399 45.8011 45.7882C45.1208 45.4966 43.8436 45.4342 42.969 46.0033L42.6567 46.2046L42.8927 45.9131C43.559 45.1079 43.6354 43.8377 43.4272 43.1227C42.7122 43.9904 42.1708 45.5244 42.6567 46.2046H42.6497ZM44.3989 44.6081L44.6072 44.2958C45.1902 43.4281 45.1416 42.1509 44.8571 41.4637C44.2323 42.4008 43.8506 43.9834 44.3989 44.6081L44.6905 44.3721C45.5026 43.7197 46.7798 43.6502 47.4878 43.8724C46.6062 44.5804 45.0653 45.101 44.3989 44.6081ZM45.9815 42.8451C46.6965 43.2685 48.175 42.5952 48.9802 41.8039C48.2513 41.6512 46.995 41.8455 46.2453 42.5813L45.9746 42.8451C45.3638 42.2759 45.5859 40.6725 46.1134 39.6729C46.4674 40.3254 46.641 41.5887 46.1481 42.5119L45.9746 42.8451H45.9815ZM47.3767 40.9362C48.1333 41.2833 49.5355 40.4642 50.2574 39.5965C49.5146 39.5202 48.286 39.8395 47.6197 40.6447L47.3767 40.9362L47.5156 40.5892C47.9112 39.6174 47.6058 38.3818 47.1893 37.7641C46.7659 38.8122 46.7104 40.4365 47.3698 40.9362H47.3767ZM48.5776 38.8955C49.3619 39.1662 50.6808 38.2083 51.3055 37.2782C50.5628 37.2782 49.3689 37.7155 48.7858 38.5901L48.5776 38.9024C47.8696 38.4721 47.7585 36.8478 48.0778 35.765C48.5567 36.3342 48.9802 37.535 48.6817 38.5415L48.5776 38.9024V38.8955ZM49.5632 36.7437C50.3754 36.9311 51.5831 35.8552 52.1176 34.8557C51.3749 34.932 50.2365 35.4873 49.7437 36.4105L49.5702 36.7437C48.8205 36.3828 48.5498 34.7863 48.758 33.6756C49.2925 34.1962 49.8339 35.3485 49.6396 36.3758L49.5702 36.7437H49.5632ZM50.3268 34.5017L50.3545 34.1268C50.4448 33.0857 49.7853 31.9959 49.2023 31.5308C49.1051 32.6553 49.5355 34.224 50.3198 34.5017L50.4656 34.1546C50.8612 33.1898 51.9441 32.5165 52.6729 32.3707C52.2425 33.4119 51.1458 34.6127 50.3198 34.5086L50.3268 34.5017ZM50.8612 32.1972C51.6942 32.218 52.666 30.92 52.9853 29.8371C52.2773 30.0593 51.2638 30.8367 50.9654 31.8362L50.8612 32.1972C50.0561 31.9959 49.466 30.4827 49.4522 29.3513C50.0769 29.7539 50.8404 30.7742 50.8543 31.8223V32.1972H50.8612ZM51.1597 29.851L51.1181 29.4762C50.9931 28.435 50.1324 27.4979 49.473 27.1648C49.6049 28.2823 50.3406 29.733 51.1667 29.851L51.2361 29.4831C51.4304 28.4558 52.3536 27.5812 53.0408 27.2897C52.8326 28.4003 51.9927 29.7886 51.1667 29.851H51.1597ZM51.2222 27.4841C52.0413 27.3383 52.7284 25.8667 52.8326 24.7423C52.1801 25.1032 51.3471 26.068 51.2569 27.1092L51.2222 27.4841C50.3892 27.4494 49.5146 26.0819 49.2717 24.9783C49.9658 25.249 50.9168 26.0958 51.1458 27.1162L51.2291 27.4841H51.2222ZM51.0417 25.124C51.84 24.895 52.3814 23.3679 52.3675 22.2365C51.7567 22.6599 51.0278 23.7011 51.0417 24.7492V25.124C50.2157 25.1726 49.2092 23.9024 48.8483 22.8265C49.5632 23.0278 50.5975 23.7705 50.9237 24.7631L51.0417 25.1171V25.124ZM50.6252 22.7918L50.4725 22.4447C50.0422 21.4868 48.9455 20.8552 48.2097 20.7233C48.6678 21.7506 49.8062 22.9167 50.6252 22.7848L50.5836 22.41C50.4656 21.3688 51.0834 20.2582 51.6525 19.7793C51.7844 20.9037 51.4027 22.4794 50.6252 22.7848V22.7918ZM49.9797 20.515L49.7923 20.1888C49.2717 19.2795 48.1125 18.7589 47.3698 18.7034C47.932 19.6821 49.1745 20.7233 49.9797 20.5081L49.8964 20.1402C49.6743 19.1198 50.181 17.9537 50.6946 17.4123C50.9376 18.5159 50.7155 20.1263 49.9797 20.5081V20.515ZM49.1051 18.3146L48.883 18.0092C48.2721 17.1624 47.0644 16.7529 46.3217 16.7806C46.9811 17.6969 48.3207 18.6131 49.0982 18.3146L48.9802 17.9606C48.6539 16.968 49.0426 15.7533 49.5008 15.1703C49.8548 16.2462 49.7923 17.8635 49.0982 18.3216L49.1051 18.3146ZM48.0153 16.2114C47.2726 16.5793 45.8427 15.8089 45.0931 14.962C45.8288 14.8648 47.0713 15.1425 47.7654 15.9269L48.0153 16.2114L47.8626 15.8644C47.4392 14.9065 47.703 13.664 48.0986 13.0323C48.5567 14.0666 48.6609 15.6839 48.0153 16.2045V16.2114ZM46.7173 14.2332C47.3073 13.6501 47.0435 12.0467 46.4813 11.068C46.1481 11.7343 46.0162 12.9976 46.5299 13.907L46.7173 14.2332L46.4397 13.9764C45.6692 13.2684 44.4059 13.1087 43.684 13.2822C44.51 14.0458 46.0093 14.6774 46.7173 14.2332ZM45.2249 12.3938L44.9265 12.1647C44.0935 11.533 42.8163 11.5122 42.1152 11.7552C43.0176 12.4354 44.5725 12.9074 45.2249 12.3938L45.0098 12.0883C44.4059 11.2346 44.4128 9.96431 44.6766 9.27018C45.3291 10.1864 45.7594 11.7552 45.2319 12.3938H45.2249ZM43.559 10.714C44.0241 10.0198 43.4341 8.50665 42.6914 7.65982C42.497 8.38171 42.622 9.64501 43.3091 10.4294L43.559 10.714C42.9621 11.2901 41.3656 10.9777 40.4008 10.3947C41.0741 10.0823 42.3443 9.9782 43.2397 10.5196L43.559 10.714ZM41.7335 9.20772C42.1222 8.47194 41.3934 7.02122 40.5673 6.25768C40.4493 6.99345 40.6992 8.24287 41.4628 8.95088L41.7404 9.20772L41.4003 9.04807C40.4563 8.59689 39.2069 8.82595 38.5613 9.20772C39.5817 9.6936 41.199 9.83937 41.7404 9.20772H41.7335ZM39.7622 7.89582C40.0745 7.12534 39.1999 5.75791 38.3045 5.07767C38.2629 5.82038 38.6307 7.0351 39.4637 7.66676L39.7622 7.89582C39.2902 8.583 37.6659 8.59688 36.6039 8.21511C37.2008 7.77087 38.4225 7.41687 39.4082 7.77087L39.7622 7.89582Z" fill="#B77956"/>
<path fill-rule="evenodd" clip-rule="evenodd" d="M28.0721 2.7793L28.576 4.2709L30.2006 4.26464L28.8868 5.18725L29.3956 6.67677L28.0804 5.75555L26.7709 6.68372L27.272 5.19142L25.9526 4.27437L27.5779 4.27298L28.0721 2.7793Z" fill="#B77956"/>
<g clip-path="url(#clip0_498_4888)">
<path d="M28.1841 45.1152L28.0799 45.0997C20.4079 43.9393 14.6216 34.9969 14.6216 24.2983C14.6216 21.152 15.1111 18.1299 16.0776 15.3125L16.3587 14.4902L17.101 14.9557C18.8476 16.051 20.7048 16.6095 22.622 16.6095C24.4223 16.6095 26.1721 16.1161 27.8272 15.148L28.1809 14.9401L28.5347 15.148C30.1897 16.1192 31.9427 16.6095 33.7398 16.6095C35.657 16.6095 37.5142 16.0541 39.2609 14.9557L40.0031 14.4902L40.2842 15.3125C41.2507 18.1299 41.7403 21.152 41.7403 24.2983C41.7403 35 35.9539 43.9424 28.282 45.0997L28.1778 45.1152H28.1841ZM17.1263 16.5443C16.3777 18.9925 16.0018 21.5957 16.0018 24.2983C16.0018 29.1977 17.2873 33.8892 19.6183 37.5071C21.8703 41.0009 24.9087 43.2101 28.1872 43.7438C31.4657 43.2132 34.5042 41.0009 36.7562 37.5071C39.0871 33.8892 40.3726 29.1977 40.3726 24.2983C40.3726 21.5957 39.9936 18.9925 39.2482 16.5443C37.4984 17.4876 35.6539 17.9654 33.7493 17.9654C31.8448 17.9654 29.9591 17.4752 28.1904 16.5133C26.4217 17.4783 24.555 17.9654 22.6315 17.9654C20.708 17.9654 18.8824 17.4876 17.1326 16.5443H17.1263Z" fill="#414042"/>
<path d="M28.1841 45.1152L28.0799 45.0997C20.4079 43.9393 14.6216 34.9969 14.6216 24.2983C14.6216 21.152 15.1111 18.1299 16.0776 15.3125L16.3587 14.4902L17.101 14.9557C18.8476 16.051 20.7048 16.6095 22.622 16.6095C24.4223 16.6095 26.1721 16.1161 27.8272 15.148L28.1809 14.9401L28.5347 15.148C30.1897 16.1192 31.9427 16.6095 33.7398 16.6095C35.657 16.6095 37.5142 16.0541 39.2609 14.9557L40.0031 14.4902L40.2842 15.3125C41.2507 18.1299 41.7403 21.152 41.7403 24.2983C41.7403 35 35.9539 43.9424 28.282 45.0997L28.1778 45.1152H28.1841ZM17.1263 16.5443C16.3777 18.9925 16.0018 21.5957 16.0018 24.2983C16.0018 29.1977 17.2873 33.8892 19.6183 37.5071C21.8703 41.0009 24.9087 43.2101 28.1872 43.7438C31.4657 43.2132 34.5042 41.0009 36.7562 37.5071C39.0871 33.8892 40.3726 29.1977 40.3726 24.2983C40.3726 21.5957 39.9936 18.9925 39.2482 16.5443C37.4984 17.4876 35.6539 17.9654 33.7493 17.9654C31.8448 17.9654 29.9591 17.4752 28.1904 16.5133C26.4217 17.4783 24.555 17.9654 22.6315 17.9654C20.708 17.9654 18.8824 17.4876 17.1326 16.5443H17.1263Z" fill="url(#paint0_linear_498_4888)"/>
<path fill-rule="evenodd" clip-rule="evenodd" d="M23.279 18.9052C24.7603 18.9052 26.1753 18.5483 27.4387 17.8936V42.2571C21.4376 40.9291 16.8926 33.6964 16.8926 24.9681C16.8926 22.25 17.3821 19.6778 18.1749 17.3848C19.7415 18.3622 21.4503 18.9052 23.279 18.9052ZM28.3863 37.4013V33.3676H28.3894L34.1347 38.9217C33.4493 39.6416 32.805 40.2683 32.0217 40.7865L28.3863 37.4013ZM39.2199 22.0111C39.0209 20.3821 38.6608 18.8276 38.1618 17.3848C37.369 17.8781 36.5352 18.2598 35.6666 18.5204L39.2199 22.0111ZM30.6193 18.5793C31.3995 18.7903 32.2017 18.9051 33.0261 18.9051C33.5251 18.9051 34.0179 18.8617 34.5011 18.7841L39.3588 23.5563C39.3841 24.0217 39.3999 24.4902 39.3999 24.965C39.3999 25.691 39.3652 26.4047 39.302 27.109L30.6193 18.5793ZM28.3863 28.347V31.9525L34.8927 38.1613C35.3751 37.5766 35.7466 36.9424 36.1446 36.2631L36.1446 36.263C36.1922 36.1818 36.2402 36.0998 36.2888 36.0173L28.3863 28.347ZM28.3863 42.2663V38.8129L30.9383 41.32C30.8439 41.3703 30.7541 41.4191 30.6671 41.4664C30.0031 41.8273 29.5033 42.099 28.3863 42.2663ZM28.3863 18.1666V22.2003L38.2439 31.6981C38.5465 30.6943 38.6957 29.6431 38.8504 28.5523L38.8756 28.375L28.3863 18.1666ZM28.3863 26.9384V23.6184L37.7985 32.7718C37.7369 32.9431 37.6776 33.1128 37.6188 33.2808C37.3979 33.9131 37.1852 34.5217 36.8857 35.1051L28.3863 26.9384Z" fill="#414042"/>
<path fill-rule="evenodd" clip-rule="evenodd" d="M23.279 18.9052C24.7603 18.9052 26.1753 18.5483 27.4387 17.8936V42.2571C21.4376 40.9291 16.8926 33.6964 16.8926 24.9681C16.8926 22.25 17.3821 19.6778 18.1749 17.3848C19.7415 18.3622 21.4503 18.9052 23.279 18.9052ZM28.3863 37.4013V33.3676H28.3894L34.1347 38.9217C33.4493 39.6416 32.805 40.2683 32.0217 40.7865L28.3863 37.4013ZM39.2199 22.0111C39.0209 20.3821 38.6608 18.8276 38.1618 17.3848C37.369 17.8781 36.5352 18.2598 35.6666 18.5204L39.2199 22.0111ZM30.6193 18.5793C31.3995 18.7903 32.2017 18.9051 33.0261 18.9051C33.5251 18.9051 34.0179 18.8617 34.5011 18.7841L39.3588 23.5563C39.3841 24.0217 39.3999 24.4902 39.3999 24.965C39.3999 25.691 39.3652 26.4047 39.302 27.109L30.6193 18.5793ZM28.3863 28.347V31.9525L34.8927 38.1613C35.3751 37.5766 35.7466 36.9424 36.1446 36.2631L36.1446 36.263C36.1922 36.1818 36.2402 36.0998 36.2888 36.0173L28.3863 28.347ZM28.3863 42.2663V38.8129L30.9383 41.32C30.8439 41.3703 30.7541 41.4191 30.6671 41.4664C30.0031 41.8273 29.5033 42.099 28.3863 42.2663ZM28.3863 18.1666V22.2003L38.2439 31.6981C38.5465 30.6943 38.6957 29.6431 38.8504 28.5523L38.8756 28.375L28.3863 18.1666ZM28.3863 26.9384V23.6184L37.7985 32.7718C37.7369 32.9431 37.6776 33.1128 37.6188 33.2808C37.3979 33.9131 37.1852 34.5217 36.8857 35.1051L28.3863 26.9384Z" fill="url(#paint1_radial_498_4888)"/>
</g>
<defs>
<linearGradient id="paint0_linear_498_4888" x1="14.6216" y1="29.8064" x2="41.7403" y2="29.8064" gradientUnits="userSpaceOnUse">
<stop offset="0.295" stop-color="#DEB98E"/>
<stop offset="1" stop-color="#512203"/>
</linearGradient>
<radialGradient id="paint1_radial_498_4888" cx="0" cy="0" r="1" gradientUnits="userSpaceOnUse" gradientTransform="translate(9.81632 29.8255) scale(22.5713 26.2381)">
<stop stop-color="#EDB989"/>
<stop offset="0.905" stop-color="#A06840"/>
</radialGradient>
<clipPath id="clip0_498_4888">
<rect width="27.125" height="30.625" fill="white" transform="translate(14.6216 14.4902)"/>
</clipPath>
</defs>
</svg>
