<svg width="186" height="66" viewBox="0 0 186 66" fill="none" xmlns="http://www.w3.org/2000/svg">
<circle cx="33.0254" cy="32.6715" r="32.6436" fill="#16161B"/>
<path d="M24.1026 31.2958C16.3176 39.0808 1.60889 53.7391 1.60889 53.7391L12.1995 64.3297L34.6933 41.8864L34.6933 60.2889L49.0434 60.2889L49.0434 16.5642L5.31869 16.5642L5.31868 31.2958L24.1026 31.2958Z" fill="#44C352"/>
<path d="M88.6087 2.59449C91.0209 2.59449 93.027 3.35753 94.6269 4.88362C96.2268 6.4097 97.0268 8.31731 97.0268 10.6064C97.0268 12.9202 96.2268 14.8278 94.6269 16.3292C93.027 17.8061 91.0209 18.5445 88.6087 18.5445H80.523V27.3318H76.9416V2.59449H88.6087ZM80.523 15.1108H88.498C89.9502 15.1108 91.1317 14.6924 92.0424 13.8555C92.9532 13.0186 93.4085 11.9356 93.4085 10.6064C93.4085 9.30187 92.9408 8.23115 92.0055 7.39427C91.0948 6.53277 89.9256 6.10202 88.498 6.10202H80.523V15.1108ZM101.712 27.2949V2.59449H111.644C115.188 2.59449 118.117 3.76367 120.431 6.10202C122.745 8.41576 123.902 11.3449 123.902 14.8893V15.0001C123.902 18.5445 122.745 21.4859 120.431 23.8243C118.117 26.138 115.188 27.2949 111.644 27.2949H101.712ZM111.607 6.10202H105.293V23.7874H111.607C114.142 23.7874 116.222 22.9751 117.847 21.3506C119.471 19.7014 120.284 17.5846 120.284 15.0001V14.8893C120.284 12.3048 119.471 10.2003 117.847 8.57575C116.222 6.9266 114.142 6.10202 111.607 6.10202ZM140.602 2.59449C143.014 2.59449 145.02 3.35753 146.62 4.88362C148.22 6.4097 149.02 8.31731 149.02 10.6064C149.02 12.9202 148.22 14.8278 146.62 16.3292C145.02 17.8061 143.014 18.5445 140.602 18.5445H132.516V27.3318H128.934V2.59449H140.602ZM132.516 15.1108H140.491C141.943 15.1108 143.125 14.6924 144.035 13.8555C144.946 13.0186 145.401 11.9356 145.401 10.6064C145.401 9.30187 144.934 8.23115 143.998 7.39427C143.088 6.53277 141.918 6.10202 140.491 6.10202H132.516V15.1108Z" fill="#16161B"/>
<path d="M76.1688 59.9721V34.0842H81.6555V59.9721H76.1688ZM97.0569 40.1891C99.4268 40.1891 101.294 40.949 102.66 42.4688C104.025 43.9886 104.707 46.1137 104.707 48.8442V59.9721H99.4912V49.617C99.4912 48.2775 99.1177 47.2214 98.3706 46.4486C97.6236 45.6758 96.6834 45.2894 95.55 45.2894C94.3393 45.2894 93.309 45.7273 92.4589 46.6031C91.6089 47.4532 91.1838 48.5866 91.1838 50.0033V59.9721H85.9676V40.7301H91.0293V43.0484H91.2225C92.5877 41.1422 94.5325 40.1891 97.0569 40.1891ZM116.598 53.7127L121.853 40.7301H127.185L118.955 59.9721H113.739L105.509 40.7301H111.111L116.598 53.7127ZM137.154 40.1505C140.348 40.1505 142.873 41.2839 144.727 43.5507C146.582 45.8175 147.329 48.6639 146.968 52.0898H132.44C132.595 53.1202 133.084 53.996 133.909 54.7173C134.759 55.4128 135.828 55.7863 137.116 55.8378C138.017 55.8893 138.854 55.7347 139.627 55.3741C140.426 54.9877 140.992 54.4854 141.327 53.8672H146.775C146.157 55.9795 144.972 57.628 143.22 58.813C141.469 59.9721 139.434 60.5517 137.116 60.5517C133.999 60.5517 131.552 59.5728 129.774 57.6152C127.997 55.6317 127.108 53.2103 127.108 50.3511C127.108 47.4661 128.048 45.0447 129.929 43.087C131.835 41.1293 134.243 40.1505 137.154 40.1505ZM140.013 45.6758C139.215 45.1091 138.249 44.8258 137.116 44.8258C135.982 44.8258 134.99 45.122 134.14 45.7144C133.316 46.2812 132.762 47.0539 132.479 48.0328H141.675C141.392 47.0282 140.838 46.2425 140.013 45.6758ZM154.989 40.7301H165.576V45.7531H155.143C154.602 45.7531 154.332 46.0236 154.332 46.5645C154.332 47.0282 154.551 47.2986 154.989 47.3759L162.214 48.8442C163.682 49.1533 164.842 49.7844 165.692 50.7375C166.542 51.6906 166.967 52.8368 166.967 54.1763C166.967 55.8507 166.361 57.2416 165.151 58.3493C163.966 59.4312 162.485 59.9721 160.707 59.9721H149.579V54.9105H160.63C161.197 54.9105 161.48 54.6271 161.48 54.0604C161.48 53.6225 161.261 53.3391 160.823 53.2103L153.482 51.6262C152.091 51.3428 150.957 50.7246 150.082 49.7715C149.206 48.8184 148.768 47.6979 148.768 46.4099C148.768 44.7614 149.36 43.409 150.545 42.3529C151.73 41.271 153.211 40.7301 154.989 40.7301ZM183.543 40.7301V45.7531H175.622V53.4422C175.622 53.9058 175.763 54.2665 176.047 54.5241C176.33 54.7817 176.704 54.9105 177.167 54.9105H183.543V59.9721H176.201C174.424 59.9721 173.007 59.4698 171.951 58.4652C170.921 57.4348 170.405 56.0567 170.405 54.3309V45.7531H167.701V40.7301H170.405V34.0842H175.622V40.7301H183.543Z" fill="#44C352"/>
</svg>
