<svg width="29" height="29" viewBox="0 0 29 29" fill="none" xmlns="http://www.w3.org/2000/svg">
<g clip-path="url(#clip0_51_1964)">
<path d="M23.7383 4.8164C22.543 3.62109 20.8555 3.43359 18.8516 3.43359H9.72266C7.75391 3.43359 6.06641 3.62109 4.87109 4.8164C3.67578 6.01171 3.5 7.6875 3.5 9.65625V18.7852C3.5 20.7891 3.67578 22.4648 4.87109 23.6602C6.06641 24.8555 7.75391 25.043 9.74609 25.043H18.8516C20.8555 25.043 22.543 24.8555 23.7383 23.6602C24.9336 22.4648 25.1094 20.7891 25.1094 18.7852V9.67968C25.1094 7.67578 24.9336 6.01171 23.7383 4.8164Z" fill="#16161B"/>
<path d="M8.5625 14.25C8.5625 13.6406 8.98438 13.2188 9.60547 13.2188H13.2734V9.55078C13.2734 8.9414 13.6719 8.50781 14.2695 8.50781C14.8789 8.50781 15.3008 8.9414 15.3008 9.55078V13.2188H18.9805C19.5781 13.2188 20.0117 13.6406 20.0117 14.25C20.0117 14.8477 19.5781 15.2461 18.9805 15.2461H15.3008V18.9258C15.3008 19.5352 14.8789 19.957 14.2695 19.957C13.6719 19.957 13.2734 19.5234 13.2734 18.9258V15.2461H9.60547C8.99609 15.2461 8.5625 14.8477 8.5625 14.25Z" fill="#00FFA4"/>
</g>
<defs>
<clipPath id="clip0_51_1964">
<rect width="21.6094" height="21.6211" fill="white" transform="translate(3.5 3.43359)"/>
</clipPath>
</defs>
</svg>
