<svg width="68" height="68" viewBox="0 0 68 68" fill="none" xmlns="http://www.w3.org/2000/svg">
<rect width="68" height="68" rx="34" fill="#EDFAF4"/>
<g clip-path="url(#clip0_1287_32922)">
<path d="M34.5136 49.8723C35.2814 49.8723 35.6653 49.6554 36.9004 48.7039C37.9853 47.9028 39.888 46.4841 42.4417 46.4841C43.9439 46.4841 45.179 46.9014 46.6144 47.7693L51.3712 39.3404C52.79 36.8535 52.2059 35.0343 49.7189 33.8993L37.5848 28.3245C36.8837 28.0074 35.899 27.4733 34.5136 27.4733C33.145 27.4733 32.1602 28.0074 31.4426 28.3245L19.3083 33.8993C16.838 35.0343 16.2539 36.8535 17.6559 39.3404L22.4128 47.7693C23.8482 46.9014 25.0833 46.4841 26.5855 46.4841C29.1392 46.4841 31.0419 47.9028 32.1268 48.7039C33.3619 49.6554 33.7458 49.8723 34.5136 49.8723ZM34.5136 25.2033C36.0158 25.2033 36.9839 25.5371 38.536 26.2548L47.2821 30.2773L45.8466 19.6286C45.5964 17.8093 44.4613 16.5241 42.6588 16.5241H26.4019C24.5993 16.5241 23.5144 17.8093 23.2139 19.9624L21.7785 30.2606L30.4911 26.2548C32.0433 25.5371 33.0114 25.2033 34.5136 25.2033ZM27.153 23.4341C26.7524 23.4341 26.4853 23.1504 26.4853 22.7498V20.0792C26.4853 19.6787 26.7524 19.3949 27.153 19.3949H32.3272C32.8278 19.3949 33.1617 19.6787 33.1617 20.0792V22.7498C33.1617 23.1504 32.8278 23.4341 32.3272 23.4341H27.153ZM36.5332 23.4341C36.1492 23.4341 35.8822 23.1504 35.8822 22.7498V20.0792C35.8822 19.6787 36.1492 19.3949 36.5332 19.3949H41.724C42.2248 19.3949 42.5585 19.6787 42.5585 20.0792V22.7498C42.5585 23.1504 42.2248 23.4341 41.724 23.4341H36.5332ZM27.5869 17.0248H41.457V15.6061C41.457 13.9871 40.5055 13.019 38.8866 13.019H30.1573C28.5383 13.019 27.5869 13.9871 27.5869 15.6061V17.0248Z" fill="#00CB82"/>
<path d="M42.4413 50.7905C39.7875 50.7905 39.0698 54.1787 34.5132 54.1787C29.9566 54.1787 29.2389 50.7905 26.5851 50.7905C23.8812 50.7905 23.4472 54.1787 18.2397 54.1787H18.1562C17.5053 54.1787 16.9712 53.6446 16.9712 52.9936C16.9712 52.3427 17.5053 51.8252 18.1562 51.8252H18.2397C20.0423 51.8252 21.0437 51.0742 22.2956 50.1896C23.3805 49.4051 24.7324 48.437 26.5851 48.437C28.5045 48.437 29.8732 49.4552 30.9581 50.2731L30.9731 50.2844C32.1176 51.1469 33.0175 51.8252 34.5132 51.8252C36.0089 51.8252 36.9088 51.147 38.0533 50.2844L38.0684 50.2731C39.1532 49.4552 40.522 48.437 42.4413 48.437C44.294 48.437 45.646 49.4051 46.7308 50.1896C47.9826 51.0742 49.0009 51.8252 50.7868 51.8252H50.8702C51.5211 51.8252 52.0552 52.3427 52.0552 52.9936C52.0552 53.6446 51.5211 54.1787 50.8702 54.1787H50.7868C45.5792 54.1787 45.1453 50.7905 42.4413 50.7905Z" fill="#A7A7A7"/>
</g>
<defs>
<clipPath id="clip0_1287_32922">
<rect width="35.2203" height="41.5434" fill="white" transform="translate(16.9087 12.6357)"/>
</clipPath>
</defs>
</svg>
