<svg width="68" height="68" viewBox="0 0 68 68" fill="none" xmlns="http://www.w3.org/2000/svg">
<rect width="68" height="68" rx="34" fill="#EDFAF4"/>
<g clip-path="url(#clip0_1287_32904)">
<path d="M33.9103 56.8013C46.4216 56.8013 56.7801 46.4425 56.7801 33.9313C56.7801 21.4426 46.3992 11.0615 33.8879 11.0615C21.3992 11.0615 11.0405 21.4426 11.0405 33.9313C11.0405 46.4425 21.4216 56.8013 33.9103 56.8013Z" fill="#00CB82"/>
<path d="M33.574 47.3171C26.4665 47.3171 21.0405 42.2276 21.0405 35.0975C21.0405 30.0303 24.045 25.1872 28.5293 23.416C29.5383 23.0124 30.1436 23.6626 29.7625 24.5146C29.4037 25.5684 29.0226 27.4518 29.0226 28.8195C29.0226 35.3891 33.2379 39.5145 39.7848 39.5145C41.2647 39.5145 42.8118 39.2007 43.7309 38.8868C44.6727 38.5728 45.1885 39.2903 44.7848 40.2096C43.2601 44.1334 38.7759 47.3171 33.574 47.3171ZM40.4799 32.5863C40.2109 32.5863 40.009 32.362 39.9642 32.093C39.4486 27.9899 39.2468 27.9227 34.9642 27.1155C34.6728 27.0931 34.4934 26.8913 34.4934 26.5774C34.4934 26.3083 34.6728 26.1065 34.9642 26.0841C39.2468 25.4787 39.3813 25.2545 39.9642 21.1065C40.009 20.8151 40.2109 20.6133 40.4799 20.6133C40.7489 20.6133 40.9507 20.8151 40.9955 21.1065C41.6011 25.1872 41.758 25.2545 45.9955 26.0841C46.2647 26.1065 46.4664 26.3083 46.4664 26.5774C46.4664 26.9137 46.2647 27.0931 45.9507 27.1155C41.7356 27.7433 41.5113 27.9451 40.9955 32.093C40.9507 32.362 40.7489 32.5863 40.4799 32.5863Z" fill="white"/>
</g>
<defs>
<clipPath id="clip0_1287_32904">
<rect width="45.7396" height="45.7622" fill="white" transform="translate(11.0405 11.04)"/>
</clipPath>
</defs>
</svg>
