<svg width="422" height="423" viewBox="0 0 422 423" fill="none" xmlns="http://www.w3.org/2000/svg">
<path d="M346.782 63.4205C319.112 38.0774 284.902 20.9839 248.021 14.074C211.141 7.1641 173.063 10.7137 138.095 24.3211C103.128 37.9285 72.666 61.0506 50.157 91.0713C27.648 121.092 13.99 156.813 10.7283 194.193C7.46657 231.573 14.7313 269.12 31.7007 302.585C48.67 336.051 74.6665 364.099 106.749 383.558C138.831 403.016 175.719 413.107 213.239 412.689C250.759 412.271 287.412 401.361 319.054 381.193L276.04 313.709C256.994 325.848 234.931 332.415 212.348 332.667C189.764 332.918 167.56 326.844 148.249 315.132C128.938 303.42 113.29 286.537 103.076 266.393C92.8619 246.25 88.4891 223.649 90.4524 201.15C92.4157 178.65 100.637 157.149 114.185 139.079C127.734 121.009 146.069 107.091 167.117 98.9003C188.165 90.7097 211.085 88.5732 233.284 92.7324C255.483 96.8916 276.075 107.18 292.73 122.435L346.782 63.4205Z" fill="#FFAC2F"/>
<path d="M400.886 211.669C400.886 316.54 315.871 401.554 211 401.554C106.129 401.554 21.1144 316.54 21.1144 211.669C21.1144 106.798 106.129 21.7832 211 21.7832C315.871 21.7832 400.886 106.798 400.886 211.669ZM106.563 211.669C106.563 269.348 153.321 316.106 211 316.106C268.679 316.106 315.437 269.348 315.437 211.669C315.437 153.99 268.679 107.232 211 107.232C153.321 107.232 106.563 153.99 106.563 211.669Z" fill="#16161B"/>
<path d="M211 21.7832C235.936 21.7832 260.628 26.6947 283.666 36.2374C306.704 45.78 327.637 59.7669 345.269 77.3994C362.902 95.0319 376.889 115.965 386.431 139.003C395.974 162.041 400.886 186.733 400.886 211.669C400.886 236.605 395.974 261.297 386.431 284.335C376.889 307.373 362.902 328.306 345.269 345.938C327.637 363.571 306.704 377.558 283.666 387.1C260.628 396.643 235.936 401.554 211 401.554L211 316.106C224.715 316.106 238.295 313.405 250.966 308.156C263.637 302.908 275.15 295.215 284.848 285.517C294.546 275.819 302.239 264.306 307.487 251.635C312.736 238.964 315.437 225.384 315.437 211.669C315.437 197.954 312.736 184.373 307.487 171.702C302.239 159.032 294.546 147.519 284.848 137.821C275.15 128.123 263.637 120.43 250.966 115.182C238.295 109.933 224.715 107.232 211 107.232V21.7832Z" fill="#00CB82"/>
<circle cx="358.558" cy="211.668" r="31.9086" fill="#00BA77"/>
<path d="M339.531 216.485H342.929C343.175 218.684 345.312 220.129 348.234 220.129C351.032 220.129 353.046 218.684 353.046 216.7C353.046 214.978 351.832 213.948 348.956 213.241L346.081 212.549C342.007 211.565 340.116 209.658 340.116 206.568C340.116 202.74 343.452 200.11 348.188 200.11C352.877 200.11 356.091 202.74 356.198 206.568H352.846C352.647 204.354 350.817 203.016 348.142 203.016C345.466 203.016 343.637 204.369 343.637 206.337C343.637 207.906 344.805 208.828 347.665 209.535L350.11 210.135C354.661 211.211 356.552 213.041 356.552 216.285C356.552 220.437 353.246 223.035 347.988 223.035C343.068 223.035 339.747 220.498 339.531 216.485ZM359.35 222.666V206.491H362.671V222.666H359.35ZM361.011 204.123C359.95 204.123 359.089 203.278 359.089 202.232C359.089 201.171 359.95 200.326 361.011 200.326C362.087 200.326 362.948 201.171 362.948 202.232C362.948 203.278 362.087 204.123 361.011 204.123ZM365.731 222.666V220.529L374.356 209.197V209.136H365.792V206.491H378.17V208.767L369.759 219.96V220.021H378.262V222.666H365.731Z" fill="white"/>
<circle cx="267.545" cy="344.901" r="25.1387" fill="#00BA77"/>
<path d="M249.42 348.901H248.366V340.446H249.42V348.901ZM250.903 348.901V342.808H251.864V343.78H251.887C252.227 343.124 252.877 342.702 253.821 342.702C255.157 342.702 255.93 343.563 255.93 344.946V348.901H254.911V345.128C254.911 344.144 254.448 343.604 253.51 343.604C252.549 343.604 251.922 344.284 251.922 345.315V348.901H250.903ZM262.229 342.808L259.991 348.901H258.948L256.704 342.808H257.776L259.458 347.817H259.481L261.168 342.808H262.229ZM265.299 343.587C264.344 343.587 263.676 344.319 263.612 345.333H266.922C266.899 344.313 266.26 343.587 265.299 343.587ZM266.899 347.155H267.901C267.725 348.222 266.694 349.007 265.364 349.007C263.618 349.007 262.557 347.794 262.557 345.878C262.557 343.985 263.635 342.702 265.317 342.702C266.963 342.702 267.977 343.897 267.977 345.743V346.13H263.606V346.188C263.606 347.354 264.292 348.122 265.387 348.122C266.161 348.122 266.729 347.729 266.899 347.155ZM268.903 344.489C268.903 343.446 269.834 342.702 271.176 342.702C272.436 342.702 273.362 343.452 273.409 344.483H272.436C272.366 343.897 271.891 343.534 271.141 343.534C270.397 343.534 269.905 343.903 269.905 344.437C269.905 344.858 270.227 345.14 270.918 345.315L271.862 345.544C273.092 345.854 273.538 346.3 273.538 347.196C273.538 348.257 272.536 349.007 271.112 349.007C269.776 349.007 268.844 348.28 268.739 347.202H269.758C269.87 347.835 270.35 348.175 271.176 348.175C272.002 348.175 272.512 347.823 272.512 347.272C272.512 346.839 272.26 346.604 271.575 346.423L270.502 346.147C269.43 345.872 268.903 345.321 268.903 344.489ZM274.926 341.337H275.946V342.808H277.129V343.646H275.946V347.267C275.946 347.823 276.18 348.075 276.702 348.075C276.819 348.075 277.053 348.058 277.124 348.046V348.901C277 348.931 276.719 348.948 276.479 348.948C275.36 348.948 274.926 348.491 274.926 347.319V343.646H274.018V342.808H274.926V341.337ZM280.569 349.007C278.881 349.007 277.745 347.794 277.745 345.854C277.745 343.909 278.881 342.702 280.569 342.702C282.25 342.702 283.387 343.909 283.387 345.854C283.387 347.794 282.25 349.007 280.569 349.007ZM280.569 348.11C281.647 348.11 282.35 347.29 282.35 345.854C282.35 344.419 281.647 343.599 280.569 343.599C279.491 343.599 278.782 344.419 278.782 345.854C278.782 347.29 279.491 348.11 280.569 348.11ZM284.418 348.901V342.808H285.379V343.804H285.403C285.602 343.13 286.165 342.702 286.879 342.702C287.055 342.702 287.208 342.731 287.29 342.743V343.733C287.208 343.704 286.991 343.675 286.745 343.675C285.954 343.675 285.438 344.243 285.438 345.104V348.901H284.418Z" fill="white"/>
<circle cx="267.545" cy="74.6865" r="25.1387" fill="#00BA77"/>
<path d="M249.42 78.6865H248.366V70.2314H249.42V78.6865ZM250.903 78.6865V72.5928H251.864V73.5654H251.887C252.227 72.9092 252.877 72.4873 253.821 72.4873C255.157 72.4873 255.93 73.3486 255.93 74.7314V78.6865H254.911V74.9131C254.911 73.9287 254.448 73.3896 253.51 73.3896C252.549 73.3896 251.922 74.0693 251.922 75.1006V78.6865H250.903ZM262.229 72.5928L259.991 78.6865H258.948L256.704 72.5928H257.776L259.458 77.6025H259.481L261.168 72.5928H262.229ZM265.299 73.3721C264.344 73.3721 263.676 74.1045 263.612 75.1182H266.922C266.899 74.0986 266.26 73.3721 265.299 73.3721ZM266.899 76.9404H267.901C267.725 78.0068 266.694 78.792 265.364 78.792C263.618 78.792 262.557 77.5791 262.557 75.6631C262.557 73.7705 263.635 72.4873 265.317 72.4873C266.963 72.4873 267.977 73.6826 267.977 75.5283V75.915H263.606V75.9736C263.606 77.1396 264.292 77.9072 265.387 77.9072C266.161 77.9072 266.729 77.5146 266.899 76.9404ZM268.903 74.2744C268.903 73.2314 269.834 72.4873 271.176 72.4873C272.436 72.4873 273.362 73.2373 273.409 74.2686H272.436C272.366 73.6826 271.891 73.3193 271.141 73.3193C270.397 73.3193 269.905 73.6885 269.905 74.2217C269.905 74.6436 270.227 74.9248 270.918 75.1006L271.862 75.3291C273.092 75.6396 273.538 76.085 273.538 76.9814C273.538 78.042 272.536 78.792 271.112 78.792C269.776 78.792 268.844 78.0654 268.739 76.9873H269.758C269.87 77.6201 270.35 77.96 271.176 77.96C272.002 77.96 272.512 77.6084 272.512 77.0576C272.512 76.624 272.26 76.3896 271.575 76.208L270.502 75.9326C269.43 75.6572 268.903 75.1064 268.903 74.2744ZM274.926 71.1221H275.946V72.5928H277.129V73.4307H275.946V77.0518C275.946 77.6084 276.18 77.8604 276.702 77.8604C276.819 77.8604 277.053 77.8428 277.124 77.8311V78.6865C277 78.7158 276.719 78.7334 276.479 78.7334C275.36 78.7334 274.926 78.2764 274.926 77.1045V73.4307H274.018V72.5928H274.926V71.1221ZM280.569 78.792C278.881 78.792 277.745 77.5791 277.745 75.6396C277.745 73.6943 278.881 72.4873 280.569 72.4873C282.25 72.4873 283.387 73.6943 283.387 75.6396C283.387 77.5791 282.25 78.792 280.569 78.792ZM280.569 77.8955C281.647 77.8955 282.35 77.0752 282.35 75.6396C282.35 74.2041 281.647 73.3838 280.569 73.3838C279.491 73.3838 278.782 74.2041 278.782 75.6396C278.782 77.0752 279.491 77.8955 280.569 77.8955ZM284.418 78.6865V72.5928H285.379V73.5889H285.403C285.602 72.915 286.165 72.4873 286.879 72.4873C287.055 72.4873 287.208 72.5166 287.29 72.5283V73.5186C287.208 73.4893 286.991 73.46 286.745 73.46C285.954 73.46 285.438 74.0283 285.438 74.8896V78.6865H284.418Z" fill="white"/>
<path d="M181.905 174.527H189.833C193.765 174.527 196.429 177.076 196.429 181.009C196.429 184.916 193.626 187.465 189.554 187.465H186.56V192.831H181.905V174.527ZM186.56 178.091V183.964H188.577C190.556 183.964 191.723 182.937 191.723 181.021C191.723 179.119 190.556 178.091 188.602 178.091H186.56ZM198.497 174.527H205.93C211.461 174.527 214.708 177.736 214.708 183.571C214.708 189.419 211.448 192.831 205.93 192.831H198.497V174.527ZM203.152 178.282V189.076H205.321C208.353 189.076 209.976 187.237 209.976 183.584C209.976 180.146 208.264 178.282 205.321 178.282H203.152ZM216.966 174.527H224.894C228.826 174.527 231.49 177.076 231.49 181.009C231.49 184.916 228.687 187.465 224.615 187.465H221.621V192.831H216.966V174.527ZM221.621 178.091V183.964H223.638C225.617 183.964 226.784 182.937 226.784 181.021C226.784 179.119 225.617 178.091 223.663 178.091H221.621ZM181.321 213.529H185.748C185.913 214.785 187.321 215.622 189.046 215.622C190.86 215.622 192.04 214.81 192.04 213.706C192.04 212.692 191.266 212.197 189.186 211.766L186.789 211.296C183.414 210.649 181.677 208.823 181.677 206.045C181.677 202.493 184.721 200.21 188.958 200.21C193.537 200.21 196.239 202.43 196.289 205.867H192.002C191.913 204.535 190.683 203.736 189.008 203.736C187.385 203.736 186.307 204.472 186.307 205.588C186.307 206.577 187.118 207.123 189.034 207.516L191.406 207.96C195.021 208.658 196.645 210.294 196.645 213.186C196.645 216.827 193.638 219.148 188.92 219.148C184.252 219.148 181.372 217.081 181.321 213.529ZM207.211 219.148C201.731 219.148 198.319 215.66 198.319 209.673C198.319 203.698 201.757 200.21 207.211 200.21C211.841 200.21 215.355 203.191 215.494 207.516H211.017C210.788 205.36 209.253 203.939 207.211 203.939C204.674 203.939 203.063 206.108 203.063 209.66C203.063 213.25 204.662 215.419 207.224 215.419C209.266 215.419 210.75 214.074 211.042 211.93H215.52C215.304 216.281 211.93 219.148 207.211 219.148ZM234.293 218.831H229.651V211.461H222.357V218.831H217.702V200.527H222.357V207.706H229.651V200.527H234.293V218.831ZM245.621 200.21C251.164 200.21 254.653 203.85 254.653 209.685C254.653 215.52 251.164 219.148 245.621 219.148C240.065 219.148 236.577 215.52 236.577 209.685C236.577 203.85 240.078 200.21 245.621 200.21ZM245.621 203.99C243.021 203.99 241.321 206.197 241.321 209.685C241.321 213.161 243.008 215.368 245.621 215.368C248.221 215.368 249.921 213.161 249.921 209.685C249.921 206.197 248.221 203.99 245.621 203.99ZM265.46 200.21C271.003 200.21 274.492 203.85 274.492 209.685C274.492 215.52 271.003 219.148 265.46 219.148C259.904 219.148 256.416 215.52 256.416 209.685C256.416 203.85 259.917 200.21 265.46 200.21ZM265.46 203.99C262.86 203.99 261.16 206.197 261.16 209.685C261.16 213.161 262.847 215.368 265.46 215.368C268.06 215.368 269.76 213.161 269.76 209.685C269.76 206.197 268.06 203.99 265.46 203.99ZM288.99 215.076V218.831H276.762V200.527H281.418V215.076H288.99ZM201.998 244.831H197.9V233.402H197.812L193.283 244.641H190.619L186.104 233.402H186.002V244.831H181.905V226.527H187.283L191.901 238.286H192.002L196.619 226.527H201.998V244.831ZM213.148 245.148C207.668 245.148 204.256 241.66 204.256 235.673C204.256 229.698 207.693 226.21 213.148 226.21C217.778 226.21 221.291 229.191 221.431 233.516H216.953C216.725 231.36 215.19 229.939 213.148 229.939C210.611 229.939 209 232.108 209 235.66C209 239.25 210.598 241.419 213.16 241.419C215.203 241.419 216.687 240.074 216.978 237.93H221.456C221.241 242.281 217.866 245.148 213.148 245.148ZM240.23 244.831H235.587V237.461H228.293V244.831H223.638V226.527H228.293V233.706H235.587V226.527H240.23V244.831ZM241.955 238.869H246.433C246.445 240.328 247.295 241.241 248.627 241.241C249.997 241.241 250.746 240.366 250.746 238.742V226.527H255.388V238.768C255.388 242.878 252.877 245.174 248.678 245.174C244.568 245.174 241.955 242.751 241.955 238.869Z" fill="black"/>
<path d="M185.874 267.322H184.468V257.314H180.913V256.049H189.428V257.314H185.874V267.322ZM191.96 267.463C189.71 267.463 188.194 265.846 188.194 263.26C188.194 260.666 189.71 259.057 191.96 259.057C194.202 259.057 195.718 260.666 195.718 263.26C195.718 265.846 194.202 267.463 191.96 267.463ZM191.96 266.268C193.397 266.268 194.335 265.174 194.335 263.26C194.335 261.346 193.397 260.252 191.96 260.252C190.522 260.252 189.577 261.346 189.577 263.26C189.577 265.174 190.522 266.268 191.96 266.268ZM197.327 260.025H196.194L196.952 256.049H198.397L197.327 260.025ZM200.116 267.322V256.049H201.475V267.322H200.116ZM203.382 267.322V259.197H204.741V267.322H203.382ZM204.061 257.83C203.6 257.83 203.218 257.447 203.218 256.986C203.218 256.518 203.6 256.143 204.061 256.143C204.53 256.143 204.913 256.518 204.913 256.986C204.913 257.447 204.53 257.83 204.061 257.83ZM209.639 259.057C210.819 259.057 211.749 259.635 212.272 260.572H212.303V259.197H213.6V270.033H212.241V265.963H212.21C211.702 266.893 210.757 267.463 209.608 267.463C207.553 267.463 206.178 265.807 206.178 263.26C206.178 260.705 207.553 259.057 209.639 259.057ZM209.882 266.268C211.272 266.268 212.241 265.072 212.241 263.26C212.241 261.447 211.272 260.252 209.882 260.252C208.46 260.252 207.569 261.4 207.569 263.26C207.569 265.111 208.46 266.268 209.882 266.268ZM218.514 261.439C218.514 260.049 219.757 259.057 221.546 259.057C223.225 259.057 224.46 260.057 224.522 261.432H223.225C223.132 260.65 222.499 260.166 221.499 260.166C220.507 260.166 219.85 260.658 219.85 261.369C219.85 261.932 220.28 262.307 221.202 262.541L222.46 262.846C224.1 263.26 224.694 263.854 224.694 265.049C224.694 266.463 223.358 267.463 221.46 267.463C219.678 267.463 218.436 266.494 218.296 265.057H219.655C219.803 265.9 220.444 266.354 221.546 266.354C222.647 266.354 223.327 265.885 223.327 265.15C223.327 264.572 222.991 264.26 222.077 264.018L220.647 263.65C219.218 263.283 218.514 262.549 218.514 261.439ZM226.178 267.322V256.049H227.538V260.494H227.569C228.022 259.588 228.913 259.057 230.147 259.057C231.928 259.057 233.007 260.26 233.007 262.072V267.322H231.647V262.322C231.647 261.033 230.999 260.26 229.725 260.26C228.374 260.26 227.538 261.182 227.538 262.588V267.322H226.178ZM237.991 260.236C236.718 260.236 235.827 261.213 235.741 262.564H240.155C240.124 261.205 239.272 260.236 237.991 260.236ZM240.124 264.994H241.46C241.225 266.416 239.85 267.463 238.077 267.463C235.749 267.463 234.335 265.846 234.335 263.291C234.335 260.768 235.772 259.057 238.014 259.057C240.21 259.057 241.561 260.65 241.561 263.111V263.627H235.733V263.705C235.733 265.26 236.647 266.283 238.108 266.283C239.139 266.283 239.897 265.76 240.124 264.994ZM242.936 267.322V259.197H244.218V260.525H244.249C244.514 259.627 245.264 259.057 246.218 259.057C246.452 259.057 246.655 259.096 246.764 259.111V260.432C246.655 260.393 246.366 260.354 246.038 260.354C244.983 260.354 244.296 261.111 244.296 262.26V267.322H242.936ZM247.944 267.322V259.197H249.303V267.322H247.944ZM248.624 257.83C248.163 257.83 247.78 257.447 247.78 256.986C247.78 256.518 248.163 256.143 248.624 256.143C249.093 256.143 249.475 256.518 249.475 256.986C249.475 257.447 249.093 257.83 248.624 257.83ZM252.569 262.807L256.163 259.197H257.811L254.288 262.705L257.921 267.322H256.343L253.327 263.541L252.569 264.26V267.322H251.21V256.049H252.569V262.807Z" fill="#A7A7A7"/>
<g clip-path="url(#clip0_1206_11652)">
<path d="M171.94 193.59C171.94 204.636 162.985 213.59 151.94 213.59C142.674 213.59 134.879 207.288 132.608 198.737H140.121C140.805 200.306 141.793 201.712 143.01 202.882C143.487 202.083 143.729 201.135 143.638 200.142C143.066 199.958 142.653 199.423 142.653 198.791C142.653 198.007 143.288 197.372 144.071 197.372C144.854 197.372 145.489 198.007 145.489 198.791C145.489 199.393 145.114 199.907 144.586 200.113C144.688 201.357 144.357 202.54 143.726 203.521C145.227 204.764 147.015 205.673 148.975 206.135C150.386 205.09 151.332 203.432 151.387 201.517L151.427 200.098C150.917 199.884 150.558 199.379 150.558 198.79C150.558 198.007 151.193 197.372 151.976 197.372C152.76 197.372 153.395 198.007 153.395 198.79C153.395 199.437 152.963 199.982 152.372 200.153L152.332 201.544C152.277 203.459 151.453 205.152 150.178 206.358C150.754 206.437 151.342 206.477 151.94 206.477C153.416 206.477 154.835 206.229 156.156 205.772C157.895 204.46 158.941 202.375 158.906 200.151C158.319 199.977 157.891 199.434 157.891 198.791C157.891 198.007 158.526 197.372 159.309 197.372C160.093 197.372 160.728 198.007 160.728 198.791C160.728 199.382 160.366 199.889 159.851 200.102C159.885 201.772 159.382 203.375 158.469 204.703C161.609 202.854 163.897 199.713 164.6 196.01H156.104V200.388C156.648 200.587 157.036 201.109 157.036 201.721C157.036 202.504 156.401 203.139 155.618 203.139C154.834 203.139 154.199 202.504 154.199 201.721C154.199 201.098 154.6 200.57 155.158 200.379V196.01H148.69V200.04C149.234 200.239 149.622 200.76 149.622 201.373C149.622 202.156 148.987 202.791 148.203 202.791C147.42 202.791 146.785 202.156 146.785 201.373C146.785 200.75 147.186 200.221 147.744 200.031L147.744 196.01H139.279L139.28 196.012H132.085C131.989 195.218 131.94 194.41 131.94 193.59C131.94 182.544 140.894 173.59 151.94 173.59C161.457 173.59 169.422 180.238 171.444 189.143H164.039C163.333 187.222 162.183 185.517 160.713 184.15C159.988 185.037 159.586 186.194 159.697 187.42C160.267 187.604 160.68 188.139 160.68 188.771C160.68 189.554 160.045 190.189 159.262 190.189C158.479 190.189 157.844 189.554 157.844 188.771C157.844 188.169 158.219 187.654 158.749 187.448C158.63 185.977 159.121 184.593 159.997 183.531C158.702 182.493 157.203 181.699 155.568 181.22C153.448 182.446 152.063 184.789 152.19 187.394C152.809 187.547 153.267 188.106 153.267 188.771C153.267 189.555 152.632 190.19 151.849 190.19C151.066 190.19 150.431 189.555 150.431 188.771C150.431 188.203 150.765 187.713 151.248 187.487C151.102 184.832 152.333 182.413 154.312 180.92C153.543 180.777 152.75 180.702 151.94 180.702C150.478 180.702 149.073 180.946 147.764 181.394C145.676 182.654 144.389 184.948 144.427 187.412C145.014 187.586 145.442 188.129 145.442 188.772C145.442 189.555 144.807 190.19 144.024 190.19C143.24 190.19 142.605 189.555 142.605 188.772C142.605 188.181 142.967 187.674 143.482 187.461C143.448 185.758 143.972 184.124 144.919 182.781C141.843 184.783 139.675 188.062 139.166 191.866H147.717L147.717 187.28C147.173 187.082 146.785 186.56 146.785 185.947C146.785 185.164 147.42 184.529 148.204 184.529C148.987 184.529 149.622 185.164 149.622 185.947C149.622 186.57 149.221 187.099 148.663 187.29V191.866H155.131V187.057C154.587 186.858 154.199 186.336 154.199 185.724C154.199 184.941 154.834 184.306 155.617 184.306C156.401 184.306 157.036 184.941 157.036 185.724C157.036 186.346 156.635 186.875 156.077 187.066V191.866H157.296V191.867H171.867C171.915 192.435 171.94 193.01 171.94 193.59Z" fill="#16161B"/>
<circle cx="159.284" cy="188.804" r="0.677966" fill="#00C2FF"/>
<circle cx="0.762712" cy="0.762712" r="0.762712" transform="matrix(1 0 0 -1 158.497 199.596)" fill="#00C2FF"/>
<circle cx="155.631" cy="185.719" r="0.762712" fill="#00C2FF"/>
<circle cx="0.762712" cy="0.762712" r="0.762712" transform="matrix(1 0 0 -1 154.781 202.438)" fill="#00C2FF"/>
<circle cx="151.828" cy="188.778" r="0.762712" fill="#00C2FF"/>
<circle cx="0.762712" cy="0.762712" r="0.762712" transform="matrix(1 0 0 -1 151.175 199.596)" fill="#00C2FF"/>
<circle cx="143.959" cy="188.778" r="0.762712" fill="#00C2FF"/>
<circle cx="0.762712" cy="0.762712" r="0.762712" transform="matrix(1 0 0 -1 143.306 199.596)" fill="#00C2FF"/>
<circle cx="148.221" cy="185.938" r="0.762712" fill="#00C2FF"/>
<circle cx="0.762712" cy="0.762712" r="0.762712" transform="matrix(1 0 0 -1 147.459 202.109)" fill="#00C2FF"/>
</g>
<defs>
<clipPath id="clip0_1206_11652">
<rect width="40" height="40" fill="white" transform="translate(131.94 173.59)"/>
</clipPath>
</defs>
</svg>
