<svg width="11" height="18" viewBox="0 0 11 18" fill="none" xmlns="http://www.w3.org/2000/svg">
<path d="M0.952796 18C1.21174 18 1.43958 17.8964 1.62597 17.7204L9.82854 9.6939C10.0253 9.49712 10.1288 9.2589 10.1288 9C10.1288 8.73071 10.0253 8.48215 9.82854 8.30611L1.62597 0.289966C1.44992 0.103578 1.21174 0 0.952796 0C0.414268 0 0 0.414269 0 0.952796C0 1.20136 0.113918 1.44996 0.279582 1.62601L7.80894 9L0.279582 16.374C0.113918 16.55 0 16.7883 0 17.0472C0 17.5857 0.414268 18 0.952796 18Z" fill="black"/>
</svg>
