<svg width="68" height="68" viewBox="0 0 68 68" fill="none" xmlns="http://www.w3.org/2000/svg">
<rect width="68" height="68" rx="34" fill="#EDFAF4"/>
<g clip-path="url(#clip0_1287_32911)">
<path d="M49.2489 49.819V21.9036C49.2489 18.0393 47.3536 16.1255 43.5444 16.1255H24.0019C20.1927 16.1255 18.2974 18.0393 18.2974 21.9036V49.819C18.2974 53.6834 20.1927 55.5971 24.0019 55.5971H43.5444C47.3536 55.5971 49.2489 53.6834 49.2489 49.819Z" fill="#00CB82"/>
<path d="M28.087 22.4923H39.4593C41.7042 22.4923 43.3236 20.8545 43.3236 18.5359V16.6037C43.3236 14.2667 41.7042 12.6289 39.4593 12.6289C39.0729 12.6289 38.7232 12.6289 38.3183 12.6289L39.7721 13.641C39.2936 10.8624 36.6622 8.875 33.7731 8.875C30.8841 8.875 28.2526 10.8624 27.7742 13.641L29.2279 12.6289C28.8231 12.6289 28.4734 12.6289 28.087 12.6289C25.842 12.6289 24.2227 14.2667 24.2227 16.6037V18.5359C24.2227 20.8545 25.842 22.4923 28.087 22.4923Z" fill="white"/>
<path d="M28.0873 20.3573H39.4596C40.5268 20.3573 41.1709 19.6765 41.1709 18.5356V16.6034C41.1709 15.4625 40.5268 14.7816 39.4596 14.7816H37.7666C37.6378 12.7022 35.908 11.0093 33.7735 11.0093C31.6389 11.0093 29.9091 12.7022 29.7803 14.7816H28.0873C27.02 14.7816 26.376 15.4625 26.376 16.6034V18.5356C26.376 19.6765 27.02 20.3573 28.0873 20.3573ZM33.7735 16.5298C32.8902 16.5298 32.1725 15.7937 32.1725 14.9288C32.1725 14.0271 32.8902 13.3095 33.7735 13.3095C34.6568 13.3095 35.3744 14.0271 35.3744 14.9288C35.3744 15.7937 34.6568 16.5298 33.7735 16.5298Z" fill="#00CB82"/>
<path d="M25.7688 45.5121C24.8855 45.5121 24.1494 44.7761 24.1494 43.8929C24.1494 43.028 24.8855 42.2734 25.7688 42.2734C26.652 42.2734 27.3881 43.0096 27.3881 43.8929C27.3881 44.7945 26.652 45.5121 25.7688 45.5121ZM30.8476 45.0889C30.1852 45.0889 29.6331 44.5368 29.6331 43.8929C29.6331 43.2487 30.1668 42.7152 30.8476 42.7152H42.2199C42.8823 42.7152 43.3976 43.2487 43.3976 43.8929C43.3976 44.5368 42.8639 45.0889 42.2199 45.0889H30.8476Z" fill="white"/>
<path d="M25.7688 38.4098C24.8671 38.4098 24.1494 37.6736 24.1494 36.7904C24.1494 35.9071 24.8671 35.1895 25.7688 35.1895C26.652 35.1895 27.3881 35.8887 27.3881 36.7904C27.3881 37.6736 26.652 38.4098 25.7688 38.4098ZM30.8476 37.9866C30.1668 37.9866 29.6331 37.4529 29.6331 36.7904C29.6331 36.128 30.1668 35.6126 30.8476 35.6126H42.2199C42.8823 35.6126 43.3976 36.128 43.3976 36.7904C43.3976 37.4529 42.8823 37.9866 42.2199 37.9866H30.8476Z" fill="white"/>
<path d="M25.7688 31.6931C24.8855 31.6931 24.1494 30.9388 24.1494 30.0739C24.1494 29.1906 24.8855 28.4546 25.7688 28.4546C26.652 28.4546 27.3881 29.1722 27.3881 30.0739C27.3881 30.9571 26.652 31.6931 25.7688 31.6931ZM30.8476 31.2516C30.1852 31.2516 29.6331 30.718 29.6331 30.0739C29.6331 29.4297 30.1852 28.8594 30.8476 28.8594H42.2199C42.8639 28.8594 43.3976 29.4297 43.3976 30.0739C43.3976 30.718 42.8639 31.2516 42.2199 31.2516H30.8476Z" fill="white"/>
</g>
<defs>
<clipPath id="clip0_1287_32911">
<rect width="30.9516" height="50.9911" fill="white" transform="translate(18.2969 8.87598)"/>
</clipPath>
</defs>
</svg>
