<svg width="24" height="26" viewBox="0 0 24 26" fill="none" xmlns="http://www.w3.org/2000/svg">
<g clip-path="url(#clip0_695_9347)">
<path fill-rule="evenodd" clip-rule="evenodd" d="M9.53501 16.8289C6.63312 17.2117 4.62088 18.2302 4.62088 19.4586C4.62088 21.0456 7.89544 22.271 12.1142 22.271C16.3128 22.271 19.6075 21.0255 19.6075 19.4586C19.6075 18.2365 17.5775 17.2124 14.6737 16.8284C14.6883 16.5661 14.6956 16.291 14.6956 16.0032V15.207C18.8744 15.6752 21.6465 17.2953 21.6465 19.4586C21.6465 22.0501 17.699 23.8581 12.1242 23.8581C6.53941 23.8581 2.57178 22.0501 2.57178 19.4586C2.57178 17.3012 5.34265 15.6841 9.51263 15.2109V16.0032C9.51263 16.2912 9.52012 16.5664 9.53501 16.8289Z" fill="white"/>
<path fill-rule="evenodd" clip-rule="evenodd" d="M11.1801 9.24192C9.54276 8.83007 8.3374 7.35352 8.3374 5.58566C8.3374 3.50642 10.0149 1.79883 12.1142 1.79883C14.2035 1.79883 15.8809 3.50642 15.8809 5.58566C15.8809 7.35352 14.6756 8.84009 13.0383 9.24192V15.6002C13.0383 18.5734 12.516 20.1805 12.1142 20.1805C11.7023 20.1805 11.1801 18.5634 11.1801 15.6002V9.24192ZM10.4628 5.65402C10.636 5.74486 10.8292 5.7966 11.0294 5.7966C11.7425 5.7966 12.3251 5.19392 12.3251 4.4908C12.3251 4.23089 12.2432 3.98511 12.1032 3.77941C11.9727 3.58771 11.7917 3.43081 11.5796 3.32974C11.4124 3.25007 11.2259 3.20508 11.0294 3.20508C10.3463 3.20508 9.74365 3.79771 9.74365 4.49079C9.74365 4.75447 9.82841 5.00401 9.97037 5.21295C10.096 5.39793 10.2666 5.55108 10.4628 5.65402Z" fill="white"/>
</g>
<defs>
<clipPath id="clip0_695_9347">
<rect width="19.0748" height="25.3828" fill="white" transform="translate(2.57129 0.142578)"/>
</clipPath>
</defs>
</svg>
