<svg width="24" height="26" viewBox="0 0 24 26" fill="none" xmlns="http://www.w3.org/2000/svg">
<g clip-path="url(#clip0_935_16116)">
<path fill-rule="evenodd" clip-rule="evenodd" d="M9.5347 16.8289C6.63281 17.2117 4.62058 18.2302 4.62058 19.4586C4.62058 21.0456 7.89513 22.271 12.1139 22.271C16.3125 22.271 19.6072 21.0255 19.6072 19.4586C19.6072 18.2365 17.5772 17.2124 14.6734 16.8284C14.688 16.5661 14.6953 16.291 14.6953 16.0032V15.207C18.8741 15.6752 21.6462 17.2953 21.6462 19.4586C21.6462 22.0501 17.6987 23.8581 12.1239 23.8581C6.53911 23.8581 2.57147 22.0501 2.57147 19.4586C2.57147 17.3012 5.34235 15.6841 9.51232 15.2109V16.0032C9.51232 16.2912 9.51981 16.5664 9.5347 16.8289Z" fill="white"/>
<path fill-rule="evenodd" clip-rule="evenodd" d="M11.1798 9.24192C9.54245 8.83007 8.3371 7.35352 8.3371 5.58566C8.3371 3.50642 10.0146 1.79883 12.1139 1.79883C14.2032 1.79883 15.8806 3.50642 15.8806 5.58566C15.8806 7.35352 14.6753 8.84009 13.038 9.24192V15.6002C13.038 18.5734 12.5157 20.1805 12.1139 20.1805C11.702 20.1805 11.1798 18.5634 11.1798 15.6002V9.24192ZM10.4625 5.65402C10.6357 5.74486 10.8289 5.7966 11.0291 5.7966C11.7422 5.7966 12.3248 5.19392 12.3248 4.4908C12.3248 4.23089 12.2429 3.98511 12.1029 3.77941C11.9724 3.58771 11.7914 3.43081 11.5793 3.32974C11.4121 3.25007 11.2255 3.20508 11.0291 3.20508C10.346 3.20508 9.74335 3.79771 9.74335 4.49079C9.74335 4.75447 9.8281 5.00401 9.97006 5.21295C10.0957 5.39793 10.2663 5.55108 10.4625 5.65402Z" fill="white"/>
</g>
<defs>
<clipPath id="clip0_935_16116">
<rect width="19.0748" height="25.3828" fill="white" transform="translate(2.57141 0.142578)"/>
</clipPath>
</defs>
</svg>
