<svg width="28" height="28" viewBox="0 0 28 28" fill="none" xmlns="http://www.w3.org/2000/svg">
<g clip-path="url(#clip0_242_591)">
<path d="M8.63867 25.1856H19.3614C21.084 25.1856 21.9981 24.2481 21.9981 22.3965V14.3223C21.9981 12.4824 21.084 11.5449 19.3614 11.5449H8.63867C6.91602 11.5449 6.00195 12.4824 6.00195 14.3223V22.3965C6.00195 24.2481 6.91602 25.1856 8.63867 25.1856ZM8.69726 23.416C8.19336 23.416 7.90039 23.0996 7.90039 22.5254V14.1934C7.90039 13.6192 8.19336 13.3145 8.69726 13.3145H19.3028C19.8184 13.3145 20.0997 13.6192 20.0997 14.1934V22.5254C20.0997 23.0996 19.8184 23.416 19.3028 23.416H8.69726ZM8.05273 12.4473H9.91601V8.49805C9.91601 5.5332 11.8027 3.97461 13.9941 3.97461C16.1856 3.97461 18.0958 5.5332 18.0958 8.49805V12.4473H19.9473V8.74414C19.9473 4.33789 17.0645 2.20508 13.9941 2.20508C10.9355 2.20508 8.05273 4.33789 8.05273 8.74414V12.4473Z" fill="#494949"/>
<path d="M13.9941 19.5489C14.416 19.5489 14.6504 19.291 14.6621 18.8692L14.7793 15.1192C14.791 14.6856 14.4512 14.3574 13.9941 14.3574C13.5254 14.3574 13.1973 14.6739 13.209 15.1074L13.3262 18.8692C13.3379 19.291 13.5723 19.5489 13.9941 19.5489ZM13.9941 22.127C14.5098 22.127 14.9316 21.7168 14.9316 21.2246C14.9316 20.709 14.5098 20.3106 13.9941 20.3106C13.4902 20.3106 13.0801 20.7207 13.0801 21.2246C13.0801 21.7168 13.502 22.127 13.9941 22.127Z" fill="#494949"/>
</g>
<defs>
<clipPath id="clip0_242_591">
<rect width="15.9961" height="23.5898" fill="white" transform="translate(6.00195 2.20508)"/>
</clipPath>
</defs>
</svg>
