<svg width="162" height="163" viewBox="0 0 162 163" fill="none" xmlns="http://www.w3.org/2000/svg">
<path d="M49.4498 18.1113C48.1718 18.1113 46.9262 18.5613 46.046 19.4397C45.164 20.3145 44.714 21.5691 44.714 22.8435V141.017C44.714 142.292 45.164 143.537 46.046 144.419C46.9262 145.301 48.1718 145.751 49.4498 145.751H112.666C113.94 145.751 115.197 145.301 116.068 144.419C116.952 143.537 117.4 142.292 117.4 141.017V22.8435C117.4 21.5691 116.95 20.3145 116.068 19.4397C115.197 18.5595 113.94 18.1113 112.666 18.1113H102.906C102.138 18.1113 101.454 18.5703 101.164 19.2813L99.7094 22.8435C99.2396 24.0081 98.867 24.5787 98.273 24.9639C97.6934 25.3581 96.662 25.6857 94.637 25.6857H67.475C65.4518 25.6857 64.4204 25.3563 63.839 24.9639C63.2486 24.5805 62.8724 24.0099 62.4044 22.8435L60.9518 19.2813C60.6674 18.5775 59.9834 18.1113 59.2256 18.1113H49.4498Z" fill="#00CB82"/>
<path d="M49.1649 14.0712H112.946C117.55 14.0712 121.185 17.7252 121.185 22.3206V141.542C121.185 146.135 117.549 149.793 112.946 149.793H49.1649C44.5641 149.793 40.9245 146.135 40.9245 141.542V22.3206C40.9263 17.727 44.5641 14.0712 49.1649 14.0712ZM49.1649 10.3398C42.5589 10.3398 37.1841 15.7146 37.1841 22.3206V141.542C37.1841 148.151 42.5589 153.523 49.1649 153.523H112.946C119.556 153.523 124.936 148.151 124.936 141.542V22.3206C124.936 15.7146 119.556 10.3398 112.946 10.3398H49.1649Z" fill="#16161B"/>
<path d="M75.0235 18.1113C73.9813 18.1113 73.1497 18.9429 73.1497 19.9851C73.1497 21.0255 73.9813 21.8607 75.0235 21.8607H88.0357C89.0671 21.8607 89.9113 21.0255 89.9113 19.9851C89.9113 18.9429 89.0671 18.1113 88.0357 18.1113H75.0235Z" fill="#A7A7A7"/>
<path d="M69.5909 82.5763L69.6591 80.7013L68.0739 81.707L67.6648 80.9911L69.3352 80.1218L67.6648 79.2525L68.0739 78.5366L69.6591 79.5423L69.5909 77.6673H70.4091L70.3409 79.5423L71.9261 78.5366L72.3352 79.2525L70.6648 80.1218L72.3352 80.9911L71.9261 81.707L70.3409 80.7013L70.4091 82.5763H69.5909ZM76.7909 82.5763L76.8591 80.7013L75.2739 81.707L74.8648 80.9911L76.5352 80.1218L74.8648 79.2525L75.2739 78.5366L76.8591 79.5423L76.7909 77.6673H77.6091L77.5409 79.5423L79.1261 78.5366L79.5352 79.2525L77.8648 80.1218L79.5352 80.9911L79.1261 81.707L77.5409 80.7013L77.6091 82.5763H76.7909ZM83.9909 82.5763L84.0591 80.7013L82.4739 81.707L82.0648 80.9911L83.7352 80.1218L82.0648 79.2525L82.4739 78.5366L84.0591 79.5423L83.9909 77.6673H84.8091L84.7409 79.5423L86.3261 78.5366L86.7352 79.2525L85.0648 80.1218L86.7352 80.9911L86.3261 81.707L84.7409 80.7013L84.8091 82.5763H83.9909ZM91.1909 82.5763L91.2591 80.7013L89.6739 81.707L89.2648 80.9911L90.9352 80.1218L89.2648 79.2525L89.6739 78.5366L91.2591 79.5423L91.1909 77.6673H92.0091L91.9409 79.5423L93.5261 78.5366L93.9352 79.2525L92.2648 80.1218L93.9352 80.9911L93.5261 81.707L91.9409 80.7013L92.0091 82.5763H91.1909Z" fill="white"/>
</svg>
