<svg width="29" height="29" viewBox="0 0 29 29" fill="none" xmlns="http://www.w3.org/2000/svg">
<g clip-path="url(#clip0_977_380)">
<path d="M6.99073 24.7159H21.2055C23.6665 24.7159 24.8852 23.4971 24.8852 21.083V6.77441C24.8852 4.36035 23.6665 3.1416 21.2055 3.1416H6.99073C4.54151 3.1416 3.31104 4.34863 3.31104 6.77441V21.083C3.31104 23.5088 4.54151 24.7159 6.99073 24.7159ZM7.01416 22.8291C5.84229 22.8291 5.19776 22.208 5.19776 20.9893V6.86816C5.19776 5.64941 5.84229 5.02832 7.01416 5.02832H21.1821C22.3422 5.02832 22.9985 5.64941 22.9985 6.86816V20.9893C22.9985 22.208 22.3422 22.8291 21.1821 22.8291H7.01416ZM6.04151 23.5205H22.1782C21.4868 20.2276 18.1821 17.837 14.1157 17.837C10.0376 17.837 6.73292 20.2276 6.04151 23.5205ZM14.104 15.8799C16.3422 15.9034 18.1118 13.9932 18.1118 11.4854C18.1118 9.12988 16.3422 7.18457 14.104 7.18457C11.8657 7.18457 10.0845 9.12988 10.0962 11.4854C10.1079 13.9932 11.8657 15.8565 14.104 15.8799Z" fill="#00CB82"/>
</g>
<defs>
<clipPath id="clip0_977_380">
<rect width="21.5742" height="21.5977" fill="white" transform="translate(3.31104 3.11816)"/>
</clipPath>
</defs>
</svg>
