<svg width="29" height="29" viewBox="0 0 29 29" fill="none" xmlns="http://www.w3.org/2000/svg">
<g clip-path="url(#clip0_977_969)">
<path d="M14.0273 26.0244C20.5664 26.0244 25.9804 20.5987 25.9804 14.0713C25.9804 7.53222 20.5547 2.11816 14.0156 2.11816C7.48828 2.11816 2.07422 7.53222 2.07422 14.0713C2.07422 20.5987 7.5 26.0244 14.0273 26.0244Z" fill="#00CB82"/>
<path d="M11.918 20.8565C11.4141 20.8565 11.0273 20.4932 11.0273 19.9893C11.0273 19.5205 11.4141 19.1338 11.918 19.1338H13.4062V13.626H12.1172C11.625 13.626 11.2383 13.2627 11.2383 12.7588C11.2383 12.2901 11.625 11.9033 12.1172 11.9033H14.3906C15.0117 11.9033 15.3398 12.3487 15.3398 13.0049V19.1338H16.8281C17.332 19.1338 17.7187 19.5205 17.7187 19.9893C17.7187 20.4932 17.332 20.8565 16.8281 20.8565H11.918ZM13.9219 9.91113C13.043 9.91113 12.3398 9.208 12.3398 8.31738C12.3398 7.42675 13.043 6.72363 13.9219 6.72363C14.8008 6.72363 15.4922 7.42675 15.4922 8.31738C15.4922 9.208 14.8008 9.91113 13.9219 9.91113Z" fill="white"/>
</g>
<defs>
<clipPath id="clip0_977_969">
<rect width="23.9062" height="23.918" fill="white" transform="translate(2.07422 2.11816)"/>
</clipPath>
</defs>
</svg>
