<svg width="32" height="32" viewBox="0 0 32 32" fill="none" xmlns="http://www.w3.org/2000/svg">
<g clip-path="url(#clip0_977_1131)">
<path d="M16.0004 31.9842C24.7491 31.9842 31.9925 24.7251 31.9925 15.9921C31.9925 7.2435 24.7334 0 15.9848 0C7.2518 0 0.00830078 7.2435 0.00830078 15.9921C0.00830078 24.7251 7.26748 31.9842 16.0004 31.9842Z" fill="#00CB82"/>
<path d="M8.34961 16.0076C8.34961 15.1924 8.91403 14.628 9.72931 14.628H14.6367V9.72058C14.6367 8.9053 15.1855 8.3252 15.9851 8.3252C16.8004 8.3252 17.3648 8.9053 17.3648 9.72058V14.628H22.2878C23.0875 14.628 23.6676 15.1924 23.6676 16.0076C23.6676 16.8073 23.0875 17.3403 22.2878 17.3403H17.3648V22.2634C17.3648 23.0787 16.8004 23.6432 15.9851 23.6432C15.1855 23.6432 14.6367 23.0631 14.6367 22.2634V17.3403H9.72931C8.91403 17.3403 8.34961 16.8073 8.34961 16.0076Z" fill="white"/>
</g>
<defs>
<clipPath id="clip0_977_1131">
<rect width="31.9842" height="32" fill="white" transform="translate(0.00830078)"/>
</clipPath>
</defs>
</svg>
