<svg width="29" height="29" viewBox="0 0 29 29" fill="none" xmlns="http://www.w3.org/2000/svg">
<g clip-path="url(#clip0_977_532)">
<path d="M17.0781 23.8438H11.0312V16.0977C11.0312 15.5586 11.3945 15.2071 11.9336 15.2071H16.1875C16.7265 15.2071 17.0781 15.5586 17.0781 16.0977V23.8438ZM3.73047 23.1407C3.73047 24.7696 4.71484 25.7305 6.36719 25.7305H21.7773C23.4297 25.7305 24.4023 24.7696 24.4023 23.1407V13.8594L14.7695 5.78515C14.3242 5.41015 13.7969 5.42187 13.3633 5.78515L3.73047 13.8594V23.1407ZM0.0742188 12.6875C0.0742188 13.168 0.449219 13.625 1.08203 13.625C1.41016 13.625 1.67969 13.4493 1.92578 13.25L13.6562 3.40625C13.914 3.17187 14.2304 3.17187 14.4883 3.40625L26.2187 13.25C26.4531 13.4493 26.7226 13.625 27.0508 13.625C27.6015 13.625 28.0469 13.2852 28.0469 12.7227C28.0469 12.3711 27.9297 12.1368 27.6836 11.9258L15.4844 1.67187C14.6172 0.933594 13.539 0.933594 12.6601 1.67187L0.449219 11.9258C0.191407 12.1368 0.0742188 12.418 0.0742188 12.6875ZM21.4609 7.40234L24.4023 9.88671V4.47265C24.4023 3.95703 24.0742 3.6289 23.5586 3.6289H22.3047C21.8008 3.6289 21.4609 3.95703 21.4609 4.47265V7.40234Z" fill="#00CB82"/>
</g>
<defs>
<clipPath id="clip0_977_532">
<rect width="27.9727" height="26.5957" fill="white" transform="translate(0.0742188 1.11816)"/>
</clipPath>
</defs>
</svg>
