<svg width="29" height="29" viewBox="0 0 29 29" fill="none" xmlns="http://www.w3.org/2000/svg">
<g clip-path="url(#clip0_977_1245)">
<path d="M14.2641 26.0127C17.0766 26.0127 19.7954 25.0049 21.9633 23.1651L13.5258 14.8916C13.2915 14.6807 13.2446 14.4815 13.2446 14.1651V2.15332C7.1626 2.68066 2.31104 7.87207 2.31104 14.0596C2.31104 20.5987 7.73682 26.0127 14.2641 26.0127ZM26.2172 14.0596C26.2172 12.3018 25.7837 10.4619 25.0454 8.96191L15.4712 14.4698L23.1235 22.0284C25.0454 19.9307 26.2172 17.0479 26.2172 14.0596ZM14.8149 13.0284L24.2719 7.59082C22.2329 4.3916 18.5415 2.27051 14.8149 2.11816V13.0284Z" fill="#00CB82"/>
</g>
<defs>
<clipPath id="clip0_977_1245">
<rect width="23.9062" height="23.8945" fill="white" transform="translate(2.31104 2.11816)"/>
</clipPath>
</defs>
</svg>
