<svg width="32" height="32" viewBox="0 0 32 32" fill="none" xmlns="http://www.w3.org/2000/svg">
<path d="M16 31.9922C24.753 31.9922 32 24.7295 32 15.9922C32 7.23926 24.7373 -0.0078125 15.9843 -0.0078125C7.24707 -0.0078125 0 7.23926 0 15.9922C0 24.7295 7.26276 31.9922 16 31.9922ZM16 29.3256C8.5961 29.3256 2.68236 23.3962 2.68236 15.9922C2.68236 8.58829 8.58041 2.65886 15.9843 2.65886C23.3883 2.65886 29.3334 8.58829 29.3334 15.9922C29.3334 23.3962 23.404 29.3256 16 29.3256Z" fill="#A7A7A7"/>
<path d="M8.72119 15.9923C8.72119 16.7609 9.25453 17.2787 10.0545 17.2787H14.6663V21.9061C14.6663 22.6904 15.1997 23.2395 15.9683 23.2395C16.7526 23.2395 17.3016 22.7062 17.3016 21.9061V17.2787H21.9291C22.7134 17.2787 23.2624 16.7609 23.2624 15.9923C23.2624 15.2081 22.7134 14.659 21.9291 14.659H17.3016V10.0473C17.3016 9.24725 16.7526 8.69824 15.9683 8.69824C15.1997 8.69824 14.6663 9.24725 14.6663 10.0473V14.659H10.0545C9.25453 14.659 8.72119 15.2081 8.72119 15.9923Z" fill="#A7A7A7"/>
</svg>
