<svg width="29" height="29" viewBox="0 0 29 29" fill="none" xmlns="http://www.w3.org/2000/svg">
<g clip-path="url(#clip0_977_823)">
<path d="M14.0273 26.0244C20.5664 26.0244 25.9804 20.5987 25.9804 14.0713C25.9804 7.53222 20.5547 2.11816 14.0156 2.11816C7.48828 2.11816 2.07422 7.53222 2.07422 14.0713C2.07422 20.5987 7.5 26.0244 14.0273 26.0244ZM14.0273 24.0323C8.4961 24.0323 4.07813 19.6026 4.07813 14.0713C4.07813 8.54004 8.48438 4.11035 14.0156 4.11035C19.5469 4.11035 23.9883 8.54004 23.9883 14.0713C23.9883 19.6026 19.5586 24.0323 14.0273 24.0323Z" fill="#A7A7A7"/>
<path d="M11.9766 20.6338H16.7461C17.2265 20.6338 17.6015 20.2823 17.6015 19.8018C17.6015 19.3448 17.2265 18.9815 16.7461 18.9815H15.293V13.0166C15.293 12.3838 14.9765 11.9619 14.3789 11.9619H12.1758C11.6953 11.9619 11.3203 12.3252 11.3203 12.7823C11.3203 13.2627 11.6953 13.6143 12.1758 13.6143H13.4297V18.9815H11.9766C11.4961 18.9815 11.1211 19.3448 11.1211 19.8018C11.1211 20.2823 11.4961 20.6338 11.9766 20.6338ZM13.9219 10.0166C14.7773 10.0166 15.4453 9.33692 15.4453 8.48145C15.4453 7.62598 14.7773 6.94629 13.9219 6.94629C13.0781 6.94629 12.3984 7.62598 12.3984 8.48145C12.3984 9.33692 13.0781 10.0166 13.9219 10.0166Z" fill="#A7A7A7"/>
</g>
<defs>
<clipPath id="clip0_977_823">
<rect width="23.9062" height="23.918" fill="white" transform="translate(2.07422 2.11816)"/>
</clipPath>
</defs>
</svg>
