<svg width="29" height="29" viewBox="0 0 29 29" fill="none" xmlns="http://www.w3.org/2000/svg">
<g clip-path="url(#clip0_977_369)">
<path d="M10.6797 24.5235H17.4414V15.9922C17.4414 15.4532 17.0898 15.1016 16.5508 15.1016H11.582C11.0312 15.1016 10.6797 15.4532 10.6797 15.9922V24.5235ZM6.09766 25.7305H21.9531C23.6172 25.7305 24.5898 24.7813 24.5898 23.1407V10.1914L22.7031 8.90234V22.6602C22.7031 23.4219 22.293 23.8438 21.5547 23.8438H6.4961C5.7461 23.8438 5.33594 23.4219 5.33594 22.6602V8.91406L3.44922 10.1914V23.1407C3.44922 24.7813 4.42188 25.7305 6.09766 25.7305ZM0.0742188 12.6875C0.0742188 13.168 0.449219 13.625 1.08203 13.625C1.41016 13.625 1.67969 13.4493 1.92578 13.25L13.6562 3.40625C13.914 3.17187 14.2304 3.17187 14.4883 3.40625L26.2187 13.25C26.4531 13.4493 26.7226 13.625 27.0508 13.625C27.6015 13.625 28.0469 13.2852 28.0469 12.7227C28.0469 12.3711 27.9297 12.1368 27.6836 11.9258L15.4844 1.67187C14.6172 0.933594 13.539 0.933594 12.6601 1.67187L0.449219 11.9258C0.191407 12.1368 0.0742188 12.418 0.0742188 12.6875ZM21.6484 7.40234L24.5898 9.88671V4.47265C24.5898 3.95703 24.2617 3.6289 23.7461 3.6289H22.4922C21.9883 3.6289 21.6484 3.95703 21.6484 4.47265V7.40234Z" fill="#A7A7A7"/>
</g>
<defs>
<clipPath id="clip0_977_369">
<rect width="27.9727" height="26.5957" fill="white" transform="translate(0.0742188 1.11816)"/>
</clipPath>
</defs>
</svg>
