<svg width="29" height="29" viewBox="0 0 29 29" fill="none" xmlns="http://www.w3.org/2000/svg">
<g clip-path="url(#clip0_977_13)">
<path d="M21.3305 22.1924L22.5141 21.0909L15.8344 14.4932L23.8501 9.88769L23.0649 8.52832L15.1782 13.0518V3.65332H13.6079V14.2354C13.6079 14.4932 13.6665 14.7041 13.8891 14.9151L21.3305 22.1924ZM14.2641 26.0244C20.8032 26.0244 26.2172 20.5987 26.2172 14.0713C26.2172 7.53222 20.7915 2.11816 14.2524 2.11816C7.72509 2.11816 2.31104 7.53222 2.31104 14.0713C2.31104 20.5987 7.73682 26.0244 14.2641 26.0244ZM14.2641 24.0323C8.73292 24.0323 4.31495 19.6026 4.31495 14.0713C4.31495 8.54004 8.72119 4.11035 14.2524 4.11035C19.7837 4.11035 24.2251 8.54004 24.2251 14.0713C24.2251 19.6026 19.7954 24.0323 14.2641 24.0323Z" fill="#A7A7A7"/>
</g>
<defs>
<clipPath id="clip0_977_13">
<rect width="23.9062" height="23.918" fill="white" transform="translate(2.31104 2.11816)"/>
</clipPath>
</defs>
</svg>
