<svg width="68" height="50" viewBox="0 0 68 50" fill="none" xmlns="http://www.w3.org/2000/svg">
<rect x="0.89209" y="0.557617" width="66.2158" height="48.8849" rx="8" fill="#F6F6F6"/>
<path fill-rule="evenodd" clip-rule="evenodd" d="M27.7512 36.3536H40.2492V13.6447H27.7512V36.3536Z" fill="#FF5F00"/>
<path fill-rule="evenodd" clip-rule="evenodd" d="M28.5448 25.0001C28.5448 20.3935 30.6781 16.2895 34 13.6456C31.4856 11.6407 28.3756 10.5527 25.1736 10.5576C17.2855 10.5576 10.8921 17.0242 10.8921 25.0001C10.8921 32.9766 17.2855 39.4425 25.1736 39.4425C28.5055 39.4425 31.5706 38.289 34 36.3545C30.6781 33.7099 28.5448 29.6067 28.5448 25.0001Z" fill="#EB001B"/>
<path fill-rule="evenodd" clip-rule="evenodd" d="M57.1079 25.0001C57.1079 32.9766 50.7138 39.4425 42.8264 39.4425C39.6243 39.4475 36.5143 38.3595 34 36.3545C37.3219 33.7106 39.4552 29.6074 39.4552 25.0001C39.4552 20.3935 37.3219 16.2902 34 13.6456C36.5143 11.6406 39.6243 10.5526 42.8264 10.5576C50.7138 10.5576 57.1079 17.0235 57.1079 25.0001Z" fill="#F79E1B"/>
</svg>
