<svg width="67" height="50" viewBox="0 0 67 50" fill="none" xmlns="http://www.w3.org/2000/svg">
<rect x="0.39209" y="0.557617" width="66.2158" height="48.8849" rx="8" fill="#F6F6F6"/>
<path fill-rule="evenodd" clip-rule="evenodd" d="M27.2511 36.3535H39.7491V13.6445H27.2511V36.3535Z" fill="#FF5F00"/>
<path fill-rule="evenodd" clip-rule="evenodd" d="M28.0448 25.0001C28.0448 20.3935 30.1781 16.2895 33.5 13.6456C30.9856 11.6407 27.8756 10.5527 24.6736 10.5576C16.7855 10.5576 10.3921 17.0242 10.3921 25.0001C10.3921 32.9766 16.7855 39.4425 24.6736 39.4425C28.0055 39.4425 31.0706 38.289 33.5 36.3545C30.1781 33.7099 28.0448 29.6067 28.0448 25.0001Z" fill="#EB001B"/>
<path fill-rule="evenodd" clip-rule="evenodd" d="M56.6079 25.0001C56.6079 32.9766 50.2138 39.4425 42.3264 39.4425C39.1243 39.4475 36.0143 38.3595 33.5 36.3545C36.8219 33.7106 38.9552 29.6074 38.9552 25.0001C38.9552 20.3935 36.8219 16.2902 33.5 13.6456C36.0143 11.6406 39.1243 10.5526 42.3264 10.5576C50.2138 10.5576 56.6079 17.0235 56.6079 25.0001Z" fill="#F79E1B"/>
</svg>
