<svg width="64" height="64" viewBox="0 0 64 64" fill="none" xmlns="http://www.w3.org/2000/svg">
<g clip-path="url(#clip0_695_9087)">
<path d="M50.7055 16.1794C49.8705 15.1926 48.9535 14.2674 47.9809 13.43C43.5411 9.60596 37.8658 7.5 32.0002 7.5C25.4556 7.5 19.3034 10.0485 14.6762 14.6761C10.0486 19.3036 7.5 25.4561 7.5 32.0002C7.5 37.8657 9.60599 43.5409 13.4297 47.9806C14.2683 48.9536 15.1935 49.8706 16.1796 50.7052C20.5928 54.4422 26.2114 56.5 32.0002 56.5C38.5444 56.5 44.697 53.9515 49.3242 49.3239C53.9514 44.6964 56.5 38.5443 56.5 32.0002C56.5 26.2119 54.4422 20.5934 50.7055 16.1794ZM32.0002 54.9987C26.5662 54.9987 21.2922 53.0671 17.1497 49.5595C16.2232 48.7756 15.3544 47.9149 14.5672 47.0012C10.9779 42.8337 9.0013 37.5064 9.0013 32.0002C9.0013 19.3187 19.3185 9.00128 32.0002 9.00128C37.5065 9.00128 42.8339 10.9782 47.0014 14.5679C47.9148 15.3543 48.7755 16.2227 49.5598 17.1495C53.0675 21.2928 54.9991 26.5671 54.9991 32.0006C54.9991 44.6821 44.6819 54.9991 32.0002 54.9991V54.9987Z" fill="#44C352"/>
<path d="M45.7752 16.4329C45.7662 16.2227 45.6695 16.0263 45.5086 15.8907C43.6239 14.3053 41.5048 13.0776 39.2102 12.241C36.9083 11.402 34.4826 10.9766 32.0005 10.9766C26.3848 10.9766 21.1052 13.1634 17.1341 17.1348C13.1634 21.1054 10.9766 26.385 10.9766 32.001C10.9766 34.483 11.402 36.909 12.2406 39.2106C13.0768 41.5056 14.3046 43.6246 15.89 45.5088C16.0255 45.6697 16.2219 45.7665 16.4322 45.7759C16.4428 45.7759 16.4539 45.7763 16.4645 45.7763C16.6629 45.7763 16.854 45.6975 16.9953 45.5566L45.556 16.996C45.7046 16.8474 45.7842 16.6428 45.7752 16.4329ZM25.5352 27.244L32.5366 22.0571C32.5411 22.0539 32.5452 22.0506 32.5497 22.0473C32.9478 21.7391 33.412 21.5762 33.8922 21.5762C35.2669 21.5762 35.6131 23.0717 35.6613 24.3268C35.6613 24.3329 35.6617 24.339 35.6621 24.3452L35.6634 24.7657L25.5352 34.8933V27.244ZM24.0535 36.3754L24.0441 36.3848H17.9094C16.8756 36.3848 16.0345 35.5437 16.0345 34.5095V29.4917C16.0345 28.4579 16.8756 27.6164 17.9094 27.6164H24.0339V36.2072C24.0339 36.2648 24.0412 36.3211 24.0535 36.375V36.3754ZM37.0761 23.3526C36.9593 22.5854 36.7323 21.9383 36.3967 21.4218C35.8242 20.5407 34.9578 20.0753 33.8922 20.0753C33.0788 20.0753 32.299 20.3452 31.6367 20.8559L24.5365 26.1159H17.909C16.0476 26.1159 14.5328 27.6303 14.5328 29.4925V34.5103C14.5328 36.3721 16.0476 37.8869 17.909 37.8869H22.5424L16.5237 43.9055C13.8738 40.482 12.4775 36.384 12.4775 32.0018C12.4775 26.7867 14.5079 21.8844 18.1952 18.1972C21.883 14.5095 26.7854 12.4787 32.0001 12.4787C36.382 12.4787 40.48 13.8746 43.904 16.5256L37.0761 23.3534V23.3526Z" fill="#44C352"/>
<path d="M51.7958 24.8872C50.9833 22.6212 49.789 20.5234 48.246 18.6522C48.1117 18.4889 47.9141 18.3901 47.703 18.3799C47.4911 18.3689 47.2857 18.4493 47.1363 18.5988L35.8853 29.8504C35.8853 29.8504 35.8841 29.8516 35.8833 29.852L18.6001 47.1349C18.4507 47.2847 18.371 47.4905 18.3812 47.7016C18.3915 47.9131 18.4903 48.1103 18.6536 48.2446C20.5244 49.7871 22.6218 50.981 24.8878 51.7939C27.1612 52.6092 29.5543 53.0228 32.0004 53.0228C37.6152 53.0228 42.8949 50.836 46.8668 46.8646C50.8375 42.894 53.0243 37.6148 53.0243 31.9992C53.0243 29.5523 52.6111 27.1593 51.7958 24.8864V24.8872ZM35.6673 39.9625C35.6799 41.0204 35.664 41.6356 35.1941 41.9835C34.8054 42.2718 34.355 42.4241 33.892 42.4241C33.429 42.4241 32.979 42.2718 32.5899 41.9835L28.7324 39.1259L35.6636 32.1948V39.5395C35.6636 39.682 35.6652 39.8232 35.6669 39.9625H35.6673ZM45.8053 45.8035C42.1167 49.4911 37.2143 51.522 32.0004 51.522C27.6912 51.522 23.6491 50.1693 20.2578 47.6003L27.6594 40.1989L31.6962 43.1896C32.3458 43.671 33.1048 43.9253 33.892 43.9253C34.6792 43.9253 35.4386 43.671 36.0874 43.19C37.1967 42.3685 37.1812 41.0808 37.1682 39.9449C37.1665 39.8114 37.1649 39.6763 37.1649 39.5395V30.6935L39.4167 28.4414C41.1887 30.6184 41.0927 33.8194 39.1325 35.8914C39.0912 35.9184 39.0508 35.9506 39.0145 35.9866C38.7062 36.2952 38.7103 36.8011 39.0251 37.1155C39.3395 37.4307 39.8454 37.4352 40.154 37.1269C42.8382 34.4375 42.968 30.1533 40.5468 27.3116L41.7051 26.1533C44.7286 29.596 44.6294 34.8389 41.4124 38.1713C41.3703 38.1991 41.3307 38.2305 41.294 38.2673C40.9853 38.5755 40.9898 39.081 41.3046 39.3962C41.619 39.711 42.1253 39.7159 42.4335 39.4068C46.3765 35.4595 46.5104 29.1273 42.8345 25.0244L43.9887 23.8702C48.2681 28.5733 48.1668 35.862 43.6919 40.4536C43.6507 40.4822 43.6103 40.5137 43.5735 40.55C43.2648 40.8591 43.2701 41.3641 43.5849 41.6793C43.8993 41.9941 44.4052 41.9982 44.7131 41.6899C49.9148 36.4839 50.0483 28.1058 45.1152 22.7441L47.6022 20.2572C50.1708 23.6485 51.5238 27.6905 51.5238 32C51.5238 37.2147 49.4934 42.117 45.8061 45.8039L45.8053 45.8035Z" fill="#44C352"/>
</g>
<defs>
<clipPath id="clip0_695_9087">
<rect width="49" height="49" fill="white" transform="translate(7.5 7.5)"/>
</clipPath>
</defs>
</svg>
