<svg width="29" height="28" viewBox="0 0 29 28" fill="none" xmlns="http://www.w3.org/2000/svg">
<g clip-path="url(#clip0_40_1135)">
<path d="M2.92261 20.0352H24.8601C25.3523 20.0352 25.7507 19.6367 25.7507 19.1328C25.7507 18.6406 25.3523 18.2539 24.8601 18.2539H2.92261C2.43042 18.2539 2.0437 18.6406 2.0437 19.1328C2.0437 19.6367 2.43042 20.0352 2.92261 20.0352Z" fill="black" fill-opacity="0.85"/>
<path d="M2.92261 14.9141H24.8601C25.3523 14.9141 25.7507 14.5273 25.7507 14.0352C25.7507 13.5313 25.3523 13.1328 24.8601 13.1328H2.92261C2.43042 13.1328 2.0437 13.5313 2.0437 14.0352C2.0437 14.5273 2.43042 14.9141 2.92261 14.9141Z" fill="black" fill-opacity="0.85"/>
<path d="M2.92261 9.80469H24.8601C25.3523 9.80469 25.7507 9.41797 25.7507 8.92578C25.7507 8.43359 25.3523 8.03516 24.8601 8.03516H2.92261C2.43042 8.03516 2.0437 8.43359 2.0437 8.92578C2.0437 9.41797 2.43042 9.80469 2.92261 9.80469Z" fill="black" fill-opacity="0.85"/>
</g>
<defs>
<clipPath id="clip0_40_1135">
<rect width="23.707" height="12.0352" fill="white" transform="translate(2.0437 8)"/>
</clipPath>
</defs>
</svg>
