<svg width="29" height="28" viewBox="0 0 29 28" fill="none" xmlns="http://www.w3.org/2000/svg">
<g clip-path="url(#clip0_40_1128)">
<path d="M3.0437 20.2266C3.0437 21.082 3.69995 21.6445 4.81323 21.6445H9.75854C9.85229 23.9062 11.6218 25.8867 14.0945 25.8867C16.5789 25.8867 18.3484 23.918 18.4421 21.6445H23.3875C24.489 21.6445 25.157 21.082 25.157 20.2266C25.157 19.0547 23.9617 18 22.9539 16.957C22.1804 16.1484 21.9695 14.4844 21.8757 13.1367C21.7937 8.51953 20.5984 5.54297 17.4812 4.41797C17.0828 2.88281 15.8289 1.67578 14.0945 1.67578C12.3718 1.67578 11.1062 2.88281 10.7195 4.41797C7.60229 5.54297 6.40698 8.51953 6.32495 13.1367C6.2312 14.4844 6.02026 16.1484 5.24682 16.957C4.22729 18 3.0437 19.0547 3.0437 20.2266ZM5.31714 19.875V19.7344C5.52808 19.3945 6.2312 18.7031 6.84058 18.0234C7.68432 17.0859 8.08276 15.5742 8.18823 13.2891C8.28198 8.16797 9.80542 6.53906 11.8093 5.98828C12.1023 5.91797 12.2664 5.77734 12.2781 5.47266C12.3132 4.25391 13.0164 3.39844 14.0945 3.39844C15.1843 3.39844 15.8757 4.25391 15.9226 5.47266C15.9343 5.77734 16.0867 5.91797 16.3796 5.98828C18.3953 6.53906 19.9187 8.16797 20.0125 13.2891C20.1179 15.5742 20.5164 17.0859 21.3484 18.0234C21.9695 18.7031 22.6609 19.3945 22.8718 19.7344V19.875H5.31714ZM11.5867 21.6445H16.614C16.5203 23.2383 15.5125 24.2344 14.0945 24.2344C12.6882 24.2344 11.6687 23.2383 11.5867 21.6445Z" fill="black" fill-opacity="0.85"/>
<path d="M19.8718 11.3203C22.9656 11.3203 25.532 8.76562 25.532 5.66016C25.532 2.54297 22.9656 0 19.8718 0C16.7546 0 14.2117 2.54297 14.2117 5.66016C14.2117 8.76562 16.7546 11.3203 19.8718 11.3203Z" fill="white"/>
<path d="M19.8718 9.71484C22.0867 9.71484 23.9382 7.88672 23.9382 5.66016C23.9382 3.42188 22.0867 1.59375 19.8718 1.59375C17.6335 1.59375 15.8054 3.42188 15.8054 5.66016C15.8054 7.88672 17.6335 9.71484 19.8718 9.71484Z" fill="#FF4E4A"/>
</g>
<defs>
<clipPath id="clip0_40_1128">
<rect width="22.4883" height="27.5742" fill="white" transform="translate(3.0437)"/>
</clipPath>
</defs>
</svg>
