<svg width="24" height="25" viewBox="0 0 24 25" fill="none" xmlns="http://www.w3.org/2000/svg">
<g clip-path="url(#clip0_396_5534)">
<path d="M14.2903 23.6329C15.0134 23.6329 15.5258 23.0101 15.8974 22.0458L22.4767 4.85944C22.6574 4.39739 22.7579 3.98556 22.7579 3.64404C22.7579 2.99113 22.3561 2.58936 21.7032 2.58936C21.3617 2.58936 20.9498 2.6898 20.4878 2.8706L3.211 9.49002C2.36726 9.81145 1.71436 10.3237 1.71436 11.057C1.71436 11.9811 2.41748 12.2925 3.38176 12.5837L10.634 14.7132L12.7434 21.8751C13.0448 22.8896 13.3561 23.6329 14.2903 23.6329ZM11.086 13.1865L4.15521 11.067C3.99449 11.0168 3.94426 10.9766 3.94426 10.9063C3.94426 10.836 3.98445 10.7858 4.13512 10.7255L17.7155 5.58265C18.5191 5.28132 19.2925 4.87953 20.0358 4.53801C19.3729 5.08042 18.5492 5.72328 17.9967 6.27574L11.086 13.1865ZM14.451 21.423C14.3706 21.423 14.3305 21.3527 14.2802 21.192L12.1608 14.2613L19.0715 7.35051C19.6139 6.8081 20.2869 5.96436 20.8193 5.28132C20.4777 6.0447 20.066 6.81815 19.7646 7.63176L14.6217 21.2121C14.5615 21.3628 14.5213 21.423 14.451 21.423Z" fill="#3190FF"/>
</g>
<defs>
<clipPath id="clip0_396_5534">
<rect width="21.0435" height="22.2087" fill="white" transform="translate(1.71436 1.42432)"/>
</clipPath>
</defs>
</svg>
