<svg width="40" height="41" viewBox="0 0 40 41" fill="none" xmlns="http://www.w3.org/2000/svg">
<path d="M40 20.5C40 31.5457 31.0457 40.5 20 40.5C10.7338 40.5 2.93945 34.1985 0.668526 25.647H8.18141C8.86566 27.216 9.85319 28.6223 11.0699 29.792C11.547 28.993 11.7893 28.0451 11.6979 27.0518C11.1265 26.8686 10.7129 26.333 10.7129 25.7008C10.7129 24.9175 11.3479 24.2825 12.1313 24.2825C12.9146 24.2825 13.5496 24.9175 13.5496 25.7008C13.5496 26.3027 13.1748 26.8169 12.6459 27.023C12.7484 28.2673 12.4171 29.4504 11.7865 30.4315C13.2876 31.6743 15.0751 32.5833 17.0354 33.0448C18.4459 32.0003 19.392 30.342 19.4469 28.4269L19.4875 27.0086C18.9768 26.794 18.6183 26.2891 18.6183 25.7005C18.6183 24.9172 19.2533 24.2822 20.0366 24.2822C20.82 24.2822 21.455 24.9172 21.455 25.7005C21.455 26.3467 21.0229 26.8919 20.4319 27.0631L20.392 28.4539C20.3372 30.3688 19.5134 32.0621 18.2384 33.2681C18.8144 33.3468 19.4024 33.3875 20 33.3875C21.4768 33.3875 22.8955 33.1391 24.2167 32.6818C25.9556 31.3699 27.0008 29.2847 26.9667 27.0611C26.3797 26.8874 25.9514 26.3441 25.9514 25.7008C25.9514 24.9175 26.5864 24.2825 27.3698 24.2825C28.1531 24.2825 28.7881 24.9175 28.7881 25.7008C28.7881 26.2923 28.4261 26.7992 27.9116 27.012C27.9448 28.6822 27.442 30.2852 26.5296 31.6132C29.6695 29.7644 31.957 26.6229 32.6605 22.9203H24.1642V27.2984C24.708 27.4969 25.0962 28.0187 25.0962 28.6312C25.0962 29.4145 24.4612 30.0495 23.6779 30.0495C22.8945 30.0495 22.2595 29.4145 22.2595 28.6312C22.2595 28.0086 22.6607 27.4797 23.2186 27.2889V22.9203H16.7501V26.9503C17.2939 27.1488 17.6821 27.6706 17.6821 28.2831C17.6821 29.0664 17.0471 29.7015 16.2638 29.7015C15.4804 29.7015 14.8454 29.0664 14.8454 28.2831C14.8454 27.6605 15.2466 27.1316 15.8045 26.9408L15.8045 22.9203H7.33946L7.33988 22.9225H0.145229C0.0493456 22.1284 0 21.32 0 20.5C0 9.4543 8.9543 0.5 20 0.5C29.5173 0.5 37.4819 7.14767 39.5038 16.053H32.0996C31.3936 14.1326 30.2434 12.4267 28.7735 11.06C28.0484 11.9476 27.6463 13.1038 27.757 14.3306C28.3277 14.5141 28.7406 15.0494 28.7406 15.6811C28.7406 16.4644 28.1056 17.0994 27.3223 17.0994C26.539 17.0994 25.9039 16.4644 25.9039 15.6811C25.9039 15.0787 26.2794 14.5641 26.809 14.3584C26.6902 12.8872 27.1817 11.5031 28.0577 10.4416C26.7628 9.40287 25.2629 8.60905 23.6285 8.13038C21.5083 9.35653 20.1235 11.699 20.2501 14.3044C20.8689 14.457 21.3278 15.0157 21.3278 15.6816C21.3278 16.4649 20.6928 17.0999 19.9094 17.0999C19.1261 17.0999 18.4911 16.4649 18.4911 15.6816C18.4911 15.1132 18.8253 14.623 19.308 14.3967C19.1624 11.7426 20.3936 9.32317 22.3723 7.83043C21.6034 7.68735 20.8104 7.61254 20 7.61254C18.5384 7.61254 17.1337 7.85585 15.824 8.30417C13.7365 9.56455 12.4493 11.8583 12.4871 14.322C13.0741 14.4957 13.5023 15.039 13.5023 15.6822C13.5023 16.4655 12.8673 17.1006 12.0839 17.1006C11.3006 17.1006 10.6656 16.4655 10.6656 15.6822C10.6656 15.0907 11.0276 14.5838 11.5422 14.371C11.5083 12.6678 12.0319 11.0344 12.9789 9.69125C9.90323 11.6932 7.73517 14.9724 7.22677 18.7766H15.7774L15.7774 14.1904C15.2337 13.9918 14.8455 13.4701 14.8455 12.8576C14.8455 12.0743 15.4805 11.4393 16.2639 11.4393C17.0472 11.4393 17.6822 12.0743 17.6822 12.8576C17.6822 13.4803 17.281 14.0092 16.723 14.2V18.7766H23.1914V13.9668C22.6476 13.7683 22.2594 13.2465 22.2594 12.634C22.2594 11.8507 22.8944 11.2157 23.6777 11.2157C24.4611 11.2157 25.0961 11.8507 25.0961 12.634C25.0961 13.2566 24.6949 13.7855 24.137 13.9763V18.7766H25.3564V18.7775H39.9269C39.9753 19.3452 40 19.9197 40 20.5Z" fill="#16161B"/>
<circle cx="27.345" cy="15.7131" r="0.677966" fill="#00C2FF"/>
<circle cx="0.762712" cy="0.762712" r="0.762712" transform="matrix(1 0 0 -1 26.5576 26.5059)" fill="#00C2FF"/>
<circle cx="23.6914" cy="12.6279" r="0.762712" fill="#00C2FF"/>
<circle cx="0.762712" cy="0.762712" r="0.762712" transform="matrix(1 0 0 -1 22.8408 29.3477)" fill="#00C2FF"/>
<circle cx="19.8887" cy="15.6885" r="0.762712" fill="#00C2FF"/>
<circle cx="0.762712" cy="0.762712" r="0.762712" transform="matrix(1 0 0 -1 19.2354 26.5059)" fill="#00C2FF"/>
<circle cx="12.0195" cy="15.6885" r="0.762712" fill="#00C2FF"/>
<circle cx="0.762712" cy="0.762712" r="0.762712" transform="matrix(1 0 0 -1 11.3662 26.5059)" fill="#00C2FF"/>
<circle cx="16.2813" cy="12.8467" r="0.762712" fill="#00C2FF"/>
<circle cx="0.762712" cy="0.762712" r="0.762712" transform="matrix(1 0 0 -1 15.5195 29.0195)" fill="#00C2FF"/>
</svg>
