<svg width="186" height="66" viewBox="0 0 186 66" fill="none" xmlns="http://www.w3.org/2000/svg">
<circle cx="33.0254" cy="32.6709" r="32.6436" fill="#16161B"/>
<path d="M24.1026 31.296C16.3176 39.081 1.60889 53.7393 1.60889 53.7393L12.1995 64.33L34.6933 41.8867L34.6933 60.2892L49.0434 60.2891L49.0434 16.5645L5.31869 16.5645L5.31868 31.296L24.1026 31.296Z" fill="#00E794"/>
<path d="M88.6087 2.5947C91.0209 2.5947 93.027 3.35775 94.6269 4.88383C96.2268 6.40991 97.0268 8.31752 97.0268 10.6066C97.0268 12.9204 96.2268 14.828 94.6269 16.3295C93.027 17.8063 91.0209 18.5447 88.6087 18.5447H80.523V27.332H76.9416V2.5947H88.6087ZM80.523 15.1111H88.498C89.9502 15.1111 91.1317 14.6926 92.0424 13.8557C92.9532 13.0188 93.4085 11.9358 93.4085 10.6066C93.4085 9.30209 92.9408 8.23137 92.0055 7.39448C91.0948 6.53298 89.9256 6.10223 88.498 6.10223H80.523V15.1111ZM101.712 27.2951V2.5947H111.644C115.188 2.5947 118.117 3.76388 120.431 6.10223C122.745 8.41597 123.902 11.3451 123.902 14.8895V15.0003C123.902 18.5447 122.745 21.4861 120.431 23.8245C118.117 26.1382 115.188 27.2951 111.644 27.2951H101.712ZM111.607 6.10223H105.293V23.7876H111.607C114.142 23.7876 116.222 22.9753 117.847 21.3508C119.471 19.7016 120.284 17.5848 120.284 15.0003V14.8895C120.284 12.305 119.471 10.2005 117.847 8.57597C116.222 6.92681 114.142 6.10223 111.607 6.10223ZM140.602 2.5947C143.014 2.5947 145.02 3.35775 146.62 4.88383C148.22 6.40991 149.02 8.31752 149.02 10.6066C149.02 12.9204 148.22 14.828 146.62 16.3295C145.02 17.8063 143.014 18.5447 140.602 18.5447H132.516V27.332H128.934V2.5947H140.602ZM132.516 15.1111H140.491C141.943 15.1111 143.125 14.6926 144.035 13.8557C144.946 13.0188 145.401 11.9358 145.401 10.6066C145.401 9.30209 144.934 8.23137 143.998 7.39448C143.088 6.53298 141.918 6.10223 140.491 6.10223H132.516V15.1111Z" fill="#16161B"/>
<path d="M76.1688 59.9707V34.0828H81.6555V59.9707H76.1688ZM97.0569 40.1877C99.4268 40.1877 101.294 40.9476 102.66 42.4674C104.025 43.9872 104.707 46.1123 104.707 48.8428V59.9707H99.4912V49.6155C99.4912 48.2761 99.1177 47.2199 98.3706 46.4472C97.6236 45.6744 96.6834 45.288 95.55 45.288C94.3393 45.288 93.309 45.7259 92.4589 46.6017C91.6089 47.4518 91.1838 48.5852 91.1838 50.0019V59.9707H85.9676V40.7287H91.0293V43.047H91.2225C92.5877 41.1408 94.5325 40.1877 97.0569 40.1877ZM116.598 53.7112L121.853 40.7287H127.185L118.955 59.9707H113.739L105.509 40.7287H111.111L116.598 53.7112ZM137.154 40.1491C140.348 40.1491 142.873 41.2825 144.727 43.5493C146.582 45.8161 147.329 48.6625 146.968 52.0884H132.44C132.595 53.1188 133.084 53.9946 133.909 54.7158C134.759 55.4113 135.828 55.7848 137.116 55.8364C138.017 55.8879 138.854 55.7333 139.627 55.3727C140.426 54.9863 140.992 54.484 141.327 53.8658H146.775C146.157 55.978 144.972 57.6266 143.22 58.8115C141.469 59.9707 139.434 60.5503 137.116 60.5503C133.999 60.5503 131.552 59.5714 129.774 57.6137C127.997 55.6303 127.108 53.2089 127.108 50.3497C127.108 47.4647 128.048 45.0433 129.929 43.0856C131.835 41.1279 134.243 40.1491 137.154 40.1491ZM140.013 45.6744C139.215 45.1077 138.249 44.8243 137.116 44.8243C135.982 44.8243 134.99 45.1206 134.14 45.713C133.316 46.2797 132.762 47.0525 132.479 48.0314H141.675C141.392 47.0268 140.838 46.2411 140.013 45.6744ZM154.989 40.7287H165.576V45.7517H155.143C154.602 45.7517 154.332 46.0221 154.332 46.5631C154.332 47.0268 154.551 47.2972 154.989 47.3745L162.214 48.8428C163.682 49.1519 164.842 49.783 165.692 50.7361C166.542 51.6892 166.967 52.8354 166.967 54.1749C166.967 55.8492 166.361 57.2402 165.151 58.3479C163.966 59.4298 162.485 59.9707 160.707 59.9707H149.579V54.909H160.63C161.197 54.909 161.48 54.6257 161.48 54.059C161.48 53.6211 161.261 53.3377 160.823 53.2089L153.482 51.6248C152.091 51.3414 150.957 50.7232 150.082 49.7701C149.206 48.817 148.768 47.6965 148.768 46.4085C148.768 44.76 149.36 43.4076 150.545 42.3515C151.73 41.2696 153.211 40.7287 154.989 40.7287ZM183.543 40.7287V45.7517H175.622V53.4408C175.622 53.9044 175.763 54.2651 176.047 54.5227C176.33 54.7802 176.704 54.909 177.167 54.909H183.543V59.9707H176.201C174.424 59.9707 173.007 59.4684 171.951 58.4638C170.921 57.4334 170.405 56.0553 170.405 54.3295V45.7517H167.701V40.7287H170.405V34.0828H175.622V40.7287H183.543Z" fill="#00CB82"/>
</svg>
