<svg width="19" height="18" viewBox="0 0 19 18" fill="none" xmlns="http://www.w3.org/2000/svg">
<g clip-path="url(#clip0_935_24491)">
<path d="M2.79199 5.91351H4.00488V4.33901C4.00488 3.55552 4.41922 3.15625 5.17257 3.15625H6.73201V1.94336H5.15751C3.58301 1.94336 2.79199 2.71931 2.79199 4.27874V5.91351ZM7.76409 3.15625H11.689V1.94336H7.76409V3.15625ZM15.4482 5.91351H16.6611V4.27874C16.6611 2.72684 15.8701 1.94336 14.2956 1.94336H12.7211V3.15625H14.2806C15.0263 3.15625 15.4482 3.55552 15.4482 4.33901V5.91351ZM15.4482 10.8103H16.6611V6.94559H15.4482V10.8103ZM12.7211 15.8125H14.2956C15.8701 15.8125 16.6611 15.029 16.6611 13.4771V11.8424H15.4482V13.4169C15.4482 14.2003 15.0263 14.5996 14.2806 14.5996H12.7211V15.8125ZM7.76409 15.8125H11.689V14.5996H7.76409V15.8125ZM5.15751 15.8125H6.73201V14.5996H5.17257C4.41922 14.5996 4.00488 14.2003 4.00488 13.4169V11.8424H2.79199V13.4771C2.79199 15.0365 3.58301 15.8125 5.15751 15.8125ZM2.79199 10.8103H4.00488V6.94559H2.79199V10.8103Z" fill="#A7A7A7"/>
</g>
<defs>
<clipPath id="clip0_935_24491">
<rect width="13.8691" height="13.8842" fill="white" transform="translate(2.79199 1.92773)"/>
</clipPath>
</defs>
</svg>
