<svg width="18" height="18" viewBox="0 0 18 18" fill="none" xmlns="http://www.w3.org/2000/svg">
<g clip-path="url(#clip0_935_24485)">
<path d="M1.92871 5.91351H3.1416V4.33901C3.1416 3.55552 3.55594 3.15625 4.30929 3.15625H5.86872V1.94336H4.29423C2.71973 1.94336 1.92871 2.71931 1.92871 4.27874V5.91351ZM6.90081 3.15625H10.8257V1.94336H6.90081V3.15625ZM14.585 5.91351H15.7978V4.27874C15.7978 2.72684 15.0069 1.94336 13.4323 1.94336H11.8578V3.15625H13.4173C14.1631 3.15625 14.585 3.55552 14.585 4.33901V5.91351ZM14.585 10.8103H15.7978V6.94559H14.585V10.8103ZM11.8578 15.8125H13.4323C15.0069 15.8125 15.7978 15.029 15.7978 13.4771V11.8424H14.585V13.4169C14.585 14.2003 14.1631 14.5996 13.4173 14.5996H11.8578V15.8125ZM6.90081 15.8125H10.8257V14.5996H6.90081V15.8125ZM4.29423 15.8125H5.86872V14.5996H4.30929C3.55594 14.5996 3.1416 14.2003 3.1416 13.4169V11.8424H1.92871V13.4771C1.92871 15.0365 2.71973 15.8125 4.29423 15.8125ZM1.92871 10.8103H3.1416V6.94559H1.92871V10.8103Z" fill="#44C352"/>
<path d="M4.88951 13.5586H12.8524C13.3195 13.5586 13.5606 13.31 13.5606 12.8278V4.90262C13.5606 4.42048 13.3195 4.17188 12.8524 4.17188H4.88951C4.4149 4.17188 4.17383 4.42048 4.17383 4.90262V12.8278C4.17383 13.31 4.4149 13.5586 4.88951 13.5586Z" fill="#44C352"/>
</g>
<defs>
<clipPath id="clip0_935_24485">
<rect width="13.8691" height="13.8842" fill="white" transform="translate(1.92871 1.92773)"/>
</clipPath>
</defs>
</svg>
