<svg width="49" height="50" viewBox="0 0 49 50" fill="none" xmlns="http://www.w3.org/2000/svg">
<rect y="0.5" width="49" height="49" rx="8" fill="#EDFAF4"/>
<g clip-path="url(#clip0_996_7069)">
<path d="M13.2969 35.7168H35.6914C36.2071 35.7168 36.6406 35.2832 36.6406 34.7676C36.6406 34.252 36.2071 33.8301 35.6914 33.8301H13.2969C12.7812 33.8301 12.3594 34.252 12.3594 34.7676C12.3594 35.2832 12.7812 35.7168 13.2969 35.7168Z" fill="#00BA77"/>
<path d="M18.1014 30.9475L21.992 29.342C22.285 29.2248 22.4256 29.1194 22.6014 28.9436L33.8162 17.8108C34.9178 16.7209 34.9061 15.4436 33.7928 14.3186L31.3319 11.8342C30.2069 10.7209 28.9295 10.6975 27.828 11.7873L16.6014 22.9202C16.4256 23.0842 16.3201 23.2131 16.203 23.5061L14.5623 27.3967C14.3162 27.9827 14.3748 28.5686 14.8201 29.0139L16.4842 30.6897C16.9178 31.1233 17.5037 31.2053 18.1014 30.9475ZM17.9256 29.1311C17.6912 29.2131 17.5155 29.2131 17.3045 29.0022L16.5076 28.2053C16.2967 27.9944 16.2967 27.8069 16.3905 27.5959L17.8436 24.1858L29.0115 13.0998C29.3514 12.7834 29.7498 12.76 30.0662 13.0764L32.5389 15.5725C32.8553 15.9006 32.8319 16.299 32.5037 16.6272L21.3358 27.7131L17.9256 29.1311ZM13.5311 31.5334H14.949C15.2772 31.5334 15.4178 31.4748 15.6756 31.2639L16.7772 30.4202L15.0897 28.6975L13.1912 30.7014C12.8397 31.0647 13.0155 31.5334 13.5311 31.5334ZM16.7772 24.1858L21.5701 29.0022L22.6717 27.9123L17.8787 23.0842L16.7772 24.1858ZM26.5037 14.5412L31.2967 19.3576L32.3983 18.2795L27.6053 13.4514L26.5037 14.5412Z" fill="#00BA77"/>
</g>
<defs>
<clipPath id="clip0_996_7069">
<rect width="24.2812" height="28.0317" fill="white" transform="translate(12.3594 10.9844)"/>
</clipPath>
</defs>
</svg>
