<svg width="28" height="29" viewBox="0 0 28 29" fill="none" xmlns="http://www.w3.org/2000/svg">
<g id="u:question-circle">
<path id="Vector" d="M13.1717 18.4757C13.1215 18.5311 13.0748 18.5896 13.0317 18.6507C12.9876 18.7157 12.9522 18.7864 12.9267 18.8607C12.8931 18.9268 12.8695 18.9976 12.8567 19.0707C12.851 19.1484 12.851 19.2264 12.8567 19.304C12.8528 19.4571 12.8847 19.6089 12.95 19.7474C13.0024 19.8921 13.086 20.0236 13.1949 20.1325C13.3038 20.2414 13.4353 20.325 13.58 20.3774C13.7197 20.4391 13.8707 20.471 14.0234 20.471C14.1761 20.471 14.3271 20.4391 14.4667 20.3774C14.6115 20.325 14.743 20.2414 14.8518 20.1325C14.9607 20.0236 15.0443 19.8921 15.0967 19.7474C15.1485 19.6055 15.1723 19.455 15.1667 19.304C15.1676 19.1505 15.1382 18.9983 15.0801 18.8561C15.0221 18.714 14.9365 18.5847 14.8284 18.4757C14.7199 18.3664 14.5909 18.2796 14.4487 18.2203C14.3066 18.1611 14.1541 18.1306 14 18.1306C13.846 18.1306 13.6935 18.1611 13.5514 18.2203C13.4092 18.2796 13.2802 18.3664 13.1717 18.4757ZM14 2.9707C11.6926 2.9707 9.43697 3.65494 7.51839 4.93689C5.59982 6.21884 4.10447 8.04093 3.22145 10.1727C2.33843 12.3045 2.10739 14.6503 2.55755 16.9134C3.00771 19.1765 4.11885 21.2553 5.75047 22.8869C7.38208 24.5186 9.46088 25.6297 11.724 26.0799C13.9871 26.53 16.3329 26.299 18.4647 25.416C20.5965 24.5329 22.4186 23.0376 23.7005 21.119C24.9825 19.2005 25.6667 16.9448 25.6667 14.6374C25.6667 13.1053 25.3649 11.5882 24.7786 10.1727C24.1923 8.75726 23.333 7.47114 22.2496 6.38779C21.1663 5.30444 19.8802 4.44508 18.4647 3.85878C17.0492 3.27247 15.5321 2.9707 14 2.9707ZM14 23.9707C12.1541 23.9707 10.3496 23.4233 8.81472 22.3978C7.27986 21.3722 6.08359 19.9145 5.37717 18.2091C4.67075 16.5036 4.48592 14.627 4.84605 12.8165C5.20618 11.006 6.09509 9.343 7.40038 8.03771C8.70567 6.73242 10.3687 5.8435 12.1792 5.48337C13.9897 5.12325 15.8663 5.30808 17.5718 6.01449C19.2772 6.72091 20.7349 7.91719 21.7604 9.45205C22.786 10.9869 23.3334 12.7914 23.3334 14.6374C23.3334 17.1127 22.35 19.4867 20.5997 21.237C18.8494 22.9874 16.4754 23.9707 14 23.9707ZM14 8.80404C13.3853 8.80364 12.7813 8.96518 12.2488 9.27239C11.7163 9.5796 11.2741 10.0216 10.9667 10.554C10.8823 10.6868 10.8256 10.8353 10.8001 10.9906C10.7745 11.1458 10.7807 11.3047 10.8181 11.4575C10.8555 11.6103 10.9235 11.754 11.0179 11.8799C11.1123 12.0058 11.2312 12.1112 11.3674 12.19C11.5037 12.2687 11.6544 12.3191 11.8106 12.3381C11.9668 12.3571 12.1252 12.3442 12.2763 12.3004C12.4275 12.2566 12.5681 12.1826 12.6899 12.083C12.8117 11.9834 12.9121 11.8601 12.985 11.7207C13.0878 11.5427 13.2358 11.3949 13.4141 11.2925C13.5923 11.1901 13.7945 11.1366 14 11.1374C14.3095 11.1374 14.6062 11.2603 14.825 11.4791C15.0438 11.6979 15.1667 11.9946 15.1667 12.304C15.1667 12.6135 15.0438 12.9102 14.825 13.129C14.6062 13.3478 14.3095 13.4707 14 13.4707C13.6906 13.4707 13.3939 13.5936 13.1751 13.8124C12.9563 14.0312 12.8334 14.328 12.8334 14.6374V15.804C12.8334 16.1135 12.9563 16.4102 13.1751 16.629C13.3939 16.8478 13.6906 16.9707 14 16.9707C14.3095 16.9707 14.6062 16.8478 14.825 16.629C15.0438 16.4102 15.1667 16.1135 15.1667 15.804V15.594C15.9383 15.3141 16.587 14.7718 16.9993 14.062C17.4116 13.3523 17.5613 12.5202 17.4223 11.7112C17.2833 10.9023 16.8644 10.1679 16.2389 9.63647C15.6133 9.10505 14.8208 8.8104 14 8.80404Z" fill="#FFC538"/>
</g>
</svg>
