<svg width="65" height="64" viewBox="0 0 65 64" fill="none" xmlns="http://www.w3.org/2000/svg">
<rect x="0.240234" width="64" height="64" rx="32" fill="white"/>
<path fill-rule="evenodd" clip-rule="evenodd" d="M17.6917 57.336C18.9288 54.836 20.415 56.7088 21.6349 55.9528C20.4923 57.714 19.2123 56.8807 17.6917 57.336ZM34.4782 52.8344C36.6087 55.0422 34.1174 55.8841 34.4438 57.4305C33.0435 55.6006 34.3923 54.5783 34.4782 52.8344ZM36.6602 61.2877C36.918 58.6504 34.7789 59.4235 34.1689 58.195C34.2033 60.1881 35.6637 60.1538 36.6602 61.2877ZM36.4025 52.9804C36.3166 54.5955 35.0709 55.5405 36.3682 57.2329C36.0675 55.7982 38.3698 55.0164 36.4025 52.9804ZM39.1172 60.5403C37.9059 59.6469 36.4884 59.9819 36.0331 58.0404C36.8922 59.1057 38.8165 57.9115 39.1172 60.5403ZM42.1498 7.60377C42.923 6.81342 43.2494 7.70687 43.8078 7.578C43.1635 8.10204 42.7769 7.62096 42.1498 7.60377ZM43.2236 6.65019C43.4212 7.87868 44.2975 7.26873 44.727 7.74982C44.4693 6.84778 43.8164 7.04537 43.2236 6.65019ZM43.3439 8.48003C44.1772 8.50581 44.6755 9.13293 45.526 8.44567C44.7957 8.61749 44.3662 7.44055 43.3439 8.48003ZM45.2768 7.3031C45.8352 7.82714 46.574 7.74982 46.6857 8.75494C46.3163 8.16217 45.2682 8.65185 45.2768 7.3031ZM44.9504 9.36489C46.3679 8.3254 46.6599 9.81161 47.562 9.74288C46.4108 10.3958 45.9383 9.55388 44.9504 9.36489ZM47.0637 7.97318C46.6514 9.41644 47.9228 9.21025 48.1376 9.95765C48.318 8.84085 47.5019 8.71199 47.0637 7.97318ZM46.5998 10.6363C47.708 10.9456 48.1719 11.9507 49.5465 11.315C48.507 11.2978 48.3266 9.57966 46.5998 10.6363ZM48.7647 8.85803C49.2114 9.76866 50.165 10.0092 49.8385 11.3064C49.6581 10.4044 48.129 10.5246 48.7647 8.85803ZM48.275 12.3459C50.0447 11.2635 50.2337 13.0332 51.3076 13.0503C49.8901 13.7032 49.4176 12.6638 48.275 12.3459ZM50.6031 10.1552C49.7441 11.8047 51.3419 11.8648 51.4192 12.827C51.9175 11.5212 50.9639 11.1604 50.6031 10.1552ZM49.6066 14.1242C50.8351 14.4678 51.3505 15.5846 52.8711 14.8802C51.7113 14.863 51.5138 12.9558 49.6066 14.1242ZM52.39 11.7188C52.6391 12.784 53.5841 13.2651 52.9226 14.5623C52.9484 13.5658 51.3162 13.3253 52.39 11.7188ZM54.0738 13.3252C52.7508 14.7256 54.3229 15.241 54.1339 16.2118C51.677 12.6895 48.3953 9.78584 44.5638 7.79277C49.263 10.3271 53.103 14.2616 55.5514 19.0381C54.3745 18.7546 54.4003 16.7358 52.1667 17.6894C53.4467 18.2564 53.8333 19.545 55.5772 19.0725C55.938 19.7855 56.2645 20.5072 56.5652 21.2546C55.225 21.014 55.3023 18.7461 52.8453 19.7941C54.237 20.4127 54.6494 21.8216 56.5652 21.2717C57.1407 22.7236 57.596 24.2356 57.9139 25.8077C56.4792 25.5929 56.5136 23.1789 53.9364 24.3473C55.4226 24.9658 55.8951 26.452 57.9139 25.8077C58.0857 26.6582 58.2146 27.5173 58.3091 28.3935C57.0377 27.8695 57.3899 25.6273 54.7181 26.3317C56.0669 27.1736 56.2988 28.6856 58.3177 28.4451C58.4036 29.2956 58.4465 30.1546 58.4551 31.0223C57.3125 30.3522 57.785 28.2217 55.1133 28.6942C56.3676 29.6392 56.4878 31.1426 58.4551 31.1082V31.134C58.4551 32.0189 58.4122 32.8951 58.3263 33.7542C57.2954 32.9381 58.0256 30.902 55.3195 31.0309C56.4449 32.1305 56.3675 33.6253 58.3177 33.8487C58.2403 34.6562 58.1201 35.4466 57.9655 36.2283C56.9689 35.3435 57.8967 33.3418 55.1735 33.2473C56.2043 34.4415 56.0068 35.9363 57.9569 36.3057C57.7936 37.1304 57.596 37.9379 57.3555 38.7369C56.5394 37.7146 57.6734 35.9019 55.0188 35.438C55.8779 36.7524 55.4827 38.1956 57.3212 38.84C57.0806 39.6303 56.8057 40.4121 56.4964 41.1767C55.7061 40.0684 57.1493 38.3417 54.5119 37.5599C55.2164 38.9774 54.6408 40.3863 56.4706 41.2282C55.6975 43.1182 54.7095 44.9051 53.5412 46.5459C53.1288 45.1542 55.3195 44.1577 53.1718 42.3278C53.2405 43.9343 52.0979 44.9996 53.5412 46.5545C51.4708 49.4582 48.842 51.9238 45.8009 53.7794C46.1789 52.3877 48.5585 52.6797 47.6908 49.9908C46.9091 51.3997 45.3885 51.709 45.7923 53.7794C41.8405 56.1934 37.2101 57.5765 32.2618 57.5765C27.3134 57.5765 22.6572 56.1848 18.6969 53.7622C19.092 51.7004 17.5801 51.3911 16.7983 49.9908C15.9306 52.6626 18.2845 52.3877 18.6797 53.7536C15.6471 51.898 13.0184 49.4324 10.9566 46.5287C12.3655 44.9824 11.24 43.9257 11.3088 42.3192C9.16965 44.1405 11.3174 45.137 10.948 46.5115C9.7882 44.8793 8.80884 43.101 8.03566 41.211C9.83114 40.3691 9.26415 38.9688 9.96859 37.5513C7.35699 38.3245 8.74872 40.0255 8.00132 41.1337C7.69205 40.3777 7.42572 39.6045 7.18518 38.8228C8.99784 38.1785 8.61125 36.7438 9.46174 35.438C6.83295 35.8933 7.91539 37.6802 7.15081 38.7111C6.91886 37.9207 6.72127 37.1218 6.55804 36.3057C8.47379 35.9277 8.2848 34.4329 9.30711 33.2473C6.6096 33.3418 7.49445 35.3091 6.54087 36.2026C6.39483 35.4294 6.27456 34.639 6.19724 33.8401C8.11299 33.6082 8.04425 32.1134 9.16106 31.0223C6.48072 30.8935 7.16799 32.8865 6.18004 33.7198C6.09414 32.8693 6.05119 32.0017 6.05119 31.1254V31.0996C7.99271 31.1168 8.11299 29.6306 9.35865 28.6856C6.71269 28.2217 7.15081 30.3007 6.05119 30.988C6.05119 30.1289 6.10274 29.2698 6.18864 28.4279C8.17312 28.6513 8.41366 27.1565 9.75382 26.3146C7.10785 25.6101 7.42572 27.8179 6.18864 28.3592C6.27455 27.4915 6.41202 26.6324 6.57524 25.7905C8.56831 26.4091 9.0494 24.9314 10.527 24.3215C7.96696 23.1617 7.98413 25.5328 6.57524 25.7733C6.8931 24.2098 7.34842 22.6978 7.924 21.2546C9.82257 21.7872 10.2349 20.3869 11.618 19.7684C9.18684 18.7375 9.24697 20.9539 7.93258 21.2288C8.22466 20.49 8.55972 19.7684 8.91194 19.0553C10.6301 19.5106 11.0253 18.2306 12.2967 17.6636C10.0803 16.7186 10.0889 18.6859 8.94629 19.0038C9.35005 18.2048 9.7968 17.4317 10.2865 16.6843C11.9101 17.4317 12.4599 16.2461 13.7571 15.8767C11.7297 14.6396 11.5064 16.6585 10.2865 16.6843C11.5837 14.674 13.1472 12.8613 14.9169 11.2806C16.2914 11.9164 16.7553 10.9112 17.8635 10.602C16.1454 9.55389 15.965 11.272 14.9169 11.2806C16.4375 9.92329 18.1213 8.73776 19.9339 7.767C14.2125 10.748 9.71087 15.7479 7.36558 21.813C6.81577 20.7907 8.3707 19.6567 6.39481 18.5656C6.71267 19.8113 5.99105 20.825 7.36558 21.813C6.21441 24.794 5.5873 28.0327 5.5873 31.4175C5.5873 31.5549 5.5873 31.6838 5.5873 31.8127C4.62513 31.2113 5.32956 29.4674 3.09595 29.5705C4.01516 30.4639 3.92928 31.701 5.5873 31.8384C5.59589 32.4999 5.63025 33.1614 5.69039 33.8143C4.8399 33.2216 5.26084 31.5807 3.13032 31.8642C4.10108 32.6632 4.14402 33.8573 5.69896 33.9002C5.75051 34.5016 5.82783 35.0944 5.92233 35.6871C4.94298 35.2232 5.26083 33.4621 3.12172 33.9518C4.1698 34.6648 4.32445 35.8675 5.93093 35.7387C6.04261 36.4173 6.18005 37.096 6.34327 37.7575C5.27801 37.3709 5.60448 35.5153 3.431 36.0823C4.51344 36.7696 4.69384 37.9895 6.34327 37.7747C6.66972 39.1149 7.09928 40.4207 7.62332 41.6663C6.46356 41.4859 6.54088 39.5358 4.45331 40.4293C5.63025 40.9533 5.99107 42.1474 7.62332 41.6663C8.80026 44.4927 10.4583 47.0785 12.4857 49.3121C11.4205 49.7761 10.4153 48.1352 9.16966 50.0166C10.4411 49.8018 11.3947 50.6094 12.4857 49.3121C12.9067 49.7761 13.3362 50.2142 13.7829 50.6523C12.6919 51.1935 11.4978 49.5527 10.3208 51.6488C11.6524 51.3224 12.7263 52.0956 13.7915 50.6695C14.2468 51.1076 14.7279 51.5372 15.2176 51.9409C14.0235 52.4048 12.7262 50.7296 11.4462 53.0062C12.9152 52.654 14.1008 53.4873 15.2777 51.9839C18.4048 54.5611 22.1246 56.4425 26.1966 57.3875C25.2517 58.3497 23.4476 57.0095 22.9149 59.5954C24.195 58.8136 25.5781 59.2603 26.2052 57.3875C28.1382 57.8342 30.1656 58.0748 32.236 58.0748C34.3064 58.0748 36.308 57.8428 38.2409 57.3961C38.8681 59.2603 40.2426 58.8136 41.5226 59.5954C40.9986 57.0181 39.2031 58.3497 38.2495 57.3961C42.3302 56.4597 46.05 54.5783 49.1771 52.0011C50.3454 53.4787 51.5309 52.654 52.9914 53.0062C51.7113 50.7382 50.4313 52.3791 49.2372 51.9409C49.7269 51.5372 50.1994 51.1162 50.6547 50.6781C51.7199 52.087 52.7852 51.3224 54.1168 51.6403C52.9484 49.5613 51.7629 51.1678 50.6804 50.6523C51.1272 50.2228 51.5567 49.7761 51.9777 49.3207C53.0687 50.5922 54.0137 49.7932 55.2851 50.008C54.048 48.1352 53.0429 49.7503 51.9948 49.3121C54.0223 47.0785 55.6803 44.4927 56.8658 41.6663C58.4723 42.1302 58.8331 40.9447 60.0101 40.4207C57.9483 39.5358 57.9998 41.4344 56.8744 41.6491C57.1407 41.0048 57.3813 40.3605 57.6046 39.6904C59.2455 40.0856 59.5376 38.8743 60.6887 38.2987C58.5754 37.5084 58.73 39.4155 57.6046 39.6733C57.8108 39.0461 57.9912 38.4018 58.1544 37.7575C59.7781 37.9551 59.9585 36.7438 61.041 36.0565C58.9019 35.4981 59.1939 37.3022 58.1716 37.7146C58.3349 37.0531 58.4637 36.3916 58.5754 35.7129C60.1561 35.8246 60.3107 34.6305 61.3502 33.926C59.2369 33.4363 59.529 35.1545 58.584 35.6442C58.6785 35.06 58.7558 34.4672 58.8073 33.8745C60.3365 33.8143 60.3881 32.6288 61.3416 31.8384C59.2455 31.5549 59.6235 33.1528 58.8159 33.7628C58.8761 33.1185 58.9104 32.4656 58.919 31.8127C60.5427 31.6666 60.474 30.4381 61.3846 29.5533C59.1768 29.4502 59.8297 31.1512 58.9276 31.7697C58.9276 31.6409 58.9276 31.5206 58.9276 31.3917C58.9276 30.2406 58.8503 29.1066 58.7129 27.9898C60.3107 27.4743 59.9499 26.2974 60.6372 25.2063C58.4294 25.6187 59.529 27.1736 58.7129 27.9726C58.627 27.3025 58.5153 26.641 58.3778 25.9881C59.9156 25.2493 59.3744 24.1239 59.8984 22.947C57.7507 23.6858 59.108 25.0689 58.3778 25.9881C58.2232 25.2321 58.0342 24.4847 57.8108 23.7545C59.2798 22.9384 58.6871 21.8473 59.151 20.6532C57.0634 21.4951 58.4551 22.8009 57.8108 23.7459C57.6132 23.0844 57.3899 22.4229 57.1407 21.7786C58.4895 20.7993 57.7765 19.7855 58.0857 18.5485C56.127 19.6223 57.6304 20.7477 57.1322 21.7614C56.359 19.7684 55.3539 17.8956 54.1511 16.1688C55.0102 15.0091 54.1597 14.3733 54.091 13.2823L54.0738 13.3252ZM50.7062 15.9111C52.7422 14.6654 52.957 16.7014 54.1855 16.7186C52.5618 17.466 52.012 16.2805 50.7062 15.9111ZM55.4741 14.7857C55.4397 15.954 56.2731 16.7186 55.2336 17.8612C55.5428 16.8389 53.9192 16.1344 55.4741 14.7857ZM56.8658 16.521C56.6768 17.7495 57.4586 18.6601 56.2129 19.734C56.6682 18.7031 55.0532 17.7495 56.8658 16.521ZM53.5927 22.0449C56.2988 21.1858 55.9724 23.5913 57.3899 23.9607C55.2937 24.373 55.0016 22.8353 53.5927 22.0449ZM61.0581 27.2939C60.285 28.3334 60.5685 29.5447 58.9104 29.9313C59.8296 29.2011 58.8073 27.543 61.0581 27.2939ZM53.859 39.5874C56.3933 40.8674 54.469 42.3622 55.225 43.6164C53.4467 42.4395 54.3058 41.1423 53.859 39.5874ZM59.4345 42.4567C58.206 42.8605 57.7421 44.0202 56.1614 43.3759C57.3297 43.3072 57.4414 41.3657 59.4345 42.4567ZM58.6957 44.57C57.4242 44.7848 56.7885 45.8672 55.3195 44.9996C56.4878 45.1027 56.8916 43.1955 58.6957 44.57ZM57.8452 46.5373C56.5566 46.5115 55.7318 47.4479 54.4518 46.3225C55.5772 46.649 56.3332 44.8535 57.8452 46.5373ZM56.5566 48.2211C55.2679 48.1953 54.4432 49.1317 53.1632 48.0063C54.2886 48.3242 55.0446 46.5287 56.5566 48.2211ZM52.0206 44.8621C53.6529 47.1816 51.256 47.594 51.3334 49.063C50.3196 47.1902 51.6942 46.4428 52.0206 44.8621ZM49.9502 47.4136C51.2732 49.9221 48.842 50.0252 48.7303 51.4856C47.9572 49.4926 49.4176 48.9342 49.9502 47.4136ZM51.3591 54.3979C49.9073 54.1316 48.8076 55.025 47.5792 53.5216C48.7905 54.0972 49.976 52.2158 51.3591 54.3979ZM49.3661 55.9357C47.7682 55.5834 46.5053 56.537 45.2081 54.8103C46.5225 55.4975 47.9142 53.4529 49.3661 55.9357ZM44.8731 51.4513C45.6119 54.1917 43.215 53.7536 42.7855 55.1539C42.4762 53.0406 44.0226 52.8172 44.8731 51.4513ZM39.4437 52.7227C40.801 55.214 38.3698 55.3515 38.2839 56.8119C37.485 54.836 38.9368 54.2519 39.4437 52.7227ZM44.1428 58.3497C42.648 57.8858 41.3766 58.7019 40.2684 56.9494C41.4711 57.7054 42.9487 55.8669 44.1428 58.3497ZM42.2872 52.7571C42.8199 55.5491 40.466 54.9305 39.9333 56.2965C39.7787 54.166 41.3337 54.0543 42.2872 52.7571ZM46.763 57.3274C45.2425 56.8721 43.9538 57.7054 42.8199 55.9443C44.0483 56.7002 45.5346 54.8275 46.763 57.3274ZM29.9766 52.8258C30.0711 54.5697 31.4113 55.592 30.011 57.4219C30.3374 55.8669 27.8461 55.0336 29.9766 52.8258ZM27.7945 61.2791C27.5368 58.6418 29.6759 59.4149 30.2859 58.1865C30.2515 60.1795 28.7911 60.1452 27.7945 61.2791ZM28.0523 52.9718C28.1382 54.5869 29.3838 55.5319 28.0866 57.2243C28.3873 55.7896 26.085 55.0079 28.0523 52.9718ZM25.329 60.5317C25.6296 57.903 27.554 59.0971 28.4131 58.0318C27.9577 59.9733 26.5403 59.6383 25.329 60.5317ZM22.2964 7.59518C21.6693 7.61236 21.2913 8.08486 20.6384 7.56941C21.1968 7.69827 21.5146 6.81342 22.2964 7.59518ZM21.2226 6.6416C21.025 7.87009 20.1487 7.26014 19.7192 7.74122C19.9769 6.83919 20.6298 7.03678 21.2226 6.6416ZM21.1023 8.47145C20.269 8.49722 19.7707 9.12435 18.9202 8.43708C19.6504 8.6089 20.08 7.43196 21.1023 8.47145ZM19.1694 7.2945C19.178 8.64326 18.1299 8.15359 17.7605 8.74635C17.8721 7.74123 18.611 7.81854 19.1694 7.2945ZM19.4958 9.3563C18.5079 9.5453 18.0354 10.3872 16.8842 9.73429C17.7948 9.80302 18.0783 8.31681 19.4958 9.3563ZM17.3825 7.96459C17.7948 9.40784 16.5234 9.20166 16.3086 9.94906C16.1282 8.83226 16.9443 8.7034 17.3825 7.96459ZM15.6901 8.84944C16.3258 10.5246 14.7966 10.3958 14.6162 11.2978C14.2898 9.99202 15.2434 9.76006 15.6901 8.84944ZM16.1798 12.3373C15.0458 12.6552 14.5647 13.6947 13.1472 13.0418C14.2211 13.0246 14.4101 11.2549 16.1798 12.3373ZM13.8517 10.1467C14.7107 11.7961 13.1128 11.8562 13.0355 12.8184C12.5373 11.5126 13.4908 11.1518 13.8517 10.1467ZM14.8482 14.1156C13.6197 14.4592 13.1042 15.576 11.5837 14.8716C12.7434 14.8544 12.941 12.9473 14.8482 14.1156ZM12.0648 11.7102C13.1386 13.3167 11.4978 13.5572 11.5235 14.5537C10.862 13.2651 11.807 12.784 12.0648 11.7102ZM10.381 13.3167C11.7039 14.7256 10.1318 15.2324 10.3208 16.2118C9.45315 15.0434 10.3122 14.4163 10.381 13.3167ZM8.98066 14.7771C10.5356 16.1344 8.91193 16.8389 9.2212 17.8526C8.18171 16.71 9.02361 15.9454 8.98066 14.7771ZM7.58895 16.5124C9.40161 17.7409 7.78655 18.6945 8.24186 19.7254C6.99619 18.6516 7.78654 17.7409 7.58895 16.5124ZM10.862 22.0363C9.45315 22.8267 9.16108 24.3644 7.06492 23.9521C8.48241 23.5827 8.15594 21.1772 10.862 22.0363ZM5.31239 20.6962C7.41714 21.5467 5.98246 22.861 6.66973 23.8146C5.17493 22.9985 5.77629 21.8989 5.31239 20.6962ZM4.56499 22.9985C6.7127 23.7373 5.35534 25.129 6.08556 26.0396C4.5478 25.3008 5.08903 24.1754 4.56499 22.9985ZM3.82617 25.2579C6.05978 25.6788 4.90862 27.2509 5.7677 28.0499C4.13545 27.543 4.51344 26.3489 3.82617 25.2579ZM3.39663 27.2853C5.64742 27.5344 4.62512 29.1925 5.54433 29.9227C3.88631 29.5361 4.1698 28.3248 3.39663 27.2853ZM3.76603 38.3503C5.88796 37.5599 5.72476 39.4929 6.87592 39.7334C5.2179 40.1372 4.92579 38.9259 3.76603 38.3503ZM10.5957 39.5874C10.1404 41.1423 11.0081 42.4395 9.2298 43.6164C9.98579 42.3622 8.06144 40.8674 10.5957 39.5874ZM5.02031 42.4567C7.01337 41.3657 7.12505 43.3072 8.2934 43.3759C6.71269 44.0202 6.24879 42.8605 5.02031 42.4567ZM5.7591 44.57C7.56317 43.1955 7.96693 45.1027 9.13528 44.9996C7.66626 45.8672 7.03054 44.7934 5.7591 44.57ZM6.60958 46.5373C8.12157 44.8449 8.87757 46.6404 10.003 46.3225C8.72293 47.4479 7.89821 46.5115 6.60958 46.5373ZM7.89821 48.2211C9.41019 46.5287 10.1662 48.3242 11.2916 48.0063C10.0116 49.1317 9.18683 48.1953 7.89821 48.2211ZM12.4342 44.8621C12.7692 46.4428 14.1437 47.1816 13.1214 49.063C13.1987 47.6026 10.8019 47.1902 12.4342 44.8621ZM14.5045 47.4136C15.0372 48.9427 16.4976 49.5011 15.7244 51.4856C15.6128 50.0252 13.1816 49.9221 14.5045 47.4136ZM13.0957 54.3979C14.4874 52.2073 15.6729 54.0886 16.8756 53.5216C15.6471 55.0336 14.5475 54.1316 13.0957 54.3979ZM15.0887 55.9357C16.6866 55.5834 17.9495 56.537 19.2467 54.8103C17.9323 55.4975 16.5406 53.4529 15.0887 55.9357ZM19.5817 51.4513C18.8429 54.1917 21.2398 53.7536 21.6693 55.1539C21.9786 53.0406 20.4322 52.8172 19.5817 51.4513ZM25.0111 52.7227C25.518 54.2519 26.9698 54.836 26.1709 56.8119C26.0764 55.3515 23.6538 55.214 25.0111 52.7227ZM20.3119 58.3497C21.8067 57.8858 23.0782 58.7019 24.1864 56.9494C22.9837 57.7054 21.5061 55.8669 20.3119 58.3497ZM22.1676 52.7571C21.6349 55.5491 23.9888 54.9305 24.5214 56.2965C24.6761 54.166 23.1211 54.0543 22.1676 52.7571Z" fill="#8C8C8C"/>
<path fill-rule="evenodd" clip-rule="evenodd" d="M28.6975 4.05762L29.3645 6.03197L31.5149 6.02369L29.7759 7.2449L30.4493 9.21649L28.7085 7.99712L26.9751 9.22568L27.6384 7.25042L25.8921 6.03656L28.0434 6.03472L28.6975 4.05762Z" fill="#C69B54"/>
<path fill-rule="evenodd" clip-rule="evenodd" d="M35.771 4.05762L36.4379 6.03197L38.5883 6.02369L36.8494 7.2449L37.5228 9.21649L35.782 7.99712L34.0486 9.22568L34.7119 7.25042L32.9656 6.03656L35.1169 6.03472L35.771 4.05762Z" fill="#C69B54"/>
<g clip-path="url(#clip0_533_1069)">
<path d="M24.6705 21.8446C26.3036 21.613 27.7723 21.3876 29.2461 21.2038C29.777 21.1378 30.0835 20.9033 30.2947 20.411C30.8861 19.0315 31.5214 17.6708 32.2337 16.0943C32.8976 17.5905 33.5038 18.867 34.0272 20.1765C34.2881 20.8287 34.6517 21.1486 35.3715 21.2254C36.8151 21.3791 38.2478 21.6289 39.9054 21.8708C38.7986 22.8252 37.8648 23.7136 36.843 24.4858C35.9914 25.1295 35.6323 25.776 35.9663 26.8846C36.3293 28.0911 36.4537 29.3694 36.7209 30.8257C35.4114 29.9965 34.219 29.3381 33.1413 28.5265C32.4038 27.9711 31.8873 28.0433 31.1903 28.5561C30.1452 29.325 29.0189 29.9846 27.7335 30.8155C28.0098 29.2561 28.2135 27.9159 28.4955 26.5921C28.6605 25.8175 28.5172 25.2843 27.8488 24.7761C26.746 23.9378 25.6746 23.0437 24.6705 21.8446Z" fill="url(#paint0_radial_533_1069)"/>
<path d="M32.2805 45.8963C27.7883 45.8963 23.2954 45.8803 18.8031 45.9116C18.028 45.9168 17.718 45.75 17.742 44.9003C17.7894 43.197 17.738 43.1941 19.4864 43.1936C28.2335 43.1907 36.9806 43.2004 45.7277 43.1663C46.5576 43.1628 46.774 43.3848 46.7369 44.1963C46.6592 45.9042 46.7049 45.8946 44.9548 45.8917C40.7302 45.8843 36.5051 45.8894 32.2805 45.8894V45.8963Z" fill="url(#paint1_radial_533_1069)"/>
<path d="M32.1841 41.9438C28.556 41.9438 24.9279 41.9216 21.3005 41.9615C20.5264 41.97 20.2679 41.7771 20.3112 40.9809C20.4083 39.2036 20.0983 39.491 21.849 39.4864C28.9259 39.4671 36.0034 39.4927 43.0803 39.4597C43.9114 39.4557 44.1351 39.6918 44.0946 40.5006C44.0215 41.941 44.0701 41.9472 42.6213 41.9478C39.1423 41.9501 35.6632 41.9484 32.1835 41.9484L32.1841 41.9438Z" fill="url(#paint2_radial_533_1069)"/>
<path d="M32.0905 35.7525C34.8264 35.7525 37.5623 35.7758 40.2976 35.7371C41.0476 35.7263 41.2583 35.9574 41.2257 36.6978C41.1601 38.211 41.2017 38.2105 39.7211 38.211C34.4873 38.2127 29.2535 38.2019 24.0204 38.2344C23.2749 38.2389 23.0671 38.0232 23.0991 37.2879C23.1653 35.7496 23.1242 35.7462 24.6865 35.7457C27.1547 35.7445 29.6229 35.7457 32.091 35.7457C32.091 35.7479 32.0905 35.7502 32.0905 35.7525Z" fill="url(#paint3_radial_533_1069)"/>
<path d="M32.0979 34.4686C30.3455 34.4686 28.5925 34.4464 26.8407 34.4811C26.2574 34.4925 26.025 34.324 26.1209 33.7367C26.1586 33.5056 26.1455 33.2626 26.1284 33.027C26.0958 32.5825 26.2551 32.3976 26.734 32.3982C30.3872 32.4004 34.0404 32.3845 37.6935 32.3617C38.1468 32.3589 38.3015 32.4892 38.2923 32.9781C38.2649 34.5016 38.2906 34.4982 36.7317 34.493C35.1871 34.4879 33.6425 34.4919 32.0979 34.4919C32.0979 34.4839 32.0979 34.4765 32.0979 34.4686Z" fill="url(#paint4_radial_533_1069)"/>
<path d="M20.6657 30.3738C20.0104 30.3738 19.3551 30.3738 18.7004 30.3738C18.3185 30.3738 18.0457 30.2048 18.0411 29.8116C18.0371 29.4348 18.1941 29.0512 18.6234 29.0398C20.0207 29.0029 21.4198 28.9977 22.8177 29.0256C23.2087 29.033 23.5015 29.3381 23.4667 29.741C23.433 30.1325 23.1316 30.359 22.7206 30.3642C22.0357 30.3727 21.3507 30.3664 20.6657 30.3664C20.6657 30.3687 20.6657 30.3716 20.6657 30.3738Z" fill="url(#paint5_radial_533_1069)"/>
<path d="M43.6186 30.3607C42.9941 30.3607 42.3696 30.3551 41.7452 30.3625C41.3153 30.3676 40.9283 30.2606 40.9146 29.7723C40.9009 29.3045 41.1783 28.9841 41.6852 28.9818C42.9638 28.9772 44.2424 28.9761 45.5205 29.004C45.9743 29.0137 46.3807 29.2356 46.3373 29.745C46.3002 30.1803 45.9343 30.3596 45.4919 30.3539C44.8675 30.3454 44.243 30.3516 43.6186 30.3516V30.3607Z" fill="url(#paint6_radial_533_1069)"/>
<path d="M20.6389 26.6371C20.015 26.6371 19.3911 26.6388 18.7672 26.6371C18.3134 26.6354 18.0149 26.435 18.0143 25.957C18.0137 25.4732 18.3345 25.278 18.7735 25.2723C20.0213 25.2564 21.2691 25.2422 22.5168 25.257C22.941 25.2621 23.4261 25.3588 23.4124 25.9029C23.3999 26.4077 23.05 26.6735 22.51 26.6598C21.8867 26.6439 21.2622 26.6564 20.6383 26.6564C20.6383 26.6502 20.6389 26.6433 20.6389 26.6371Z" fill="url(#paint7_radial_533_1069)"/>
<path d="M43.59 26.649C42.9393 26.649 42.2874 26.6621 41.6373 26.6445C41.1932 26.6325 40.8964 26.3969 40.8958 25.9359C40.8958 25.5074 41.1943 25.3048 41.5922 25.2849C42.9513 25.2154 44.3121 25.1915 45.6706 25.3025C46.0199 25.331 46.3573 25.4664 46.3413 25.8625C46.3242 26.2694 46.0776 26.6092 45.6307 26.6319C44.952 26.6667 44.2704 26.641 43.59 26.641C43.59 26.6439 43.59 26.6462 43.59 26.649Z" fill="url(#paint8_radial_533_1069)"/>
<path d="M20.7941 32.6611C21.4169 32.6616 22.0397 32.6525 22.6618 32.6651C23.0637 32.673 23.3588 32.8449 23.3645 33.2922C23.3702 33.7475 23.1276 34.0429 22.6721 34.0497C21.3678 34.0696 20.0629 34.0708 18.7586 34.0452C18.3345 34.0366 17.9966 33.809 18.0468 33.3224C18.0919 32.8813 18.3728 32.6514 18.8374 32.6577C19.4898 32.6662 20.1417 32.6605 20.7941 32.6611Z" fill="url(#paint9_radial_533_1069)"/>
<path d="M43.6636 32.6764C44.2853 32.6764 44.9063 32.6708 45.5273 32.6782C45.972 32.6833 46.2791 32.8802 46.2768 33.3588C46.274 33.8312 45.9634 34.056 45.5279 34.0582C44.2858 34.0645 43.0426 34.0611 41.8011 34.0224C41.3833 34.0093 40.9443 33.904 41.0042 33.3087C41.0585 32.7692 41.4295 32.6594 41.8884 32.6622C42.4804 32.6662 43.0723 32.6634 43.6636 32.6634C43.6636 32.6679 43.6636 32.6719 43.6636 32.6764Z" fill="url(#paint10_radial_533_1069)"/>
<path d="M46.0445 22.2339C45.9183 22.7045 45.6318 23.0369 45.1095 22.9857C44.7059 22.9458 44.3543 22.7415 44.4148 22.235C44.477 21.7131 44.7779 21.4229 45.315 21.4656C45.7574 21.5009 46.0062 21.7672 46.0445 22.2339Z" fill="url(#paint11_radial_533_1069)"/>
<path d="M40.2548 16.6077C40.1537 17.0755 39.9191 17.4471 39.3974 17.4545C38.9619 17.4608 38.6799 17.1967 38.6656 16.7397C38.6508 16.2639 38.8597 15.9395 39.374 15.9145C39.8518 15.8917 40.1503 16.1256 40.2548 16.6077Z" fill="url(#paint12_radial_533_1069)"/>
<path d="M44.299 19.0508C44.2333 19.5357 43.9536 19.8214 43.4787 19.8334C43.0026 19.8453 42.6516 19.5926 42.6853 19.0907C42.715 18.6485 42.9827 18.2911 43.4793 18.2934C43.9519 18.2956 44.2459 18.5671 44.299 19.0508Z" fill="url(#paint13_radial_533_1069)"/>
<path d="M24.8463 17.483C24.3942 17.3811 24.0609 17.1358 24.1043 16.6481C24.1437 16.2019 24.3925 15.8633 24.9177 15.9179C25.3846 15.9668 25.7071 16.2064 25.674 16.7152C25.6426 17.2047 25.3047 17.4158 24.8463 17.483Z" fill="url(#paint14_radial_533_1069)"/>
<path d="M19.2478 21.4405C19.709 21.5088 20.0447 21.7353 20.003 22.2424C19.9596 22.7683 19.6234 23.0483 19.0926 22.9652C18.6365 22.8935 18.3094 22.6078 18.3836 22.1109C18.4504 21.6625 18.7067 21.3444 19.2478 21.4405Z" fill="url(#paint15_radial_533_1069)"/>
<path d="M21.7154 19.0952C21.6138 19.5266 21.3747 19.8539 20.8883 19.83C20.4362 19.8078 20.0938 19.5756 20.1183 19.0605C20.1417 18.5796 20.43 18.2831 20.9077 18.3042C21.3604 18.3241 21.6589 18.6001 21.7154 19.0952Z" fill="url(#paint16_radial_533_1069)"/>
</g>
<defs>
<radialGradient id="paint0_radial_533_1069" cx="0" cy="0" r="1" gradientUnits="userSpaceOnUse" gradientTransform="translate(32.2443 30.9157) scale(14.1483 15.3901)">
<stop offset="0.09" stop-color="#B0B0B0"/>
<stop offset="0.44" stop-color="#A6A6A6"/>
<stop offset="1" stop-color="#969696"/>
</radialGradient>
<radialGradient id="paint1_radial_533_1069" cx="0" cy="0" r="1" gradientUnits="userSpaceOnUse" gradientTransform="translate(32.2443 30.9157) scale(14.1483 15.3901)">
<stop offset="0.09" stop-color="#B0B0B0"/>
<stop offset="0.44" stop-color="#A6A6A6"/>
<stop offset="1" stop-color="#969696"/>
</radialGradient>
<radialGradient id="paint2_radial_533_1069" cx="0" cy="0" r="1" gradientUnits="userSpaceOnUse" gradientTransform="translate(32.2443 30.9157) scale(14.1483 15.3901)">
<stop offset="0.09" stop-color="#B0B0B0"/>
<stop offset="0.44" stop-color="#A6A6A6"/>
<stop offset="1" stop-color="#969696"/>
</radialGradient>
<radialGradient id="paint3_radial_533_1069" cx="0" cy="0" r="1" gradientUnits="userSpaceOnUse" gradientTransform="translate(32.2443 30.9157) scale(14.1483 15.3901)">
<stop offset="0.09" stop-color="#B0B0B0"/>
<stop offset="0.44" stop-color="#A6A6A6"/>
<stop offset="1" stop-color="#969696"/>
</radialGradient>
<radialGradient id="paint4_radial_533_1069" cx="0" cy="0" r="1" gradientUnits="userSpaceOnUse" gradientTransform="translate(32.2443 30.9157) scale(14.1483 15.3901)">
<stop offset="0.09" stop-color="#B0B0B0"/>
<stop offset="0.44" stop-color="#A6A6A6"/>
<stop offset="1" stop-color="#969696"/>
</radialGradient>
<radialGradient id="paint5_radial_533_1069" cx="0" cy="0" r="1" gradientUnits="userSpaceOnUse" gradientTransform="translate(32.2443 30.9157) scale(14.1483 15.3901)">
<stop offset="0.09" stop-color="#B0B0B0"/>
<stop offset="0.44" stop-color="#A6A6A6"/>
<stop offset="1" stop-color="#969696"/>
</radialGradient>
<radialGradient id="paint6_radial_533_1069" cx="0" cy="0" r="1" gradientUnits="userSpaceOnUse" gradientTransform="translate(32.2443 30.9157) scale(14.1483 15.3901)">
<stop offset="0.09" stop-color="#B0B0B0"/>
<stop offset="0.44" stop-color="#A6A6A6"/>
<stop offset="1" stop-color="#969696"/>
</radialGradient>
<radialGradient id="paint7_radial_533_1069" cx="0" cy="0" r="1" gradientUnits="userSpaceOnUse" gradientTransform="translate(32.2443 30.9157) scale(14.1483 15.3901)">
<stop offset="0.09" stop-color="#B0B0B0"/>
<stop offset="0.44" stop-color="#A6A6A6"/>
<stop offset="1" stop-color="#969696"/>
</radialGradient>
<radialGradient id="paint8_radial_533_1069" cx="0" cy="0" r="1" gradientUnits="userSpaceOnUse" gradientTransform="translate(32.2443 30.9157) scale(14.1483 15.3901)">
<stop offset="0.09" stop-color="#B0B0B0"/>
<stop offset="0.44" stop-color="#A6A6A6"/>
<stop offset="1" stop-color="#969696"/>
</radialGradient>
<radialGradient id="paint9_radial_533_1069" cx="0" cy="0" r="1" gradientUnits="userSpaceOnUse" gradientTransform="translate(32.2443 30.9157) scale(14.1483 15.3901)">
<stop offset="0.09" stop-color="#B0B0B0"/>
<stop offset="0.44" stop-color="#A6A6A6"/>
<stop offset="1" stop-color="#969696"/>
</radialGradient>
<radialGradient id="paint10_radial_533_1069" cx="0" cy="0" r="1" gradientUnits="userSpaceOnUse" gradientTransform="translate(32.2443 30.9157) scale(14.1483 15.3901)">
<stop offset="0.09" stop-color="#B0B0B0"/>
<stop offset="0.44" stop-color="#A6A6A6"/>
<stop offset="1" stop-color="#969696"/>
</radialGradient>
<radialGradient id="paint11_radial_533_1069" cx="0" cy="0" r="1" gradientUnits="userSpaceOnUse" gradientTransform="translate(32.2443 30.9157) scale(14.1483 15.3901)">
<stop offset="0.09" stop-color="#B0B0B0"/>
<stop offset="0.44" stop-color="#A6A6A6"/>
<stop offset="1" stop-color="#969696"/>
</radialGradient>
<radialGradient id="paint12_radial_533_1069" cx="0" cy="0" r="1" gradientUnits="userSpaceOnUse" gradientTransform="translate(32.2443 30.9157) scale(14.1483 15.3901)">
<stop offset="0.09" stop-color="#B0B0B0"/>
<stop offset="0.44" stop-color="#A6A6A6"/>
<stop offset="1" stop-color="#969696"/>
</radialGradient>
<radialGradient id="paint13_radial_533_1069" cx="0" cy="0" r="1" gradientUnits="userSpaceOnUse" gradientTransform="translate(32.2443 30.9157) scale(14.1483 15.3901)">
<stop offset="0.09" stop-color="#B0B0B0"/>
<stop offset="0.44" stop-color="#A6A6A6"/>
<stop offset="1" stop-color="#969696"/>
</radialGradient>
<radialGradient id="paint14_radial_533_1069" cx="0" cy="0" r="1" gradientUnits="userSpaceOnUse" gradientTransform="translate(32.2443 30.9157) scale(14.1483 15.3901)">
<stop offset="0.09" stop-color="#B0B0B0"/>
<stop offset="0.44" stop-color="#A6A6A6"/>
<stop offset="1" stop-color="#969696"/>
</radialGradient>
<radialGradient id="paint15_radial_533_1069" cx="0" cy="0" r="1" gradientUnits="userSpaceOnUse" gradientTransform="translate(32.2443 30.9157) scale(14.1483 15.3901)">
<stop offset="0.09" stop-color="#B0B0B0"/>
<stop offset="0.44" stop-color="#A6A6A6"/>
<stop offset="1" stop-color="#969696"/>
</radialGradient>
<radialGradient id="paint16_radial_533_1069" cx="0" cy="0" r="1" gradientUnits="userSpaceOnUse" gradientTransform="translate(32.2443 30.9157) scale(14.1483 15.3901)">
<stop offset="0.09" stop-color="#B0B0B0"/>
<stop offset="0.44" stop-color="#A6A6A6"/>
<stop offset="1" stop-color="#969696"/>
</radialGradient>
<clipPath id="clip0_533_1069">
<rect width="29" height="30" fill="white" transform="translate(17.7402 15.9121)"/>
</clipPath>
</defs>
</svg>
