<svg width="65" height="64" viewBox="0 0 65 64" fill="none" xmlns="http://www.w3.org/2000/svg">
<rect x="0.240234" width="64" height="64" rx="32" fill="white"/>
<path fill-rule="evenodd" clip-rule="evenodd" d="M43.1916 7.13888C42.7315 7.97183 40.8911 8.17014 39.6377 7.86076C40.2644 7.28959 41.613 6.74223 42.7791 7.03575L43.1995 7.13888L42.8346 6.91676C41.8113 6.29006 41.2481 4.9494 41.2163 4.10059C42.319 4.77488 43.4693 6.2266 43.1995 7.13888H43.1916ZM32.2284 57.5047C32.625 57.5047 32.9423 57.822 32.9423 58.2186C32.9423 58.6153 32.625 58.9326 32.2284 58.9326C31.8317 58.9326 31.5144 58.6153 31.5144 58.2186C31.5144 57.822 31.8317 57.5047 32.2284 57.5047ZM41.613 6.40111L41.2877 6.11553C40.3834 5.33018 38.9396 5.19532 38.1146 5.41745C39.0903 6.26626 40.8197 6.92469 41.613 6.39318V6.40111ZM22.8993 6.40111C23.6847 6.93262 25.422 6.26626 26.3977 5.42537C25.5806 5.20325 24.1289 5.33812 23.2246 6.12347L22.8993 6.40905V6.40111ZM30.4038 58.2266C30.1817 59.1547 28.4603 59.8449 27.1752 59.8766C27.6273 59.1547 28.7855 58.2741 29.9755 58.2345L30.4038 58.2186C30.4197 57.2667 28.9204 56.1799 27.6749 55.8229C27.9367 56.632 28.841 57.7744 29.9913 58.0996L30.4038 58.2186V58.2266ZM27.7225 57.8696C27.8336 56.9256 26.4453 55.688 25.2475 55.2121C25.4299 56.045 26.2073 57.2667 27.3179 57.7109L27.7146 57.8696L27.2862 57.8378C26.0963 57.7506 24.8588 58.5201 24.3352 59.1864C25.6203 59.2816 27.4052 58.766 27.7146 57.8696H27.7225ZM25.0888 57.2429C24.6922 58.1076 22.8597 58.4328 21.5904 58.2186C22.1774 57.6078 23.4864 56.9652 24.6604 57.1715L25.0809 57.2429C25.2871 56.3147 24.0337 54.9423 22.8914 54.3474C22.9866 55.1962 23.645 56.4892 24.7001 57.0445L25.0809 57.2429H25.0888ZM22.5344 56.3544C22.8279 55.45 21.7253 53.9587 20.6464 53.2526C20.6543 54.1015 21.1779 55.458 22.1774 56.1164L22.5344 56.3544L22.1219 56.2354C20.9716 55.9102 19.6072 56.4178 18.9567 56.9652C20.2022 57.3143 22.0505 57.1635 22.5344 56.3465V56.3544ZM20.0832 55.2121C19.5199 55.9736 17.6636 55.934 16.4658 55.4659C17.1639 54.982 18.5759 54.6171 19.6865 55.0534L20.0832 55.2121C20.4719 54.3474 19.5199 52.7529 18.5124 51.9358C18.4331 52.7846 18.8218 54.1887 19.75 54.9423L20.0832 55.2121ZM17.7588 53.8317C18.2348 53.0067 17.4415 51.3249 16.5292 50.4206C16.3706 51.2535 16.6086 52.6894 17.4574 53.5303L17.7588 53.8317L17.3781 53.6334C16.315 53.0861 14.8792 53.3002 14.1335 53.7128C15.2838 54.2998 17.1242 54.5298 17.7588 53.8238V53.8317ZM15.5852 52.2214C14.8792 52.856 13.0705 52.4435 11.9837 51.7454C12.7611 51.4122 14.2208 51.3408 15.2203 51.9913L15.5773 52.2214L15.3076 51.8882C14.546 50.968 14.4588 49.5163 14.6967 48.6992C15.5138 49.6908 16.1326 51.444 15.5773 52.2214H15.5852ZM13.5861 50.3968C12.8167 50.96 11.0635 50.3651 10.056 49.5559C10.8652 49.3021 12.3169 49.3735 13.253 50.1271L13.5861 50.3968C14.2128 49.6828 13.7765 47.8821 13.0626 46.8032C12.7373 47.5886 12.6818 49.0403 13.3482 50.0398L13.5861 50.3968ZM11.7774 48.3819L11.5791 48.0011C11.0159 46.946 11.2221 45.5022 11.6188 44.7565C12.2217 45.8989 12.4755 47.7393 11.7774 48.3819L11.4681 48.0804C10.6192 47.2395 9.17547 47.0253 8.34252 47.1919C9.26273 48.0963 10.9524 48.8658 11.7695 48.3819H11.7774ZM10.1829 46.2003C9.31826 46.597 7.71582 45.6609 6.8908 44.6693C7.73962 44.582 9.14374 44.9469 9.90529 45.8671L10.1829 46.2003L10.0243 45.8037C9.57211 44.6931 9.92115 43.281 10.3971 42.575C10.881 43.7729 10.9445 45.6292 10.1909 46.2003H10.1829ZM8.81055 43.8681C7.91414 44.1774 6.40689 43.0827 5.69293 42.0197C6.54175 42.0197 7.90621 42.5195 8.57257 43.519L8.81055 43.876C9.61971 43.3841 9.74663 41.5279 9.38172 40.2903C8.83435 40.9408 8.35044 42.3132 8.69156 43.4635L8.81055 43.876V43.8681ZM7.68409 41.4089C6.75594 41.6231 5.37562 40.3935 4.76479 39.2511C5.61361 39.3384 6.9146 39.973 7.47783 41.0281L7.68409 41.4089C8.54084 40.9964 8.85022 39.1718 8.61223 37.9025C8.0014 38.4975 7.38264 39.8144 7.60476 40.9884L7.68409 41.4089ZM6.81147 38.8465L6.77181 38.4182C6.66868 37.2283 7.4223 35.9828 8.08866 35.4513C8.19972 36.7364 7.70789 38.5292 6.81147 38.8465L6.64488 38.4499C6.19271 37.3472 4.95518 36.5778 4.12223 36.4112C4.61407 37.6011 5.86746 38.9735 6.81147 38.8545V38.8465ZM6.20064 36.2128C5.24869 36.2366 4.13809 34.7532 3.77318 33.5157C4.58233 33.7695 5.74054 34.658 6.08165 35.8003L6.20064 36.2128C7.12085 35.9828 7.79515 34.2534 7.81102 32.9604C7.09706 33.4205 6.22444 34.5866 6.20857 35.7845V36.2128H6.20064ZM5.85952 33.5315L5.90713 33.1032C6.04992 31.9132 7.03359 30.8423 7.78721 30.4615C7.63649 31.7387 6.79561 33.3967 5.8516 33.5315L5.77226 33.1111C5.55014 31.937 4.49507 30.9375 3.70972 30.6043C3.9477 31.8736 4.90758 33.4601 5.8516 33.5315H5.85952ZM5.78813 30.8264L5.88333 30.406C6.14511 29.2399 7.23191 28.272 8.0252 27.9626C7.74755 29.224 6.74008 30.7868 5.79607 30.8264L5.7564 30.398C5.65327 29.2081 4.70133 28.1054 3.95564 27.6929C4.0667 28.9781 4.85999 30.6598 5.79607 30.8264H5.78813ZM5.99439 28.1293C5.08211 27.8675 4.46334 26.1222 4.47921 24.8292C5.1773 25.3131 6.01819 26.503 5.99439 27.7009V28.1293C6.9384 28.1848 8.08866 26.7331 8.50117 25.5035C7.68409 25.7335 6.50209 26.5823 6.12924 27.7167L5.99439 28.1213V28.1293ZM6.47036 25.4638L6.64488 25.0672C7.12879 23.9724 8.39011 23.2505 9.23099 23.0998C8.70742 24.2739 7.40644 25.6066 6.47036 25.4559L6.51795 25.0275C6.65281 23.8376 5.94679 22.5683 5.29629 22.0209C5.14557 23.3061 5.58188 25.1068 6.47036 25.4559V25.4638ZM7.20812 22.8618L7.4223 22.489C8.01727 21.4498 9.34206 20.8548 10.1909 20.7913C9.54831 21.9099 8.12833 23.0998 7.20812 22.8539L7.30331 22.4334C7.55716 21.2673 6.97806 19.9346 6.39103 19.3158C6.11338 20.5772 6.36723 22.4176 7.20812 22.8539V22.8618ZM8.20766 20.3471L8.46151 19.9981C9.1596 19.0302 10.5399 18.5622 11.3887 18.5939C10.6351 19.6411 9.10407 20.6882 8.21559 20.3471L8.35044 19.9425C8.72329 18.8081 8.27905 17.4199 7.75548 16.7535C7.3509 17.9831 7.4223 19.8315 8.21559 20.355L8.20766 20.3471ZM9.45312 17.9434C10.3019 18.3639 11.9361 17.4833 12.7929 16.5155C11.952 16.4045 10.532 16.7218 9.7387 17.6182L9.45312 17.9434L9.62764 17.5468C10.1115 16.4521 9.8101 15.0321 9.35792 14.3102C8.83435 15.4922 8.71536 17.3405 9.45312 17.9355V17.9434ZM10.9366 15.6826C10.2623 15.0162 10.5637 13.1837 11.2063 12.0652C11.5871 12.8267 11.7378 14.2705 11.1508 15.3097L10.9366 15.6826L11.2539 15.3891C12.1344 14.5799 13.5782 14.3974 14.4032 14.5958C13.4592 15.4684 11.7457 16.1903 10.9366 15.6826ZM12.6421 13.5804L12.9832 13.3186C13.9352 12.5967 15.3948 12.5729 16.1961 12.8505C15.1648 13.628 13.3878 14.1674 12.6421 13.5804L12.888 13.2313C13.5782 12.2556 13.5703 10.8039 13.2688 10.0106C12.5231 11.0577 12.0313 12.8505 12.6342 13.5804H12.6421ZM14.546 11.6606C14.0145 10.8673 14.6888 9.13795 15.5376 8.17014C15.7597 8.99516 15.617 10.4389 14.8316 11.3354L14.546 11.6606C15.2282 12.319 17.0528 11.9621 18.1555 11.2957C17.386 10.9387 15.9343 10.8197 14.9109 11.4385L14.546 11.6606ZM16.6324 9.93918C16.1881 9.09829 17.0211 7.44032 17.9651 6.56771C18.0999 7.40859 17.8144 8.8365 16.9417 9.64565L16.6244 9.93918L17.0131 9.75671C18.092 9.24108 19.5279 9.50287 20.2577 9.93918C19.0916 10.4945 17.2432 10.6611 16.6244 9.93918H16.6324ZM18.8853 8.43987L19.2899 8.29707C20.4163 7.89249 21.8125 8.29707 22.4948 8.80477C21.281 9.24108 19.4247 9.22522 18.8853 8.43987L19.2264 8.17808C20.1784 7.45619 20.6067 6.06001 20.5512 5.21912C19.5199 5.99654 18.5204 7.55932 18.8853 8.43987ZM21.281 7.1706C21.0113 6.25832 22.1695 4.80661 23.2642 4.13231C23.2325 4.98113 22.6693 6.32179 21.6459 6.94848L21.281 7.1706L21.7015 7.06747C22.8597 6.78189 24.2083 7.32133 24.8429 7.8925C23.5895 8.20188 21.7491 7.99562 21.289 7.1706H21.281ZM34.0767 58.2504C34.2909 59.1785 36.0203 59.8687 37.3054 59.9004C36.8532 59.1785 35.695 58.2979 34.5051 58.2583L34.0767 58.2424C34.0609 57.2905 35.5602 56.2037 36.8057 55.8467C36.5439 56.6559 35.6395 57.7982 34.4892 58.1234L34.0767 58.2424V58.2504ZM36.758 57.8934C36.647 56.9494 38.0352 55.7118 39.2331 55.2359C39.0507 56.0688 38.2732 57.2905 37.1626 57.7347L36.766 57.8934L37.1944 57.8616C38.3843 57.7744 39.6218 58.5439 40.1454 59.2102C38.8603 59.3054 37.0754 58.7898 36.766 57.8934H36.758ZM39.3918 57.2667C39.7884 58.1313 41.6209 58.4566 42.8902 58.2424C42.3031 57.6316 40.9942 56.989 39.8201 57.1953L39.3997 57.2667C39.1934 56.3385 40.4468 54.9661 41.5892 54.3712C41.494 55.22 40.8356 56.513 39.7805 57.0683L39.3997 57.2667H39.3918ZM41.9462 56.3782C41.6526 55.4738 42.7553 53.9825 43.8342 53.2764C43.8262 54.1253 43.3027 55.4818 42.3031 56.1402L41.9462 56.3782L42.3587 56.2592C43.5089 55.934 44.8734 56.4416 45.5239 56.989C44.2784 57.3381 42.4301 57.1873 41.9462 56.3702V56.3782ZM44.3974 55.2359C44.9606 55.9974 46.8169 55.9578 48.0148 55.4897C47.3167 55.0058 45.9047 54.6409 44.794 55.0772L44.3974 55.2359C44.0087 54.3712 44.9606 52.7767 45.9681 51.9596C46.0474 52.8084 45.6587 54.2125 44.7306 54.9661L44.3974 55.2359ZM46.7217 53.8555C46.2458 53.0305 47.039 51.3487 47.9513 50.4444C48.11 51.2773 47.872 52.7132 47.0232 53.5541L46.7217 53.8555L47.1025 53.6572C48.1655 53.1099 49.6014 53.324 50.3471 53.7366C49.1968 54.3236 47.3564 54.5536 46.7217 53.8476V53.8555ZM48.8953 52.2452C49.6014 52.8798 51.4101 52.4673 52.4969 51.7692C51.7195 51.436 50.2598 51.3646 49.2603 52.0151L48.9033 52.2452L49.173 51.912C49.9346 50.9918 50.0218 49.5401 49.7838 48.723C48.9667 49.7146 48.348 51.4678 48.9033 52.2452H48.8953ZM50.8944 50.4206L51.1324 50.0636C51.7988 49.072 51.7432 47.6124 51.418 46.827C50.704 47.8979 50.2677 49.7066 50.8944 50.4206L51.2276 50.1509C52.1558 49.4052 53.6154 49.3259 54.4246 49.5797C53.4171 50.3889 51.656 50.9838 50.8944 50.4206ZM52.7031 48.4057C53.5202 48.8896 55.2099 48.1201 56.1301 47.2157C55.2972 47.0412 53.8613 47.2633 53.0046 48.1042L52.6952 48.4057C51.9971 47.7552 52.2509 45.9227 52.8538 44.7803C53.2584 45.526 53.4567 46.9698 52.8935 48.0249L52.6952 48.4057H52.7031ZM54.2976 46.2241C55.1623 46.6208 56.7648 45.6847 57.5898 44.6931C56.741 44.6058 55.3368 44.9707 54.5753 45.8909L54.2976 46.2241L54.4563 45.8275C54.9085 44.7169 54.5594 43.3048 54.0834 42.5988C53.5995 43.7967 53.5361 45.653 54.2897 46.2241H54.2976ZM55.67 43.8919C56.5664 44.2012 58.0737 43.1065 58.7876 42.0435C57.9388 42.0435 56.5744 42.5433 55.908 43.5428L55.67 43.8998C54.8609 43.4079 54.7339 41.5517 55.0989 40.3141C55.6462 40.9646 56.1301 42.337 55.789 43.4873L55.67 43.8998V43.8919ZM56.7965 41.4327C57.7246 41.6469 59.1049 40.4173 59.7158 39.2749C58.867 39.3622 57.566 39.9968 57.0027 41.0519L56.8044 41.4327C55.9477 41.0202 55.6383 39.1956 55.8763 37.9263C56.4871 38.5213 57.1059 39.8382 56.8837 41.0122L56.8044 41.4327H56.7965ZM57.6691 38.8703L57.7008 38.442C57.804 37.2521 57.0503 36.0066 56.384 35.4751C56.2729 36.7602 56.7648 38.553 57.6612 38.8703L57.8278 38.4737C58.2799 37.371 59.5175 36.6016 60.3504 36.435C59.8586 37.6249 58.6052 38.9973 57.6612 38.8783L57.6691 38.8703ZM58.2799 36.2366C59.2319 36.2604 60.3425 34.777 60.7074 33.5395C59.8982 33.7933 58.74 34.6818 58.3989 35.8241L58.2799 36.2366C57.3597 36.0066 56.6854 34.2772 56.6696 32.9842C57.3835 33.4443 58.2561 34.6104 58.272 35.8083V36.2366H58.2799ZM58.621 33.5553L58.5734 33.127C58.4306 31.937 57.447 30.8661 56.6934 30.4853C56.8441 31.7625 57.685 33.4205 58.629 33.5553L58.7083 33.1349C58.9304 31.9608 59.9855 30.9613 60.7709 30.6281C60.5329 31.8974 59.573 33.4839 58.629 33.5553H58.621ZM58.6924 30.8502C59.6285 30.6836 60.4139 29.0019 60.5329 27.7167C59.7872 28.1292 58.8352 29.2319 58.7321 30.4218L58.6924 30.8502C57.7405 30.8106 56.741 29.2478 56.4633 27.9864C57.2566 28.2958 58.3434 29.2636 58.6052 30.4298L58.7004 30.8502H58.6924ZM58.4862 28.1531C59.3985 27.8913 60.0172 26.146 60.0014 24.853C59.3033 25.3369 58.4703 26.5268 58.4862 27.7247V28.1531C57.5422 28.2086 56.3919 26.7569 55.9794 25.5273C56.7965 25.7573 57.9785 26.6061 58.3513 27.7405L58.4862 28.1451V28.1531ZM58.0102 25.4876L57.8357 25.091C57.3439 23.9962 56.0905 23.2743 55.2496 23.1236C55.7731 24.2977 57.0741 25.6304 58.0102 25.4797L57.9626 25.0513C57.8278 23.8614 58.5338 22.5921 59.1843 22.0447C59.335 23.3299 58.8987 25.1306 58.0102 25.4797V25.4876ZM57.2724 22.8856L57.0583 22.5128C56.4633 21.4736 55.1385 20.8786 54.2897 20.8151C54.9323 21.9337 56.3522 23.1236 57.2724 22.8777L57.1773 22.4572C56.9234 21.2911 57.5025 19.9584 58.0895 19.3396C58.3672 20.6009 58.1133 22.4414 57.2724 22.8777V22.8856ZM56.2729 20.3709L56.0191 20.0218C55.321 19.054 53.9407 18.586 53.0918 18.6177C53.8455 19.6649 55.3765 20.712 56.265 20.3709L56.1301 19.9663C55.7573 18.8319 56.2015 17.4437 56.7251 16.7773C57.1297 18.0069 57.0583 19.8553 56.265 20.3788L56.2729 20.3709ZM55.0274 17.9672C54.1786 18.3877 52.5445 17.5071 51.6877 16.5393C52.5286 16.4283 53.9486 16.7456 54.7419 17.642L55.0274 17.9672L54.8529 17.5706C54.369 16.4759 54.6705 15.0559 55.1227 14.334C55.6462 15.516 55.7652 17.3643 55.0274 17.9593V17.9672ZM53.544 15.7064C54.2183 15.04 53.9169 13.2075 53.2743 12.089C52.8935 12.8505 52.7428 14.2943 53.3298 15.3335L53.544 15.7064L53.2267 15.4129C52.3461 14.6037 50.9024 14.4212 50.0773 14.6196C51.0214 15.4922 52.7349 16.2141 53.544 15.7064ZM51.8384 13.6042L51.4973 13.3424C50.5454 12.6205 49.0857 12.5967 48.2845 12.8743C49.3158 13.6518 51.0928 14.1912 51.8384 13.6042L51.5925 13.2551C50.9024 12.2794 50.9103 10.8277 51.2117 10.0344C51.9574 11.0815 52.4493 12.8743 51.8464 13.6042H51.8384ZM49.9345 11.6844C50.466 10.8911 49.7918 9.16176 48.9429 8.19395C48.7208 9.01897 48.8636 10.4627 49.649 11.3592L49.9345 11.6844C49.2523 12.3428 47.4278 11.9859 46.3251 11.3195C47.0946 10.9625 48.5463 10.8435 49.5696 11.4623L49.9345 11.6844ZM47.8482 9.96298C48.2924 9.12209 47.4595 7.46412 46.5155 6.59151C46.3806 7.43239 46.6662 8.8603 47.5388 9.66945L47.8561 9.96298L47.4674 9.78052C46.3886 9.26489 44.9606 9.52667 44.2229 9.96298C45.389 10.5183 47.2374 10.6849 47.8561 9.96298H47.8482ZM45.5953 8.46366C45.9522 7.58312 44.9527 6.02034 43.9294 5.24292C43.8818 6.09174 44.3022 7.47999 45.2542 8.20188L45.5953 8.46366C45.0558 9.24902 43.1995 9.26488 41.9858 8.82857C42.668 8.32087 44.0642 7.91629 45.1907 8.32087L45.5953 8.46366Z" fill="#B77956"/>
<path fill-rule="evenodd" clip-rule="evenodd" d="M32.235 2.61523L32.8108 4.31992L34.6675 4.31277L33.1661 5.36719L33.7476 7.06949L32.2445 6.01666L30.7479 7.07743L31.3206 5.37195L29.8127 4.32389L31.6702 4.3223L32.235 2.61523Z" fill="#C69B54"/>
<g clip-path="url(#clip0_533_4312)">
<path d="M32.3633 51L32.2442 50.9823C23.4762 49.656 16.8633 39.4362 16.8633 27.2092C16.8633 23.6135 17.4228 20.1596 18.5273 16.9397L18.8486 16L19.6969 16.5319C21.693 17.7837 23.8155 18.422 26.0066 18.422C28.0641 18.422 30.0639 17.8582 31.9554 16.7518L32.3597 16.5142L32.764 16.7518C34.6554 17.8617 36.6588 18.422 38.7127 18.422C40.9038 18.422 43.0263 17.7872 45.0225 16.5319L45.8707 16L46.192 16.9397C47.2966 20.1596 47.8561 23.6135 47.8561 27.2092C47.8561 39.4397 41.2431 49.6596 32.4752 50.9823L32.3561 51H32.3633ZM19.7258 18.3475C18.8703 21.1454 18.4407 24.1206 18.4407 27.2092C18.4407 32.8085 19.9099 38.1702 22.5738 42.305C25.1475 46.2979 28.62 48.8227 32.3669 49.4326C36.1137 48.8262 39.5863 46.2979 42.16 42.305C44.8239 38.1702 46.2931 32.8085 46.2931 27.2092C46.2931 24.1206 45.8599 21.1454 45.008 18.3475C43.0083 19.4255 40.9002 19.9716 38.7236 19.9716C36.5469 19.9716 34.3919 19.4113 32.3705 18.3121C30.3491 19.4149 28.2158 19.9716 26.0175 19.9716C23.8192 19.9716 21.7328 19.4255 19.733 18.3475H19.7258Z" fill="#414042"/>
<path d="M32.3633 51L32.2442 50.9823C23.4762 49.656 16.8633 39.4362 16.8633 27.2092C16.8633 23.6135 17.4228 20.1596 18.5273 16.9397L18.8486 16L19.6969 16.5319C21.693 17.7837 23.8155 18.422 26.0066 18.422C28.0641 18.422 30.0639 17.8582 31.9554 16.7518L32.3597 16.5142L32.764 16.7518C34.6554 17.8617 36.6588 18.422 38.7127 18.422C40.9038 18.422 43.0263 17.7872 45.0225 16.5319L45.8707 16L46.192 16.9397C47.2966 20.1596 47.8561 23.6135 47.8561 27.2092C47.8561 39.4397 41.2431 49.6596 32.4752 50.9823L32.3561 51H32.3633ZM19.7258 18.3475C18.8703 21.1454 18.4407 24.1206 18.4407 27.2092C18.4407 32.8085 19.9099 38.1702 22.5738 42.305C25.1475 46.2979 28.62 48.8227 32.3669 49.4326C36.1137 48.8262 39.5863 46.2979 42.16 42.305C44.8239 38.1702 46.2931 32.8085 46.2931 27.2092C46.2931 24.1206 45.8599 21.1454 45.008 18.3475C43.0083 19.4255 40.9002 19.9716 38.7236 19.9716C36.5469 19.9716 34.3919 19.4113 32.3705 18.3121C30.3491 19.4149 28.2158 19.9716 26.0175 19.9716C23.8192 19.9716 21.7328 19.4255 19.733 18.3475H19.7258Z" fill="url(#paint0_linear_533_4312)"/>
<path fill-rule="evenodd" clip-rule="evenodd" d="M26.7575 21.0462C28.4505 21.0462 30.0676 20.6384 31.5115 19.8902V47.7341C24.6531 46.2164 19.4587 37.9504 19.4587 27.9753C19.4587 24.8689 20.0182 21.9292 20.9243 19.3086C22.7147 20.4256 24.6675 21.0462 26.7575 21.0462ZM32.5944 42.1845V37.5746H32.598L39.164 43.9221C38.3807 44.7448 37.6443 45.4611 36.7491 46.0533L32.5944 42.1845ZM44.9756 24.5958C44.7482 22.7341 44.3367 20.9575 43.7664 19.3086C42.8604 19.8724 41.9074 20.3086 40.9147 20.6065L44.9756 24.5958ZM35.1464 20.6737C36.038 20.9149 36.9549 21.0461 37.897 21.0461C38.4674 21.0461 39.0305 20.9964 39.5828 20.9078L45.1345 26.3617C45.1633 26.8936 45.1814 27.4291 45.1814 27.9716C45.1814 28.8014 45.1417 29.617 45.0695 30.422L35.1464 20.6737ZM32.5944 31.837V35.9575L40.0304 43.0533C40.5816 42.3851 41.0062 41.6602 41.461 40.8839L41.461 40.8839L41.461 40.8838C41.5154 40.7909 41.5703 40.6973 41.6258 40.6029L32.5944 31.837ZM32.5944 47.7446V43.7978L35.511 46.6631C35.4031 46.7206 35.3005 46.7764 35.2011 46.8304C34.4422 47.2429 33.871 47.5534 32.5944 47.7446ZM32.5944 20.2021V24.812L43.8602 35.6667C44.2061 34.5195 44.3765 33.3181 44.5534 32.0715L44.5822 31.8688L32.5944 20.2021ZM32.5944 30.2271V26.4327L43.3513 36.8937C43.2808 37.0896 43.213 37.2835 43.1459 37.4755C42.8934 38.1981 42.6503 38.8936 42.3081 39.5604L32.5944 30.2271Z" fill="#414042"/>
<path fill-rule="evenodd" clip-rule="evenodd" d="M26.7575 21.0462C28.4505 21.0462 30.0676 20.6384 31.5115 19.8902V47.7341C24.6531 46.2164 19.4587 37.9504 19.4587 27.9753C19.4587 24.8689 20.0182 21.9292 20.9243 19.3086C22.7147 20.4256 24.6675 21.0462 26.7575 21.0462ZM32.5944 42.1845V37.5746H32.598L39.164 43.9221C38.3807 44.7448 37.6443 45.4611 36.7491 46.0533L32.5944 42.1845ZM44.9756 24.5958C44.7482 22.7341 44.3367 20.9575 43.7664 19.3086C42.8604 19.8724 41.9074 20.3086 40.9147 20.6065L44.9756 24.5958ZM35.1464 20.6737C36.038 20.9149 36.9549 21.0461 37.897 21.0461C38.4674 21.0461 39.0305 20.9964 39.5828 20.9078L45.1345 26.3617C45.1633 26.8936 45.1814 27.4291 45.1814 27.9716C45.1814 28.8014 45.1417 29.617 45.0695 30.422L35.1464 20.6737ZM32.5944 31.837V35.9575L40.0304 43.0533C40.5816 42.3851 41.0062 41.6602 41.461 40.8839L41.461 40.8839L41.461 40.8838C41.5154 40.7909 41.5703 40.6973 41.6258 40.6029L32.5944 31.837ZM32.5944 47.7446V43.7978L35.511 46.6631C35.4031 46.7206 35.3005 46.7764 35.2011 46.8304C34.4422 47.2429 33.871 47.5534 32.5944 47.7446ZM32.5944 20.2021V24.812L43.8602 35.6667C44.2061 34.5195 44.3765 33.3181 44.5534 32.0715L44.5822 31.8688L32.5944 20.2021ZM32.5944 30.2271V26.4327L43.3513 36.8937C43.2808 37.0896 43.213 37.2835 43.1459 37.4755C42.8934 38.1981 42.6503 38.8936 42.3081 39.5604L32.5944 30.2271Z" fill="url(#paint1_radial_533_4312)"/>
</g>
<defs>
<linearGradient id="paint0_linear_533_4312" x1="16.8633" y1="33.5042" x2="47.8561" y2="33.5042" gradientUnits="userSpaceOnUse">
<stop offset="0.295" stop-color="#DEB98E"/>
<stop offset="1" stop-color="#512203"/>
</linearGradient>
<radialGradient id="paint1_radial_533_4312" cx="0" cy="0" r="1" gradientUnits="userSpaceOnUse" gradientTransform="translate(11.3716 33.5266) scale(25.7958 29.9863)">
<stop stop-color="#EDB989"/>
<stop offset="0.905" stop-color="#A06840"/>
</radialGradient>
<clipPath id="clip0_533_4312">
<rect width="31" height="35" fill="white" transform="translate(16.8633 16)"/>
</clipPath>
</defs>
</svg>
