<svg width="65" height="64" viewBox="0 0 65 64" fill="none" xmlns="http://www.w3.org/2000/svg">
<rect x="0.240234" width="64" height="64" rx="32" fill="white"/>
<path fill-rule="evenodd" clip-rule="evenodd" d="M31.9419 11.709L32.408 17.8829C32.253 17.8784 32.098 17.8751 31.9419 17.8751C31.7859 17.8751 31.6303 17.8779 31.4759 17.8829L31.9419 11.709ZM33.66 17.9718L35.0003 11.9278L34.5831 18.1028C34.2787 18.0501 33.9705 18.0062 33.66 17.9718ZM35.8101 18.3684L37.9959 12.5794L36.7044 18.6316C36.41 18.5355 36.1123 18.4472 35.8101 18.3689V18.3684ZM37.8809 19.0699C38.168 19.191 38.4502 19.321 38.7279 19.4582L40.8676 13.6509L37.8803 19.0699H37.8809ZM39.8294 20.0608L43.5588 15.1206L40.6132 20.5663C40.3571 20.3902 40.096 20.2214 39.8294 20.0614V20.0608ZM41.6169 21.3184C41.8135 21.4789 42.0068 21.6444 42.1951 21.8144H42.4067L46.0128 16.9575L41.6169 21.3184ZM44.5586 21.8144L48.1807 19.1254L45.5129 21.8144H44.5586ZM47.5503 22.9142L47.8302 23.2308L50.0182 21.5794L47.5503 22.9142ZM49.4205 25.0316L51.4873 24.2701L49.6449 25.2855L49.4205 25.0316ZM51.4868 27.3712L52.5588 27.1423L51.6034 27.5028L51.4868 27.3706V27.3712ZM51.3529 33.0396L53.4298 33.1963L50.9985 33.3796L51.3529 33.0391V33.0396ZM48.9822 35.317L53.2109 36.2546L48.3479 35.9263L48.9822 35.317ZM47.052 37.1711L52.5594 39.2502L46.5071 37.9587C46.5482 37.8332 46.5877 37.7071 46.6254 37.5805L47.0515 37.1711H47.052ZM46.0689 39.1358C45.9478 39.4229 45.8178 39.7051 45.68 39.9828L51.4879 42.1224L46.0689 39.1352V39.1358ZM45.0779 41.0843L50.0187 44.8136L44.573 41.8681C44.7491 41.612 44.9174 41.3509 45.0779 41.0843ZM43.8204 42.8718C43.6237 43.1128 43.4199 43.3478 43.2094 43.5761L48.1818 47.2676L43.8209 42.8718H43.8204ZM42.3223 44.4631C42.094 44.6737 41.8591 44.8775 41.618 45.0741L46.0139 49.435L42.3223 44.4626V44.4631ZM40.6137 45.8268L43.5593 51.2725L39.83 46.3317C40.0966 46.1712 40.3577 46.0023 40.6137 45.8268ZM38.7285 46.9344C38.4508 47.0721 38.1686 47.2021 37.8814 47.3232L40.8687 52.7422L38.7291 46.9344H38.7285ZM36.7044 47.7614L37.9959 53.8137L35.8101 48.0247C36.1117 47.9459 36.41 47.8581 36.7044 47.762V47.7614ZM34.6376 49.0951L35.0003 54.4653L33.9549 49.7511L34.6376 49.0957V49.0951ZM32.1863 51.4497L31.9419 54.6841L31.6981 51.4519L31.9414 51.6852L32.1869 51.4497H32.1863ZM29.929 49.7528L28.8841 54.4653L29.2469 49.0973L29.929 49.7528ZM28.0737 48.0242L25.888 53.8131L27.1795 47.7609C27.4738 47.857 27.7716 47.9453 28.0737 48.0236V48.0242ZM26.0024 47.3232C25.7153 47.2021 25.4331 47.0721 25.1554 46.9344L23.0152 52.7422L26.0024 47.3232ZM24.0539 46.3323L20.3246 51.273L23.2702 45.8273C23.5262 46.0034 23.7873 46.1723 24.0539 46.3323ZM22.2664 45.0747C22.0254 44.8781 21.7904 44.6742 21.5621 44.4637L17.8706 49.4361L22.2664 45.0753V45.0747ZM20.6751 43.5766C20.4645 43.3483 20.2607 43.1134 20.0641 42.8723L15.7032 47.2682L20.6756 43.5766H20.6751ZM19.3114 41.8681L13.8657 44.8136L18.8065 41.0843C18.967 41.3509 19.1359 41.612 19.3114 41.8681ZM18.2038 39.9828C18.0661 39.7051 17.9361 39.4229 17.8156 39.1358L12.3965 42.123L18.2038 39.9834V39.9828ZM17.3768 37.9587L11.3245 39.2502L16.8291 37.1722L17.2596 37.5855C17.2968 37.7105 17.3362 37.8349 17.3762 37.9587H17.3768ZM15.5321 35.9263L10.673 36.2546L14.8983 35.3176L15.5321 35.9263ZM12.8803 33.3796L10.4541 33.1963L12.5265 33.0396L12.8803 33.3796ZM12.2827 27.5039L11.3245 27.1423L12.3993 27.3717L12.2827 27.5039ZM14.2406 25.2866L12.396 24.2701L14.4651 25.0322L14.2406 25.2866ZM16.0548 23.2314L13.8652 21.5789L16.3342 22.9142L16.0542 23.2314H16.0548ZM18.3705 21.8138H19.3247L15.7026 19.1249L18.3705 21.8138ZM21.4766 21.8138L17.8706 16.9569L22.2664 21.3178C22.0698 21.4784 21.8765 21.6439 21.6882 21.8138H21.4766ZM23.2707 20.5652C23.5262 20.3891 23.7878 20.2208 24.0545 20.0603L20.3251 15.1195L23.2707 20.5652ZM25.1559 19.4576L23.0163 13.6503L26.0036 19.0693C25.7164 19.1904 25.4342 19.3204 25.1565 19.4576H25.1559ZM27.18 18.6305C27.4744 18.5344 27.7721 18.4461 28.0743 18.3678L25.8891 12.5788L27.1806 18.6311L27.18 18.6305ZM29.3013 18.1017L28.8841 11.9267L30.2239 17.9706C29.9134 18.0056 29.6057 18.049 29.3007 18.1017H29.3013Z" fill="#DBDBDB"/>
<path fill-rule="evenodd" clip-rule="evenodd" d="M47.2056 22.2266H16.6475L11.2576 28.6757L17.1646 23.4944H44.7927L50.9219 30.3308L31.9271 47.8385L11.5516 29.4599L31.9271 51.2691L54.0265 29.8338L47.2056 22.2266Z" fill="#E49716"/>
<path fill-rule="evenodd" clip-rule="evenodd" d="M16.7885 22.2266H47.1936L52.5835 28.6757L46.6765 23.4944H19.0483L12.9192 30.3308L31.914 47.8385L52.2894 29.4599L31.914 50.783L10.1921 30.3308L16.7885 22.2266Z" fill="#E49716"/>
<path fill-rule="evenodd" clip-rule="evenodd" d="M44.1711 24.3682H32.8567L38.3757 29.339L37.8364 25.0229H41.4345L38.3757 29.339L44.1711 24.3682ZM31.5953 24.3682H20.2809L25.8473 29.339L22.7337 25.1954H27.6174L25.8473 29.339L31.5953 24.3682ZM19.389 24.96L17.1101 29.2756H21.2585L19.389 24.96L25.51 29.991H14.8781L19.389 24.96ZM14.7153 30.6686L31.906 46.7251L17.4872 31.4107H21.667L31.906 46.7251L25.6928 30.6681L14.7153 30.6686ZM31.906 46.7251L49.5182 30.6686H38.6456L31.906 46.7251L43.9629 31.4112H47.5461L31.906 46.7251ZM49.3559 29.9916H38.9425L44.5173 24.9707L44.4113 29.2761H47.736L44.5173 24.9707L49.3559 29.9916ZM37.916 30.6692L31.906 46.7251L32.3499 31.4112H28.8952L31.906 46.7251L26.4187 30.6686L37.916 30.6692ZM38.0858 29.9916H26.3668L32.2352 24.7224L29.4294 29.2761H32.5062L32.2352 24.7224L38.0858 29.9916Z" fill="#E49716"/>
<path fill-rule="evenodd" clip-rule="evenodd" d="M43.166 8.21445C42.6066 7.53637 41.6996 8.62977 41.047 8.70606C40.2417 8.80777 39.5976 8.61282 38.7584 8.82472C38.894 8.73996 39.0381 8.6552 39.1822 8.57892C39.623 8.34159 40.0807 8.13816 40.5723 8.01949C40.9792 7.92626 41.4199 7.8754 41.8268 7.99407C41.8098 7.99407 41.8013 7.98559 41.7844 7.97711C41.386 7.85845 40.9537 7.88388 40.5469 7.96017C40.2078 8.0195 39.8773 8.11273 39.5467 8.2314C40.0298 7.8415 40.6825 7.47703 41.2843 7.39227C41.9115 7.30751 42.988 7.49399 43.1575 8.21445H43.166ZM30.8333 59.0287H33.6982C34.0966 59.0287 34.4271 59.3592 34.4271 59.7576C34.4271 60.156 34.0966 60.4865 33.6982 60.4865H30.8333C30.4349 60.4865 30.1043 60.156 30.1043 59.7576C30.1043 59.3592 30.4349 59.0287 30.8333 59.0287ZM23.2217 6.84132C24.027 7.20579 24.3575 5.82419 24.9 5.46819C25.5781 5.02744 26.2392 4.91724 26.9088 4.34934C26.8241 4.48496 26.7308 4.62059 26.6376 4.7562C26.3409 5.16306 26.0273 5.54448 25.6374 5.86657C25.3153 6.12933 24.9424 6.36665 24.5186 6.44294C24.5355 6.44294 24.5525 6.44294 24.561 6.44294C24.9678 6.37513 25.3492 6.16323 25.6798 5.91743C25.951 5.714 26.2138 5.48514 26.4596 5.23933C26.1968 5.80723 25.7731 6.41752 25.2645 6.75656C24.739 7.10408 23.6879 7.41769 23.2217 6.84132ZM41.4369 6.86674C40.6316 7.23122 40.3011 5.84962 39.7586 5.49362C39.0805 5.05286 38.4194 4.94267 37.7498 4.37477C37.8345 4.51039 37.9278 4.64601 38.021 4.78163C38.3177 5.18848 38.6313 5.56991 39.0212 5.892C39.3433 6.15476 39.7162 6.39208 40.14 6.46837C40.1231 6.46837 40.1061 6.46837 40.0977 6.46837C39.6908 6.40056 39.3094 6.18866 38.9788 5.94285C38.7076 5.73943 38.4448 5.51057 38.199 5.26476C38.4618 5.83266 38.8856 6.44295 39.3941 6.78199C39.9196 7.12951 40.9707 7.44312 41.4369 6.86674ZM29.4178 60.0543C28.6549 59.6135 28.1887 60.9527 27.6124 61.2579C26.8919 61.6308 26.2307 61.6817 25.5103 62.1733C25.612 62.0462 25.7137 61.919 25.8239 61.8004C26.1545 61.4189 26.5105 61.0714 26.9343 60.7917C27.2818 60.5628 27.6802 60.3594 28.104 60.3255C28.087 60.3255 28.0701 60.3255 28.0616 60.3255C27.6463 60.3509 27.2479 60.5289 26.9004 60.7408C26.6122 60.9188 26.324 61.1223 26.0612 61.3426C26.3748 60.8086 26.858 60.2323 27.4005 59.9441C27.9599 59.6474 29.0363 59.444 29.4432 60.0627L29.4178 60.0543ZM29.4686 59.3931C28.6464 59.6983 28.4091 58.2997 27.8836 57.9098C27.2309 57.4182 26.5867 57.2656 25.9595 56.6638C26.0358 56.8079 26.1206 56.952 26.2053 57.0876C26.4681 57.5114 26.7647 57.9183 27.1292 58.2573C27.4343 58.5455 27.7904 58.8083 28.2057 58.91C28.1887 58.91 28.1718 58.91 28.1633 58.9015C27.7564 58.8083 27.392 58.571 27.0868 58.2997C26.8241 58.0793 26.5783 57.8335 26.3494 57.5708C26.5783 58.1556 26.9597 58.7998 27.4344 59.1643C27.9345 59.5457 28.9685 59.9271 29.4686 59.3847V59.3931ZM26.5698 59.605C26.2307 58.9524 25.1373 59.0371 24.5525 59.2745C23.9846 59.5033 23.4506 60.0204 23.0776 60.5205C23.3658 60.3255 23.671 60.156 23.9761 60.0119C24.349 59.8424 24.7644 59.7067 25.1797 59.7237C25.1967 59.7237 25.2136 59.7237 25.2221 59.7237C24.7983 59.7152 24.383 59.8678 24.01 60.0627C23.5608 60.3001 23.1709 60.6052 22.8064 60.9443C22.6877 61.0544 22.5691 61.1646 22.4589 61.2833C23.2302 60.868 23.8913 60.8934 24.6457 60.5967C25.256 60.3594 25.8578 59.071 26.5698 59.5881V59.605ZM26.6969 58.9524C25.8493 59.1727 25.7561 57.7572 25.2729 57.3165C24.6796 56.7655 24.0524 56.5452 23.4845 55.8755C23.5438 56.0281 23.6116 56.1722 23.6879 56.3248C23.9083 56.7825 24.1541 57.2063 24.4847 57.5877C24.7644 57.9013 25.0865 58.198 25.4848 58.3421C25.4679 58.3421 25.4594 58.3421 25.4425 58.3251C25.0526 58.1895 24.7135 57.9183 24.4338 57.6132C24.1965 57.3673 23.9761 57.0961 23.7812 56.8079C23.9422 57.4097 24.2558 58.0878 24.6966 58.5116C25.1543 58.9439 26.1375 59.427 26.6969 58.9439V58.9524ZM23.7896 58.8676C23.137 58.2828 22.3995 59.4948 21.7723 59.6644C20.984 59.8847 20.3314 59.783 19.5261 60.1221C19.6533 60.0204 19.7804 59.9187 19.9076 59.8169C20.3144 59.5203 20.7298 59.249 21.2044 59.0626C21.5943 58.91 22.0181 58.7998 22.4419 58.8507C22.425 58.8507 22.408 58.8507 22.3996 58.8507C21.9842 58.7913 21.5604 58.8761 21.179 59.0117C20.8569 59.1219 20.5348 59.266 20.2297 59.427C20.6535 58.9693 21.2468 58.5116 21.8232 58.3421C22.425 58.1641 23.5269 58.198 23.7981 58.8846L23.7896 58.8676ZM23.9846 58.2319C23.3828 58.6557 22.4504 58.0793 22.0436 57.5962C21.6537 57.13 21.4078 56.4265 21.3061 55.8077C21.4757 56.1129 21.6621 56.4011 21.874 56.6723C22.1283 56.9944 22.425 57.308 22.8064 57.486C22.8233 57.486 22.8318 57.4945 22.8488 57.503C22.4674 57.3165 22.1707 56.9859 21.9334 56.6469C21.6452 56.2315 21.4417 55.7823 21.2722 55.3077C21.2129 55.1551 21.1705 55.0025 21.1197 54.8415C21.6113 55.5619 22.2131 55.8501 22.7471 56.4604C23.1794 56.952 23.12 58.3675 23.9931 58.2404L23.9846 58.2319ZM21.1027 57.842C20.9078 57.13 19.8144 56.9859 19.1956 57.0961C18.5938 57.2063 17.9581 57.5962 17.4919 58.0115C17.814 57.8844 18.1446 57.7742 18.4836 57.6979C18.882 57.6047 19.3143 57.5623 19.7211 57.664C19.7381 57.664 19.7465 57.664 19.7635 57.6725C19.3482 57.5708 18.9159 57.6386 18.509 57.7488C18.0174 57.8844 17.5766 58.1048 17.1444 58.3675C17.0003 58.4523 16.8647 58.537 16.729 58.6303C17.5682 58.3845 18.2123 58.5455 19.0176 58.4099C19.6618 58.2997 20.5178 57.1724 21.1112 57.8251L21.1027 57.842ZM21.357 57.2317C20.4755 57.2656 20.6789 55.8671 20.306 55.3331C19.8398 54.6635 19.2719 54.3244 18.8565 53.5531C18.8904 53.7141 18.9244 53.8752 18.9583 54.0278C19.0769 54.5194 19.2295 54.9856 19.4753 55.4348C19.6787 55.7993 19.933 56.1553 20.2975 56.3841C20.2805 56.3841 20.2721 56.3672 20.2551 56.3587C19.8991 56.1468 19.6279 55.8077 19.416 55.4517C19.238 55.1635 19.0769 54.8499 18.9413 54.5278C18.9752 55.1466 19.1363 55.8755 19.4838 56.3841C19.8398 56.9012 20.7043 57.5793 21.3485 57.2233L21.357 57.2317ZM18.5345 56.5452C18.0174 55.8332 17.0427 56.8672 16.39 56.9096C15.5763 56.9605 14.9491 56.7316 14.093 56.8842C14.2371 56.8079 14.3812 56.7316 14.5337 56.6723C14.9914 56.4604 15.4576 56.2824 15.9577 56.2061C16.373 56.1383 16.8138 56.1129 17.2122 56.257C17.1952 56.257 17.1867 56.2485 17.1698 56.24C16.7799 56.0959 16.3476 56.0959 15.9408 56.1468C15.6017 56.1892 15.2627 56.257 14.9236 56.3502C15.4322 55.9942 16.1018 55.6637 16.7121 55.6213C17.3393 55.5789 18.4073 55.8332 18.526 56.5621L18.5345 56.5452ZM18.8565 55.9603C17.975 55.9095 18.331 54.5363 18.0089 53.96C17.6105 53.248 17.085 52.8496 16.7545 52.0359C16.7714 52.1969 16.7884 52.358 16.8053 52.519C16.8731 53.0191 16.9748 53.5022 17.1698 53.9684C17.3393 54.3583 17.5512 54.7397 17.8903 55.0025C17.8818 54.994 17.8648 54.9856 17.8564 54.9771C17.5258 54.7313 17.2885 54.3583 17.1105 53.9938C16.9664 53.6887 16.8392 53.3582 16.7375 53.0276C16.7036 53.6463 16.7968 54.3922 17.085 54.9262C17.3817 55.4772 18.1784 56.2485 18.8565 55.9518V55.9603ZM16.1188 54.9771C15.678 54.2142 14.6015 55.1466 13.9489 55.1127C13.1352 55.0788 12.5419 54.7821 11.6688 54.8499C11.8214 54.7906 11.974 54.7313 12.1265 54.6804C12.6012 54.5194 13.0843 54.3922 13.5844 54.3668C13.9998 54.3414 14.4405 54.3668 14.8304 54.5448C14.8219 54.5448 14.805 54.5278 14.788 54.5278C14.4151 54.3414 13.9828 54.299 13.5759 54.3075C13.2369 54.3075 12.8894 54.3499 12.5419 54.4092C13.0843 54.104 13.7878 53.8498 14.3981 53.8667C15.0254 53.8837 16.0679 54.2566 16.1103 54.994L16.1188 54.9771ZM16.5002 54.4346C15.6356 54.2905 16.1272 52.9598 15.8645 52.358C15.5424 51.6121 15.0593 51.1544 14.8219 50.3152C14.8219 50.4763 14.8219 50.6373 14.8219 50.8069C14.8389 51.3069 14.8897 51.807 15.0338 52.2902C15.161 52.6885 15.3305 53.0954 15.6441 53.3921C15.6356 53.3836 15.6187 53.3751 15.6102 53.3581C15.3051 53.0784 15.1101 52.6885 14.9745 52.2986C14.8643 51.9765 14.7711 51.6375 14.7032 51.2985C14.61 51.9172 14.6185 52.6631 14.8474 53.2225C15.0847 53.8074 15.7967 54.6465 16.5002 54.4261V54.4346ZM13.8811 53.1717C13.5251 52.3664 12.3554 53.1717 11.7112 53.0784C10.906 52.9598 10.3465 52.6038 9.47351 52.5784C9.63455 52.536 9.78712 52.4936 9.94817 52.4597C10.4398 52.3495 10.9314 52.2732 11.4315 52.2986C11.8468 52.3156 12.2876 52.3919 12.652 52.6123C12.6436 52.6123 12.6266 52.5953 12.6181 52.5868C12.2706 52.3665 11.8468 52.2732 11.4315 52.2393C11.0924 52.2054 10.7449 52.2054 10.3974 52.2308C10.9653 51.985 11.6942 51.807 12.296 51.8918C12.9233 51.9766 13.915 52.4512 13.8811 53.1886V53.1717ZM14.3134 52.6716C13.4657 52.4342 14.093 51.1628 13.898 50.5356C13.6607 49.7558 13.2284 49.2557 13.0758 48.3912C13.0504 48.5522 13.0335 48.7133 13.025 48.8743C12.9911 49.3744 12.9826 49.8745 13.0843 50.3661C13.1606 50.7814 13.2962 51.1968 13.5759 51.5273C13.5675 51.5188 13.559 51.5019 13.542 51.4934C13.2708 51.1798 13.1182 50.7729 13.0165 50.3746C12.9402 50.044 12.8809 49.6965 12.8555 49.349C12.6944 49.9508 12.6266 50.6967 12.7961 51.2815C12.9741 51.8833 13.5844 52.7987 14.3134 52.6546V52.6716ZM11.8383 51.1459C11.5671 50.3068 10.3211 50.9933 9.69387 50.8323C8.90559 50.6289 8.38009 50.2135 7.51553 50.1033C7.67658 50.0779 7.8376 50.0525 7.99865 50.0355C8.49874 49.9762 8.99036 49.9508 9.49045 50.0355C9.90578 50.0949 10.3296 50.2135 10.6686 50.4763C10.6602 50.4678 10.6432 50.4593 10.6347 50.4508C10.3126 50.1881 9.8973 50.0609 9.49045 49.9762C9.15141 49.9084 8.80389 49.8745 8.46485 49.8575C9.05818 49.6711 9.80406 49.5693 10.3889 49.7134C10.9992 49.866 11.9401 50.4339 11.8299 51.1713L11.8383 51.1459ZM12.3215 50.6882C11.4993 50.3661 12.2621 49.1625 12.135 48.5268C11.9824 47.73 11.601 47.1791 11.5417 46.3145C11.5078 46.4755 11.4738 46.6281 11.4399 46.7892C11.3552 47.2893 11.2959 47.7809 11.3382 48.281C11.3721 48.6963 11.4654 49.1286 11.7027 49.4846C11.6943 49.4761 11.6858 49.4591 11.6773 49.4507C11.44 49.1116 11.3298 48.6878 11.2789 48.281C11.2365 47.9419 11.2196 47.5944 11.2196 47.2469C10.9992 47.8317 10.8551 48.5607 10.9568 49.1625C11.067 49.7812 11.584 50.756 12.3215 50.6882ZM10.0244 48.9082C9.83797 48.0436 8.53265 48.5946 7.92237 48.3657C7.15952 48.0775 6.68486 47.6198 5.83725 47.4164C5.9983 47.4079 6.15933 47.3994 6.32886 47.3994C6.82895 47.3994 7.32904 47.4249 7.82066 47.552C8.22751 47.6537 8.63438 47.8148 8.94799 48.1115C8.93952 48.103 8.93103 48.086 8.91408 48.0775C8.61742 47.7894 8.21904 47.6114 7.82914 47.4927C7.50705 47.391 7.15953 47.3147 6.82048 47.2638C7.43076 47.1452 8.17666 47.1197 8.75303 47.3232C9.34636 47.5351 10.2194 48.2047 10.0329 48.9167L10.0244 48.9082ZM10.55 48.5098C9.77016 48.103 10.6517 46.9926 10.5923 46.3399C10.5245 45.5262 10.2024 44.9499 10.2279 44.0768C10.177 44.2294 10.1262 44.382 10.0753 44.543C9.93121 45.0261 9.82951 45.5093 9.82103 46.0179C9.82103 46.4332 9.85493 46.8739 10.0584 47.2554C10.0584 47.2469 10.0414 47.2299 10.0329 47.2215C9.82951 46.857 9.77016 46.4332 9.75321 46.0179C9.74473 45.6788 9.76168 45.3313 9.80406 44.9838C9.52435 45.5432 9.29552 46.2552 9.34637 46.857C9.39723 47.4842 9.80406 48.5013 10.5415 48.5183L10.55 48.5098ZM8.44788 46.501C8.35464 45.6279 6.99847 46.0348 6.41362 45.7466C5.68468 45.3821 5.26088 44.8736 4.4387 44.5769C4.59975 44.5769 4.76078 44.5939 4.93031 44.6108C5.4304 44.6617 5.92202 44.738 6.39668 44.916C6.78658 45.06 7.18496 45.2635 7.45619 45.5856C7.44772 45.5771 7.43924 45.5601 7.43077 45.5517C7.16801 45.2296 6.79505 45.0177 6.41362 44.8566C6.10001 44.721 5.76944 44.6108 5.43039 44.5261C6.04915 44.4667 6.79505 44.5261 7.346 44.7888C7.9139 45.0601 8.71064 45.8229 8.44788 46.5095V46.501ZM9.01579 46.1535C8.27837 45.6703 9.27008 44.6532 9.28703 44.0005C9.29551 43.1868 9.04121 42.5765 9.16835 41.712C9.10055 41.8561 9.03275 42.0087 8.97342 42.1612C8.78695 42.6274 8.62589 43.1021 8.56656 43.6022C8.5157 44.0175 8.5157 44.4582 8.66827 44.8566C8.66827 44.8397 8.6598 44.8312 8.65133 44.8142C8.49028 44.4328 8.47333 44.0005 8.49876 43.5852C8.52419 43.2462 8.5835 42.8986 8.65978 42.5596C8.32074 43.0851 8.02409 43.7717 8.00713 44.382C7.99018 45.0092 8.28686 46.0687 9.02428 46.1535H9.01579ZM7.14258 43.9327C7.14258 43.0512 5.75249 43.3225 5.20155 42.9665C4.51498 42.5257 4.14202 41.9747 3.36222 41.6018C3.52327 41.6272 3.68432 41.6527 3.84537 41.6866C4.33698 41.7883 4.82011 41.9154 5.26934 42.1443C5.64229 42.3307 6.01524 42.5765 6.25257 42.9241C6.25257 42.9071 6.23562 42.8987 6.22715 42.8902C5.99829 42.5427 5.65079 42.2884 5.28631 42.0849C4.98965 41.9154 4.66754 41.7713 4.34545 41.6526C4.97268 41.6526 5.70165 41.7883 6.21869 42.1104C6.75268 42.4409 7.46466 43.2801 7.1341 43.9412L7.14258 43.9327ZM7.74438 43.653C7.02391 43.492 6.83743 42.407 6.92219 41.7798C6.99848 41.178 7.37142 40.5253 7.76132 40.0422C7.65113 40.3728 7.5579 40.7033 7.49856 41.0424C7.42228 41.4492 7.39687 41.8815 7.51553 42.2799C7.51553 42.2968 7.524 42.3053 7.53247 42.3223C7.41381 41.9154 7.46466 41.4746 7.5579 41.0678C7.66809 40.5762 7.87151 40.127 8.10884 39.6777C8.18513 39.5336 8.2699 39.3895 8.35466 39.2539C8.14275 40.1015 8.33769 40.7373 8.23598 41.5425C8.15969 42.1867 7.06629 43.0936 7.74438 43.653ZM6.1085 41.2543C6.20173 40.3812 4.78622 40.4999 4.27766 40.093C3.64195 39.5845 3.32833 38.9996 2.58244 38.5419C2.74348 38.5843 2.89604 38.6267 3.04861 38.6776C3.53175 38.8301 3.98945 39.0081 4.42173 39.2794C4.77773 39.5082 5.1168 39.7879 5.32022 40.1609C5.32022 40.1439 5.30326 40.1354 5.30326 40.1185C5.10831 39.7455 4.78621 39.4573 4.45565 39.22C4.17593 39.0251 3.87081 38.8471 3.56567 38.6945C4.18442 38.7708 4.90488 38.9742 5.37954 39.3471C5.87963 39.737 6.49839 40.6355 6.10001 41.2628L6.1085 41.2543ZM6.73572 41.0339C6.11696 40.4067 7.30361 39.6184 7.44771 38.9827C7.62571 38.1859 7.50705 37.5333 7.80372 36.7111C7.702 36.8382 7.60877 36.9739 7.51553 37.1095C7.23582 37.5248 6.98153 37.9571 6.82048 38.4317C6.68487 38.8301 6.59163 39.2624 6.65944 39.6777C6.65944 39.6608 6.65943 39.6523 6.65095 39.6354C6.57467 39.2285 6.65096 38.7962 6.76115 38.4063C6.85438 38.0757 6.98153 37.7536 7.1341 37.44C6.69334 37.8808 6.26105 38.4911 6.11695 39.0844C5.96438 39.6947 6.04069 40.7966 6.7442 41.0339H6.73572ZM5.36259 38.4741C5.54907 37.6095 4.12508 37.5841 3.65889 37.1264C3.08252 36.5585 2.82825 35.9398 2.14169 35.4058C2.29426 35.4651 2.44681 35.5244 2.59938 35.5838C3.06556 35.7872 3.50632 36.0076 3.89622 36.3297C4.22679 36.5924 4.53194 36.906 4.70146 37.2959C4.70146 37.279 4.69299 37.2705 4.68452 37.2536C4.53195 36.8637 4.24375 36.5416 3.93013 36.2703C3.67585 36.05 3.38765 35.8381 3.09947 35.6516C3.70974 35.7872 4.4048 36.0669 4.83708 36.4907C5.29479 36.9315 5.8203 37.8893 5.35411 38.4741H5.36259ZM6.00679 38.3215C5.33717 38.0079 5.37954 36.9145 5.59144 36.3212C5.79487 35.7448 6.29497 35.1854 6.76963 34.7955C6.59163 35.0921 6.43057 35.4058 6.30343 35.7194C6.14238 36.1008 6.0322 36.5162 6.0661 36.9315C6.0661 36.9484 6.0661 36.9654 6.0661 36.9739C6.0322 36.55 6.17629 36.1262 6.35428 35.7533C6.56619 35.2956 6.86286 34.8972 7.18495 34.5073C7.28666 34.3802 7.39686 34.2615 7.50705 34.1428C7.12562 34.9311 7.17647 35.5922 6.91371 36.3636C6.70181 36.9823 5.44735 37.6435 5.98982 38.33L6.00679 38.3215ZM4.90488 35.6346C5.42192 35.1091 5.0066 34.092 4.59975 33.6088C4.20985 33.1427 3.54871 32.7951 2.95539 32.5917C3.22662 32.8036 3.4809 33.0409 3.71823 33.2952C3.99794 33.5919 4.25223 33.9479 4.36242 34.3463C4.36242 34.3632 4.3624 34.3717 4.37088 34.3887C4.25221 33.9818 3.97252 33.6343 3.67586 33.3461C3.31139 32.9901 2.90451 32.7189 2.46376 32.473C2.31966 32.3968 2.17559 32.3205 2.03149 32.2442C2.6672 32.846 2.84518 33.4817 3.36222 34.1174C3.77755 34.626 5.1846 34.804 4.91336 35.6346H4.90488ZM5.56601 35.5499C5.09135 34.804 6.41363 34.2869 6.68486 33.6936C7.03238 32.9562 7.04086 32.2866 7.50705 31.5492C7.37991 31.6593 7.26125 31.761 7.14258 31.8797C6.77811 32.2272 6.44754 32.5917 6.18478 33.0325C5.97287 33.3885 5.78641 33.7953 5.76946 34.2191V34.1767C5.76946 33.7614 5.93897 33.3546 6.13392 32.9986C6.29497 32.7019 6.48992 32.4052 6.69335 32.134C6.17631 32.473 5.62535 32.9816 5.35411 33.5326C5.08288 34.1005 4.93031 35.1854 5.56601 35.5668V35.5499ZM4.75231 32.7612C5.10831 31.956 3.7267 31.6339 3.37071 31.0914C2.92147 30.4133 2.8113 29.7522 2.2434 29.0911C2.37901 29.1758 2.51462 29.2691 2.65023 29.3623C3.06556 29.659 3.44699 29.9641 3.76908 30.3625C4.03184 30.6846 4.27765 31.0575 4.35394 31.4729C4.35394 31.4559 4.35394 31.439 4.35394 31.4305C4.28613 31.0236 4.06575 30.6422 3.81994 30.3201C3.61651 30.0489 3.37918 29.7861 3.13338 29.5403C3.70128 29.8031 4.32002 30.2184 4.65906 30.727C5.01506 31.2525 5.32869 32.3035 4.75231 32.7697V32.7612ZM5.41345 32.7443C4.82012 32.3035 5.09136 31.2355 5.41345 30.7015C5.73554 30.1845 6.32886 29.7353 6.88828 29.4556C6.65095 29.7098 6.43058 29.9811 6.23563 30.2608C6.00678 30.5998 5.80334 30.9813 5.75249 31.3966C5.75249 31.4135 5.75249 31.4305 5.75249 31.439C5.81182 31.0152 6.0322 30.6337 6.28649 30.3032C6.59163 29.8963 6.95611 29.5657 7.35448 29.2606C7.48162 29.1589 7.61724 29.0656 7.74438 28.9724C7.21038 29.659 7.12561 30.3201 6.70181 31.0152C6.36276 31.5746 4.99813 31.956 5.39651 32.7443H5.41345ZM4.89642 29.8878C5.51517 29.481 5.31174 28.4045 5.01507 27.8451C4.72688 27.3111 4.159 26.828 3.625 26.5059C3.84538 26.7686 4.0488 27.0568 4.2268 27.3535C4.4387 27.7095 4.61669 28.0994 4.64212 28.5147C4.64212 28.5316 4.64212 28.5486 4.64212 28.5571C4.60822 28.1333 4.41328 27.7349 4.17595 27.3874C3.89623 26.9636 3.54871 26.6161 3.16729 26.277C3.04862 26.1668 2.92148 26.0651 2.79434 25.9634C3.28595 26.6839 3.32832 27.345 3.70975 28.0739C4.00641 28.6503 5.34564 29.125 4.91336 29.8794L4.89642 29.8878ZM5.55755 29.9472C5.25241 29.125 6.65097 28.8876 7.04087 28.3621C7.53249 27.7095 7.68506 27.0653 8.28686 26.4381C8.14277 26.5144 7.99867 26.5991 7.86305 26.6839C7.43077 26.9466 7.03238 27.2348 6.68486 27.6078C6.39668 27.9129 6.13393 28.2689 6.03221 28.6842C6.03221 28.6673 6.0322 28.6588 6.04067 28.6419C6.13391 28.235 6.37126 27.879 6.64249 27.5654C6.86287 27.3026 7.10867 27.0568 7.37143 26.8364C6.78658 27.0653 6.14239 27.4467 5.77792 27.9214C5.39649 28.4215 5.01508 29.4556 5.55755 29.9556V29.9472ZM5.34565 27.0483C5.86269 26.3364 4.58278 25.7345 4.34545 25.1243C4.04879 24.3699 4.07422 23.7003 3.65889 22.9374C3.77756 23.0476 3.88774 23.1663 3.99793 23.285C4.33697 23.6579 4.6506 24.0393 4.87945 24.4885C5.0744 24.8615 5.22697 25.2768 5.21849 25.7006C5.21849 25.6837 5.21849 25.6667 5.21849 25.6583C5.23544 25.2429 5.1083 24.8276 4.93031 24.4547C4.78621 24.141 4.61668 23.8444 4.42173 23.5562C4.92182 23.9291 5.43887 24.4716 5.66772 25.031C5.90505 25.6159 5.98983 26.7093 5.33717 27.0483H5.34565ZM5.9983 27.1755C5.51516 26.6161 5.99831 25.6328 6.43059 25.1751C6.8544 24.7344 7.53247 24.4207 8.13427 24.2597C7.85456 24.4547 7.57486 24.675 7.32906 24.9124C7.03239 25.1921 6.75268 25.5311 6.61707 25.921C6.61707 25.938 6.60857 25.9465 6.6001 25.9634C6.74419 25.565 7.04085 25.2344 7.36294 24.9632C7.74437 24.6326 8.17666 24.3869 8.6259 24.1665C8.76999 24.0987 8.92256 24.0308 9.07513 23.963C8.40552 24.5225 8.18513 25.1497 7.63418 25.7515C7.19343 26.2262 5.77792 26.3194 5.98982 27.1755H5.9983ZM6.09153 24.2682C6.77809 23.997 6.81201 22.9035 6.63401 22.2932C6.46449 21.7084 6.00678 21.1151 5.54907 20.6913C5.71012 20.9964 5.84573 21.3185 5.96439 21.6406C6.10001 22.0305 6.18477 22.4543 6.12544 22.8612C6.12544 22.8781 6.12544 22.8866 6.12544 22.9035C6.18477 22.4797 6.06611 22.0559 5.91354 21.666C5.72706 21.1914 5.46432 20.776 5.15918 20.3692C5.06594 20.242 4.96421 20.1149 4.85402 19.9878C5.18459 20.793 5.09136 21.4541 5.31174 22.2339C5.48126 22.8611 6.69335 23.5986 6.1085 24.2512L6.09153 24.2682ZM6.72723 24.4631C6.60009 23.5901 8.01561 23.6494 8.50722 23.2171C9.1175 22.6831 9.40569 22.0814 10.1262 21.5897C9.97359 21.6406 9.81255 21.683 9.65998 21.7423C9.18532 21.9118 8.73607 22.1152 8.32074 22.4034C7.9817 22.6408 7.65115 22.9374 7.46468 23.3189C7.46468 23.3019 7.47314 23.2934 7.48162 23.2765C7.65962 22.895 7.96475 22.5984 8.29532 22.3441C8.56655 22.1322 8.86323 21.9457 9.1599 21.7762C8.54962 21.8779 7.83761 22.1152 7.37143 22.5051C6.88829 22.912 6.31191 23.8444 6.73572 24.4462L6.72723 24.4631ZM7.11715 21.5813C7.76981 20.9964 6.64249 20.1318 6.5323 19.4877C6.39668 18.6824 6.5662 18.0382 6.3204 17.1991C6.41363 17.3347 6.49839 17.4704 6.58316 17.6144C6.83744 18.0467 7.06629 18.4875 7.19344 18.9791C7.30362 19.3859 7.37143 19.8182 7.26972 20.2336C7.26972 20.2166 7.26973 20.2081 7.2782 20.1912C7.37991 19.7843 7.33753 19.3605 7.24429 18.9537C7.168 18.6231 7.06628 18.2841 6.93914 17.962C7.34599 18.4282 7.74438 19.0639 7.85457 19.6657C7.96476 20.2844 7.82066 21.3778 7.10867 21.5728L7.11715 21.5813ZM7.72743 21.8355C7.37144 21.1914 8.04952 20.3268 8.56656 19.9708C9.06665 19.6318 9.7956 19.4622 10.4228 19.4283C10.1007 19.5639 9.7956 19.7165 9.49894 19.903C9.15142 20.1149 8.81236 20.3861 8.59199 20.7421C8.59199 20.7591 8.57504 20.7675 8.56656 20.7845C8.79541 20.42 9.15141 20.1657 9.51588 19.9623C9.95664 19.7165 10.4313 19.564 10.9229 19.4453C11.084 19.4029 11.2365 19.369 11.3976 19.3436C10.6262 19.7504 10.2787 20.3183 9.61759 20.793C9.08359 21.1659 7.67657 20.9625 7.71895 21.844L7.72743 21.8355ZM8.42245 19.013C9.13445 18.496 8.10038 17.5212 8.06647 16.8685C8.01562 16.0548 8.24447 15.4361 8.0919 14.5715C8.16818 14.7156 8.24447 14.8597 8.3038 15.0123C8.5157 15.47 8.68522 15.9362 8.76998 16.4363C8.83779 16.8516 8.86322 17.2923 8.71912 17.6907C8.71912 17.6738 8.72762 17.6653 8.73609 17.6483C8.88019 17.2584 8.88017 16.8262 8.82932 16.4193C8.78694 16.0803 8.71913 15.7412 8.6259 15.4022C8.98189 15.9107 9.31245 16.5888 9.35483 17.1906C9.39721 17.8179 9.14294 18.8859 8.414 19.0045L8.42245 19.013ZM9.00731 19.3351C9.05816 18.4536 10.4398 18.8096 11.0077 18.4875C11.7197 18.0891 12.1265 17.5636 12.9317 17.233C12.7707 17.25 12.6096 17.2669 12.4486 17.2839C11.9485 17.3517 11.4654 17.4534 10.9992 17.6483C10.6178 17.8094 10.2279 18.0298 9.96511 18.3688C9.96511 18.3603 9.98206 18.3434 9.99054 18.3349C10.2363 18.0043 10.6093 17.767 10.9738 17.5975C11.2789 17.4534 11.6095 17.3263 11.9401 17.2245C11.3213 17.1906 10.5754 17.2839 10.0414 17.5721C9.49045 17.8687 8.71913 18.657 9.01579 19.3436L9.00731 19.3351ZM9.99054 16.5973C10.7534 16.1566 9.82949 15.0801 9.85492 14.4274C9.88882 13.6137 10.1855 13.0204 10.1177 12.1474C10.177 12.2999 10.2363 12.4525 10.2872 12.6051C10.4483 13.0797 10.5754 13.5629 10.6008 14.0714C10.6262 14.4868 10.6008 14.9275 10.4143 15.3174C10.4143 15.3005 10.4313 15.292 10.4313 15.275C10.6178 14.9021 10.6602 14.4698 10.6602 14.063C10.6602 13.7239 10.6178 13.3764 10.5669 13.0289C10.872 13.5713 11.1263 14.2749 11.1009 14.8851C11.0755 15.5124 10.711 16.5549 9.97359 16.5973H9.99054ZM10.533 16.9787C10.6771 16.1142 12.0078 16.6058 12.6096 16.3515C13.3555 16.0294 13.8133 15.5463 14.6524 15.3089C14.4913 15.3089 14.3303 15.3089 14.1608 15.3089C13.6607 15.3259 13.1691 15.3768 12.6775 15.5208C12.2791 15.6395 11.8722 15.8175 11.5756 16.1226C11.584 16.1142 11.5925 16.0972 11.6095 16.0887C11.8892 15.7836 12.2791 15.5887 12.669 15.453C12.9911 15.3428 13.3301 15.2496 13.6692 15.1818C13.0504 15.0886 12.3045 15.097 11.7451 15.3259C11.1602 15.5632 10.3211 16.2667 10.533 16.9787ZM11.796 14.3596C12.6012 14.0036 11.796 12.8339 11.8892 12.1897C12.0079 11.3845 12.3639 10.8251 12.3893 9.95204C12.4317 10.1046 12.474 10.2657 12.5079 10.4267C12.6181 10.9183 12.6944 11.4099 12.669 11.91C12.652 12.3253 12.5758 12.7661 12.3554 13.1306C12.3639 13.1221 12.3723 13.1052 12.3808 13.0967C12.6012 12.7492 12.6944 12.3253 12.7283 11.91C12.7622 11.571 12.7622 11.2235 12.7368 10.8759C12.9826 11.4523 13.1606 12.1728 13.0758 12.7746C12.9911 13.4018 12.5164 14.3935 11.779 14.3596H11.796ZM12.296 14.7919C12.5334 13.9443 13.8048 14.5715 14.4235 14.3851C15.2033 14.1477 15.7034 13.7154 16.568 13.5629C16.407 13.5374 16.2459 13.5205 16.0849 13.512C15.5848 13.4781 15.0847 13.4696 14.5931 13.5713C14.1777 13.6476 13.7624 13.7832 13.4318 14.0545C13.4403 14.046 13.4573 14.0375 13.4657 14.0206C13.7794 13.7493 14.1862 13.5968 14.5846 13.5035C14.9152 13.4272 15.2627 13.3679 15.6102 13.3425C15.0084 13.1814 14.2625 13.1136 13.6776 13.2832C13.0758 13.4612 12.1604 14.0714 12.3045 14.8004L12.296 14.7919ZM13.8302 12.3254C14.6693 12.0541 13.9828 10.8081 14.1523 10.1809C14.3557 9.39262 14.7711 8.86711 14.8813 8.00255C14.9067 8.1636 14.9321 8.32464 14.9491 8.48568C15.0084 8.98577 15.0338 9.47738 14.9491 9.97747C14.8897 10.3928 14.7711 10.8166 14.5083 11.1556C14.5168 11.1472 14.5253 11.1302 14.5337 11.1217C14.7965 10.7997 14.9236 10.3843 15.0084 9.97747C15.0762 9.63843 15.1101 9.29091 15.1271 8.95187C15.3135 9.5452 15.4152 10.2911 15.2712 10.8759C15.1186 11.4862 14.5422 12.4271 13.8133 12.3169L13.8302 12.3254ZM14.2879 12.8085C14.61 11.9863 15.8136 12.7492 16.4493 12.622C17.2461 12.4695 17.797 12.088 18.6701 12.0287C18.509 11.9948 18.3564 11.9524 18.1954 11.927C17.6953 11.8422 17.2037 11.7829 16.7036 11.8253C16.2883 11.8592 15.856 11.9524 15.5 12.1897C15.5085 12.1813 15.5254 12.1728 15.5339 12.1643C15.873 11.927 16.2968 11.8168 16.7036 11.7659C17.0427 11.7235 17.3902 11.7066 17.7377 11.7151C17.1529 11.4947 16.4239 11.3421 15.8221 11.4523C15.2033 11.5625 14.2286 12.0795 14.2964 12.817L14.2879 12.8085ZM16.0679 10.5115C16.9325 10.3335 16.3815 9.01968 16.6104 8.4094C16.8986 7.64655 17.3647 7.17188 17.5682 6.32427C17.5766 6.48532 17.5851 6.64637 17.5851 6.81589C17.5851 7.32446 17.5597 7.81606 17.4326 8.30768C17.3308 8.71453 17.1698 9.12139 16.8731 9.435C16.8816 9.42652 16.8986 9.41805 16.907 9.4011C17.1952 9.10444 17.3732 8.70606 17.5004 8.31616C17.6021 7.98559 17.6784 7.64655 17.7292 7.3075C17.8479 7.91778 17.8733 8.66368 17.6699 9.24005C17.458 9.83338 16.7884 10.7064 16.0679 10.5199V10.5115ZM16.4663 11.037C16.8731 10.2572 17.9835 11.1387 18.6362 11.0794C19.4499 11.0116 20.0347 10.6895 20.9078 10.7234C20.7552 10.6725 20.5942 10.6217 20.4416 10.5708C19.9584 10.4267 19.4753 10.325 18.9667 10.3165C18.5514 10.3165 18.1106 10.3504 17.7292 10.5539C17.7377 10.5539 17.7546 10.5369 17.7716 10.5284C18.1361 10.325 18.5599 10.2657 18.9752 10.2487C19.3143 10.2402 19.6618 10.2572 20.0093 10.2996C19.4499 10.0199 18.7379 9.79101 18.1361 9.84186C17.5089 9.89272 16.4917 10.2996 16.4747 11.037H16.4663ZM18.4751 8.94339C19.3482 8.85015 18.9413 7.49398 19.238 6.90913C19.6024 6.18018 20.111 5.75638 20.4077 4.93419C20.4077 5.09524 20.3907 5.25629 20.3738 5.42581C20.3229 5.9259 20.2466 6.41751 20.0686 6.89217C19.9245 7.28207 19.7211 7.68045 19.399 7.95168C19.4075 7.94321 19.4244 7.93473 19.4329 7.92626C19.755 7.6635 19.9754 7.29055 20.1364 6.90913C20.272 6.59551 20.3822 6.26494 20.467 5.9259C20.5263 6.54465 20.467 7.29056 20.2043 7.8415C19.9245 8.4094 19.1702 9.20614 18.4836 8.94339H18.4751ZM18.8226 9.5113C19.3058 8.78235 20.3229 9.76557 20.9756 9.78252C21.7893 9.79948 22.3995 9.53672 23.2641 9.66386C23.12 9.59605 22.9674 9.52825 22.8149 9.46891C22.3487 9.28244 21.874 9.1214 21.3739 9.06206C20.9586 9.01121 20.5179 9.0112 20.1195 9.16377C20.1364 9.16377 20.1449 9.15529 20.1619 9.14682C20.5433 8.98577 20.9756 8.96882 21.3909 8.99425C21.7299 9.01968 22.0775 9.079 22.4165 9.15529C21.891 8.81624 21.2044 8.51959 20.6026 8.50264C19.9754 8.48569 18.9159 8.78235 18.8311 9.51977L18.8226 9.5113ZM21.0434 7.63807C21.7045 7.96864 22.5352 7.25665 22.8742 6.72265C23.1963 6.20561 23.3319 5.4682 23.3404 4.84944C23.2217 5.17153 23.0777 5.49363 22.9081 5.79029C22.7047 6.14629 22.4504 6.50228 22.1029 6.73114C22.0944 6.73114 22.0775 6.74809 22.069 6.75656C22.4165 6.51923 22.6623 6.14628 22.8488 5.77333C23.0776 5.3241 23.2048 4.84096 23.3065 4.34934C23.3404 4.1883 23.3658 4.02726 23.3912 3.86621C23.0098 4.65449 22.4589 5.02743 22.0181 5.70552C21.6621 6.25647 21.9334 7.64654 21.0519 7.64654L21.0434 7.63807ZM21.3231 8.23988C21.8825 7.56179 22.7894 8.6552 23.4421 8.73148C24.2473 8.8332 24.883 8.63826 25.7307 8.85016C25.595 8.7654 25.4509 8.68063 25.3069 8.60435C24.8661 8.36702 24.4084 8.1636 23.9168 8.05341C23.5099 7.96017 23.0692 7.90931 22.6623 8.02798C22.6793 8.02798 22.6877 8.0195 22.7047 8.01102C23.1031 7.89236 23.5353 7.91778 23.9422 7.99407C24.2812 8.0534 24.6118 8.14664 24.9424 8.26531C24.4593 7.87541 23.8066 7.51093 23.2048 7.42617C22.5775 7.34141 21.5011 7.52788 21.3316 8.24835L21.3231 8.23988ZM35.0713 60.0797C35.8342 59.6389 36.3004 60.9782 36.8767 61.2833C37.5972 61.6562 38.2583 61.7071 38.9788 62.1987C38.8771 62.0716 38.7754 61.9444 38.6652 61.8258C38.3346 61.4444 37.9786 61.0968 37.5548 60.8171C37.2073 60.5883 36.8089 60.3848 36.3851 60.3509C36.4021 60.3509 36.419 60.3509 36.4275 60.3509C36.8428 60.3764 37.2412 60.5544 37.5887 60.7663C37.8854 60.9443 38.1651 61.1477 38.4363 61.3681C38.1142 60.8341 37.6396 60.2577 37.0971 59.9695C36.5377 59.6728 35.4612 59.4694 35.0544 60.0882L35.0713 60.0797ZM35.0205 59.4186C35.8426 59.7237 36.08 58.3252 36.6055 57.9353C37.2581 57.4436 37.9023 57.2911 38.5296 56.6893C38.4533 56.8334 38.3685 56.9775 38.2838 57.1131C38.021 57.5369 37.7243 57.9437 37.3599 58.2912C37.0547 58.5794 36.6987 58.8422 36.2834 58.9439C36.3004 58.9439 36.3088 58.9439 36.3258 58.9354C36.7326 58.8422 37.0886 58.6049 37.4022 58.3336C37.665 58.1133 37.9108 57.8674 38.1397 57.6047C37.9108 58.1895 37.5294 58.8337 37.0463 59.1982C36.5462 59.5796 35.5121 59.961 35.012 59.4186H35.0205ZM37.9193 59.6305C38.2583 58.9778 39.3518 59.0626 39.9366 59.2999C40.5045 59.5287 41.0385 60.0458 41.4114 60.5459C41.1233 60.3509 40.8181 60.1814 40.513 60.0373C40.14 59.8678 39.7247 59.7322 39.3094 59.7491H39.267V59.7576C39.6908 59.7491 40.1061 59.9017 40.4791 60.0966C40.9283 60.334 41.3182 60.6391 41.6827 60.9782C41.8013 61.0884 41.92 61.1985 42.0302 61.3172C41.2589 60.9019 40.5977 60.9273 39.8434 60.6306C39.2331 60.3933 38.6313 59.1049 37.9193 59.622V59.6305ZM37.7922 58.9778C38.6398 59.1982 38.733 57.7827 39.2161 57.3419C39.8095 56.791 40.4367 56.5706 41.0046 55.901C40.9452 56.0535 40.8774 56.1976 40.8012 56.3502C40.5808 56.8079 40.335 57.2317 40.0044 57.6132C39.7247 57.9268 39.4026 58.2234 39.0042 58.3675C39.0212 58.3675 39.0297 58.3675 39.0466 58.3506C39.4365 58.215 39.7755 57.9437 40.0553 57.6386C40.2926 57.3928 40.513 57.1215 40.7079 56.8333C40.5469 57.4351 40.2333 58.1132 39.7925 58.537C39.3348 58.9693 38.3516 59.4525 37.7922 58.9693V58.9778ZM40.6995 58.893C41.3521 58.3082 42.0895 59.5203 42.7168 59.6898C43.505 59.9102 44.1577 59.8085 44.9629 60.1475C44.8358 60.0458 44.7086 59.9441 44.5815 59.8424C44.1746 59.5457 43.7593 59.2745 43.2931 59.088C42.9032 58.9354 42.4794 58.8252 42.0556 58.8761C42.0726 58.8761 42.0895 58.8761 42.098 58.8761C42.5133 58.8168 42.9287 58.9015 43.3186 59.0371C43.6407 59.1473 43.9627 59.2914 44.2679 59.4525C43.8441 58.9947 43.2507 58.537 42.6744 58.3675C42.0726 58.1895 40.9707 58.2234 40.6995 58.91V58.893ZM40.5045 58.2573C41.1063 58.6811 42.0387 58.1048 42.4455 57.6216C42.8439 57.1554 43.0812 56.4519 43.1829 55.8332C43.0134 56.1383 42.827 56.4265 42.6151 56.6977C42.3693 57.0198 42.0641 57.3335 41.6827 57.5114C41.6657 57.5114 41.6572 57.5199 41.6403 57.5284C42.0217 57.3419 42.3184 57.0113 42.5557 56.6723C42.8439 56.257 43.0473 55.8077 43.2169 55.3331C43.2762 55.1805 43.3186 55.0279 43.3694 54.8669C42.8778 55.5873 42.276 55.8755 41.742 56.4858C41.3097 56.9774 41.3691 58.3929 40.496 58.2658L40.5045 58.2573ZM43.3864 57.8674C43.5813 57.1554 44.6747 57.0113 45.2935 57.1215C45.8953 57.2317 46.531 57.6216 46.9972 58.037C46.6751 57.9098 46.3445 57.7996 46.0055 57.7234C45.6071 57.6301 45.1748 57.5877 44.768 57.6894C44.751 57.6894 44.7426 57.6894 44.7256 57.6979C45.1409 57.5962 45.5732 57.664 45.98 57.7742C46.4717 57.9098 46.9124 58.1302 47.3447 58.3929C47.4803 58.4777 47.6244 58.5625 47.76 58.6557C46.9209 58.4099 46.2767 58.571 45.4715 58.4353C44.8273 58.3252 43.9712 57.1978 43.3779 57.8505L43.3864 57.8674ZM43.1321 57.2571C44.0136 57.2911 43.8102 55.8925 44.1831 55.3585C44.6493 54.6889 45.2172 54.3498 45.6325 53.5785C45.5986 53.7396 45.5647 53.9006 45.5308 54.0532C45.4122 54.5448 45.2596 55.011 45.0138 55.4602C44.8104 55.8247 44.5561 56.1807 44.1916 56.4095C44.2001 56.4095 44.217 56.3926 44.234 56.3841C44.59 56.1722 44.8612 55.8332 45.0731 55.4772C45.2511 55.189 45.4122 54.8754 45.5478 54.5533C45.5139 55.172 45.3443 55.901 45.0053 56.4095C44.6493 56.9266 43.7848 57.6047 43.1406 57.2487L43.1321 57.2571ZM45.9546 56.5706C46.4717 55.8586 47.4464 56.8927 48.0991 56.9351C48.9128 56.9859 49.5315 56.7571 50.3961 56.9096C50.252 56.8333 50.1079 56.7571 49.9553 56.6977C49.4976 56.4858 49.0315 56.3078 48.5314 56.2315C48.116 56.1637 47.6753 56.1383 47.2769 56.2824C47.2939 56.2824 47.3023 56.2739 47.3193 56.2655C47.7092 56.1214 48.1415 56.1214 48.5483 56.1722C48.8874 56.2146 49.2264 56.2824 49.5654 56.3757C49.0569 56.0197 48.3873 55.6891 47.777 55.6467C47.1498 55.6043 46.0818 55.8586 45.9546 56.5876V56.5706ZM45.6325 55.9857C46.5141 55.9349 46.1581 54.5618 46.4802 53.9854C46.8785 53.2734 47.404 52.875 47.7346 52.0613C47.7177 52.2223 47.7007 52.3834 47.6838 52.5444C47.6159 53.0445 47.5142 53.5277 47.3108 53.9938C47.1498 54.3753 46.9294 54.7652 46.5903 55.0279C46.5988 55.0195 46.6158 55.011 46.6242 55.0025C46.9548 54.7567 47.1921 54.3837 47.3701 54.0193C47.5142 53.7141 47.6414 53.3836 47.7431 53.053C47.777 53.6718 47.6838 54.4177 47.3956 54.9516C47.0989 55.5026 46.3022 56.2739 45.6241 55.9773L45.6325 55.9857ZM48.3703 55.0025C48.8111 54.2397 49.8875 55.172 50.5402 55.1381C51.3539 55.1042 51.9472 54.8076 52.8203 54.8754C52.6677 54.816 52.5151 54.7567 52.3626 54.7059C51.8879 54.5448 51.4048 54.4177 50.9047 54.3922C50.4894 54.3668 50.0486 54.3922 49.6587 54.5702C49.6672 54.5702 49.6841 54.5533 49.7011 54.5533C50.074 54.3668 50.5063 54.3244 50.9131 54.3329C51.2522 54.3329 51.5997 54.3753 51.9472 54.4346C51.4048 54.1295 50.7012 53.8752 50.091 53.8921C49.4637 53.9091 48.4212 54.2821 48.3788 55.0195L48.3703 55.0025ZM47.9889 54.46C48.8535 54.316 48.3619 52.9852 48.6246 52.3834C48.9467 51.6375 49.4298 51.1798 49.6672 50.3406C49.6672 50.5017 49.6672 50.6628 49.6672 50.8323C49.6502 51.3324 49.5993 51.8325 49.4552 52.3156C49.3281 52.714 49.1586 53.1208 48.845 53.4175C48.8534 53.409 48.8704 53.4005 48.8789 53.3836C49.184 53.1039 49.379 52.714 49.5146 52.3241C49.6333 52.002 49.718 51.6629 49.7858 51.3239C49.8791 51.9426 49.8706 52.6885 49.6417 53.248C49.4044 53.8328 48.6924 54.6719 47.9889 54.4516V54.46ZM50.608 53.1971C50.964 52.3919 52.1337 53.1971 52.7779 53.1039C53.5831 52.9852 54.1425 52.6292 55.0156 52.6038C54.8545 52.5614 54.702 52.519 54.5409 52.4851C54.0493 52.3749 53.5577 52.2986 53.0576 52.3241C52.6423 52.341 52.2015 52.4173 51.837 52.6377C51.8455 52.6377 51.8625 52.6207 51.8709 52.6123C52.2185 52.3919 52.6423 52.2986 53.0576 52.2647C53.3966 52.2308 53.7442 52.2308 54.0917 52.2563C53.5153 52.0104 52.7948 51.8325 52.193 51.9172C51.5658 52.002 50.5741 52.4766 50.608 53.2141V53.1971ZM50.1757 52.697C51.0233 52.4597 50.3961 51.1883 50.591 50.561C50.8284 49.7812 51.2607 49.2811 51.4132 48.4166C51.4302 48.5776 51.4471 48.7387 51.4641 48.8997C51.498 49.3998 51.5065 49.8999 51.4048 50.3915C51.32 50.8068 51.1929 51.2222 50.9131 51.5527C50.9216 51.5443 50.9301 51.5273 50.9471 51.5188C51.2183 51.2052 51.3709 50.7984 51.4726 50.4C51.5489 50.0694 51.6082 49.7219 51.6336 49.3744C51.7947 49.9762 51.8625 50.7221 51.693 51.3069C51.515 51.9087 50.9047 52.8242 50.1757 52.6801V52.697ZM52.6423 51.1713C52.9135 50.3322 54.1595 51.0187 54.7867 50.8577C55.575 50.6543 56.1005 50.2389 56.9651 50.1287C56.804 50.1033 56.643 50.0779 56.4819 50.0609C55.9819 50.0016 55.4902 49.9762 54.9901 50.0609C54.5748 50.1203 54.151 50.2389 53.812 50.5017C53.8205 50.4932 53.8374 50.4847 53.8459 50.4763C54.168 50.2135 54.5833 50.0864 54.9901 50.0016C55.3292 49.9338 55.6767 49.8999 56.0158 49.883C55.4224 49.6965 54.6765 49.5948 54.0917 49.7389C53.4814 49.8914 52.5406 50.4593 52.6508 51.1967L52.6423 51.1713ZM52.1591 50.7136C52.9813 50.3915 52.2185 49.1964 52.3456 48.5522C52.4982 47.7555 52.8796 47.2045 52.9389 46.3399C52.9728 46.501 53.0152 46.6535 53.0406 46.8146C53.1254 47.3147 53.1847 47.8063 53.1424 48.3064C53.1085 48.7217 53.0152 49.154 52.7779 49.51C52.7864 49.5015 52.7948 49.4846 52.8033 49.4761C53.0407 49.1371 53.1508 48.7132 53.2017 48.3064C53.2441 47.9673 53.261 47.6198 53.2526 47.2723C53.4729 47.8572 53.6255 48.5861 53.5153 49.1879C53.4051 49.8067 52.8881 50.7814 52.1507 50.7136H52.1591ZM54.4561 48.9336C54.6426 48.069 55.9479 48.62 56.5582 48.3912C57.3211 48.103 57.7957 47.6453 58.6433 47.4418C58.4823 47.4334 58.3213 47.4249 58.1517 47.4249C57.6516 47.4249 57.1516 47.4503 56.6599 47.5775C56.2531 47.6792 55.8462 47.8402 55.5326 48.1369C55.5411 48.1284 55.5496 48.1115 55.5665 48.103C55.8632 47.8148 56.2616 47.6368 56.6515 47.5181C56.982 47.4164 57.3211 47.3401 57.6601 47.2893C57.0499 47.1706 56.3039 47.1452 55.7276 47.3486C55.1342 47.5605 54.2612 48.2301 54.4477 48.9421L54.4561 48.9336ZM53.9306 48.5353C54.7104 48.1284 53.8289 47.018 53.8883 46.3654C53.9561 45.5517 54.2782 44.9668 54.2527 44.1023C54.3036 44.2548 54.3544 44.4074 54.4053 44.5684C54.5494 45.0516 54.6511 45.5347 54.6596 46.0433C54.6596 46.4586 54.6257 46.8994 54.4223 47.2808C54.4223 47.2638 54.4392 47.2553 54.4477 47.2384C54.6511 46.8739 54.7104 46.4501 54.7274 46.0348C54.7359 45.6958 54.7189 45.3482 54.6765 45.0007C54.9562 45.5601 55.1766 46.2721 55.1342 46.8739C55.0834 47.5012 54.6765 48.5183 53.9391 48.5353H53.9306ZM56.0327 46.5264C56.1259 45.6534 57.4821 46.0602 58.067 45.772C58.7959 45.4076 59.2197 44.899 60.0419 44.6023C59.8809 44.6023 59.7198 44.6193 59.5503 44.6362C59.0502 44.6871 58.5586 44.7634 58.0839 44.9414C57.694 45.0855 57.2957 45.2889 57.0244 45.611C57.0329 45.6025 57.0414 45.5856 57.0499 45.5771C57.3126 45.255 57.6855 45.0431 58.067 44.882C58.3806 44.7464 58.7112 44.6362 59.0502 44.5515C58.4314 44.4921 57.6855 44.5515 57.1346 44.8142C56.5667 45.0855 55.77 45.8483 56.0327 46.5349V46.5264ZM55.4648 46.1789C56.2022 45.6957 55.2105 44.6786 55.1936 44.026C55.1766 43.2123 55.4394 42.602 55.3122 41.7374C55.38 41.8815 55.4479 42.0341 55.5072 42.1866C55.6937 42.6528 55.8547 43.1275 55.914 43.6276C55.9649 44.0429 55.9649 44.4837 55.8123 44.882C55.8123 44.8651 55.8208 44.8566 55.8293 44.8397C55.9903 44.4582 56.0073 44.026 55.9819 43.6106C55.9564 43.2716 55.8971 42.9241 55.8208 42.585C56.1599 43.1105 56.4565 43.7971 56.4735 44.4074C56.4904 45.0346 56.1938 46.0941 55.4563 46.1789H55.4648ZM57.338 43.9581C57.338 43.0766 58.7281 43.3479 59.279 42.9919C59.9656 42.5511 60.3386 42.0002 61.1269 41.6272C60.9658 41.6526 60.8048 41.6781 60.6437 41.712C60.1521 41.8137 59.669 41.9408 59.2197 42.1697C58.8468 42.3562 58.4738 42.602 58.2365 42.9495C58.2365 42.941 58.2535 42.9241 58.2619 42.9156C58.4908 42.5681 58.8383 42.3138 59.2028 42.1104C59.4994 41.9408 59.8215 41.7967 60.1436 41.6781C59.5164 41.6781 58.7874 41.8137 58.2704 42.1358C57.7364 42.4664 57.0244 43.3055 57.355 43.9666L57.338 43.9581ZM56.7362 43.6784C57.4567 43.5174 57.6432 42.4325 57.5669 41.8052C57.4906 41.2034 57.1177 40.5508 56.7278 40.0676C56.8379 40.3982 56.9312 40.7288 56.9905 41.0678C57.0668 41.4746 57.0922 41.9069 56.9735 42.3053C56.9735 42.3223 56.9651 42.3307 56.9566 42.3477C57.0753 41.9408 57.0244 41.5001 56.9312 41.0932C56.821 40.6016 56.6176 40.1524 56.3802 39.7032C56.3039 39.5591 56.2192 39.415 56.1344 39.2794C56.3463 40.127 56.1514 40.7627 56.2531 41.5679C56.3294 42.2121 57.4228 43.119 56.7447 43.6784H56.7362ZM58.3721 41.2797C58.2789 40.4067 59.6944 40.5253 60.203 40.1185C60.8387 39.6099 61.1523 39.0251 61.8982 38.5674C61.7371 38.6097 61.5846 38.6521 61.432 38.703C60.9489 38.8556 60.4911 39.0335 60.0589 39.3048C59.7029 39.5336 59.3638 39.8134 59.1604 40.1863C59.1604 40.1693 59.1689 40.1609 59.1773 40.1439C59.3723 39.771 59.6944 39.4828 60.0249 39.2454C60.3047 39.0505 60.6098 38.8725 60.915 38.7199C60.2962 38.7962 59.5757 38.9996 59.1011 39.3726C58.601 39.7625 57.9822 40.6609 58.3806 41.2882L58.3721 41.2797ZM57.7449 41.0593C58.3636 40.4321 57.177 39.6438 57.0329 39.0081C56.8549 38.2114 56.9736 37.5587 56.6769 36.7365C56.7786 36.8637 56.8718 36.9993 56.9651 37.1349C57.2448 37.5502 57.4991 37.9825 57.6601 38.4572C57.7957 38.8555 57.889 39.2878 57.8127 39.7032C57.8127 39.6862 57.8127 39.6777 57.8212 39.6608C57.8974 39.2539 57.8212 38.8216 57.711 38.4317C57.6178 38.1012 57.4906 37.7791 57.338 37.4655C57.7788 37.9062 58.2111 38.5165 58.3552 39.1098C58.5077 39.7201 58.4314 40.822 57.7279 41.0593H57.7449ZM59.118 38.4995C58.9315 37.635 60.3555 37.6096 60.8217 37.1518C61.3981 36.5839 61.6523 35.9652 62.3389 35.4312C62.1863 35.4905 62.0338 35.5499 61.8812 35.6092C61.415 35.8126 60.9827 36.033 60.5844 36.3551C60.2538 36.6178 59.9487 36.9315 59.7792 37.3214C59.7792 37.3044 59.7876 37.2959 59.7961 37.279C59.9487 36.8891 60.2368 36.567 60.5505 36.2958C60.8047 36.0754 61.093 35.8635 61.3812 35.677C60.7709 35.8126 60.0843 36.0923 59.6435 36.5161C59.1858 36.9569 58.6603 37.9147 59.1265 38.4995H59.118ZM58.4738 38.347C59.1434 38.0334 59.1095 36.94 58.8976 36.3466C58.6942 35.7703 58.1941 35.2108 57.7194 34.8209C57.8974 35.1176 58.0585 35.4312 58.1856 35.7448C58.3467 36.1262 58.4569 36.5416 58.423 36.9569C58.423 36.9739 58.423 36.9908 58.423 36.9993C58.4569 36.5755 58.3128 36.1517 58.1348 35.7787C57.9229 35.321 57.6262 34.9226 57.3041 34.5327C57.2024 34.4056 57.0922 34.2869 56.982 34.1683C57.3635 34.9565 57.3126 35.6177 57.5754 36.389C57.7873 37.0078 59.0417 37.6689 58.4993 38.3555L58.4738 38.347ZM59.5757 35.6601C59.0587 35.1345 59.474 34.1174 59.8809 33.6343C60.2708 33.1681 60.9319 32.8205 61.5252 32.6171C61.254 32.829 60.9997 33.0664 60.7624 33.3207C60.4827 33.6173 60.2284 33.9733 60.1182 34.3717C60.1182 34.3886 60.1182 34.3971 60.1097 34.4141C60.2284 34.0072 60.5081 33.6597 60.8048 33.3715C61.1692 33.0155 61.5761 32.7443 62.0169 32.4985C62.161 32.4222 62.305 32.3459 62.4491 32.2696C61.8134 32.8714 61.6354 33.5071 61.1184 34.1428C60.703 34.6514 59.296 34.8294 59.5673 35.6601H59.5757ZM58.9146 35.5753C59.3892 34.8294 58.067 34.3124 57.7957 33.719C57.4482 32.9816 57.4397 32.312 56.9735 31.5746C57.1007 31.6848 57.2194 31.7865 57.338 31.9051C57.7025 32.2527 58.0331 32.6171 58.2958 33.0579C58.5077 33.4139 58.6942 33.8207 58.7112 34.2445V34.2022C58.7112 33.7868 58.5416 33.38 58.3467 33.024C58.1856 32.7273 57.9907 32.4307 57.7873 32.1594C58.3043 32.4985 58.8552 33.007 59.118 33.558C59.3892 34.1259 59.5418 35.2108 58.9146 35.5922V35.5753ZM59.7283 32.7867C59.3723 31.9814 60.7539 31.6593 61.1099 31.1169C61.5591 30.4388 61.6693 29.7777 62.2372 29.1165C62.1016 29.2013 61.966 29.2945 61.8304 29.3877C61.415 29.6844 61.0336 29.9896 60.7115 30.3879C60.4487 30.71 60.2029 31.083 60.1267 31.4983C60.1267 31.4813 60.1267 31.4644 60.1267 31.4559C60.1945 31.049 60.4148 30.6676 60.6607 30.3455C60.8641 30.0743 61.1014 29.8116 61.3472 29.5657C60.7793 29.8285 60.1606 30.2438 59.8215 30.7524C59.4655 31.2779 59.1519 32.329 59.7283 32.7951V32.7867ZM59.0671 32.7697C59.6605 32.329 59.3892 31.261 59.0671 30.727C58.7451 30.2099 58.1517 29.7607 57.5923 29.481C57.8296 29.7353 58.05 30.0065 58.245 30.2862C58.4738 30.6252 58.6772 31.0067 58.7281 31.422C58.7281 31.439 58.7281 31.4559 58.7281 31.4644C58.6688 31.0406 58.4484 30.6592 58.1941 30.3286C57.889 29.9217 57.5245 29.5912 57.1261 29.286C56.999 29.1843 56.8634 29.0911 56.7362 28.9978C57.2702 29.6844 57.355 30.3455 57.7788 31.0406C58.1178 31.6 59.4825 31.9814 59.0841 32.7697H59.0671ZM59.5842 29.9133C58.9654 29.5064 59.1689 28.43 59.4655 27.8705C59.7537 27.3365 60.3216 26.8534 60.8556 26.5313C60.6352 26.794 60.4318 27.0822 60.2538 27.3789C60.0419 27.7349 59.8639 28.1248 59.8385 28.5401C59.8385 28.5571 59.8385 28.574 59.8385 28.5825C59.8724 28.1587 60.0673 27.7603 60.3047 27.4128C60.5844 26.989 60.9319 26.6415 61.3133 26.3024C61.432 26.1923 61.5591 26.0905 61.6863 25.9888C61.1947 26.7093 61.1523 27.3704 60.7708 28.0994C60.4742 28.6757 59.135 29.1504 59.5673 29.9048L59.5842 29.9133ZM58.9231 29.9726C59.2282 29.1504 57.8296 28.9131 57.4397 28.3876C56.9481 27.7349 56.7956 27.0907 56.1938 26.4635C56.3379 26.5398 56.4735 26.6245 56.6176 26.7093C57.0414 26.9721 57.4482 27.2603 57.7957 27.6332C58.0839 27.9383 58.3382 28.2943 58.4484 28.7097C58.4484 28.6927 58.4484 28.6842 58.4399 28.6673C58.3467 28.2604 58.1094 27.9044 57.8381 27.5908C57.6177 27.328 57.3719 27.0823 57.1092 26.8619C57.6855 27.0907 58.3382 27.4721 58.7027 27.9468C59.0841 28.4469 59.4655 29.481 58.9231 29.9811V29.9726ZM59.135 27.0738C58.6179 26.3618 59.8978 25.76 60.1351 25.1497C60.4318 24.3953 60.4064 23.7257 60.8217 22.9629C60.703 23.073 60.5928 23.1917 60.4827 23.3104C60.1436 23.6833 59.83 24.0647 59.6011 24.514C59.4062 24.8869 59.2536 25.3023 59.2621 25.7261C59.2621 25.7091 59.2621 25.7006 59.2621 25.6837C59.2452 25.2684 59.3808 24.853 59.5503 24.4801C59.6944 24.1665 59.8639 23.8698 60.0589 23.5816C59.5588 23.9546 59.0417 24.497 58.8129 25.0565C58.5755 25.6413 58.4908 26.7347 59.1435 27.0738H59.135ZM58.4823 27.2009C58.9654 26.6415 58.4823 25.6582 58.05 25.2005C57.6262 24.7598 56.9481 24.4462 56.3463 24.2851C56.626 24.4801 56.9058 24.7004 57.1516 24.9378C57.4482 25.2175 57.7279 25.5565 57.8636 25.9464C57.8636 25.9634 57.872 25.9719 57.8805 25.9888C57.7364 25.5905 57.4397 25.2599 57.1177 24.9886C56.7362 24.6581 56.304 24.4123 55.8547 24.1919C55.7106 24.1241 55.5581 24.0563 55.4055 23.9885C56.0751 24.5479 56.2955 25.1751 56.8464 25.7769C57.2956 26.2516 58.7112 26.3448 58.4908 27.2009H58.4823ZM58.3891 24.2936C57.7025 24.0224 57.6686 22.929 57.8466 22.3187C58.0161 21.7338 58.4738 21.1405 58.9315 20.7167C58.7705 21.0218 58.6349 21.3439 58.5162 21.666C58.3806 22.0559 58.2958 22.4797 58.3552 22.8866C58.3552 22.9035 58.3552 22.9205 58.3552 22.9289C58.2958 22.5051 58.4145 22.0813 58.5671 21.6914C58.7535 21.2168 59.0163 20.8015 59.3214 20.3946C59.4147 20.2675 59.5164 20.1403 59.6266 20.0132C59.296 20.8184 59.3893 21.4795 59.1689 22.2593C58.9994 22.8866 57.7788 23.624 58.3721 24.2766L58.3891 24.2936ZM57.7534 24.4885C57.8805 23.6155 56.465 23.6748 55.9734 23.2426C55.3631 22.7086 55.0749 22.1068 54.3544 21.6152C54.507 21.666 54.6681 21.7084 54.8206 21.7677C55.2953 21.9372 55.7445 22.1407 56.1598 22.4289C56.5074 22.6662 56.8295 22.9629 57.0244 23.3443C57.0244 23.3273 57.0159 23.3189 57.0075 23.3019C56.8295 22.9205 56.5243 22.6238 56.1938 22.3695C55.9225 22.1576 55.6259 21.9712 55.3292 21.8016C55.948 21.9034 56.6515 22.1407 57.1177 22.5306C57.6008 22.9374 58.1772 23.8698 57.7534 24.4716V24.4885ZM57.3635 21.6067C56.7108 21.0218 57.8381 20.1573 57.9483 19.5131C58.0839 18.7079 57.9144 18.0637 58.1602 17.2245C58.067 17.3602 57.9822 17.4958 57.8975 17.6399C57.6432 18.0722 57.4143 18.5129 57.2872 19.0045C57.177 19.4114 57.1092 19.8437 57.2109 20.259C57.2109 20.242 57.2109 20.2336 57.2024 20.2166C57.1007 19.8097 57.1431 19.3859 57.2363 18.9791C57.3126 18.6485 57.4143 18.3095 57.5499 17.9874C57.1431 18.4536 56.7447 19.0893 56.6345 19.6911C56.5243 20.3098 56.6684 21.4033 57.3804 21.5982L57.3635 21.6067ZM56.7532 21.861C57.1092 21.2168 56.4396 20.3522 55.914 19.9962C55.4139 19.6572 54.685 19.4877 54.0578 19.4538C54.3799 19.5894 54.685 19.7504 54.9817 19.9284C55.3292 20.1403 55.6682 20.4116 55.8886 20.7676C55.8886 20.7845 55.9056 20.793 55.914 20.8099C55.6852 20.4455 55.3292 20.1912 54.9647 19.9878C54.524 19.7419 54.0493 19.5894 53.5577 19.4707C53.3966 19.4283 53.2441 19.3944 53.083 19.369C53.8543 19.7758 54.2019 20.3437 54.863 20.8184C55.397 21.1914 56.804 20.9879 56.7616 21.8694L56.7532 21.861ZM56.0581 19.0384C55.3461 18.5214 56.3802 17.5466 56.4141 16.894C56.465 16.0803 56.2362 15.4615 56.3887 14.597C56.3124 14.741 56.2361 14.8851 56.1683 15.0377C55.9564 15.4954 55.7869 15.9616 55.7021 16.4617C55.6343 16.877 55.6089 17.3178 55.753 17.7162C55.753 17.6992 55.7445 17.6907 55.736 17.6738C55.5919 17.2839 55.592 16.8516 55.6428 16.4447C55.6852 16.1057 55.753 15.7667 55.8462 15.4276C55.4902 15.9362 55.1597 16.6058 55.1173 17.2161C55.0749 17.8433 55.3292 18.9113 56.0581 19.03V19.0384ZM55.4733 19.3605C55.4224 18.479 54.0408 18.835 53.4729 18.5129C52.7609 18.1145 52.3541 17.589 51.5488 17.2584C51.7099 17.2754 51.8709 17.2924 52.032 17.3093C52.5321 17.3771 53.0152 17.4788 53.4814 17.6738C53.8713 17.8348 54.2527 18.0552 54.5155 18.3942C54.507 18.3858 54.4985 18.3688 54.4901 18.3603C54.2442 18.0298 53.8713 17.7924 53.5068 17.6229C53.2017 17.4788 52.8711 17.3517 52.5406 17.25C53.1593 17.2161 53.9052 17.3093 54.4392 17.5975C54.9986 17.8942 55.7615 18.6824 55.4648 19.369L55.4733 19.3605ZM54.4901 16.6227C53.7272 16.182 54.6511 15.1055 54.6257 14.4529C54.5918 13.6391 54.2951 13.0458 54.3629 12.1728C54.3036 12.3254 54.2442 12.4779 54.1934 12.6305C54.0323 13.1052 53.9052 13.5883 53.8798 14.0969C53.8543 14.5122 53.8798 14.9529 54.0662 15.3428C54.0662 15.3259 54.0493 15.3174 54.0408 15.3005C53.8544 14.9275 53.812 14.4952 53.812 14.0884C53.812 13.7493 53.8544 13.4018 53.9137 13.0543C53.6085 13.5968 53.3543 14.3003 53.3797 14.9106C53.4051 15.5378 53.7696 16.5804 54.507 16.6227H54.4901ZM53.9476 17.0042C53.8035 16.1396 52.4727 16.6312 51.8709 16.3769C51.125 16.0548 50.6673 15.5717 49.8282 15.3344C49.9892 15.3344 50.1503 15.3344 50.3198 15.3344C50.8199 15.3513 51.32 15.4022 51.8031 15.5463C52.2015 15.6649 52.6084 15.8429 52.905 16.1481C52.8966 16.1396 52.8881 16.1226 52.8711 16.1142C52.5914 15.809 52.2015 15.6141 51.8116 15.4785C51.4895 15.3683 51.1505 15.275 50.8114 15.2072C51.4302 15.114 52.1761 15.1225 52.7355 15.3513C53.3203 15.5887 54.1595 16.2922 53.9476 17.0042ZM52.6846 14.3851C51.8794 14.0291 52.6847 12.8593 52.5914 12.2152C52.4728 11.4099 52.1168 10.8505 52.0913 9.97747C52.049 10.13 52.0066 10.2911 51.9727 10.4521C51.8625 10.9438 51.7862 11.4354 51.8116 11.9355C51.8286 12.3508 51.9048 12.7915 52.1252 13.156C52.1252 13.1475 52.1083 13.1306 52.0998 13.1221C51.8794 12.7746 51.7862 12.3508 51.7523 11.9355C51.7184 11.5964 51.7184 11.2489 51.7438 10.9014C51.498 11.4777 51.32 12.1982 51.4048 12.8C51.4895 13.4272 51.9642 14.419 52.7016 14.3851H52.6846ZM52.1846 14.8173C51.9472 13.9697 50.6758 14.597 50.0571 14.4105C49.2773 14.1731 48.7772 13.7409 47.9126 13.5883C48.0737 13.5713 48.2347 13.5459 48.3957 13.5374C48.8958 13.5035 49.3959 13.4951 49.8875 13.5968C50.3029 13.6731 50.7182 13.8087 51.0488 14.0799C51.0403 14.0714 51.0233 14.063 51.0149 14.046C50.7012 13.7748 50.2944 13.6222 49.896 13.529C49.5655 13.4527 49.2179 13.3933 48.8704 13.3679C49.4722 13.2069 50.2181 13.1391 50.8029 13.3086C51.4048 13.4866 52.3202 14.0969 52.1761 14.8258L52.1846 14.8173ZM50.6504 12.3508C49.8112 12.0795 50.4978 10.8336 50.3283 10.2063C50.1249 9.41805 49.7095 8.89254 49.5994 8.02798C49.5739 8.18902 49.5485 8.35006 49.5315 8.51111C49.4722 9.0112 49.4468 9.50282 49.5315 10.0114C49.5993 10.4267 49.7095 10.8505 49.9723 11.1896C49.9638 11.1811 49.9554 11.1641 49.9469 11.1556C49.6841 10.8336 49.557 10.4182 49.4722 10.0114C49.4044 9.67234 49.3705 9.32481 49.3535 8.98577C49.1671 9.5791 49.0654 10.325 49.2179 10.9098C49.3705 11.5201 49.9469 12.461 50.6758 12.3508H50.6504ZM50.1927 12.8339C49.8706 12.0117 48.6755 12.7746 48.0313 12.6474C47.2345 12.4949 46.6836 12.1135 45.8105 12.0541C45.9716 12.0202 46.1242 11.9778 46.2852 11.9524C46.7853 11.8676 47.2769 11.8083 47.777 11.8507C48.1923 11.8846 48.6246 11.9778 48.9806 12.2152C48.9721 12.2067 48.9552 12.1982 48.9467 12.1897C48.6076 11.9524 48.1839 11.8422 47.777 11.7914C47.438 11.749 47.0904 11.732 46.7429 11.7405C47.3278 11.5201 48.0567 11.3676 48.6585 11.4777C49.2773 11.5879 50.252 12.105 50.1842 12.8424L50.1927 12.8339ZM48.4127 10.5369C47.5481 10.3589 48.0991 9.04511 47.8702 8.43483C47.582 7.67198 47.1158 7.19731 46.9124 6.3497C46.9039 6.51075 46.8955 6.67179 46.8955 6.84132C46.8955 7.34988 46.9209 7.8415 47.048 8.33312C47.1498 8.73997 47.3108 9.14681 47.6075 9.46043L47.5736 9.42653C47.2854 9.12987 47.1074 8.73149 46.9802 8.34159C46.8785 8.01102 46.8022 7.67198 46.7514 7.33293C46.6327 7.94321 46.6073 8.68911 46.8107 9.26548C47.0226 9.85881 47.6922 10.7319 48.4127 10.5454V10.5369ZM48.0143 11.0624C47.6075 10.2826 46.4971 11.1641 45.8445 11.1048C45.0307 11.037 44.4544 10.7149 43.5813 10.7488C43.7339 10.6979 43.8949 10.6471 44.0475 10.5962C44.5306 10.4521 45.0138 10.3504 45.5224 10.3419C45.9462 10.3419 46.3784 10.3759 46.7599 10.5793C46.7514 10.5793 46.7344 10.5623 46.7175 10.5539C46.353 10.3504 45.9292 10.2911 45.5139 10.2741C45.1748 10.2657 44.8273 10.2826 44.4798 10.325C45.0392 10.0453 45.7512 9.81643 46.353 9.86729C46.9802 9.91815 47.9974 10.325 48.0143 11.0624ZM46.0055 8.96883C45.1325 8.87559 45.5393 7.51941 45.2426 6.93455C44.8782 6.20561 44.3696 5.7818 44.0729 4.95962C44.0729 5.12067 44.0899 5.28172 44.1068 5.45124C44.1577 5.95133 44.234 6.44294 44.412 6.9176C44.5561 7.3075 44.7595 7.70588 45.0816 7.97711C45.0731 7.96863 45.0562 7.96016 45.0477 7.95168C44.7256 7.68893 44.5137 7.31598 44.3442 6.93455C44.2085 6.62094 44.0984 6.29037 44.0136 5.95132C43.9543 6.57008 44.0136 7.31598 44.2764 7.86693C44.5561 8.43483 45.3104 9.23159 45.997 8.96883H46.0055ZM45.658 9.53672C45.5732 8.7993 44.5137 8.50263 43.8865 8.51958C43.2762 8.53653 42.5896 8.8332 42.0726 9.17224C42.4116 9.09596 42.7507 9.03662 43.0982 9.0112C43.505 8.97729 43.9373 8.99425 44.3272 9.16377C44.3442 9.16377 44.3526 9.17225 44.3696 9.18073C43.9712 9.01968 43.5305 9.02815 43.1151 9.07901C42.6151 9.13834 42.1404 9.29939 41.6742 9.48587C41.5216 9.5452 41.3775 9.61301 41.225 9.68082C42.0895 9.56215 42.6998 9.81643 43.522 9.79948C44.1746 9.791 45.1918 8.79929 45.6749 9.52824L45.658 9.53672ZM43.4372 7.6635C42.5557 7.6635 42.8185 6.27343 42.471 5.72248C42.0302 5.03591 41.4793 4.66297 41.0978 3.88317C41.1233 4.04421 41.1487 4.20525 41.1826 4.3663C41.2843 4.85791 41.4114 5.34106 41.6403 5.79029C41.8268 6.16324 42.0726 6.53618 42.4201 6.77351C42.4116 6.77351 42.3947 6.75656 42.3862 6.74808C42.0387 6.51922 41.7844 6.1717 41.581 5.80723C41.4115 5.51057 41.2673 5.18848 41.1487 4.86638C41.1572 5.49362 41.2928 6.22257 41.6149 6.73961C41.9454 7.2736 42.7846 7.9856 43.4457 7.65503L43.4372 7.6635Z" fill="#333333"/>
<path fill-rule="evenodd" clip-rule="evenodd" d="M32.2402 2.55273C32.4418 4.82179 34.3391 6.6125 36.6765 6.68767C34.3391 6.76283 32.4414 8.55355 32.2402 10.8226C32.0387 8.55355 30.1413 6.76283 27.804 6.68767C30.1413 6.6125 32.039 4.82179 32.2402 2.55273Z" fill="#E49716"/>
</svg>
