<svg width="65" height="64" viewBox="0 0 65 64" fill="none" xmlns="http://www.w3.org/2000/svg">
<g clip-path="url(#clip0_533_4388)">
<rect x="0.240234" width="64" height="64" rx="32" fill="white"/>
<g clip-path="url(#clip1_533_4388)">
<path fill-rule="evenodd" clip-rule="evenodd" d="M18.5842 10.6716C17.1912 11.6018 15.8973 12.671 14.7206 13.858C10.2338 18.3871 7.45745 24.6431 7.45745 31.5515C7.45745 38.4599 10.2327 44.717 14.7206 49.2461C19.2086 53.7763 25.4104 56.5786 32.2591 56.5786C39.1079 56.5786 45.3085 53.7763 49.7976 49.2461C54.2855 44.718 57.0608 38.461 57.0608 31.5515C57.0608 24.6421 54.2855 18.3861 49.7976 13.858C48.607 12.6562 47.2958 11.5755 45.8834 10.6369V11.021C47.2086 11.9186 48.4422 12.9435 49.5661 14.0779C53.996 18.5492 56.7367 24.7273 56.7367 31.5515C56.7367 38.3758 53.997 44.5539 49.5661 49.0251C45.1374 53.4953 39.0185 56.2608 32.2602 56.2608C25.5019 56.2608 19.3819 53.4953 14.9532 49.0251C10.5233 44.5539 7.78364 38.3758 7.78364 31.5515C7.78364 24.7273 10.5233 18.5502 14.9532 14.0779C16.0631 12.9583 17.2795 11.9449 18.5853 11.0557V10.6716H18.5842ZM38.7343 61.8612C37.8505 61.8181 33.9589 61.394 34.2862 57.2658C34.2862 57.2658 38.9819 57.0806 38.9119 61.7728C38.3909 60.9362 37.731 60.1838 36.9947 59.4767C36.2196 58.7306 35.3562 58.0308 34.4821 57.3342L34.3561 57.4857C35.2238 58.1781 36.0807 58.8716 36.8547 59.6166C37.576 60.3101 38.223 61.0467 38.7332 61.8623L38.7343 61.8612ZM36.2508 50.0353C36.1561 50.9877 35.9042 51.9263 35.5651 52.8587C35.2012 53.8594 34.7415 54.8497 34.27 55.843L34.4498 55.9251C34.9245 54.9254 35.3885 53.9268 35.7524 52.925C36.0979 51.9737 36.3552 51.015 36.45 50.0396C38.6105 54.2299 34.3034 56.0682 34.3034 56.0682C32.1644 52.4956 35.4746 50.451 36.2497 50.0353H36.2508ZM42.4321 9.08365C43.0048 9.3541 43.5689 9.63191 44.0985 9.94234C44.5012 10.1791 44.8844 10.4348 45.2343 10.7221V10.7379C42.5914 11.2304 42.4396 9.23519 42.4321 9.08365ZM45.2203 10.5453C45.1524 10.0602 44.7714 8.83215 42.6528 9.04682C43.1738 9.29517 43.6852 9.55088 44.1653 9.8329C44.5367 10.0507 44.8919 10.2854 45.2203 10.5453ZM45.0125 7.97031C45.3387 8.50804 45.6702 9.0363 46.0341 9.52878C46.3108 9.90235 46.6057 10.2559 46.9287 10.5737L46.9448 10.5716C47.2236 7.944 45.1686 7.96505 45.0125 7.97031ZM46.7478 10.5737C46.4529 10.2749 46.1827 9.9476 45.9275 9.60244C45.5981 9.15626 45.2924 8.67746 44.9942 8.18919C44.9554 10.2801 46.2451 10.5485 46.7478 10.5727V10.5737ZM45.1072 12.2722C45.6799 12.5426 46.244 12.8204 46.7747 13.1308C47.1774 13.3676 47.5606 13.6233 47.9094 13.9106V13.9264C45.2666 14.4189 45.1148 12.4237 45.1072 12.2722ZM47.8943 13.7349C47.566 13.4739 47.2118 13.2403 46.8404 13.0214C46.3592 12.7404 45.8479 12.4837 45.3268 12.2353C47.4454 12.0217 47.8265 13.2487 47.8943 13.7349ZM47.7102 9.36567C47.8652 9.38672 49.8934 9.71188 49.156 12.2532H49.1398C48.8772 11.8839 48.6489 11.4871 48.4422 11.0725C48.171 10.5264 47.9363 9.9497 47.7102 9.36567ZM48.9611 12.2227C48.4702 12.1122 47.2473 11.6313 47.6542 9.57824C47.862 10.1086 48.0784 10.6316 48.3249 11.1272C48.5155 11.5103 48.7243 11.8775 48.9611 12.2216V12.2227ZM50.1733 10.6747C50.3412 10.7305 52.5319 11.524 51.1443 14.2021L51.1271 14.1968C50.915 13.7307 50.7492 13.2403 50.6103 12.7331C50.4295 12.0659 50.296 11.3735 50.1733 10.6737V10.6747ZM50.9344 14.1263C50.4101 13.899 49.1538 13.1035 50.0635 10.8999C50.1776 11.5366 50.3025 12.1659 50.4672 12.7709C50.5942 13.2382 50.746 13.6917 50.9344 14.1263ZM47.6499 14.743C48.3357 15.0671 49.0117 15.3996 49.6469 15.7721C50.1302 16.0552 50.5877 16.3614 51.0065 16.7066V16.7245C47.8405 17.3138 47.6596 14.9261 47.6499 14.743ZM50.9893 16.4951C50.5963 16.1836 50.1711 15.9026 49.7265 15.6416C49.1506 15.3039 48.5381 14.9976 47.9137 14.7009C50.451 14.4441 50.9075 15.9142 50.9893 16.4961V16.4951ZM52.364 13.1529C52.5394 13.2119 54.8302 14.0411 53.3802 16.8413L53.3619 16.836C53.1401 16.3499 52.9668 15.8363 52.8215 15.306C52.632 14.6093 52.4931 13.8853 52.364 13.1529ZM53.1595 16.7624C52.6126 16.5256 51.2982 15.6932 52.2488 13.3887C52.3683 14.0548 52.4985 14.7125 52.6708 15.3449C52.8043 15.8332 52.9614 16.3078 53.1584 16.7624H53.1595ZM50.1173 17.7757C50.746 18.1967 51.3628 18.6249 51.9334 19.0859C52.3672 19.4373 52.773 19.8077 53.1337 20.2087L53.1304 20.2266C49.9106 20.3455 50.0979 17.9567 50.1162 17.7747L50.1173 17.7757ZM53.1487 19.9982C52.8075 19.6331 52.4318 19.2921 52.0313 18.9691C51.5135 18.5502 50.9548 18.1577 50.3843 17.7726C52.9324 17.8915 53.1574 19.4121 53.1487 19.9982ZM55.1123 15.5175C55.2759 15.6332 57.3891 17.2054 54.9713 19.6678L54.954 19.6562C54.8808 19.0817 54.8679 18.4934 54.8884 17.8967C54.9174 17.1128 55.0079 16.3172 55.1112 15.5164L55.1123 15.5175ZM54.7689 19.5173C54.2769 19.1016 53.18 17.8284 54.9164 15.7269C54.8249 16.4561 54.7474 17.1812 54.7204 17.8925C54.7 18.4418 54.7108 18.9848 54.7678 19.5173H54.7689ZM57.0823 19.0974C57.2362 19.2384 59.2116 21.1452 56.3686 23.3824L56.3524 23.3688C56.3557 22.7626 56.4213 22.1512 56.5257 21.5367C56.6635 20.7275 56.8659 19.914 57.0834 19.0974H57.0823ZM56.1791 23.1993C55.7248 22.7037 54.7624 21.2399 56.8508 19.2879C56.656 20.0319 56.4773 20.7738 56.3514 21.5083C56.2555 22.0744 56.192 22.6395 56.1791 23.1993ZM51.8655 21.0716C52.5276 21.6788 53.1757 22.2912 53.7613 22.9363C54.208 23.4266 54.6171 23.9349 54.968 24.4726L54.9616 24.4937C51.1454 24.0622 51.8096 21.281 51.8655 21.0716ZM55.0251 24.2264C54.6914 23.735 54.3103 23.2667 53.9001 22.8152C53.3673 22.2302 52.7827 21.6693 52.181 21.1126C55.1607 21.704 55.1446 23.5361 55.0251 24.2253V24.2264ZM58.6981 22.3165C58.3633 23.2162 58.0425 24.1127 57.7993 25.0135C57.613 25.6975 57.4709 26.3805 57.3999 27.0645L57.4171 27.0813C60.877 24.8557 58.8575 22.4922 58.6981 22.3165ZM57.2222 26.8551C56.7647 26.2468 55.84 24.4916 58.415 22.508C58.1125 23.3277 57.8272 24.1464 57.6044 24.963C57.4322 25.5923 57.2987 26.2237 57.2212 26.8551H57.2222ZM52.8462 24.8946C53.4652 25.6365 54.0681 26.3826 54.5999 27.1529C55.0046 27.7401 55.3685 28.3399 55.6645 28.9628L55.6549 28.9849C51.6384 27.9895 52.7558 25.1103 52.8462 24.8936V24.8946ZM55.7614 28.7092C55.4762 28.1378 55.1381 27.5843 54.7657 27.0445C54.2823 26.3436 53.7387 25.6628 53.1778 24.9841C56.2771 26.0332 55.9907 27.9884 55.7625 28.7092H55.7614ZM59.9221 26.6993C60.0427 26.9014 61.5584 29.6016 57.7239 31.1327L57.711 31.1127C57.9155 30.455 58.19 29.811 58.5076 29.1754C58.9253 28.3388 59.4162 27.518 59.9232 26.6993H59.9221ZM57.5775 30.8738C57.2481 30.1909 56.6872 28.2936 59.6067 26.833C59.1481 27.5812 58.7067 28.3304 58.3278 29.0891C58.035 29.6753 57.7788 30.2688 57.5786 30.8738H57.5775ZM53.2079 29.0302C53.8269 29.7731 54.4287 30.5182 54.9616 31.2895C55.3663 31.8756 55.7302 32.4765 56.0262 33.1005L56.0155 33.1216C52.0001 32.1271 53.1164 29.247 53.2069 29.0302H53.2079ZM56.1231 32.8459C55.8389 32.2734 55.5009 31.7209 55.1274 31.1801C54.644 30.4803 54.1004 29.7984 53.5395 29.1207C56.6388 30.1698 56.3524 32.125 56.1242 32.8459H56.1231ZM60.5691 31.017C59.9221 31.7346 59.2902 32.4576 58.7272 33.2089C58.2998 33.7803 57.9123 34.3664 57.5926 34.9778L57.6023 34.9999C61.6542 34.157 60.6509 31.2369 60.5691 31.017ZM57.5054 34.719C57.8122 34.1581 58.1717 33.6172 58.5657 33.0921C59.0771 32.4113 59.6465 31.7494 60.2332 31.0927C57.0952 32.0251 57.3051 33.9897 57.5043 34.719H57.5054ZM52.6805 32.8617C53.2995 33.6035 53.9012 34.3496 54.4341 35.121C54.8389 35.7081 55.2027 36.308 55.4988 36.932L55.488 36.9541C51.4726 35.9596 52.589 33.0795 52.6794 32.8627L52.6805 32.8617ZM55.5956 36.6763C55.3104 36.1049 54.9723 35.5514 54.5999 35.0115C54.1165 34.3117 53.5729 33.6288 53.012 32.9511C56.1102 34.0013 55.8249 35.9554 55.5956 36.6763ZM60.6768 35.4766C60.6983 35.7103 60.9082 38.783 56.7701 38.5904L56.7669 38.5662C57.2362 38.0548 57.7627 37.5844 58.3257 37.1382C59.0652 36.5521 59.864 36.0112 60.6778 35.4777L60.6768 35.4766ZM56.7497 38.2947C56.7454 37.5402 57.0554 35.5882 60.3323 35.4693C59.5938 35.9575 58.8704 36.4553 58.1986 36.9867C57.6798 37.3971 57.1921 37.8296 56.7486 38.2958L56.7497 38.2947ZM52.1454 36.9109C52.5416 37.6665 52.8118 38.4852 53.0163 39.3407C53.2349 40.2583 53.3759 41.2149 53.5104 42.1756L53.6859 42.1525C53.5503 41.1833 53.4082 40.2215 53.1896 39.3018C52.9819 38.4305 52.7041 37.5939 52.2983 36.8215C55.9638 38.9408 53.6482 42.3293 53.6482 42.3293C50.2992 40.6614 51.7719 37.5844 52.1465 36.9109H52.1454ZM59.6724 43.7162C59.1847 44.3171 56.8681 46.8479 53.9852 44.4907C53.9852 44.4907 56.2663 41.0791 59.6982 43.5447C58.8112 43.4826 57.9144 43.5605 57.0134 43.7162C56.0628 43.8804 55.1015 44.1298 54.1359 44.3876L54.1822 44.5539C55.1403 44.2971 56.0951 44.0498 57.0435 43.8867C57.9284 43.7341 58.8058 43.6573 59.6713 43.7162H59.6724ZM57.7583 47.937C57.1534 48.4558 54.3351 50.5899 51.872 47.6897C51.872 47.6897 54.8206 44.6601 57.8165 47.7687C56.9327 47.5445 56.0144 47.4624 55.0746 47.4551C54.0842 47.4488 53.0669 47.5266 52.0442 47.6119L52.0593 47.7887C53.0755 47.7034 54.0853 47.6256 55.0735 47.6329C55.995 47.6392 56.895 47.7203 57.7583 47.937ZM50.8515 40.7287C51.0312 41.6369 51.0603 42.5745 51.0086 43.53C50.9527 44.5549 50.8041 45.5967 50.6459 46.6427L50.8353 46.6701C50.9947 45.6156 51.1443 44.5665 51.2013 43.5405C51.2552 42.5671 51.2239 41.6095 51.0388 40.6793C54.2166 43.9835 50.7417 46.8437 50.7417 46.8437C47.7554 44.1056 50.2508 41.3222 50.8526 40.7287H50.8515ZM55.2555 51.6506C54.5385 52.1094 51.2476 53.9468 49.0946 50.5352C49.0946 50.5352 52.66 47.7729 55.3416 51.4823C54.4459 51.1182 53.49 50.8972 52.5018 50.7541C51.4597 50.6025 50.3767 50.5373 49.2862 50.4794L49.2755 50.6667C50.3574 50.7246 51.4328 50.7899 52.4727 50.9403C53.4426 51.0813 54.377 51.2971 55.2533 51.6506H55.2555ZM52.1347 55.0612C51.3176 55.3937 47.6176 56.646 46.0976 52.7808C46.0976 52.7808 50.2562 50.6404 52.2563 54.9054C51.4177 54.3688 50.4908 53.9668 49.5155 53.6374C48.4875 53.2901 47.4002 53.0207 46.3054 52.7598L46.258 52.9481C47.3464 53.2081 48.425 53.4753 49.4509 53.8216C50.408 54.1457 51.3154 54.5382 52.1357 55.0601L52.1347 55.0612ZM48.1376 44.4886C48.1796 45.4125 48.0687 46.3438 47.8749 47.2825C47.6661 48.2885 47.3636 49.2966 47.0514 50.31L47.2355 50.3647C47.5509 49.344 47.8556 48.3274 48.0644 47.3204C48.2625 46.3638 48.3755 45.4125 48.3303 44.4665C50.9807 48.1896 47.116 50.5226 47.116 50.5226C44.5701 47.3877 47.4551 44.9906 48.1387 44.4886H48.1376ZM47.9137 57.8751C47.0611 58.1055 43.2298 58.9011 42.2114 54.8812C42.2114 54.8812 46.609 53.2607 48.0536 57.7361C47.2893 57.1016 46.4206 56.5902 45.4948 56.1451C44.5184 55.6757 43.4742 55.278 42.4192 54.8854L42.3492 55.0675C43.3956 55.4568 44.4323 55.8525 45.4076 56.3208C46.3161 56.7575 47.1666 57.2573 47.9148 57.8751H47.9137ZM44.8263 47.5572C44.6691 48.5011 44.3537 49.4218 43.9532 50.331C43.5237 51.3065 42.9984 52.2652 42.4612 53.2259L42.6356 53.3186C43.176 52.3504 43.7056 51.3844 44.1362 50.4079C44.5442 49.4818 44.865 48.5411 45.0243 47.574C46.9007 51.8937 42.4806 53.4532 42.4806 53.4532C40.5848 49.7512 44.0243 47.9234 44.8263 47.5561V47.5572ZM43.415 59.9102C42.5355 60.0049 38.6245 60.1922 38.2746 56.0661C38.2746 56.0661 42.8799 55.1517 43.5764 59.7945C42.9251 59.0494 42.1511 58.4096 41.3093 57.8256C40.4223 57.211 39.4556 56.6544 38.4802 56.103L38.3801 56.2713C39.3501 56.8196 40.3092 57.371 41.1941 57.9855C42.0198 58.5591 42.7777 59.1852 43.415 59.9113V59.9102ZM40.7506 49.506C40.5375 50.4394 40.1693 51.3413 39.7161 52.2263C39.2306 53.1754 38.6482 54.1036 38.0572 55.0328L38.2262 55.1359C38.8226 54.1993 39.4082 53.2649 39.8959 52.3146C40.3577 51.4118 40.7334 50.491 40.9498 49.5344C42.5677 53.952 38.0636 55.2611 38.0636 55.2611C36.3886 51.4581 39.9303 49.8259 40.7528 49.506H40.7506ZM60.3075 39.4417C60.2741 39.6743 59.7424 42.7092 55.7657 41.5779L55.7679 41.5537C56.346 41.1633 56.9714 40.8255 57.6249 40.5204C58.4839 40.1194 59.3903 39.7753 60.3086 39.4417H60.3075ZM55.8163 41.2854C55.9929 40.5509 56.7604 38.7241 59.9749 39.3544C59.1406 39.6617 58.3181 39.9795 57.5387 40.3436C56.937 40.6245 56.3589 40.9329 55.8163 41.2854ZM25.7441 61.8612C26.6279 61.8181 30.5195 61.394 30.1911 57.2658C30.1911 57.2658 25.4954 57.0806 25.5654 61.7728C26.0864 60.9362 26.7463 60.1838 27.4826 59.4767C28.2577 58.7306 29.1211 58.0308 29.9952 57.3342L30.1212 57.4857C29.2535 58.1781 28.3966 58.8716 27.6226 59.6166C26.9013 60.3101 26.2544 61.0467 25.7441 61.8623V61.8612ZM28.2276 50.0353C29.0027 50.451 32.3129 52.4956 30.1739 56.0682C30.1739 56.0682 25.8668 54.2299 28.0274 50.0396C28.1221 51.015 28.3794 51.9737 28.7249 52.925C29.0888 53.9268 29.5528 54.9254 30.0275 55.9251L30.2084 55.843C29.7369 54.8497 29.2761 53.8594 28.9133 52.8587C28.5742 51.9263 28.3223 50.9877 28.2276 50.0353ZM22.0463 9.08365C22.0387 9.23519 21.887 11.2304 19.2441 10.7379V10.7221C19.594 10.4348 19.9762 10.1802 20.3799 9.94234C20.9095 9.63191 21.4747 9.3541 22.0463 9.08365ZM19.2592 10.5453C19.5875 10.2854 19.9417 10.0507 20.3142 9.8329C20.7954 9.55193 21.3067 9.29517 21.8278 9.04682C19.7092 8.83215 19.3281 10.0591 19.2603 10.5453H19.2592ZM19.4659 7.97031C19.3098 7.96505 17.2547 7.94295 17.5336 10.5716L17.5497 10.5737C17.8737 10.2559 18.1687 9.9034 18.4454 9.52878C18.8092 9.0363 19.1408 8.50909 19.467 7.97031H19.4659ZM17.7306 10.5737C18.2333 10.5495 19.5229 10.2812 19.4842 8.19024C19.1849 8.67851 18.8814 9.15732 18.5509 9.60349C18.2968 9.94865 18.0255 10.2749 17.7316 10.5748L17.7306 10.5737ZM19.3701 12.2722C19.3625 12.4237 19.2108 14.4189 16.5679 13.9264V13.9106C16.9178 13.6233 17.301 13.3676 17.7037 13.1308C18.2333 12.8204 18.7985 12.5426 19.3701 12.2722ZM16.583 13.7349C16.6508 13.2487 17.0319 12.0217 19.1505 12.2353C18.6305 12.4837 18.1181 12.7404 17.6369 13.0214C17.2655 13.2403 16.9113 13.4739 16.583 13.7349ZM16.766 9.36567C16.5399 9.9497 16.3063 10.5264 16.0351 11.0725C15.8284 11.4871 15.6002 11.8838 15.3375 12.2522H15.3213C14.5829 9.71188 16.611 9.38672 16.766 9.36567ZM15.5151 12.2227C15.753 11.8786 15.9608 11.5103 16.1513 11.1283C16.3978 10.6327 16.6131 10.1097 16.822 9.57929C17.2289 11.6323 16.006 12.1133 15.5151 12.2237V12.2227ZM14.303 10.6747C14.1802 11.3745 14.0468 12.067 13.8659 12.7341C13.727 13.2413 13.5613 13.7317 13.3492 14.1979L13.332 14.2031C11.9443 11.525 14.135 10.7316 14.303 10.6758V10.6747ZM13.5419 14.1263C13.7303 13.6917 13.881 13.2371 14.008 12.7709C14.1727 12.1659 14.2976 11.5366 14.4117 10.8999C15.3213 13.1035 14.0651 13.9001 13.5408 14.1263H13.5419ZM16.8252 14.743C16.8166 14.9261 16.6347 17.3138 13.4687 16.7245V16.7066C13.8874 16.3625 14.346 16.0552 14.8283 15.7721C15.4634 15.3996 16.1395 15.0681 16.8252 14.743ZM13.4859 16.4951C13.5677 15.9131 14.0241 14.4431 16.5615 14.6998C15.9382 14.9976 15.3256 15.3028 14.7486 15.6406C14.303 15.9016 13.8788 16.1825 13.4859 16.494V16.4951ZM12.1112 13.1529C11.982 13.8853 11.8431 14.6093 11.6537 15.306C11.5094 15.8363 11.335 16.3499 11.1133 16.836L11.095 16.8413C9.64384 14.04 11.9346 13.2119 12.1112 13.1529ZM11.3157 16.7624C11.5127 16.3078 11.6709 15.8332 11.8033 15.3449C11.9756 14.7114 12.1058 14.0537 12.2253 13.3887C13.1769 15.6932 11.8625 16.5256 11.3146 16.7624H11.3157ZM14.3579 17.7757C14.3762 17.9567 14.5646 20.3455 11.3436 20.2276L11.3415 20.2097C11.7021 19.8088 12.108 19.4373 12.5418 19.0869C13.1123 18.626 13.7292 18.1977 14.3579 17.7768V17.7757ZM11.3264 19.9982C11.3178 19.411 11.5428 17.8915 14.0909 17.7726C13.5203 18.1588 12.9616 18.5513 12.4438 18.9691C12.0445 19.2921 11.6677 19.6331 11.3264 19.9982ZM9.36287 15.5175C9.46622 16.3183 9.55664 17.1138 9.58679 17.8978C9.60832 18.4945 9.59432 19.0816 9.52112 19.6573L9.50389 19.6688C7.08606 17.2064 9.19924 15.6343 9.36287 15.5185V15.5175ZM9.70735 19.5173C9.76441 18.9838 9.77517 18.4408 9.75472 17.8925C9.72888 17.1812 9.65138 16.4561 9.55987 15.7269C11.2974 17.8284 10.2004 19.1016 9.70843 19.5173H9.70735ZM7.39286 19.0974C7.61032 19.914 7.8127 20.7275 7.95049 21.5367C8.05384 22.1523 8.12058 22.7637 8.12381 23.3688L8.10766 23.3824C5.26353 21.1452 7.24 19.2384 7.39394 19.0974H7.39286ZM8.29713 23.1993C8.28313 22.6385 8.21962 22.0744 8.12381 21.5083C7.99894 20.7738 7.82024 20.0319 7.62431 19.2879C9.71381 21.2399 8.75034 22.7037 8.29713 23.1993ZM12.6107 21.0716C12.6667 21.281 13.3298 24.0622 9.51466 24.4937L9.5082 24.4726C9.85914 23.9349 10.2682 23.4277 10.7139 22.9363C11.3006 22.2912 11.9486 21.6788 12.6107 21.0716ZM9.45115 24.2264C9.33165 23.5361 9.3155 21.7051 12.2953 21.1137C11.6946 21.6693 11.109 22.2302 10.5761 22.8163C10.1649 23.2677 9.78486 23.735 9.45115 24.2274V24.2264ZM5.7781 22.3165C5.61985 22.4922 3.59925 24.8557 7.06022 27.0813L7.07745 27.0645C7.0064 26.3805 6.8643 25.6975 6.67806 25.0135C6.43262 24.1138 6.11289 23.2162 5.7781 22.3165ZM7.25399 26.8551C7.17648 26.2226 7.043 25.5923 6.87076 24.963C6.64792 24.1464 6.36372 23.3277 6.06122 22.508C8.63731 24.4916 7.71151 26.2468 7.25399 26.8551ZM11.63 24.8946C11.7204 25.1103 12.8378 27.9905 8.82139 28.986L8.81062 28.9639C9.10666 28.3409 9.47052 27.7411 9.87529 27.1539C10.4082 26.3826 11.011 25.6365 11.6289 24.8957L11.63 24.8946ZM8.71481 28.7092C8.48659 27.9884 8.20024 26.0343 11.2995 24.9841C10.7386 25.6628 10.195 26.3436 9.71166 27.0445C9.33811 27.5843 9.00009 28.1378 8.71589 28.7092H8.71481ZM4.55519 26.6993C5.06222 27.518 5.55203 28.3388 5.9708 29.1754C6.28837 29.811 6.56288 30.455 6.76741 31.1127L6.75342 31.1327C2.9189 29.6016 4.43462 26.9014 4.55519 26.6993ZM6.89875 30.8738C6.69851 30.2688 6.44231 29.6753 6.1495 29.0891C5.76949 28.3304 5.3292 27.5812 4.87061 26.833C7.79009 28.2936 7.22816 30.1898 6.89982 30.8738H6.89875ZM11.2683 29.0302C11.3587 29.247 12.4761 32.1271 8.46076 33.1216L8.44999 33.1005C8.74603 32.4765 9.10989 31.8767 9.51466 31.2895C10.0475 30.5182 10.6504 29.7721 11.2683 29.0302ZM8.35311 32.8459C8.12489 32.125 7.83854 30.1698 10.9367 29.1207C10.3759 29.7984 9.83223 30.4803 9.34888 31.1801C8.97641 31.7209 8.63838 32.2734 8.35311 32.8459ZM3.90928 31.0148C3.82747 31.2348 2.82416 34.1539 6.87614 34.9978L6.88583 34.9757C6.56503 34.3643 6.17856 33.7782 5.75119 33.2068C5.18817 32.4565 4.55626 31.7336 3.91036 31.0148H3.90928ZM6.97195 34.7169C7.17218 33.9876 7.38102 32.023 4.243 31.0906C4.8297 31.7473 5.39917 32.4081 5.91051 33.09C6.30559 33.6151 6.66407 34.156 6.97087 34.7169H6.97195ZM11.7969 32.8595C11.8873 33.0763 13.0047 35.9565 8.98825 36.9509L8.97748 36.9288C9.2746 36.3048 9.63738 35.705 10.0421 35.1178C10.575 34.3465 11.1779 33.6004 11.7958 32.8585L11.7969 32.8595ZM8.88167 36.6742C8.65238 35.9533 8.3671 33.9981 11.4653 32.949C10.9044 33.6267 10.3608 34.3096 9.87744 35.0094C9.50389 35.5492 9.16587 36.1028 8.88167 36.6742ZM3.80056 35.4745C4.61332 36.0081 5.41316 36.55 6.15273 37.1351C6.71466 37.5813 7.24215 38.0516 7.71151 38.5631L7.70828 38.5873C3.57018 38.7819 3.77903 35.7081 3.80056 35.4745ZM7.72766 38.2926C7.28414 37.8264 6.79648 37.3939 6.2776 36.9835C5.60586 36.4521 4.88245 35.9544 4.14396 35.4661C7.42085 35.5861 7.72981 37.5381 7.72658 38.2916L7.72766 38.2926ZM12.3319 36.9088C12.7076 37.5823 14.1792 40.6582 10.8312 42.3272C10.8312 42.3272 8.51566 38.9377 12.1812 36.8194C11.7742 37.5928 11.4965 38.4294 11.2887 39.2997C11.0702 40.2194 10.9281 41.1812 10.7925 42.1504L10.9669 42.1735C11.1014 41.2128 11.2425 40.2562 11.461 39.3386C11.6644 38.4841 11.9357 37.6644 12.3308 36.9088H12.3319ZM4.80494 43.7141C5.67045 43.6552 6.5478 43.731 7.43269 43.8846C8.3811 44.0488 9.33596 44.296 10.2941 44.5518L10.3403 44.3855C9.37579 44.1277 8.41339 43.8783 7.46284 43.7141C6.5618 43.5594 5.66507 43.4805 4.77803 43.5426C8.20993 41.077 10.4911 44.4886 10.4911 44.4886C7.60816 46.8447 5.29044 44.315 4.80386 43.7141H4.80494ZM6.71897 47.9349C7.58125 47.7182 8.48121 47.6371 9.4027 47.6308C10.3909 47.6245 11.4018 47.7013 12.4169 47.7866L12.4331 47.6098C11.4104 47.5235 10.392 47.4456 9.4027 47.453C8.46291 47.4593 7.54357 47.5424 6.66084 47.7666C9.65676 44.657 12.6053 47.6876 12.6053 47.6876C10.1423 50.5878 7.32504 48.4537 6.72005 47.9349H6.71897ZM13.6258 40.7266C14.2276 41.3201 16.723 44.1035 13.7367 46.8416C13.7367 46.8416 10.2607 43.9814 13.4396 40.6772C13.2544 41.6074 13.2232 42.565 13.2771 43.5384C13.333 44.5654 13.4837 45.6135 13.6431 46.668L13.8336 46.6406C13.6754 45.5946 13.5268 44.5528 13.4697 43.5279C13.417 42.5724 13.4471 41.6348 13.6269 40.7266H13.6258ZM9.22185 51.6485C10.097 51.295 11.0325 51.0792 12.0025 50.9382C13.0424 50.7877 14.1178 50.7225 15.2008 50.6646L15.19 50.4773C14.1006 50.5352 13.0165 50.6004 11.9745 50.752C10.9862 50.8951 10.0314 51.1161 9.13465 51.4802C11.8173 47.7708 15.3827 50.5331 15.3827 50.5331C13.2297 53.9447 9.9388 52.1073 9.22185 51.6485ZM12.3426 55.0591C13.1629 54.5371 14.0704 54.1446 15.0275 53.8205C16.0534 53.4732 17.1331 53.207 18.2204 52.9471L18.173 52.7587C17.0771 53.0207 15.9899 53.2891 14.9618 53.6363C13.9865 53.9657 13.0596 54.3677 12.221 54.9044C14.2211 50.6394 18.3797 52.7798 18.3797 52.7798C16.8586 56.6449 13.1597 55.3927 12.3426 55.0601V55.0591ZM16.3397 44.4865C17.0244 44.9885 19.9083 47.3856 17.3624 50.5205C17.3624 50.5205 13.4967 48.1864 16.1481 44.4644C16.1029 45.4104 16.2159 46.3617 16.414 47.3183C16.6228 48.3264 16.9275 49.3429 17.2429 50.3626L17.427 50.3079C17.1148 49.2945 16.8123 48.2854 16.6035 47.2804C16.4097 46.3428 16.2988 45.4104 16.3408 44.4865H16.3397ZM16.5647 57.873C17.3118 57.2552 18.1633 56.7554 19.0719 56.3187C20.0461 55.8504 21.0839 55.4547 22.1303 55.0654L22.0592 54.8833C21.0053 55.2758 19.9611 55.6747 18.9847 56.143C18.0589 56.5881 17.1902 57.0995 16.4258 57.734C17.8705 53.2586 22.268 54.8791 22.268 54.8791C21.2497 58.8979 17.4184 58.1034 16.5658 57.873H16.5647ZM19.6521 47.5551C20.4531 47.9213 23.8936 49.7491 21.9978 53.4522C21.9978 53.4522 17.5777 51.8916 19.453 47.5729C19.6134 48.5411 19.9342 49.4808 20.3422 50.4068C20.7728 51.3834 21.3024 52.3494 21.8428 53.3175L22.0172 53.2249C21.4811 52.2641 20.9558 51.3055 20.5263 50.33C20.1247 49.4208 19.8104 48.5 19.6532 47.5561L19.6521 47.5551ZM21.0634 59.9081C21.7007 59.182 22.4586 58.5559 23.2853 57.9824C24.1713 57.3678 25.1305 56.8164 26.0993 56.2682L26.0003 56.0998C25.0239 56.6512 24.0572 57.2079 23.1702 57.8224C22.3283 58.4065 21.5543 59.0463 20.903 59.7913C21.5995 55.1485 26.2048 56.063 26.2048 56.063C25.855 60.1901 21.944 60.0028 21.0645 59.9071L21.0634 59.9081ZM23.7278 49.5039C24.5492 49.8238 28.0909 51.456 26.4158 55.259C26.4158 55.259 21.9117 53.9499 23.5297 49.5323C23.7461 50.4889 24.1218 51.4097 24.5836 52.3125C25.0702 53.2628 25.6558 54.1972 26.2522 55.1338L26.4212 55.0307C25.8291 54.1015 25.2478 53.1733 24.7612 52.2242C24.308 51.3392 23.9399 50.4384 23.7267 49.5039H23.7278ZM4.17088 39.4407C5.08914 39.7743 5.99556 40.1184 6.85353 40.5193C7.50697 40.8245 8.13135 41.1623 8.71051 41.5527L8.71266 41.5769C4.73604 42.7081 4.20425 39.6733 4.17088 39.4407ZM8.66207 41.2843C8.11951 40.9318 7.54142 40.6235 6.93965 40.3425C6.16026 39.9795 5.33781 39.6606 4.50244 39.3533C7.71797 38.722 8.48444 40.5498 8.66207 41.2843Z" fill="#494949"/>
</g>
<path fill-rule="evenodd" clip-rule="evenodd" d="M34.6186 2.67969L35.1227 4.17191L36.748 4.16566L35.4337 5.08865L35.9427 6.57879L34.627 5.65719L33.3169 6.58574L33.8182 5.09282L32.4983 4.17539L34.1243 4.174L34.6186 2.67969Z" fill="#E49716"/>
<path fill-rule="evenodd" clip-rule="evenodd" d="M24.5705 4.21484L25.0746 5.70707L26.6999 5.70081L25.3856 6.62381L25.8946 8.11395L24.5789 7.19234L23.2688 8.1209L23.7701 6.62798L22.4502 5.71054L24.0762 5.70915L24.5705 4.21484Z" fill="#E49716"/>
<path fill-rule="evenodd" clip-rule="evenodd" d="M39.6428 4.21484L40.1469 5.70707L41.7722 5.70081L40.4579 6.62381L40.9669 8.11395L39.6512 7.19234L38.341 8.1209L38.8423 6.62798L37.5225 5.71054L39.1484 5.70915L39.6428 4.21484Z" fill="#E49716"/>
<path fill-rule="evenodd" clip-rule="evenodd" d="M29.5947 2.67969L30.0988 4.17191L31.7241 4.16566L30.4098 5.08865L30.9188 6.57879L29.6031 5.65719L28.2929 6.58574L28.7943 5.09282L27.4744 4.17539L29.1003 4.174L29.5947 2.67969Z" fill="#E49716"/>
<g clip-path="url(#clip2_533_4388)">
<path d="M47.8287 22.2876C47.2547 22.2876 46.7884 22.724 46.7884 23.2629C46.7884 23.5767 46.9474 23.8549 47.192 24.0329C45.4761 26.0961 40.6612 31.4959 37.4369 31.2806C34.1614 31.062 32.8976 24.2763 32.5108 21.4398C33.0168 21.3744 33.4072 20.9679 33.4072 20.4753C33.4072 19.9371 32.9418 19.5 32.3668 19.5C31.7919 19.5 31.3265 19.9363 31.3265 20.4753C31.3265 20.9679 31.7169 21.3744 32.2229 21.4398C31.837 24.2763 30.5732 31.062 27.2968 31.2806C24.0725 31.4959 19.2576 26.0961 17.5417 24.0329C17.7872 23.8549 17.9453 23.5767 17.9453 23.2629C17.9453 22.7248 17.4799 22.2876 16.905 22.2876C16.33 22.2876 15.8682 22.724 15.8682 23.2621C15.8682 23.8003 16.3336 24.2374 16.9085 24.2374C17.0162 24.2374 17.1196 24.2225 17.2167 24.1935L21.5758 37.5878C20.2944 38.1855 19.5517 38.8967 19.5517 39.6601C19.5517 41.7812 25.2903 43.5 32.3695 43.5C39.4487 43.5 45.1873 41.7804 45.1873 39.6601C45.1873 38.8967 44.4437 38.1855 43.1631 37.5878L47.5223 24.1935C47.6194 24.2217 47.7236 24.2374 47.8305 24.2374C48.4045 24.2374 48.8708 23.8011 48.8708 23.2621C48.8708 22.7231 48.4054 22.2868 47.8305 22.2868L47.8287 22.2876ZM18.9344 27.6435C18.9344 27.6435 22.8211 33.1559 25.7619 33.5069C25.7619 33.5069 23.9117 33.8969 20.653 30.7292L22.1949 37.1415L18.9353 27.6443L18.9344 27.6435ZM22.7222 38.1731C19.5517 41.6918 28.58 42.3848 28.58 42.3848C21.5758 40.659 22.7222 38.1731 22.7222 38.1731ZM32.3686 30.4924C30.2544 34.0848 26.5549 33.4655 26.5549 33.4655C30.9812 33.3827 32.3686 28.0972 32.3686 28.0972C32.3686 28.0972 33.756 33.3827 38.1823 33.4655C38.1823 33.4655 34.4828 34.0848 32.3686 30.4924ZM37.1843 42.3848C37.1843 42.3848 48.2534 40.8468 43.9553 39.6601C43.9553 39.6601 47.9762 40.8366 37.1843 42.3848ZM42.4134 37.1407L43.9553 30.7284C40.6957 33.896 38.8464 33.5061 38.8464 33.5061C41.7863 33.1559 45.6739 27.6427 45.6739 27.6427L42.4142 37.1399L42.4134 37.1407Z" fill="#E49716"/>
<path d="M37.4369 30.7222C37.8476 30.7495 38.2847 30.6849 38.7378 30.5483L39.5388 24.9134C39.5706 24.9159 39.6024 24.9184 39.6351 24.9184C40.2091 24.9184 40.6754 24.4821 40.6754 23.9431C40.6754 23.4041 40.21 22.9678 39.6351 22.9678C39.0601 22.9678 38.5947 23.4041 38.5947 23.9431C38.5947 24.3628 38.8791 24.7205 39.2765 24.8571L36.1555 30.2585C36.5441 30.5259 36.9698 30.6915 37.4361 30.7222H37.4369Z" fill="#E49716"/>
<path d="M25.1005 24.9184C25.1332 24.9184 25.165 24.9167 25.1968 24.9134L25.9978 30.5483C26.4508 30.6849 26.888 30.7495 27.2987 30.7222C27.7658 30.6907 28.1906 30.5259 28.5792 30.2585L25.4582 24.8571C25.8556 24.7197 26.14 24.3628 26.14 23.9431C26.14 23.4049 25.6746 22.9678 25.0997 22.9678C24.5247 22.9678 24.0593 23.4041 24.0593 23.9431C24.0593 24.4821 24.5247 24.9184 25.0997 24.9184H25.1005Z" fill="#E49716"/>
</g>
</g>
<defs>
<clipPath id="clip0_533_4388">
<rect x="0.240234" width="64" height="64" rx="32" fill="white"/>
</clipPath>
<clipPath id="clip1_533_4388">
<rect width="57" height="62" fill="white" transform="translate(3.74023 -0.138672)"/>
</clipPath>
<clipPath id="clip2_533_4388">
<rect width="33" height="24" fill="white" transform="translate(15.8682 19.5)"/>
</clipPath>
</defs>
</svg>
