<svg width="64" height="64" viewBox="0 0 64 64" fill="none" xmlns="http://www.w3.org/2000/svg">
<g clip-path="url(#clip0_695_9099)">
<path d="M58.3854 50.755C58.0978 50.755 57.8408 50.5598 57.7833 50.2783L53.1639 27.4708H40.9935C40.6538 27.4708 40.3806 27.2066 40.3806 26.8819C40.3806 26.5572 40.6556 26.293 40.9935 26.293H53.669C53.9619 26.293 54.2154 26.4933 54.2711 26.7696L58.9875 50.0538C59.0522 50.3733 58.8348 50.6824 58.5022 50.7446C58.4627 50.7515 58.4231 50.755 58.3854 50.755ZM5.61304 50.755C5.5735 50.755 5.53396 50.7515 5.49621 50.7446C5.16369 50.6824 4.9462 50.3733 5.01091 50.0538L9.72734 26.7696C9.78307 26.4933 10.0365 26.293 10.3295 26.293H23.0049C23.3428 26.293 23.6178 26.5572 23.6178 26.8819C23.6178 27.2066 23.3428 27.4708 23.0049 27.4708H10.8346L6.21518 50.2783C6.15766 50.5598 5.90063 50.755 5.61304 50.755Z" fill="#44C352"/>
<path d="M58.3853 55.9991H5.61292C5.27321 55.9991 5 55.7348 5 55.4102V50.1651C5 49.8387 5.27501 49.5762 5.61292 49.5762H58.3853C58.725 49.5762 58.9982 49.8404 58.9982 50.1651V55.4102C58.9982 55.7366 58.725 55.9991 58.3853 55.9991ZM6.22584 54.8212H57.7706V50.7557H6.22584V54.8212Z" fill="#44C352"/>
<path d="M31.9989 43.6447C31.7563 43.6447 31.5352 43.5065 31.4381 43.2923C30.8414 41.9884 29.6856 40.0731 28.3484 37.8538C24.9494 32.2167 20.2959 24.4968 20.2959 19.2466C20.2959 13.0447 25.5462 8 32.0007 8C38.4553 8 43.7055 13.0447 43.7055 19.2466C43.7055 24.4968 39.0502 32.2167 35.6531 37.8538C34.3158 40.0731 33.1601 41.9884 32.5633 43.2923C32.4627 43.5065 32.2416 43.6447 31.9989 43.6447ZM31.9989 9.17958C26.222 9.17958 21.5217 13.6958 21.5217 19.2466C21.5217 24.179 26.08 31.7418 29.4088 37.2632C30.428 38.954 31.3429 40.4703 31.9989 41.6983C32.655 40.4703 33.5699 38.954 34.589 37.2632C37.9178 31.7418 42.4761 24.179 42.4761 19.2466C42.4761 13.6958 37.7758 9.17958 31.9989 9.17958Z" fill="#44C352"/>
<path d="M31.9992 22.8216C29.5798 22.8216 27.6099 20.9288 27.6099 18.6042C27.6099 16.2796 29.5798 14.3867 31.9992 14.3867C34.4185 14.3867 36.3885 16.2796 36.3885 18.6042C36.3885 20.9288 34.4203 22.8216 31.9992 22.8216ZM31.9992 15.5663C30.2557 15.5663 28.8375 16.9289 28.8375 18.6042C28.8375 20.2794 30.2557 21.6421 31.9992 21.6421C33.7427 21.6421 35.1608 20.2794 35.1608 18.6042C35.1608 16.9289 33.7427 15.5663 31.9992 15.5663Z" fill="#44C352"/>
<path d="M30.446 40.7716H7.63489C7.29518 40.7716 7.02197 40.5074 7.02197 40.1827C7.02197 39.858 7.29698 39.5938 7.63489 39.5938H30.446C30.7839 39.5938 31.0589 39.858 31.0589 40.1827C31.0589 40.5074 30.7839 40.7716 30.446 40.7716Z" fill="#44C352"/>
<path d="M22.3883 50.754C22.0504 50.754 21.7754 50.4897 21.7754 50.165V40.1827C21.7754 39.8563 22.0504 39.5938 22.3883 39.5938C22.7262 39.5938 23.0012 39.858 23.0012 40.1827V50.165C23.0012 50.4915 22.7262 50.754 22.3883 50.754Z" fill="#44C352"/>
<path d="M22.3881 46.3849H18.0617C17.7237 46.3849 17.4487 46.1206 17.4487 45.796C17.4487 45.4713 17.7237 45.207 18.0617 45.207H22.3881C22.726 45.207 23.001 45.4713 23.001 45.796C23.001 46.1206 22.726 46.3849 22.3881 46.3849Z" fill="#44C352"/>
<path d="M17.9038 40.7732C17.5659 40.7732 17.2909 40.509 17.2909 40.1843V32.1017H9.39124C9.05153 32.1017 8.77832 31.8374 8.77832 31.5128C8.77832 31.1881 9.05333 30.9238 9.39124 30.9238H17.9038C18.2418 30.9238 18.5168 31.1881 18.5168 31.5128V40.186C18.5186 40.509 18.2436 40.7732 17.9038 40.7732Z" fill="#44C352"/>
<path d="M55.7987 37.9385H45.0411C44.7014 37.9385 44.4282 37.6743 44.4282 37.3496V26.8819C44.4282 26.5572 44.7032 26.293 45.0411 26.293C45.3791 26.293 45.6541 26.5572 45.6541 26.8819V36.7606H55.7969C56.1366 36.7606 56.4098 37.0249 56.4098 37.3496C56.4134 37.6743 56.1384 37.9385 55.7987 37.9385Z" fill="#44C352"/>
<path d="M50.421 50.7541C50.0813 50.7541 49.8081 50.4898 49.8081 50.1652V37.3487C49.8081 37.0223 50.0831 36.7598 50.421 36.7598C50.7589 36.7598 51.0339 37.024 51.0339 37.3487V50.1652C51.0339 50.4916 50.7607 50.7541 50.421 50.7541Z" fill="#44C352"/>
<path d="M38.671 50.7547C38.3313 50.7547 38.0581 50.4905 38.0581 50.1658V44.7549C38.0581 44.4285 38.3331 44.166 38.671 44.166H50.4208C50.7605 44.166 51.0337 44.4303 51.0337 44.7549C51.0337 45.0796 50.7587 45.3439 50.4208 45.3439H39.2839V50.1641C39.2839 50.4922 39.0089 50.7547 38.671 50.7547Z" fill="#44C352"/>
</g>
<defs>
<clipPath id="clip0_695_9099">
<rect width="54" height="48" fill="white" transform="translate(5 8)"/>
</clipPath>
</defs>
</svg>
