<svg width="28" height="29" viewBox="0 0 28 29" fill="none" xmlns="http://www.w3.org/2000/svg">
<g clip-path="url(#clip0_107_5120)">
<path d="M14 28.282C21.732 28.282 28 22.014 28 14.282C28 6.55006 21.732 0.282043 14 0.282043C6.26801 0.282043 0 6.55006 0 14.282C0 22.014 6.26801 28.282 14 28.282Z" fill="white"/>
<path d="M27.1292 19.1512C27.692 17.6346 28 15.9942 28 14.2817C28 12.5692 27.692 10.9288 27.1292 9.41217H0.870789C0.308055 10.9288 0 12.5692 0 14.2817C0 15.9942 0.308055 17.6346 0.870789 19.1512L14 20.3686L27.1292 19.1512Z" fill="#0052B4"/>
<path d="M13.9998 28.2819C20.0193 28.2819 25.1509 24.4826 27.129 19.1514H0.870605C2.84871 24.4826 7.98031 28.2819 13.9998 28.2819Z" fill="#D80027"/>
</g>
<defs>
<clipPath id="clip0_107_5120">
<rect width="28" height="28" fill="white" transform="translate(0 0.282104)"/>
</clipPath>
</defs>
</svg>
