<svg width="28" height="28" viewBox="0 0 28 28" fill="none" xmlns="http://www.w3.org/2000/svg">
<g clip-path="url(#clip0_138_135)">
<path d="M13.9999 27.9999C21.7319 27.9999 27.9999 21.7319 27.9999 13.9999C27.9999 6.26795 21.7319 -6.10352e-05 13.9999 -6.10352e-05C6.26794 -6.10352e-05 -6.86646e-05 6.26795 -6.86646e-05 13.9999C-6.86646e-05 21.7319 6.26794 27.9999 13.9999 27.9999Z" fill="white"/>
<path d="M27.129 18.8691C27.6918 17.3525 27.9998 15.7121 27.9998 13.9996C27.9998 12.2871 27.6918 10.6467 27.129 9.13007H0.870598C0.307864 10.6467 -0.000190735 12.2871 -0.000190735 13.9996C-0.000190735 15.7121 0.307864 17.3525 0.870598 18.8691L13.9998 20.0865L27.129 18.8691Z" fill="#0052B4"/>
<path d="M13.9999 27.9997C20.0194 27.9997 25.151 24.2005 27.1291 18.8693H0.870644C2.84875 24.2005 7.98035 27.9997 13.9999 27.9997Z" fill="#D80027"/>
</g>
<defs>
<clipPath id="clip0_138_135">
<rect width="28" height="28" fill="white"/>
</clipPath>
</defs>
</svg>
