<svg width="29" height="29" viewBox="0 0 29 29" fill="none" xmlns="http://www.w3.org/2000/svg">
<g clip-path="url(#clip0_347_2306)">
<path fill-rule="evenodd" clip-rule="evenodd" d="M12.7976 16.8669C7.17576 17.397 3.79834 21.4558 3.79834 24.3208C3.79834 25.6099 4.72412 26.1958 6.68115 26.1958H21.3999C21.649 26.1958 21.8814 26.1862 22.0973 26.1667L20.3569 24.4263H6.11865C5.81396 24.4263 5.68506 24.3443 5.68506 24.0982C5.68506 22.1646 8.66162 18.5786 14.0405 18.5786C14.2021 18.5786 14.3615 18.5818 14.5188 18.5881L12.7976 16.8669ZM17.0231 14.2838C18.2827 13.2817 19.103 11.6643 19.103 9.84815C19.103 6.84815 16.853 4.49268 14.0405 4.49268C12.2436 4.49268 10.6528 5.49824 9.75352 7.01429L11.1363 8.39705C11.6332 7.12279 12.7565 6.26221 14.0405 6.26221C15.7983 6.26221 17.2163 7.79737 17.2163 9.84815C17.2163 11.1806 16.6215 12.339 15.7363 12.997L17.0231 14.2838Z" fill="#FB4B47"/>
<path d="M24.5874 26.5357C24.939 26.8872 25.5249 26.8755 25.8647 26.5239C26.2163 26.1607 26.2163 25.5982 25.8647 25.2466L4.37256 3.74267C4.02099 3.39111 3.43506 3.39111 3.08349 3.74267C2.73193 4.08251 2.73193 4.68017 3.08349 5.02001L24.5874 26.5357Z" fill="#FB4B47"/>
</g>
<defs>
<clipPath id="clip0_347_2306">
<rect width="26.2998" height="26.7422" fill="white" transform="translate(1.32422 1.979)"/>
</clipPath>
</defs>
</svg>
