<svg width="132" height="133" viewBox="0 0 132 133" fill="none" xmlns="http://www.w3.org/2000/svg">
<circle cx="66" cy="66.4902" r="53.7587" fill="#D9F3DC"/>
<g clip-path="url(#clip0_106_3395)">
<path d="M65.8652 100.708C84.6583 100.708 100.218 85.1152 100.218 66.3557C100.218 47.5627 84.6247 32.0029 65.8316 32.0029C47.0722 32.0029 31.5125 47.5627 31.5125 66.3557C31.5125 85.1152 47.1059 100.708 65.8652 100.708Z" fill="#44C352"/>
<path d="M62.0929 82.8244C60.9479 82.8244 60.0049 82.3527 59.1292 81.1741L50.6757 70.8009C50.1705 70.1272 49.8674 69.3863 49.8674 68.6118C49.8674 67.096 51.0462 65.8499 52.5618 65.8499C53.5385 65.8499 54.2794 66.1531 55.1214 67.2644L61.9584 76.0884L76.3394 52.9845C76.9792 51.9742 77.8549 51.4353 78.7306 51.4353C80.2124 51.4353 81.5933 52.4457 81.5933 54.0286C81.5933 54.7696 81.1553 55.5442 80.7512 56.2514L64.922 81.1741C64.2148 82.2855 63.2382 82.8244 62.0929 82.8244Z" fill="white"/>
</g>
<defs>
<clipPath id="clip0_106_3395">
<rect width="68.7055" height="68.7394" fill="white" transform="translate(31.5126 32.0029)"/>
</clipPath>
</defs>
</svg>
