<svg width="29" height="28" viewBox="0 0 29 28" fill="none" xmlns="http://www.w3.org/2000/svg">
<g clip-path="url(#clip0_10_404)">
<path d="M8.16479 26.7693C8.73901 26.7693 9.13745 26.4646 9.85229 25.8318L13.8953 22.2341H21.4187C24.9109 22.2341 26.7859 20.3005 26.7859 16.867V7.89038C26.7859 4.45678 24.9109 2.52319 21.4187 2.52319H6.32495C2.83276 2.52319 0.957764 4.44507 0.957764 7.89038V16.867C0.957764 20.3123 2.83276 22.2341 6.32495 22.2341H6.88745V25.281C6.88745 26.1834 7.34448 26.7693 8.16479 26.7693ZM8.64526 24.6248V21.2263C8.64526 20.5935 8.39917 20.3474 7.76635 20.3474H6.32495C3.95776 20.3474 2.84448 19.1404 2.84448 16.8552V7.89038C2.84448 5.60522 3.95776 4.40991 6.32495 4.40991H21.4187C23.7742 4.40991 24.8992 5.60522 24.8992 7.89038V16.8552C24.8992 19.1404 23.7742 20.3474 21.4187 20.3474H13.825C13.1687 20.3474 12.8406 20.4412 12.3953 20.8982L8.64526 24.6248Z" fill="black" fill-opacity="0.85"/>
<path d="M7.83667 9.14428H19.7664C20.1414 9.14428 20.4344 8.85131 20.4344 8.4646C20.4344 8.10131 20.1414 7.79663 19.7664 7.79663H7.83667C7.46167 7.79663 7.15698 8.10131 7.15698 8.4646C7.15698 8.85131 7.46167 9.14428 7.83667 9.14428ZM7.83667 12.9646H19.7664C20.1414 12.9646 20.4344 12.6599 20.4344 12.2732C20.4344 11.9099 20.1414 11.6052 19.7664 11.6052H7.83667C7.46167 11.6052 7.15698 11.9099 7.15698 12.2732C7.15698 12.6599 7.46167 12.9646 7.83667 12.9646ZM7.83667 16.7732H15.5945C15.9695 16.7732 16.2625 16.4802 16.2625 16.1052C16.2625 15.7185 15.9695 15.4138 15.5945 15.4138H7.83667C7.46167 15.4138 7.15698 15.7185 7.15698 16.1052C7.15698 16.4802 7.46167 16.7732 7.83667 16.7732Z" fill="black" fill-opacity="0.85"/>
</g>
<defs>
<clipPath id="clip0_10_404">
<rect width="25.8281" height="25.7461" fill="white" transform="translate(0.957764 1.02319)"/>
</clipPath>
</defs>
</svg>
