<svg width="64" height="64" viewBox="0 0 64 64" fill="none" xmlns="http://www.w3.org/2000/svg">
<g clip-path="url(#clip0_695_9078)">
<path d="M51.2593 55C50.85 55 50.5185 54.6784 50.5185 54.2812V28.4062C50.5185 18.4983 42.2111 10.4375 32 10.4375C21.7889 10.4375 13.4815 18.4983 13.4815 28.4062V54.2812C13.4815 54.6784 13.15 55 12.7407 55C12.3315 55 12 54.6784 12 54.2812V28.4062C12 23.2223 14.0806 18.3491 17.8574 14.6835C21.6343 11.0179 26.6574 9 32 9C37.3426 9 42.3648 11.0188 46.1417 14.6835C49.9185 18.3482 52 23.2223 52 28.4062V54.2812C52 54.6784 51.6685 55 51.2593 55ZM39.6852 42.7812H24.3148C21.6093 42.7812 19.4074 40.6457 19.4074 38.0195V20.2305C19.4074 17.6052 21.6093 15.4688 24.3148 15.4688H26.0741C26.4833 15.4688 26.8148 15.7904 26.8148 16.1875C26.8148 16.5846 26.4833 16.9062 26.0741 16.9062H24.3148C22.4259 16.9062 20.8889 18.3977 20.8889 20.2305V38.0195C20.8889 39.8523 22.4259 41.3438 24.3148 41.3438H39.6852C41.5741 41.3438 43.1111 39.8523 43.1111 38.0195V20.2305C43.1111 18.3977 41.5741 16.9062 39.6852 16.9062H37.9259C37.5167 16.9062 37.1852 16.5846 37.1852 16.1875C37.1852 15.7904 37.5167 15.4688 37.9259 15.4688H39.6852C42.3917 15.4688 44.5926 17.6052 44.5926 20.2305V38.0195C44.5926 40.6457 42.3917 42.7812 39.6852 42.7812ZM20.4611 55C20.4102 55 20.3593 54.9946 20.3074 54.9847C19.9074 54.903 19.6509 54.522 19.7352 54.133L22.3861 41.9143C22.4704 41.5261 22.863 41.2773 23.2639 41.359C23.6639 41.4408 23.9204 41.8217 23.8361 42.2107L21.1852 54.4295C21.1111 54.7682 20.8037 55 20.4611 55ZM43.5389 55C43.1963 55 42.888 54.7673 42.8148 54.4295L40.1639 42.2107C40.0796 41.8226 40.3361 41.4408 40.7361 41.359C41.137 41.2773 41.5296 41.5261 41.6139 41.9143L44.2648 54.133C44.3491 54.5211 44.0926 54.903 43.6926 54.9847C43.6407 54.9955 43.5898 55 43.5389 55ZM40.8889 34.1562H23.1111C22.7019 34.1562 22.3704 33.8346 22.3704 33.4375V21.9375C22.3704 21.5404 22.7019 21.2188 23.1111 21.2188H40.8889C41.2981 21.2188 41.6296 21.5404 41.6296 21.9375V33.4375C41.6296 33.8346 41.2981 34.1562 40.8889 34.1562ZM23.8519 32.7188H40.1481V22.6562H23.8519V32.7188ZM26.0741 39.9062C24.8491 39.9062 23.8519 38.9386 23.8519 37.75C23.8519 36.5614 24.8491 35.5938 26.0741 35.5938C27.2991 35.5938 28.2963 36.5614 28.2963 37.75C28.2963 38.9386 27.2991 39.9062 26.0741 39.9062ZM26.0741 37.0312C25.6657 37.0312 25.3333 37.3538 25.3333 37.75C25.3333 38.1462 25.6657 38.4688 26.0741 38.4688C26.4824 38.4688 26.8148 38.1462 26.8148 37.75C26.8148 37.3538 26.4824 37.0312 26.0741 37.0312ZM37.9259 39.9062C36.7009 39.9062 35.7037 38.9386 35.7037 37.75C35.7037 36.5614 36.7009 35.5938 37.9259 35.5938C39.1509 35.5938 40.1481 36.5614 40.1481 37.75C40.1481 38.9386 39.1509 39.9062 37.9259 39.9062ZM37.9259 37.0312C37.5176 37.0312 37.1852 37.3538 37.1852 37.75C37.1852 38.1462 37.5176 38.4688 37.9259 38.4688C38.3343 38.4688 38.6667 38.1462 38.6667 37.75C38.6667 37.3538 38.3343 37.0312 37.9259 37.0312ZM41.513 45.6562H22.487C22.0778 45.6562 21.7463 45.3346 21.7463 44.9375C21.7463 44.5404 22.0778 44.2188 22.487 44.2188H41.513C41.9222 44.2188 42.2537 44.5404 42.2537 44.9375C42.2537 45.3346 41.9222 45.6562 41.513 45.6562ZM42.1361 48.5312H21.8639C21.4546 48.5312 21.1231 48.2096 21.1231 47.8125C21.1231 47.4154 21.4546 47.0938 21.8639 47.0938H42.1361C42.5454 47.0938 42.8769 47.4154 42.8769 47.8125C42.8769 48.2096 42.5454 48.5312 42.1361 48.5312ZM42.7602 51.4062H21.2398C20.8306 51.4062 20.4991 51.0846 20.4991 50.6875C20.4991 50.2904 20.8306 49.9688 21.2398 49.9688H42.7602C43.1694 49.9688 43.5009 50.2904 43.5009 50.6875C43.5009 51.0846 43.1694 51.4062 42.7602 51.4062ZM43.3843 54.2812H20.6157C20.2065 54.2812 19.875 53.9596 19.875 53.5625C19.875 53.1654 20.2065 52.8438 20.6157 52.8438H43.3843C43.7935 52.8438 44.125 53.1654 44.125 53.5625C44.125 53.9596 43.7935 54.2812 43.3843 54.2812ZM33.4815 38.4688H30.5185C30.1093 38.4688 29.7778 38.1471 29.7778 37.75C29.7778 37.3529 30.1093 37.0312 30.5185 37.0312H33.4815C33.8907 37.0312 34.2222 37.3529 34.2222 37.75C34.2222 38.1471 33.8907 38.4688 33.4815 38.4688ZM37.9269 16.9062C37.6556 16.9062 37.3935 16.7607 37.2639 16.5091L35.987 14.0312H28.0139L26.737 16.5091C26.5537 16.864 26.1093 17.0078 25.7435 16.8308C25.3778 16.6529 25.2296 16.2216 25.412 15.8668L26.8935 12.9918C27.0185 12.7474 27.275 12.5938 27.5556 12.5938H36.4444C36.725 12.5938 36.9815 12.7474 37.1065 12.9909L38.588 15.8659C38.7713 16.2207 38.6222 16.6529 38.2565 16.8299C38.1509 16.882 38.038 16.9062 37.9269 16.9062ZM38.6667 19.7812H25.3333C24.9241 19.7812 24.5926 19.4596 24.5926 19.0625C24.5926 18.6654 24.9241 18.3438 25.3333 18.3438H38.6667C39.0759 18.3438 39.4074 18.6654 39.4074 19.0625C39.4074 19.4596 39.0759 19.7812 38.6667 19.7812ZM34.963 16.9062H29.037C28.6278 16.9062 28.2963 16.5846 28.2963 16.1875C28.2963 15.7904 28.6278 15.4688 29.037 15.4688H34.963C35.3722 15.4688 35.7037 15.7904 35.7037 16.1875C35.7037 16.5846 35.3722 16.9062 34.963 16.9062Z" fill="#44C352"/>
</g>
<defs>
<clipPath id="clip0_695_9078">
<rect width="40" height="46" fill="white" transform="translate(12 9)"/>
</clipPath>
</defs>
</svg>
