<svg width="29" height="28" viewBox="0 0 29 28" fill="none" xmlns="http://www.w3.org/2000/svg">
<g clip-path="url(#clip0_1260_9445)">
<path d="M14.561 25.9062C21.1001 25.9062 26.5141 20.4805 26.5141 13.9531C26.5141 7.41406 21.0884 2 14.5493 2C8.02197 2 2.60791 7.41406 2.60791 13.9531C2.60791 20.4805 8.03369 25.9062 14.561 25.9062ZM14.561 23.9141C9.02979 23.9141 4.61182 19.4844 4.61182 13.9531C4.61182 8.42188 9.01807 3.99219 14.5493 3.99219C20.0806 3.99219 24.522 8.42188 24.522 13.9531C24.522 19.4844 20.0923 23.9141 14.561 23.9141Z" fill="#A7A7A7"/>
<path d="M11.5259 20.8555H17.5845C18.3696 20.8555 18.8501 20.4102 18.8852 19.625L19.2837 10.3555H20.2095C20.4907 10.3555 20.7017 10.1328 20.7134 9.86328C20.7251 9.58203 20.4907 9.35938 20.2095 9.35938H17.397V8.41016C17.397 7.4375 16.7524 6.82812 15.7212 6.82812H13.354C12.3345 6.82812 11.7017 7.4375 11.7017 8.41016V9.35938H8.87744C8.60791 9.35938 8.37354 9.58203 8.37354 9.86328C8.37354 10.1328 8.60791 10.3555 8.87744 10.3555H9.83839L10.2485 19.625C10.272 20.4102 10.729 20.8555 11.5259 20.8555ZM12.5337 19.0391C12.2993 19.0391 12.1118 18.875 12.1118 18.6406L11.8657 11.7969C11.8657 11.5508 12.0181 11.3867 12.2993 11.3867C12.5337 11.3867 12.7212 11.5391 12.7212 11.7969L12.9438 18.6406C12.9438 18.875 12.7915 19.0391 12.5337 19.0391ZM14.5376 19.0391C14.2798 19.0391 14.104 18.875 14.104 18.6406V11.7969C14.104 11.5508 14.2681 11.3867 14.5376 11.3867C14.7954 11.3867 14.9712 11.5508 14.9712 11.7969V18.6406C14.9712 18.875 14.7954 19.0391 14.5376 19.0391ZM16.5298 19.0391C16.272 19.0391 16.1196 18.875 16.1196 18.6406L16.3423 11.7969C16.354 11.5391 16.5298 11.3867 16.7759 11.3867C17.0454 11.3867 17.1977 11.5508 17.1977 11.7969L16.9517 18.6406C16.9517 18.875 16.7641 19.0391 16.5298 19.0391ZM12.8852 9.35938V8.46875C12.8852 8.16406 13.1079 7.96484 13.4243 7.96484H15.6509C15.9673 7.96484 16.1899 8.16406 16.1899 8.46875V9.35938H12.8852Z" fill="#A7A7A7"/>
</g>
<defs>
<clipPath id="clip0_1260_9445">
<rect width="23.9062" height="23.918" fill="white" transform="translate(2.60791 2)"/>
</clipPath>
</defs>
</svg>
