<svg width="67" height="50" viewBox="0 0 67 50" fill="none" xmlns="http://www.w3.org/2000/svg">
<rect x="0.39209" y="0.557617" width="66.2158" height="48.8849" rx="8" fill="#F6F6F6"/>
<g clip-path="url(#clip0_1260_9469)">
<path fill-rule="evenodd" clip-rule="evenodd" d="M48.4684 21.2733C48.4684 26.888 47.185 31.0719 44.6195 33.7985C42.0541 36.525 38.0914 37.8875 32.748 37.8875C27.756 37.8875 23.9679 36.5243 21.3858 33.7985C18.8029 31.0727 17.5111 26.9616 17.5118 21.4652V3.02489C17.5133 2.59246 17.8632 2.24273 18.2951 2.24121H27.3469C27.7796 2.24273 28.1295 2.59246 28.131 3.02489V21.8681C28.131 24.1121 28.5462 25.8395 29.3917 27.0579C30.9135 29.0744 33.7825 29.4757 35.7999 27.9546C36.1028 27.7263 36.376 27.4615 36.6128 27.1657C37.4394 26.0224 37.8508 24.3374 37.8485 22.1108V18.5824H48.4684V21.2725V21.2733Z" fill="#203E7A"/>
<path fill-rule="evenodd" clip-rule="evenodd" d="M47.6479 16.5219H37.8499V3.0613C37.8515 2.60839 38.2181 2.24197 38.6704 2.24121H40.1368C40.1399 6.83707 43.8681 10.5612 48.4661 10.5612H48.4684V16.5219H47.6471H47.6479Z" fill="#203E7A"/>
<path fill-rule="evenodd" clip-rule="evenodd" d="M42.224 2.24099H47.6478C48.101 2.24251 48.4676 2.60893 48.4683 3.06109V8.48917C45.0194 8.48917 42.2233 5.69433 42.2233 2.24706V2.24023L42.224 2.24099Z" fill="#F4821F"/>
<path fill-rule="evenodd" clip-rule="evenodd" d="M19.29 46.8436C20.4885 46.8436 21.0668 46.1768 21.0668 45.1973V42.8372H20.2091V45.1738C20.2091 45.6836 19.7955 46.0971 19.2854 46.0971C18.7754 46.0971 18.3617 45.6836 18.3617 45.1738V42.8372H17.5109V45.2049C17.5109 46.1722 18.0893 46.8451 19.2877 46.8451L19.2892 46.8436H19.29ZM26.2432 46.773V46.0356H24.3427L26.2022 43.5086V42.8357H23.2444V43.5739H25.1039L23.2444 46.0933V46.77L26.2432 46.773ZM30.25 46.8436C30.9384 46.8595 31.5767 46.4848 31.897 45.8756L31.1744 45.5274C30.9953 45.8748 30.6386 46.0948 30.2477 46.0994C29.5335 46.0637 28.9832 45.4568 29.0189 44.7429C29.0515 44.0783 29.5828 43.5473 30.2477 43.5147C30.6378 43.5215 30.9938 43.7408 31.1744 44.0867L31.897 43.7324C31.5767 43.124 30.9376 42.7507 30.25 42.7704C29.1251 42.7371 28.1862 43.6209 28.1521 44.7452C28.1187 45.8695 29.0029 46.8079 30.1278 46.8421C30.168 46.8436 30.209 46.8436 30.2492 46.8421L30.25 46.8436ZM37.5743 46.773L36.0571 42.8372H35.0066L33.4833 46.773H34.4397L34.6878 46.1062H36.3766L36.6187 46.773H37.5751H37.5743ZM36.1459 45.3688H34.9178L35.5319 43.6748L36.1459 45.3688ZM43.235 47.7608L41.7898 45.2755C42.3226 45.1473 42.6862 44.6542 42.652 44.1072C42.6778 43.4305 42.1503 42.8615 41.4733 42.8357C41.4255 42.8342 41.3777 42.8349 41.3299 42.8387H39.487V46.7746H40.3257V45.3756H40.9397L42.2725 47.76H43.235V47.7608ZM41.2054 44.6382H40.3257V43.5761H41.2024C41.4961 43.545 41.7587 43.7582 41.7898 44.051C41.8209 44.3439 41.6077 44.6071 41.3147 44.6382C41.2775 44.642 41.2403 44.642 41.2031 44.6382H41.2061H41.2054ZM46.381 46.7746C47.6151 46.7746 48.4713 45.9954 48.4713 44.8097C48.4713 43.6239 47.6136 42.8387 46.381 42.8387H44.8281V46.7746H46.381ZM46.381 46.0372H45.6668V43.5769H46.381C47.0155 43.5298 47.5681 44.0063 47.6151 44.6405C47.6189 44.6966 47.6189 44.7535 47.6151 44.8097C47.6425 45.4598 47.1377 46.0091 46.4873 46.0364C46.4516 46.0379 46.4152 46.0379 46.3787 46.0364H46.381V46.0372Z" fill="#233C7E"/>
<path fill-rule="evenodd" clip-rule="evenodd" d="M49.4891 42.7621V42.7712C49.4891 43.1763 49.1612 43.504 48.7566 43.5048C48.3513 43.5048 48.0234 43.177 48.0227 42.7727C48.0227 42.3676 48.3506 42.0398 48.7551 42.0391H49.4883V42.7621H49.4891Z" fill="#233C7E"/>
</g>
<defs>
<clipPath id="clip0_1260_9469">
<rect width="31.9782" height="45.5186" fill="white" transform="translate(17.5109 2.24121)"/>
</clipPath>
</defs>
</svg>
