<svg width="25" height="25" viewBox="0 0 25 25" fill="none" xmlns="http://www.w3.org/2000/svg">
<path fill-rule="evenodd" clip-rule="evenodd" d="M8 8C8 5.65279 9.90279 3.75 12.25 3.75C14.5972 3.75 16.5 5.65279 16.5 8C16.5 10.3472 14.5972 12.25 12.25 12.25C9.90279 12.25 8 10.3472 8 8ZM12.25 5.25C10.7312 5.25 9.5 6.48122 9.5 8C9.5 9.51878 10.7312 10.75 12.25 10.75C13.7688 10.75 15 9.51878 15 8C15 6.48122 13.7688 5.25 12.25 5.25Z" fill="#747474"/>
<path fill-rule="evenodd" clip-rule="evenodd" d="M8.25 15.25C7.00736 15.25 6 16.2574 6 17.5V18.6883C6 18.7064 6.01311 18.7218 6.03097 18.7247C10.1497 19.3972 14.3503 19.3972 18.469 18.7247C18.4869 18.7218 18.5 18.7064 18.5 18.6883V17.5C18.5 16.2574 17.4926 15.25 16.25 15.25H15.9091C15.8828 15.25 15.8566 15.2542 15.8315 15.2623L14.966 15.545C13.2012 16.1212 11.2988 16.1212 9.53398 15.545L8.66847 15.2623C8.64342 15.2542 8.61722 15.25 8.59087 15.25H8.25ZM4.5 17.5C4.5 15.4289 6.17893 13.75 8.25 13.75H8.59087C8.77536 13.75 8.95869 13.7792 9.13407 13.8364L9.99959 14.1191C11.4619 14.5965 13.0381 14.5965 14.5004 14.1191L15.3659 13.8364C15.5413 13.7792 15.7246 13.75 15.9091 13.75H16.25C18.3211 13.75 20 15.4289 20 17.5V18.6883C20 19.4415 19.4541 20.0837 18.7107 20.2051C14.4319 20.9037 10.0681 20.9037 5.78927 20.2051C5.04588 20.0837 4.5 19.4415 4.5 18.6883V17.5Z" fill="#747474"/>
</svg>
