<svg width="68" height="50" viewBox="0 0 68 50" fill="none" xmlns="http://www.w3.org/2000/svg">
<rect x="0.89209" y="0.557617" width="66.2158" height="48.8849" rx="8" fill="#F6F6F6"/>
<g clip-path="url(#clip0_106_762)">
<path fill-rule="evenodd" clip-rule="evenodd" d="M48.9686 21.273C48.9686 26.8877 47.6851 31.0717 45.1197 33.7982C42.5543 36.5248 38.5915 37.8873 33.2481 37.8873C28.2562 37.8873 24.468 36.524 21.8859 33.7982C19.303 31.0724 18.0112 26.9613 18.012 21.465V3.02464C18.0135 2.59222 18.3634 2.24248 18.7953 2.24097H27.8471C28.2797 2.24248 28.6296 2.59222 28.6311 3.02464V21.8678C28.6311 24.1119 29.0463 25.8393 29.8918 27.0577C31.4136 29.0742 34.2827 29.4755 36.3001 27.9544C36.6029 27.726 36.8762 27.4613 37.113 27.1654C37.9395 26.0221 38.3509 24.3372 38.3486 22.1106V18.5821H48.9686V21.2723V21.273Z" fill="#203E7A"/>
<path fill-rule="evenodd" clip-rule="evenodd" d="M48.148 16.5217H38.3501V3.06106C38.3516 2.60815 38.7182 2.24173 39.1706 2.24097H40.637C40.64 6.83682 44.3682 10.561 48.9662 10.561H48.9685V16.5217H48.1473H48.148Z" fill="#203E7A"/>
<path fill-rule="evenodd" clip-rule="evenodd" d="M42.7241 2.24075H48.148C48.6011 2.24227 48.9677 2.60869 48.9684 3.06084V8.48893C45.5195 8.48893 42.7234 5.69409 42.7234 2.24682V2.23999L42.7241 2.24075Z" fill="#F4821F"/>
<path fill-rule="evenodd" clip-rule="evenodd" d="M19.7901 46.8431C20.9885 46.8431 21.5669 46.1763 21.5669 45.1969V42.8367H20.7092V45.1733C20.7092 45.6831 20.2956 46.0966 19.7855 46.0966C19.2755 46.0966 18.8618 45.6831 18.8618 45.1733V42.8367H18.011V45.2044C18.011 46.1717 18.5893 46.8446 19.7878 46.8446L19.7893 46.8431H19.7901ZM26.7433 46.7726V46.0352H24.8428L26.7023 43.5081V42.8352H23.7445V43.5734H25.604L23.7445 46.0928V46.7695L26.7433 46.7726ZM30.7501 46.8431C31.4385 46.859 32.0768 46.4843 32.3971 45.8751L31.6745 45.5269C31.4954 45.8743 31.1387 46.0943 30.7478 46.0989C30.0336 46.0632 29.4833 45.4563 29.519 44.7424C29.5516 44.0779 30.0829 43.5468 30.7478 43.5142C31.1379 43.521 31.4939 43.7403 31.6745 44.0862L32.3971 43.7319C32.0768 43.1235 31.4377 42.7502 30.7501 42.77C29.6252 42.7366 28.6863 43.6204 28.6522 44.7447C28.6188 45.869 29.503 46.8075 30.6279 46.8416C30.6681 46.8431 30.7091 46.8431 30.7493 46.8416L30.7501 46.8431ZM38.0744 46.7726L36.5572 42.8367H35.5067L33.9834 46.7726H34.9397L35.1879 46.1057H36.8767L37.1188 46.7726H38.0752H38.0744ZM36.646 45.3683H35.4179L36.0319 43.6743L36.646 45.3683ZM43.735 47.7603L42.2899 45.275C42.8227 45.1468 43.1863 44.6537 43.1521 44.1067C43.1779 43.43 42.6504 42.861 41.9734 42.8352C41.9256 42.8337 41.8778 42.8344 41.83 42.8382H39.9871V46.7741H40.8258V45.3751H41.4398L42.7726 47.7596H43.735V47.7603ZM41.7055 44.6377H40.8258V43.5756H41.7024C41.9962 43.5445 42.2588 43.7577 42.2899 44.0505C42.321 44.3434 42.1077 44.6066 41.8148 44.6377C41.7776 44.6415 41.7404 44.6415 41.7032 44.6377H41.7062H41.7055ZM46.8811 46.7741C48.1152 46.7741 48.9714 45.9949 48.9714 44.8092C48.9714 43.6234 48.1137 42.8382 46.8811 42.8382H45.3282V46.7741H46.8811ZM46.8811 46.0367H46.1669V43.5764H46.8811C47.5156 43.5294 48.0682 44.0058 48.1152 44.64C48.119 44.6962 48.119 44.7531 48.1152 44.8092C48.1426 45.4593 47.6378 46.0086 46.9874 46.0359C46.9517 46.0374 46.9153 46.0374 46.8788 46.0359H46.8811V46.0367Z" fill="#233C7E"/>
<path fill-rule="evenodd" clip-rule="evenodd" d="M49.9891 42.7618V42.7709C49.9891 43.176 49.6612 43.5038 49.2567 43.5045C48.8514 43.5045 48.5235 43.1768 48.5227 42.7724C48.5227 42.3673 48.8506 42.0396 49.2551 42.0388H49.9883V42.7618H49.9891Z" fill="#233C7E"/>
</g>
<defs>
<clipPath id="clip0_106_762">
<rect width="31.9782" height="45.5186" fill="white" transform="translate(18.011 2.24072)"/>
</clipPath>
</defs>
</svg>
