<svg width="26" height="21" viewBox="0 0 26 21" fill="none" xmlns="http://www.w3.org/2000/svg">
<path d="M6.274 5.57202V11.746C6.274 12.614 6.484 13.258 6.904 13.678C7.33333 14.098 7.926 14.308 8.682 14.308C9.42867 14.308 10.012 14.098 10.432 13.678C10.8613 13.258 11.076 12.614 11.076 11.746V5.57202H12.35V11.732C12.35 12.544 12.1867 13.23 11.86 13.79C11.5333 14.3407 11.09 14.7514 10.53 15.022C9.97933 15.2927 9.35867 15.428 8.668 15.428C7.97733 15.428 7.352 15.2927 6.792 15.022C6.24133 14.7514 5.80267 14.3407 5.476 13.79C5.15867 13.23 5 12.544 5 11.732V5.57202H6.274Z" fill="#24A1DE"/>
<path d="M15.5533 14.224H20.3133V15.33H14.0413V14.322L18.7733 6.67802H14.0973V5.57202H20.2853V6.58002L15.5533 14.224Z" fill="#24A1DE"/>
</svg>
