<svg width="28" height="28" viewBox="0 0 28 28" fill="none" xmlns="http://www.w3.org/2000/svg">
<path d="M0.66096 9.73892C0.232098 11.0825 -0.00016149 12.5138 -0.000106802 13.9996C-0.00016149 15.4855 0.232152 16.917 0.661014 18.2605L14 18.8693L27.3389 18.2606C27.7677 16.917 28.0001 15.4855 28.0001 13.9998C28.0001 12.5139 27.7678 11.0825 27.3389 9.73886L14 9.13019L0.66096 9.73892Z" fill="white"/>
<path d="M27.339 9.73886L14.0001 9.13019L0.661053 9.73886C0.533959 10.1372 0.424529 10.5434 0.332817 10.9563H27.6671C27.5755 10.5433 27.4661 10.1371 27.339 9.73886Z" fill="#D91538"/>
<path d="M0.332977 17.0434C0.424579 17.4563 0.53401 17.8624 0.661104 18.2607L0.662417 18.2608L14 18.8695L27.339 18.2608C27.4661 17.8625 27.5755 17.4563 27.6672 17.0434H0.332977Z" fill="#D91538"/>
<path d="M14.0003 28C20.2465 28 25.5365 23.9092 27.3393 18.2608H0.661385C2.46417 23.9091 7.75423 28 14.0003 28Z" fill="#13A533"/>
<path d="M13.9999 5.48305e-10C7.7538 5.46884e-05 2.46384 4.09087 0.66095 9.73919L27.3388 9.73924C25.5361 4.09081 20.2461 -5.46873e-05 13.9999 5.48305e-10Z" fill="#338AF3"/>
<path d="M6.3978 5.78249C6.3978 4.47124 7.31934 3.37584 8.54998 3.10711C8.36087 3.06576 8.1646 3.0434 7.96302 3.0434C6.45024 3.0434 5.22387 4.26972 5.22387 5.78254C5.22387 7.29537 6.45013 8.52169 7.96302 8.52169C8.1646 8.52169 8.36082 8.49927 8.54998 8.45798C7.3194 8.18914 6.3978 7.09374 6.3978 5.78249Z" fill="#F3F3F3"/>
<path d="M10.1691 7.02765L10.3544 7.59832H10.9545L10.4691 7.95105L10.6545 8.52172L10.1691 8.16904L9.68353 8.52172L9.86898 7.95105L9.38351 7.59832H9.98355L10.1691 7.02765Z" fill="#F3F3F3"/>
<path d="M12.0843 7.02765L12.2698 7.59832H12.8698L12.3843 7.95105L12.5698 8.52172L12.0843 8.16904L11.5988 8.52172L11.7843 7.95105L11.2989 7.59832H11.8989L12.0843 7.02765Z" fill="#F3F3F3"/>
<path d="M13.9993 7.02765L14.1847 7.59832H14.7848L14.2993 7.95105L14.4847 8.52172L13.9993 8.16904L13.5138 8.52172L13.6993 7.95105L13.2138 7.59832H13.8139L13.9993 7.02765Z" fill="#F3F3F3"/>
<path d="M15.9144 7.02765L16.0999 7.59832H16.6999L16.2145 7.95105L16.3999 8.52172L15.9144 8.16904L15.4289 8.52172L15.6144 7.95105L15.1289 7.59832H15.7289L15.9144 7.02765Z" fill="#F3F3F3"/>
<path d="M17.8297 7.02765L18.0152 7.59832H18.6152L18.1298 7.95105L18.3152 8.52172L17.8297 8.16904L17.3442 8.52172L17.5297 7.95105L17.0443 7.59832H17.6443L17.8297 7.02765Z" fill="#F3F3F3"/>
<path d="M12.0843 5.03558L12.2698 5.6062H12.8698L12.3843 5.95899L12.5698 6.5296L12.0843 6.17692L11.5988 6.5296L11.7843 5.95899L11.2989 5.6062H11.8989L12.0843 5.03558Z" fill="#F3F3F3"/>
<path d="M13.9993 5.03558L14.1847 5.6062H14.7848L14.2993 5.95899L14.4847 6.5296L13.9993 6.17692L13.5138 6.5296L13.6993 5.95899L13.2138 5.6062H13.8139L13.9993 5.03558Z" fill="#F3F3F3"/>
<path d="M15.9144 5.03558L16.0999 5.6062H16.6999L16.2145 5.95899L16.3999 6.5296L15.9144 6.17692L15.4289 6.5296L15.6144 5.95899L15.1289 5.6062H15.7289L15.9144 5.03558Z" fill="#F3F3F3"/>
<path d="M17.8297 5.03558L18.0152 5.6062H18.6152L18.1298 5.95899L18.3152 6.5296L17.8297 6.17692L17.3442 6.5296L17.5297 5.95899L17.0443 5.6062H17.6443L17.8297 5.03558Z" fill="#F3F3F3"/>
<path d="M13.9993 3.04358L14.1847 3.6143H14.7848L14.2993 3.96698L14.4847 4.53771L13.9993 4.18502L13.5138 4.53771L13.6993 3.96698L13.2138 3.6143H13.8139L13.9993 3.04358Z" fill="#F3F3F3"/>
<path d="M15.9144 3.04358L16.0999 3.6143H16.6999L16.2145 3.96698L16.3999 4.53771L15.9144 4.18502L15.4289 4.53771L15.6144 3.96698L15.1289 3.6143H15.7289L15.9144 3.04358Z" fill="#F3F3F3"/>
<path d="M17.8297 3.04358L18.0152 3.6143H18.6152L18.1298 3.96698L18.3152 4.53771L17.8297 4.18502L17.3442 4.53771L17.5297 3.96698L17.0443 3.6143H17.6443L17.8297 3.04358Z" fill="#F3F3F3"/>
</svg>
