<svg width="29" height="29" viewBox="0 0 29 29" fill="none" xmlns="http://www.w3.org/2000/svg">
<path d="M0.946223 10.021C0.517361 11.3646 0.285102 12.7959 0.285156 14.2818C0.285102 15.7676 0.517415 17.1991 0.946277 18.5426L14.2852 19.1514L27.6242 18.5428C28.053 17.1991 28.2854 15.7676 28.2854 14.2819C28.2853 12.796 28.0531 11.3646 27.6242 10.021L14.2852 9.41229L0.946223 10.021Z" fill="white"/>
<path d="M27.6244 10.021L14.2854 9.41229L0.9464 10.021C0.819306 10.4193 0.709876 10.8255 0.618164 11.2384H27.9525C27.8608 10.8254 27.7515 10.4192 27.6244 10.021Z" fill="#D91538"/>
<path d="M0.618164 17.3255C0.709766 17.7384 0.819197 18.1445 0.946291 18.5429L0.947604 18.5429L14.2852 19.1516L27.6242 18.5429C27.7513 18.1446 27.8607 17.7384 27.9523 17.3255H0.618164Z" fill="#D91538"/>
<path d="M14.2857 28.2821C20.5319 28.2821 25.8219 24.1913 27.6246 18.5429H0.946777C2.74956 24.1912 8.03962 28.2821 14.2857 28.2821Z" fill="#13A533"/>
<path d="M14.2852 0.282104C8.03914 0.282159 2.74918 4.37297 0.946289 10.0213L27.6242 10.0213C25.8215 4.37292 20.5315 0.28205 14.2852 0.282104Z" fill="#338AF3"/>
<path d="M6.68321 6.06459C6.68321 4.75334 7.60475 3.65795 8.83539 3.38921C8.64628 3.34787 8.45001 3.3255 8.24843 3.3255C6.73565 3.3255 5.50928 4.55182 5.50928 6.06465C5.50928 7.57748 6.73554 8.8038 8.24843 8.8038C8.45001 8.8038 8.64623 8.78138 8.83539 8.74009C7.60481 8.47124 6.68321 7.37584 6.68321 6.06459Z" fill="#F0F0F0"/>
<path d="M10.4545 7.30975L10.6399 7.88042H11.2399L10.7545 8.23316L10.9399 8.80382L10.4545 8.45114L9.96896 8.80382L10.1544 8.23316L9.66895 7.88042H10.269L10.4545 7.30975Z" fill="#F0F0F0"/>
<path d="M12.3699 7.30975L12.5553 7.88042H13.1554L12.6699 8.23316L12.8554 8.80382L12.3699 8.45114L11.8844 8.80382L12.0699 8.23316L11.5845 7.88042H12.1845L12.3699 7.30975Z" fill="#F0F0F0"/>
<path d="M14.2846 7.30975L14.47 7.88042H15.07L14.5846 8.23316L14.77 8.80382L14.2846 8.45114L13.799 8.80382L13.9845 8.23316L13.499 7.88042H14.0991L14.2846 7.30975Z" fill="#F0F0F0"/>
<path d="M16.2001 7.30975L16.3855 7.88042H16.9855L16.5001 8.23316L16.6856 8.80382L16.2001 8.45114L15.7146 8.80382L15.9001 8.23316L15.4146 7.88042H16.0146L16.2001 7.30975Z" fill="#F0F0F0"/>
<path d="M18.115 7.30975L18.3005 7.88042H18.9005L18.4151 8.23316L18.6005 8.80382L18.115 8.45114L17.6296 8.80382L17.815 8.23316L17.3296 7.88042H17.9296L18.115 7.30975Z" fill="#F0F0F0"/>
<path d="M12.3699 5.31772L12.5553 5.88833H13.1554L12.6699 6.24112L12.8554 6.81174L12.3699 6.45905L11.8844 6.81174L12.0699 6.24112L11.5845 5.88833H12.1845L12.3699 5.31772Z" fill="#F0F0F0"/>
<path d="M14.2846 5.31772L14.47 5.88833H15.07L14.5846 6.24112L14.77 6.81174L14.2846 6.45905L13.799 6.81174L13.9845 6.24112L13.499 5.88833H14.0991L14.2846 5.31772Z" fill="#F0F0F0"/>
<path d="M16.2001 5.31772L16.3855 5.88833H16.9855L16.5001 6.24112L16.6856 6.81174L16.2001 6.45905L15.7146 6.81174L15.9001 6.24112L15.4146 5.88833H16.0146L16.2001 5.31772Z" fill="#F0F0F0"/>
<path d="M18.115 5.31772L18.3005 5.88833H18.9005L18.4151 6.24112L18.6005 6.81174L18.115 6.45905L17.6296 6.81174L17.815 6.24112L17.3296 5.88833H17.9296L18.115 5.31772Z" fill="#F0F0F0"/>
<path d="M14.2846 3.32565L14.47 3.89638H15.07L14.5846 4.24906L14.77 4.81978L14.2846 4.4671L13.799 4.81978L13.9845 4.24906L13.499 3.89638H14.0991L14.2846 3.32565Z" fill="#F0F0F0"/>
<path d="M16.2001 3.32565L16.3855 3.89638H16.9855L16.5001 4.24906L16.6856 4.81978L16.2001 4.4671L15.7146 4.81978L15.9001 4.24906L15.4146 3.89638H16.0146L16.2001 3.32565Z" fill="#F0F0F0"/>
<path d="M18.115 3.32565L18.3005 3.89638H18.9005L18.4151 4.24906L18.6005 4.81978L18.115 4.4671L17.6296 4.81978L17.815 4.24906L17.3296 3.89638H17.9296L18.115 3.32565Z" fill="#F0F0F0"/>
</svg>
