<svg width="68" height="50" viewBox="0 0 68 50" fill="none" xmlns="http://www.w3.org/2000/svg">
<rect x="0.89209" y="0.557617" width="66.2158" height="48.8849" rx="8" fill="#F6F6F6"/>
<path d="M25.5325 33.5346L28.4326 16.5062H33.0755L30.1621 33.5346H25.5325Z" fill="#0058A0"/>
<path d="M47.0174 16.9177C46.0995 16.5718 44.6494 16.1993 42.8535 16.1993C38.2638 16.1993 35.031 18.5141 35.0044 21.8267C34.9778 24.2745 37.3059 25.6448 39.0753 26.4563C40.8846 27.2944 41.4965 27.8265 41.4832 28.5715C41.4832 29.7156 40.0331 30.2345 38.7028 30.2345C36.8403 30.2345 35.8559 29.9817 34.326 29.3431L33.7273 29.0771L33.0754 32.8951C34.153 33.3741 36.1618 33.7865 38.2505 33.7998C43.1328 33.7998 46.299 31.5116 46.339 27.9729C46.3523 26.0306 45.115 24.5672 42.4411 23.3433C40.818 22.5584 39.8203 22.0262 39.8336 21.228C39.8336 20.523 40.6717 19.7647 42.4943 19.7647C44.0109 19.7381 45.115 20.0706 45.9665 20.4165L46.3789 20.6161L47.0041 16.9177H47.0174Z" fill="#0058A0"/>
<path d="M58.9242 16.5188H55.3323C54.2148 16.5188 53.39 16.8248 52.8978 17.929L46.0066 33.5472H50.8889C50.8889 33.5472 51.6872 31.4452 51.8601 30.9929C52.3922 30.9929 57.1283 30.9929 57.8067 30.9929C57.9398 31.5916 58.3655 33.5472 58.3655 33.5472H62.6758L58.9109 16.5188H58.9242ZM53.2037 27.5074C53.5895 26.523 55.0529 22.7448 55.0529 22.7448C55.0263 22.7847 55.4387 21.7603 55.6649 21.1218L55.9842 22.5852C55.9842 22.5852 56.8755 26.656 57.0617 27.5074H53.2037Z" fill="#0058A0"/>
<path d="M21.6345 16.5188L17.0848 28.1327L16.5925 25.778C15.7544 23.0508 13.107 20.1107 10.167 18.634L14.3177 33.5339H19.2266L26.5435 16.5188H21.6212H21.6345Z" fill="#0058A0"/>
<path d="M12.8675 16.5062H5.37768L5.32446 16.8654C11.1514 18.2756 15.0094 21.6813 16.6058 25.7787L14.9827 17.943C14.7034 16.8654 13.8919 16.5461 12.8808 16.5062H12.8675Z" fill="#FAA61A"/>
</svg>
