<svg width="67" height="50" viewBox="0 0 67 50" fill="none" xmlns="http://www.w3.org/2000/svg">
<rect x="0.39209" y="0.557617" width="66.2158" height="48.8849" rx="8" fill="#F6F6F6"/>
<path d="M25.0325 33.5352L27.9326 16.5068H32.5755L29.6621 33.5352H25.0325Z" fill="#0058A0"/>
<path d="M46.5174 16.9186C45.5995 16.5727 44.1494 16.2002 42.3534 16.2002C37.7637 16.2002 34.531 18.515 34.5044 21.8275C34.4778 24.2754 36.8059 25.6456 38.5753 26.4571C40.3845 27.2953 40.9965 27.8274 40.9832 28.5724C40.9832 29.7165 39.5331 30.2353 38.2028 30.2353C36.3403 30.2353 35.3558 29.9825 33.8259 29.344L33.2273 29.0779L32.5754 32.896C33.653 33.3749 35.6618 33.7873 37.7504 33.8006C42.6328 33.8006 45.799 31.5124 45.8389 27.9737C45.8522 26.0314 44.615 24.568 41.941 23.3441C40.318 22.5592 39.3202 22.0271 39.3335 21.2289C39.3335 20.5238 40.1717 19.7655 41.9942 19.7655C43.5108 19.7389 44.615 20.0715 45.4664 20.4174L45.8788 20.6169L46.5041 16.9186H46.5174Z" fill="#0058A0"/>
<path d="M58.4242 16.5195H54.8322C53.7147 16.5195 52.8899 16.8255 52.3977 17.9297L45.5065 33.5479H50.3889C50.3889 33.5479 51.1871 31.446 51.36 30.9937C51.8922 30.9937 56.6282 30.9937 57.3067 30.9937C57.4397 31.5923 57.8654 33.5479 57.8654 33.5479H62.1757L58.4109 16.5195H58.4242ZM52.7037 27.5082C53.0895 26.5237 54.5529 22.7455 54.5529 22.7455C54.5263 22.7854 54.9387 21.7611 55.1648 21.1225L55.4841 22.5859C55.4841 22.5859 56.3754 26.6567 56.5617 27.5082H52.7037Z" fill="#0058A0"/>
<path d="M21.1344 16.5195L16.5847 28.1334L16.0924 25.7787C15.2543 23.0515 12.6069 20.1115 9.66687 18.6348L13.8175 33.5346H18.7265L26.0434 16.5195H21.1211H21.1344Z" fill="#0058A0"/>
<path d="M12.3675 16.5068H4.87768L4.82446 16.866C10.6514 18.2762 14.5094 21.6819 16.1058 25.7793L14.4827 17.9436C14.2034 16.866 13.3919 16.5467 12.3808 16.5068H12.3675Z" fill="#FAA61A"/>
</svg>
