<svg width="24" height="24" viewBox="0 0 24 24" fill="none" xmlns="http://www.w3.org/2000/svg">
<path d="M13.3151 3.20427C13.1911 2.96223 13.0027 2.75911 12.7707 2.61728C12.5387 2.47544 12.272 2.40039 12 2.40039C11.7281 2.40039 11.4614 2.47544 11.2294 2.61728C10.9973 2.75911 10.809 2.96223 10.685 3.20427L2.55809 19.458C2.44474 19.6829 2.39078 19.9331 2.40132 20.1848C2.41186 20.4365 2.48656 20.6812 2.61832 20.8959C2.75008 21.1106 2.93454 21.288 3.15417 21.4113C3.37378 21.5346 3.62128 21.5998 3.87317 21.6005H20.1269C20.3788 21.5998 20.6263 21.5346 20.8459 21.4113C21.0656 21.288 21.25 21.1106 21.3818 20.8959C21.5135 20.6812 21.5882 20.4365 21.5987 20.1848C21.6093 19.9331 21.5553 19.6829 21.4419 19.458L13.3151 3.20427Z" stroke="black" stroke-width="2" stroke-linecap="round" stroke-linejoin="round"/>
<path d="M12 9.04102V13.8433" stroke="black" stroke-width="2" stroke-linecap="round" stroke-linejoin="round"/>
<path d="M12 17.9058C11.7959 17.9058 11.6306 17.7405 11.6306 17.5364C11.6306 17.3323 11.7959 17.167 12 17.167" stroke="black" stroke-width="2" stroke-linecap="round" stroke-linejoin="round"/>
<path d="M12 17.9058C12.204 17.9058 12.3694 17.7405 12.3694 17.5364C12.3694 17.3323 12.204 17.167 12 17.167" stroke="black" stroke-width="2" stroke-linecap="round" stroke-linejoin="round"/>
</svg>
