<svg width="28" height="29" viewBox="0 0 28 29" fill="none" xmlns="http://www.w3.org/2000/svg">
<g clip-path="url(#clip0_10_410)">
<path d="M13.948 26.0015C17.2058 26.0015 19.866 21.1851 19.866 14.7281C19.866 8.23584 17.2176 3.41943 13.948 3.41943C10.6785 3.41943 8.03003 8.23584 8.03003 14.7281C8.03003 21.1851 10.6902 26.0015 13.948 26.0015ZM13.948 4.8374C16.2449 4.8374 18.2957 9.40771 18.2957 14.7281C18.2957 19.9546 16.2449 24.5718 13.948 24.5718C11.6511 24.5718 9.60034 19.9546 9.60034 14.7281C9.60034 9.40771 11.6511 4.8374 13.948 4.8374ZM13.1863 3.5835V25.7788H14.7215V3.5835H13.1863ZM13.948 19.1109C10.3386 19.1109 7.1394 20.0601 5.49878 21.5718L6.68237 22.5445C8.22925 21.314 10.7488 20.646 13.948 20.646C17.1472 20.646 19.6668 21.314 21.2137 22.5445L22.3972 21.5718C20.7566 20.0601 17.5574 19.1109 13.948 19.1109ZM24.7644 13.9312H3.13159V15.4663H24.7644V13.9312ZM13.948 10.3569C17.5574 10.3569 20.7566 9.40771 22.3972 7.89599L21.2137 6.92334C19.6668 8.14208 17.1472 8.82177 13.948 8.82177C10.7488 8.82177 8.22925 8.14208 6.68237 6.92334L5.49878 7.89599C7.1394 9.40771 10.3386 10.3569 13.948 10.3569ZM13.948 26.6577C20.4871 26.6577 25.9011 21.232 25.9011 14.7046C25.9011 8.16552 20.4754 2.75146 13.9363 2.75146C7.40893 2.75146 1.99487 8.16552 1.99487 14.7046C1.99487 21.232 7.42065 26.6577 13.948 26.6577ZM13.948 25.064C8.28784 25.064 3.58862 20.3648 3.58862 14.7046C3.58862 9.04444 8.27612 4.34521 13.9363 4.34521C19.5965 4.34521 24.3074 9.04444 24.3074 14.7046C24.3074 20.3648 19.6082 25.064 13.948 25.064Z" fill="black" fill-opacity="0.85"/>
</g>
<defs>
<clipPath id="clip0_10_410">
<rect width="23.9062" height="23.918" fill="white" transform="translate(1.99487 2.75146)"/>
</clipPath>
</defs>
</svg>
