<svg width="290" height="222" viewBox="0 0 290 222" fill="none" xmlns="http://www.w3.org/2000/svg">
<g clip-path="url(#clip0_1287_31712)">
<path d="M263.472 19.0996H50.1581V210.629H263.472V19.0996Z" fill="white"/>
<path d="M263.946 211.097H49.6855V18.6309H263.948V211.096L263.946 211.097ZM50.6323 210.161H262.998V19.5675H50.6323V210.161Z" fill="#16161B"/>
<path d="M263.472 20.5869H50.1581V13.5804C50.1581 6.33808 56.1031 0.46875 63.435 0.46875H250.195C257.529 0.46875 263.472 6.33976 263.472 13.5804V20.5869Z" fill="#16161B"/>
<path d="M263.946 21.0548H49.6855V13.58C49.6855 6.0917 55.854 0 63.4367 0H250.195C257.778 0 263.946 6.0917 263.946 13.58V21.0548ZM50.6323 20.1181H262.998V13.58C262.998 6.60889 257.254 0.936666 250.195 0.936666H63.4367C56.376 0.936666 50.6323 6.60889 50.6323 13.58V20.1181Z" fill="#16161B"/>
<path d="M59.7963 13.2348C61.3103 13.2348 62.5377 12.0227 62.5377 10.5275C62.5377 9.03238 61.3103 7.82031 59.7963 7.82031C58.2823 7.82031 57.055 9.03238 57.055 10.5275C57.055 12.0227 58.2823 13.2348 59.7963 13.2348Z" fill="#E3F3EC"/>
<path d="M67.35 13.2348C68.864 13.2348 70.0913 12.0227 70.0913 10.5275C70.0913 9.03238 68.864 7.82031 67.35 7.82031C65.836 7.82031 64.6086 9.03238 64.6086 10.5275C64.6086 12.0227 65.836 13.2348 67.35 13.2348Z" fill="#00CB82"/>
<path d="M74.9053 13.2348C76.4193 13.2348 77.6467 12.0227 77.6467 10.5275C77.6467 9.03238 76.4193 7.82031 74.9053 7.82031C73.3913 7.82031 72.164 9.03238 72.164 10.5275C72.164 12.0227 73.3913 13.2348 74.9053 13.2348Z" fill="#FEC537"/>
<path d="M211.562 168.27V210.617H123.044L125.602 183.23L125.761 181.594L127.834 159.412C128.276 154.638 131.808 150.718 136.549 149.67C141.056 148.677 147.526 147.96 154.681 147.566C155.111 147.54 155.541 147.515 155.977 147.497C163.618 147.116 171.936 147.097 179.406 147.49C179.803 147.508 180.196 147.534 180.588 147.559C187.628 147.972 193.816 148.763 197.848 149.98C198.879 150.291 199.865 150.679 200.806 151.14C201.096 151.284 201.388 151.434 201.666 151.59C207.689 154.917 211.564 161.245 211.564 168.267L211.562 168.27Z" fill="#FEC432"/>
<g opacity="0.4">
<path d="M180.588 147.563L126.994 210.62H125.756L179.406 147.496C179.803 147.515 180.196 147.54 180.588 147.565V147.563Z" fill="white"/>
</g>
<path d="M191.717 191.041L191.654 192.564L176.308 210.62H175.076L191.717 191.041Z" fill="white"/>
<path d="M230.97 210.62H190.933L191.652 192.564L191.716 191.041L193.391 149.08L206.461 150.866C211.758 151.59 216.604 153.88 220.403 157.281C220.644 157.486 220.871 157.699 221.098 157.924C224.637 161.326 227.171 165.726 228.164 170.731C228.353 171.698 228.479 172.66 228.542 173.602L230.97 210.619V210.62Z" fill="#FEC432"/>
<g opacity="0.4">
<path d="M200.363 211.086C200.255 211.086 200.146 211.05 200.057 210.976C199.856 210.81 199.83 210.515 199.999 210.318L228.414 176.882C228.583 176.684 228.882 176.658 229.081 176.825C229.283 176.992 229.308 177.287 229.139 177.484L200.724 210.919C200.631 211.029 200.497 211.086 200.361 211.086H200.363Z" fill="white"/>
</g>
<path d="M231.475 211.09H190.458V169.529H191.405V210.153H230.463L228.071 173.63L229.016 173.569L231.475 211.09Z" fill="#16161B"/>
<path d="M137.631 149.398L123.044 210.62H85.1304L92.4861 193.183L93.7058 190.293L102.611 169.18C105.961 161.235 112.943 155.342 121.406 153.302L126.107 152.171L127.656 151.797L137.629 149.4L137.631 149.398Z" fill="#FEC432"/>
<path d="M96.1043 160.185L85.4545 140.467C84.6715 139.018 83.5098 137.801 82.0905 136.946L69.2025 129.178C67.6109 128.217 65.5536 128.516 64.3049 129.884C62.8311 131.501 63.0187 134.006 64.7178 135.391L72.2373 141.525L61.5585 142.279C61.5585 142.279 58.1876 138.408 55.4122 139.36C55.4122 139.36 51.8537 133.534 47.9234 136.769C47.9234 136.769 43.9162 133.876 42.1046 135.399C40.2929 136.92 51.3522 153.017 53.0478 153.587C54.7435 154.158 60.5998 154.766 60.5998 154.766C60.5998 154.766 60.4462 157.771 63.3735 159.446C66.3025 161.12 68.6908 160.588 68.6908 160.588L70.7737 164.596L96.1026 160.185H96.1043Z" fill="white"/>
<path d="M70.7754 165.063C70.5997 165.063 70.4359 164.967 70.354 164.809L68.4264 161.101C67.6109 161.19 65.5468 161.229 63.1381 159.851C60.6544 158.431 60.2125 156.148 60.1392 155.186C58.7591 155.034 54.375 154.526 52.896 154.029C51.0332 153.402 42.2479 140.455 41.4939 136.55C41.4427 136.284 41.2858 135.472 41.7992 135.043C43.5955 133.533 46.8572 135.484 47.908 136.187C48.8991 135.467 49.9534 135.196 51.0502 135.378C53.3191 135.755 55.0505 137.993 55.6203 138.818C58.2422 138.252 61.0518 141.043 61.7564 141.796L71.0227 141.143L64.4158 135.754C63.4929 135.001 62.9368 133.938 62.8498 132.76C62.7611 131.582 63.1535 130.45 63.9535 129.573C65.3541 128.038 67.6638 127.704 69.4499 128.781L82.3378 136.549C83.8288 137.447 85.0502 138.727 85.8724 140.248L96.5222 159.967C96.5939 160.1 96.5956 160.257 96.5291 160.392C96.4625 160.526 96.3346 160.622 96.1845 160.648L70.8555 165.058C70.8282 165.063 70.8009 165.065 70.7737 165.065L70.7754 165.063ZM68.6908 160.12C68.8665 160.12 69.0319 160.216 69.1138 160.375L71.0381 164.074L95.3793 159.836L85.0365 140.686C84.2945 139.312 83.1908 138.156 81.8448 137.346L68.9569 129.578C67.5598 128.735 65.7532 128.996 64.6598 130.198C64.0337 130.883 63.7267 131.769 63.7966 132.691C63.8648 133.612 64.2998 134.443 65.0214 135.033L72.5409 141.166C72.6911 141.288 72.7491 141.488 72.6911 141.67C72.6331 141.852 72.4676 141.98 72.2731 141.994L61.5943 142.748C61.4391 142.758 61.2992 142.699 61.2019 142.587C61.1712 142.551 58.0102 138.968 55.5708 139.804C55.3559 139.878 55.1256 139.792 55.0096 139.603C54.9925 139.574 53.1945 136.682 50.8933 136.301C49.967 136.148 49.0953 136.419 48.2304 137.13C48.0632 137.268 47.8227 137.275 47.647 137.149C46.6149 136.406 43.6655 134.707 42.4168 135.757C42.4168 135.757 42.2905 135.961 42.5277 136.786C43.8275 141.294 52.0977 152.723 53.2048 153.146C54.8288 153.693 60.5929 154.297 60.6509 154.303C60.9017 154.329 61.0877 154.544 61.0757 154.792C61.0706 154.901 60.9836 157.54 63.6141 159.044C66.3298 160.596 68.5679 160.139 68.5918 160.134C68.6259 160.127 68.6584 160.124 68.6925 160.124L68.6908 160.12Z" fill="#16161B"/>
<path d="M80.2515 152.446C80.2515 152.446 72.6228 149.478 66.7665 152.18C66.7665 152.18 58.0085 138.698 55.9308 143.695C55.5794 144.539 55.6527 145.499 56.0604 146.318L60.6015 154.768" fill="white"/>
<path d="M60.6015 155.236C60.4326 155.236 60.2671 155.145 60.1818 154.987L55.6408 146.536C55.1512 145.554 55.1 144.459 55.4924 143.516C55.9359 142.448 56.6421 142.17 57.1573 142.123C60.2705 141.843 65.6509 149.646 66.9422 151.589C72.8514 149.119 80.1116 151.888 80.4238 152.01C80.6678 152.104 80.7872 152.375 80.6916 152.616C80.5961 152.857 80.3181 152.975 80.0775 152.881C80.0025 152.852 72.5631 150.02 66.9661 152.603C66.7512 152.702 66.4953 152.63 66.3674 152.431C63.9467 148.706 59.3528 142.867 57.2443 143.054C57.0055 143.076 56.6558 143.184 56.3692 143.87C56.0809 144.564 56.1218 145.381 56.4852 146.108L61.0194 154.545C61.1422 154.774 61.0552 155.057 60.8232 155.179C60.7516 155.216 60.6765 155.233 60.6015 155.233V155.236Z" fill="#16161B"/>
<path d="M53.0496 154.055C52.8807 154.055 52.7169 153.966 52.6316 153.808C50.6903 150.231 46.2584 141.752 47.0227 140.262C47.3451 139.633 48.0718 139.252 48.9674 139.242C49.8834 139.232 53.0615 139.658 56.2703 145.573C56.3931 145.801 56.3078 146.085 56.0758 146.207C55.8438 146.33 55.5572 146.244 55.4344 146.015C53.099 141.709 50.588 140.177 49.0066 140.177C48.9981 140.177 48.9878 140.177 48.9793 140.177C48.4437 140.184 48.0274 140.373 47.8688 140.684C47.5566 141.564 50.53 147.954 53.4675 153.366C53.5903 153.594 53.505 153.879 53.273 154C53.2014 154.037 53.1246 154.055 53.0496 154.055Z" fill="#16161B"/>
<path d="M116.471 210.619H75.4734L70.5877 189.928L70.3216 188.792L64.5779 164.451L95.5959 159.052L97.0493 158.802L98.3322 158.578L104.823 177.209L105.183 178.238L111.996 197.785L112.356 198.816L116.471 210.619Z" fill="#FEC432"/>
<path d="M93.67 32.4844H64.0439C63.5389 32.4844 63.1296 32.8886 63.1296 33.3873V43.8524C63.1296 44.3511 63.5389 44.7554 64.0439 44.7554H93.67C94.175 44.7554 94.5843 44.3511 94.5843 43.8524V33.3873C94.5843 32.8886 94.175 32.4844 93.67 32.4844Z" fill="#E3F3EC"/>
<path d="M211.608 38.619C211.608 39.2744 211.337 39.8741 210.9 40.3104C210.463 40.7417 209.858 41.0096 209.187 41.0096H200.41C199.071 41.0096 197.99 39.9364 197.99 38.619C197.99 37.957 198.261 37.3572 198.698 36.9276C199.134 36.4964 199.74 36.2285 200.41 36.2285H209.187C210.526 36.2285 211.608 37.2966 211.608 38.619Z" fill="#E3F3EC"/>
<path d="M230.112 38.619C230.112 39.2744 229.84 39.8741 229.404 40.3104C228.967 40.7417 228.361 41.0096 227.691 41.0096H218.914C217.575 41.0096 216.494 39.9364 216.494 38.619C216.494 37.957 216.765 37.3572 217.201 36.9276C217.638 36.4964 218.244 36.2285 218.914 36.2285H227.691C229.03 36.2285 230.112 37.2966 230.112 38.619Z" fill="#00CB82"/>
<path d="M248.614 38.619C248.614 39.2744 248.342 39.8741 247.906 40.3104C247.469 40.7417 246.863 41.0096 246.193 41.0096H237.416C236.077 41.0096 234.996 39.9364 234.996 38.619C234.996 37.957 235.267 37.3572 235.703 36.9276C236.14 36.4964 236.746 36.2285 237.416 36.2285H246.193C247.532 36.2285 248.614 37.2966 248.614 38.619Z" fill="#E3F3EC"/>
<path d="M125.787 71.9833V98.2909C125.787 104.994 120.282 110.424 113.494 110.424H76.2444L67.2135 119.206C64.9447 121.409 61.3043 121.409 59.0355 119.206L50.0165 110.424H12.76C5.9723 110.424 0.474243 104.994 0.474243 98.2909V71.9833C0.474243 65.2801 5.9723 59.8438 12.76 59.8438H113.494C120.282 59.8438 125.787 65.2801 125.787 71.9833Z" fill="#00CB82"/>
<path d="M63.1245 121.315C61.5227 121.315 59.9225 120.723 58.7028 119.539L49.822 110.892H12.76C5.72324 110.892 0 105.238 0 98.2904V71.9829C0 65.0304 5.72324 59.375 12.76 59.375H113.494C120.533 59.375 126.259 65.0304 126.259 71.9829V98.2904C126.259 105.24 120.533 110.892 113.494 110.892H76.4389L67.5461 119.539C66.3264 120.723 64.7263 121.315 63.1245 121.315ZM12.76 60.3117C6.24694 60.3117 0.948471 65.5476 0.948471 71.9829V98.2904C0.948471 104.722 6.24694 109.955 12.76 109.955H50.2109L59.3681 118.872C61.4391 120.883 64.8082 120.883 66.8808 118.872L76.0499 109.955H113.494C120.011 109.955 125.312 104.722 125.312 98.2904V71.9829C125.312 65.5476 120.011 60.3117 113.494 60.3117H12.76Z" fill="#16161B"/>
<path d="M22.3146 90.865C22.1628 90.2434 22.0605 89.492 22.0093 88.6126C21.9581 87.7332 21.9001 85.8784 21.837 83.0516C21.2382 84.3016 20.6156 85.4337 19.9656 86.4445C18.9916 87.9775 18.3331 89.1618 17.9902 89.9974C18.0158 90.0985 18.0278 90.1895 18.0278 90.2703C18.0278 90.6477 17.8555 90.9796 17.5126 91.2643C17.168 91.5507 16.7552 91.6939 16.2707 91.6939C15.7862 91.6939 15.4314 91.5759 15.1636 91.3401C14.8958 91.1042 14.7815 90.7606 14.819 90.3074L14.7047 89.1854L14.4573 85.8009C14.3942 84.9216 14.2748 83.9445 14.0991 82.8697C13.9234 81.7948 13.6556 80.3157 13.2922 78.4306C13.2666 78.3245 13.2547 78.2301 13.2547 78.1476C13.2547 77.7887 13.4082 77.4703 13.717 77.1907C14.0258 76.911 14.3993 76.7712 14.8378 76.7712C15.1175 76.7712 15.3649 76.8453 15.5781 76.9919C15.7913 77.1402 15.9705 77.4316 16.1172 77.8679C16.2639 78.3042 16.4328 79.3251 16.6272 80.9272C16.8217 82.5294 16.9889 84.3302 17.1288 86.3282C17.8606 85.053 18.6146 83.6042 19.3908 81.9835C20.3461 79.9232 21.1137 78.5839 21.6954 77.9673C22.2771 77.3507 22.7633 77.0441 23.1505 77.0441C23.5378 77.0441 23.8448 77.189 24.1058 77.4771C24.3668 77.7668 24.4965 78.5367 24.4965 79.7867C24.4965 80.0445 24.4777 80.6729 24.4385 81.6719C24.3941 82.8595 24.476 84.8289 24.6858 87.5816C25.2709 86.6197 26.0283 85.3006 26.9581 83.6227L28.5036 80.8514C28.5923 80.6813 28.8482 80.1001 29.2678 79.1078C29.9041 77.5495 30.6649 76.7695 31.5503 76.7695C31.9119 76.7695 32.1985 76.8672 32.4083 77.061C32.6182 77.2564 32.7239 77.5074 32.7239 77.8157C32.7239 77.9471 32.6932 78.0937 32.6335 78.2537C32.5738 78.4138 32.3879 78.7692 32.0791 79.3184C31.7703 79.8676 31.4889 80.4084 31.2347 80.939C30.9805 81.4697 30.6496 82.088 30.2419 82.7905C29.8342 83.4947 29.4521 84.1348 29.0955 84.7127L27.1013 88.0112C26.7005 88.6766 26.3798 89.2343 26.1375 89.679C25.5643 90.7353 25.1157 91.394 24.7916 91.6585C24.4675 91.923 24.0888 92.0544 23.6555 92.0544C23.2614 92.0544 22.9271 91.9415 22.6524 91.7158C22.3795 91.49 22.2635 91.2036 22.3078 90.8583L22.3146 90.865Z" fill="white"/>
<path d="M37.3708 79.0531C37.1166 80.5743 36.8914 81.8142 36.6935 82.7761C37.4833 82.7138 38.7457 82.5976 40.4823 82.4274C41.7105 82.3145 42.4935 82.2573 42.8296 82.2573C43.1861 82.2573 43.4693 82.355 43.6791 82.5487C43.8889 82.7441 43.9947 83.0019 43.9947 83.322C43.9947 83.6858 43.8753 84.0127 43.6365 84.3024C43.3976 84.5922 43.0138 84.7573 42.4867 84.8028C41.9579 84.8466 41.1407 84.9241 40.0336 85.0336C38.9265 85.1431 37.6147 85.2559 36.1016 85.3688C35.7314 87.1478 35.5472 88.3506 35.5472 88.979C35.5472 89.1997 35.5728 89.3463 35.6239 89.4221C35.6751 89.4979 36.064 89.5349 36.789 89.5349H37.5328L40.368 89.4777C40.4499 89.4777 40.7467 89.4457 41.2568 89.3833C41.69 89.3261 42.0398 89.3968 42.3059 89.5905C42.5737 89.786 42.7068 90.0622 42.7068 90.4194C42.7068 91.0916 42.4355 91.5363 41.8913 91.7536C41.3472 91.971 39.8477 92.0788 37.3912 92.0788C35.3305 92.0788 34.063 91.8446 33.5922 91.3763C33.1214 90.9079 32.886 90.1751 32.886 89.1744C32.886 88.1064 33.2033 86.2179 33.8396 83.509C34.4128 81.1403 34.6993 79.5568 34.6993 78.7582C34.7318 78.0861 34.7863 77.6059 34.8665 77.3212C34.9467 77.0348 35.1122 76.7973 35.3629 76.6103C35.6137 76.4216 35.9412 76.3273 36.3404 76.3273C36.627 76.3273 36.8692 76.4115 37.0654 76.5817C38.5546 76.2043 39.9159 76.0156 41.151 76.0156C42.1302 76.0156 43.1179 76.1184 44.1141 76.3222C45.1103 76.5261 45.6085 76.9203 45.6085 77.5049C45.6085 77.926 45.4549 78.2916 45.1462 78.6032C44.8374 78.9149 44.4826 79.0699 44.0817 79.0699C43.9418 79.0699 43.8053 79.0514 43.6706 79.0126C42.6778 78.7431 41.6952 78.6066 40.7211 78.6066C39.6959 78.6066 38.5802 78.7549 37.3708 79.0497V79.0531Z" fill="white"/>
<path d="M44.8766 89.9888L45.5436 87.0289C46.1219 84.4396 46.69 81.4021 47.2427 77.9132C47.2939 77.5797 47.4662 77.2815 47.7579 77.017C48.0496 76.7525 48.3908 76.6211 48.7797 76.6211C49.1175 76.6211 49.3904 76.7222 49.6002 76.9226C49.8101 77.1231 49.9158 77.3842 49.9158 77.7043C49.9158 77.9486 49.7538 78.9543 49.4296 80.7199L48.6756 84.7361C48.4965 85.6475 48.1434 87.2277 47.6163 89.4767C49.1175 89.4581 51.1099 89.0909 53.592 88.3732C53.7506 88.3362 53.8939 88.3159 54.0219 88.3159C54.4108 88.3159 54.694 88.4322 54.8714 88.6647C55.0488 88.8971 55.1392 89.1397 55.1392 89.3907C55.1392 89.9618 54.8646 90.3982 54.3136 90.6964C53.7626 90.9945 52.6657 91.2894 51.0212 91.5825C49.3751 91.8739 47.9933 92.0205 46.8742 92.0205C45.5181 92.0205 44.8408 91.505 44.8408 90.474C44.8408 90.3224 44.8528 90.159 44.8783 89.9838L44.8766 89.9888Z" fill="white"/>
<path d="M67.2169 77.197C67.5547 76.9275 67.9112 76.791 68.2865 76.791C68.9859 76.791 69.3356 77.256 69.3356 78.1859C69.3356 79.3045 69.1838 80.0727 68.8784 80.4905C68.5731 80.9083 68.162 81.1172 67.6468 81.1172C67.0617 81.1172 66.683 80.8224 66.5107 80.2311C66.4339 79.9548 66.3452 79.788 66.2428 79.7324C66.1405 79.6751 65.8829 79.6482 65.4701 79.6482C64.5028 79.6482 63.2456 80.5124 61.7001 82.2409C60.1545 83.9693 59.3801 85.4771 59.3801 86.7658C59.3801 87.3251 59.566 87.8069 59.9379 88.2129C60.3098 88.6189 60.7925 88.8211 61.3845 88.8211C61.9184 88.8211 62.4131 88.7335 62.8686 88.5566C63.3241 88.3814 64.0286 88.0007 64.9822 87.4161C65.5298 87.0893 65.9272 86.9259 66.1746 86.9259C66.5192 86.9259 66.799 87.032 67.0139 87.246C67.2305 87.4599 67.338 87.7295 67.338 88.0563C67.338 88.3831 67.2237 88.6526 66.9934 88.9053C66.7648 89.1564 66.2684 89.5135 65.5042 89.9751C64.74 90.4367 63.9791 90.7888 63.2183 91.0314C62.4575 91.274 61.7086 91.3936 60.97 91.3936C59.6718 91.3936 58.6295 90.9741 57.8431 90.1351C57.0567 89.2962 56.6643 88.3073 56.6643 87.1701C56.6643 85.1401 57.7305 82.9518 59.8611 80.6051C61.9935 78.2583 63.9962 77.0841 65.8744 77.0841C66.4475 77.0841 66.8928 77.1212 67.2101 77.197H67.2169Z" fill="white"/>
<path d="M69.6461 86.6988C69.6461 85.3797 70.0708 83.9175 70.9203 82.3103C71.7699 80.7048 72.9162 79.3959 74.3611 78.3851C75.806 77.3726 77.3293 76.8672 78.9329 76.8672C82.8086 76.8672 84.7448 78.4036 84.7448 81.4764C84.7448 83.9528 83.8578 86.281 82.0819 88.461C80.3061 90.6409 78.1806 91.7309 75.7053 91.7309C73.9295 91.7309 72.4761 91.2592 71.3434 90.3174C70.2107 89.374 69.6443 88.1678 69.6443 86.6971L69.6461 86.6988ZM72.3942 86.2372C72.3942 87.0913 72.7439 87.7938 73.4433 88.3447C74.1428 88.8939 75.0332 89.1702 76.1165 89.1702C77.6756 89.1702 79.0455 88.3683 80.2259 86.7662C81.4064 85.1641 81.9966 83.5199 81.9966 81.8369C81.9966 80.9693 81.7356 80.3544 81.2136 79.9888C80.6916 79.625 79.7943 79.4413 78.5218 79.4413C77.4914 79.4413 76.4986 79.8052 75.5433 80.5347C74.588 81.2641 73.8255 82.1957 73.2523 83.3295C72.6791 84.4633 72.3942 85.4336 72.3942 86.2372Z" fill="white"/>
<path d="M90.9628 82.7387C90.7598 83.1919 90.2958 84.4116 89.5691 86.4011C88.8441 88.3907 88.3767 89.7367 88.1668 90.4409C87.7728 91.3338 87.2184 91.7802 86.5053 91.7802C86.1744 91.7802 85.9117 91.6775 85.7172 91.4736C85.5227 91.2698 85.4272 91.0103 85.4272 90.6953C85.4272 89.8968 85.8571 88.571 86.7151 86.7178C87.2184 85.6245 87.5902 84.7721 87.8325 84.1639L89.378 80.0163C89.8932 78.6467 90.3452 77.7723 90.7342 77.3967C91.1231 77.0193 91.5496 76.8306 92.0136 76.8306C92.6431 76.8306 93.0354 77.1457 93.189 77.774C93.3408 78.4024 93.4329 79.954 93.4653 82.4304C93.4909 84.4924 93.583 86.0558 93.7417 87.1238C94.639 85.4645 95.6727 83.1615 96.843 80.2151L97.7215 78.0469C98.0831 77.149 98.6921 76.6992 99.5434 76.6992C99.9374 76.6992 100.256 76.9031 100.499 77.3124C100.741 77.7201 100.862 78.5591 100.862 79.8293L100.843 82.0631C100.836 82.8735 100.862 83.7613 100.918 84.7266C100.976 85.6919 101.065 86.6201 101.186 87.5113C101.428 89.2516 101.549 90.2792 101.549 90.5942C101.549 90.9093 101.384 91.2209 101.053 91.514C100.722 91.8055 100.35 91.9521 99.9357 91.9521C99.2363 91.9521 98.7996 91.4551 98.629 90.4628L98.4669 88.1919C98.4414 87.8145 98.4226 85.8705 98.409 82.358C98.3015 82.5652 98.1701 82.8549 98.0183 83.2256C97.2029 85.1612 96.5922 86.5123 96.1862 87.2788L95.2599 89.0224C94.7191 90.04 94.2892 90.7223 93.9719 91.0676C93.6529 91.413 93.2555 91.5865 92.7795 91.5865C92.2388 91.5865 91.8669 91.2378 91.6622 90.5403L91.4148 88.7866C91.2818 87.8247 91.1317 85.8115 90.9662 82.7437L90.9628 82.7387Z" fill="white"/>
<path d="M108.233 79.0531C107.979 80.5743 107.754 81.8142 107.556 82.7761C108.346 82.7138 109.608 82.5976 111.345 82.4274C112.573 82.3145 113.356 82.2573 113.692 82.2573C114.048 82.2573 114.332 82.355 114.541 82.5487C114.751 82.7441 114.857 83.0019 114.857 83.322C114.857 83.6858 114.738 84.0127 114.499 84.3024C114.26 84.5922 113.876 84.7573 113.349 84.8028C112.82 84.8466 112.003 84.9241 110.896 85.0336C109.789 85.1431 108.477 85.2559 106.964 85.3688C106.594 87.1478 106.41 88.3506 106.41 88.979C106.41 89.1997 106.435 89.3463 106.486 89.4221C106.537 89.4979 106.926 89.5349 107.651 89.5349H108.395L111.23 89.4777C111.312 89.4777 111.609 89.4457 112.119 89.3833C112.552 89.3261 112.902 89.3968 113.168 89.5905C113.436 89.786 113.569 90.0622 113.569 90.4194C113.569 91.0916 113.298 91.5363 112.754 91.7536C112.21 91.971 110.71 92.0788 108.254 92.0788C106.193 92.0788 104.925 91.8446 104.455 91.3763C103.984 90.9079 103.748 90.1751 103.748 89.1744C103.748 88.1064 104.066 86.2179 104.702 83.509C105.275 81.1403 105.562 79.5568 105.562 78.7582C105.594 78.0861 105.649 77.6059 105.729 77.3212C105.809 77.0348 105.975 76.7973 106.225 76.6103C106.476 76.4216 106.804 76.3273 107.203 76.3273C107.489 76.3273 107.732 76.4115 107.928 76.5817C109.417 76.2043 110.778 76.0156 112.013 76.0156C112.993 76.0156 113.98 76.1184 114.976 76.3222C115.973 76.5261 116.471 76.9203 116.471 77.5049C116.471 77.926 116.317 78.2916 116.009 78.6032C115.7 78.9149 115.345 79.0699 114.944 79.0699C114.804 79.0699 114.668 79.0514 114.533 79.0126C113.54 78.7431 112.558 78.6066 111.583 78.6066C110.558 78.6066 109.443 78.7549 108.233 79.0497V79.0531Z" fill="white"/>
<path d="M289.877 117.307L290 106.488L284.29 106.426C283.642 103.203 282.387 100.191 280.66 97.5041L284.742 93.5553L277.081 85.8193L272.999 89.7682C270.318 87.9976 267.296 86.697 264.048 85.9844L264.112 80.3459L253.151 80.2246L253.088 85.8631C249.825 86.5033 246.775 87.7365 244.054 89.4481L240.06 85.41L232.227 92.9757L236.22 97.0138C234.433 99.6621 233.111 102.646 232.389 105.853L226.679 105.791L226.557 116.61L232.266 116.672C232.914 119.9 234.17 122.912 235.896 125.594L231.814 129.543L239.475 137.279L243.557 133.33C246.239 135.1 249.26 136.401 252.508 137.114L252.445 142.757L263.405 142.878L263.468 137.235C266.732 136.595 269.782 135.36 272.503 133.65L276.496 137.688L284.33 130.122L280.336 126.084C282.124 123.441 283.446 120.459 284.168 117.245L289.877 117.307ZM259.209 124.617C251.034 125.166 244.342 118.412 245.074 110.346C245.65 104.002 250.917 98.9158 257.353 98.4879C265.533 97.9455 272.221 104.703 271.484 112.76C270.904 119.1 265.642 124.184 259.211 124.615L259.209 124.617Z" fill="#00CB82"/>
<path d="M280.63 171.61L276.448 174.21C274.485 175.418 271.907 174.84 270.681 172.914L268.049 168.785C266.822 166.86 267.409 164.312 269.357 163.101L273.542 160.488C275.491 159.277 278.069 159.857 279.309 161.784L281.938 165.926C283.165 167.852 282.578 170.397 280.63 171.61Z" fill="#FEC432"/>
<path d="M31.4804 45.6563L28.3944 48.9548C26.9427 50.4929 24.5118 50.5889 22.9544 49.1671L19.6142 46.1196C18.0568 44.6994 17.9612 42.2971 19.3993 40.759L22.4852 37.447C23.9233 35.9089 26.3559 35.8145 27.9253 37.2347L31.2671 40.294C32.8246 41.7142 32.9201 44.1165 31.4821 45.6546L31.4804 45.6563Z" fill="#FEC432"/>
<path d="M281.969 62.0128L279.113 63.7885C277.772 64.6139 276.012 64.218 275.172 62.904L273.375 60.0839C272.537 58.7682 272.938 57.0296 274.268 56.2025L277.126 54.4184C278.456 53.5913 280.219 53.9872 281.066 55.3029L282.863 58.1331C283.7 59.4471 283.299 61.1874 281.969 62.0145V62.0128Z" fill="#FEC432"/>
<path d="M38.8873 16.1456L36.0316 17.9213C34.6908 18.7467 32.9303 18.3509 32.0911 17.0368L30.2931 14.2167C29.4555 12.901 29.8563 11.1624 31.1869 10.3353L34.0443 8.55124C35.3749 7.72407 37.1371 8.11996 37.9849 9.43568L39.7812 12.2659C40.6188 13.5799 40.2179 15.3202 38.8873 16.1473V16.1456Z" fill="#FEC432"/>
<g opacity="0.4">
<path d="M97.0494 158.803L70.5877 189.928L70.3216 188.793L95.5959 159.052L97.0494 158.803Z" fill="white"/>
</g>
<g opacity="0.4">
<path d="M127.658 151.795L105.183 178.239L92.4861 193.18L77.6654 210.62H76.4269L93.7058 190.291L104.823 177.21L126.109 152.169L127.658 151.795Z" fill="white"/>
</g>
<g opacity="0.4">
<path d="M155.977 147.502L125.604 183.233L112.358 198.818L102.327 210.621H101.094L111.996 197.789L125.761 181.599L154.681 147.571C155.111 147.546 155.541 147.52 155.977 147.502Z" fill="white"/>
</g>
<g opacity="0.4">
<path d="M201.664 151.594L151.496 210.618H150.264L200.805 151.145C201.095 151.288 201.386 151.438 201.664 151.594Z" fill="white"/>
</g>
<g opacity="0.4">
<path d="M221.098 157.925L191.652 192.565L191.716 191.042L220.402 157.281C220.642 157.487 220.869 157.699 221.096 157.925H221.098Z" fill="white"/>
</g>
<path d="M274.059 211.101H40.2179C39.9569 211.101 39.7437 210.892 39.7437 210.632C39.7437 210.373 39.9552 210.164 40.2179 210.164H274.059C274.32 210.164 274.533 210.373 274.533 210.632C274.533 210.892 274.321 211.101 274.059 211.101Z" fill="#16161B"/>
<path d="M75.4734 211.091C75.2584 211.091 75.0639 210.944 75.0128 210.729L64.1173 164.561C64.0883 164.436 64.1122 164.305 64.1838 164.197C64.2555 164.089 64.3698 164.017 64.4977 163.995L98.2537 158.117C98.4789 158.075 98.7075 158.208 98.7842 158.425L111.998 196.347C112.083 196.591 111.952 196.857 111.705 196.942C111.457 197.026 111.188 196.896 111.102 196.652L98.02 159.109L65.1562 164.83L75.9391 210.517C75.9988 210.768 75.8401 211.02 75.5842 211.079C75.5484 211.088 75.5126 211.091 75.4768 211.091H75.4734Z" fill="#16161B"/>
<path d="M116.471 211.09C116.447 211.09 116.423 211.09 116.401 211.085C116.142 211.046 115.962 210.808 116.002 210.552L121.385 174.77C121.425 174.514 121.67 174.339 121.925 174.376C122.184 174.415 122.363 174.652 122.324 174.908L116.94 210.69C116.904 210.923 116.703 211.09 116.471 211.09Z" fill="#16161B"/>
<path d="M149.664 118.463L147.781 148.618C147.781 148.618 135.698 161.158 152.373 164.004C174.781 167.828 173.425 148.71 173.425 148.71L178.15 109.293L149.664 118.463Z" fill="white"/>
<path d="M157.922 164.98C156.175 164.98 154.297 164.81 152.291 164.466C147.288 163.612 144.287 161.793 143.369 159.057C141.873 154.591 146.482 149.326 147.315 148.423L149.188 118.435C149.2 118.243 149.33 118.078 149.514 118.019L178 108.849C178.152 108.8 178.323 108.831 178.447 108.932C178.572 109.033 178.637 109.189 178.618 109.349L173.898 148.725C173.94 149.434 174.235 156.7 169.058 161.317C166.327 163.755 162.593 164.98 157.919 164.98H157.922ZM150.116 118.81L148.251 148.649C148.245 148.758 148.199 148.863 148.122 148.942C148.069 148.998 142.839 154.5 144.27 158.765C145.068 161.146 147.822 162.755 152.451 163.545C159.52 164.751 164.894 163.77 168.418 160.628C173.406 156.184 172.956 148.817 172.951 148.743C172.949 148.715 172.951 148.684 172.953 148.656L177.591 109.966L150.114 118.81H150.116Z" fill="#16161B"/>
<path d="M164.723 84.1635C164.174 88.1847 159.729 90.9105 154.797 90.2535C149.865 89.5948 146.312 85.8026 146.861 81.7814C147.41 77.7601 155.213 69.4834 160.145 70.1404C165.077 70.7991 165.273 80.1422 164.722 84.1635H164.723Z" fill="#16161B"/>
<path d="M177.436 124.945C178.57 123.949 179.638 122.863 180.624 121.688C185.052 116.42 188.536 110.032 193.188 103.722L161.663 76.7891C160.894 77.1378 145.536 86.1321 138.194 106.707C133.151 120.836 137.948 128.469 148.538 131.444C154.792 133.201 161.33 132.923 167.246 130.866" fill="white"/>
<path d="M156.97 133.08C154.096 133.08 151.221 132.686 148.407 131.894C143.016 130.378 139.29 127.716 137.334 123.979C135.041 119.603 135.181 113.738 137.747 106.55C145.397 85.1095 161.312 76.4335 161.465 76.3628C161.634 76.287 161.832 76.3139 161.974 76.4335L193.498 103.366C193.684 103.524 193.717 103.799 193.572 103.996C191.622 106.641 189.872 109.31 188.179 111.89C185.81 115.502 183.573 118.914 180.991 121.987C180 123.164 178.91 124.278 177.751 125.295C177.557 125.465 177.257 125.45 177.083 125.256C176.909 125.063 176.926 124.768 177.122 124.596C178.244 123.611 179.302 122.532 180.261 121.39C182.807 118.359 185.03 114.97 187.384 111.383C189.01 108.905 190.689 106.345 192.55 103.796L161.608 77.3618C159.548 78.5882 145.52 87.5876 138.642 106.863C136.167 113.799 136.012 119.414 138.178 123.552C140.01 127.049 143.54 129.554 148.669 130.994C154.742 132.701 161.112 132.504 167.091 130.425C167.337 130.339 167.608 130.467 167.695 130.711C167.782 130.956 167.652 131.222 167.405 131.308C164.01 132.489 160.493 133.08 156.974 133.08H156.97Z" fill="#16161B"/>
<path d="M175.372 135.853L175.129 130.012L173.14 116.679C172.12 117.682 170.392 117.151 170.107 115.758C169.595 113.265 173.227 106.078 177.226 101.851C177.226 101.851 149.816 92.8265 153.383 80.0484C159.631 57.6695 172.308 60.5907 185.593 79.1859C192.173 88.3959 210.688 97.6598 196.82 111.841C200.844 125.062 183.21 136.727 175.372 135.853Z" fill="#16161B"/>
<path d="M169.66 126.927C169.66 126.927 172.705 130.087 177.801 130.5C182.896 130.913 189.419 117.9 186.035 115.124C182.651 112.348 173.14 116.681 173.14 116.681" fill="white"/>
<path d="M178.041 130.977C177.947 130.977 177.855 130.974 177.761 130.965C172.547 130.544 169.445 127.382 169.316 127.249C169.135 127.062 169.143 126.765 169.331 126.589C169.52 126.41 169.821 126.418 170.001 126.604C170.03 126.634 172.995 129.643 177.838 130.034C180.493 130.253 183.761 126.211 185.424 122.187C186.728 119.031 186.849 116.4 185.73 115.485C182.615 112.929 173.43 117.064 173.336 117.106C173.096 117.215 172.816 117.111 172.707 116.877C172.598 116.642 172.7 116.364 172.939 116.255C173.338 116.073 182.761 111.833 186.335 114.764C187.821 115.982 187.809 118.89 186.301 122.54C184.542 126.798 181.177 130.977 178.04 130.977H178.041Z" fill="#16161B"/>
<path d="M175.778 119.761C176.695 118.969 177.782 118.369 178.945 118.01C179.675 117.785 180.45 117.653 181.204 117.78C181.958 117.904 182.688 118.315 183.063 118.972C183.596 119.902 183.326 121.071 182.929 122.065C182.205 123.878 180.815 125.61 178.751 126.06" fill="white"/>
<path d="M178.751 126.527C178.534 126.527 178.338 126.379 178.289 126.16C178.232 125.907 178.394 125.658 178.649 125.602C180.98 125.093 182.11 122.839 182.487 121.893C182.958 120.713 183.012 119.832 182.651 119.2C182.369 118.71 181.799 118.351 181.125 118.239C180.542 118.142 179.873 118.212 179.087 118.456C177.992 118.794 176.955 119.367 176.09 120.112C175.892 120.282 175.593 120.262 175.421 120.066C175.249 119.871 175.269 119.576 175.467 119.406C176.431 118.575 177.586 117.939 178.805 117.561C179.739 117.273 180.551 117.192 181.284 117.315C182.238 117.474 183.058 118.006 183.478 118.739C183.99 119.632 183.954 120.774 183.37 122.235C182.456 124.527 180.81 126.087 178.855 126.515C178.821 126.522 178.785 126.527 178.753 126.527H178.751Z" fill="#16161B"/>
<path d="M157.269 107.547C156.702 108.74 156.9 110.01 157.709 110.386C158.519 110.761 159.635 110.098 160.201 108.907C160.767 107.714 160.57 106.444 159.761 106.068C158.951 105.692 157.835 106.356 157.269 107.547Z" fill="#16161B"/>
<path d="M152.373 105.82C151.953 107.038 149.34 110.539 148.228 111.21C147.117 111.88 144.266 112.106 143.91 113.342C143.579 114.486 143.879 115.788 144.679 116.678" fill="white"/>
<path d="M144.679 117.145C144.548 117.145 144.418 117.091 144.324 116.987C143.424 115.983 143.081 114.502 143.454 113.213C143.756 112.169 145.123 111.763 146.445 111.37C147.059 111.188 147.639 111.015 147.982 110.809C149.002 110.194 151.544 106.78 151.926 105.669C152.011 105.425 152.279 105.294 152.526 105.376C152.774 105.459 152.907 105.725 152.823 105.969C152.373 107.28 149.698 110.87 148.477 111.606C148.031 111.874 147.393 112.064 146.72 112.265C145.742 112.555 144.527 112.915 144.369 113.468C144.082 114.456 144.345 115.594 145.038 116.364C145.212 116.557 145.193 116.852 144.997 117.024C144.906 117.103 144.794 117.142 144.681 117.142L144.679 117.145Z" fill="#16161B"/>
<path d="M152.281 123.042C151.58 123.042 150.878 122.903 150.237 122.629C149.997 122.526 149.887 122.25 149.991 122.012C150.097 121.775 150.377 121.667 150.616 121.77C151.665 122.221 152.915 122.218 153.961 121.763C155.007 121.306 155.851 120.397 156.22 119.329C156.305 119.084 156.571 118.953 156.82 119.037C157.067 119.12 157.2 119.386 157.117 119.632C156.665 120.944 155.628 122.061 154.343 122.622C153.698 122.903 152.989 123.045 152.281 123.045V123.042Z" fill="#16161B"/>
<path d="M162.709 106.089C162.531 106.089 162.362 105.991 162.281 105.822C161.75 104.727 160.858 103.621 158.381 103.717C158.118 103.728 157.9 103.525 157.89 103.267C157.879 103.009 158.084 102.792 158.345 102.782C160.701 102.694 162.219 103.531 163.135 105.42C163.248 105.652 163.149 105.932 162.912 106.045C162.845 106.077 162.775 106.09 162.707 106.09L162.709 106.089Z" fill="#16161B"/>
<path d="M146.32 101.77C145.754 102.962 145.952 104.233 146.76 104.608C147.569 104.984 148.686 104.32 149.253 103.129C149.819 101.937 149.621 100.666 148.813 100.291C148.002 99.9149 146.887 100.579 146.32 101.77Z" fill="#16161B"/>
<path d="M151.762 100.311C151.61 100.311 151.46 100.238 151.37 100.105C150.389 98.6751 149.094 97.9659 147.41 97.9389C147.149 97.9338 146.94 97.7216 146.943 97.4638C146.946 97.2061 147.16 97.0022 147.424 97.0039C149.411 97.0359 151.003 97.9018 152.153 99.5814C152.299 99.7954 152.243 100.087 152.025 100.232C151.943 100.286 151.851 100.313 151.76 100.313L151.762 100.311Z" fill="#16161B"/>
<path d="M195.658 210.62C195.658 210.62 189.442 201.412 181.299 201.107C173.157 200.802 163.07 201.697 161.752 204.759C160.442 207.804 160.518 220.056 164.295 220.361C167.194 220.595 167.687 216.48 167.687 216.48C167.687 216.48 167.995 221.528 171.233 221.528C174.471 221.528 174.084 214.729 174.084 214.729C174.084 214.729 175.627 219.973 178.244 219.829C182.328 219.599 181.415 213.828 181.415 213.828C181.415 213.828 182.567 218.462 185.649 218.767C188.732 219.072 188.88 210.62 188.88 210.62H195.661H195.658Z" fill="white"/>
<path d="M171.231 221.999C169.049 221.999 168.045 220.107 167.586 218.544C167.006 219.809 165.955 220.965 164.256 220.828C163.427 220.761 162.716 220.252 162.141 219.314C159.967 215.762 160.259 207.033 161.315 204.576C163.244 200.095 179.472 200.57 181.316 200.639C189.605 200.949 195.793 209.976 196.052 210.36C196.149 210.503 196.158 210.688 196.076 210.84C195.994 210.992 195.832 211.088 195.658 211.088H189.334C189.266 212.573 188.916 217.178 187.181 218.702C186.716 219.112 186.18 219.29 185.6 219.233C183.814 219.056 182.632 217.643 181.907 216.32C181.791 217.253 181.504 218.268 180.871 219.041C180.24 219.812 179.365 220.235 178.27 220.296C176.549 220.399 175.266 218.593 174.496 217.038C174.36 218.478 173.995 220.228 173.058 221.207C172.557 221.731 171.943 221.997 171.233 221.997L171.231 221.999ZM167.685 216.014C167.685 216.014 167.693 216.014 167.698 216.014C167.944 216.02 168.144 216.211 168.159 216.453C168.161 216.499 168.48 221.062 171.231 221.062C171.675 221.062 172.047 220.901 172.367 220.565C173.582 219.297 173.676 215.943 173.609 214.757C173.596 214.519 173.766 214.31 174.002 214.27C174.242 214.229 174.471 214.373 174.537 214.6C174.933 215.939 176.342 219.364 178.138 219.364C178.164 219.364 178.191 219.364 178.217 219.363C179.043 219.317 179.67 219.019 180.133 218.455C181.4 216.908 180.951 213.931 180.946 213.901C180.907 213.653 181.073 213.419 181.322 213.37C181.569 213.321 181.815 213.473 181.876 213.717C181.886 213.761 182.987 218.035 185.696 218.303C186.008 218.335 186.289 218.237 186.554 218.005C187.986 216.746 188.375 212.243 188.404 210.614C188.41 210.358 188.619 210.154 188.879 210.154H194.73C193.073 208.005 187.758 201.819 181.284 201.578C172.654 201.256 163.325 202.309 162.19 204.945C161.213 207.216 161.025 215.678 162.954 218.832C163.362 219.497 163.826 219.856 164.334 219.897C166.741 220.089 167.212 216.463 167.216 216.426C167.245 216.19 167.448 216.014 167.686 216.014H167.685Z" fill="#16161B"/>
<path d="M181.412 214.297C181.17 214.297 180.963 214.114 180.941 213.871L180.441 208.399C180.418 208.142 180.61 207.914 180.871 207.891C181.127 207.867 181.363 208.057 181.386 208.315L181.886 213.787C181.91 214.045 181.717 214.272 181.456 214.296C181.443 214.296 181.427 214.297 181.414 214.297H181.412Z" fill="#16161B"/>
<path d="M174.08 215.199C173.848 215.199 173.647 215.032 173.611 214.8L172.804 209.382C172.767 209.126 172.946 208.888 173.203 208.851C173.468 208.812 173.703 208.991 173.741 209.245L174.548 214.663C174.585 214.919 174.406 215.157 174.148 215.194C174.125 215.197 174.102 215.199 174.078 215.199H174.08Z" fill="#16161B"/>
<path d="M167.685 216.95C167.446 216.95 167.24 216.772 167.214 216.531L166.457 209.362C166.429 209.105 166.619 208.876 166.878 208.849C167.139 208.82 167.373 209.009 167.398 209.265L168.156 216.433C168.183 216.691 167.994 216.92 167.734 216.947C167.717 216.948 167.7 216.95 167.685 216.95Z" fill="#16161B"/>
</g>
<defs>
<clipPath id="clip0_1287_31712">
<rect width="290" height="222" fill="white"/>
</clipPath>
</defs>
</svg>
