<svg width="49" height="50" viewBox="0 0 49 50" fill="none" xmlns="http://www.w3.org/2000/svg">
<rect y="0.5" width="49" height="49" rx="8" fill="#EDFAF4"/>
<g clip-path="url(#clip0_935_14009)">
<path d="M24.4458 38.6065C31.9191 38.6065 38.1065 32.4057 38.1065 24.9458C38.1065 17.4727 31.9057 11.2852 24.4325 11.2852C16.9727 11.2852 10.7852 17.4727 10.7852 24.9458C10.7852 32.4057 16.986 38.6065 24.4458 38.6065ZM24.4458 36.3298C18.1244 36.3298 13.0753 31.2673 13.0753 24.9458C13.0753 18.6244 18.1111 13.5619 24.4325 13.5619C30.754 13.5619 35.8298 18.6244 35.8298 24.9458C35.8298 31.2673 30.7673 36.3298 24.4458 36.3298Z" fill="#00BA77"/>
<path d="M24.4325 32.5934C24.7941 32.5934 25.062 32.339 25.062 31.9641V31.0265C27.1378 30.8257 28.7584 29.6203 28.7584 27.5979C28.7584 25.7765 27.5798 24.6783 25.2494 24.2631L25.062 24.2229V20.4863C26.0262 20.6604 26.6959 21.2363 26.9637 22.1337C27.0976 22.5354 27.3521 22.7899 27.7807 22.7899C28.236 22.7899 28.5709 22.4685 28.5709 21.9997C28.5709 21.8658 28.5306 21.7319 28.5039 21.5845C28.1557 20.1381 26.7762 19.147 25.062 18.9461V18.022C25.062 17.647 24.7941 17.3926 24.4325 17.3926C24.0709 17.3926 23.803 17.647 23.803 18.022V18.9461C21.7673 19.1738 20.3209 20.4461 20.3209 22.2676C20.3209 23.9685 21.4727 24.9863 23.7093 25.5086L23.803 25.5355V29.4997C22.5976 29.3257 21.8878 28.6559 21.6735 27.7587C21.5128 27.3033 21.245 27.089 20.8432 27.089C20.3878 27.089 20.0664 27.4105 20.0664 27.8791C20.0664 28.0265 20.0932 28.1604 20.1334 28.2943C20.5084 29.8346 22.0084 30.8257 23.803 30.9997V31.9641C23.803 32.339 24.0709 32.5934 24.4325 32.5934ZM23.803 23.8881L23.7093 23.8613C22.5039 23.5131 21.9682 22.9774 21.9682 22.1872C21.9682 21.3703 22.6646 20.6872 23.803 20.4863V23.8881ZM25.062 25.8569L25.3566 25.9238C26.6557 26.2854 27.0976 26.8346 27.0976 27.6917C27.0976 28.6292 26.428 29.339 25.062 29.4997V25.8569Z" fill="#00BA77"/>
</g>
<defs>
<clipPath id="clip0_935_14009">
<rect width="27.3214" height="27.3349" fill="white" transform="translate(10.7861 11.2861)"/>
</clipPath>
</defs>
</svg>
